<?xml version="1.0" encoding="utf-8"?>
<!-- Generator: Adobe Illustrator 15.0.0, SVG Export Plug-In  -->
<!DOCTYPE svg PUBLIC "-//W3C//DTD SVG 1.1 Tiny//EN" "http://www.w3.org/Graphics/SVG/1.1/DTD/svg11-tiny.dtd" [
	<!ENTITY ns_flows "http://ns.adobe.com/Flows/1.0/">
]>
<svg version="1.1" baseProfile="tiny"
	 xmlns="http://www.w3.org/2000/svg" xmlns:xlink="http://www.w3.org/1999/xlink" xmlns:a="http://ns.adobe.com/AdobeSVGViewerExtensions/3.0/"
	 x="0px" y="0px" width="354px" height="283px" viewBox="0 0 354 283" xml:space="preserve">
<defs>
</defs>
<path fill="#FFFFFF" d="M354.331,257.107c0,16.767-9.592,26.357-26.357,26.357l-301.614-0.041c-16.767,0-26.358-9.591-26.358-26.357
	L0,26.359C0,9.59,9.592,0,26.358,0h301.613c16.766,0,26.359,9.59,26.359,26.359V257.107z"/>
<path fill="#008000" d="M343.27,249.786c0,15.288-7.332,22.619-22.617,22.619l-286.972-0.041c-15.285,0-22.617-7.331-22.617-22.619
	L11.063,33.679c0-15.283,7.332-22.619,22.617-22.619h286.971c15.285,0,22.619,7.336,22.619,22.619V249.786z"/>
<path fill="#FF0000" d="M11.063,86.88V33.681c0-15.289,7.333-22.621,22.617-22.621h286.971c15.287,0,22.619,7.332,22.619,22.621
	V86.88H11.063z"/>
<path fill="#FFFFFF" d="M64.216,61.706v1.56h-3.72v-27.06h23.939v26.82h-3.81v-1.32H64.216z M80.626,58.526v-19.08h-16.41v19.08
	H80.626z M70.216,44.156h-5.16v-3h14.49v3h-5.67v2.58h5.1v3h-1.859c0.659,0.98,1.3,2,1.92,3.061l-2.011,0.84h3.061v3.09h-15.36
	v-3.09h5.49v-3.9h-4.59v-3h4.59V44.156z M76.786,49.736h-2.91v3.9h1.92c-0.42-0.801-0.96-1.65-1.62-2.551L76.786,49.736z"/>
<path fill="#FFFFFF" d="M137.985,44.996h-4.83v-2.88h16.021v2.88h-5.91c-0.66,0.521-1.37,1.04-2.13,1.561
	c1.16,1.061,2.05,2.26,2.67,3.6c1.8-0.92,3.64-2.28,5.521-4.08c1.659,1.18,2.625,1.891,2.895,2.13
	c0.271,0.24,0.405,0.445,0.405,0.615s-0.245,0.315-0.735,0.435c-0.49,0.12-1.615,0.66-3.375,1.62c0.76,3.12,2.8,5.729,6.12,7.83
	c-1.181,0.76-2.271,1.649-3.27,2.67c-2.801-2.261-4.65-5.26-5.551-9c-0.239,0.14-0.59,0.33-1.05,0.57c0.36,1.72,0.54,3.25,0.54,4.59
	c0,2.06-0.525,3.524-1.575,4.396c-1.05,0.869-2.875,1.305-5.475,1.305c-0.12-1.36-0.561-2.59-1.32-3.689
	c0.601,0.02,1.12,0.029,1.561,0.029c1.3,0,2.149-0.12,2.55-0.359c0.399-0.24,0.6-0.631,0.6-1.17c0-0.541-0.04-1.33-0.12-2.371
	c-3.08,2.521-6.89,4.68-11.43,6.48c-0.5-1.24-1.271-2.2-2.31-2.88c2.26-0.601,4.595-1.54,7.005-2.82
	c2.409-1.28,4.435-2.649,6.075-4.11c-0.12-0.439-0.24-0.789-0.36-1.049c-2.32,1.76-5.5,3.49-9.54,5.189
	c-0.6-0.96-1.35-1.83-2.25-2.61c3.859-0.939,7.25-2.579,10.17-4.92c-0.16-0.2-0.39-0.409-0.69-0.63c-2.88,1.62-5.579,2.801-8.1,3.54
	c-0.641-1.1-1.311-2.08-2.01-2.94C132.565,47.946,135.865,46.636,137.985,44.996z M139.186,37.585c-0.06-0.68-0.229-1.479-0.51-2.4
	l4.77-0.51c0.14,0.961,0.21,1.931,0.21,2.91h10.351v6.09h-3.96v-3.09h-17.641v3.09h-3.689v-6.09H139.186z"/>
<path fill="#FFFFFF" d="M208.216,37.466c-0.16-0.86-0.33-1.621-0.51-2.281l4.71-0.42c0.199,1.041,0.33,1.941,0.39,2.701h10.23v3.119
	h-25.83v-3.119H208.216z M207.525,60.085v0.99h-3.27v-7.891h11.79v6.181c0.699,0.1,1.204,0.149,1.515,0.149
	c0.31,0,0.505-0.064,0.585-0.194s0.12-0.386,0.12-0.765v-6.301h-16.11v10.62h-3.689V49.226h23.61v9.689
	c0,0.98-0.146,1.75-0.436,2.311c-0.29,0.559-0.825,0.99-1.604,1.289c-0.78,0.301-1.931,0.5-3.45,0.601
	c-0.021-1.001-0.2-1.87-0.54-2.61v0.45h-3.45v-0.87H207.525z M218.836,48.296h-16.95v-6.811h16.95V48.296z M214.666,45.716v-1.561
	h-8.94v1.561H214.666z M212.596,57.595v-1.77h-5.07v1.77H212.596z"/>
<path fill="#FFFFFF" d="M293.836,58.196c-0.441,1.2-0.75,2.489-0.932,3.87c-2.68,0.1-5.129,0.15-7.35,0.15
	c-4.82,0-8.025-0.176-9.615-0.525c-1.589-0.351-2.724-0.836-3.404-1.455c-0.44-0.4-0.766-0.6-0.976-0.6s-0.455,0.119-0.734,0.359
	c-0.28,0.24-0.75,0.68-1.41,1.32c-0.66,0.64-1.131,1.189-1.41,1.65c-1.181-1.221-2.21-2.261-3.09-3.121
	c1.279-1,2.234-1.68,2.864-2.039c0.631-0.36,1.01-0.646,1.141-0.855c0.13-0.21,0.195-0.595,0.195-1.154v-8.011h-3.48v-3.33h7.17
	v10.74c0,0.659,0.26,1.245,0.78,1.755c0.52,0.51,1.135,0.885,1.844,1.125c0.711,0.24,1.85,0.42,3.42,0.54s3.75,0.181,6.541,0.181
	C288.18,58.796,290.995,58.595,293.836,58.196z M273.855,41.335l-3.689,1.68c-0.801-1.879-1.9-3.699-3.3-5.459l3.539-1.891
	C271.926,37.925,273.076,39.816,273.855,41.335z M281.206,40.796h-7.2v-3.091h7.2v-2.489h3.27c0.48,0,0.721,0.13,0.721,0.389
	c0,0.121-0.064,0.301-0.195,0.541s-0.195,0.76-0.195,1.56h7.381v3.091h-7.41v1.68h6.09v8.01h-3.449c1.559,1.301,3.26,2.84,5.1,4.619
	l-3,2.341c-1.301-1.66-2.881-3.2-4.74-4.62v5.16h-3.57v-5.4c-1.32,1.82-3.09,3.49-5.311,5.01c-0.778-0.819-1.719-1.659-2.819-2.52
	c1.5-0.8,2.645-1.516,3.434-2.145c0.791-0.631,1.516-1.445,2.176-2.445h-3.45v-8.01h5.97V40.796z M281.206,47.666v-2.311h-2.551
	v2.311H281.206z M284.776,45.355v2.311h2.58v-2.311H284.776z M284.776,50.486v1.98l2.34-1.98H284.776z"/>
<path fill="#FFFFFF" d="M137.457,176.802c-1.562,42.637-14.771,63.955-39.626,63.955c-11.704,0-21.318-5.712-28.842-17.139
	c-7.524-11.423-11.286-26.611-11.286-45.562c0-20.482,3.817-36.399,11.454-47.757c7.633-11.354,17.472-17.033,29.511-17.033
	c7.579,0,14.434,2.648,20.565,7.941c6.129,5.297,10.978,12.959,14.546,22.99l-18.392,8.569c-3.122-9.751-8.861-14.63-17.222-14.63
	c-13.601,0-20.398,13.029-20.398,39.082c0,26.057,6.965,39.084,20.9,39.084c7.801,0,13.376-4.807,16.72-14.422h-11.704v-25.08
	H137.457z"/>
<path fill="#FFFFFF" d="M190.792,239.712h-20.064v-86.108h-10.032v-25.916c5.686-2.228,9.418-7.106,11.203-14.63h18.894V239.712z"/>
<path fill="#FFFFFF" d="M240.116,155.903c5.016-1.532,11.145-2.299,18.392-2.299c11.704,0,20.985,4.356,27.839,13.063
	c6.855,8.71,10.283,19.091,10.283,31.142c0,12.053-3.568,22.258-10.701,30.617c-7.135,8.361-16.498,12.541-28.09,12.541
	c-16.051,0-29.985-4.458-41.8-13.377l11.035-21.108c8.026,6.551,17.833,9.823,29.428,9.823c7.132,0,12.315-1.672,15.55-5.016
	c3.231-3.345,4.85-8.08,4.85-14.213c0-6.129-1.73-10.764-5.185-13.898c-3.456-3.135-8.417-4.702-14.881-4.702
	c-6.466,0-12.707,1.534-18.727,4.598l-20.23-9.823l4.347-58.938h65.543v25.08h-45.646L240.116,155.903z"/>
</svg>
