<?xml version="1.0" encoding="utf-8"?>
<!-- Generator: Adobe Illustrator 15.0.0, SVG Export Plug-In  -->
<!DOCTYPE svg PUBLIC "-//W3C//DTD SVG 1.1//EN" "http://www.w3.org/Graphics/SVG/1.1/DTD/svg11.dtd" [
	<!ENTITY ns_flows "http://ns.adobe.com/Flows/1.0/">
]>
<svg version="1.1"
	 xmlns="http://www.w3.org/2000/svg" xmlns:xlink="http://www.w3.org/1999/xlink" xmlns:a="http://ns.adobe.com/AdobeSVGViewerExtensions/3.0/"
	 x="0px" y="0px" width="354px" height="340px" viewBox="0 0 354 340" enable-background="new 0 0 354 340" xml:space="preserve">
<defs>
</defs>
<path fill="#008000" d="M354.331,309.8c0,16.767-13.593,30.357-30.358,30.357l-293.614-0.041C13.592,340.116,0,326.525,0,309.759
	v-279.4C0,13.59,13.592,0,30.358,0h293.614c16.766,0,30.358,13.59,30.358,30.358V309.8z"/>
<path fill="#FFFFFF" d="M347.674,304.599c0,16.113-12.789,28.903-28.9,28.903l-283.219-0.041c-16.111,0-28.9-12.79-28.9-28.903
	V35.554c0-16.11,12.789-28.898,28.9-28.898h283.219c16.111,0,28.9,12.788,28.9,28.898V304.599z"/>
<path fill="#008000" d="M339.27,302.479c0,15.288-7.333,22.619-22.618,22.619l-278.973-0.041c-15.285,0-22.617-7.331-22.617-22.619
	V37.679c0-15.283,7.333-22.618,22.617-22.618h278.973c15.285,0,22.618,7.335,22.618,22.618V302.479z"/>
<path fill="#FF0000" d="M15.063,69.881v-32.2c0-15.289,7.333-22.621,22.617-22.621h278.971c15.287,0,22.619,7.332,22.619,22.621
	v32.2H15.063z"/>
<path fill="#FFFFFF" d="M78.16,54.809v1.548h-3.688V29.527h23.734v26.592H94.43v-1.311H78.16z M94.43,51.655V32.739H78.16v18.916
	H94.43z M84.109,37.408h-5.116v-2.973h14.364v2.973h-5.62v2.56h5.057v2.975H90.95c0.652,0.971,1.287,1.982,1.902,3.031l-1.992,0.834
	h3.032v3.063H78.666v-3.063h5.443v-3.865h-4.55v-2.975h4.55V37.408z M90.622,42.942h-2.885v3.865h1.902
	c-0.416-0.791-0.951-1.635-1.604-2.527L90.622,42.942z"/>
<path fill="#FFFFFF" d="M142.374,38.242h-4.791v-2.854h15.883v2.854h-5.859c-0.652,0.518-1.357,1.031-2.109,1.546
	c1.148,1.053,2.031,2.241,2.647,3.571c1.784-0.914,3.608-2.262,5.472-4.045c1.645,1.168,2.603,1.872,2.868,2.108
	c0.269,0.24,0.402,0.444,0.402,0.611c0,0.169-0.242,0.312-0.729,0.431c-0.486,0.118-1.601,0.655-3.345,1.608
	c0.753,3.093,2.775,5.679,6.067,7.762c-1.171,0.752-2.251,1.636-3.243,2.647c-2.776-2.242-4.608-5.216-5.502-8.925
	c-0.236,0.142-0.585,0.326-1.041,0.566c0.356,1.704,0.535,3.222,0.535,4.551c0,2.041-0.52,3.496-1.561,4.357
	c-1.041,0.86-2.852,1.295-5.43,1.295c-0.117-1.352-0.554-2.568-1.307-3.66c0.594,0.02,1.107,0.029,1.547,0.029
	c1.287,0,2.13-0.118,2.527-0.356c0.396-0.236,0.595-0.623,0.595-1.16c0-0.534-0.041-1.317-0.118-2.349
	c-3.056,2.498-6.831,4.64-11.332,6.424c-0.497-1.229-1.26-2.181-2.291-2.854c2.239-0.596,4.556-1.528,6.944-2.799
	c2.39-1.269,4.397-2.626,6.022-4.074c-0.119-0.436-0.236-0.783-0.355-1.039c-2.3,1.744-5.454,3.461-9.46,5.145
	c-0.593-0.95-1.338-1.814-2.229-2.588c3.827-0.931,7.187-2.557,10.081-4.879c-0.157-0.196-0.385-0.405-0.684-0.625
	c-2.855,1.608-5.532,2.776-8.029,3.51c-0.635-1.089-1.301-2.063-1.993-2.914C137.001,41.167,140.271,39.868,142.374,38.242z
	 M143.562,30.895c-0.057-0.672-0.227-1.466-0.505-2.379l4.729-0.506c0.138,0.954,0.208,1.916,0.208,2.885h10.263v6.04h-3.926V33.87
	h-17.49v3.064h-3.657v-6.04H143.562z"/>
<path fill="#FFFFFF" d="M203.078,30.777c-0.159-0.852-0.329-1.605-0.506-2.262l4.669-0.416c0.199,1.031,0.327,1.924,0.387,2.678
	h10.142v3.093h-25.608v-3.093H203.078z M202.393,53.201v0.983h-3.24V46.36h11.688v6.128c0.691,0.099,1.192,0.149,1.5,0.149
	s0.502-0.065,0.581-0.193s0.118-0.381,0.118-0.758v-6.247h-15.972v10.529h-3.657V42.436h23.407v9.606
	c0,0.972-0.145,1.735-0.433,2.289c-0.286,0.556-0.816,0.983-1.591,1.281c-0.772,0.298-1.914,0.495-3.42,0.593
	c-0.019-0.989-0.197-1.854-0.534-2.588v0.449h-3.42v-0.865H202.393z M213.606,41.514h-16.805v-6.75h16.805V41.514z M209.471,38.956
	v-1.548h-8.861v1.548H209.471z M207.421,50.733v-1.756h-5.028v1.756H207.421z"/>
<path fill="#FFFFFF" d="M279.04,51.329c-0.436,1.19-0.744,2.468-0.924,3.837c-2.658,0.099-5.085,0.148-7.285,0.148
	c-4.78,0-7.956-0.174-9.534-0.52c-1.576-0.35-2.702-0.827-3.374-1.442c-0.438-0.396-0.76-0.597-0.969-0.597
	c-0.207,0-0.45,0.12-0.729,0.356c-0.278,0.24-0.742,0.676-1.396,1.31c-0.655,0.634-1.119,1.18-1.399,1.637
	c-1.168-1.21-2.19-2.242-3.063-3.094c1.269-0.992,2.217-1.664,2.841-2.022c0.624-0.357,1.002-0.641,1.13-0.848
	c0.128-0.209,0.194-0.588,0.194-1.146v-7.942h-3.452v-3.301h7.109v10.648c0,0.656,0.259,1.233,0.774,1.74
	c0.516,0.505,1.126,0.878,1.827,1.115c0.704,0.237,1.835,0.416,3.391,0.535c1.556,0.118,3.717,0.179,6.485,0.179
	C273.434,51.924,276.224,51.726,279.04,51.329z M259.23,34.614l-3.658,1.664c-0.794-1.861-1.882-3.667-3.272-5.413l3.51-1.873
	C257.317,31.234,258.457,33.107,259.23,34.614z M266.517,34.077h-7.137v-3.063h7.137v-2.466h3.242c0.477,0,0.713,0.128,0.713,0.385
	c0,0.118-0.064,0.298-0.193,0.534c-0.127,0.24-0.194,0.756-0.194,1.547h7.319v3.063h-7.347v1.667h6.041v7.94h-3.424
	c1.547,1.29,3.235,2.815,5.057,4.579l-2.972,2.321c-1.29-1.646-2.856-3.173-4.701-4.579v5.115h-3.539v-5.355
	c-1.309,1.807-3.063,3.462-5.264,4.968c-0.774-0.811-1.705-1.645-2.796-2.498c1.487-0.792,2.621-1.501,3.406-2.124
	c0.782-0.625,1.501-1.435,2.157-2.427h-3.42v-7.94h5.916V34.077z M266.517,40.889V38.6h-2.528v2.289H266.517z M270.056,38.6v2.289
	h2.559V38.6H270.056z M270.056,43.685v1.962l2.322-1.962H270.056z"/>
<path fill="#FFFFFF" d="M116.808,161.148c-1.562,42.637-14.771,63.955-39.626,63.955c-11.704,0-21.318-5.712-28.842-17.139
	c-7.524-11.423-11.286-26.611-11.286-45.562c0-20.482,3.817-36.399,11.454-47.757c7.633-11.354,17.472-17.033,29.511-17.033
	c7.579,0,14.434,2.648,20.565,7.941c6.129,5.297,10.978,12.959,14.546,22.99l-18.392,8.569c-3.122-9.751-8.861-14.63-17.222-14.63
	c-13.601,0-20.398,13.029-20.398,39.082c0,26.057,6.965,39.084,20.9,39.084c7.801,0,13.376-4.807,16.72-14.422H83.033v-25.08
	H116.808z"/>
<path fill="#FFFFFF" d="M201.577,156.969c4.234,4.18,7.383,8.746,9.446,13.689c2.062,4.947,3.094,10.904,3.094,17.87
	c0,9.895-3.428,18.496-10.283,25.812c-6.855,7.314-15.857,10.973-27.003,10.973c-8.585,0-16.777-2.404-24.578-7.211
	c-7.804-4.807-14.157-11.459-19.061-19.959l16.051-14.213c2.116,4.461,5.823,8.36,11.119,11.705
	c5.293,3.344,11.229,5.016,17.807,5.016c6.575,0,11.035-1.568,13.376-4.703s3.511-6.374,3.511-9.719
	c0-4.18-1.646-8.078-4.932-11.703c-3.29-3.622-7.386-5.434-12.29-5.434c-1.003,0-2.006,0.071-3.009,0.209V144.43h8.192
	c1.781,0,3.428-1.045,4.933-3.136c1.505-2.09,2.257-4.702,2.257-7.837s-1.479-5.781-4.431-7.942
	c-2.955-2.159-6.829-3.239-11.62-3.239c-9.029,0-16.219,3.484-21.569,10.449l-14.379-16.092
	c4.792-6.271,10.338-11.042,16.637-14.317c6.296-3.272,12.79-4.911,19.479-4.911c10.032,0,18.392,3.38,25.08,10.137
	c6.688,6.76,10.032,15.188,10.032,25.289C209.435,142.934,206.814,150.98,201.577,156.969z"/>
<path fill="#FFFFFF" d="M259.592,140.249c5.016-1.532,11.145-2.299,18.392-2.299c11.704,0,20.984,4.356,27.839,13.063
	c6.855,8.71,10.283,19.091,10.283,31.142c0,12.053-3.568,22.258-10.701,30.617c-7.135,8.361-16.498,12.541-28.09,12.541
	c-16.051,0-29.985-4.458-41.8-13.377l11.035-21.108c8.026,6.551,17.833,9.823,29.428,9.823c7.132,0,12.315-1.672,15.55-5.016
	c3.231-3.345,4.849-8.08,4.849-14.213c0-6.129-1.729-10.764-5.184-13.898c-3.456-3.135-8.417-4.702-14.881-4.702
	c-6.466,0-12.707,1.534-18.727,4.598l-20.23-9.823l4.347-58.938h65.543v25.08h-45.646L259.592,140.249z"/>
<path fill="#FFFFFF" d="M59.123,284.372c-3.453,6.548-6.628,13.313-9.524,20.299c-2.5-1.429-5-3.017-7.5-4.763
	c3.254-4.048,6.865-10.754,10.834-20.12C55.393,281.813,57.457,283.34,59.123,284.372z M57.873,271.931l-6.131,5.357
	c-2.104-2.024-5.278-4.524-9.524-7.501l5.655-5.952C51.047,266.335,54.38,269.034,57.873,271.931z M90.613,261.275
	c-1.667,3.85-4.207,7.302-7.62,10.357c4.365,2.024,9.604,3.176,15.715,3.453c-1.667,2.461-3.076,4.921-4.227,7.381
	c-6.786-1.548-12.6-3.75-17.441-6.607c-3.135,1.826-6.45,3.394-9.941,4.703h6.488c0.913,0,1.369,0.277,1.369,0.833
	c0,0.238-0.08,0.575-0.238,1.012c-0.437,1.032-0.655,2.5-0.655,4.405c0,4.485-0.814,8.155-2.44,11.013
	c-1.628,2.857-4.147,5.437-7.56,7.738c-1.509-1.39-3.691-2.917-6.548-4.583c3.253-1.509,5.625-3.384,7.113-5.626
	c1.488-2.241,2.232-5.228,2.232-8.959v-5.715c-1.31,0.477-3.711,1.29-7.203,2.441c-1.468-2.777-3.076-5.061-4.821-6.846
	c6.429-0.754,11.965-2.263,16.608-4.524c-3.135-2.896-5.536-6.389-7.203-10.477h-4.524v-1.965l-4.822,4.227
	c-3.413-3.215-6.588-5.794-9.524-7.738l6.072-5.715c2.896,2.223,5.655,4.505,8.274,6.846v-1.667h14.168
	c-0.159-1.389-0.616-3.293-1.369-5.715l8.572-0.714c0.277,2.104,0.496,4.247,0.655,6.429h14.465v6.013H90.613z M77.279,268.181
	c2.5-2.063,4.325-4.365,5.476-6.905H71.684C72.834,263.736,74.699,266.037,77.279,268.181z M81.208,280.8h6.072
	c1.15,0,1.726,0.357,1.726,1.072c0,0.237-0.06,0.516-0.178,0.833c-0.278,0.714-0.417,2.202-0.417,4.465v17.739h-7.203V280.8z"/>
<path fill="#FFFFFF" d="M140.438,258.299c-0.635-2.024-1.727-4.365-3.274-7.024l9.346-2.619c1.429,3.176,2.479,5.953,3.155,8.334
	l-6.012,1.31h24.168v6.965h-39.348v13.691c0,5.397-0.595,10.13-1.786,14.197s-3.096,8.065-5.715,11.994
	c-2.54-1.627-5.199-2.817-7.977-3.571c2.619-3.373,4.524-6.885,5.715-10.536c1.19-3.65,1.786-9.068,1.786-16.251v-16.489H140.438z"
	/>
<path fill="#FFFFFF" d="M209.073,254.013c-0.318-1.706-0.655-3.215-1.012-4.524l9.346-0.833c0.396,2.063,0.655,3.85,0.773,5.357
	h20.299v6.191h-51.253v-6.191H209.073z M207.704,298.896v1.965h-6.489v-15.656h23.395v12.263c1.389,0.198,2.391,0.298,3.006,0.298
	c0.615,0,1.001-0.129,1.161-0.387c0.158-0.259,0.238-0.765,0.238-1.519v-12.501h-31.966v21.073h-7.322v-27.085h46.848v19.228
	c0,1.943-0.288,3.472-0.863,4.583c-0.576,1.111-1.637,1.965-3.185,2.561c-1.547,0.595-3.83,0.991-6.846,1.19
	c-0.04-1.985-0.397-3.712-1.071-5.18v0.894h-6.846v-1.727H207.704z M230.146,275.502h-33.633v-13.513h33.633V275.502z
	 M221.872,270.383v-3.096h-17.739v3.096H221.872z M217.764,293.956v-3.513h-10.06v3.513H217.764z"/>
<path fill="#FFFFFF" d="M313.484,295.146c-0.873,2.381-1.487,4.94-1.845,7.679c-5.318,0.198-10.179,0.298-14.585,0.298
	c-9.563,0-15.923-0.348-19.078-1.042c-3.155-0.694-5.407-1.657-6.756-2.887c-0.873-0.795-1.518-1.19-1.935-1.19
	c-0.417,0-0.903,0.238-1.458,0.714c-0.556,0.477-1.488,1.349-2.797,2.619c-1.31,1.27-2.243,2.361-2.798,3.274
	c-2.342-2.421-4.386-4.485-6.131-6.191c2.539-1.984,4.435-3.333,5.685-4.048c1.25-0.714,2.003-1.279,2.262-1.696
	c0.258-0.417,0.387-1.181,0.387-2.292V274.49h-6.905v-6.607h14.227v21.311c0,1.31,0.515,2.471,1.547,3.482
	c1.032,1.012,2.252,1.756,3.661,2.232c1.408,0.477,3.67,0.833,6.786,1.071c3.115,0.238,7.44,0.357,12.978,0.357
	C302.263,296.337,307.849,295.939,313.484,295.146z M273.839,261.691l-7.322,3.334c-1.587-3.729-3.771-7.342-6.548-10.834
	l7.024-3.75C270.009,254.926,272.292,258.677,273.839,261.691z M288.423,260.62h-14.287v-6.131h14.287v-4.941h6.488
	c0.953,0,1.43,0.259,1.43,0.774c0,0.238-0.13,0.595-0.388,1.071c-0.259,0.477-0.387,1.509-0.387,3.096h14.644v6.131h-14.703v3.334
	h12.084v15.894h-6.846c3.096,2.58,6.469,5.636,10.119,9.167l-5.952,4.644c-2.58-3.294-5.715-6.349-9.405-9.167v10.238h-7.084
	v-10.715c-2.619,3.611-6.131,6.926-10.536,9.941c-1.548-1.627-3.414-3.294-5.596-5.001c2.977-1.586,5.247-3.006,6.815-4.256
	s3.006-2.866,4.316-4.852h-6.846v-15.894h11.846V260.62z M288.423,274.252v-4.583h-5.06v4.583H288.423z M295.507,269.669v4.583
	h5.119v-4.583H295.507z M295.507,279.848v3.929l4.643-3.929H295.507z"/>
</svg>
