<svg width="307mm" height="155mm" version="1.1" viewBox="0 0 307 155" xmlns="http://www.w3.org/2000/svg" xmlns:xlink="http://www.w3.org/1999/xlink"><rect width="307" height="155" fill="#fff"/>
 <g id="d">
 <g id="e" fill="none" stroke="#000"><path id="b" d="m85 77c17-22 31-58 63-58" stroke="#e71" stroke-dasharray="1"/><use transform="matrix(1 0 0-1 0 154)" xlink:href="#b"/><path d="m85 77c3-2 5 2 6 5 5 16 6.343 8 8-5 5-40 10-41 14 0 5 62 10 62 14 0 4-74 10-74 14 0 2 28 3 58 7 58"/></g>
 <use transform="rotate(180 85 77)" xlink:href="#e"/></g>
 <use transform="matrix(-1 0 0 1 296 0)" xlink:href="#d"/><path id="c" d="m15 77c2-28 3-58 7-58" fill="none" stroke="#000"/><use transform="matrix(-1 0 0 1 296 0)" xlink:href="#c"/><path id="a" d="m290 79 12-2-12-2 2 2"/><use transform="rotate(240 177 160)" xlink:href="#a"/><use transform="rotate(120 192-10)" xlink:href="#a"/><path d="m1 77h293m-248 22 24 41m-4-106 12-20" stroke="#000" stroke-width=".6"/>
 <g font-family="Times" font-size="13px" font-weight="bold"><text x="68" y="11">cos(π<tspan font-style="italic">f</tspan><tspan baseline-shift="sub" font-size="9px">S</tspan>t)</text><text x="44" y="149">cos(π<tspan font-style="italic">f</tspan><tspan baseline-shift="sub" font-size="9px">S</tspan>t)·sin(2π<tspan font-style="italic">f</tspan><tspan baseline-shift="sub" font-size="9px">R</tspan>t)</text><text x="294" y="72" font-style="italic">t</text></g></svg>