<?xml version="1.0" encoding="UTF-8" standalone="no"?>
<svg
   xmlns:dc="http://purl.org/dc/elements/1.1/"
   xmlns:cc="http://creativecommons.org/ns#"
   xmlns:rdf="http://www.w3.org/1999/02/22-rdf-syntax-ns#"
   xmlns:svg="http://www.w3.org/2000/svg"
   xmlns="http://www.w3.org/2000/svg"
   xmlns:sodipodi="http://sodipodi.sourceforge.net/DTD/sodipodi-0.dtd"
   xmlns:inkscape="http://www.inkscape.org/namespaces/inkscape"
   height="303.90784"
   width="1353.0337"
   id="svg2"
   sodipodi:version="0.32"
   inkscape:version="0.46"
   sodipodi:docname="natural logarithm product formula proven geometrically.svg"
   inkscape:output_extension="org.inkscape.output.svg.inkscape"
   version="1.0">
  <metadata
     id="metadata49">
    <rdf:RDF>
      <cc:Work
         rdf:about="">
        <dc:format>image/svg+xml</dc:format>
        <dc:type
           rdf:resource="http://purl.org/dc/dcmitype/StillImage" />
      </cc:Work>
    </rdf:RDF>
  </metadata>
  <defs
     id="defs47">
    <inkscape:perspective
       sodipodi:type="inkscape:persp3d"
       inkscape:vp_x="0 : 150.5 : 1"
       inkscape:vp_y="0 : 1000 : 0"
       inkscape:vp_z="601 : 150.5 : 1"
       inkscape:persp3d-origin="300.5 : 100.33333 : 1"
       id="perspective51" />
  </defs>
  <sodipodi:namedview
     inkscape:window-height="881"
     inkscape:window-width="1440"
     inkscape:pageshadow="2"
     inkscape:pageopacity="0.0"
     guidetolerance="10.0"
     gridtolerance="10.0"
     objecttolerance="10.0"
     borderopacity="1.0"
     bordercolor="#666666"
     pagecolor="#ffffff"
     id="base"
     showgrid="false"
     showguides="true"
     inkscape:guide-bbox="true"
     inkscape:zoom="0.83155027"
     inkscape:cx="843.15628"
     inkscape:cy="64.113035"
     inkscape:window-x="0"
     inkscape:window-y="0"
     inkscape:current-layer="g6" />
  <title
     id="title4">http://pl.wikipedia.org</title>
  <g
     id="g6"
     transform="translate(0,-0.5)">
    <g
       id="g10">
      <g
         id="g12">
        <line
           x1="0.5"
           y1="260.5"
           x2="585.5"
           y2="260.5"
           id="line14"
           style="fill:#000000;stroke:#000000;stroke-width:1" />
        <polygon
           points="600.5,260.5 585.5,265.5 585.5,260.5 585.5,255.5 600.5,260.5 "
           id="polygon16"
           style="fill:#000000;stroke:none;stroke-width:1" />
      </g>
    </g>
    <g
       id="g18">
      <g
         id="g20">
        <line
           x1="40.5"
           y1="300.5"
           x2="40.5"
           y2="15.5"
           id="line22"
           style="fill:#000000;stroke:#000000;stroke-width:1" />
        <polygon
           points="40.5,0.5 45.5,15.5 40.5,15.5 35.5,15.5 40.5,0.5 "
           id="polygon24"
           style="fill:#000000;stroke:none;stroke-width:1" />
      </g>
    </g>
    <line
       x1="240.5"
       y1="260.5"
       x2="240.5"
       y2="268.5"
       id="line28"
       style="fill:#000000;stroke:#000000;stroke-width:1.5" />
    <line
       x1="315.16986"
       y1="260.5"
       x2="315.16986"
       y2="268.5"
       id="line30"
       style="fill:#000000;stroke:#000000;stroke-width:1.5" />
    <line
       x1="35.5"
       y1="60.5"
       x2="45.5"
       y2="60.5"
       id="line32"
       style="fill:#000000;stroke:#000000;stroke-width:1.5" />
    <path
       style="font-size:24px;font-style:normal;font-weight:normal;text-anchor:middle;fill:#000000;font-family:Arial"
       d="M 242.76172,289.5 L 240.65234,289.5 L 240.65234,276.05859 C 240.14452,276.54298 239.47851,277.02736 238.6543,277.51172 C 237.83007,277.99611 237.08984,278.35939 236.43359,278.60156 L 236.43359,276.5625 C 237.61328,276.00783 238.64453,275.33595 239.52734,274.54688 C 240.41015,273.75783 241.03515,272.9922 241.40234,272.25 L 242.76172,272.25 L 242.76172,289.5 z"
       id="text34" />
    <path
       style="font-size:24px;font-style:normal;font-weight:normal;text-anchor:middle;fill:#000000;font-family:Arial"
       d="M 318.02924,287.61328 L 318.33392,289.47656 C 317.74017,289.60156 317.20892,289.66406 316.74017,289.66406 C 315.97454,289.66406 315.38079,289.54297 314.95892,289.30078 C 314.53704,289.05859 314.24017,288.74024 314.0683,288.3457 C 313.89642,287.95117 313.81048,287.1211 313.81048,285.85547 L 313.81048,278.69531 L 312.26361,278.69531 L 312.26361,277.05469 L 313.81048,277.05469 L 313.81048,273.97266 L 315.90814,272.70703 L 315.90814,277.05469 L 318.02924,277.05469 L 318.02924,278.69531 L 315.90814,278.69531 L 315.90814,285.97266 C 315.90814,286.57422 315.94525,286.96094 316.01947,287.13281 C 316.09368,287.30469 316.21478,287.44141 316.38275,287.54297 C 316.55071,287.64453 316.79095,287.69531 317.10345,287.69531 C 317.33782,287.69531 317.64642,287.66797 318.02924,287.61328 L 318.02924,287.61328 z"
       id="text36" />
    <path
       style="font-size:24px;font-style:normal;font-weight:normal;text-anchor:end;fill:#000000;font-family:Arial"
       d="M 31.082031,72.5 L 28.972656,72.5 L 28.972656,59.058594 C 28.464837,59.542982 27.798822,60.027356 26.974609,60.511719 C 26.150387,60.996105 25.410153,61.359386 24.753906,61.601562 L 24.753906,59.5625 C 25.93359,59.007826 26.964839,58.335952 27.847656,57.546875 C 28.730462,56.757828 29.355462,55.992204 29.722656,55.25 L 31.082031,55.25 L 31.082031,72.5 z"
       id="text38" />
    <path
       style="font-size:24px;font-style:normal;font-weight:normal;text-anchor:end;fill:#000000;font-family:Arial"
       d="M 23.136719,281.02734 C 23.136718,278.9961 23.345702,277.36134 23.763672,276.12305 C 24.181639,274.88478 24.802732,273.9297 25.626953,273.25781 C 26.451168,272.58595 27.488276,272.25002 28.738281,272.25 C 29.660149,272.25002 30.468742,272.43556 31.164062,272.80664 C 31.859365,273.17775 32.433583,273.71291 32.886719,274.41211 C 33.339833,275.11134 33.695301,275.9629 33.953125,276.9668 C 34.210925,277.97071 34.339832,279.32423 34.339844,281.02734 C 34.339832,283.04298 34.132801,284.66993 33.71875,285.9082 C 33.304676,287.14649 32.685536,288.10352 31.861328,288.7793 C 31.0371,289.45508 29.996086,289.79297 28.738281,289.79297 C 27.082026,289.79297 25.781246,289.19922 24.835938,288.01172 C 23.703123,286.58203 23.136718,284.25391 23.136719,281.02734 L 23.136719,281.02734 z M 25.304688,281.02734 C 25.304684,283.84766 25.634762,285.72461 26.294922,286.6582 C 26.955073,287.5918 27.769526,288.0586 28.738281,288.05859 C 29.707024,288.0586 30.521476,287.58985 31.181641,286.65234 C 31.841787,285.71485 32.171865,283.83985 32.171875,281.02734 C 32.171865,278.19923 31.841787,276.32033 31.181641,275.39062 C 30.521476,274.46095 29.699211,273.99611 28.714844,273.99609 C 27.746088,273.99611 26.972651,274.40627 26.394531,275.22656 C 25.667965,276.27345 25.304684,278.20704 25.304688,281.02734 L 25.304688,281.02734 z"
       id="text40" />
    <path
       style="font-size:24px;font-style:normal;font-weight:normal;text-anchor:start;fill:#bc1e47;fill-opacity:1;font-family:Arial"
       d="M 285.05945,83.416962 L 285.05945,72.612274 L 283.19617,72.612274 L 283.19617,70.971649 L 285.05945,70.971649 L 285.05945,69.64743 C 285.05945,68.811508 285.13366,68.190414 285.2821,67.784149 C 285.48523,67.23729 285.84265,66.793931 286.35437,66.454071 C 286.86608,66.114245 287.58288,65.944323 288.50476,65.944305 C 289.0985,65.944323 289.75475,66.014635 290.47351,66.155243 L 290.1571,67.995087 C 289.7196,67.916977 289.30554,67.877915 288.91492,67.877899 C 288.27429,67.877915 287.82116,68.014633 287.55554,68.288055 C 287.28991,68.561508 287.1571,69.073226 287.1571,69.823212 L 287.1571,70.971649 L 289.58289,70.971649 L 289.58289,72.612274 L 287.1571,72.612274 L 287.1571,83.416962 L 285.05945,83.416962 z M 295.24304,88.467743 C 294.07898,86.998989 293.0946,85.280241 292.28992,83.311493 C 291.48523,81.342745 291.08288,79.303685 291.08289,77.194305 C 291.08288,75.334939 291.38367,73.55369 291.98523,71.850555 C 292.68835,69.874006 293.77429,67.905258 295.24304,65.944305 L 296.75476,65.944305 C 295.80944,67.569321 295.18444,68.729476 294.87976,69.424774 C 294.40319,70.502912 294.02819,71.627911 293.75476,72.799774 C 293.41882,74.260721 293.25085,75.729469 293.25085,77.206024 C 293.25085,80.963839 294.41882,84.717742 296.75476,88.467743 L 295.24304,88.467743 z M 297.82117,83.416962 L 302.36804,76.948212 L 298.16101,70.971649 L 300.79773,70.971649 L 302.70789,73.889618 C 303.06726,74.444314 303.35632,74.909158 303.57507,75.284149 C 303.91882,74.768533 304.23522,74.311502 304.52429,73.913055 L 306.62195,70.971649 L 309.14148,70.971649 L 304.8407,76.831024 L 309.4696,83.416962 L 306.87976,83.416962 L 304.32507,79.549774 L 303.64539,78.506805 L 300.37585,83.416962 L 297.82117,83.416962 z M 312.61023,88.467743 L 311.09851,88.467743 C 313.43444,84.717742 314.60241,80.963839 314.60242,77.206024 C 314.60241,75.737282 314.43444,74.280252 314.09851,72.83493 C 313.83288,71.663067 313.46179,70.538068 312.98523,69.45993 C 312.68054,68.75682 312.05163,67.584946 311.09851,65.944305 L 312.61023,65.944305 C 314.07898,67.905258 315.16491,69.874006 315.86804,71.850555 C 316.4696,73.55369 316.77038,75.334939 316.77039,77.194305 C 316.77038,79.303685 316.36608,81.342745 315.5575,83.311493 C 314.7489,85.280241 313.76648,86.998989 312.61023,88.467743 L 312.61023,88.467743 z M 336.99695,73.315399 L 325.6532,73.315399 L 325.6532,71.346649 L 336.99695,71.346649 L 336.99695,73.315399 z M 336.99695,78.530243 L 325.6532,78.530243 L 325.6532,76.561493 L 336.99695,76.561493 L 336.99695,78.530243 z"
       id="text44" />
    <path
       style="font-size:24px;font-style:normal;font-variant:normal;font-weight:normal;font-stretch:normal;text-align:start;line-height:125%;writing-mode:lr-tb;text-anchor:start;fill:#bc1e47;fill-opacity:1;stroke:none;stroke-width:1px;stroke-linecap:butt;stroke-linejoin:miter;stroke-opacity:1;font-family:Bitstream Vera Sans;-inkscape-font-specification:Bitstream Vera Sans"
       d="M 354.44476,66.465408 L 358.31195,66.465408 L 358.31195,53.117752 L 354.10492,53.961502 L 354.10492,51.805252 L 358.28851,50.961502 L 360.6557,50.961502 L 360.6557,66.465408 L 364.52289,66.465408 L 364.52289,68.457596 L 354.44476,68.457596 L 354.44476,66.465408 z"
       id="text2424" />
    <path
       style="font-size:24px;font-style:normal;font-variant:normal;font-weight:normal;font-stretch:normal;text-align:start;line-height:125%;writing-mode:lr-tb;text-anchor:start;fill:#bc1e47;fill-opacity:1;stroke:none;stroke-width:1px;stroke-linecap:butt;stroke-linejoin:miter;stroke-opacity:1;font-family:Bitstream Vera Sans;-inkscape-font-specification:Bitstream Vera Sans"
       d="M 364.9277,83.926033 L 360.18161,90.312752 L 365.1738,97.051033 L 362.63083,97.051033 L 358.81052,91.894783 L 354.9902,97.051033 L 352.44724,97.051033 L 357.54489,90.183846 L 352.88083,83.926033 L 355.4238,83.926033 L 358.90427,88.601814 L 362.38474,83.926033 L 364.9277,83.926033 z"
       id="text2428" />
    <path
       style="fill:#bc1e47;fill-opacity:1;fill-rule:evenodd;stroke:#ff0000;stroke-width:0.82227856px;stroke-linecap:butt;stroke-linejoin:miter;stroke-opacity:1"
       d="M 346.58192,75.89046 C 368.83845,75.89046 368.83845,75.89046 368.83845,75.89046"
       id="path2432" />
    <path
       style="font-size:20px;font-style:normal;font-weight:normal;fill:#000000;fill-opacity:1;stroke:none;stroke-width:1px;stroke-linecap:butt;stroke-linejoin:miter;stroke-opacity:1;font-family:Bitstream Vera Sans"
       d="M 594.81769,239.46587 L 590.86261,244.78813 L 595.02277,250.40337 L 592.90363,250.40337 L 589.72003,246.10649 L 586.53644,250.40337 L 584.4173,250.40337 L 588.66534,244.68071 L 584.77863,239.46587 L 586.89777,239.46587 L 589.79816,243.36235 L 592.69855,239.46587 L 594.81769,239.46587 z"
       id="text2434" />
    <path
       style="fill:#000000;fill-opacity:1;stroke:none;stroke-width:1.5;stroke-opacity:1"
       d="M 469.875,261.28125 L 469.875,269.28125 L 471.375,269.28125 L 471.375,261.28125 L 469.875,261.28125 z"
       id="line2448" />
    <text
       xml:space="preserve"
       style="font-size:20px;font-style:normal;font-weight:normal;fill:#000000;fill-opacity:1;stroke:none;stroke-width:1px;stroke-linecap:butt;stroke-linejoin:miter;stroke-opacity:1;font-family:Bitstream Vera Sans"
       x="460.20935"
       y="285.60101"
       id="text2452"><tspan
         sodipodi:role="line"
         id="tspan2454"
         x="460.20935"
         y="285.60101">tu</tspan></text>
    <path
       style="fill:#0081cd;fill-opacity:1;stroke:#00ffff;stroke-width:0.74500662;stroke-dasharray:3.72503339"
       d="M 312.2799,260.10949 L 313.12462,114.02235 L 356.4951,135.19733 L 407.14356,151.89336 L 446.98156,162.24423 L 462.96783,166.33912 L 470.52942,167.37945 L 470.46898,259.8969 L 312.2799,260.10949 z"
       sodipodi:nodetypes="ccccccccc"
       id="path2456" />
    <g
       id="g2582"
       transform="translate(752.53364,3.4078326)">
      <g
         id="g2584">
        <line
           x1="0.5"
           y1="260.5"
           x2="585.5"
           y2="260.5"
           id="line2586"
           style="fill:#000000;stroke:#000000;stroke-width:1" />
        <polygon
           points="600.5,260.5 585.5,265.5 585.5,260.5 585.5,255.5 600.5,260.5 "
           id="polygon2588"
           style="fill:#000000;stroke:none;stroke-width:1" />
      </g>
    </g>
    <g
       id="g2590"
       transform="translate(752.53364,3.4078326)">
      <g
         id="g2592">
        <line
           x1="40.5"
           y1="300.5"
           x2="40.5"
           y2="15.5"
           id="line2594"
           style="fill:#000000;stroke:#000000;stroke-width:1" />
        <polygon
           points="40.5,0.5 45.5,15.5 40.5,15.5 35.5,15.5 40.5,0.5 "
           id="polygon2596"
           style="fill:#000000;stroke:none;stroke-width:1" />
      </g>
    </g>
    <line
       x1="993.03363"
       y1="263.90784"
       x2="993.03363"
       y2="271.90784"
       id="line2598"
       style="fill:#000000;stroke:#000000;stroke-width:1.5" />
    <line
       x1="1067.7035"
       y1="263.90784"
       x2="1067.7035"
       y2="271.90784"
       id="line2600"
       style="fill:#000000;stroke:#000000;stroke-width:1.5" />
    <line
       x1="788.03363"
       y1="63.907852"
       x2="798.03363"
       y2="63.907852"
       id="line2602"
       style="fill:#000000;stroke:#000000;stroke-width:1.5" />
    <path
       style="font-size:24px;font-style:normal;font-weight:normal;text-anchor:middle;fill:#000000;font-family:Arial"
       d="M 995.29536,292.90783 L 993.18598,292.90783 L 993.18598,279.46642 C 992.67816,279.95081 992.01215,280.43519 991.18794,280.91955 C 990.36371,281.40394 989.62348,281.76722 988.96723,282.00939 L 988.96723,279.97033 C 990.14692,279.41566 991.17817,278.74378 992.06098,277.95471 C 992.94379,277.16566 993.56879,276.40003 993.93598,275.65783 L 995.29536,275.65783 L 995.29536,292.90783 z"
       id="path2604" />
    <path
       style="font-size:24px;font-style:normal;font-weight:normal;text-anchor:middle;fill:#000000;font-family:Arial"
       d="M 1070.5629,291.02111 L 1070.8676,292.88439 C 1070.2738,293.00939 1069.7426,293.07189 1069.2738,293.07189 C 1068.5082,293.07189 1067.9144,292.9508 1067.4926,292.70861 C 1067.0707,292.46642 1066.7738,292.14807 1066.6019,291.75353 C 1066.4301,291.359 1066.3441,290.52893 1066.3441,289.2633 L 1066.3441,282.10314 L 1064.7973,282.10314 L 1064.7973,280.46252 L 1066.3441,280.46252 L 1066.3441,277.38049 L 1068.4418,276.11486 L 1068.4418,280.46252 L 1070.5629,280.46252 L 1070.5629,282.10314 L 1068.4418,282.10314 L 1068.4418,289.38049 C 1068.4418,289.98205 1068.4789,290.36877 1068.5531,290.54064 C 1068.6273,290.71252 1068.7484,290.84924 1068.9164,290.9508 C 1069.0844,291.05236 1069.3246,291.10314 1069.6371,291.10314 C 1069.8715,291.10314 1070.1801,291.0758 1070.5629,291.02111 L 1070.5629,291.02111 z"
       id="path2606" />
    <path
       style="font-size:24px;font-style:normal;font-weight:normal;text-anchor:end;fill:#000000;font-family:Arial"
       d="M 783.61567,75.907833 L 781.5063,75.907833 L 781.5063,62.466433 C 780.99848,62.950823 780.33246,63.435193 779.50825,63.919553 C 778.68403,64.403943 777.94379,64.767223 777.28755,65.009403 L 777.28755,62.970333 C 778.46723,62.415663 779.49848,61.743793 780.3813,60.954713 C 781.2641,60.165663 781.8891,59.400043 782.2563,58.657833 L 783.61567,58.657833 L 783.61567,75.907833 z"
       id="path2608" />
    <path
       style="font-size:24px;font-style:normal;font-weight:normal;text-anchor:end;fill:#000000;font-family:Arial"
       d="M 775.67036,284.43517 C 775.67036,282.40393 775.87934,280.76917 776.29731,279.53088 C 776.71528,278.29261 777.33637,277.33753 778.16059,276.66564 C 778.98481,275.99378 780.02192,275.65785 781.27192,275.65783 C 782.19379,275.65785 783.00238,275.84339 783.6977,276.21447 C 784.39301,276.58558 784.96722,277.12074 785.42036,277.81994 C 785.87347,278.51917 786.22894,279.37073 786.48677,280.37463 C 786.74457,281.37854 786.87347,282.73206 786.87349,284.43517 C 786.87347,286.45081 786.66644,288.07776 786.25239,289.31603 C 785.83832,290.55432 785.21918,291.51135 784.39497,292.18713 C 783.57074,292.86291 782.52973,293.2008 781.27192,293.2008 C 779.61567,293.2008 778.31489,292.60705 777.36958,291.41955 C 776.23676,289.98986 775.67036,287.66174 775.67036,284.43517 L 775.67036,284.43517 z M 777.83833,284.43517 C 777.83833,287.25549 778.1684,289.13244 778.82856,290.06603 C 779.48871,290.99963 780.30317,291.46643 781.27192,291.46642 C 782.24067,291.46643 783.05512,290.99768 783.71528,290.06017 C 784.37543,289.12268 784.70551,287.24768 784.70552,284.43517 C 784.70551,281.60706 784.37543,279.72816 783.71528,278.79845 C 783.05512,277.86878 782.23285,277.40394 781.24849,277.40392 C 780.27973,277.40394 779.50629,277.8141 778.92817,278.63439 C 778.20161,279.68128 777.83833,281.61487 777.83833,284.43517 L 777.83833,284.43517 z"
       id="path2610" />
    <path
       style="font-size:24px;font-style:normal;font-weight:normal;text-anchor:start;fill:#bc1e47;fill-opacity:1;font-family:Arial"
       d="M 1037.5931,86.824803 L 1037.5931,76.020113 L 1035.7298,76.020113 L 1035.7298,74.379483 L 1037.5931,74.379483 L 1037.5931,73.055263 C 1037.5931,72.219343 1037.6673,71.598253 1037.8157,71.191983 C 1038.0189,70.645123 1038.3763,70.201773 1038.888,69.861913 C 1039.3997,69.522083 1040.1165,69.352163 1041.0384,69.352143 C 1041.6321,69.352163 1042.2884,69.422473 1043.0072,69.563083 L 1042.6907,71.402923 C 1042.2532,71.324813 1041.8392,71.285753 1041.4486,71.285733 C 1040.8079,71.285753 1040.3548,71.422473 1040.0892,71.695893 C 1039.8236,71.969343 1039.6907,72.481063 1039.6907,73.231053 L 1039.6907,74.379483 L 1042.1165,74.379483 L 1042.1165,76.020113 L 1039.6907,76.020113 L 1039.6907,86.824803 L 1037.5931,86.824803 z M 1047.7767,91.875583 C 1046.6126,90.406823 1045.6282,88.688083 1044.8236,86.719333 C 1044.0189,84.750583 1043.6165,82.711523 1043.6165,80.602143 C 1043.6165,78.742773 1043.9173,76.961523 1044.5189,75.258393 C 1045.222,73.281843 1046.3079,71.313093 1047.7767,69.352143 L 1049.2884,69.352143 C 1048.3431,70.977163 1047.7181,72.137313 1047.4134,72.832613 C 1046.9368,73.910753 1046.5618,75.035753 1046.2884,76.207613 C 1045.9525,77.668563 1045.7845,79.137303 1045.7845,80.613863 C 1045.7845,84.371673 1046.9525,88.125583 1049.2884,91.875583 L 1047.7767,91.875583 z M 1050.3548,86.824803 L 1054.9017,80.356053 L 1050.6947,74.379483 L 1053.3314,74.379483 L 1055.2415,77.297453 C 1055.6009,77.852153 1055.89,78.316993 1056.1087,78.691983 C 1056.4525,78.176373 1056.7689,77.719343 1057.0579,77.320893 L 1059.1556,74.379483 L 1061.6751,74.379483 L 1057.3743,80.238863 L 1062.0032,86.824803 L 1059.4134,86.824803 L 1056.8587,82.957613 L 1056.179,81.914643 L 1052.9095,86.824803 L 1050.3548,86.824803 z M 1065.1439,91.875583 L 1063.6322,91.875583 C 1065.9681,88.125583 1067.1361,84.371673 1067.1361,80.613863 C 1067.1361,79.145123 1066.9681,77.688093 1066.6322,76.242763 C 1066.3665,75.070903 1065.9954,73.945903 1065.5189,72.867763 C 1065.2142,72.164653 1064.5853,70.992783 1063.6322,69.352143 L 1065.1439,69.352143 C 1066.6126,71.313093 1067.6986,73.281843 1068.4017,75.258393 C 1069.0032,76.961523 1069.304,78.742773 1069.304,80.602143 C 1069.304,82.711523 1068.8997,84.750583 1068.0911,86.719333 C 1067.2825,88.688083 1066.3001,90.406823 1065.1439,91.875583 L 1065.1439,91.875583 z M 1089.5306,76.723233 L 1078.1868,76.723233 L 1078.1868,74.754483 L 1089.5306,74.754483 L 1089.5306,76.723233 z M 1089.5306,81.938083 L 1078.1868,81.938083 L 1078.1868,79.969333 L 1089.5306,79.969333 L 1089.5306,81.938083 z"
       id="path2612" />
    <path
       style="font-size:24px;font-style:normal;font-variant:normal;font-weight:normal;font-stretch:normal;text-align:start;line-height:125%;writing-mode:lr-tb;text-anchor:start;fill:#bc1e47;fill-opacity:1;stroke:none;stroke-width:1px;stroke-linecap:butt;stroke-linejoin:miter;stroke-opacity:1;font-family:Bitstream Vera Sans;-inkscape-font-specification:Bitstream Vera Sans"
       d="M 1106.9784,69.873243 L 1110.8456,69.873243 L 1110.8456,56.525593 L 1106.6386,57.369343 L 1106.6386,55.213093 L 1110.8222,54.369343 L 1113.1893,54.369343 L 1113.1893,69.873243 L 1117.0565,69.873243 L 1117.0565,71.865433 L 1106.9784,71.865433 L 1106.9784,69.873243 z"
       id="path2614" />
    <path
       style="font-size:24px;font-style:normal;font-variant:normal;font-weight:normal;font-stretch:normal;text-align:start;line-height:125%;writing-mode:lr-tb;text-anchor:start;fill:#bc1e47;fill-opacity:1;stroke:none;stroke-width:1px;stroke-linecap:butt;stroke-linejoin:miter;stroke-opacity:1;font-family:Bitstream Vera Sans;-inkscape-font-specification:Bitstream Vera Sans"
       d="M 1117.4613,87.333873 L 1112.7153,93.720593 L 1117.7074,100.45887 L 1115.1645,100.45887 L 1111.3442,95.302623 L 1107.5238,100.45887 L 1104.9809,100.45887 L 1110.0785,93.591683 L 1105.4145,87.333873 L 1107.9574,87.333873 L 1111.4379,92.009653 L 1114.9184,87.333873 L 1117.4613,87.333873 z"
       id="path2616" />
    <path
       style="fill:#bc1e47;fill-opacity:1;fill-rule:evenodd;stroke:#ff0000;stroke-width:0.82227856px;stroke-linecap:butt;stroke-linejoin:miter;stroke-opacity:1"
       d="M 1099.1156,79.298293 C 1121.3721,79.298293 1121.3721,79.298293 1121.3721,79.298293"
       id="path2618" />
    <path
       style="font-size:20px;font-style:normal;font-weight:normal;fill:#000000;fill-opacity:1;stroke:none;stroke-width:1px;stroke-linecap:butt;stroke-linejoin:miter;stroke-opacity:1;font-family:Bitstream Vera Sans"
       d="M 1347.3513,242.8737 L 1343.3963,248.19596 L 1347.5564,253.8112 L 1345.4373,253.8112 L 1342.2537,249.51432 L 1339.0701,253.8112 L 1336.9509,253.8112 L 1341.199,248.08854 L 1337.3123,242.8737 L 1339.4314,242.8737 L 1342.3318,246.77018 L 1345.2322,242.8737 L 1347.3513,242.8737 z"
       id="path2620" />
    <path
       style="fill:#000000;fill-opacity:1;stroke:none;stroke-width:1.5;stroke-opacity:1"
       d="M 1222.4375,264.6875 L 1222.4375,272.6875 L 1223.9375,272.6875 L 1223.9375,264.6875 L 1222.4375,264.6875 z"
       id="line2624" />
    <text
       xml:space="preserve"
       style="font-size:20px;font-style:normal;font-weight:normal;fill:#000000;fill-opacity:1;stroke:none;stroke-width:1px;stroke-linecap:butt;stroke-linejoin:miter;stroke-opacity:1;font-family:Bitstream Vera Sans"
       x="1212.7429"
       y="289.00885"
       id="text2626"><tspan
         sodipodi:role="line"
         id="tspan2628"
         x="1212.7429"
         y="289.00885">tu</tspan></text>
    <path
       style="fill:#0081cd;fill-opacity:1;stroke:#00ffff;stroke-width:0.73187363;stroke-dasharray:3.6593686"
       d="M 993.22784,263.44836 L 992.47476,64.857471 L 1022.2908,92.689284 L 1057.9852,115.55223 L 1086.0608,129.72633 L 1097.3272,135.33373 L 1102.6562,136.75832 L 1102.6135,263.44836 L 993.22784,263.44836 z"
       sodipodi:nodetypes="ccccccccc"
       id="path2630" />
    <path
       style="fill:none;stroke:#bc1e47;stroke-width:5;stroke-miterlimit:4;stroke-dasharray:none;stroke-opacity:1"
       id="path2638"
       d="M 795.93989,-19735.654 L 807.32769,-2723.4549 L 818.71539,-1350.1549 L 830.10319,-841.74991 L 841.49089,-576.85691 L 852.87869,-414.32491 L 864.26689,-304.42991 L 875.65389,-225.16491 L 887.04189,-165.29091 L 898.42989,-118.46691 L 909.81789,-80.846906 L 921.20489,-49.958906 L 932.59289,-24.144706 L 943.98089,-2.2490267 L 955.36889,16.557494 L 966.75589,32.885494 L 978.14389,47.194594 L 989.53189,59.837594 L 1000.9199,71.089294 L 1012.3069,81.167494 L 1023.6949,90.246694 L 1035.0829,98.468293 L 1046.4709,105.94809 L 1057.8579,112.78309 L 1069.2459,119.05209 L 1080.6339,124.82309 L 1092.0219,130.15409 L 1103.4089,135.09209 L 1114.7969,139.67909 L 1126.1849,143.95209 L 1137.5729,147.94209 L 1148.9599,151.67509 L 1160.3479,155.17709 L 1171.7359,158.46809 L 1183.1239,161.56609 L 1194.5109,164.48809 L 1205.8989,167.24809 L 1217.2869,169.86009 L 1228.6749,172.33509 L 1240.0619,174.68409 L 1251.4499,176.91509 L 1262.8379,179.03909 L 1274.2259,181.06109 L 1285.6129,182.99009 L 1297.0009,184.83209 L 1308.3889,186.59209 L 1319.7769,188.27609 L 1331.1639,189.88809 L 1342.5519,191.43409 L 1353.9399,192.91609" />
    <path
       style="fill:#000000;fill-opacity:1;stroke:none;stroke-width:1.5;stroke-opacity:1"
       d="M 1101.875,265.53125 L 1101.875,273.53125 L 1103.375,273.53125 L 1103.375,265.53125 L 1101.875,265.53125 z"
       id="line2640" />
    <text
       xml:space="preserve"
       style="font-size:20px;font-style:normal;font-weight:normal;fill:#000000;fill-opacity:1;stroke:none;stroke-width:1px;stroke-linecap:butt;stroke-linejoin:miter;stroke-opacity:1;font-family:Bitstream Vera Sans"
       x="1097.6366"
       y="289.85709"
       id="text2642"><tspan
         sodipodi:role="line"
         id="tspan2644"
         x="1097.6366"
         y="289.85709">u</tspan></text>
    <text
       xml:space="preserve"
       style="font-size:28.12415504px;font-style:normal;font-variant:normal;font-weight:normal;font-stretch:normal;text-align:start;line-height:125%;writing-mode:lr-tb;text-anchor:start;fill:#000000;fill-opacity:1;stroke:none;stroke-width:1px;stroke-linecap:butt;stroke-linejoin:miter;stroke-opacity:1;font-family:Bitstream Vera Sans;-inkscape-font-specification:Bitstream Vera Sans"
       x="1013.2204"
       y="199.0916"
       id="text3490"
       sodipodi:linespacing="125%"><tspan
         sodipodi:role="line"
         id="tspan3492"
         x="1013.2204"
         y="199.0916">ln(u)</tspan></text>
    <path
       style="fill:#000000;fill-opacity:1;stroke:none;stroke-width:1.5;stroke-opacity:1"
       d="M 348.8287,261.75989 L 348.8287,269.75989 L 350.3287,269.75989 L 350.3287,261.75989 L 348.8287,261.75989 z"
       id="path3511" />
    <text
       xml:space="preserve"
       style="font-size:20px;font-style:normal;font-weight:normal;fill:#000000;fill-opacity:1;stroke:none;stroke-width:1px;stroke-linecap:butt;stroke-linejoin:miter;stroke-opacity:1;font-family:Bitstream Vera Sans"
       x="344.59027"
       y="286.08575"
       id="text3513"><tspan
         sodipodi:role="line"
         id="tspan3515"
         x="344.59027"
         y="286.08575">u</tspan></text>
    <path
       style="fill:#fec200;fill-opacity:1;stroke:#000000;stroke-width:1;stroke-dasharray:5"
       d="M 240.5,260.5 L 240.5,60.5 L 241.594,61.5878 L 242.688,62.6638 L 243.781,63.7283 L 244.875,64.7813 L 253.36071,63.487462 L 260.36708,66.46471 L 280.67952,71.766897 L 299.00923,75.955041 L 358.63664,89.975094 L 438.08175,102.28179 L 490.91771,111.46916 L 519.02166,114.49136 L 520.5,260.5 L 240.5,260.5 z"
       sodipodi:nodetypes="cccccccccccccccc"
       transform="matrix(0.263968,0,0,1.002428,176.77291,-0.3896928)"
       id="polygon8" />
    <text
       xml:space="preserve"
       style="font-size:33.96998978px;font-style:normal;font-variant:normal;font-weight:normal;font-stretch:normal;text-align:start;line-height:125%;writing-mode:lr-tb;text-anchor:start;fill:#000000;fill-opacity:1;stroke:none;stroke-width:1px;stroke-linecap:butt;stroke-linejoin:miter;stroke-opacity:1;font-family:Bitstream Vera Sans;-inkscape-font-specification:Bitstream Vera Sans"
       x="288.90054"
       y="218.09781"
       id="text2458"
       sodipodi:linespacing="125%"><tspan
         sodipodi:role="line"
         id="tspan2460"
         x="288.90054"
         y="218.09781">ln(tu)</tspan></text>
    <path
       d="M 42.5,-19739.5 L 53.8878,-2727.3 L 65.2755,-1354 L 76.6633,-845.595 L 88.051,-580.702 L 99.4388,-418.17 L 110.827,-308.275 L 122.214,-229.01 L 133.602,-169.136 L 144.99,-122.312 L 156.378,-84.692 L 167.765,-53.804 L 179.153,-27.9898 L 190.541,-6.09412 L 201.929,12.7124 L 213.316,29.0404 L 224.704,43.3495 L 236.092,55.9925 L 247.48,67.2442 L 258.867,77.3224 L 270.255,86.4016 L 281.643,94.6232 L 293.031,102.103 L 304.418,108.938 L 315.806,115.207 L 327.194,120.978 L 338.582,126.309 L 349.969,131.247 L 361.357,135.834 L 372.745,140.107 L 384.133,144.097 L 395.52,147.83 L 406.908,151.332 L 418.296,154.623 L 429.684,157.721 L 441.071,160.643 L 452.459,163.403 L 463.847,166.015 L 475.235,168.49 L 486.622,170.839 L 498.01,173.07 L 509.398,175.194 L 520.786,177.216 L 532.173,179.145 L 543.561,180.987 L 554.949,182.747 L 566.337,184.431 L 577.724,186.043 L 589.112,187.589 L 600.5,189.071"
       id="path26"
       style="fill:none;stroke:#bc1e47;stroke-width:5;stroke-miterlimit:4;stroke-dasharray:none;stroke-opacity:1" />
    <text
       xml:space="preserve"
       style="font-size:30.46249008px;font-style:normal;font-variant:normal;font-weight:normal;font-stretch:normal;text-align:start;line-height:125%;writing-mode:lr-tb;text-anchor:start;fill:#000000;fill-opacity:1;stroke:none;stroke-width:1px;stroke-linecap:butt;stroke-linejoin:miter;stroke-opacity:1;font-family:Bitstream Vera Sans;-inkscape-font-specification:Bitstream Vera Sans"
       x="243.56546"
       y="157.2462"
       id="text3495"
       sodipodi:linespacing="125%"><tspan
         sodipodi:role="line"
         id="tspan3497"
         x="243.56546"
         y="157.2462">ln(t)</tspan></text>
  </g>
</svg>
