<?xml version="1.0" encoding="UTF-8" standalone="no"?>
<svg
   xmlns:dc="http://purl.org/dc/elements/1.1/"
   xmlns:cc="http://creativecommons.org/ns#"
   xmlns:rdf="http://www.w3.org/1999/02/22-rdf-syntax-ns#"
   xmlns:svg="http://www.w3.org/2000/svg"
   xmlns="http://www.w3.org/2000/svg"
   xmlns:sodipodi="http://sodipodi.sourceforge.net/DTD/sodipodi-0.dtd"
   xmlns:inkscape="http://www.inkscape.org/namespaces/inkscape"
   height="301px"
   width="601px"
   id="svg2"
   sodipodi:version="0.32"
   inkscape:version="0.46"
   sodipodi:docname="natural logarithm integral.svg"
   inkscape:output_extension="org.inkscape.output.svg.inkscape">
  <metadata
     id="metadata49">
    <rdf:RDF>
      <cc:Work
         rdf:about="">
        <dc:format>image/svg+xml</dc:format>
        <dc:type
           rdf:resource="http://purl.org/dc/dcmitype/StillImage" />
      </cc:Work>
    </rdf:RDF>
  </metadata>
  <defs
     id="defs47">
    <inkscape:perspective
       sodipodi:type="inkscape:persp3d"
       inkscape:vp_x="0 : 150.5 : 1"
       inkscape:vp_y="0 : 1000 : 0"
       inkscape:vp_z="601 : 150.5 : 1"
       inkscape:persp3d-origin="300.5 : 100.33333 : 1"
       id="perspective51" />
  </defs>
  <sodipodi:namedview
     inkscape:window-height="881"
     inkscape:window-width="1440"
     inkscape:pageshadow="2"
     inkscape:pageopacity="0.0"
     guidetolerance="10.0"
     gridtolerance="10.0"
     objecttolerance="10.0"
     borderopacity="1.0"
     bordercolor="#666666"
     pagecolor="#ffffff"
     id="base"
     showgrid="false"
     showguides="true"
     inkscape:guide-bbox="true"
     inkscape:zoom="2.2728785"
     inkscape:cx="300.5"
     inkscape:cy="168.09883"
     inkscape:window-x="-4"
     inkscape:window-y="-4"
     inkscape:current-layer="g6" />
  <title
     id="title4">http://pl.wikipedia.org</title>
  <g
     id="g6">
    <polygon
       stroke-width="1"
       stroke="black"
       fill="#ccc"
       stroke-dasharray="5"
       points="240.5,260.5 240.5,60.5 241.594,61.5878 242.688,62.6638 243.781,63.7283 244.875,64.7813 245.969,65.8232 247.062,66.854 248.156,67.874 249.25,68.8832 250.344,69.882 251.438,70.8704 252.531,71.8486 253.625,72.8167 254.719,73.775 255.812,74.7235 256.906,75.6625 258,76.592 259.094,77.5122 260.188,78.4232 261.281,79.3252 262.375,80.2183 263.469,81.1027 264.562,81.9784 265.656,82.8456 266.75,83.7044 267.844,84.555 268.938,85.3974 270.031,86.2318 271.125,87.0583 272.219,87.8769 273.312,88.6879 274.406,89.4913 275.5,90.2872 276.594,91.0758 277.688,91.857 278.781,92.6311 279.875,93.3982 280.969,94.1582 282.062,94.9114 283.156,95.6578 284.25,96.3974 285.344,97.1305 286.438,97.8571 287.531,98.5772 288.625,99.2909 289.719,99.9984 290.812,100.7 291.906,101.395 293,102.084 294.094,102.767 295.188,103.445 296.281,104.116 297.375,104.782 298.469,105.442 299.562,106.097 300.656,106.746 301.75,107.39 302.844,108.028 303.938,108.661 305.031,109.289 306.125,109.912 307.219,110.529 308.312,111.142 309.406,111.749 310.5,112.352 311.594,112.95 312.688,113.542 313.781,114.131 314.875,114.714 315.969,115.293 317.062,115.867 318.156,116.437 319.25,117.002 320.344,117.563 321.438,118.12 322.531,118.672 323.625,119.22 324.719,119.763 325.812,120.303 326.906,120.838 328,121.37 329.094,121.897 330.188,122.42 331.281,122.94 332.375,123.455 333.469,123.967 334.562,124.474 335.656,124.979 336.75,125.479 337.844,125.976 338.938,126.469 340.031,126.958 341.125,127.444 342.219,127.926 343.312,128.405 344.406,128.88 345.5,129.352 346.594,129.821 347.688,130.286 348.781,130.748 349.875,131.207 350.969,131.663 352.062,132.115 353.156,132.564 354.25,133.01 355.344,133.453 356.438,133.893 357.531,134.329 358.625,134.763 359.719,135.194 360.812,135.622 361.906,136.047 363,136.469 364.094,136.888 365.188,137.305 366.281,137.718 367.375,138.129 368.469,138.537 369.562,138.943 370.656,139.345 371.75,139.745 372.844,140.143 373.938,140.537 375.031,140.93 376.125,141.319 377.219,141.706 378.312,142.091 379.406,142.473 380.5,142.853 381.594,143.23 382.688,143.605 383.781,143.977 384.875,144.348 385.969,144.715 387.062,145.081 388.156,145.444 389.25,145.805 390.344,146.163 391.438,146.52 392.531,146.874 393.625,147.226 394.719,147.575 395.812,147.923 396.906,148.269 398,148.612 399.094,148.953 400.188,149.292 401.281,149.629 402.375,149.965 403.469,150.298 404.562,150.629 405.656,150.958 406.75,151.285 407.844,151.61 408.938,151.933 410.031,152.255 411.125,152.574 412.219,152.892 413.312,153.207 414.406,153.521 415.5,153.833 416.594,154.144 417.688,154.452 418.781,154.759 419.875,155.063 420.969,155.367 422.062,155.668 423.156,155.968 424.25,156.265 425.344,156.562 426.438,156.856 427.531,157.149 428.625,157.44 429.719,157.73 430.812,158.018 431.906,158.304 433,158.589 434.094,158.872 435.188,159.154 436.281,159.434 437.375,159.713 438.469,159.99 439.562,160.265 440.656,160.539 441.75,160.812 442.844,161.083 443.938,161.352 445.031,161.62 446.125,161.887 447.219,162.152 448.312,162.416 449.406,162.678 450.5,162.939 451.594,163.199 452.688,163.457 453.781,163.714 454.875,163.969 455.969,164.223 457.062,164.476 458.156,164.727 459.25,164.978 460.344,165.226 461.438,165.474 462.531,165.72 463.625,165.965 464.719,166.209 465.812,166.452 466.906,166.693 468,166.933 469.094,167.172 470.188,167.409 471.281,167.645 472.375,167.881 473.469,168.115 474.562,168.347 475.656,168.579 476.75,168.809 477.844,169.039 478.938,169.267 480.031,169.494 481.125,169.72 482.219,169.945 483.312,170.168 484.406,170.391 485.5,170.612 486.594,170.833 487.688,171.052 488.781,171.27 489.875,171.487 490.969,171.704 492.062,171.919 493.156,172.133 494.25,172.346 495.344,172.558 496.438,172.769 497.531,172.979 498.625,173.188 499.719,173.396 500.812,173.603 501.906,173.809 503,174.014 504.094,174.218 505.188,174.421 506.281,174.623 507.375,174.824 508.469,175.024 509.562,175.224 510.656,175.422 511.75,175.619 512.844,175.816 513.938,176.012 515.031,176.206 516.125,176.4 517.219,176.593 518.312,176.785 519.406,176.976 520.5,177.167 520.5,260.5"
       id="polygon8" />
    <g
       id="g10">
      <g
         id="g12">
        <line
           stroke-width="1"
           stroke="black"
           fill="black"
           x1="0.5"
           y1="260.5"
           x2="585.5"
           y2="260.5"
           id="line14" />
        <polygon
           stroke-width="1"
           stroke="none"
           fill="black"
           points="600.5,260.5 585.5,265.5 585.5,260.5 585.5,255.5"
           id="polygon16" />
      </g>
    </g>
    <g
       id="g18">
      <g
         id="g20">
        <line
           stroke-width="1"
           stroke="black"
           fill="black"
           x1="40.5"
           y1="300.5"
           x2="40.5"
           y2="15.5"
           id="line22" />
        <polygon
           stroke-width="1"
           stroke="none"
           fill="black"
           points="40.5,0.5 45.5,15.5 40.5,15.5 35.5,15.5"
           id="polygon24" />
      </g>
    </g>
    <path
       d="M42.5,-19739.5 L53.8878,-2727.3 L65.2755,-1354 L76.6633,-845.595 L88.051,-580.702 L99.4388,-418.17 L110.827,-308.275 L122.214,-229.01 L133.602,-169.136 L144.99,-122.312 L156.378,-84.692 L167.765,-53.804 L179.153,-27.9898 L190.541,-6.09412 L201.929,12.7124 L213.316,29.0404 L224.704,43.3495 L236.092,55.9925 L247.48,67.2442 L258.867,77.3224 L270.255,86.4016 L281.643,94.6232 L293.031,102.103 L304.418,108.938 L315.806,115.207 L327.194,120.978 L338.582,126.309 L349.969,131.247 L361.357,135.834 L372.745,140.107 L384.133,144.097 L395.52,147.83 L406.908,151.332 L418.296,154.623 L429.684,157.721 L441.071,160.643 L452.459,163.403 L463.847,166.015 L475.235,168.49 L486.622,170.839 L498.01,173.07 L509.398,175.194 L520.786,177.216 L532.173,179.145 L543.561,180.987 L554.949,182.747 L566.337,184.431 L577.724,186.043 L589.112,187.589 L600.5,189.071"
       stroke-width="1.5"
       stroke="red"
       fill="none"
       id="path26"
       style="stroke-width:5;stroke-miterlimit:4;stroke-dasharray:none" />
    <line
       stroke-width="1.5"
       stroke="black"
       fill="black"
       x1="240.5"
       y1="260.5"
       x2="240.5"
       y2="268.5"
       id="line28" />
    <line
       stroke-width="1.5"
       stroke="black"
       fill="black"
       x1="520.5"
       y1="260.5"
       x2="520.5"
       y2="268.5"
       id="line30" />
    <line
       stroke-width="1.5"
       stroke="black"
       fill="black"
       x1="35.5"
       y1="60.5"
       x2="45.5"
       y2="60.5"
       id="line32" />
    <path
       style="font-size:24px;font-style:normal;font-weight:normal;text-anchor:middle;fill:#000000;font-family:Arial"
       d="M 242.76172,289.5 L 240.65234,289.5 L 240.65234,276.05859 C 240.14452,276.54298 239.47851,277.02736 238.6543,277.51172 C 237.83007,277.99611 237.08984,278.35939 236.43359,278.60156 L 236.43359,276.5625 C 237.61328,276.00783 238.64453,275.33595 239.52734,274.54688 C 240.41015,273.75783 241.03515,272.9922 241.40234,272.25 L 242.76172,272.25 L 242.76172,289.5 z"
       id="text34" />
    <path
       style="font-size:24px;font-style:normal;font-weight:normal;text-anchor:middle;fill:#000000;font-family:Arial"
       d="M 523.35938,287.61328 L 523.66406,289.47656 C 523.07031,289.60156 522.53906,289.66406 522.07031,289.66406 C 521.30468,289.66406 520.71093,289.54297 520.28906,289.30078 C 519.86718,289.05859 519.57031,288.74024 519.39844,288.3457 C 519.22656,287.95117 519.14062,287.1211 519.14062,285.85547 L 519.14062,278.69531 L 517.59375,278.69531 L 517.59375,277.05469 L 519.14062,277.05469 L 519.14062,273.97266 L 521.23828,272.70703 L 521.23828,277.05469 L 523.35938,277.05469 L 523.35938,278.69531 L 521.23828,278.69531 L 521.23828,285.97266 C 521.23828,286.57422 521.27539,286.96094 521.34961,287.13281 C 521.42382,287.30469 521.54492,287.44141 521.71289,287.54297 C 521.88085,287.64453 522.12109,287.69531 522.43359,287.69531 C 522.66796,287.69531 522.97656,287.66797 523.35938,287.61328 L 523.35938,287.61328 z"
       id="text36" />
    <path
       style="font-size:24px;font-style:normal;font-weight:normal;text-anchor:end;fill:#000000;font-family:Arial"
       d="M 31.082031,72.5 L 28.972656,72.5 L 28.972656,59.058594 C 28.464837,59.542982 27.798822,60.027356 26.974609,60.511719 C 26.150387,60.996105 25.410153,61.359386 24.753906,61.601562 L 24.753906,59.5625 C 25.93359,59.007826 26.964839,58.335952 27.847656,57.546875 C 28.730462,56.757828 29.355462,55.992204 29.722656,55.25 L 31.082031,55.25 L 31.082031,72.5 z"
       id="text38" />
    <path
       style="font-size:24px;font-style:normal;font-weight:normal;text-anchor:end;fill:#000000;font-family:Arial"
       d="M 23.136719,281.02734 C 23.136718,278.9961 23.345702,277.36134 23.763672,276.12305 C 24.181639,274.88478 24.802732,273.9297 25.626953,273.25781 C 26.451168,272.58595 27.488276,272.25002 28.738281,272.25 C 29.660149,272.25002 30.468742,272.43556 31.164062,272.80664 C 31.859365,273.17775 32.433583,273.71291 32.886719,274.41211 C 33.339833,275.11134 33.695301,275.9629 33.953125,276.9668 C 34.210925,277.97071 34.339832,279.32423 34.339844,281.02734 C 34.339832,283.04298 34.132801,284.66993 33.71875,285.9082 C 33.304676,287.14649 32.685536,288.10352 31.861328,288.7793 C 31.0371,289.45508 29.996086,289.79297 28.738281,289.79297 C 27.082026,289.79297 25.781246,289.19922 24.835938,288.01172 C 23.703123,286.58203 23.136718,284.25391 23.136719,281.02734 L 23.136719,281.02734 z M 25.304688,281.02734 C 25.304684,283.84766 25.634762,285.72461 26.294922,286.6582 C 26.955073,287.5918 27.769526,288.0586 28.738281,288.05859 C 29.707024,288.0586 30.521476,287.58985 31.181641,286.65234 C 31.841787,285.71485 32.171865,283.83985 32.171875,281.02734 C 32.171865,278.19923 31.841787,276.32033 31.181641,275.39062 C 30.521476,274.46095 29.699211,273.99611 28.714844,273.99609 C 27.746088,273.99611 26.972651,274.40627 26.394531,275.22656 C 25.667965,276.27345 25.304684,278.20704 25.304688,281.02734 L 25.304688,281.02734 z"
       id="text40" />
    <path
       style="font-size:48px;font-style:normal;font-weight:normal;text-anchor:middle;fill:#000000;font-family:Arial"
       d="M 323.70093,201.03763 L 323.70093,166.67825 L 327.91968,166.67825 L 327.91968,201.03763 L 323.70093,201.03763 z M 334.48218,201.03763 L 334.48218,176.147 L 338.27905,176.147 L 338.27905,179.68607 C 340.10717,176.95171 342.74779,175.58453 346.20093,175.5845 C 347.70091,175.58453 349.07982,175.85406 350.33765,176.3931 C 351.59544,176.93218 352.53684,177.63921 353.16187,178.51419 C 353.78684,179.38921 354.22434,180.42827 354.47437,181.63138 C 354.63059,182.41265 354.70872,183.77983 354.70874,185.73294 L 354.70874,201.03763 L 350.48999,201.03763 L 350.48999,185.897 C 350.48997,184.17827 350.32591,182.89312 349.9978,182.04153 C 349.66966,181.18999 349.08763,180.5103 348.25171,180.00247 C 347.41576,179.49468 346.43529,179.24077 345.3103,179.24075 C 343.51342,179.24077 341.96264,179.81109 340.65796,180.95169 C 339.35326,182.09233 338.70092,184.25639 338.70093,187.44388 L 338.70093,201.03763 L 334.48218,201.03763 z M 369.26343,211.13919 C 366.93529,208.20168 364.96655,204.76419 363.35718,200.82669 C 361.7478,196.88919 360.94311,192.81107 360.94312,188.59232 C 360.94311,184.87358 361.54467,181.31109 362.7478,177.90482 C 364.15405,173.95172 366.32592,170.01422 369.26343,166.09232 L 372.28687,166.09232 C 370.39623,169.34235 369.14623,171.66266 368.53687,173.05325 C 367.58373,175.20953 366.83373,177.45953 366.28687,179.80325 C 365.61498,182.72515 365.27905,185.66264 365.27905,188.61575 C 365.27905,196.13138 367.61498,203.63919 372.28687,211.13919 L 369.26343,211.13919 z M 386.44312,197.26419 L 387.05249,200.99075 C 385.86498,201.24075 384.80248,201.36575 383.86499,201.36575 C 382.33373,201.36575 381.14623,201.12357 380.30249,200.63919 C 379.45873,200.15482 378.86499,199.5181 378.52124,198.72903 C 378.17749,197.93998 378.00561,196.27982 378.00562,193.74857 L 378.00562,179.42825 L 374.91187,179.42825 L 374.91187,176.147 L 378.00562,176.147 L 378.00562,169.98294 L 382.20093,167.45169 L 382.20093,176.147 L 386.44312,176.147 L 386.44312,179.42825 L 382.20093,179.42825 L 382.20093,193.98294 C 382.20092,195.18607 382.27514,195.95951 382.42358,196.30325 C 382.57201,196.64701 382.8142,196.92044 383.15015,197.12357 C 383.48607,197.32669 383.96654,197.42826 384.59155,197.42825 C 385.06029,197.42826 385.67748,197.37357 386.44312,197.26419 L 386.44312,197.26419 z M 393.3103,211.13919 L 390.28687,211.13919 C 394.95873,203.63919 397.29467,196.13138 397.29468,188.61575 C 397.29467,185.67827 396.95873,182.76421 396.28687,179.87357 C 395.75561,177.52984 395.01342,175.27984 394.0603,173.12357 C 393.45092,171.71734 392.19311,169.3736 390.28687,166.09232 L 393.3103,166.09232 C 396.24779,170.01422 398.41967,173.95172 399.82593,177.90482 C 401.02904,181.31109 401.6306,184.87358 401.63062,188.59232 C 401.6306,192.81107 400.82201,196.88919 399.20483,200.82669 C 397.58764,204.76419 395.62279,208.20168 393.3103,211.13919 L 393.3103,211.13919 z"
       id="text42" />
    <path
       style="font-size:24px;font-style:normal;font-weight:normal;text-anchor:start;fill:#ff0000;font-family:Arial"
       d="M 285.05945,83.416962 L 285.05945,72.612274 L 283.19617,72.612274 L 283.19617,70.971649 L 285.05945,70.971649 L 285.05945,69.64743 C 285.05945,68.811508 285.13366,68.190414 285.2821,67.784149 C 285.48523,67.23729 285.84265,66.793931 286.35437,66.454071 C 286.86608,66.114245 287.58288,65.944323 288.50476,65.944305 C 289.0985,65.944323 289.75475,66.014635 290.47351,66.155243 L 290.1571,67.995087 C 289.7196,67.916977 289.30554,67.877915 288.91492,67.877899 C 288.27429,67.877915 287.82116,68.014633 287.55554,68.288055 C 287.28991,68.561508 287.1571,69.073226 287.1571,69.823212 L 287.1571,70.971649 L 289.58289,70.971649 L 289.58289,72.612274 L 287.1571,72.612274 L 287.1571,83.416962 L 285.05945,83.416962 z M 295.24304,88.467743 C 294.07898,86.998989 293.0946,85.280241 292.28992,83.311493 C 291.48523,81.342745 291.08288,79.303685 291.08289,77.194305 C 291.08288,75.334939 291.38367,73.55369 291.98523,71.850555 C 292.68835,69.874006 293.77429,67.905258 295.24304,65.944305 L 296.75476,65.944305 C 295.80944,67.569321 295.18444,68.729476 294.87976,69.424774 C 294.40319,70.502912 294.02819,71.627911 293.75476,72.799774 C 293.41882,74.260721 293.25085,75.729469 293.25085,77.206024 C 293.25085,80.963839 294.41882,84.717742 296.75476,88.467743 L 295.24304,88.467743 z M 297.82117,83.416962 L 302.36804,76.948212 L 298.16101,70.971649 L 300.79773,70.971649 L 302.70789,73.889618 C 303.06726,74.444314 303.35632,74.909158 303.57507,75.284149 C 303.91882,74.768533 304.23522,74.311502 304.52429,73.913055 L 306.62195,70.971649 L 309.14148,70.971649 L 304.8407,76.831024 L 309.4696,83.416962 L 306.87976,83.416962 L 304.32507,79.549774 L 303.64539,78.506805 L 300.37585,83.416962 L 297.82117,83.416962 z M 312.61023,88.467743 L 311.09851,88.467743 C 313.43444,84.717742 314.60241,80.963839 314.60242,77.206024 C 314.60241,75.737282 314.43444,74.280252 314.09851,72.83493 C 313.83288,71.663067 313.46179,70.538068 312.98523,69.45993 C 312.68054,68.75682 312.05163,67.584946 311.09851,65.944305 L 312.61023,65.944305 C 314.07898,67.905258 315.16491,69.874006 315.86804,71.850555 C 316.4696,73.55369 316.77038,75.334939 316.77039,77.194305 C 316.77038,79.303685 316.36608,81.342745 315.5575,83.311493 C 314.7489,85.280241 313.76648,86.998989 312.61023,88.467743 L 312.61023,88.467743 z M 336.99695,73.315399 L 325.6532,73.315399 L 325.6532,71.346649 L 336.99695,71.346649 L 336.99695,73.315399 z M 336.99695,78.530243 L 325.6532,78.530243 L 325.6532,76.561493 L 336.99695,76.561493 L 336.99695,78.530243 z"
       id="text44" />
    <path
       style="font-size:24px;font-style:normal;font-variant:normal;font-weight:normal;font-stretch:normal;text-align:start;line-height:125%;writing-mode:lr-tb;text-anchor:start;fill:#ff0000;fill-opacity:1;stroke:none;stroke-width:1px;stroke-linecap:butt;stroke-linejoin:miter;stroke-opacity:1;font-family:Bitstream Vera Sans;-inkscape-font-specification:Bitstream Vera Sans"
       d="M 354.44476,66.465408 L 358.31195,66.465408 L 358.31195,53.117752 L 354.10492,53.961502 L 354.10492,51.805252 L 358.28851,50.961502 L 360.6557,50.961502 L 360.6557,66.465408 L 364.52289,66.465408 L 364.52289,68.457596 L 354.44476,68.457596 L 354.44476,66.465408 z"
       id="text2424" />
    <path
       style="font-size:24px;font-style:normal;font-variant:normal;font-weight:normal;font-stretch:normal;text-align:start;line-height:125%;writing-mode:lr-tb;text-anchor:start;fill:#ff0000;fill-opacity:1;stroke:none;stroke-width:1px;stroke-linecap:butt;stroke-linejoin:miter;stroke-opacity:1;font-family:Bitstream Vera Sans;-inkscape-font-specification:Bitstream Vera Sans"
       d="M 364.9277,83.926033 L 360.18161,90.312752 L 365.1738,97.051033 L 362.63083,97.051033 L 358.81052,91.894783 L 354.9902,97.051033 L 352.44724,97.051033 L 357.54489,90.183846 L 352.88083,83.926033 L 355.4238,83.926033 L 358.90427,88.601814 L 362.38474,83.926033 L 364.9277,83.926033 z"
       id="text2428" />
    <path
       style="fill:#ff0000;fill-rule:evenodd;stroke:#ff0000;stroke-width:0.82227856px;stroke-linecap:butt;stroke-linejoin:miter;stroke-opacity:1"
       d="M 346.58192,75.89046 C 368.83845,75.89046 368.83845,75.89046 368.83845,75.89046"
       id="path2432" />
    <path
       style="font-size:20px;font-style:normal;font-weight:normal;fill:#000000;fill-opacity:1;stroke:none;stroke-width:1px;stroke-linecap:butt;stroke-linejoin:miter;stroke-opacity:1;font-family:Bitstream Vera Sans"
       d="M 594.81769,239.46587 L 590.86261,244.78813 L 595.02277,250.40337 L 592.90363,250.40337 L 589.72003,246.10649 L 586.53644,250.40337 L 584.4173,250.40337 L 588.66534,244.68071 L 584.77863,239.46587 L 586.89777,239.46587 L 589.79816,243.36235 L 592.69855,239.46587 L 594.81769,239.46587 z"
       id="text2434" />
    <line
       x1="35.477306"
       y1="177.8082"
       x2="45.477306"
       y2="177.8082"
       id="line3212"
       style="fill:#000000;stroke:#000000;stroke-width:1.5" />
    <path
       style="font-size:24px;font-style:normal;font-variant:normal;font-weight:normal;font-stretch:normal;text-align:start;line-height:125%;writing-mode:lr-tb;text-anchor:start;fill:#000000;fill-opacity:1;stroke:none;stroke-width:1px;stroke-linecap:butt;stroke-linejoin:miter;stroke-opacity:1;font-family:Bitstream Vera Sans;-inkscape-font-specification:Bitstream Vera Sans"
       d="M 18.293142,168.38315 L 22.16033,168.38315 L 22.16033,155.03549 L 17.953299,155.87924 L 17.953299,153.72299 L 22.136892,152.87924 L 24.50408,152.87924 L 24.50408,168.38315 L 28.371267,168.38315 L 28.371267,170.37534 L 18.293142,170.37534 L 18.293142,168.38315 z"
       id="text3214" />
    <path
       style="font-size:24px;font-style:normal;font-variant:normal;font-weight:normal;font-stretch:normal;text-align:start;line-height:125%;writing-mode:lr-tb;text-anchor:start;fill:#000000;fill-opacity:1;stroke:none;stroke-width:1px;stroke-linecap:butt;stroke-linejoin:miter;stroke-opacity:1;font-family:Bitstream Vera Sans;-inkscape-font-specification:Bitstream Vera Sans"
       d="M 21.758621,182.11722 L 21.758621,185.84378 L 26.200027,185.84378 L 26.200027,187.51956 L 21.758621,187.51956 L 21.758621,194.64456 C 21.758617,195.71488 21.905101,196.40238 22.198074,196.70706 C 22.491038,197.01175 23.08674,197.16409 23.985184,197.16409 L 26.200027,197.16409 L 26.200027,198.96878 L 23.985184,198.96878 C 22.321116,198.96878 21.17268,198.65823 20.539871,198.03714 C 19.907056,197.41605 19.59065,196.28519 19.590652,194.64456 L 19.590652,187.51956 L 18.008621,187.51956 L 18.008621,185.84378 L 19.590652,185.84378 L 19.590652,182.11722 L 21.758621,182.11722 z"
       id="text3218" />
    <path
       style="fill:#000000;fill-rule:evenodd;stroke:#000000;stroke-width:0.82227855999999999px;stroke-linecap:butt;stroke-linejoin:miter;stroke-opacity:1"
       d="M 10.4303,177.8082 C 32.686833,177.8082 32.686833,177.8082 32.686833,177.8082"
       id="path3222" />
    <path
       style="fill:none;fill-rule:evenodd;stroke:#000000;stroke-width:1;stroke-linecap:butt;stroke-linejoin:miter;stroke-opacity:1;stroke-miterlimit:4;stroke-dasharray:1,2;stroke-dashoffset:0"
       d="M 40.037335,177.8082 L 521.3653,177.8082"
       id="path3224" />
  </g>
</svg>
