<?xml version="1.0" encoding="UTF-8" standalone="no"?>
<!-- Created with Inkscape (http://www.inkscape.org/) -->
<svg
   xmlns:dc="http://purl.org/dc/elements/1.1/"
   xmlns:cc="http://web.resource.org/cc/"
   xmlns:rdf="http://www.w3.org/1999/02/22-rdf-syntax-ns#"
   xmlns:svg="http://www.w3.org/2000/svg"
   xmlns="http://www.w3.org/2000/svg"
   xmlns:xlink="http://www.w3.org/1999/xlink"
   xmlns:sodipodi="http://sodipodi.sourceforge.net/DTD/sodipodi-0.dtd"
   xmlns:inkscape="http://www.inkscape.org/namespaces/inkscape"
   width="1645.9308"
   height="1040.0128"
   id="svg2"
   sodipodi:version="0.32"
   inkscape:version="0.45.1"
   sodipodi:docbase="D:\My Documents\Articles\wikipedia\pictures"
   sodipodi:docname="sonic boom.svg"
   inkscape:output_extension="org.inkscape.output.svg.inkscape"
   inkscape:export-filename="D:\My Documents\Articles\wikipedia\pictures\sonic boom.png"
   inkscape:export-xdpi="90"
   inkscape:export-ydpi="90"
   version="1.0">
  <defs
     id="defs4">
    <linearGradient
       inkscape:collect="always"
       id="linearGradient8075">
      <stop
         style="stop-color:#f41212;stop-opacity:1;"
         offset="0"
         id="stop8077" />
      <stop
         style="stop-color:#f41212;stop-opacity:0;"
         offset="1"
         id="stop8079" />
    </linearGradient>
    <linearGradient
       inkscape:collect="always"
       xlink:href="#linearGradient8075"
       id="linearGradient8081"
       x1="650.16608"
       y1="724.349"
       x2="734.85822"
       y2="724.349"
       gradientUnits="userSpaceOnUse" />
    <linearGradient
       inkscape:collect="always"
       xlink:href="#linearGradient8075"
       id="linearGradient9096"
       gradientUnits="userSpaceOnUse"
       x1="650.16608"
       y1="724.349"
       x2="734.85822"
       y2="724.349" />
  </defs>
  <sodipodi:namedview
     id="base"
     pagecolor="#ffffff"
     bordercolor="#666666"
     borderopacity="1.0"
     gridtolerance="10000"
     guidetolerance="10"
     objecttolerance="10"
     inkscape:pageopacity="0.0"
     inkscape:pageshadow="2"
     inkscape:zoom="0.48937524"
     inkscape:cx="638.12553"
     inkscape:cy="526.18109"
     inkscape:document-units="px"
     inkscape:current-layer="layer1"
     showgrid="true"
     showguides="false"
     inkscape:window-width="1024"
     inkscape:window-height="719"
     inkscape:window-x="0"
     inkscape:window-y="22" />
  <metadata
     id="metadata7">
    <rdf:RDF>
      <cc:Work
         rdf:about="">
        <dc:format>image/svg+xml</dc:format>
        <dc:type
           rdf:resource="http://purl.org/dc/dcmitype/StillImage" />
      </cc:Work>
    </rdf:RDF>
  </metadata>
  <g
     inkscape:label="Layer 1"
     inkscape:groupmode="layer"
     id="layer1"
     transform="translate(300.00462,-52.362181)">
    <path
       style="fill:none;fill-rule:evenodd;stroke:#000000;stroke-width:0.99958378px;stroke-linecap:butt;stroke-linejoin:miter;stroke-opacity:1"
       d="M 100.49979,451.86239 C 699.50145,451.86239 699.50145,451.86239 699.50145,451.86239"
       id="path4105" />
    <path
       sodipodi:type="arc"
       style="fill:#ccffaa;fill-opacity:0.48684208;fill-rule:nonzero;stroke:#880000;stroke-width:0.99921262;stroke-miterlimit:4;stroke-dasharray:none;stroke-opacity:1"
       id="path4132"
       sodipodi:cx="124.41054"
       sodipodi:cy="373.84622"
       sodipodi:rx="204.79889"
       sodipodi:ry="203.84189"
       d="M 329.20943 373.84622 A 204.79889 203.84189 0 1 1  -80.388351,373.84622 A 204.79889 203.84189 0 1 1  329.20943 373.84622 z"
       transform="matrix(1.9483714,0,0,1.9575187,-142.39793,-279.44878)" />
    <path
       sodipodi:type="arc"
       style="fill:#ccffaa;fill-opacity:0.48684208;fill-rule:nonzero;stroke:#880000;stroke-width:0.99921262;stroke-miterlimit:4;stroke-dasharray:none;stroke-opacity:1"
       id="path4134"
       sodipodi:cx="124.41054"
       sodipodi:cy="373.84622"
       sodipodi:rx="204.79889"
       sodipodi:ry="203.84189"
       d="M 329.20943 373.84622 A 204.79889 203.84189 0 1 1  -80.388351,373.84622 A 204.79889 203.84189 0 1 1  329.20943 373.84622 z"
       transform="matrix(1.8265982,0,0,1.8351738,-52.248059,-233.71062)" />
    <path
       sodipodi:type="arc"
       style="fill:#ccffaa;fill-opacity:0.48684208;fill-rule:nonzero;stroke:#880000;stroke-width:0.99921262;stroke-miterlimit:4;stroke-dasharray:none;stroke-opacity:1"
       id="path4136"
       sodipodi:cx="124.41054"
       sodipodi:cy="373.84622"
       sodipodi:rx="204.79889"
       sodipodi:ry="203.84189"
       d="M 329.20943 373.84622 A 204.79889 203.84189 0 1 1  -80.388351,373.84622 A 204.79889 203.84189 0 1 1  329.20943 373.84622 z"
       transform="matrix(1.704825,0,0,1.7128288,37.901808,-187.97239)" />
    <path
       sodipodi:type="arc"
       style="fill:#ccffaa;fill-opacity:0.48684208;fill-rule:nonzero;stroke:#880000;stroke-width:0.99921262;stroke-miterlimit:4;stroke-dasharray:none;stroke-opacity:1"
       id="path4138"
       sodipodi:cx="124.41054"
       sodipodi:cy="373.84622"
       sodipodi:rx="204.79889"
       sodipodi:ry="203.84189"
       d="M 329.20943 373.84622 A 204.79889 203.84189 0 1 1  -80.388351,373.84622 A 204.79889 203.84189 0 1 1  329.20943 373.84622 z"
       transform="matrix(1.5830517,0,0,1.5904839,128.05168,-142.2342)" />
    <path
       sodipodi:type="arc"
       style="fill:#ccffaa;fill-opacity:0.48684208;fill-rule:nonzero;stroke:#880000;stroke-width:0.99921262;stroke-miterlimit:4;stroke-dasharray:none;stroke-opacity:1"
       id="path4140"
       sodipodi:cx="124.41054"
       sodipodi:cy="373.84622"
       sodipodi:rx="204.79889"
       sodipodi:ry="203.84189"
       d="M 329.20943 373.84622 A 204.79889 203.84189 0 1 1  -80.388351,373.84622 A 204.79889 203.84189 0 1 1  329.20943 373.84622 z"
       transform="matrix(1.4612786,0,0,1.468139,218.20155,-96.496016)" />
    <path
       sodipodi:type="arc"
       style="fill:#ccffaa;fill-opacity:0.48684208;fill-rule:nonzero;stroke:#880000;stroke-width:0.99921262;stroke-miterlimit:4;stroke-dasharray:none;stroke-opacity:1"
       id="path4142"
       sodipodi:cx="124.41054"
       sodipodi:cy="373.84622"
       sodipodi:rx="204.79889"
       sodipodi:ry="203.84189"
       d="M 329.20943 373.84622 A 204.79889 203.84189 0 1 1  -80.388351,373.84622 A 204.79889 203.84189 0 1 1  329.20943 373.84622 z"
       transform="matrix(1.3395053,0,0,1.3457941,308.35142,-50.757875)" />
    <path
       sodipodi:type="arc"
       style="fill:#ccffaa;fill-opacity:0.48684208;fill-rule:nonzero;stroke:#880000;stroke-width:0.99921262;stroke-miterlimit:4;stroke-dasharray:none;stroke-opacity:1"
       id="path4144"
       sodipodi:cx="124.41054"
       sodipodi:cy="373.84622"
       sodipodi:rx="204.79889"
       sodipodi:ry="203.84189"
       d="M 329.20943 373.84622 A 204.79889 203.84189 0 1 1  -80.388351,373.84622 A 204.79889 203.84189 0 1 1  329.20943 373.84622 z"
       transform="matrix(1.2177321,0,0,1.2234492,398.50129,-5.019687)" />
    <path
       sodipodi:type="arc"
       style="fill:#ccffaa;fill-opacity:0.48684208;fill-rule:nonzero;stroke:#880000;stroke-width:0.99921262;stroke-miterlimit:4;stroke-dasharray:none;stroke-opacity:1"
       id="path4146"
       sodipodi:cx="124.41054"
       sodipodi:cy="373.84622"
       sodipodi:rx="204.79889"
       sodipodi:ry="203.84189"
       d="M 329.20943 373.84622 A 204.79889 203.84189 0 1 1  -80.388351,373.84622 A 204.79889 203.84189 0 1 1  329.20943 373.84622 z"
       transform="matrix(1.095959,0,0,1.1011042,488.65117,40.718505)" />
    <path
       sodipodi:type="arc"
       style="fill:#ccffaa;fill-opacity:0.48684208;fill-rule:nonzero;stroke:#880000;stroke-width:0.99921262;stroke-miterlimit:4;stroke-dasharray:none;stroke-opacity:1"
       id="path4148"
       sodipodi:cx="124.41054"
       sodipodi:cy="373.84622"
       sodipodi:rx="204.79889"
       sodipodi:ry="203.84189"
       d="M 329.20943 373.84622 A 204.79889 203.84189 0 1 1  -80.388351,373.84622 A 204.79889 203.84189 0 1 1  329.20943 373.84622 z"
       transform="matrix(0.9741857,0,0,0.9787593,578.80103,86.456709)" />
    <path
       sodipodi:type="arc"
       style="fill:#ccffaa;fill-opacity:0.48684208;fill-rule:nonzero;stroke:#880000;stroke-width:0.99921262;stroke-miterlimit:4;stroke-dasharray:none;stroke-opacity:1"
       id="path4150"
       sodipodi:cx="124.41054"
       sodipodi:cy="373.84622"
       sodipodi:rx="204.79889"
       sodipodi:ry="203.84189"
       d="M 329.20943 373.84622 A 204.79889 203.84189 0 1 1  -80.388351,373.84622 A 204.79889 203.84189 0 1 1  329.20943 373.84622 z"
       transform="matrix(0.8524125,0,0,0.8564144,668.9509,132.1949)" />
    <path
       sodipodi:type="arc"
       style="fill:#ccffaa;fill-opacity:0.48684208;fill-rule:nonzero;stroke:#880000;stroke-width:0.99921262;stroke-miterlimit:4;stroke-dasharray:none;stroke-opacity:1"
       id="path4152"
       sodipodi:cx="124.41054"
       sodipodi:cy="373.84622"
       sodipodi:rx="204.79889"
       sodipodi:ry="203.84189"
       d="M 329.20943 373.84622 A 204.79889 203.84189 0 1 1  -80.388351,373.84622 A 204.79889 203.84189 0 1 1  329.20943 373.84622 z"
       transform="matrix(0.7306392,0,0,0.7340695,759.10077,177.9331)" />
    <path
       sodipodi:type="arc"
       style="fill:#ccffaa;fill-opacity:0.48684208;fill-rule:nonzero;stroke:#880000;stroke-width:0.99921262;stroke-miterlimit:4;stroke-dasharray:none;stroke-opacity:1"
       id="path4154"
       sodipodi:cx="124.41054"
       sodipodi:cy="373.84622"
       sodipodi:rx="204.79889"
       sodipodi:ry="203.84189"
       d="M 329.20943 373.84622 A 204.79889 203.84189 0 1 1  -80.388351,373.84622 A 204.79889 203.84189 0 1 1  329.20943 373.84622 z"
       transform="matrix(0.6088661,0,0,0.6117246,849.25064,223.67125)" />
    <path
       sodipodi:type="arc"
       style="fill:#ccffaa;fill-opacity:0.48684208;fill-rule:nonzero;stroke:#880000;stroke-width:0.99921262;stroke-miterlimit:4;stroke-dasharray:none;stroke-opacity:1"
       id="path4156"
       sodipodi:cx="124.41054"
       sodipodi:cy="373.84622"
       sodipodi:rx="204.79889"
       sodipodi:ry="203.84189"
       d="M 329.20943 373.84622 A 204.79889 203.84189 0 1 1  -80.388351,373.84622 A 204.79889 203.84189 0 1 1  329.20943 373.84622 z"
       transform="matrix(0.4870929,0,0,0.4893797,939.40052,269.40942)" />
    <path
       sodipodi:type="arc"
       style="fill:#ccffaa;fill-opacity:0.48684208;fill-rule:nonzero;stroke:#880000;stroke-width:0.99921262;stroke-miterlimit:4;stroke-dasharray:none;stroke-opacity:1"
       id="path4158"
       sodipodi:cx="124.41054"
       sodipodi:cy="373.84622"
       sodipodi:rx="204.79889"
       sodipodi:ry="203.84189"
       d="M 329.20943 373.84622 A 204.79889 203.84189 0 1 1  -80.388351,373.84622 A 204.79889 203.84189 0 1 1  329.20943 373.84622 z"
       transform="matrix(0.3653197,0,0,0.3670347,1029.5504,315.14766)" />
    <path
       sodipodi:type="arc"
       style="fill:#ccffaa;fill-opacity:0.48684208;fill-rule:nonzero;stroke:#880000;stroke-width:0.99921262;stroke-miterlimit:4;stroke-dasharray:none;stroke-opacity:1"
       id="path4160"
       sodipodi:cx="124.41054"
       sodipodi:cy="373.84622"
       sodipodi:rx="204.79889"
       sodipodi:ry="203.84189"
       d="M 329.20943 373.84622 A 204.79889 203.84189 0 1 1  -80.388351,373.84622 A 204.79889 203.84189 0 1 1  329.20943 373.84622 z"
       transform="matrix(0.2435464,0,0,0.2446898,1119.7003,360.8858)" />
    <path
       sodipodi:type="arc"
       style="fill:#ccffaa;fill-opacity:0.48684208;fill-rule:nonzero;stroke:#880000;stroke-width:0.99921262;stroke-miterlimit:4;stroke-dasharray:none;stroke-opacity:1"
       id="path4162"
       sodipodi:cx="124.41054"
       sodipodi:cy="373.84622"
       sodipodi:rx="204.79889"
       sodipodi:ry="203.84189"
       d="M 329.20943 373.84622 A 204.79889 203.84189 0 1 1  -80.388351,373.84622 A 204.79889 203.84189 0 1 1  329.20943 373.84622 z"
       transform="matrix(0.1217732,0,0,0.1223449,1209.8502,406.62399)" />
    <path
       style="fill:none;fill-rule:evenodd;stroke:#1812f4;stroke-width:5.5;stroke-linecap:butt;stroke-linejoin:miter;stroke-miterlimit:4;stroke-dasharray:11, 5.5;stroke-dashoffset:0;stroke-opacity:0.96052629"
       d="M 100.9317,453.16677 C 1219.0671,453.16677 1219.0671,453.16677 1219.0671,453.16677"
       id="path4165" />
    <path
       sodipodi:type="arc"
       style="fill:#ff0000;fill-opacity:1;fill-rule:nonzero;stroke:url(#linearGradient9096);stroke-width:0.47282124;stroke-miterlimit:4;stroke-dasharray:none;stroke-dashoffset:0;stroke-opacity:0.96052629"
       id="path7104"
       sodipodi:cx="692.51215"
       sodipodi:cy="724.349"
       sodipodi:rx="39.596046"
       sodipodi:ry="3.3495145"
       d="M 732.10819 724.349 A 39.596046 3.3495145 0 1 1  652.9161,724.349 A 39.596046 3.3495145 0 1 1  732.10819 724.349 z"
       transform="matrix(1.2487408,0,0,2.7565768,385.34802,-1539.3673)" />
    <path
       sodipodi:type="arc"
       style="fill:#ff0000;fill-opacity:1;fill-rule:nonzero;stroke:#a30f0f;stroke-width:1;stroke-miterlimit:4;stroke-dasharray:none;stroke-dashoffset:0;stroke-opacity:0.96052629"
       id="path9088"
       sodipodi:cx="751.72675"
       sodipodi:cy="725.06677"
       sodipodi:rx="11.962552"
       sodipodi:ry="52.156727"
       d="M 763.6893 725.06677 A 11.962552 52.156727 0 1 1  739.76419,725.06677 A 11.962552 52.156727 0 1 1  763.6893 725.06677 z"
       transform="matrix(0.3516744,0.1876823,-0.2517994,0.3045156,1123.7087,92.959121)" />
    <path
       sodipodi:type="arc"
       style="fill:#ff0000;fill-opacity:1;fill-rule:nonzero;stroke:#a30f0f;stroke-width:1;stroke-miterlimit:4;stroke-dasharray:none;stroke-dashoffset:0;stroke-opacity:0.96078431"
       id="path9084"
       sodipodi:cx="624.20599"
       sodipodi:cy="718.84625"
       sodipodi:rx="8.1345358"
       sodipodi:ry="16.508322"
       d="M 632.34053 718.84625 A 8.1345358 16.508322 0 1 1  616.07146,718.84625 A 8.1345358 16.508322 0 1 1  632.34053 718.84625 z"
       transform="matrix(0.6324926,0,0,0.7107128,808.63134,-64.287794)" />
    <path
       sodipodi:type="arc"
       style="fill:#ff5555;fill-opacity:1;fill-rule:nonzero;stroke:#a30f0f;stroke-width:1;stroke-miterlimit:4;stroke-dasharray:none;stroke-dashoffset:0;stroke-opacity:0.96078431"
       id="path9086"
       sodipodi:cx="751.72675"
       sodipodi:cy="725.06677"
       sodipodi:rx="11.962552"
       sodipodi:ry="52.156727"
       d="M 763.6893 725.06677 A 11.962552 52.156727 0 1 1  739.76419,725.06677 A 11.962552 52.156727 0 1 1  763.6893 725.06677 z"
       transform="matrix(0.6564045,0.3755142,-0.4699865,0.609274,1095.4722,-269.20938)" />
    <g
       id="g17993"
       transform="matrix(3.3764776,0,0,2.7181735,-761.01778,-1402.1578)">
      <path
         id="path9104"
         d="M 445,777.36218 L 450,767.36218 L 455,777.36218"
         style="fill:none;fill-rule:evenodd;stroke:#000000;stroke-width:1px;stroke-linecap:butt;stroke-linejoin:miter;stroke-opacity:1" />
      <path
         id="path9106"
         d="M 450,767.36218 L 450,757.36218 L 445,762.36218 L 445,762.36218"
         style="fill:none;fill-rule:evenodd;stroke:#000000;stroke-width:1px;stroke-linecap:butt;stroke-linejoin:miter;stroke-opacity:1" />
      <path
         id="path9108"
         d="M 450,757.36218 L 455,762.36218"
         style="fill:none;fill-rule:evenodd;stroke:#000000;stroke-width:1px;stroke-linecap:butt;stroke-linejoin:miter;stroke-opacity:1" />
      <path
         transform="matrix(0.9697841,0,0,1.5737626,13.597167,-434.65286)"
         d="M 453.89506 754.40576 A 3.8952727 2.9374187 0 1 1  446.10451,754.40576 A 3.8952727 2.9374187 0 1 1  453.89506 754.40576 z"
         sodipodi:ry="2.9374187"
         sodipodi:rx="3.8952727"
         sodipodi:cy="754.40576"
         sodipodi:cx="449.99979"
         id="path9110"
         style="fill:#e9c6af;fill-opacity:1;fill-rule:nonzero;stroke:#1a0a0a;stroke-width:0.08094553;stroke-miterlimit:4;stroke-dasharray:none;stroke-dashoffset:0;stroke-opacity:0.96052629"
         sodipodi:type="arc" />
      <path
         d="M 449.16965 751.65991 A 0.83014005 0.7024262 0 1 1  447.50937,751.65991 A 0.83014005 0.7024262 0 1 1  449.16965 751.65991 z"
         sodipodi:ry="0.7024262"
         sodipodi:rx="0.83014005"
         sodipodi:cy="751.65991"
         sodipodi:cx="448.33951"
         id="path10081"
         style="fill:#008000;fill-opacity:1;fill-rule:nonzero;stroke:#1a0a0a;stroke-width:0.1;stroke-miterlimit:4;stroke-dasharray:none;stroke-dashoffset:0;stroke-opacity:0.96052629"
         sodipodi:type="arc" />
      <path
         transform="translate(3.553132,-6.2655687e-2)"
         d="M 449.16965 751.65991 A 0.83014005 0.7024262 0 1 1  447.50937,751.65991 A 0.83014005 0.7024262 0 1 1  449.16965 751.65991 z"
         sodipodi:ry="0.7024262"
         sodipodi:rx="0.83014005"
         sodipodi:cy="751.65991"
         sodipodi:cx="448.33951"
         id="path10085"
         style="fill:#008000;fill-opacity:1;fill-rule:nonzero;stroke:#1a0a0a;stroke-width:0.1;stroke-miterlimit:4;stroke-dasharray:none;stroke-dashoffset:0;stroke-opacity:0.96052629"
         sodipodi:type="arc" />
      <path
         d="M 448.03217,753.8971 C 448.08324,754.04267 448.13887,754.18667 448.19314,754.33108 C 448.22858,754.44649 448.28796,754.5491 448.34682,754.65235 C 448.42183,754.72734 448.49456,754.80425 448.56627,754.8824 C 448.63129,754.96734 448.71721,755.02346 448.80491,755.08203 C 448.92092,755.17259 449.05492,755.22976 449.18779,755.28945 C 449.28056,755.32144 449.37226,755.35605 449.46458,755.38903 C 449.54598,755.41706 449.63195,755.42922 449.71646,755.44494 C 449.83037,755.48246 449.94824,755.49676 450.06611,755.51351 C 450.1678,755.53633 450.27083,755.54829 450.37404,755.56064 C 450.49659,755.56996 450.61954,755.56824 450.74233,755.56858 C 450.85978,755.57202 450.97717,755.56615 451.09411,755.56205 C 451.20553,755.54929 451.29403,755.48157 451.38649,755.42367 C 451.48532,755.3636 451.57104,755.28695 451.65811,755.21193 C 451.71784,755.14877 451.78141,755.08954 451.84548,755.02965 C 451.92306,754.9905 451.96353,754.91854 452.01733,754.86036 C 452.1037,754.63853 452.22645,754.30776 451.84329,755.34339 C 451.75849,755.57259 452.00827,754.8833 452.09102,754.65334 C 451.42579,756.465 452.60867,753.25345 451.9429,755.05104 C 451.99644,754.75646 452.17239,754.4921 452.28158,754.2364 C 452.33118,754.18339 452.38132,754.13198 452.43092,754.07869 C 452.4711,754.01605 452.52072,753.9609 452.56671,753.9022 C 452.59361,753.87119 452.59597,753.82883 452.61036,753.79275 L 452.48289,754.44749 C 452.46166,754.48248 452.44942,754.52406 452.41867,754.55334 C 452.37194,754.61188 452.32565,754.67077 452.27866,754.72909 C 452.22813,754.78057 452.17627,754.831 452.13047,754.8869 C 452.17545,754.74671 452.30897,754.32578 452.25961,754.4645 C 451.47488,756.71614 452.72578,753.15064 451.96289,755.3094 C 452.413,754.05292 452.06097,755.11094 451.87493,755.51271 C 451.8131,755.56703 451.75285,755.62469 451.68904,755.6777 C 451.62673,755.73867 451.56294,755.79826 451.49906,755.85751 C 451.40773,755.93057 451.31658,756.00344 451.21687,756.0651 C 451.11406,756.12313 451.01797,756.18881 450.8952,756.19384 C 450.77605,756.19699 450.65674,756.20163 450.5374,756.1986 C 450.41271,756.19709 450.28793,756.19717 450.16336,756.19056 C 450.05987,756.17736 449.95654,756.16467 449.85449,756.14154 C 449.73527,756.12355 449.61638,756.10694 449.50045,756.07193 C 449.41075,756.05765 449.31918,756.04814 449.23401,756.01493 C 449.14193,755.98027 449.05051,755.94388 448.95784,755.9104 C 448.82319,755.84679 448.688,755.78468 448.56682,755.69648 C 448.472,755.63775 448.37469,755.58603 448.30634,755.49531 C 448.23651,755.41402 448.167,755.33217 448.0846,755.26279 C 448.01701,755.15638 447.94972,755.0527 447.91669,754.92751 C 447.86382,754.78462 447.81365,754.64005 447.74789,754.50244 L 448.03217,753.8971 z "
         id="path10089"
         style="fill:#008000;fill-opacity:1;fill-rule:nonzero;stroke:#1a0a0a;stroke-width:0.1;stroke-miterlimit:4;stroke-dasharray:none;stroke-dashoffset:0;stroke-opacity:0.96052629" />
      <path
         d="M 450.0628,751.81568 C 450.08462,751.9238 450.09085,752.03372 450.10003,752.14329 C 450.10613,752.24872 450.10638,752.35434 450.10754,752.45991 C 450.10808,752.55592 450.10753,752.65193 450.10718,752.74795 C 450.10708,752.84769 450.10725,752.94742 450.10736,753.04716 C 450.11559,753.16375 450.08152,753.27435 450.05597,753.38628 C 450.01893,753.48559 450.00725,753.59028 449.98967,753.6936 L 449.6862,754.28403 C 449.6976,754.17759 449.69872,754.06846 449.73947,753.96627 C 449.76902,753.85934 449.80686,753.75242 449.80523,753.64011 C 449.80537,753.53997 449.80555,753.43984 449.80561,753.3397 C 449.80544,753.24405 449.80518,753.1484 449.80565,753.05275 C 449.80553,752.94681 449.80621,752.84084 449.8024,752.73495 C 449.79564,752.62927 449.79325,752.52283 449.77029,752.41892 L 450.0628,751.81568 z "
         id="path10091"
         style="fill:#008000;fill-opacity:1;fill-rule:nonzero;stroke:#1a0a0a;stroke-width:0.1;stroke-miterlimit:4;stroke-dasharray:none;stroke-dashoffset:0;stroke-opacity:0.96052629" />
      <path
         d="M 447.39672,750.16884 C 447.56264,750.09613 447.73914,750.0467 447.90839,749.97804 C 448.08301,749.90872 448.27116,749.89911 448.45628,749.88524 C 448.59745,749.87694 448.73862,749.89829 448.87904,749.91179 C 448.98014,749.90609 449.0748,749.93613 449.17123,749.95752 C 449.20298,749.9735 449.23804,749.9804 449.27132,749.9918 L 449.04763,750.62135 C 449.01275,750.60934 448.97583,750.60242 448.94272,750.58522 C 448.8526,750.56375 448.76394,750.53577 448.66913,750.53875 C 448.53233,750.52486 448.39503,750.50408 448.2573,750.51028 C 448.07804,750.52341 447.89813,750.53588 447.72999,750.6064 C 447.56124,750.66942 447.37877,750.71379 447.23095,750.81858 L 447.39672,750.16884 z "
         id="path10093"
         style="fill:#008000;fill-opacity:1;fill-rule:nonzero;stroke:#1a0a0a;stroke-width:0.1;stroke-miterlimit:4;stroke-dasharray:none;stroke-dashoffset:0;stroke-opacity:0.96052629" />
      <path
         d="M 451.29636,750.06394 C 451.35848,749.94739 451.45618,749.90613 451.57147,749.85619 C 451.70451,749.79208 451.85013,749.77239 451.99457,749.75242 C 452.11669,749.72718 452.19458,749.77493 452.29634,749.82544 C 452.38092,749.89859 452.44957,749.98735 452.52165,750.07226 C 452.58371,750.14234 452.67193,750.1645 452.75483,750.19968 C 452.78126,750.20471 452.80434,750.21853 452.8291,750.22796 L 452.59588,750.85389 C 452.57212,750.84442 452.55094,750.82859 452.5246,750.82548 C 452.43236,750.78787 452.33688,750.75543 452.26288,750.68577 C 452.19429,750.60287 452.13045,750.51519 452.05034,750.4426 C 451.96445,750.4074 451.9023,750.35534 451.7976,750.38371 C 451.65914,750.40686 451.51998,750.42358 451.39354,750.49114 C 451.29464,750.55729 451.20473,750.59617 451.16644,750.72126 L 451.29636,750.06394 z "
         id="path10095"
         style="fill:#008000;fill-opacity:1;fill-rule:nonzero;stroke:#1a0a0a;stroke-width:0.1;stroke-miterlimit:4;stroke-dasharray:none;stroke-dashoffset:0;stroke-opacity:0.96052629" />
    </g>
    <path
       style="fill:#aa4400;fill-opacity:0.96078431;fill-rule:nonzero;stroke:#a30f0f;stroke-width:0;stroke-miterlimit:4;stroke-dasharray:none;stroke-dashoffset:0;stroke-opacity:0.96078431"
       d="M 755.875,705.46875 C 755.1674,705.462 754.45919,705.48624 753.75,705.5 C 741.56,707.29803 729.61993,710.17524 717.65625,713.1875 C 710.71021,716.50484 705.03726,719.43864 701.84375,726.9375 C 696.23599,742.21333 693.54708,749.58054 691.90625,754.125 C 690.13635,758.83313 688.95132,761.98443 686.34375,768.9375 C 683.74269,775.87321 700.0468,732.51489 693.90625,748.03125 C 691.47779,753.88287 689.04157,759.24694 683.4375,762.75 C 678.36963,766.03316 673.23162,769.30506 667.53125,771.40625 L 663.0625,787.6875 C 613.85279,801.54686 565.84234,835.3151 516.21875,811.375 C 486.75072,767.72164 421.92536,812.53031 379.28125,788.21875 C 325.30988,791.70595 270.91533,779.95294 219.03125,792.90625 C 114.27948,800.74877 7.856316,820.98777 -96.71875,798.75 C -151.56306,789.74393 -214.33992,765.16205 -266.125,795.59375 C -316.742,823.6717 -295.99781,894.57462 -294.75,941.96875 C -284.43603,988.05086 -315.13283,1065.5379 -278,1092.375 C 56.759981,1091.7339 391.48008,1090.936 726.25,1091.9063 C 926.51498,1089.3564 1126.8219,1091.7363 1327.0625,1091.625 C 1365.3423,1045.3827 1331.9442,965.96136 1341.1875,906.15625 C 1343.0712,850.28805 1351.3994,767.34414 1276.7813,757.21875 C 1262.0273,753.62135 1247.1062,750.08061 1232.0625,748.125 C 1179.5565,773.02501 1146.7041,844.71952 1078.9688,840.21875 C 1019.5133,837.99899 953.23759,850.51525 901.84375,812.6875 C 882.16872,799.10045 860.92597,791.30719 838.84375,786.9375 C 837.98509,784.67399 837.05518,782.44789 836,780.25 C 834.1707,776.16215 832.47553,771.97479 830.34375,768.03125 C 828.30031,764.13285 826.16044,760.30693 824.3125,756.3125 C 822.20918,751.85929 819.94704,747.46226 818.46875,742.75 C 816.4617,737.09891 814.60685,731.38964 811.9375,726 C 810.03064,722.13248 808.43462,718.08303 805.03125,715.25 C 799.39841,712.29306 794.00741,709.63092 787.375,709.5625 C 776.92141,707.90009 766.48893,705.56994 755.875,705.46875 z "
       id="path18013" />
  </g>
  <g font-family="Helvetica,Arial,sans-serif" font-size="72" text-anchor="middle">
    <g fill="#000000">
     <text transform="translate(1700,455)"><tspan x="-8ex" font-style="italic">&#945;</tspan></text>
     <text transform="translate(1580,580)"
      ><tspan x="-9.5ex" font-style="italic">&#945;</tspan><tspan x="-8ex">=</tspan
      ><tspan x="-4.5ex">arcsin</tspan><tspan x="0" dy="-1ex">1</tspan><tspan x="0">__</tspan
      ><tspan x="0" dy="2ex" font-style="italic">Ma</tspan></text>
    </g>
    <g fill="none" stroke="#000000" stroke-width="4">
     <path id="z" d="M 1400,400 h 200 L 1070,588 h 150" stroke-dasharray="16,8"/>
     <clipPath id="clip_angles"><use xlink:href="#z"/></clipPath>
     <g clip-path="url(#clip_angles)">
      <circle cx="1575" cy="410" r="100"/><circle cx="1075" cy="585" r="100"/>
      <circle cx="1575" cy="410" r="108"/><circle cx="1075" cy="585" r="108"/>
     </g>
    </g>
  </g>
</svg>
