<?xml version="1.0" encoding="UTF-8" standalone="no"?>
<!-- Created with Inkscape (http://www.inkscape.org/) -->
<svg
   xmlns:dc="http://purl.org/dc/elements/1.1/"
   xmlns:cc="http://creativecommons.org/ns#"
   xmlns:rdf="http://www.w3.org/1999/02/22-rdf-syntax-ns#"
   xmlns:svg="http://www.w3.org/2000/svg"
   xmlns="http://www.w3.org/2000/svg"
   xmlns:sodipodi="http://sodipodi.sourceforge.net/DTD/sodipodi-0.dtd"
   xmlns:inkscape="http://www.inkscape.org/namespaces/inkscape"
   width="1106.4021"
   height="402.57736"
   id="svg10004"
   sodipodi:version="0.32"
   inkscape:version="0.46"
   version="1.0"
   sodipodi:docname="Sound barrier.svg"
   inkscape:output_extension="org.inkscape.output.svg.inkscape">
  <defs
     id="defs10006" />
  <sodipodi:namedview
     id="base"
     pagecolor="#ffffff"
     bordercolor="#666666"
     borderopacity="1.0"
     gridtolerance="10000"
     guidetolerance="10"
     objecttolerance="10"
     inkscape:pageopacity="0.0"
     inkscape:pageshadow="2"
     inkscape:zoom="1"
     inkscape:cx="666.35132"
     inkscape:cy="81.905381"
     inkscape:document-units="px"
     inkscape:current-layer="layer1"
     showgrid="false"
     inkscape:window-width="1280"
     inkscape:window-height="968"
     inkscape:window-x="-4"
     inkscape:window-y="-4"
     showguides="true"
     inkscape:guide-bbox="true">
    <inkscape:grid
       type="xygrid"
       id="grid10543"
       visible="true"
       enabled="true" />
  </sodipodi:namedview>
  <metadata
     id="metadata10009">
    <rdf:RDF>
      <cc:Work
         rdf:about="">
        <dc:format>image/svg+xml</dc:format>
        <dc:type
           rdf:resource="http://purl.org/dc/dcmitype/StillImage" />
      </cc:Work>
    </rdf:RDF>
  </metadata>
  <g
     inkscape:label="Layer 1"
     inkscape:groupmode="layer"
     id="layer1"
     transform="translate(-355.90186,93.369858)">
    <g
       id="g10893">
      <g
         id="g10778">
        <path
           transform="matrix(25.13224,0,0,25.13224,-67145.09,-19701.327)"
           d="M 2725,787.36218 A 5,5 0 1 1 2715,787.36218 A 5,5 0 1 1 2725,787.36218 z"
           sodipodi:ry="5"
           sodipodi:rx="5"
           sodipodi:cy="787.36218"
           sodipodi:cx="2720"
           id="path10645"
           style="opacity:1;fill:#ff0000;fill-opacity:0.05098039;fill-rule:evenodd;stroke:#000000;stroke-width:0.05120291;stroke-linecap:round;stroke-linejoin:miter;stroke-miterlimit:4;stroke-dasharray:none;stroke-dashoffset:0;stroke-opacity:1"
           sodipodi:type="arc" />
        <path
           d="M 2725,787.36218 A 5,5 0 1 1 2715,787.36218 A 5,5 0 1 1 2725,787.36218 z"
           sodipodi:ry="5"
           sodipodi:rx="5"
           sodipodi:cy="787.36218"
           sodipodi:cx="2720"
           id="path10653"
           style="opacity:1;fill:#ff0000;fill-opacity:0.09803922;fill-rule:evenodd;stroke:#000000;stroke-width:0.064004;stroke-linecap:round;stroke-linejoin:miter;stroke-miterlimit:4;stroke-dasharray:none;stroke-dashoffset:0;stroke-opacity:1"
           sodipodi:type="arc"
           transform="matrix(20.105677,0,0,20.105677,-53428.855,-15743.601)" />
        <path
           d="M 2725,787.36218 A 5,5 0 1 1 2715,787.36218 A 5,5 0 1 1 2725,787.36218 z"
           sodipodi:ry="5"
           sodipodi:rx="5"
           sodipodi:cy="787.36218"
           sodipodi:cx="2720"
           id="path10651"
           style="opacity:1;fill:#ff0000;fill-opacity:0.19607843;fill-rule:evenodd;stroke:#000000;stroke-width:0.08533946;stroke-linecap:round;stroke-linejoin:miter;stroke-miterlimit:4;stroke-dasharray:none;stroke-dashoffset:0;stroke-opacity:1"
           sodipodi:type="arc"
           transform="matrix(15.079118,0,0,15.079118,-39712.634,-11785.878)" />
        <path
           d="M 2725,787.36218 A 5,5 0 1 1 2715,787.36218 A 5,5 0 1 1 2725,787.36218 z"
           sodipodi:ry="5"
           sodipodi:rx="5"
           sodipodi:cy="787.36218"
           sodipodi:cx="2720"
           id="path10649"
           style="opacity:1;fill:#ff0000;fill-opacity:0.39215686;fill-rule:evenodd;stroke:#000000;stroke-width:0.1280164;stroke-linecap:round;stroke-linejoin:miter;stroke-miterlimit:4;stroke-dasharray:none;stroke-dashoffset:0;stroke-opacity:1"
           sodipodi:type="arc"
           transform="matrix(10.05218,0,0,10.05218,-25995.381,-7827.8573)" />
        <path
           d="M 2725,787.36218 A 5,5 0 1 1 2715,787.36218 A 5,5 0 1 1 2725,787.36218 z"
           sodipodi:ry="5"
           sodipodi:rx="5"
           sodipodi:cy="787.36218"
           sodipodi:cx="2720"
           id="path10647"
           style="opacity:1;fill:#ff0000;fill-opacity:0.78431373;fill-rule:evenodd;stroke:#000000;stroke-width:0.25601569;stroke-linecap:round;stroke-linejoin:miter;stroke-miterlimit:4;stroke-dasharray:none;stroke-dashoffset:0;stroke-opacity:1"
           sodipodi:type="arc"
           transform="matrix(5.0264254,0,0,5.0264254,-12281.348,-3870.7686)" />
        <path
           id="path10676"
           style="opacity:1;fill:none;fill-rule:evenodd;stroke:#000000;stroke-width:1.28684378;stroke-linecap:butt;stroke-linejoin:miter;stroke-miterlimit:4;stroke-dasharray:none;stroke-opacity:1"
           d="M 1191.0067,256.52449 L 1434.4537,86.844614 L 1191.0067,-82.826942"
           sodipodi:nodetypes="ccc" />
        <path
           id="path10695"
           style="opacity:1;fill:#000000;fill-rule:evenodd;stroke:none;stroke-width:2;stroke-linecap:butt;stroke-linejoin:miter;stroke-miterlimit:4;stroke-dasharray:none;stroke-opacity:1"
           d="M 1418.2292,77.33488 L 1418.2292,96.362667 L 1431.8801,86.848774 L 1431.8801,86.848774 L 1418.2292,77.33488 z"
           sodipodi:nodetypes="ccccc" />
      </g>
      <g
         id="g10761">
        <path
           transform="matrix(25.13224,0,0,25.13224,-67850.281,-19701.327)"
           d="M 2725,787.36218 A 5,5 0 1 1 2715,787.36218 A 5,5 0 1 1 2725,787.36218 z"
           sodipodi:ry="5"
           sodipodi:rx="5"
           sodipodi:cy="787.36218"
           sodipodi:cx="2720"
           id="path10635"
           style="opacity:1;fill:#ff0000;fill-opacity:0.05098039;fill-rule:evenodd;stroke:#000000;stroke-width:0.05120291;stroke-linecap:round;stroke-linejoin:miter;stroke-miterlimit:4;stroke-dasharray:none;stroke-dashoffset:0;stroke-opacity:1"
           sodipodi:type="arc" />
        <path
           d="M 2725,787.36218 A 5,5 0 1 1 2715,787.36218 A 5,5 0 1 1 2725,787.36218 z"
           sodipodi:ry="5"
           sodipodi:rx="5"
           sodipodi:cy="787.36218"
           sodipodi:cx="2720"
           id="path10643"
           style="opacity:1;fill:#ff0000;fill-opacity:0.09803922;fill-rule:evenodd;stroke:#000000;stroke-width:0.064004;stroke-linecap:round;stroke-linejoin:miter;stroke-miterlimit:4;stroke-dasharray:none;stroke-dashoffset:0;stroke-opacity:1"
           sodipodi:type="arc"
           transform="matrix(20.105677,0,0,20.105677,-54165.461,-15743.601)" />
        <path
           d="M 2725,787.36218 A 5,5 0 1 1 2715,787.36218 A 5,5 0 1 1 2725,787.36218 z"
           sodipodi:ry="5"
           sodipodi:rx="5"
           sodipodi:cy="787.36218"
           sodipodi:cx="2720"
           id="path10641"
           style="opacity:1;fill:#ff0000;fill-opacity:0.19607843;fill-rule:evenodd;stroke:#000000;stroke-width:0.08533946;stroke-linecap:round;stroke-linejoin:miter;stroke-miterlimit:4;stroke-dasharray:none;stroke-dashoffset:0;stroke-opacity:1"
           sodipodi:type="arc"
           transform="matrix(15.079118,0,0,15.079118,-40480.658,-11785.878)" />
        <path
           d="M 2725,787.36218 A 5,5 0 1 1 2715,787.36218 A 5,5 0 1 1 2725,787.36218 z"
           sodipodi:ry="5"
           sodipodi:rx="5"
           sodipodi:cy="787.36218"
           sodipodi:cx="2720"
           id="path10639"
           style="opacity:1;fill:#ff0000;fill-opacity:0.39215686;fill-rule:evenodd;stroke:#000000;stroke-width:0.1280164;stroke-linecap:round;stroke-linejoin:miter;stroke-miterlimit:4;stroke-dasharray:none;stroke-dashoffset:0;stroke-opacity:1"
           sodipodi:type="arc"
           transform="matrix(10.05218,0,0,10.05218,-26794.821,-7827.8573)" />
        <path
           d="M 2725,787.36218 A 5,5 0 1 1 2715,787.36218 A 5,5 0 1 1 2725,787.36218 z"
           sodipodi:ry="5"
           sodipodi:rx="5"
           sodipodi:cy="787.36218"
           sodipodi:cx="2720"
           id="path10637"
           style="opacity:1;fill:#ff0000;fill-opacity:0.78431373;fill-rule:evenodd;stroke:#000000;stroke-width:0.25601569;stroke-linecap:round;stroke-linejoin:miter;stroke-miterlimit:4;stroke-dasharray:none;stroke-dashoffset:0;stroke-opacity:1"
           sodipodi:type="arc"
           transform="matrix(5.0264254,0,0,5.0264254,-13112.199,-3870.7686)" />
        <path
           id="path10706"
           style="opacity:1;fill:#000000;fill-rule:evenodd;stroke:none;stroke-width:2;stroke-linecap:butt;stroke-linejoin:miter;stroke-miterlimit:4;stroke-dasharray:none;stroke-opacity:1"
           d="M 562.42109,77.33488 L 562.42109,96.362667 L 576.07184,86.848774 L 576.07184,86.848774 L 562.42109,77.33488 z"
           sodipodi:nodetypes="ccccc" />
      </g>
      <g
         id="g10769">
        <path
           sodipodi:type="arc"
           style="opacity:1;fill:#ff0000;fill-opacity:0.05098039;fill-rule:evenodd;stroke:#000000;stroke-width:0.05120291;stroke-linecap:round;stroke-linejoin:miter;stroke-miterlimit:4;stroke-dasharray:none;stroke-dashoffset:0;stroke-opacity:1"
           id="path10545"
           sodipodi:cx="2720"
           sodipodi:cy="787.36218"
           sodipodi:rx="5"
           sodipodi:ry="5"
           d="M 2725,787.36218 A 5,5 0 1 1 2715,787.36218 A 5,5 0 1 1 2725,787.36218 z"
           transform="matrix(25.13224,0,0,25.13224,-67497.229,-19701.327)" />
        <path
           transform="matrix(20.105677,0,0,20.105677,-53799.837,-15743.601)"
           sodipodi:type="arc"
           style="opacity:1;fill:#ff0000;fill-opacity:0.09803922;fill-rule:evenodd;stroke:#000000;stroke-width:0.064004;stroke-linecap:round;stroke-linejoin:miter;stroke-miterlimit:4;stroke-dasharray:none;stroke-dashoffset:0;stroke-opacity:1"
           id="path10561"
           sodipodi:cx="2720"
           sodipodi:cy="787.36218"
           sodipodi:rx="5"
           sodipodi:ry="5"
           d="M 2725,787.36218 A 5,5 0 1 1 2715,787.36218 A 5,5 0 1 1 2725,787.36218 z" />
        <path
           transform="matrix(15.079118,0,0,15.079118,-40102.467,-11785.878)"
           sodipodi:type="arc"
           style="opacity:1;fill:#ff0000;fill-opacity:0.19607843;fill-rule:evenodd;stroke:#000000;stroke-width:0.08533946;stroke-linecap:round;stroke-linejoin:miter;stroke-miterlimit:4;stroke-dasharray:none;stroke-dashoffset:0;stroke-opacity:1"
           id="path10557"
           sodipodi:cx="2720"
           sodipodi:cy="787.36218"
           sodipodi:rx="5"
           sodipodi:ry="5"
           d="M 2725,787.36218 A 5,5 0 1 1 2715,787.36218 A 5,5 0 1 1 2725,787.36218 z" />
        <path
           transform="matrix(10.05218,0,0,10.05218,-26404.061,-7827.8573)"
           sodipodi:type="arc"
           style="opacity:1;fill:#ff0000;fill-opacity:0.39215686;fill-rule:evenodd;stroke:#000000;stroke-width:0.1280164;stroke-linecap:round;stroke-linejoin:miter;stroke-miterlimit:4;stroke-dasharray:none;stroke-dashoffset:0;stroke-opacity:1"
           id="path10553"
           sodipodi:cx="2720"
           sodipodi:cy="787.36218"
           sodipodi:rx="5"
           sodipodi:ry="5"
           d="M 2725,787.36218 A 5,5 0 1 1 2715,787.36218 A 5,5 0 1 1 2725,787.36218 z" />
        <path
           transform="matrix(5.0264254,0,0,5.0264254,-12708.879,-3870.7686)"
           sodipodi:type="arc"
           style="opacity:1;fill:#ff0000;fill-opacity:0.78431373;fill-rule:evenodd;stroke:#000000;stroke-width:0.25601569;stroke-linecap:round;stroke-linejoin:miter;stroke-miterlimit:4;stroke-dasharray:none;stroke-dashoffset:0;stroke-opacity:1"
           id="path10549"
           sodipodi:cx="2720"
           sodipodi:cy="787.36218"
           sodipodi:rx="5"
           sodipodi:ry="5"
           d="M 2725,787.36218 A 5,5 0 1 1 2715,787.36218 A 5,5 0 1 1 2725,787.36218 z" />
        <path
           id="path10704"
           style="opacity:1;fill:#000000;fill-rule:evenodd;stroke:none;stroke-width:2;stroke-linecap:butt;stroke-linejoin:miter;stroke-miterlimit:4;stroke-dasharray:none;stroke-opacity:1"
           d="M 974.48196,77.33488 L 974.48196,96.362667 L 988.13274,86.848774 L 988.13274,86.848774 L 974.48196,77.33488 z"
           sodipodi:nodetypes="ccccc" />
        <path
           style="opacity:1;fill:none;fill-rule:evenodd;stroke:#000000;stroke-width:1.28684378;stroke-linecap:butt;stroke-linejoin:miter;stroke-miterlimit:4;stroke-dasharray:none;stroke-opacity:1"
           d="M 988.13274,-38.336487 L 988.13274,212.03403"
           id="path10721"
           sodipodi:nodetypes="cc" />
      </g>
      <g
         transform="matrix(0.6434219,0,0,0.6434219,152.88827,231.48586)"
         id="g10743">
        <path
           sodipodi:type="arc"
           style="opacity:1;fill:#ffffff;fill-opacity:1;fill-rule:evenodd;stroke:#000000;stroke-width:5;stroke-linecap:round;stroke-linejoin:miter;stroke-miterlimit:4;stroke-dasharray:none;stroke-dashoffset:0;stroke-opacity:1"
           id="path10735"
           sodipodi:cx="457"
           sodipodi:cy="272.37329"
           sodipodi:rx="44"
           sodipodi:ry="44"
           d="M 501,272.37329 A 44,44 0 1 1 413,272.37329 A 44,44 0 1 1 501,272.37329 z"
           transform="matrix(0.6502483,0,0,0.6502483,256.94489,-101.93831)" />
        <path
           style="font-size:50.29193878px;font-style:normal;font-weight:normal;fill:#000000;fill-opacity:1;stroke:none;stroke-width:1px;stroke-linecap:butt;stroke-linejoin:miter;stroke-opacity:1;font-family:Bitstream Vera Sans"
           d="M 557.67187,92.171959 L 553.25168,92.171959 L 553.25168,64.005526 C 552.18755,65.02056 550.79192,66.035566 549.06478,67.050546 C 547.33763,68.065577 545.78647,68.826831 544.4113,69.334311 L 544.4113,65.061461 C 546.88333,63.899143 549.04431,62.491232 550.89425,60.837724 C 552.74417,59.184278 554.05385,57.579915 554.82331,56.024628 L 557.67187,56.024628 L 557.67187,92.171959 z"
           id="text10731" />
      </g>
      <g
         transform="matrix(0.6434219,0,0,0.6434219,152.88515,231.48586)"
         id="g10748">
        <path
           transform="matrix(0.6502483,0,0,0.6502483,805.65975,-101.93831)"
           d="M 501,272.37329 A 44,44 0 1 1 413,272.37329 A 44,44 0 1 1 501,272.37329 z"
           sodipodi:ry="44"
           sodipodi:rx="44"
           sodipodi:cy="272.37329"
           sodipodi:cx="457"
           id="path10737"
           style="opacity:1;fill:#ffffff;fill-opacity:1;fill-rule:evenodd;stroke:#000000;stroke-width:5;stroke-linecap:round;stroke-linejoin:miter;stroke-miterlimit:4;stroke-dasharray:none;stroke-dashoffset:0;stroke-opacity:1"
           sodipodi:type="arc" />
        <path
           style="font-size:50.29193878px;font-style:normal;font-weight:normal;fill:#000000;fill-opacity:1;stroke:none;stroke-width:1px;stroke-linecap:butt;stroke-linejoin:miter;stroke-opacity:1;font-family:Bitstream Vera Sans"
           d="M 1114.4185,88.923665 L 1114.4185,93.171959 L 1090.6231,93.171959 C 1090.5904,92.10784 1090.7622,91.084649 1091.1388,90.102383 C 1091.7445,88.481651 1092.7145,86.885473 1094.0487,85.313843 C 1095.383,83.74223 1097.3107,81.925042 1099.8318,79.862276 C 1103.7445,76.653562 1106.3884,74.111955 1107.7636,72.237448 C 1109.1388,70.362983 1109.8263,68.590816 1109.8264,66.920942 C 1109.8263,65.169265 1109.2002,63.691777 1107.9478,62.488474 C 1106.6954,61.285232 1105.0624,60.683595 1103.0487,60.683563 C 1100.9205,60.683595 1099.2179,61.322067 1097.941,62.598979 C 1096.664,63.875952 1096.0174,65.644026 1096.001,67.903206 L 1091.458,67.436631 C 1091.7691,64.047848 1092.9396,61.465313 1094.9696,59.68902 C 1096.9996,57.912794 1099.7254,57.024664 1103.147,57.024628 C 1106.6012,57.024664 1109.3352,57.982371 1111.3489,59.897751 C 1113.3625,61.813198 1114.3693,64.187002 1114.3693,67.019168 C 1114.3693,68.459848 1114.0746,69.875944 1113.4853,71.267462 C 1112.8959,72.659024 1111.9177,74.124234 1110.5508,75.663095 C 1109.1838,77.201992 1106.9123,79.313859 1103.7363,81.998701 C 1101.0842,84.225176 1099.3816,85.735406 1098.6286,86.529396 C 1097.8755,87.323399 1097.2534,88.121488 1096.7622,88.923665 L 1114.4185,88.923665 z"
           id="text10739" />
      </g>
      <g
         id="g10753"
         transform="matrix(0.6434219,0,0,0.6434219,505.0235,231.48586)">
        <path
           sodipodi:type="arc"
           style="opacity:1;fill:#ffffff;fill-opacity:1;fill-rule:evenodd;stroke:#000000;stroke-width:5;stroke-linecap:round;stroke-linejoin:miter;stroke-miterlimit:4;stroke-dasharray:none;stroke-dashoffset:0;stroke-opacity:1"
           id="path10755"
           sodipodi:cx="457"
           sodipodi:cy="272.37329"
           sodipodi:rx="44"
           sodipodi:ry="44"
           d="M 501,272.37329 A 44,44 0 1 1 413,272.37329 A 44,44 0 1 1 501,272.37329 z"
           transform="matrix(0.6502483,0,0,0.6502483,805.65975,-101.93831)" />
        <path
           style="font-size:50.29193878px;font-style:normal;font-weight:normal;fill:#000000;fill-opacity:1;stroke:none;stroke-width:1px;stroke-linecap:butt;stroke-linejoin:miter;stroke-opacity:1;font-family:Bitstream Vera Sans"
           d="M 1091.0989,83.668551 L 1095.5191,83.079192 C 1096.0266,85.583974 1096.8902,87.388883 1098.1098,88.493925 C 1099.3295,89.598976 1100.8151,90.151499 1102.5669,90.151496 C 1104.646,90.151499 1106.4018,89.431172 1107.8343,87.990514 C 1109.2667,86.549866 1109.9829,84.765421 1109.983,82.637173 C 1109.9829,80.607172 1109.3199,78.933232 1107.9939,77.615346 C 1106.6678,76.297491 1104.9816,75.638556 1102.9352,75.638539 C 1102.1003,75.638556 1101.0607,75.802267 1099.8165,76.129671 L 1100.3077,72.249727 C 1100.6023,72.28249 1100.8397,72.298861 1101.0198,72.29884 C 1102.9025,72.298861 1104.5969,71.807729 1106.103,70.825443 C 1107.6091,69.843202 1108.3622,68.328879 1108.3622,66.28247 C 1108.3622,64.661762 1107.8138,63.319336 1106.7169,62.255186 C 1105.6201,61.191098 1104.204,60.659039 1102.4686,60.659006 C 1100.7497,60.659039 1099.3172,61.199284 1098.1712,62.279743 C 1097.0252,63.360263 1096.2886,64.980998 1095.9611,67.141952 L 1091.5409,66.35614 C 1092.0812,63.393005 1093.309,61.096965 1095.2244,59.468011 C 1097.1398,57.839124 1099.5218,57.024664 1102.3704,57.024628 C 1104.3349,57.024664 1106.1439,57.446219 1107.7974,58.289293 C 1109.4509,59.132438 1110.7155,60.282505 1111.5914,61.739497 C 1112.4672,63.196553 1112.9052,64.743618 1112.9052,66.380697 C 1112.9052,67.935974 1112.4877,69.35207 1111.6528,70.62899 C 1110.8179,71.905955 1109.5819,72.920961 1107.9448,73.67401 C 1110.073,74.165161 1111.7265,75.18426 1112.9052,76.731308 C 1114.0839,78.278389 1114.6732,80.214267 1114.6733,82.538946 C 1114.6732,85.6822 1113.5273,88.34659 1111.2353,90.532123 C 1108.9434,92.717662 1106.0457,93.81043 1102.5423,93.810431 C 1099.3827,93.81043 1096.7592,92.869094 1094.6719,90.986421 C 1092.5846,89.103751 1091.3936,86.664464 1091.0989,83.668551 L 1091.0989,83.668551 z"
           id="text10757" />
      </g>
      <g
         id="g10852">
        <path
           sodipodi:type="arc"
           style="opacity:1;fill:#ffffff;fill-opacity:1;fill-rule:evenodd;stroke:#000000;stroke-width:5;stroke-linecap:round;stroke-linejoin:miter;stroke-miterlimit:4;stroke-dasharray:none;stroke-dashoffset:0;stroke-opacity:1"
           id="path10847"
           sodipodi:cx="457"
           sodipodi:cy="272.37329"
           sodipodi:rx="44"
           sodipodi:ry="44"
           d="M 501,272.37329 A 44,44 0 1 1 413,272.37329 A 44,44 0 1 1 501,272.37329 z"
           transform="matrix(0.418384,0,0,0.418384,863.67721,-156.50857)" />
        <path
           style="font-size:32.35893631px;font-style:normal;font-weight:normal;fill:#000000;fill-opacity:1;stroke:none;stroke-width:1px;stroke-linecap:butt;stroke-linejoin:miter;stroke-opacity:1;font-family:Bitstream Vera Sans"
           d="M 1055.1734,-30.970352 L 1055.1734,-36.516244 L 1045.1244,-36.516244 L 1045.1244,-39.123287 L 1055.6948,-54.133536 L 1058.0174,-54.133536 L 1058.0174,-39.123287 L 1061.1459,-39.123287 L 1061.1459,-36.516244 L 1058.0174,-36.516244 L 1058.0174,-30.970352 L 1055.1734,-30.970352 z M 1055.1734,-39.123287 L 1055.1734,-49.56726 L 1047.9211,-39.123287 L 1055.1734,-39.123287 z"
           id="text10849" />
      </g>
      <path
         sodipodi:nodetypes="cc"
         transform="translate(355.90186,-93.369858)"
         id="path10889"
         d="M 678.20711,64.041829 L 640.20711,88.395382"
         style="fill:none;fill-rule:evenodd;stroke:#000000;stroke-width:3;stroke-linecap:round;stroke-linejoin:miter;stroke-opacity:1;stroke-miterlimit:4;stroke-dasharray:none" />
      <path
         sodipodi:nodetypes="cc"
         transform="translate(355.90186,-93.369858)"
         id="path10891"
         d="M 722.29289,48.820004 L 844.03553,24.077363"
         style="fill:none;fill-rule:evenodd;stroke:#000000;stroke-width:3;stroke-linecap:round;stroke-linejoin:miter;stroke-opacity:1;stroke-miterlimit:4;stroke-dasharray:none" />
    </g>
  </g>
</svg>
