<?xml version="1.0" encoding="utf-8"?>
<!DOCTYPE svg PUBLIC "-//W3C//DTD SVG 1.1//EN" "http://www.w3.org/Graphics/SVG/1.1/DTD/svg11.dtd">
<svg version="1.1" xmlns="http://www.w3.org/2000/svg" xmlns:xlink="http://www.w3.org/1999/xlink" width="100%" height="100%" viewBox="-8 -360 600 600">
 <title>supersonic shockwave cone</title>
 <desc>Illustration of the conical shockwave behind a supersonic aircraft by CMG Lee, with its hyperbola-shaped ground contact zone in yellow.</desc>
 <defs>
  <filter id="filter_ground">
   <feTurbulence type="fractalNoise" baseFrequency="0.05 0.5"/>
   <feDiffuseLighting lighting-color="#99ff66">
    <feDistantLight elevation="60"/>
   </feDiffuseLighting>
   <feComposite operator="in" in2="SourceAlpha"/>
  </filter>
  <linearGradient id="grad_shade" x1="0%" x2="15%" y1="0%" y2="100%">
   <stop offset="10%" stop-color="#66ccff" stop-opacity="0.7"/>
   <stop offset="58%" stop-color="#66ccff" stop-opacity="0.1"/>
   <stop offset="99%" stop-color="#66ccff" stop-opacity="0.5"/>
  </linearGradient>
  <clipPath id="clip_circle">
   <path d="M -800,-100 V -400 H 800 V 400"/>
  </clipPath>
  <path id="arrow" d="M 0,0 H -22 m 7,-4 l -7,4 l 7,4" stroke="#ff6600" stroke-width="3" transform="rotate(-5)"/>
 </defs>
 <circle cx="0" cy="0" r="99999" fill="#ffffff"/>
 <g fill="#000000" stroke="none" stroke-linejoin="round" stroke-linecap="round">
  <g transform="rotate(-5) scale(0.7,1)" fill="none" stroke="#0066ff">
   <path d="M 205,51 l -220,30 l 581,187 l 220,-30 z" fill="#99cc99" filter="url(#filter_ground)"/>
   <path d="M 215,55 c -165,82 -12,95 530,165" stroke="#ffee00" fill="#99cccc" stroke-width="9"/>
   <use xlink:href="#arrow" x="195" y="58"/>
   <use xlink:href="#arrow" x="160" y="80"/>
   <use xlink:href="#arrow" x="145" y="103"/>
   <use xlink:href="#arrow" x="155" y="123"/>
   <use xlink:href="#arrow" x="342" y="171"/>
   <use xlink:href="#arrow" x="520" y="196"/>
   <use xlink:href="#arrow" x="690" y="218"/>
   <g transform="translate( 50,0)"><circle cx="0" cy="0" r="30"  clip-path="url(#clip_circle)"/></g>
   <g transform="translate(100,0)"><circle cx="0" cy="0" r="60"  clip-path="url(#clip_circle)"/></g>
   <g transform="translate(150,0)"><circle cx="0" cy="0" r="90"  clip-path="url(#clip_circle)"/></g>
   <g transform="translate(200,0)"><circle cx="0" cy="0" r="120" clip-path="url(#clip_circle)"/></g>
   <g transform="translate(250,0)"><circle cx="0" cy="0" r="150" clip-path="url(#clip_circle)"/></g>
   <g transform="translate(300,0)"><circle cx="0" cy="0" r="180" clip-path="url(#clip_circle)"/></g>
   <g transform="translate(350,0)"><circle cx="0" cy="0" r="210" clip-path="url(#clip_circle)"/></g>
   <g transform="translate(400,0)"><circle cx="0" cy="0" r="240" clip-path="url(#clip_circle)"/></g>
   <g transform="translate(450,0)"><circle cx="0" cy="0" r="270" clip-path="url(#clip_circle)"/></g>
   <g transform="translate(500,0)"><circle cx="0" cy="0" r="300" clip-path="url(#clip_circle)"/></g>
   <path d="M 320,-240 L 0,0 L 164,123"/>
   <path d="M 0,0 L 164,123 Q 195,155 745,220 A 313,313 0 0 0 340,-255 Z" fill="url(#grad_shade)" stroke="none"/>
  </g>
  <path d="M 24,-9 h -2 c -7,9 -9,0 -17,7 c -22,6 40,4 18,0"/>
 </g>
</svg>
