<?xml version="1.0" encoding="UTF-8" standalone="no"?>
<!-- Created with Inkscape (http://www.inkscape.org/) -->
<svg
   xmlns:dc="http://purl.org/dc/elements/1.1/"
   xmlns:cc="http://creativecommons.org/ns#"
   xmlns:rdf="http://www.w3.org/1999/02/22-rdf-syntax-ns#"
   xmlns:svg="http://www.w3.org/2000/svg"
   xmlns="http://www.w3.org/2000/svg"
   xmlns:sodipodi="http://sodipodi.sourceforge.net/DTD/sodipodi-0.dtd"
   xmlns:inkscape="http://www.inkscape.org/namespaces/inkscape"
   width="600"
   height="600"
   id="svg4010"
   sodipodi:version="0.32"
   inkscape:version="0.46"
   version="1.0"
   sodipodi:docname="Cutcircle2.svg"
   inkscape:output_extension="org.inkscape.output.svg.inkscape">
  <defs
     id="defs4012">
    <inkscape:perspective
       sodipodi:type="inkscape:persp3d"
       inkscape:vp_x="0 : 526.18109 : 1"
       inkscape:vp_y="0 : 1000 : 0"
       inkscape:vp_z="744.09448 : 526.18109 : 1"
       inkscape:persp3d-origin="372.04724 : 350.78739 : 1"
       id="perspective4018" />
    <inkscape:perspective
       id="perspective4027"
       inkscape:persp3d-origin="372.04724 : 350.78739 : 1"
       inkscape:vp_z="744.09448 : 526.18109 : 1"
       inkscape:vp_y="0 : 1000 : 0"
       inkscape:vp_x="0 : 526.18109 : 1"
       sodipodi:type="inkscape:persp3d" />
  </defs>
  <sodipodi:namedview
     id="base"
     pagecolor="#ffffff"
     bordercolor="#666666"
     borderopacity="1.0"
     gridtolerance="10000"
     guidetolerance="10"
     objecttolerance="10"
     inkscape:pageopacity="0.0"
     inkscape:pageshadow="2"
     inkscape:zoom="1"
     inkscape:cx="237.14446"
     inkscape:cy="368.39306"
     inkscape:document-units="px"
     inkscape:current-layer="layer1"
     showgrid="false"
     inkscape:window-width="1280"
     inkscape:window-height="968"
     inkscape:window-x="-4"
     inkscape:window-y="-4" />
  <metadata
     id="metadata4015">
    <rdf:RDF>
      <cc:Work
         rdf:about="">
        <dc:format>image/svg+xml</dc:format>
        <dc:type
           rdf:resource="http://purl.org/dc/dcmitype/StillImage" />
      </cc:Work>
    </rdf:RDF>
  </metadata>
  <g
     inkscape:label="Layer 1"
     inkscape:groupmode="layer"
     id="layer1"
     transform="translate(-36.142853,-185.64789)">
    <path
       transform="translate(5.3140693,3.5427128)"
       d="M 185.68141,227.44633 L 187.24832,226.54808 L 188.8207,225.65945 L 190.39851,224.78049 L 191.98169,223.91123 L 193.57016,223.0517 L 195.16389,222.20194 L 196.76279,221.36196 L 198.36682,220.53182 L 199.97591,219.71153 L 201.59001,218.90113 L 203.20905,218.10065 L 204.83296,217.31012 L 206.4617,216.52957 L 208.0952,215.75902 L 209.7334,214.99852 L 211.37623,214.24808 L 213.02363,213.50773 L 214.67555,212.77751 L 216.33191,212.05743 L 217.99266,211.34754 L 219.65774,210.64784 L 221.32708,209.95838 L 223.00062,209.27917 L 224.67829,208.61024 L 226.36004,207.95162 L 228.04579,207.30334 L 229.7355,206.6654 L 231.42908,206.03785 L 233.12649,205.4207 L 234.82764,204.81398 L 236.53249,204.21771 L 238.24097,203.63191 L 239.95301,203.0566 L 241.66854,202.49181 L 243.38751,201.93755 L 245.10985,201.39386 L 246.83549,200.86074 L 248.56437,200.33822 L 250.29642,199.82632 L 252.03158,199.32505 L 253.76979,198.83444 L 255.51097,198.35451 L 257.25507,197.88527 L 259.00201,197.42674 L 260.75173,196.97894 L 262.50416,196.54188 L 264.25925,196.11558 L 266.01692,195.70006 L 267.7771,195.29533 L 269.53973,194.90141 L 271.30475,194.51832 L 273.07209,194.14606 L 274.84167,193.78465 L 276.61344,193.4341 L 278.38733,193.09444 L 280.16327,192.76566 L 281.94119,192.44779 L 283.72103,192.14083 L 285.50272,191.8448 L 287.2862,191.55971 L 289.07138,191.28557 L 290.85822,191.02238 L 292.64664,190.77017 L 294.43657,190.52893 L 296.22795,190.29868 L 298.02071,190.07942 L 299.81478,189.87117 L 301.61009,189.67394 L 303.40658,189.48772 L 305.20418,189.31253 L 307.00282,189.14837 L 308.80243,188.99525 L 310.60295,188.85317 L 312.4043,188.72215 L 314.20643,188.60218 L 316.00926,188.49327 L 317.81272,188.39543 L 319.61675,188.30865 L 321.42128,188.23294 L 323.22624,188.16831 L 325.03156,188.11476 L 326.83717,188.07228 L 328.64302,188.04088 L 330.44902,188.02056 L 332.25511,188.01133 L 334.06122,188.01317 L 335.86729,188.0261 L 337.67325,188.05011 L 339.47902,188.08521 L 341.28455,188.13138 L 343.08975,188.18862 L 344.89458,188.25695 L 346.69895,188.33635 L 348.50279,188.42681 L 350.30605,188.52834 L 352.10866,188.64094 L 353.91053,188.7646 L 355.71162,188.8993 L 357.51184,189.04506 L 359.31114,189.20186 L 361.10944,189.3697 L 362.90667,189.54857 L 364.70278,189.73846 L 366.49768,189.93937 L 368.29132,190.15129 L 370.08363,190.37421 L 371.87453,190.60812 L 373.66397,190.85302 L 375.45187,191.10889 L 377.23816,191.37573 L 379.02278,191.65353 L 380.80567,191.94227 L 382.58675,192.24194 L 384.36596,192.55254 L 386.14323,192.87404 L 387.91849,193.20645 L 389.69168,193.54974 L 391.46273,193.90391 L 393.23157,194.26894 L 394.99814,194.64481 L 396.76237,195.03152 L 398.5242,195.42904 L 400.28355,195.83737 L 402.04037,196.25648 L 403.79458,196.68637 L 405.54611,197.12701 L 407.29492,197.57839 L 409.04091,198.0405 L 410.78405,198.5133 L 412.52424,198.9968 L 414.26144,199.49096 L 415.99557,199.99577 L 417.72658,200.51121 L 419.45438,201.03727 L 421.17893,201.57392 L 422.90015,202.12113 L 424.61798,202.6789 L 426.33236,203.2472 L 428.04322,203.82601 L 429.75049,204.4153 L 431.45412,205.01506 L 433.15403,205.62526 L 434.85017,206.24588 L 436.54247,206.8769 L 438.23086,207.51828 L 439.91529,208.17002 L 441.59568,208.83208 L 443.27199,209.50443 L 444.94413,210.18706 L 446.61206,210.87994 L 448.2757,211.58304 L 449.935,212.29633 L 451.58989,213.01979 L 453.2403,213.75339 L 454.88619,214.4971 L 456.52748,215.2509 L 458.16412,216.01476 L 459.79604,216.78864 L 461.42318,217.57252 L 463.04547,218.36637 L 464.66287,219.17016 L 466.27531,219.98386 L 467.88272,220.80744 L 469.48505,221.64086 L 471.08223,222.48411 L 472.67421,223.33713 L 474.26093,224.19991 L 475.84232,225.07241 L 477.41833,225.95459 L 478.98889,226.84643 L 480.55396,227.74788 L 482.11346,228.65893 L 483.66734,229.57952 L 485.21555,230.50964 L 486.75802,231.44923 L 488.2947,232.39827 L 489.82552,233.35672 L 491.35043,234.32455 L 492.86938,235.30172 L 494.3823,236.28818 L 495.88914,237.28392 L 497.38985,238.28888 L 498.88436,239.30302 L 500.37261,240.32632 L 501.85456,241.35874 L 503.33015,242.40022 L 504.79932,243.45074 L 506.26202,244.51026 L 507.71819,245.57873 L 509.16777,246.65611 L 510.61072,247.74237 L 512.04697,248.83746 L 513.47648,249.94134 L 514.89918,251.05398 L 516.31504,252.17532 L 517.72398,253.30533 L 519.12597,254.44397 L 520.52094,255.59118 L 521.90885,256.74693 L 523.28964,257.91118 L 524.66326,259.08388 L 526.02966,260.26498 L 527.38879,261.45444 L 528.74059,262.65223 L 530.08502,263.85828 L 531.42202,265.07256 L 532.75155,266.29502 L 534.07355,267.52562 L 535.38797,268.7643 L 536.69477,270.01103 L 537.9939,271.26575 L 539.2853,272.52842 L 540.56893,273.79899 L 541.84474,275.07741 L 543.11268,276.36364 L 544.3727,277.65762 L 545.62477,278.95931 L 546.86882,280.26866 L 548.10481,281.58561 L 549.3327,282.91013 L 550.55244,284.24215 L 551.76398,285.58163 L 552.96729,286.92852 L 554.1623,288.28277 L 555.34898,289.64433 L 556.52729,291.01314 L 557.69718,292.38916 L 558.8586,293.77233 L 560.01151,295.1626 L 561.15587,296.55991 L 562.29163,297.96422 L 563.41875,299.37548 L 564.5372,300.79362 L 565.64692,302.2186 L 566.74788,303.65037 L 567.84003,305.08886 L 568.92334,306.53402 L 569.99775,307.98581 L 571.06324,309.44416 L 572.11976,310.90902 L 573.16728,312.38033 L 574.20574,313.85805 L 575.23512,315.34211 L 576.25537,316.83245 L 577.26646,318.32903 L 578.26835,319.83179 L 579.261,321.34066 L 580.24437,322.8556 L 581.21843,324.37654 L 582.18313,325.90343 L 583.13845,327.43621 L 584.08435,328.97483 L 585.02079,330.51921 L 585.94773,332.06932 L 586.86515,333.62508 L 587.773,335.18645 L 588.67125,336.75335 L 589.55988,338.32574 L 590.43884,339.90355 L 591.3081,341.48672 L 592.16763,343.0752 L 593.01739,344.66892 L 593.85737,346.26783 L 594.68751,347.87186 L 595.5078,349.48095 L 596.3182,351.09504 L 597.11868,352.71408 L 597.90921,354.338 L 598.68976,355.96674 L 599.46031,357.60024 L 600.22081,359.23843 L 600.97125,360.88126 L 601.7116,362.52867 L 602.44182,364.18058 L 603.1619,365.83695 L 603.87179,367.4977 L 604.57149,369.16278 L 605.26095,370.83212 L 605.94016,372.50565 L 606.60909,374.18333 L 607.2677,375.86507 L 607.91599,377.55083 L 608.55393,379.24053 L 609.18148,380.93412 L 609.79863,382.63152 L 610.40535,384.33268 L 611.00162,386.03753 L 611.58742,387.746 L 612.16273,389.45804 L 612.72752,391.17358 L 613.28178,392.89255 L 613.82547,394.61488 L 614.35859,396.34052 L 614.88111,398.0694 L 615.39301,399.80146 L 615.89428,401.53662 L 616.38489,403.27482 L 616.86482,405.01601 L 617.33406,406.7601 L 617.79259,408.50704 L 618.24039,410.25676 L 618.67745,412.0092 L 619.10375,413.76428 L 619.51927,415.52195 L 619.924,417.28214 L 620.31792,419.04477 L 620.70101,420.80979 L 621.07327,422.57712 L 621.43468,424.34671 L 621.78523,426.11848 L 622.12489,427.89237 L 622.45367,429.66831 L 622.77154,431.44623 L 623.0785,433.22607 L 623.37453,435.00776 L 623.65962,436.79123 L 623.93376,438.57642 L 624.19695,440.36326 L 624.44916,442.15167 L 624.6904,443.94161 L 624.92065,445.73299 L 625.13991,447.52574 L 625.34816,449.31981 L 625.54539,451.11512 L 625.73161,452.91161 L 625.9068,454.70921 L 626.07096,456.50785 L 626.22408,458.30746 L 626.36616,460.10798 L 626.49718,461.90934 L 626.61715,463.71147 L 626.72606,465.51429 L 626.8239,467.31776 L 626.91068,469.12179 L 626.98639,470.92631 L 627.05102,472.73127 L 627.10457,474.53659 L 627.14705,476.34221 L 627.17845,478.14805 L 627.19877,479.95405 L 627.208,481.76014 L 627.20616,483.56626 L 627.19323,485.37233 L 627.16922,487.17828 L 627.13412,488.98406 L 627.08795,490.78958 L 627.03071,492.59479 L 626.96238,494.39961 L 626.88298,496.20398 L 626.79252,498.00783 L 626.69098,499.81109 L 626.57839,501.61369 L 626.45473,503.41557 L 626.32003,505.21665 L 626.17427,507.01688 L 626.01747,508.81617 L 625.84963,510.61447 L 625.67076,512.41171 L 625.48087,514.20781 L 625.27996,516.00272 L 625.06804,517.79636 L 624.84512,519.58866 L 624.61121,521.37957 L 624.36631,523.169 L 624.11044,524.9569 L 623.8436,526.7432 L 623.5658,528.52782 L 623.27706,530.31071 L 622.97739,532.09179 L 622.66679,533.87099 L 622.34529,535.64826 L 622.01288,537.42353 L 621.66959,539.19672 L 621.31542,540.96777 L 620.95039,542.73661 L 620.57452,544.50318 L 620.18781,546.26741 L 619.79029,548.02923 L 619.38196,549.78859 L 618.96285,551.5454 L 618.53296,553.29961 L 618.09232,555.05115 L 617.64094,556.79995 L 617.17883,558.54595 L 616.70603,560.28908 L 616.22253,562.02928 L 615.72837,563.76648 L 615.22356,565.50061 L 614.70812,567.23161 L 614.18206,568.95942 L 613.64541,570.68397 L 613.0982,572.40519 L 612.54043,574.12302 L 611.97213,575.8374 L 611.39332,577.54825 L 610.80403,579.25553 L 610.20427,580.95915 L 609.59407,582.65907 L 608.97345,584.35521 L 608.34243,586.0475 L 607.70105,587.7359 L 607.04931,589.42032 L 606.38725,591.10072 L 605.7149,592.77702 L 605.03227,594.44917 L 604.33939,596.11709 L 603.63629,597.78073 L 602.923,599.44003 L 602.19954,601.09492 L 601.46594,602.74534 L 600.72223,604.39123 L 599.96843,606.03252 L 599.20457,607.66915 L 598.43069,609.30107 L 597.64681,610.92821 L 596.85296,612.55051 L 596.04917,614.16791 L 595.23547,615.78034 L 594.41189,617.38775 L 593.57847,618.99008 L 592.73522,620.58726 L 591.8822,622.17924 L 591.01942,623.76596 L 590.14692,625.34735 L 589.26474,626.92336 L 588.3729,628.49393 L 587.47145,630.05899 L 586.5604,631.6185 L 585.63981,633.17238 L 584.70969,634.72059 L 583.7701,636.26306 L 582.82106,637.79973 L 581.86261,639.33056 L 580.89478,640.85547 L 579.91761,642.37442 L 578.93115,643.88734 L 577.93541,645.39418 L 576.93045,646.89488 L 575.91631,648.38939 L 574.89301,649.87765 L 573.86059,651.3596 L 572.81911,652.83519 L 571.76859,654.30436 L 570.70907,655.76705 L 569.6406,657.22322 L 568.56322,658.67281 L 567.47696,660.11575 L 566.38187,661.55201 L 565.27799,662.98151 L 564.16535,664.40422 L 563.04401,665.82007 L 561.914,667.22902 L 560.77536,668.63101 L 559.62815,670.02598 L 558.4724,671.41389 L 557.30815,672.79468 L 556.13545,674.1683 L 554.95435,675.5347 L 553.76489,676.89382 L 552.5671,678.24563 L 551.36105,679.59005 L 550.14677,680.92706 L 548.92431,682.25658 L 547.69371,683.57858 L 546.45503,684.89301 L 545.2083,686.19981 L 543.95358,687.49893 L 542.69091,688.79033 L 541.42034,690.07396 L 540.14192,691.34977 L 538.85569,692.61771 L 537.56171,693.87774 L 536.26002,695.1298 L 534.95067,696.37385 L 533.63372,697.60985 L 532.3092,698.83774 L 530.97718,700.05748 L 529.6377,701.26902 L 528.29081,702.47232 L 526.93656,703.66734 L 525.575,704.85402 L 524.20619,706.03233 L 522.83017,707.20221 L 521.447,708.36363 L 520.05673,709.51654 L 518.65942,710.6609 L 517.25511,711.79666 L 515.84385,712.92379 L 514.42571,714.04223 L 513.00073,715.15196 L 511.56896,716.25292 L 510.13047,717.34507 L 508.68531,718.42837 L 507.23352,719.50279 L 505.77517,720.56828 L 504.31031,721.6248 L 502.839,722.67231 L 501.36128,723.71078 L 499.87722,724.74016 L 498.38688,725.76041 L 496.8903,726.7715 L 495.38754,727.77339 L 493.87867,728.76604 L 492.36373,729.74941 L 490.84279,730.72346 L 489.3159,731.68817 L 487.78312,732.64349 L 486.2445,733.58939 L 484.70012,734.52582 L 483.15001,735.45277 L 481.59425,736.37018 L 480.03288,737.27803 L 478.46598,738.17629 L 476.89359,739.06491 L 475.31578,739.94387 L 473.73261,740.81313 L 472.14413,741.67266 L 470.55041,742.52243 L 468.9515,743.3624 L 467.34747,744.19255 L 465.73838,745.01284 L 464.12429,745.82324 L 462.50525,746.62372 L 460.88133,747.41425 L 459.25259,748.1948 L 457.61909,748.96534 L 455.9809,749.72585 L 454.33807,750.47629 L 452.69066,751.21664 L 451.03875,751.94686 L 449.38238,752.66693 L 447.72163,753.37683 L 446.05655,754.07652 L 444.38721,754.76599 L 442.71368,755.44519 L 441.036,756.11412 L 439.35426,756.77274 L 437.6685,757.42103 L 435.9788,758.05896 L 434.28521,758.68651 L 432.58781,759.30366 L 430.88665,759.91039 L 429.1818,760.50666 L 427.47333,761.09246 L 425.76129,761.66777 L 424.04575,762.23256 L 422.32678,762.78681 L 420.60445,763.33051 L 418.8788,763.86363 L 417.14993,764.38615 L 415.41787,764.89805 L 413.68271,765.39931 L 411.94451,765.88992 L 410.20332,766.36985 L 408.45923,766.8391 L 406.71229,767.29763 L 404.96257,767.74543 L 403.21013,768.18249 L 401.45505,768.60878 L 399.69738,769.0243 L 397.93719,769.42903 L 396.17456,769.82295 L 394.40954,770.20605 L 392.64221,770.57831 L 390.87262,770.93972 L 389.10085,771.29026 L 387.32696,771.62993 L 385.55102,771.9587 L 383.7731,772.27657 L 381.99326,772.58353 L 380.21157,772.87956 L 378.4281,773.16465 L 376.64291,773.4388 L 374.85607,773.70198 L 373.06766,773.9542 L 371.27772,774.19544 L 369.48634,774.42569 L 367.69359,774.64494 L 365.89952,774.85319 L 364.10421,775.05043 L 362.30772,775.23665 L 360.51012,775.41184 L 358.71148,775.576 L 356.91186,775.72912 L 355.11135,775.87119 L 353.30999,776.00222 L 351.50786,776.12219 L 349.70504,776.23109 L 347.90157,776.32894 L 346.09754,776.41572 L 344.29302,776.49142 L 342.48806,776.55605 L 340.68274,776.60961 L 338.87712,776.65209 L 337.07128,776.68349 L 335.26528,776.7038 L 333.45919,776.71304 L 331.65307,776.71119 L 329.847,776.69826 L 328.04105,776.67425 L 326.23527,776.63916 L 324.42975,776.59299 L 322.62454,776.53574 L 320.81972,776.46742 L 319.01535,776.38802 L 317.2115,776.29755 L 315.40824,776.19602 L 313.60564,776.08342 L 311.80376,775.95977 L 310.00268,775.82506 L 308.20245,775.67931 L 306.40316,775.52251 L 304.60486,775.35467 L 302.80762,775.1758 L 301.01152,774.98591 L 299.21661,774.785 L 297.42297,774.57308 L 295.63067,774.35016 L 293.83976,774.11624 L 292.05033,773.87135 L 290.26243,773.61547 L 288.47613,773.34863 L 286.69151,773.07084 L 284.90862,772.7821 L 283.12754,772.48242 L 281.34834,772.17183 L 279.57107,771.85032 L 277.7958,771.51791 L 276.02261,771.17462 L 274.25156,770.82045 L 272.48272,770.45543 L 270.71615,770.07955 L 268.95192,769.69285 L 267.19009,769.29532 L 265.43074,768.887 L 263.67393,768.46788 L 261.91972,768.03799 L 260.16818,767.59735 L 258.41938,767.14597 L 256.67338,766.68387 L 254.93025,766.21106 L 253.19005,765.72757 L 251.45285,765.23341 L 249.71872,764.72859 L 247.98772,764.21315 L 246.25991,763.6871 L 244.53536,763.15045 L 242.81414,762.60323 L 241.09631,762.04546 L 239.38193,761.47716 L 237.67108,760.89836 L 235.9638,760.30906 L 234.26018,759.7093 L 232.56026,759.0991 L 230.86412,758.47848 L 229.17183,757.84747 L 227.48343,757.20608 L 225.79901,756.55435 L 224.11861,755.89229 L 222.44231,755.21993 L 220.77016,754.5373 L 219.10224,753.84443 L 217.43859,753.14133 L 215.7793,752.42804 L 214.12441,751.70458 L 212.47399,750.97098 L 210.8281,750.22726 L 209.18681,749.47346 L 207.55018,748.70961 L 205.91826,747.93573 L 204.29112,747.15184 L 202.66882,746.35799 L 201.05142,745.5542 L 199.43899,744.7405 L 197.83158,743.91693 L 196.22925,743.0835 L 194.63206,742.24026 L 193.04009,741.38723 L 191.45337,740.52446 L 189.87198,739.65196 L 188.29597,738.76978 L 186.7254,737.87794 L 185.16034,736.97648 L 183.60083,736.06544 L 182.04695,735.14484 L 180.49874,734.21473 L 178.95627,733.27513 L 177.4196,732.32609 L 175.88877,731.36764 L 174.36386,730.39981 L 172.84491,729.42265 L 171.33199,728.43618 L 169.82515,727.44045 L 168.32445,726.43549 L 166.82994,725.42134 L 165.34168,724.39804 L 163.85973,723.36563 L 162.38414,722.32414 L 160.91497,721.27362 L 159.45228,720.21411 L 157.99611,719.14564 L 156.54652,718.06826 L 155.10358,716.982 L 153.66732,715.8869 L 152.23782,714.78302 L 150.81511,713.67039 L 149.39926,712.54904 L 147.99031,711.41903 L 146.58832,710.2804 L 145.19335,709.13319 L 143.80544,707.97743 L 142.42465,706.81319 L 141.05103,705.64049 L 139.68463,704.45939 L 138.32551,703.26992 L 136.9737,702.07214 L 135.62928,700.86608 L 134.29227,699.6518 L 132.96275,698.42934 L 131.64075,697.19875 L 130.32632,695.96006 L 129.01952,694.71333 L 127.7204,693.45861 L 126.429,692.19594 L 125.14537,690.92537 L 123.86956,689.64695 L 122.60162,688.36073 L 121.34159,687.06674 L 120.08953,685.76506 L 118.84548,684.45571 L 117.60948,683.13875 L 116.38159,681.81424 L 115.16185,680.48222 L 113.95031,679.14273 L 112.74701,677.79584 L 111.55199,676.44159 L 110.36531,675.08004 L 109.187,673.71122 L 108.01712,672.33521 L 106.8557,670.95204 L 105.70279,669.56177 L 104.55843,668.16445 L 103.42267,666.76014 L 102.29554,665.34889 L 101.17709,663.93074 L 100.06737,662.50576 L 98.966414,661.074 L 97.874262,659.63551 L 96.790957,658.19034 L 95.71654,656.73856 L 94.65105,655.28021 L 93.59453,653.81535 L 92.547017,652.34403 L 91.508551,650.86632 L 90.479173,649.38226 L 89.45892,647.89191 L 88.44783,646.39533 L 87.445943,644.89258 L 86.453295,643.3837 L 85.469924,641.86877 L 84.495867,640.34782 L 83.53116,638.82093 L 82.575841,637.28815 L 81.629945,635.74954 L 80.693507,634.20515 L 79.766563,632.65505 L 78.849147,631.09928 L 77.941295,629.53792 L 77.043041,627.97101 L 76.154417,626.39863 L 75.275459,624.82082 L 74.406198,623.23764 L 73.546668,621.64917 L 72.6969,620.05544 L 71.856928,618.45654 L 71.026782,616.85251 L 70.206493,615.24342 L 69.396094,613.62932 L 68.595613,612.01028 L 67.805082,610.38637 L 67.02453,608.75763 L 66.253986,607.12413 L 65.49348,605.48593 L 64.74304,603.8431 L 64.002694,602.1957 L 63.272471,600.54378 L 62.552397,598.88742 L 61.8425,597.22667 L 61.142807,595.56159 L 60.453343,593.89225 L 59.774135,592.21871 L 59.105209,590.54104 L 58.446589,588.85929 L 57.798301,587.17354 L 57.160369,585.48383 L 56.532816,583.79025 L 55.915667,582.09284 L 55.308944,580.39169 L 54.712671,578.68684 L 54.12687,576.97836 L 53.551564,575.26632 L 52.986772,573.55079 L 52.432518,571.83182 L 51.888822,570.10948 L 51.355703,568.38384 L 50.833184,566.65496 L 50.321282,564.92291 L 49.820017,563.18775 L 49.329409,561.44954 L 48.849476,559.70836 L 48.380235,557.96426 L 47.921704,556.21732 L 47.473902,554.4676 L 47.036843,552.71517 L 46.610546,550.96008 L 46.195026,549.20241 L 45.790298,547.44223 L 45.396378,545.6796 L 45.013281,543.91458 L 44.641022,542.14724 L 44.279613,540.37766 L 43.929069,538.60589 L 43.589403,536.832 L 43.260628,535.05606 L 42.942756,533.27814 L 42.635799,531.4983 L 42.339769,529.71661 L 42.054677,527.93313 L 41.780533,526.14795 L 41.517348,524.36111 L 41.265132,522.57269 L 41.023894,520.78276 L 40.793643,518.99138 L 40.574389,517.19862 L 40.366139,515.40455 L 40.1689,513.60924 L 39.982682,511.81275 L 39.80749,510.01515 L 39.643331,508.21651 L 39.490211,506.4169 L 39.348137,504.61638 L 39.217113,502.81503 L 39.097144,501.0129 L 38.988236,499.21007 L 38.890391,497.40661 L 38.803614,495.60258 L 38.727908,493.79805 L 38.663276,491.99309 L 38.60972,490.18777 L 38.567242,488.38216 L 38.535844,486.57631 L 38.515527,484.77031 L 38.506292,482.96422 L 38.508139,481.15811 L 38.521068,479.35204 L 38.545079,477.54608 L 38.58017,475.74031 L 38.626341,473.93478 L 38.683589,472.12958 L 38.751913,470.32475 L 38.83131,468.52038 L 38.921776,466.71654 L 39.02331,464.91328 L 39.135905,463.11067 L 39.25956,461.3088 L 39.394268,459.50771 L 39.540024,457.70749 L 39.696824,455.90819 L 39.864662,454.10989 L 40.04353,452.31266 L 40.233423,450.51655 L 40.434332,448.72165 L 40.646251,446.92801 L 40.869172,445.1357 L 41.103086,443.3448 L 41.347985,441.55536 L 41.603858,439.76746 L 41.870697,437.98117 L 42.148492,436.19655 L 42.437231,434.41366 L 42.736905,432.63258 L 43.047501,430.85337 L 43.369009,429.0761 L 43.701416,427.30084 L 44.044709,425.52765 L 44.398876,423.7566 L 44.763903,421.98776 L 45.139777,420.22119 L 45.526483,418.45696 L 45.924007,416.69513 L 46.332334,414.93578 L 46.751449,413.17896 L 47.181335,411.42475 L 47.621976,409.67322 L 48.073357,407.92441 L 48.53546,406.17842 L 49.008267,404.43528 L 49.491761,402.69509 L 49.985923,400.95789 L 50.490735,399.22376 L 51.006178,397.49275 L 51.532233,395.76495 L 52.06888,394.0404 L 52.616098,392.31918 L 53.173867,390.60135 L 53.742166,388.88697 L 54.320973,387.17611 L 54.910267,385.46884 L 55.510026,383.76521 L 56.120226,382.0653 L 56.740846,380.36916 L 57.371861,378.67686 L 58.013248,376.98847 L 58.664983,375.30404 L 59.327041,373.62365 L 59.999397,371.94734 L 60.682027,370.2752 L 61.374903,368.60727 L 62.078001,366.94363 L 62.791293,365.28433 L 63.514753,363.62944 L 64.248354,361.97903 L 64.992067,360.33314 L 65.745866,358.69185 L 66.509721,357.05521 L 67.283604,355.42329 L 68.067486,353.79615 L 68.861337,352.17386 L 69.665127,350.55646 L 70.478826,348.94402 L 71.302404,347.33661 L 72.135829,345.73428 L 72.97907,344.1371 L 73.832095,342.54512 L 74.694873,340.9584 L 75.56737,339.37701 L 76.449554,337.801 L 77.341391,336.23044 L 78.242849,334.66537 L 79.153892,333.10587 L 80.074488,331.55199 L 81.0046,330.00378 L 81.944195,328.46131 L 82.893236,326.92463 L 83.851689,325.39381 L 84.819516,323.8689 L 85.796682,322.34995 L 86.783149,320.83703 L 87.778881,319.33019 L 88.78384,317.82948 L 89.797989,316.33497 L 90.821288,314.84672 L 91.8537,313.36477 L 92.895185,311.88918 L 93.945705,310.42001 L 95.00522,308.95731 L 96.07369,307.50114 L 97.151074,306.05156 L 98.237333,304.60861 L 99.332425,303.17236 L 100.43631,301.74285 L 101.54894,300.32015 L 102.67029,298.90429 L 103.8003,297.49535 L 104.93893,296.09336 L 106.08614,294.69839 L 107.2419,293.31048 L 108.40614,291.92969 L 109.57884,290.55607 L 110.75994,289.18967 L 111.94941,287.83054 L 113.14719,286.47874 L 114.35325,285.13431 L 115.56753,283.79731 L 116.78999,282.46778 L 118.02058,281.14578 L 119.25927,279.83136 L 120.506,278.52456 L 121.76072,277.22543 L 123.02339,275.93403 L 124.29396,274.6504 L 125.57238,273.37459 L 126.8586,272.10665 L 128.15259,270.84663 L 129.45427,269.59456 L 130.76362,268.35051 L 132.08058,267.11452 L 133.40509,265.88663 L 134.73711,264.66689 L 136.0766,263.45535 L 137.42349,262.25204 L 138.77774,261.05703 L 140.13929,259.87035 L 141.50811,258.69204 L 142.88412,257.52215 L 144.26729,256.36073 L 145.65756,255.20782 L 147.05488,254.06346 L 148.45919,252.9277 L 149.87044,251.80058 L 151.28859,250.68213 L 152.71357,249.57241 L 154.14533,248.47145 L 155.58382,247.3793 L 157.02899,246.29599 L 158.48077,245.22158 L 159.93912,244.15609 L 161.40398,243.09956 L 162.8753,242.05205 L 164.35301,241.01359 L 165.83707,239.98421 L 167.32742,238.96396 L 168.824,237.95287 L 170.32675,236.95098 L 171.83563,235.95833 L 173.35056,234.97496 L 174.87151,234.0009 L 176.3984,233.0362 L 177.93118,232.08088 L 179.46979,231.13498 L 181.01418,230.19854 L 182.56428,229.2716 L 184.12005,228.35418 L 185.68141,227.44633 z"
       inkscape:randomized="0"
       inkscape:rounded="0"
       inkscape:flatsided="true"
       sodipodi:arg2="-2.0913271"
       sodipodi:arg1="-2.0943951"
       sodipodi:r2="257.05057"
       sodipodi:r1="294.35147"
       sodipodi:cy="482.36218"
       sodipodi:cx="332.85715"
       sodipodi:sides="1024"
       id="path4580"
       style="opacity:1;fill:#ff0000;fill-opacity:1;fill-rule:evenodd;stroke:#000000;stroke-width:1.5;stroke-linecap:square;stroke-linejoin:miter;stroke-miterlimit:4;stroke-dasharray:none;stroke-dashoffset:40;stroke-opacity:1"
       sodipodi:type="star" />
    <path
       transform="translate(5.3140693,3.5427128)"
       d="M 185.71298,227.5213 L 256.39874,197.89725 L 332.70887,188.11718 L 409.11349,197.75375 L 479.80299,227.44003 L 540.74296,274.43068 L 587.56682,335.156 L 617.10996,406.44982 L 627.39304,482.32158 L 617.10496,558.54496 L 587.57289,629.49252 L 540.74314,690.76762 L 479.80412,737.44068 L 409.10807,766.78885 L 332.71071,776.57955 L 256.39332,766.93235 L 185.71412,737.52194 L 124.65456,690.67767 L 78.085452,629.53608 L 48.365111,558.55326 L 38.388496,482.31875 L 48.37011,406.45812 L 78.079384,335.19955 L 124.65438,274.34074 L 185.71298,227.5213 z"
       inkscape:randomized="-0.001"
       inkscape:rounded="0"
       inkscape:flatsided="true"
       sodipodi:arg2="-1.9634954"
       sodipodi:arg1="-2.0943951"
       sodipodi:r2="257.05057"
       sodipodi:r1="294.35147"
       sodipodi:cy="482.36218"
       sodipodi:cx="332.85715"
       sodipodi:sides="24"
       id="path4558"
       style="opacity:1;fill:#0000ff;fill-opacity:1;fill-rule:evenodd;stroke:#000000;stroke-width:1.5;stroke-linecap:square;stroke-linejoin:miter;stroke-miterlimit:4;stroke-dasharray:none;stroke-dashoffset:40;stroke-opacity:1"
       sodipodi:type="star" />
    <path
       sodipodi:type="star"
       style="opacity:1;fill:#ffff00;fill-opacity:1;fill-rule:evenodd;stroke:#000000;stroke-width:1.5;stroke-linecap:square;stroke-linejoin:miter;stroke-miterlimit:4;stroke-dasharray:none;stroke-dashoffset:40;stroke-opacity:1"
       id="path4556"
       sodipodi:sides="24"
       sodipodi:cx="332.85715"
       sodipodi:cy="482.36218"
       sodipodi:r1="294.35147"
       sodipodi:r2="257.05057"
       sodipodi:arg1="-2.0943951"
       sodipodi:arg2="-1.9634954"
       inkscape:flatsided="true"
       inkscape:rounded="0"
       inkscape:randomized="0"
       d="M 185.68141,227.44633 L 256.67338,198.04049 L 332.85715,188.01071 L 409.04091,198.0405 L 480.03288,227.44633 L 540.99507,274.22426 L 587.773,335.18645 L 617.17884,406.17842 L 627.20862,482.36218 L 617.17883,558.54595 L 587.773,629.53792 L 540.99507,690.5001 L 480.03288,737.27803 L 409.04091,766.68387 L 332.85715,776.71365 L 256.67338,766.68387 L 185.68141,737.27803 L 124.71923,690.5001 L 77.941295,629.53792 L 48.535459,558.54595 L 38.505676,482.36218 L 48.53546,406.17842 L 77.941296,335.18645 L 124.71923,274.22426 L 185.68141,227.44633 z"
       transform="translate(5.3140693,3.5427128)" />
    <path
       transform="translate(5.3140693,3.5427128)"
       d="M 185.68141,227.44633 L 332.85715,188.01071 L 480.03288,227.44633 L 587.773,335.18645 L 627.20862,482.36218 L 587.773,629.53792 L 480.03288,737.27803 L 332.85715,776.71365 L 185.68141,737.27803 L 77.941295,629.53792 L 38.505676,482.36218 L 77.941296,335.18645 L 185.68141,227.44633 z"
       inkscape:randomized="0"
       inkscape:rounded="0"
       inkscape:flatsided="true"
       sodipodi:arg2="-1.8325957"
       sodipodi:arg1="-2.0943951"
       sodipodi:r2="257.05057"
       sodipodi:r1="294.35147"
       sodipodi:cy="482.36218"
       sodipodi:cx="332.85715"
       sodipodi:sides="12"
       id="path4554"
       style="opacity:1;fill:#0000ff;fill-opacity:1;fill-rule:evenodd;stroke:#000000;stroke-width:1.5;stroke-linecap:square;stroke-linejoin:miter;stroke-miterlimit:4;stroke-dasharray:none;stroke-dashoffset:40;stroke-opacity:1"
       sodipodi:type="star" />
    <path
       sodipodi:type="star"
       style="opacity:1;fill:#00ff00;fill-opacity:1;fill-rule:evenodd;stroke:#000000;stroke-width:1.5;stroke-linecap:square;stroke-linejoin:miter;stroke-miterlimit:4;stroke-dasharray:none;stroke-dashoffset:40;stroke-opacity:1"
       id="path4035"
       sodipodi:sides="6"
       sodipodi:cx="332.85715"
       sodipodi:cy="482.36218"
       sodipodi:r1="294.35147"
       sodipodi:r2="257.05057"
       sodipodi:arg1="-2.0943951"
       sodipodi:arg2="-1.5707963"
       inkscape:flatsided="true"
       inkscape:rounded="0"
       inkscape:randomized="0"
       d="M 185.68141,227.44633 L 480.03288,227.44633 L 627.20862,482.36218 L 480.03288,737.27803 L 185.68141,737.27803 L 38.505676,482.36218 L 185.68141,227.44633 z"
       transform="translate(5.3140693,3.5427128)" />
    <path
       style="fill:none;fill-rule:evenodd;stroke:#000000;stroke-width:1.5;stroke-linecap:butt;stroke-linejoin:miter;stroke-miterlimit:4;stroke-dasharray:none;stroke-opacity:1"
       d="M 43.805141,486.01069 L 632.24264,486.01069"
       id="path4552" />
  </g>
</svg>
