<?xml version="1.0" encoding="UTF-8" standalone="no"?>
<!-- Created with Inkscape (http://www.inkscape.org/) -->
<svg
   xmlns:dc="http://purl.org/dc/elements/1.1/"
   xmlns:cc="http://creativecommons.org/ns#"
   xmlns:rdf="http://www.w3.org/1999/02/22-rdf-syntax-ns#"
   xmlns:svg="http://www.w3.org/2000/svg"
   xmlns="http://www.w3.org/2000/svg"
   xmlns:sodipodi="http://sodipodi.sourceforge.net/DTD/sodipodi-0.dtd"
   xmlns:inkscape="http://www.inkscape.org/namespaces/inkscape"
   width="570"
   height="570"
   id="svg2"
   sodipodi:version="0.32"
   inkscape:version="0.46"
   version="1.0"
   sodipodi:docname="Liuhui geyuanshu.svg"
   inkscape:output_extension="org.inkscape.output.svg.inkscape">
  <defs
     id="defs4">
    <inkscape:perspective
       sodipodi:type="inkscape:persp3d"
       inkscape:vp_x="0 : 526.18109 : 1"
       inkscape:vp_y="0 : 1000 : 0"
       inkscape:vp_z="744.09448 : 526.18109 : 1"
       inkscape:persp3d-origin="372.04724 : 350.78739 : 1"
       id="perspective10" />
    <inkscape:perspective
       id="perspective2390"
       inkscape:persp3d-origin="372.04724 : 350.78739 : 1"
       inkscape:vp_z="744.09448 : 526.18109 : 1"
       inkscape:vp_y="0 : 1000 : 0"
       inkscape:vp_x="0 : 526.18109 : 1"
       sodipodi:type="inkscape:persp3d" />
    <inkscape:perspective
       id="perspective3229"
       inkscape:persp3d-origin="372.04724 : 350.78739 : 1"
       inkscape:vp_z="744.09448 : 526.18109 : 1"
       inkscape:vp_y="0 : 1000 : 0"
       inkscape:vp_x="0 : 526.18109 : 1"
       sodipodi:type="inkscape:persp3d" />
  </defs>
  <sodipodi:namedview
     id="base"
     pagecolor="#ffffff"
     bordercolor="#666666"
     borderopacity="1.0"
     gridtolerance="10000"
     guidetolerance="10"
     objecttolerance="10"
     inkscape:pageopacity="0.0"
     inkscape:pageshadow="2"
     inkscape:zoom="0.7"
     inkscape:cx="514.83761"
     inkscape:cy="158.61971"
     inkscape:document-units="px"
     inkscape:current-layer="layer1"
     showgrid="false"
     inkscape:window-width="1280"
     inkscape:window-height="968"
     inkscape:window-x="-4"
     inkscape:window-y="-4" />
  <metadata
     id="metadata7">
    <rdf:RDF>
      <cc:Work
         rdf:about="">
        <dc:format>image/svg+xml</dc:format>
        <dc:type
           rdf:resource="http://purl.org/dc/dcmitype/StillImage" />
      </cc:Work>
    </rdf:RDF>
  </metadata>
  <g
     inkscape:label="Layer 1"
     inkscape:groupmode="layer"
     id="layer1"
     transform="translate(-443.45099,-148.48662)">
    <path
       sodipodi:type="star"
       style="opacity:1;fill:#ffffff;fill-opacity:1;fill-rule:evenodd;stroke:#000000;stroke-width:3;stroke-linecap:square;stroke-linejoin:miter;stroke-miterlimit:4;stroke-dasharray:none;stroke-dashoffset:40;stroke-opacity:1"
       id="path2396"
       sodipodi:sides="1024"
       sodipodi:cx="369.71582"
       sodipodi:cy="507.88995"
       sodipodi:r1="246.29707"
       sodipodi:r2="213.29951"
       sodipodi:arg1="-2.0943951"
       sodipodi:arg2="-2.0913271"
       inkscape:flatsided="true"
       inkscape:rounded="0"
       inkscape:randomized="0"
       d="M 246.56728,294.59043 L 247.87838,293.83882 L 249.19407,293.09527 L 250.51429,292.35981 L 251.83901,291.63246 L 253.16816,290.91325 L 254.50169,290.20221 L 255.83957,289.49937 L 257.18173,288.80475 L 258.52813,288.11838 L 259.87872,287.44028 L 261.23344,286.77048 L 262.59225,286.10901 L 263.95509,285.45588 L 265.32191,284.81114 L 266.69266,284.17479 L 268.06729,283.54686 L 269.44574,282.92738 L 270.82798,282.31637 L 272.21393,281.71385 L 273.60356,281.11985 L 274.9968,280.53438 L 276.39361,279.95748 L 277.79394,279.38915 L 279.19772,278.82943 L 280.60491,278.27834 L 282.01546,277.73588 L 283.42931,277.2021 L 284.84641,276.677 L 286.2667,276.1606 L 287.69014,275.65293 L 289.11666,275.154 L 290.54622,274.66383 L 291.97876,274.18245 L 293.41423,273.70986 L 294.85256,273.24609 L 296.29372,272.79116 L 297.73764,272.34507 L 299.18427,271.90786 L 300.63356,271.47953 L 302.08545,271.0601 L 303.53988,270.64958 L 304.99681,270.248 L 306.45617,269.85537 L 307.91791,269.47169 L 309.38198,269.097 L 310.84832,268.73129 L 312.31688,268.37459 L 313.7876,268.0269 L 315.26043,267.68825 L 316.7353,267.35864 L 318.21217,267.03809 L 319.69098,266.7266 L 321.17167,266.42419 L 322.65419,266.13088 L 324.13848,265.84666 L 325.62449,265.57156 L 327.11216,265.30558 L 328.60143,265.04874 L 330.09225,264.80104 L 331.58456,264.56249 L 333.07831,264.3331 L 334.57344,264.11288 L 336.06989,263.90184 L 337.5676,263.69999 L 339.06653,263.50732 L 340.56661,263.32386 L 342.06779,263.14961 L 343.57001,262.98457 L 345.07321,262.82876 L 346.57734,262.68217 L 348.08234,262.54481 L 349.58816,262.41668 L 351.09473,262.2978 L 352.60201,262.18817 L 354.10993,262.08779 L 355.61844,261.99666 L 357.12748,261.91479 L 358.63699,261.84218 L 360.14692,261.77883 L 361.65721,261.72475 L 363.1678,261.67994 L 364.67864,261.64439 L 366.18967,261.61812 L 367.70083,261.60112 L 369.21207,261.5934 L 370.72332,261.59494 L 372.23454,261.60576 L 373.74567,261.62585 L 375.25664,261.65521 L 376.7674,261.69385 L 378.2779,261.74175 L 379.78808,261.79892 L 381.29787,261.86535 L 382.80723,261.94105 L 384.3161,262.02601 L 385.82442,262.12022 L 387.33213,262.22369 L 388.83918,262.3364 L 390.34551,262.45837 L 391.85106,262.58957 L 393.35578,262.73 L 394.85961,262.87967 L 396.36249,263.03856 L 397.86437,263.20667 L 399.36518,263.384 L 400.86489,263.57052 L 402.36342,263.76625 L 403.86072,263.97117 L 405.35673,264.18527 L 406.8514,264.40854 L 408.34468,264.64099 L 409.8365,264.88259 L 411.32681,265.13334 L 412.81555,265.39323 L 414.30267,265.66225 L 415.78811,265.94039 L 417.27182,266.22764 L 418.75374,266.52398 L 420.23381,266.82942 L 421.71198,267.14393 L 423.18819,267.4675 L 424.66239,267.80013 L 426.13452,268.1418 L 427.60452,268.49249 L 429.07235,268.85219 L 430.53794,269.2209 L 432.00124,269.59859 L 433.46219,269.98525 L 434.92075,270.38087 L 436.37685,270.78543 L 437.83044,271.19892 L 439.28147,271.62132 L 440.72988,272.05261 L 442.17561,272.49278 L 443.61862,272.94182 L 445.05884,273.3997 L 446.49623,273.86641 L 447.93072,274.34193 L 449.36227,274.82625 L 450.79083,275.31934 L 452.21633,275.82118 L 453.63872,276.33176 L 455.05796,276.85106 L 456.47398,277.37906 L 457.88673,277.91574 L 459.29617,278.46108 L 460.70223,279.01505 L 462.10487,279.57764 L 463.50403,280.14883 L 464.89965,280.72859 L 466.2917,281.3169 L 467.68011,281.91374 L 469.06483,282.5191 L 470.44581,283.13293 L 471.82299,283.75523 L 473.19633,284.38597 L 474.56578,285.02512 L 475.93128,285.67266 L 477.29278,286.32857 L 478.65023,286.99282 L 480.00358,287.66539 L 481.35278,288.34625 L 482.69777,289.03537 L 484.03851,289.73274 L 485.37494,290.43831 L 486.70703,291.15208 L 488.0347,291.874 L 489.35792,292.60406 L 490.67664,293.34222 L 491.9908,294.08846 L 493.30036,294.84275 L 494.60527,295.60507 L 495.90547,296.37537 L 497.20093,297.15364 L 498.49158,297.93984 L 499.77739,298.73394 L 501.0583,299.53592 L 502.33426,300.34575 L 503.60523,301.16338 L 504.87116,301.98881 L 506.132,302.82198 L 507.38771,303.66287 L 508.63823,304.51146 L 509.88352,305.3677 L 511.12354,306.23156 L 512.35823,307.10302 L 513.58755,307.98204 L 514.81145,308.86858 L 516.02989,309.76262 L 517.24282,310.66411 L 518.4502,311.57304 L 519.65198,312.48935 L 520.84811,313.41302 L 522.03856,314.34401 L 523.22326,315.28229 L 524.40219,316.22782 L 525.5753,317.18056 L 526.74253,318.14049 L 527.90386,319.10756 L 529.05923,320.08174 L 530.2086,321.06298 L 531.35193,322.05127 L 532.48917,323.04654 L 533.62028,324.04878 L 534.74522,325.05794 L 535.86395,326.07399 L 536.97643,327.09687 L 538.0826,328.12657 L 539.18244,329.16303 L 540.2759,330.20622 L 541.36294,331.25611 L 542.44351,332.31264 L 543.51758,333.37578 L 544.58511,334.44549 L 545.64605,335.52174 L 546.70037,336.60447 L 547.74803,337.69365 L 548.78898,338.78924 L 549.82319,339.89119 L 550.85062,340.99947 L 551.87123,342.11404 L 552.88499,343.23484 L 553.89184,344.36185 L 554.89176,345.49501 L 555.88472,346.63428 L 556.87066,347.77963 L 557.84955,348.93101 L 558.82136,350.08836 L 559.78606,351.25167 L 560.74359,352.42086 L 561.69394,353.59591 L 562.63705,354.77677 L 563.57291,355.9634 L 564.50146,357.15574 L 565.42268,358.35376 L 566.33654,359.55741 L 567.24299,360.76665 L 568.142,361.98142 L 569.03354,363.20169 L 569.91758,364.4274 L 570.79408,365.65852 L 571.66301,366.89499 L 572.52434,368.13677 L 573.37803,369.38381 L 574.22405,370.63606 L 575.06238,371.89349 L 575.89297,373.15603 L 576.7158,374.42364 L 577.53084,375.69628 L 578.33805,376.9739 L 579.13741,378.25645 L 579.92888,379.54388 L 580.71244,380.83613 L 581.48806,382.13318 L 582.2557,383.43495 L 583.01534,384.74142 L 583.76695,386.05252 L 584.5105,387.3682 L 585.24597,388.68843 L 585.97332,390.01314 L 586.69253,391.34229 L 587.40356,392.67583 L 588.10641,394.0137 L 588.80103,395.35587 L 589.4874,396.70227 L 590.1655,398.05285 L 590.83529,399.40757 L 591.49677,400.76638 L 592.14989,402.12922 L 592.79464,403.49604 L 593.43099,404.86679 L 594.05891,406.24142 L 594.6784,407.61988 L 595.28941,409.00211 L 595.89192,410.38806 L 596.48593,411.77769 L 597.07139,413.17093 L 597.6483,414.56775 L 598.21662,415.96807 L 598.77634,417.37185 L 599.32744,418.77905 L 599.86989,420.1896 L 600.40368,421.60345 L 600.92878,423.02054 L 601.44517,424.44084 L 601.95285,425.86427 L 602.45177,427.2908 L 602.94194,428.72035 L 603.42333,430.15289 L 603.89591,431.58836 L 604.35968,433.0267 L 604.81462,434.46785 L 605.2607,435.91178 L 605.69792,437.35841 L 606.12625,438.80769 L 606.54568,440.25958 L 606.95619,441.71401 L 607.35777,443.17094 L 607.75041,444.6303 L 608.13408,446.09205 L 608.50878,447.55612 L 608.87448,449.02246 L 609.23119,450.49102 L 609.57887,451.96174 L 609.91752,453.43456 L 610.24713,454.90944 L 610.56769,456.3863 L 610.87918,457.86511 L 611.18158,459.34581 L 611.4749,460.82833 L 611.75911,462.31262 L 612.03421,463.79863 L 612.30019,465.28629 L 612.55703,466.77556 L 612.80474,468.26638 L 613.04329,469.7587 L 613.27267,471.25244 L 613.49289,472.74757 L 613.70393,474.24402 L 613.90579,475.74174 L 614.09845,477.24066 L 614.28191,478.74074 L 614.45616,480.24192 L 614.6212,481.74414 L 614.77702,483.24734 L 614.92361,484.75147 L 615.06097,486.25648 L 615.18909,487.76229 L 615.30797,489.26887 L 615.4176,490.77614 L 615.51799,492.28406 L 615.60911,493.79257 L 615.69099,495.30161 L 615.7636,496.81112 L 615.82694,498.32105 L 615.88102,499.83134 L 615.92584,501.34193 L 615.96138,502.85277 L 615.98765,504.3638 L 616.00465,505.87496 L 616.01238,507.3862 L 616.01083,508.89746 L 616.00001,510.40868 L 615.97992,511.9198 L 615.95056,513.43077 L 615.91193,514.94154 L 615.86403,516.45203 L 615.80686,517.96221 L 615.74042,519.47201 L 615.66472,520.98137 L 615.57977,522.49024 L 615.48555,523.99855 L 615.38209,525.50627 L 615.26937,527.01331 L 615.14741,528.51964 L 615.01621,530.02519 L 614.87577,531.52991 L 614.7261,533.03374 L 614.56721,534.53662 L 614.3991,536.0385 L 614.22178,537.53932 L 614.03525,539.03902 L 613.83952,540.53755 L 613.63461,542.03485 L 613.42051,543.53086 L 613.19723,545.02554 L 612.96479,546.51881 L 612.72319,548.01063 L 612.47243,549.50094 L 612.21254,550.98969 L 611.94352,552.47681 L 611.66539,553.96225 L 611.37814,555.44596 L 611.08179,556.92787 L 610.77635,558.40794 L 610.46184,559.88611 L 610.13827,561.36232 L 609.80564,562.83652 L 609.46398,564.30865 L 609.11329,565.77865 L 608.75358,567.24648 L 608.38488,568.71207 L 608.00719,570.17537 L 607.62052,571.63633 L 607.22491,573.09488 L 606.82034,574.55098 L 606.40686,576.00458 L 605.98446,577.4556 L 605.55316,578.90401 L 605.11299,580.34974 L 604.66395,581.79275 L 604.20607,583.23297 L 603.73936,584.67036 L 603.26384,586.10486 L 602.77953,587.53641 L 602.28644,588.96496 L 601.78459,590.39046 L 601.27401,591.81285 L 600.75471,593.23209 L 600.22671,594.64811 L 599.69003,596.06087 L 599.1447,597.4703 L 598.59072,598.87636 L 598.02813,600.279 L 597.45695,601.67816 L 596.87719,603.07379 L 596.28887,604.46583 L 595.69203,605.85424 L 595.08668,607.23896 L 594.47284,608.61994 L 593.85054,609.99713 L 593.21981,611.37047 L 592.58065,612.73991 L 591.93311,614.10541 L 591.2772,615.46691 L 590.61295,616.82436 L 589.94038,618.17771 L 589.25953,619.52691 L 588.5704,620.8719 L 587.87304,622.21264 L 587.16746,623.54908 L 586.4537,624.88116 L 585.73177,626.20883 L 585.00171,627.53206 L 584.26355,628.85077 L 583.51731,630.16494 L 582.76302,631.4745 L 582.00071,632.7794 L 581.23041,634.07961 L 580.45214,635.37506 L 579.66594,636.66571 L 578.87183,637.95152 L 578.06985,639.23243 L 577.26003,640.50839 L 576.44239,641.77936 L 575.61697,643.04529 L 574.78379,644.30614 L 573.9429,645.56184 L 573.09432,646.81236 L 572.23808,648.05765 L 571.37421,649.29767 L 570.50275,650.53236 L 569.62374,651.76168 L 568.73719,652.98558 L 567.84316,654.20402 L 566.94166,655.41696 L 566.03274,656.62433 L 565.11643,657.82611 L 564.19276,659.02225 L 563.26177,660.21269 L 562.32349,661.3974 L 561.37796,662.57633 L 560.42521,663.74943 L 559.46529,664.91667 L 558.49822,666.07799 L 557.52404,667.23336 L 556.54279,668.38273 L 555.55451,669.52606 L 554.55923,670.6633 L 553.55699,671.79441 L 552.54783,672.91936 L 551.53179,674.03809 L 550.5089,675.15056 L 549.4792,676.25674 L 548.44274,677.35658 L 547.39955,678.45003 L 546.34967,679.53707 L 545.29314,680.61764 L 544.22999,681.69171 L 543.16028,682.75924 L 542.08404,683.82018 L 541.00131,684.8745 L 539.91212,685.92216 L 538.81654,686.96311 L 537.71458,687.99732 L 536.6063,689.02476 L 535.49174,690.04537 L 534.37093,691.05912 L 533.24393,692.06598 L 532.11076,693.0659 L 530.97149,694.05885 L 529.82614,695.04479 L 528.67477,696.02369 L 527.51741,696.9955 L 526.35411,697.96019 L 525.18491,698.91773 L 524.00986,699.86807 L 522.829,700.81119 L 521.64237,701.74704 L 520.45003,702.6756 L 519.25201,703.59682 L 518.04836,704.51067 L 516.83913,705.41712 L 515.62435,706.31613 L 514.40409,707.20768 L 513.17837,708.09171 L 511.94726,708.96821 L 510.71079,709.83714 L 509.46901,710.69847 L 508.22197,711.55216 L 506.96971,712.39819 L 505.71229,713.23651 L 504.44975,714.0671 L 503.18213,714.88994 L 501.90949,715.70497 L 500.63187,716.51219 L 499.34933,717.31154 L 498.0619,718.10302 L 496.76964,718.88658 L 495.4726,719.66219 L 494.17082,720.42984 L 492.86436,721.18948 L 491.55326,721.94109 L 490.23757,722.68464 L 488.91735,723.4201 L 487.59263,724.14745 L 486.26348,724.86666 L 484.92995,725.5777 L 483.59207,726.28054 L 482.24991,726.97516 L 480.90351,727.66153 L 479.55292,728.33963 L 478.1982,729.00943 L 476.83939,729.6709 L 475.47656,730.32402 L 474.10973,730.96877 L 472.73898,731.60512 L 471.36435,732.23305 L 469.9859,732.85253 L 468.60366,733.46354 L 467.21771,734.06606 L 465.82808,734.66006 L 464.43484,735.24552 L 463.03803,735.82243 L 461.6377,736.39075 L 460.23392,736.95047 L 458.82673,737.50157 L 457.41618,738.04402 L 456.00233,738.57781 L 454.58523,739.10291 L 453.16494,739.61931 L 451.7415,740.12698 L 450.31498,740.62591 L 448.88542,741.11607 L 447.45288,741.59746 L 446.01741,742.07004 L 444.57908,742.53381 L 443.13792,742.98875 L 441.694,743.43483 L 440.24737,743.87205 L 438.79808,744.30038 L 437.34619,744.71981 L 435.89176,745.13032 L 434.43483,745.53191 L 432.97547,745.92454 L 431.51373,746.30821 L 430.04966,746.68291 L 428.58332,747.04862 L 427.11476,747.40532 L 425.64404,747.753 L 424.17121,748.09166 L 422.69634,748.42127 L 421.21947,748.74182 L 419.74066,749.05331 L 418.25997,749.35572 L 416.77745,749.64903 L 415.29316,749.93324 L 413.80715,750.20835 L 412.31948,750.47432 L 410.83021,750.73117 L 409.33939,750.97887 L 407.84708,751.21742 L 406.35333,751.44681 L 404.8582,751.66703 L 403.36176,751.87807 L 401.86404,752.07992 L 400.36511,752.27258 L 398.86503,752.45604 L 397.36385,752.63029 L 395.86163,752.79533 L 394.35843,752.95115 L 392.8543,753.09774 L 391.3493,753.2351 L 389.84348,753.36322 L 388.33691,753.4821 L 386.82963,753.59174 L 385.32171,753.69212 L 383.8132,753.78325 L 382.30417,753.86512 L 380.79465,753.93773 L 379.28472,754.00108 L 377.77443,754.05516 L 376.26384,754.09997 L 374.753,754.13551 L 373.24197,754.16178 L 371.73081,754.17878 L 370.21957,754.18651 L 368.70832,754.18497 L 367.1971,754.17415 L 365.68597,754.15406 L 364.175,754.12469 L 362.66424,754.08606 L 361.15374,754.03816 L 359.64356,753.98099 L 358.13377,753.91455 L 356.62441,753.83886 L 355.11554,753.7539 L 353.60722,753.65969 L 352.09951,753.55622 L 350.59246,753.4435 L 349.08613,753.32154 L 347.58058,753.19034 L 346.07586,753.0499 L 344.57203,752.90024 L 343.06915,752.74134 L 341.56727,752.57323 L 340.06646,752.39591 L 338.56675,752.20938 L 337.06822,752.01366 L 335.57092,751.80874 L 334.07491,751.59464 L 332.58024,751.37136 L 331.08696,751.13892 L 329.59514,750.89732 L 328.10483,750.64657 L 326.61609,750.38668 L 325.12897,750.11766 L 323.64353,749.83952 L 322.15982,749.55227 L 320.6779,749.25592 L 319.19783,748.95049 L 317.71966,748.63598 L 316.24345,748.3124 L 314.76925,747.97978 L 313.29712,747.63811 L 311.82712,747.28742 L 310.35929,746.92771 L 308.8937,746.55901 L 307.4304,746.18132 L 305.96945,745.79466 L 304.51089,745.39904 L 303.05479,744.99448 L 301.6012,744.58099 L 300.15017,744.15859 L 298.70176,743.7273 L 297.25603,743.28712 L 295.81302,742.83809 L 294.3728,742.3802 L 292.93541,741.91349 L 291.50092,741.43797 L 290.06937,740.95366 L 288.64081,740.46057 L 287.21531,739.95873 L 285.79292,739.44814 L 284.37369,738.92884 L 282.95766,738.40084 L 281.54491,737.86417 L 280.13547,737.31883 L 278.72941,736.76486 L 277.32677,736.20227 L 275.92761,735.63108 L 274.53199,735.05132 L 273.13994,734.46301 L 271.75153,733.86616 L 270.36681,733.26081 L 268.98584,732.64697 L 267.60865,732.02468 L 266.23531,731.39394 L 264.86586,730.75479 L 263.50036,730.10724 L 262.13886,729.45134 L 260.78141,728.78708 L 259.42806,728.11452 L 258.07886,727.43366 L 256.73387,726.74453 L 255.39313,726.04717 L 254.0567,725.34159 L 252.72462,724.62783 L 251.39694,723.9059 L 250.07372,723.17585 L 248.755,722.43768 L 247.44084,721.69144 L 246.13128,720.93715 L 244.82637,720.17484 L 243.52617,719.40454 L 242.23071,718.62627 L 240.94006,717.84007 L 239.65425,717.04597 L 238.37334,716.24399 L 237.09738,715.43416 L 235.82641,714.61652 L 234.56048,713.7911 L 233.29964,712.95793 L 232.04393,712.11703 L 230.79341,711.26845 L 229.54812,710.41221 L 228.3081,709.54834 L 227.07341,708.67689 L 225.84409,707.79787 L 224.62019,706.91133 L 223.40175,706.01729 L 222.18882,705.11579 L 220.98144,704.20687 L 219.77966,703.29056 L 218.58353,702.36689 L 217.39309,701.4359 L 216.20838,700.49762 L 215.02945,699.55209 L 213.85634,698.59934 L 212.68911,697.63942 L 211.52778,696.67235 L 210.37241,695.69817 L 209.22304,694.71692 L 208.07972,693.72864 L 206.94247,692.73336 L 205.81136,691.73112 L 204.68642,690.72196 L 203.56769,689.70592 L 202.45521,688.68303 L 201.34904,687.65334 L 200.2492,686.61688 L 199.15574,685.57368 L 198.0687,684.5238 L 196.98813,683.46727 L 195.91406,682.40413 L 194.84653,681.33441 L 193.78559,680.25817 L 192.73127,679.17544 L 191.68361,678.08626 L 190.64266,676.99067 L 189.60845,675.88871 L 188.58102,674.78043 L 187.56041,673.66587 L 186.54665,672.54506 L 185.5398,671.41806 L 184.53988,670.2849 L 183.54692,669.14562 L 182.56098,668.00028 L 181.58209,666.8489 L 180.61028,665.69154 L 179.64558,664.52824 L 178.68805,663.35904 L 177.7377,662.18399 L 176.79459,661.00313 L 175.85873,659.81651 L 174.93018,658.62416 L 174.00896,657.42614 L 173.0951,656.22249 L 172.18865,655.01326 L 171.28964,653.79849 L 170.3981,652.57822 L 169.51406,651.35251 L 168.63756,650.12139 L 167.76863,648.88492 L 166.9073,647.64314 L 166.05361,646.3961 L 165.20759,645.14384 L 164.36926,643.88642 L 163.53867,642.62388 L 162.71584,641.35626 L 161.9008,640.08362 L 161.09359,638.80601 L 160.29423,637.52346 L 159.50276,636.23603 L 158.7192,634.94377 L 157.94358,633.64673 L 157.17594,632.34495 L 156.4163,631.03849 L 155.66469,629.72739 L 154.92114,628.4117 L 154.18567,627.09148 L 153.45832,625.76677 L 152.73912,624.43762 L 152.02808,623.10408 L 151.32523,621.7662 L 150.63061,620.42404 L 149.94424,619.07764 L 149.26614,617.72705 L 148.59635,616.37233 L 147.93487,615.01353 L 147.28175,613.65069 L 146.637,612.28387 L 146.00065,610.91312 L 145.37273,609.53849 L 144.75325,608.16003 L 144.14223,606.7778 L 143.53972,605.39184 L 142.94571,604.00222 L 142.36025,602.60897 L 141.78334,601.21216 L 141.21502,599.81184 L 140.6553,598.40805 L 140.1042,597.00086 L 139.56175,595.59031 L 139.02796,594.17646 L 138.50286,592.75936 L 137.98647,591.33907 L 137.47879,589.91563 L 136.97987,588.48911 L 136.4897,587.05955 L 136.00832,585.62701 L 135.53573,584.19155 L 135.07196,582.75321 L 134.61702,581.31205 L 134.17094,579.86813 L 133.73373,578.4215 L 133.30539,576.97221 L 132.88596,575.52033 L 132.47545,574.06589 L 132.07387,572.60897 L 131.68123,571.14961 L 131.29756,569.68786 L 130.92286,568.22379 L 130.55716,566.75745 L 130.20045,565.28889 L 129.85277,563.81817 L 129.51412,562.34535 L 129.18451,560.87047 L 128.86395,559.3936 L 128.55247,557.91479 L 128.25006,556.4341 L 127.95674,554.95158 L 127.67253,553.46729 L 127.39743,551.98128 L 127.13145,550.49361 L 126.87461,549.00434 L 126.6269,547.51352 L 126.38835,546.02121 L 126.15897,544.52746 L 125.93875,543.03234 L 125.72771,541.53589 L 125.52585,540.03817 L 125.33319,538.53925 L 125.14973,537.03916 L 124.97548,535.53799 L 124.81044,534.03577 L 124.65462,532.53256 L 124.50803,531.02843 L 124.37067,529.52343 L 124.24255,528.01761 L 124.12367,526.51104 L 124.01404,525.00376 L 123.91365,523.49584 L 123.82253,521.98734 L 123.74066,520.4783 L 123.66804,518.96879 L 123.6047,517.45886 L 123.55062,515.94857 L 123.5058,514.43797 L 123.47026,512.92713 L 123.44399,511.41611 L 123.42699,509.90494 L 123.41926,508.39371 L 123.42081,506.88245 L 123.43163,505.37123 L 123.45172,503.86011 L 123.48108,502.34913 L 123.51971,500.83837 L 123.56761,499.32787 L 123.62478,497.8177 L 123.69122,496.3079 L 123.76692,494.79854 L 123.85187,493.28967 L 123.94609,491.78135 L 124.04955,490.27364 L 124.16227,488.76659 L 124.28423,487.26027 L 124.41543,485.75471 L 124.55587,484.25 L 124.70554,482.74617 L 124.86443,481.24329 L 125.03254,479.74141 L 125.20986,478.24059 L 125.39639,476.74089 L 125.59212,475.24236 L 125.79703,473.74506 L 126.01113,472.24904 L 126.23441,470.75437 L 126.46685,469.2611 L 126.70846,467.76927 L 126.95921,466.27896 L 127.2191,464.79022 L 127.48812,463.3031 L 127.76626,461.81766 L 128.0535,460.33395 L 128.34985,458.85203 L 128.65529,457.37196 L 128.9698,455.8938 L 129.29337,454.41758 L 129.626,452.94339 L 129.96766,451.47126 L 130.31835,450.00125 L 130.67806,448.53343 L 131.04676,447.06784 L 131.42445,445.60454 L 131.81112,444.14358 L 132.20674,442.68502 L 132.6113,441.22892 L 133.02478,439.77533 L 133.44718,438.32431 L 133.87848,436.8759 L 134.31865,435.43016 L 134.76769,433.98716 L 135.22557,432.54693 L 135.69228,431.10955 L 136.1678,429.67505 L 136.65211,428.2435 L 137.1452,426.81495 L 137.64705,425.38945 L 138.15763,423.96705 L 138.67693,422.54782 L 139.20493,421.1318 L 139.74161,419.71904 L 140.28694,418.30961 L 140.84092,416.90354 L 141.40351,415.50091 L 141.97469,414.10175 L 142.55445,412.70612 L 143.14277,411.31408 L 143.73961,409.92567 L 144.34496,408.54095 L 144.9588,407.15997 L 145.5811,405.78278 L 146.21183,404.40944 L 146.85099,403.03999 L 147.49853,401.67449 L 148.15444,400.31299 L 148.81869,398.95554 L 149.49126,397.60219 L 150.17212,396.253 L 150.86124,394.908 L 151.5586,393.56727 L 152.26418,392.23083 L 152.97795,390.89875 L 153.69987,389.57107 L 154.42993,388.24785 L 155.16809,386.92913 L 155.91433,385.61497 L 156.66862,384.30541 L 157.43093,383.0005 L 158.20124,381.7003 L 158.9795,380.40485 L 159.7657,379.11419 L 160.55981,377.82839 L 161.36179,376.54748 L 162.17161,375.27151 L 162.98925,374.00054 L 163.81467,372.73461 L 164.64785,371.47377 L 165.48874,370.21807 L 166.33732,368.96754 L 167.19356,367.72225 L 168.05743,366.48224 L 168.92889,365.24755 L 169.8079,364.01823 L 170.69445,362.79432 L 171.58848,361.57588 L 172.48998,360.36295 L 173.3989,359.15557 L 174.31521,357.95379 L 175.23888,356.75766 L 176.16988,355.56722 L 177.10815,354.38251 L 178.05368,353.20358 L 179.00643,352.03048 L 179.96635,350.86324 L 180.93342,349.70192 L 181.9076,348.54655 L 182.88885,347.39718 L 183.87713,346.25385 L 184.87241,345.11661 L 185.87465,343.98549 L 186.88381,342.86055 L 187.89985,341.74182 L 188.92274,340.62935 L 189.95244,339.52317 L 190.9889,338.42333 L 192.03209,337.32987 L 193.08197,336.24284 L 194.1385,335.16226 L 195.20165,334.08819 L 196.27136,333.02067 L 197.3476,331.95972 L 198.43034,330.9054 L 199.51952,329.85775 L 200.61511,328.81679 L 201.71706,327.78258 L 202.82534,326.75515 L 203.93991,325.73454 L 205.06071,324.72079 L 206.18771,323.71393 L 207.32088,322.71401 L 208.46015,321.72106 L 209.6055,320.73512 L 210.75687,319.75622 L 211.91423,318.78441 L 213.07753,317.81972 L 214.24673,316.86218 L 215.42178,315.91184 L 216.60264,314.96872 L 217.78927,314.03287 L 218.98161,313.10431 L 220.17963,312.18309 L 221.38328,311.26924 L 222.59251,310.36279 L 223.80729,309.46377 L 225.02755,308.57223 L 226.25327,307.68819 L 227.48438,306.81169 L 228.72085,305.94276 L 229.96263,305.08144 L 231.20967,304.22774 L 232.46193,303.38172 L 233.71935,302.5434 L 234.98189,301.7128 L 236.24951,300.88997 L 237.52215,300.07493 L 238.79977,299.26772 L 240.08231,298.46836 L 241.36974,297.67689 L 242.662,296.89333 L 243.95904,296.11771 L 245.26082,295.35007 L 246.56728,294.59043 z"
       transform="translate(361.18347,-58.23799)" />
    <path
       sodipodi:nodetypes="cccc"
       id="path3241"
       d="M 859.00652,242.41586 C 859.00652,242.41586 915.5772,342.7358 915.5772,342.7358 C 915.5772,342.7358 943.56296,326.44099 943.56296,326.44099 C 943.56296,326.44099 859.00652,242.41586 859.00652,242.41586 z"
       style="opacity:1;fill:#00ff00;fill-opacity:1;fill-rule:evenodd;stroke:none;stroke-width:2.02030515999999990;stroke-linecap:square;stroke-linejoin:bevel;stroke-miterlimit:4;stroke-dasharray:none;stroke-dashoffset:40;stroke-opacity:1" />
    <path
       style="opacity:1;fill:#ff0000;fill-opacity:1;fill-rule:evenodd;stroke:none;stroke-width:2.02030515999999990;stroke-linecap:square;stroke-linejoin:bevel;stroke-miterlimit:4;stroke-dasharray:none;stroke-dashoffset:40;stroke-opacity:1"
       d="M 410.76635,88.929242 C 410.76635,88.929242 472.05281,194.96347 472.05281,194.96347 C 472.05281,194.96347 290.1385,298.84723 290.1385,298.84723 C 290.1385,298.84723 410.76635,88.929242 410.76635,88.929242 z"
       id="path3239"
       transform="translate(443.45099,148.48662)"
       sodipodi:nodetypes="cccc" />
    <path
       sodipodi:type="star"
       style="opacity:1;fill:none;fill-opacity:1;fill-rule:evenodd;stroke:#000000;stroke-width:3;stroke-linecap:square;stroke-linejoin:bevel;stroke-miterlimit:4;stroke-dasharray:none;stroke-dashoffset:40;stroke-opacity:1"
       id="path3170"
       sodipodi:sides="6"
       sodipodi:cx="369.71582"
       sodipodi:cy="507.88995"
       sodipodi:r1="246.29707"
       sodipodi:r2="213.29951"
       sodipodi:arg1="-2.0943951"
       sodipodi:arg2="-1.5707963"
       inkscape:flatsided="true"
       inkscape:rounded="0"
       inkscape:randomized="0"
       d="M 246.56728,294.59043 L 492.86436,294.59043 L 616.01289,507.88995 L 492.86436,721.18948 L 246.56728,721.18948 L 123.41875,507.88995 L 246.56728,294.59043 z"
       transform="translate(361.18347,-58.23799)" />
    <text
       xml:space="preserve"
       style="font-size:32px;font-style:italic;font-variant:normal;font-weight:normal;font-stretch:normal;text-align:start;line-height:125%;writing-mode:lr;text-anchor:start;fill:#000000;fill-opacity:1;stroke:none;stroke-width:1px;stroke-linecap:butt;stroke-linejoin:miter;stroke-opacity:1;font-family:Times New Roman;-inkscape-font-specification:Times New Roman Italic"
       x="857.24432"
       y="217.94341"
       id="text3186"
       sodipodi:linespacing="125%"><tspan
         sodipodi:role="line"
         id="tspan3188"
         x="857.24432"
         y="217.94341">A</tspan></text>
    <path
       style="fill:none;fill-rule:evenodd;stroke:#000000;stroke-width:3;stroke-linecap:butt;stroke-linejoin:miter;stroke-opacity:1;stroke-miterlimit:4;stroke-dasharray:none"
       d="M 42.254464,301.18303 L 533.125,301.18303"
       id="path3235"
       transform="translate(443.45099,148.48662)" />
    <path
       style="fill:none;fill-rule:evenodd;stroke:#000000;stroke-width:3;stroke-linecap:butt;stroke-linejoin:bevel;stroke-opacity:1;stroke-miterlimit:4;stroke-dasharray:none"
       d="M 287.85714,301.25 L 410.69663,88.485762 L 410.625,88.482142 L 500.92032,178.23792 L 287.85714,301.25 z"
       id="path3237"
       transform="translate(443.45099,148.48662)" />
    <text
       xml:space="preserve"
       style="font-size:32px;font-style:italic;font-variant:normal;font-weight:normal;font-stretch:normal;text-align:start;line-height:125%;writing-mode:lr;text-anchor:start;fill:#000000;fill-opacity:1;stroke:none;stroke-width:1px;stroke-linecap:butt;stroke-linejoin:miter;stroke-opacity:1;font-family:Times New Roman;-inkscape-font-specification:Times New Roman Italic"
       x="763.56189"
       y="336.80746"
       id="text3243"
       sodipodi:linespacing="125%"><tspan
         sodipodi:role="line"
         id="tspan3245"
         x="763.56189"
         y="336.80746">r</tspan></text>
    <text
       xml:space="preserve"
       style="font-size:32px;font-style:italic;font-variant:normal;font-weight:normal;font-stretch:normal;text-align:start;line-height:125%;writing-mode:lr;text-anchor:start;fill:#000000;fill-opacity:1;stroke:none;stroke-width:1px;stroke-linecap:butt;stroke-linejoin:miter;stroke-opacity:1;font-family:Times New Roman;-inkscape-font-specification:Times New Roman Italic"
       x="709.7066"
       y="482.86758"
       id="text3247"
       sodipodi:linespacing="125%"><tspan
         sodipodi:role="line"
         id="tspan3249"
         x="709.7066"
         y="482.86758">O</tspan></text>
    <text
       xml:space="preserve"
       style="font-size:32px;font-style:italic;font-variant:normal;font-weight:normal;font-stretch:normal;text-align:start;line-height:125%;writing-mode:lr;text-anchor:start;fill:#000000;fill-opacity:1;stroke:none;stroke-width:1px;stroke-linecap:butt;stroke-linejoin:miter;stroke-opacity:1;font-family:Times New Roman;-inkscape-font-specification:Times New Roman Italic"
       x="943.05182"
       y="265.68478"
       id="text3251"
       sodipodi:linespacing="125%"><tspan
         sodipodi:role="line"
         id="tspan3253"
         x="943.05182"
         y="265.68478">m</tspan></text>
    <path
       style="fill:none;fill-rule:evenodd;stroke:#000000;stroke-width:1px;stroke-linecap:butt;stroke-linejoin:miter;stroke-opacity:1"
       d="M 464.92271,142.95801 L 497.6264,118.33554"
       id="path3255"
       transform="translate(443.45099,148.48662)"
       sodipodi:nodetypes="cc" />
    <text
       xml:space="preserve"
       style="font-size:32px;font-style:italic;font-variant:normal;font-weight:normal;font-stretch:normal;text-align:start;line-height:125%;writing-mode:lr;text-anchor:start;fill:#000000;fill-opacity:1;stroke:none;stroke-width:1px;stroke-linecap:butt;stroke-linejoin:miter;stroke-opacity:1;font-family:Times New Roman;-inkscape-font-specification:Times New Roman Italic"
       x="841.88489"
       y="323.71716"
       id="text3257"
       sodipodi:linespacing="125%"><tspan
         sodipodi:role="line"
         id="tspan3259"
         x="841.88489"
         y="323.71716">M</tspan></text>
    <text
       xml:space="preserve"
       style="font-size:32px;font-style:italic;font-variant:normal;font-weight:normal;font-stretch:normal;text-align:start;line-height:125%;writing-mode:lr;text-anchor:start;fill:#000000;fill-opacity:1;stroke:none;stroke-width:1px;stroke-linecap:butt;stroke-linejoin:miter;stroke-opacity:1;font-family:Times New Roman;-inkscape-font-specification:Times New Roman Italic"
       x="953.5166"
       y="336.61023"
       id="text3261"
       sodipodi:linespacing="125%"><tspan
         sodipodi:role="line"
         id="tspan3263"
         x="953.5166"
         y="336.61023">C</tspan></text>
    <text
       xml:space="preserve"
       style="font-size:32px;font-style:italic;font-variant:normal;font-weight:normal;font-stretch:normal;text-align:start;line-height:125%;writing-mode:lr;text-anchor:start;fill:#000000;fill-opacity:1;stroke:none;stroke-width:1px;stroke-linecap:butt;stroke-linejoin:miter;stroke-opacity:1;font-family:Times New Roman;-inkscape-font-specification:Times New Roman Italic"
       x="938.87378"
       y="361.25308"
       id="text3265"
       sodipodi:linespacing="125%"><tspan
         sodipodi:role="line"
         id="tspan3267"
         x="938.87378"
         y="361.25308">j</tspan></text>
    <text
       xml:space="preserve"
       style="font-size:32px;font-style:italic;font-variant:normal;font-weight:normal;font-stretch:normal;text-align:start;line-height:125%;writing-mode:lr;text-anchor:start;fill:#000000;fill-opacity:1;stroke:none;stroke-width:1px;stroke-linecap:butt;stroke-linejoin:miter;stroke-opacity:1;font-family:Times New Roman;-inkscape-font-specification:Times New Roman Italic"
       x="893.87366"
       y="381.6102"
       id="text3269"
       sodipodi:linespacing="125%"><tspan
         sodipodi:role="line"
         id="tspan3271"
         x="893.87366"
         y="381.6102">P</tspan></text>
    <text
       xml:space="preserve"
       style="font-size:32px;font-style:italic;font-variant:normal;font-weight:normal;font-stretch:normal;text-align:start;line-height:125%;writing-mode:lr;text-anchor:start;fill:#000000;fill-opacity:1;stroke:none;stroke-width:1px;stroke-linecap:butt;stroke-linejoin:miter;stroke-opacity:1;font-family:Times New Roman;-inkscape-font-specification:Times New Roman Italic"
       x="838.51654"
       y="422.32452"
       id="text3273"
       sodipodi:linespacing="125%"><tspan
         sodipodi:role="line"
         id="tspan3275"
         x="838.51654"
         y="422.32452">G</tspan></text>
    <text
       xml:space="preserve"
       style="font-size:32px;font-style:italic;font-variant:normal;font-weight:normal;font-stretch:normal;text-align:start;line-height:125%;writing-mode:lr;text-anchor:start;fill:#000000;fill-opacity:1;stroke:none;stroke-width:1px;stroke-linecap:butt;stroke-linejoin:miter;stroke-opacity:1;font-family:Times New Roman;-inkscape-font-specification:Times New Roman Italic"
       x="987.80231"
       y="460.18164"
       id="text3277"
       sodipodi:linespacing="125%"><tspan
         sodipodi:role="line"
         id="tspan3279"
         x="987.80231"
         y="460.18164">B</tspan></text>
  </g>
</svg>
