<?xml version="1.0" encoding="UTF-8" standalone="no"?>
<!-- Created with Inkscape (http://www.inkscape.org/) -->
<svg
   xmlns:dc="http://purl.org/dc/elements/1.1/"
   xmlns:cc="http://creativecommons.org/ns#"
   xmlns:rdf="http://www.w3.org/1999/02/22-rdf-syntax-ns#"
   xmlns:svg="http://www.w3.org/2000/svg"
   xmlns="http://www.w3.org/2000/svg"
   xmlns:sodipodi="http://sodipodi.sourceforge.net/DTD/sodipodi-0.dtd"
   xmlns:inkscape="http://www.inkscape.org/namespaces/inkscape"
   width="650"
   height="650"
   id="svg4010"
   sodipodi:version="0.32"
   inkscape:version="0.46"
   version="1.0"
   sodipodi:docname="Cutcircle.svg"
   inkscape:output_extension="org.inkscape.output.svg.inkscape">
  <defs
     id="defs4012">
    <inkscape:perspective
       sodipodi:type="inkscape:persp3d"
       inkscape:vp_x="0 : 526.18109 : 1"
       inkscape:vp_y="0 : 1000 : 0"
       inkscape:vp_z="744.09448 : 526.18109 : 1"
       inkscape:persp3d-origin="372.04724 : 350.78739 : 1"
       id="perspective4018" />
    <inkscape:perspective
       id="perspective4027"
       inkscape:persp3d-origin="372.04724 : 350.78739 : 1"
       inkscape:vp_z="744.09448 : 526.18109 : 1"
       inkscape:vp_y="0 : 1000 : 0"
       inkscape:vp_x="0 : 526.18109 : 1"
       sodipodi:type="inkscape:persp3d" />
    <inkscape:perspective
       id="perspective4589"
       inkscape:persp3d-origin="372.04724 : 350.78739 : 1"
       inkscape:vp_z="744.09448 : 526.18109 : 1"
       inkscape:vp_y="0 : 1000 : 0"
       inkscape:vp_x="0 : 526.18109 : 1"
       sodipodi:type="inkscape:persp3d" />
  </defs>
  <sodipodi:namedview
     id="base"
     pagecolor="#ffffff"
     bordercolor="#666666"
     borderopacity="1.0"
     gridtolerance="10000"
     guidetolerance="10"
     objecttolerance="10"
     inkscape:pageopacity="0.0"
     inkscape:pageshadow="2"
     inkscape:zoom="0.70710678"
     inkscape:cx="337.28215"
     inkscape:cy="251.45349"
     inkscape:document-units="px"
     inkscape:current-layer="layer1"
     showgrid="false"
     inkscape:window-width="1280"
     inkscape:window-height="968"
     inkscape:window-x="-4"
     inkscape:window-y="-4" />
  <metadata
     id="metadata4015">
    <rdf:RDF>
      <cc:Work
         rdf:about="">
        <dc:format>image/svg+xml</dc:format>
        <dc:type
           rdf:resource="http://purl.org/dc/dcmitype/StillImage" />
      </cc:Work>
    </rdf:RDF>
  </metadata>
  <g
     inkscape:label="Layer 1"
     inkscape:groupmode="layer"
     id="layer1"
     transform="translate(-420.98735,-1605.4215)">
    <rect
       style="opacity:1;fill:#ff0000;fill-opacity:1;fill-rule:evenodd;stroke:#000000;stroke-width:2;stroke-linecap:square;stroke-linejoin:miter;stroke-miterlimit:4;stroke-dasharray:none;stroke-dashoffset:40;stroke-opacity:1"
       id="rect4624"
       width="604.16345"
       height="195.34274"
       x="439.57663"
       y="2057.7461" />
    <path
       style="opacity:1;fill:#0000ff;fill-rule:evenodd;stroke:#000000;stroke-width:2;stroke-linecap:butt;stroke-linejoin:miter;stroke-miterlimit:4;stroke-dasharray:none;stroke-opacity:1"
       d="M 438.95791,2252.9076 L 543.19994,2225.8608 L 641.63239,2253.1728 L 737.73996,2225.84 L 837.48996,2252.84 L 935.73996,2225.965 L 1043.5342,2253.0844"
       id="path4628"
       sodipodi:nodetypes="ccccccc" />
    <path
       style="opacity:1;fill:#00ff00;fill-opacity:1;fill-rule:evenodd;stroke:none;stroke-width:2;stroke-linecap:square;stroke-linejoin:miter;stroke-miterlimit:4;stroke-dasharray:none;stroke-dashoffset:40;stroke-opacity:1"
       d="M 440.17942,2057.8958 C 440.17942,2057.8958 1043.1827,2057.8958 1043.1827,2057.8958 L 1043.1827,2225.5825 L 440.17942,2225.5825 C 440.17942,2225.5825 440.17942,2057.8958 440.17942,2057.8958 z"
       id="path4634"
       sodipodi:nodetypes="ccccc" />
    <path
       transform="translate(435.41553,1633.84)"
       d="M 102.31567,173.61462 L 102.31938,172.40713 L 102.33049,171.1997 L 102.34901,169.99235 L 102.37494,168.78514 L 102.40828,167.57811 L 102.44902,166.37131 L 102.49717,165.16478 L 102.55272,163.95857 L 102.61566,162.75272 L 102.68601,161.54728 L 102.76375,160.3423 L 102.84889,159.13781 L 102.94141,157.93387 L 103.04132,156.73052 L 103.14861,155.52781 L 103.26327,154.32578 L 103.38531,153.12447 L 103.51472,151.92393 L 103.6515,150.72422 L 103.79563,149.52536 L 103.94711,148.32741 L 104.10595,147.13041 L 104.27212,145.93441 L 104.44563,144.73945 L 104.62647,143.54558 L 104.81463,142.35284 L 105.01011,141.16128 L 105.21289,139.97094 L 105.42298,138.78187 L 105.64035,137.59411 L 105.86501,136.4077 L 106.09695,135.2227 L 106.33615,134.03914 L 106.58261,132.85707 L 106.83632,131.67653 L 107.09726,130.49758 L 107.36544,129.32024 L 107.64083,128.14458 L 107.92344,126.97062 L 108.21324,125.79843 L 108.51022,124.62803 L 108.81439,123.45948 L 109.12572,122.29281 L 109.4442,121.12808 L 109.76982,119.96533 L 110.10257,118.80459 L 110.44243,117.64592 L 110.7894,116.48935 L 111.14346,115.33494 L 111.5046,114.18272 L 111.8728,113.03273 L 112.24805,111.88503 L 112.63033,110.73965 L 113.01963,109.59664 L 113.41594,108.45604 L 113.81924,107.3179 L 114.22952,106.18224 L 114.64676,105.04913 L 115.07094,103.9186 L 115.50205,102.79069 L 115.94007,101.66545 L 116.38499,100.54292 L 116.83679,99.423142 L 117.29545,98.306154 L 117.76096,97.192003 L 118.2333,96.080728 L 118.71244,94.972372 L 119.19837,93.866978 L 119.69108,92.764585 L 120.19055,91.665237 L 120.69675,90.568974 L 121.20966,89.475838 L 121.72928,88.385869 L 122.25557,87.299109 L 122.78852,86.215599 L 123.32811,85.13538 L 123.87432,84.058492 L 124.42712,82.984975 L 124.98651,81.914871 L 125.55244,80.848219 L 126.12491,79.785059 L 126.7039,78.725433 L 127.28937,77.669378 L 127.88131,76.616937 L 128.4797,75.568147 L 129.08452,74.523048 L 129.69573,73.48168 L 130.31333,72.444082 L 130.93727,71.410293 L 131.56755,70.380352 L 132.20414,69.354298 L 132.84701,68.332169 L 133.49614,67.314004 L 134.15151,66.299841 L 134.81309,65.289718 L 135.48085,64.283674 L 136.15477,63.281746 L 136.83483,62.283972 L 137.52099,61.29039 L 138.21324,60.301036 L 138.91155,59.315949 L 139.61589,58.335165 L 140.32623,57.358721 L 141.04256,56.386654 L 141.76483,55.419001 L 142.49303,54.455797 L 143.22712,53.49708 L 143.96708,52.542886 L 144.71288,51.593249 L 145.4645,50.648207 L 146.2219,49.707794 L 146.98505,48.772046 L 147.75394,47.840999 L 148.52852,46.914687 L 149.30877,45.993145 L 150.09466,45.076407 L 150.88616,44.16451 L 151.68324,43.257486 L 152.48587,42.355369 L 153.29402,41.458195 L 154.10767,40.565996 L 154.92677,39.678807 L 155.7513,38.79666 L 156.58122,37.919589 L 157.41651,37.047627 L 158.25714,36.180806 L 159.10307,35.31916 L 159.95427,34.46272 L 160.81071,33.61152 L 161.67236,32.76559 L 162.53918,31.924964 L 163.41114,31.089672 L 164.28821,30.259746 L 165.17036,29.435217 L 166.05754,28.616116 L 166.94974,27.802475 L 167.84692,26.994323 L 168.74903,26.191692 L 169.65606,25.39461 L 170.56796,24.60311 L 171.48469,23.817219 L 172.40623,23.036968 L 173.33255,22.262387 L 174.26359,21.493503 L 175.19934,20.730347 L 176.13975,19.972947 L 177.0848,19.221332 L 178.03443,18.475529 L 178.98863,17.735567 L 179.94734,17.001474 L 180.91055,16.273278 L 181.8782,15.551005 L 182.85027,14.834683 L 183.82671,14.124339 L 184.8075,13.42 L 185.79258,12.721692 L 186.78194,12.029442 L 187.77552,11.343275 L 188.77329,10.663218 L 189.77522,9.9892957 L 190.78127,9.3215338 L 191.79139,8.6599575 L 192.80555,8.0045916 L 193.82372,7.3554608 L 194.84584,6.7125896 L 195.8719,6.0760021 L 196.90184,5.4457224 L 197.93563,4.8217742 L 198.97323,4.2041809 L 200.01459,3.5929658 L 201.05969,2.9881519 L 202.10848,2.389762 L 203.16092,1.7978186 L 204.21698,1.2123441 L 205.27661,0.63336036 L 206.33976,0.060889297 L 207.40642,-0.50504757 L 208.47652,-1.0644289 L 209.55004,-1.6172337 L 210.62693,-2.1634411 L 211.70714,-2.7030306 L 212.79065,-3.2359818 L 213.87741,-3.7622747 L 214.96738,-4.2818894 L 216.06052,-4.7948065 L 217.15678,-5.3010065 L 218.25613,-5.8004705 L 219.35852,-6.2931796 L 220.46392,-6.7791152 L 221.57227,-7.2582592 L 222.68355,-7.7305933 L 223.7977,-8.1961 L 224.91469,-8.6547615 L 226.03447,-9.1065607 L 227.157,-9.5514806 L 228.28224,-9.9895044 L 229.41015,-10.420616 L 230.54068,-10.844798 L 231.67379,-11.262035 L 232.80944,-11.672313 L 233.94759,-12.075614 L 235.08819,-12.471924 L 236.2312,-12.861228 L 237.37658,-13.243511 L 238.52428,-13.618759 L 239.67426,-13.986958 L 240.82648,-14.348094 L 241.9809,-14.702153 L 243.13746,-15.049122 L 244.29613,-15.388988 L 245.45687,-15.721738 L 246.61963,-16.04736 L 247.78436,-16.365841 L 248.95102,-16.677169 L 250.11957,-16.981333 L 251.28997,-17.278321 L 252.46217,-17.568122 L 253.63612,-17.850726 L 254.81179,-18.12612 L 255.98912,-18.394296 L 257.16808,-18.655243 L 258.34861,-18.908951 L 259.53068,-19.15541 L 260.71424,-19.394612 L 261.89925,-19.626547 L 263.08565,-19.851207 L 264.27341,-20.068583 L 265.46249,-20.278666 L 266.65283,-20.48145 L 267.84439,-20.676926 L 269.03713,-20.865088 L 270.231,-21.045927 L 271.42596,-21.219437 L 272.62196,-21.385612 L 273.81895,-21.544445 L 275.0169,-21.695931 L 276.21576,-21.840063 L 277.41548,-21.976837 L 278.61601,-22.106246 L 279.81732,-22.228287 L 281.01935,-22.342955 L 282.22207,-22.450244 L 283.42541,-22.550152 L 284.62935,-22.642675 L 285.83384,-22.727809 L 287.03882,-22.80555 L 288.24426,-22.875896 L 289.45011,-22.938845 L 290.65632,-22.994393 L 291.86285,-23.042539 L 293.06965,-23.083282 L 294.27668,-23.116618 L 295.48389,-23.142548 L 296.69124,-23.16107 L 297.89868,-23.172183 L 299.10616,-23.175888 L 300.31365,-23.172184 L 301.52108,-23.16107 L 302.72843,-23.142548 L 303.93564,-23.116619 L 305.14267,-23.083282 L 306.34947,-23.04254 L 307.556,-22.994394 L 308.76221,-22.938846 L 309.96806,-22.875897 L 311.1735,-22.805551 L 312.37848,-22.72781 L 313.58297,-22.642676 L 314.78691,-22.550154 L 315.99026,-22.450246 L 317.19297,-22.342956 L 318.395,-22.228289 L 319.59631,-22.106248 L 320.79684,-21.976839 L 321.99656,-21.840065 L 323.19542,-21.695933 L 324.39337,-21.544448 L 325.59037,-21.385614 L 326.78637,-21.21944 L 327.98132,-21.045929 L 329.1752,-20.86509 L 330.36793,-20.676929 L 331.5595,-20.481453 L 332.74984,-20.27867 L 333.93891,-20.068586 L 335.12667,-19.85121 L 336.31308,-19.626551 L 337.49808,-19.394616 L 338.68164,-19.155414 L 339.86371,-18.908955 L 341.04425,-18.655247 L 342.2232,-18.3943 L 343.40054,-18.126125 L 344.5762,-17.85073 L 345.75015,-17.568127 L 346.92235,-17.278326 L 348.09275,-16.981338 L 349.2613,-16.677174 L 350.42797,-16.365845 L 351.5927,-16.047364 L 352.75545,-15.721743 L 353.91619,-15.388993 L 355.07486,-15.049127 L 356.23143,-14.702158 L 357.38584,-14.348099 L 358.53806,-13.986963 L 359.68805,-13.618765 L 360.83575,-13.243517 L 361.98113,-12.861233 L 363.12414,-12.47193 L 364.26474,-12.07562 L 365.40288,-11.672319 L 366.53853,-11.262042 L 367.67165,-10.844804 L 368.80218,-10.420622 L 369.93009,-9.9895109 L 371.05533,-9.5514873 L 372.17786,-9.1065675 L 373.29764,-8.6547684 L 374.41462,-8.1961069 L 375.52878,-7.7306004 L 376.64005,-7.2582663 L 377.74841,-6.7791225 L 378.8538,-6.293187 L 379.95619,-5.800478 L 381.05554,-5.3010141 L 382.15181,-4.7948142 L 383.24494,-4.2818973 L 384.33491,-3.7622826 L 385.42167,-3.2359898 L 386.50518,-2.7030387 L 387.5854,-2.1634494 L 388.66229,-1.617242 L 389.7358,-1.0644373 L 390.80591,-0.50505608 L 391.87256,0.060880687 L 392.93572,0.63335165 L 393.99535,1.2123353 L 395.0514,1.7978097 L 396.10384,2.389753 L 397.15263,2.9881428 L 398.19773,3.5929566 L 399.2391,4.2041716 L 400.2767,4.8217648 L 401.31049,5.4457129 L 402.34043,6.0759925 L 403.36648,6.7125799 L 404.38861,7.355451 L 405.40678,8.0045817 L 406.42094,8.6599475 L 407.43106,9.3215238 L 408.43711,9.9892856 L 409.43903,10.663208 L 410.43681,11.343265 L 411.43039,12.029432 L 412.41974,12.721682 L 413.40483,13.41999 L 414.38561,14.124329 L 415.36206,14.834672 L 416.33413,15.550994 L 417.30178,16.273267 L 418.26498,17.001463 L 419.2237,17.735556 L 420.17789,18.475518 L 421.12753,19.221321 L 422.07257,19.972936 L 423.01299,20.730336 L 423.94873,21.493492 L 424.87978,22.262375 L 425.80609,23.036957 L 426.72763,23.817207 L 427.64437,24.603098 L 428.55627,25.394598 L 429.46329,26.191679 L 430.36541,26.994311 L 431.26258,27.802463 L 432.15478,28.616104 L 433.04197,29.435204 L 433.92412,30.259733 L 434.80119,31.089659 L 435.67315,31.924951 L 436.53997,32.765578 L 437.40162,33.611507 L 438.25806,34.462708 L 439.10926,35.319147 L 439.95519,36.180793 L 440.79582,37.047614 L 441.63111,37.919576 L 442.46103,38.796647 L 443.28556,39.678794 L 444.10466,40.565983 L 444.9183,41.458182 L 445.72646,42.355356 L 446.52909,43.257472 L 447.32617,44.164496 L 448.11767,45.076394 L 448.90356,45.993131 L 449.68381,46.914673 L 450.45839,47.840985 L 451.22728,48.772032 L 451.99043,49.70778 L 452.74783,50.648193 L 453.49945,51.593235 L 454.24525,52.542871 L 454.98521,53.497066 L 455.7193,54.455783 L 456.4475,55.418986 L 457.16977,56.386639 L 457.8861,57.358706 L 458.59644,58.33515 L 459.30078,59.315934 L 459.99909,60.301021 L 460.69134,61.290375 L 461.3775,62.283957 L 462.05756,63.281731 L 462.73148,64.283659 L 463.39925,65.289703 L 464.06082,66.299826 L 464.71619,67.313989 L 465.36532,68.332154 L 466.00819,69.354282 L 466.64478,70.380337 L 467.27506,71.410278 L 467.89901,72.444066 L 468.5166,73.481664 L 469.12781,74.523032 L 469.73263,75.568131 L 470.33102,76.616921 L 470.92296,77.669363 L 471.50844,78.725417 L 472.08742,79.785043 L 472.65989,80.848203 L 473.22583,81.914855 L 473.78521,82.984959 L 474.33801,84.058475 L 474.88422,85.135364 L 475.42381,86.215583 L 475.95676,87.299093 L 476.48305,88.385853 L 477.00267,89.475821 L 477.51559,90.568958 L 478.02179,91.66522 L 478.52125,92.764569 L 479.01396,93.866961 L 479.49989,94.972356 L 479.97904,96.080711 L 480.45137,97.191986 L 480.91688,98.306138 L 481.37554,99.423125 L 481.82734,100.54291 L 482.27226,101.66544 L 482.71028,102.79068 L 483.14139,103.91858 L 483.56558,105.04912 L 483.98281,106.18223 L 484.39309,107.31788 L 484.79639,108.45603 L 485.1927,109.59663 L 485.58201,110.73964 L 485.96429,111.88501 L 486.33954,113.03272 L 486.70774,114.1827 L 487.06887,115.33492 L 487.42293,116.48933 L 487.7699,117.6459 L 488.10977,118.80457 L 488.44252,119.96531 L 488.76814,121.12806 L 489.08662,122.2928 L 489.39795,123.45946 L 489.70211,124.62801 L 489.9991,125.79841 L 490.2889,126.97061 L 490.57151,128.14456 L 490.8469,129.32023 L 491.11508,130.49756 L 491.37602,131.67651 L 491.62973,132.85705 L 491.87619,134.03912 L 492.11539,135.22268 L 492.34733,136.40768 L 492.57199,137.59409 L 492.78936,138.78185 L 492.99945,139.97092 L 493.20223,141.16126 L 493.39771,142.35283 L 493.58587,143.54557 L 493.76671,144.73944 L 493.94022,145.93439 L 494.10639,147.1304 L 494.26522,148.32739 L 494.41671,149.52534 L 494.56084,150.7242 L 494.69762,151.92392 L 494.82703,153.12445 L 494.94907,154.32576 L 495.06373,155.52779 L 495.17102,156.7305 L 495.27093,157.93385 L 495.36345,159.13779 L 495.44859,160.34228 L 495.52633,161.54726 L 495.59668,162.7527 L 495.65962,163.95855 L 495.71517,165.16476 L 495.76332,166.37129 L 495.80406,167.57809 L 495.8374,168.78512 L 495.86333,169.99233 L 495.88185,171.19968 L 495.89296,172.40712 L 495.89667,173.6146 L 495.89296,174.82208 L 495.88185,176.02952 L 495.86333,177.23687 L 495.8374,178.44408 L 495.80406,179.65111 L 495.76332,180.85791 L 495.71517,182.06444 L 495.65963,183.27065 L 495.59668,184.4765 L 495.52633,185.68194 L 495.44859,186.88692 L 495.36346,188.09141 L 495.27093,189.29535 L 495.17103,190.4987 L 495.06374,191.70141 L 494.94907,192.90344 L 494.82703,194.10475 L 494.69762,195.30528 L 494.56084,196.505 L 494.41671,197.70386 L 494.26523,198.90181 L 494.10639,200.0988 L 493.94022,201.2948 L 493.76671,202.48976 L 493.58587,203.68363 L 493.39771,204.87637 L 493.20223,206.06793 L 492.99945,207.25827 L 492.78937,208.44735 L 492.57199,209.63511 L 492.34733,210.82152 L 492.1154,212.00652 L 491.87619,213.19008 L 491.62973,214.37215 L 491.37603,215.55269 L 491.11508,216.73164 L 490.8469,217.90897 L 490.57151,219.08464 L 490.28891,220.25859 L 489.99911,221.43079 L 489.70212,222.60119 L 489.39795,223.76974 L 489.08662,224.9364 L 488.76814,226.10114 L 488.44252,227.26389 L 488.10977,228.42463 L 487.76991,229.5833 L 487.42294,230.73987 L 487.06888,231.89428 L 486.70774,233.0465 L 486.33954,234.19648 L 485.9643,235.34419 L 485.58201,236.48956 L 485.19271,237.63257 L 484.7964,238.77317 L 484.3931,239.91132 L 483.98282,241.04697 L 483.56558,242.18009 L 483.1414,243.31062 L 482.71029,244.43852 L 482.27227,245.56376 L 481.82735,246.6863 L 481.37555,247.80608 L 480.91689,248.92306 L 480.45138,250.03722 L 479.97905,251.14849 L 479.4999,252.25685 L 479.01397,253.36224 L 478.52126,254.46463 L 478.02179,255.56398 L 477.51559,256.66024 L 477.00268,257.75338 L 476.48306,258.84335 L 475.95677,259.93011 L 475.42382,261.01362 L 474.88423,262.09384 L 474.33802,263.17073 L 473.78522,264.24424 L 473.22584,265.31435 L 472.6599,266.381 L 472.08743,267.44416 L 471.50844,268.50378 L 470.92297,269.55984 L 470.33103,270.61228 L 469.73264,271.66107 L 469.12782,272.70617 L 468.51661,273.74754 L 467.89901,274.78514 L 467.27507,275.81892 L 466.64479,276.84887 L 466.0082,277.87492 L 465.36533,278.89705 L 464.7162,279.91521 L 464.06083,280.92938 L 463.39926,281.9395 L 462.73149,282.94554 L 462.05757,283.94747 L 461.37751,284.94525 L 460.69135,285.93883 L 459.9991,286.92818 L 459.30079,287.91327 L 458.59645,288.89405 L 457.88611,289.8705 L 457.16979,290.84256 L 456.44751,291.81022 L 455.71932,292.77342 L 454.98522,293.73214 L 454.24526,294.68633 L 453.49946,295.63597 L 452.74784,296.58101 L 451.99044,297.52142 L 451.22729,298.45717 L 450.4584,299.38822 L 449.68382,300.31453 L 448.90357,301.23607 L 448.11768,302.15281 L 447.32618,303.06471 L 446.5291,303.97173 L 445.72647,304.87385 L 444.91832,305.77102 L 444.10468,306.66322 L 443.28557,307.55041 L 442.46105,308.43256 L 441.63112,309.30963 L 440.79583,310.18159 L 439.9552,311.04841 L 439.10927,311.91006 L 438.25807,312.7665 L 437.40163,313.6177 L 436.53999,314.46363 L 435.67317,315.30425 L 434.8012,316.13955 L 433.92413,316.96947 L 433.04199,317.794 L 432.1548,318.6131 L 431.2626,319.42674 L 430.36542,320.23489 L 429.46331,321.03753 L 428.55628,321.83461 L 427.64439,322.62611 L 426.72765,323.412 L 425.80611,324.19225 L 424.87979,324.96683 L 423.94875,325.73571 L 423.013,326.49887 L 422.07259,327.25627 L 421.12754,328.00789 L 420.17791,328.75369 L 419.22371,329.49365 L 418.265,330.22774 L 417.30179,330.95594 L 416.33414,331.67821 L 415.36207,332.39453 L 414.38563,333.10488 L 413.40485,333.80922 L 412.41976,334.50753 L 411.4304,335.19978 L 410.43682,335.88594 L 409.43905,336.566 L 408.43712,337.23992 L 407.43108,337.90768 L 406.42095,338.56926 L 405.40679,339.22463 L 404.38863,339.87376 L 403.3665,340.51663 L 402.34044,341.15322 L 401.3105,341.7835 L 400.27671,342.40744 L 399.23912,343.02504 L 398.19775,343.63625 L 397.15265,344.24107 L 396.10386,344.83946 L 395.05142,345.4314 L 393.99536,346.01687 L 392.93574,346.59586 L 391.87258,347.16833 L 390.80592,347.73427 L 389.73582,348.29365 L 388.6623,348.84645 L 387.58542,349.39266 L 386.5052,349.93225 L 385.42169,350.4652 L 384.33493,350.99149 L 383.24496,351.51111 L 382.15182,352.02402 L 381.05556,352.53022 L 379.95621,353.02969 L 378.85382,353.5224 L 377.74842,354.00833 L 376.64007,354.48748 L 375.52879,354.95981 L 374.41464,355.42532 L 373.29765,355.88398 L 372.17787,356.33578 L 371.05534,356.7807 L 369.9301,357.21872 L 368.8022,357.64983 L 367.67166,358.07402 L 366.53855,358.49125 L 365.4029,358.90153 L 364.26475,359.30483 L 363.12415,359.70114 L 361.98114,360.09045 L 360.83576,360.47273 L 359.68806,360.84798 L 358.53808,361.21618 L 357.38586,361.57731 L 356.23145,361.93137 L 355.07488,362.27834 L 353.91621,362.61821 L 352.75547,362.95096 L 351.59272,363.27658 L 350.42798,363.59506 L 349.26132,363.90639 L 348.09277,364.21055 L 346.92237,364.50754 L 345.75017,364.79734 L 344.57622,365.07994 L 343.40055,365.35534 L 342.22322,365.62351 L 341.04427,365.88446 L 339.86373,366.13817 L 338.68166,366.38463 L 337.4981,366.62383 L 336.3131,366.85576 L 335.12669,367.08042 L 333.93893,367.2978 L 332.74985,367.50788 L 331.55951,367.71067 L 330.36795,367.90614 L 329.17521,368.09431 L 327.98134,368.27514 L 326.78638,368.44865 L 325.59038,368.61483 L 324.39339,368.77366 L 323.19544,368.92515 L 321.99658,369.06928 L 320.79686,369.20605 L 319.59633,369.33546 L 318.39502,369.4575 L 317.19299,369.57217 L 315.99028,369.67946 L 314.78693,369.77937 L 313.58299,369.87189 L 312.3785,369.95703 L 311.17352,370.03477 L 309.96808,370.10511 L 308.76223,370.16806 L 307.55602,370.22361 L 306.34949,370.27176 L 305.14269,370.3125 L 303.93566,370.34584 L 302.72845,370.37177 L 301.5211,370.39029 L 300.31366,370.4014 L 299.10618,370.40511 L 297.8987,370.4014 L 296.69126,370.39029 L 295.48391,370.37177 L 294.2767,370.34584 L 293.06967,370.3125 L 291.86287,370.27176 L 290.65634,370.22361 L 289.45013,370.16806 L 288.24428,370.10511 L 287.03884,370.03477 L 285.83386,369.95703 L 284.62937,369.87189 L 283.42543,369.77937 L 282.22208,369.67946 L 281.01937,369.57217 L 279.81734,369.45751 L 278.61603,369.33547 L 277.4155,369.20606 L 276.21578,369.06928 L 275.01692,368.92515 L 273.81897,368.77367 L 272.62198,368.61483 L 271.42597,368.44866 L 270.23102,368.27515 L 269.03715,368.09431 L 267.84441,367.90615 L 266.65284,367.71067 L 265.4625,367.50789 L 264.27343,367.2978 L 263.08567,367.08043 L 261.89926,366.85577 L 260.71426,366.62383 L 259.5307,366.38463 L 258.34863,366.13817 L 257.16809,365.88446 L 255.98914,365.62352 L 254.8118,365.35534 L 253.63614,365.07995 L 252.46219,364.79734 L 251.28999,364.50754 L 250.11959,364.21056 L 248.95104,363.90639 L 247.78438,363.59506 L 246.61964,363.27658 L 245.45689,362.95096 L 244.29615,362.61821 L 243.13748,362.27834 L 241.98091,361.93138 L 240.8265,361.57732 L 239.67428,361.21618 L 238.5243,360.84798 L 237.37659,360.47273 L 236.23122,360.09045 L 235.08821,359.70115 L 233.9476,359.30484 L 232.80946,358.90154 L 231.67381,358.49126 L 230.54069,358.07402 L 229.41016,357.64984 L 228.28226,357.21873 L 227.15702,356.7807 L 226.03448,356.33579 L 224.9147,355.88399 L 223.79772,355.42532 L 222.68356,354.95982 L 221.57229,354.48748 L 220.46393,354.00834 L 219.35854,353.5224 L 218.25615,353.0297 L 217.1568,352.53023 L 216.06054,352.02403 L 214.9674,351.51111 L 213.87743,350.9915 L 212.79067,350.46521 L 211.70716,349.93226 L 210.62694,349.39267 L 209.55005,348.84646 L 208.47654,348.29365 L 207.40643,347.73427 L 206.33978,347.16834 L 205.27662,346.59587 L 204.21699,346.01688 L 203.16094,345.43141 L 202.1085,344.83946 L 201.05971,344.24107 L 200.01461,343.63626 L 198.97324,343.02505 L 197.93564,342.40745 L 196.90186,341.7835 L 195.87191,341.15322 L 194.84586,340.51664 L 193.82373,339.87377 L 192.80557,339.22464 L 191.7914,338.56927 L 190.78128,337.90769 L 189.77524,337.23993 L 188.77331,336.56601 L 187.77553,335.88595 L 186.78195,335.19979 L 185.7926,334.50754 L 184.80751,333.80923 L 183.82673,333.10489 L 182.85028,332.39455 L 181.87822,331.67822 L 180.91056,330.95595 L 179.94736,330.22775 L 178.98864,329.49366 L 178.03445,328.7537 L 177.08481,328.0079 L 176.13977,327.25628 L 175.19936,326.49888 L 174.26361,325.73573 L 173.33256,324.96684 L 172.40625,324.19226 L 171.48471,323.41201 L 170.56797,322.62612 L 169.65607,321.83462 L 168.74905,321.03754 L 167.84693,320.23491 L 166.94976,319.42675 L 166.05756,318.61311 L 165.17037,317.79401 L 164.28822,316.96948 L 163.41115,316.13956 L 162.53919,315.30427 L 161.67237,314.46364 L 160.81072,313.61771 L 159.95428,312.76651 L 159.10308,311.91007 L 158.25715,311.04842 L 157.41653,310.1816 L 156.58123,309.30964 L 155.75131,308.43257 L 154.92678,307.55042 L 154.10768,306.66323 L 153.29404,305.77104 L 152.48588,304.87386 L 151.68325,303.97175 L 150.88617,303.06472 L 150.09467,302.15282 L 149.30878,301.23609 L 148.52853,300.31454 L 147.75395,299.38823 L 146.98507,298.45719 L 146.22191,297.52144 L 145.46451,296.58103 L 144.71289,295.63598 L 143.96709,294.68635 L 143.22713,293.73215 L 142.49304,292.77343 L 141.76484,291.81023 L 141.04257,290.84258 L 140.32625,289.87051 L 139.6159,288.89407 L 138.91156,287.91328 L 138.21325,286.9282 L 137.521,285.93884 L 136.83484,284.94526 L 136.15478,283.94749 L 135.48086,282.94556 L 134.8131,281.93951 L 134.15152,280.92939 L 133.49615,279.91523 L 132.84702,278.89706 L 132.20415,277.87494 L 131.56756,276.84888 L 130.93728,275.81894 L 130.31334,274.78515 L 129.69574,273.74755 L 129.08453,272.70619 L 128.47971,271.66109 L 127.88132,270.6123 L 127.28938,269.55985 L 126.70391,268.5038 L 126.12492,267.44417 L 125.55245,266.38101 L 124.98651,265.31436 L 124.42713,264.24426 L 123.87433,263.17074 L 123.32812,262.09385 L 122.78853,261.01363 L 122.25558,259.93012 L 121.72929,258.84336 L 121.20967,257.7534 L 120.69676,256.66026 L 120.19056,255.564 L 119.69109,254.46465 L 119.19838,253.36226 L 118.71245,252.25686 L 118.2333,251.14851 L 117.76097,250.03723 L 117.29546,248.92308 L 116.8368,247.80609 L 116.385,246.68631 L 115.94008,245.56378 L 115.50206,244.43854 L 115.07095,243.31063 L 114.64676,242.1801 L 114.22953,241.04699 L 113.81925,239.91134 L 113.41595,238.77319 L 113.01964,237.63259 L 112.63033,236.48958 L 112.24805,235.3442 L 111.8728,234.1965 L 111.5046,233.04652 L 111.14347,231.8943 L 110.78941,230.73988 L 110.44244,229.58332 L 110.10257,228.42465 L 109.76982,227.26391 L 109.4442,226.10115 L 109.12572,224.93642 L 108.81439,223.76976 L 108.51023,222.6012 L 108.21324,221.43081 L 107.92344,220.25861 L 107.64084,219.08466 L 107.36544,217.90899 L 107.09727,216.73166 L 106.83632,215.5527 L 106.58261,214.37217 L 106.33615,213.1901 L 106.09695,212.00654 L 105.86501,210.82153 L 105.64036,209.63513 L 105.42298,208.44737 L 105.2129,207.25829 L 105.01011,206.06795 L 104.81464,204.87639 L 104.62647,203.68365 L 104.44564,202.48978 L 104.27212,201.29482 L 104.10595,200.09882 L 103.94712,198.90182 L 103.79563,197.70388 L 103.6515,196.50502 L 103.51473,195.3053 L 103.38532,194.10477 L 103.26327,192.90346 L 103.14861,191.70143 L 103.04132,190.49871 L 102.94141,189.29536 L 102.84889,188.09142 L 102.76375,186.88694 L 102.68601,185.68196 L 102.61567,184.47652 L 102.55272,183.27067 L 102.49717,182.06446 L 102.44902,180.85793 L 102.40828,179.65113 L 102.37494,178.4441 L 102.34901,177.23689 L 102.33049,176.02954 L 102.31938,174.8221 L 102.31567,173.61462 z"
       inkscape:randomized="0"
       inkscape:rounded="0"
       inkscape:flatsided="true"
       sodipodi:arg2="-3.1385247"
       sodipodi:arg1="-3.1415927"
       sodipodi:r2="170.42557"
       sodipodi:r1="196.7905"
       sodipodi:cy="173.61461"
       sodipodi:cx="299.10617"
       sodipodi:sides="1024"
       id="path4618"
       style="opacity:1;fill:#ffffff;fill-opacity:1;fill-rule:evenodd;stroke:#000000;stroke-width:2;stroke-linecap:square;stroke-linejoin:miter;stroke-miterlimit:4;stroke-dasharray:none;stroke-dashoffset:40;stroke-opacity:1"
       sodipodi:type="star" />
    <g
       id="g4613"
       transform="translate(-12.970568,1448.1921)"
       style="opacity:1;stroke-width:2;stroke-miterlimit:4;stroke-dasharray:none">
      <path
         sodipodi:nodetypes="cccccccc"
         transform="translate(36.142853,185.64789)"
         id="path4609"
         d="M 613.09656,344.01388 L 540.75259,271.78585 C 540.75259,271.78585 514.6112,173.68954 514.6112,173.68954 C 514.6112,173.68954 907.88485,173.90052 907.88485,173.90052 L 881.94236,272.12282 L 809.66035,343.90669 C 809.66035,343.90669 711.43048,370.26934 711.43048,370.26934 L 613.09656,344.01388 z"
         style="opacity:1;fill:#ff0000;fill-opacity:1;fill-rule:evenodd;stroke:none;stroke-width:2;stroke-linecap:square;stroke-linejoin:miter;stroke-miterlimit:4;stroke-dasharray:none;stroke-dashoffset:40;stroke-opacity:1" />
      <path
         style="opacity:1;fill:#0000ff;fill-opacity:1;fill-rule:evenodd;stroke:none;stroke-width:2;stroke-linecap:square;stroke-linejoin:miter;stroke-miterlimit:4;stroke-dasharray:none;stroke-dashoffset:40;stroke-opacity:1"
         d="M 649.23941,188.69919 L 576.89544,260.92722 C 576.89544,260.92722 550.75405,359.02353 550.75405,359.02353 C 550.75405,359.02353 944.0277,358.81255 944.0277,358.81255 L 918.08521,260.59025 L 845.8032,188.80638 C 845.8032,188.80638 747.57333,162.44373 747.57333,162.44373 L 649.23941,188.69919 z"
         id="path4611"
         sodipodi:nodetypes="cccccccc" />
      <path
         sodipodi:type="star"
         style="opacity:1;fill:none;fill-opacity:1;fill-rule:evenodd;stroke:#000000;stroke-width:2;stroke-linecap:square;stroke-linejoin:miter;stroke-miterlimit:4;stroke-dasharray:none;stroke-dashoffset:40;stroke-opacity:1"
         id="path4607"
         sodipodi:sides="12"
         sodipodi:cx="299.10617"
         sodipodi:cy="173.61461"
         sodipodi:r1="196.7905"
         sodipodi:r2="170.42557"
         sodipodi:arg1="-3.1415927"
         sodipodi:arg2="-2.8797933"
         inkscape:flatsided="true"
         inkscape:rounded="0"
         inkscape:randomized="0"
         d="M 102.31567,173.61462 L 128.6806,75.219368 L 200.71091,3.1890439 L 299.10616,-23.175888 L 397.50141,3.1890347 L 469.53174,75.219352 L 495.89667,173.6146 L 469.53174,272.00985 L 397.50143,344.04017 L 299.10618,370.40511 L 200.71093,344.04018 L 128.68061,272.00987 L 102.31567,173.61462 z"
         transform="translate(448.3861,185.64789)" />
    </g>
    <path
       sodipodi:type="star"
       style="opacity:1;fill:#00ff00;fill-opacity:1;fill-rule:evenodd;stroke:#000000;stroke-width:2;stroke-linecap:square;stroke-linejoin:miter;stroke-miterlimit:4;stroke-dasharray:none;stroke-dashoffset:40;stroke-opacity:1"
       id="path4597"
       sodipodi:sides="6"
       sodipodi:cx="299.10617"
       sodipodi:cy="173.61461"
       sodipodi:r1="196.7905"
       sodipodi:r2="170.42557"
       sodipodi:arg1="-3.1415927"
       sodipodi:arg2="-2.6179939"
       inkscape:flatsided="true"
       inkscape:rounded="0"
       inkscape:randomized="0"
       d="M 102.31567,173.61462 L 200.71091,3.1890439 L 397.50141,3.1890347 L 495.89667,173.6146 L 397.50143,344.04017 L 200.71093,344.04018 L 102.31567,173.61462 z"
       transform="translate(435.41553,1633.84)" />
    <path
       style="opacity:1;fill:none;fill-rule:evenodd;stroke:#000000;stroke-width:2;stroke-linecap:butt;stroke-linejoin:miter;stroke-miterlimit:4;stroke-dasharray:none;stroke-opacity:1"
       d="M 832.79297,1977.537 L 636.40511,1637.3832"
       id="path4605" />
    <path
       id="path4603"
       d="M 636.40511,1977.537 L 832.79297,1637.3832"
       style="opacity:1;fill:none;fill-rule:evenodd;stroke:#000000;stroke-width:2;stroke-linecap:butt;stroke-linejoin:miter;stroke-miterlimit:4;stroke-dasharray:none;stroke-opacity:1" />
    <path
       style="opacity:1;fill:none;fill-rule:evenodd;stroke:#000000;stroke-width:2;stroke-linecap:butt;stroke-linejoin:miter;stroke-miterlimit:4;stroke-dasharray:none;stroke-opacity:1"
       d="M 538.21119,1807.4601 L 930.98691,1807.4601"
       id="path4599" />
    <path
       id="path4620"
       d="M 734.59905,1807.8221 L 734.59905,2004.0981"
       style="opacity:1;fill:none;fill-rule:evenodd;stroke:#000000;stroke-width:2;stroke-linecap:butt;stroke-linejoin:miter;stroke-miterlimit:4;stroke-dasharray:none;stroke-opacity:1" />
    <path
       style="opacity:1;fill:none;fill-rule:evenodd;stroke:#000000;stroke-width:2;stroke-linecap:butt;stroke-linejoin:miter;stroke-miterlimit:4;stroke-dasharray:none;stroke-opacity:1"
       d="M 636.14688,1978.0199 L 636.14688,2004.1828 L 832.85529,2004.1828 L 832.85529,1977.7105"
       id="path4622"
       sodipodi:nodetypes="cccc" />
    <path
       id="path4630"
       d="M 439.69847,2057.5622 L 543.12399,2224.9532 L 641.87642,2058.6678 L 737.74854,2224.801 L 837.25417,2058.7318 L 935.76224,2225.1638 L 1043.653,2057.4815"
       style="opacity:1;fill:none;fill-rule:evenodd;stroke:#000000;stroke-width:2;stroke-linecap:butt;stroke-linejoin:miter;stroke-miterlimit:4;stroke-dasharray:none;stroke-opacity:1"
       sodipodi:nodetypes="ccccccc" />
    <path
       style="opacity:1;fill:none;fill-rule:evenodd;stroke:#000000;stroke-width:2;stroke-linecap:butt;stroke-linejoin:miter;stroke-miterlimit:4;stroke-dasharray:none;stroke-opacity:1"
       d="M 439.0463,2225.8608 L 1043.3575,2225.8608"
       id="path4632" />
    <path
       style="opacity:1;fill:none;fill-rule:evenodd;stroke:#000000;stroke-width:2;stroke-linecap:butt;stroke-linejoin:miter;stroke-miterlimit:4;stroke-dasharray:none;stroke-opacity:1"
       d="M 734.36342,1990.8905 L 505.36342,1999.3905"
       id="path4636" />
    <text
       xml:space="preserve"
       style="font-size:18px;font-style:italic;font-variant:normal;font-weight:normal;font-stretch:normal;text-align:start;line-height:125%;writing-mode:lr-tb;text-anchor:start;opacity:1;fill:#000000;fill-opacity:1;stroke:none;stroke-width:2;stroke-linecap:butt;stroke-linejoin:miter;stroke-miterlimit:4;stroke-dasharray:none;stroke-opacity:1;font-family:Times New Roman;-inkscape-font-specification:Times New Roman Italic"
       x="471.8634"
       y="2004.1406"
       id="text4638"
       sodipodi:linespacing="125%"><tspan
         sodipodi:role="line"
         id="tspan4640"
         x="471.8634"
         y="2004.1406">d</tspan></text>
    <text
       xml:space="preserve"
       style="font-size:18px;font-style:italic;font-variant:normal;font-weight:normal;font-stretch:normal;text-align:start;line-height:125%;writing-mode:lr-tb;text-anchor:start;opacity:1;fill:#000000;fill-opacity:1;stroke:none;stroke-width:2;stroke-linecap:butt;stroke-linejoin:miter;stroke-miterlimit:4;stroke-dasharray:none;stroke-opacity:1;font-family:Times New Roman;-inkscape-font-specification:Times New Roman Italic"
       x="597.57288"
       y="1978.7841"
       id="text4642"
       sodipodi:linespacing="125%"><tspan
         sodipodi:role="line"
         id="tspan4644"
         x="597.57288"
         y="1978.7841">A</tspan></text>
    <text
       xml:space="preserve"
       style="font-size:18px;font-style:italic;font-variant:normal;font-weight:normal;font-stretch:normal;text-align:start;line-height:125%;writing-mode:lr-tb;text-anchor:start;opacity:1;fill:#000000;fill-opacity:1;stroke:none;stroke-width:2;stroke-linecap:butt;stroke-linejoin:miter;stroke-miterlimit:4;stroke-dasharray:none;stroke-opacity:1;font-family:Times New Roman;-inkscape-font-specification:Times New Roman Italic"
       x="618.9126"
       y="2025.2909"
       id="text4646"
       sodipodi:linespacing="125%"><tspan
         sodipodi:role="line"
         id="tspan4648"
         x="618.9126"
         y="2025.2909">B</tspan></text>
    <text
       sodipodi:linespacing="125%"
       id="text4658"
       y="2025.2909"
       x="840.59058"
       style="font-size:18px;font-style:italic;font-variant:normal;font-weight:normal;font-stretch:normal;text-align:start;line-height:125%;writing-mode:lr-tb;text-anchor:start;opacity:1;fill:#000000;fill-opacity:1;stroke:none;stroke-width:2;stroke-linecap:butt;stroke-linejoin:miter;stroke-miterlimit:4;stroke-dasharray:none;stroke-opacity:1;font-family:Times New Roman;-inkscape-font-specification:Times New Roman Italic"
       xml:space="preserve"><tspan
         y="2025.2909"
         x="840.59058"
         id="tspan4660"
         sodipodi:role="line">C</tspan></text>
    <text
       sodipodi:linespacing="125%"
       id="text4662"
       y="1978.7841"
       x="859.20239"
       style="font-size:18px;font-style:italic;font-variant:normal;font-weight:normal;font-stretch:normal;text-align:start;line-height:125%;writing-mode:lr-tb;text-anchor:start;opacity:1;fill:#000000;fill-opacity:1;stroke:none;stroke-width:2;stroke-linecap:butt;stroke-linejoin:miter;stroke-miterlimit:4;stroke-dasharray:none;stroke-opacity:1;font-family:Times New Roman;-inkscape-font-specification:Times New Roman Italic"
       xml:space="preserve"><tspan
         y="1978.7841"
         x="859.20239"
         id="tspan4664"
         sodipodi:role="line">D</tspan></text>
    <text
       xml:space="preserve"
       style="font-size:18px;font-style:italic;font-variant:normal;font-weight:normal;font-stretch:normal;text-align:start;line-height:125%;writing-mode:lr-tb;text-anchor:start;opacity:1;fill:#000000;fill-opacity:1;stroke:none;stroke-width:2;stroke-linecap:butt;stroke-linejoin:miter;stroke-miterlimit:4;stroke-dasharray:none;stroke-opacity:1;font-family:Times New Roman;-inkscape-font-specification:Times New Roman Italic"
       x="1051.9342"
       y="2166.0051"
       id="text4666"
       sodipodi:linespacing="125%"><tspan
         sodipodi:role="line"
         id="tspan4668"
         x="1051.9342"
         y="2166.0051">R</tspan></text>
    <text
       xml:space="preserve"
       style="font-size:18px;font-style:italic;font-variant:normal;font-weight:normal;font-stretch:normal;text-align:start;line-height:125%;writing-mode:lr-tb;text-anchor:start;opacity:1;fill:#000000;fill-opacity:1;stroke:none;stroke-width:2;stroke-linecap:butt;stroke-linejoin:miter;stroke-miterlimit:4;stroke-dasharray:none;stroke-opacity:1;font-family:Times New Roman;-inkscape-font-specification:Times New Roman Italic"
       x="724.88092"
       y="2048.3804"
       id="text4690"
       sodipodi:linespacing="125%"><tspan
         sodipodi:role="line"
         id="tspan4692"
         x="724.88092"
         y="2048.3804">3L</tspan></text>
  </g>
</svg>
