<?xml version="1.0" encoding="utf-8"?>
<!DOCTYPE svg PUBLIC "-//W3C//DTD SVG 1.1//EN" "http://www.w3.org/Graphics/SVG/1.1/DTD/svg11.dtd">
<svg version="1.1" id="Layer_1" xmlns="http://www.w3.org/2000/svg" xmlns:xlink="http://www.w3.org/1999/xlink" x="0px" y="0px"
	 width="450px" height="450px" viewBox="0 0 450 450" enable-background="new 0 0 450 450" xml:space="preserve">
<circle fill="none" stroke="#BC1E47" stroke-width="2" cx="225" cy="224.999" r="216"/>
<polygon opacity="0.1" fill="#0081CD" points="225,8.999 182.854,13.113 142.32,25.393 104.985,45.385 72.265,72.264
	45.387,104.985 25.394,142.319 13.115,182.852 9,224.999 13.114,267.146 25.394,307.678 45.387,345.012 72.265,377.734
	104.986,404.612 142.32,424.605 182.854,436.885 225,440.999 267.147,436.885 307.68,424.605 345.014,404.612 377.735,377.734
	404.614,345.013 424.606,307.679 436.888,267.145 441,224.999 436.886,182.852 424.606,142.319 404.614,104.984 377.735,72.264
	345.014,45.386 307.68,25.391 267.147,13.113 "/>
<polygon opacity="0.2" fill="#0081CD" points="225,8.999 142.32,25.393 72.265,72.264 25.394,142.319 9,224.999 25.394,307.678
	72.265,377.734 142.32,424.605 225,440.999 307.68,424.605 377.735,377.734 424.606,307.679 441,224.999 424.606,142.319
	377.735,72.264 307.68,25.391 "/>
<polygon opacity="0.3" fill="#0081CD" points="225,8.999 72.265,72.264 9,224.999 72.265,377.734 225,440.999 377.735,377.734
	441,224.999 377.735,72.264 "/>
<rect x="72.265" y="72.264" transform="matrix(0.7071 -0.7071 0.7071 0.7071 -93.1972 225.0001)" opacity="0.4" fill="#0081CD" width="305.47" height="305.47"/>
<polygon fill="none" stroke="#000000" points="225,8.999 182.854,13.113 142.32,25.393 104.985,45.385 72.265,72.264
	45.387,104.985 25.394,142.319 13.115,182.852 9,224.999 13.114,267.146 25.394,307.678 45.387,345.012 72.265,377.734
	104.986,404.612 142.32,424.605 182.854,436.885 225,440.999 267.147,436.885 307.68,424.605 345.014,404.612 377.735,377.734
	404.614,345.013 424.606,307.679 436.888,267.145 441,224.999 436.886,182.852 424.606,142.319 404.614,104.984 377.735,72.264
	345.014,45.386 307.68,25.391 267.147,13.113 "/>
<polygon fill="none" stroke="#000000" points="225,8.999 142.32,25.393 72.265,72.264 25.394,142.319 9,224.999 25.394,307.678
	72.265,377.734 142.32,424.605 225,440.999 307.68,424.605 377.735,377.734 424.606,307.679 441,224.999 424.606,142.319
	377.735,72.264 307.68,25.391 "/>
<polygon fill="none" stroke="#000000" points="225,8.999 72.265,72.264 9,224.999 72.265,377.734 225,440.999 377.735,377.734
	441,224.999 377.735,72.264 "/>
<rect x="72.265" y="72.264" transform="matrix(0.7071 -0.7071 0.7071 0.7071 -93.1972 225.0001)" fill="none" stroke="#000000" width="305.47" height="305.47"/>
</svg>
