<?xml version="1.0" encoding="UTF-8" standalone="no"?>
<!-- Generator: Adobe Illustrator 12.0.1, SVG Export Plug-In . SVG Version: 6.00 Build 51448)  -->
<svg
   xmlns:dc="http://purl.org/dc/elements/1.1/"
   xmlns:cc="http://web.resource.org/cc/"
   xmlns:rdf="http://www.w3.org/1999/02/22-rdf-syntax-ns#"
   xmlns:svg="http://www.w3.org/2000/svg"
   xmlns="http://www.w3.org/2000/svg"
   xmlns:sodipodi="http://sodipodi.sourceforge.net/DTD/sodipodi-0.dtd"
   xmlns:inkscape="http://www.inkscape.org/namespaces/inkscape"
   version="1.1"
   id="Layer_1"
   width="152.303"
   height="96.587"
   viewBox="0 0 152.303 96.587"
   style="overflow:visible;enable-background:new 0 0 152.303 96.587;"
   xml:space="preserve"
   sodipodi:version="0.32"
   inkscape:version="0.44.1"
   sodipodi:docname="Essigsäure - Acetic acid.svg"
   sodipodi:docbase="E:\Eigene Dateien"><metadata
   id="metadata50"><rdf:RDF><cc:Work
       rdf:about=""><dc:format>image/svg+xml</dc:format><dc:type
         rdf:resource="http://purl.org/dc/dcmitype/StillImage" /></cc:Work></rdf:RDF></metadata><defs
   id="defs48" /><sodipodi:namedview
   inkscape:window-height="573"
   inkscape:window-width="925"
   inkscape:pageshadow="2"
   inkscape:pageopacity="0.0"
   guidetolerance="10.0"
   gridtolerance="10.0"
   objecttolerance="10.0"
   borderopacity="1.0"
   bordercolor="#666666"
   pagecolor="#ffffff"
   id="base"
   inkscape:zoom="3.9135702"
   inkscape:cx="76.151497"
   inkscape:cy="48.293499"
   inkscape:window-x="44"
   inkscape:window-y="44"
   inkscape:current-layer="Layer_1" />
<path
   d="M 53.070775,50.730725 L 55.237725,51.276025 C 54.785525,53.052525 53.971375,54.407225 52.797175,55.339175 C 51.622025,56.272075 50.184675,56.738525 48.487025,56.738525 C 46.729525,56.738525 45.300725,56.380375 44.199675,55.663125 C 43.098625,54.945875 42.260725,53.908475 41.685975,52.549025 C 41.111225,51.189575 40.824325,49.730375 40.824325,48.170475 C 40.824325,46.469025 41.148275,44.985125 41.797125,43.718775 C 42.445975,42.451475 43.368425,41.490075 44.566375,40.832675 C 45.763375,40.175275 47.080075,39.846575 48.518375,39.846575 C 50.149525,39.846575 51.520375,40.262675 52.631875,41.094875 C 53.744325,41.928025 54.518575,43.098425 54.955575,44.607025 L 52.833275,45.107675 C 52.455175,43.920175 51.907025,43.055675 51.188825,42.514175 C 50.469675,41.972675 49.565275,41.701925 48.476575,41.701925 C 47.224475,41.701925 46.177575,42.002125 45.335875,42.603475 C 44.495125,43.204825 43.904225,44.011375 43.563175,45.025025 C 43.222125,46.038675 43.052075,47.082725 43.052075,48.159075 C 43.052075,49.547025 43.253475,50.758275 43.657225,51.793775 C 44.060975,52.829275 44.687975,53.602575 45.540125,54.114625 C 46.392275,54.626675 47.313775,54.883175 48.306525,54.883175 C 49.513975,54.883175 50.535225,54.534525 51.372175,53.836275 C 52.209125,53.138025 52.774375,52.104425 53.070775,50.730725 z "
   id="path3" />
<path
   d="M 91.127775,50.730725 L 93.294725,51.276025 C 92.842525,53.052525 92.029325,54.407225 90.854175,55.339175 C 89.679025,56.272075 88.242625,56.738525 86.544975,56.738525 C 84.787475,56.738525 83.358675,56.380375 82.257625,55.663125 C 81.156575,54.945875 80.318675,53.908475 79.743925,52.549025 C 79.169175,51.189575 78.882275,49.730375 78.882275,48.170475 C 78.882275,46.469025 79.206225,44.985125 79.855075,43.718775 C 80.503925,42.451475 81.426375,41.490075 82.623375,40.832675 C 83.821325,40.175275 85.138025,39.846575 86.576325,39.846575 C 88.206525,39.846575 89.577375,40.262675 90.689825,41.094875 C 91.801325,41.928025 92.575575,43.098425 93.012575,44.607025 L 90.890275,45.107675 C 90.513125,43.920175 89.964025,43.055675 89.245825,42.514175 C 88.527625,41.972675 87.623225,41.701925 86.534525,41.701925 C 85.282425,41.701925 84.234575,42.002125 83.393825,42.603475 C 82.552125,43.204825 81.961225,44.011375 81.620175,45.025025 C 81.279125,46.038675 81.109075,47.082725 81.109075,48.159075 C 81.109075,49.547025 81.310475,50.758275 81.714225,51.793775 C 82.117975,52.829275 82.744975,53.602575 83.596175,54.114625 C 84.447375,54.626675 85.369825,54.883175 86.362575,54.883175 C 87.570025,54.883175 88.591275,54.534525 89.428225,53.836275 C 90.265175,53.138025 90.831375,52.104425 91.127775,50.730725 z "
   id="path5" />
<path
   d="M 57.399923,46.672327 L 76.399923,46.672327 L 76.399923,48.287327 L 57.399923,48.287327 L 57.399923,46.672327 z "
   id="rect7" />
<g
   id="g9"
   transform="matrix(0.95,0,0,0.95,3.807575,2.414675)">
	<path
   d="M 0,56.887 L 0,39.699 L 2.281,39.699 L 2.281,46.762 L 11.172,46.762 L 11.172,39.699 L 13.453,39.699 L 13.453,56.887 L 11.172,56.887 L 11.172,48.793 L 2.281,48.793 L 2.281,56.887 L 0,56.887 z "
   id="path11" />
</g>
<path
   d="M 18.733975,46.672327 L 38.683975,46.672327 L 38.683975,48.287327 L 18.733975,48.287327 L 18.733975,46.672327 z "
   id="rect13" />
<g
   id="g15"
   transform="matrix(0.95,0,0,0.95,3.807575,2.414675)">
	<path
   d="M 39.7,17.188 L 39.7,0 L 41.981,0 L 41.981,7.063 L 50.872,7.063 L 50.872,0 L 53.153,0 L 53.153,17.188 L 50.872,17.188 L 50.872,9.094 L 41.981,9.094 L 41.981,17.188 L 39.7,17.188 z "
   id="path17" />
</g>
<path
   d="M 47.044925,20.879825 L 48.659926,20.879825 L 48.659926,37.694826 L 47.044925,37.694826 L 47.044925,20.879825 z "
   id="rect19" />
<g
   id="g21"
   transform="matrix(0.95,0,0,0.95,3.807575,2.414675)">
	<path
   d="M 39.7,96.587 L 39.7,79.399 L 41.981,79.399 L 41.981,86.462 L 50.872,86.462 L 50.872,79.399 L 53.153,79.399 L 53.153,96.587 L 50.872,96.587 L 50.872,88.493 L 41.981,88.493 L 41.981,96.587 L 39.7,96.587 z "
   id="path23" />
</g>
<path
   d="M 47.044925,58.832326 L 48.659926,58.832326 L 48.659926,75.647327 L 47.044925,75.647327 L 47.044925,58.832326 z "
   id="rect25" />
<g
   id="g27"
   transform="matrix(0.95,0,0,0.95,3.807575,2.414675)">
	<path
   d="M 97.669,14.172 C 97.669,11.32 98.435,9.087 99.967,7.473 C 101.499,5.86 103.477,5.053 105.9,5.053 C 107.487,5.053 108.917,5.432 110.191,6.19 C 111.465,6.948 112.436,8.005 113.104,9.361 C 113.773,10.717 114.107,12.255 114.107,13.973 C 114.107,15.715 113.755,17.275 113.051,18.65 C 112.348,20.026 111.352,21.067 110.062,21.774 C 108.772,22.481 107.381,22.835 105.888,22.835 C 104.27,22.835 102.824,22.444 101.55,21.663 C 100.276,20.882 99.311,19.815 98.654,18.463 C 97.997,17.11 97.669,15.68 97.669,14.172 z M 100.013,14.201 C 100.013,16.271 100.57,17.902 101.684,19.094 C 102.798,20.286 104.196,20.881 105.876,20.881 C 107.588,20.881 108.997,20.279 110.104,19.076 C 111.209,17.873 111.763,16.166 111.763,13.955 C 111.763,12.557 111.527,11.336 111.053,10.293 C 110.58,9.25 109.889,8.441 108.978,7.867 C 108.067,7.293 107.045,7.006 105.912,7.006 C 104.302,7.006 102.916,7.559 101.755,8.664 C 100.594,9.769 100.013,11.615 100.013,14.201 z "
   id="path29" />
</g>
<path
   d="M 95.589925,22.827325 L 97.014925,23.634825 L 88.892425,37.694825 L 87.467425,36.887325 L 95.589925,22.827325 z "
   id="polygon31" />
<path
   d="M 100.48243,25.629825 L 101.90743,26.437325 L 93.784925,40.497325 L 92.359925,39.689825 L 100.48243,25.629825 z "
   id="polygon33" />
<g
   id="g35"
   transform="matrix(0.95,0,0,0.95,3.807575,2.414675)">
	<path
   d="M 97.669,82.872 C 97.669,80.02 98.435,77.787 99.967,76.173 C 101.499,74.56 103.477,73.753 105.9,73.753 C 107.487,73.753 108.917,74.132 110.191,74.89 C 111.465,75.648 112.436,76.705 113.104,78.061 C 113.773,79.417 114.107,80.955 114.107,82.673 C 114.107,84.415 113.755,85.975 113.051,87.35 C 112.348,88.726 111.352,89.767 110.062,90.474 C 108.772,91.181 107.381,91.535 105.888,91.535 C 104.27,91.535 102.824,91.144 101.55,90.363 C 100.276,89.582 99.311,88.515 98.654,87.163 C 97.997,85.811 97.669,84.38 97.669,82.872 z M 100.013,82.901 C 100.013,84.971 100.57,86.602 101.684,87.794 C 102.798,88.986 104.196,89.581 105.876,89.581 C 107.588,89.581 108.997,88.979 110.104,87.776 C 111.209,86.573 111.763,84.866 111.763,82.655 C 111.763,81.257 111.527,80.036 111.053,78.993 C 110.58,77.95 109.889,77.141 108.978,76.567 C 108.067,75.993 107.045,75.706 105.912,75.706 C 104.302,75.706 102.916,76.259 101.755,77.364 C 100.594,78.469 100.013,80.315 100.013,82.901 z "
   id="path37" />
</g>
<path
   d="M 100.10243,71.087325 L 98.723975,71.894825 L 90.602425,57.834825 L 92.027425,57.027325 L 100.10243,71.087325 z "
   id="polygon39" />
<g
   id="g41"
   transform="matrix(0.95,0,0,0.95,3.807575,2.414675)">
	<path
   d="M 138.85,91.237 L 138.85,74.05 L 141.131,74.05 L 141.131,81.113 L 150.022,81.113 L 150.022,74.05 L 152.303,74.05 L 152.303,91.238 L 150.022,91.238 L 150.022,83.144 L 141.131,83.144 L 141.131,91.238 L 138.85,91.238 L 138.85,91.237 z "
   id="path43" />
</g>
<path
   d="M 114.25743,79.305779 L 133.59088,79.305779 L 133.59088,80.919829 L 114.25743,80.919829 L 114.25743,79.305779 z "
   id="rect45" />
</svg>