<?xml version="1.0" encoding="UTF-8" standalone="no"?>
<!-- Generator: Adobe Illustrator 12.0.1, SVG Export Plug-In . SVG Version: 6.00 Build 51448)  -->
<svg
   xmlns:dc="http://purl.org/dc/elements/1.1/"
   xmlns:cc="http://web.resource.org/cc/"
   xmlns:rdf="http://www.w3.org/1999/02/22-rdf-syntax-ns#"
   xmlns:svg="http://www.w3.org/2000/svg"
   xmlns="http://www.w3.org/2000/svg"
   xmlns:sodipodi="http://sodipodi.sourceforge.net/DTD/sodipodi-0.dtd"
   xmlns:inkscape="http://www.inkscape.org/namespaces/inkscape"
   version="1.1"
   id="Layer_1"
   width="162.746"
   height="116.932"
   viewBox="0 0 162.746 116.932"
   style="overflow:visible;enable-background:new 0 0 162.746 116.932;"
   xml:space="preserve"
   sodipodi:version="0.32"
   inkscape:version="0.45.1"
   sodipodi:docname="Brenztraubensäure.svg"
   inkscape:output_extension="org.inkscape.output.svg.inkscape"
   sodipodi:docbase="C:\"><metadata
   id="metadata46"><rdf:RDF><cc:Work
       rdf:about=""><dc:format>image/svg+xml</dc:format><dc:type
         rdf:resource="http://purl.org/dc/dcmitype/StillImage" /></cc:Work></rdf:RDF></metadata><defs
   id="defs44" /><sodipodi:namedview
   inkscape:window-height="579"
   inkscape:window-width="801"
   inkscape:pageshadow="2"
   inkscape:pageopacity="0.0"
   guidetolerance="10.0"
   gridtolerance="10.0"
   objecttolerance="10.0"
   borderopacity="1.0"
   bordercolor="#666666"
   pagecolor="#ffffff"
   id="base"
   inkscape:zoom="3.2326481"
   inkscape:cx="81.373001"
   inkscape:cy="58.466"
   inkscape:window-x="110"
   inkscape:window-y="110"
   inkscape:current-layer="Layer_1" />
<path
   style="fill:#231f20"
   d="M 102.6188,47.274075 L 102.6188,49.125625 L 69.9388,67.983125 L 69.9388,66.130625 L 102.6188,47.274075 z "
   id="polygon3" />
<g
   id="g5"
   transform="matrix(0.95,0,0,0.95,4.06865,2.923325)">
	<path
   style="fill:#231f20"
   d="M 0,57.135 L 0,39.947 L 2.281,39.947 L 2.281,47.01 L 11.172,47.01 L 11.172,39.947 L 13.453,39.947 L 13.453,57.135 L 11.172,57.135 L 11.172,49.041 L 2.281,49.041 L 2.281,57.135 L 0,57.135 L 0,57.135 z "
   id="path7" />
</g>
<g
   id="g9"
   transform="matrix(0.95,0,0,0.95,4.06865,2.923325)">
	<path
   style="fill:#231f20"
   d="M 15.461,58.229 L 17.039,58.01 C 17.222,58.906 17.531,59.552 17.967,59.948 C 18.404,60.343 18.939,60.541 19.574,60.541 C 20.327,60.541 20.96,60.283 21.473,59.769 C 21.986,59.253 22.242,58.615 22.242,57.853 C 22.242,57.127 22.004,56.529 21.526,56.057 C 21.049,55.585 20.443,55.35 19.707,55.35 C 19.406,55.35 19.032,55.409 18.585,55.526 L 18.762,54.135 C 18.868,54.147 18.953,54.153 19.018,54.153 C 19.692,54.153 20.299,53.978 20.839,53.627 C 21.379,53.276 21.649,52.735 21.649,52.004 C 21.649,51.425 21.452,50.945 21.058,50.566 C 20.664,50.186 20.156,49.996 19.533,49.996 C 18.916,49.996 18.401,50.19 17.99,50.578 C 17.579,50.966 17.314,51.548 17.197,52.324 L 15.619,52.043 C 15.812,50.981 16.253,50.158 16.939,49.575 C 17.625,48.991 18.479,48.699 19.5,48.699 C 20.204,48.699 20.853,48.849 21.445,49.151 C 22.037,49.452 22.49,49.863 22.805,50.383 C 23.118,50.904 23.276,51.456 23.276,52.041 C 23.276,52.597 23.127,53.103 22.828,53.559 C 22.529,54.015 22.087,54.377 21.501,54.647 C 22.263,54.823 22.855,55.188 23.28,55.741 C 23.704,56.296 23.917,56.988 23.917,57.82 C 23.917,58.946 23.506,59.899 22.684,60.681 C 21.862,61.463 20.823,61.855 19.567,61.855 C 18.434,61.855 17.493,61.518 16.745,60.846 C 15.994,60.171 15.567,59.3 15.461,58.229 z "
   id="path11" />
</g>
<g
   id="g13"
   transform="matrix(0.95,0,0,0.95,4.06865,2.923325)">
	<path
   style="fill:#231f20"
   d="M 38.039,51.107 L 40.32,51.681 C 39.844,53.551 38.987,54.977 37.751,55.958 C 36.514,56.939 35.001,57.431 33.214,57.431 C 31.364,57.431 29.86,57.054 28.701,56.299 C 27.542,55.545 26.66,54.451 26.055,53.021 C 25.45,51.59 25.148,50.053 25.148,48.412 C 25.148,46.622 25.489,45.059 26.172,43.726 C 26.855,42.393 27.826,41.379 29.087,40.688 C 30.347,39.997 31.733,39.65 33.247,39.65 C 34.964,39.65 36.407,40.088 37.577,40.964 C 38.748,41.841 39.563,43.072 40.023,44.661 L 37.789,45.188 C 37.391,43.938 36.814,43.028 36.058,42.458 C 35.301,41.888 34.349,41.603 33.203,41.603 C 31.885,41.603 30.783,41.919 29.897,42.552 C 29.012,43.185 28.39,44.034 28.031,45.101 C 27.672,46.168 27.493,47.267 27.493,48.4 C 27.493,49.861 27.705,51.136 28.13,52.226 C 28.555,53.316 29.215,54.13 30.112,54.669 C 31.009,55.208 31.979,55.478 33.024,55.478 C 34.295,55.478 35.37,55.111 36.251,54.376 C 37.132,53.641 37.727,52.553 38.039,51.107 z "
   id="path15" />
</g>
<path
   style="fill:#231f20"
   d="M 46.2363,54.303125 L 47.0438,52.925625 L 69.9388,66.130625 L 69.9388,67.983125 L 46.2363,54.303125 z "
   id="polygon17" />
<g
   id="g19"
   transform="matrix(0.95,0,0,0.95,4.06865,2.923325)">
	<path
   style="fill:#231f20"
   d="M 61.144,108.27 C 61.144,105.417 61.91,103.185 63.442,101.572 C 64.974,99.958 66.952,99.151 69.375,99.151 C 70.962,99.151 72.392,99.53 73.666,100.288 C 74.94,101.047 75.911,102.103 76.58,103.459 C 77.249,104.815 77.582,106.353 77.582,108.071 C 77.582,109.814 77.23,111.373 76.527,112.748 C 75.824,114.123 74.827,115.165 73.537,115.872 C 72.247,116.579 70.856,116.933 69.363,116.933 C 67.745,116.933 66.299,116.542 65.025,115.761 C 63.751,114.98 62.786,113.912 62.129,112.561 C 61.472,111.21 61.144,109.778 61.144,108.27 z M 63.487,108.299 C 63.487,110.369 64.044,112 65.158,113.192 C 66.272,114.384 67.67,114.979 69.35,114.979 C 71.062,114.979 72.471,114.377 73.578,113.174 C 74.684,111.971 75.237,110.264 75.237,108.053 C 75.237,106.655 75.001,105.434 74.528,104.391 C 74.055,103.348 73.363,102.539 72.452,101.965 C 71.541,101.391 70.519,101.104 69.386,101.104 C 67.776,101.104 66.39,101.657 65.229,102.762 C 64.068,103.867 63.487,105.713 63.487,108.299 z "
   id="path21" />
</g>
<path
   style="fill:#231f20"
   d="M 71.9813,65.418122 L 73.5963,65.418122 L 73.5963,94.964071 L 71.9813,94.964071 L 71.9813,65.418122 z "
   id="rect23" />
<path
   style="fill:#231f20"
   d="M 66.329752,65.418122 L 67.944752,65.418122 L 67.944752,94.964071 L 66.329752,94.964071 L 66.329752,65.418122 z "
   id="rect25" />
<g
   id="g27"
   transform="matrix(0.95,0,0,0.95,4.06865,2.923325)">
	<path
   style="fill:#231f20"
   d="M 129.844,68.569 C 129.844,65.716 130.61,63.484 132.142,61.871 C 133.674,60.257 135.652,59.45 138.075,59.45 C 139.662,59.45 141.092,59.829 142.366,60.587 C 143.64,61.346 144.611,62.402 145.279,63.758 C 145.948,65.113 146.282,66.652 146.282,68.37 C 146.282,70.113 145.93,71.672 145.226,73.047 C 144.523,74.422 143.527,75.464 142.237,76.171 C 140.947,76.878 139.556,77.232 138.063,77.232 C 136.445,77.232 134.999,76.841 133.725,76.06 C 132.451,75.279 131.486,74.211 130.829,72.86 C 130.172,71.508 129.844,70.078 129.844,68.569 z M 132.188,68.599 C 132.188,70.669 132.745,72.3 133.859,73.492 C 134.973,74.684 136.371,75.279 138.051,75.279 C 139.763,75.279 141.172,74.677 142.279,73.474 C 143.384,72.271 143.938,70.564 143.938,68.353 C 143.938,66.955 143.702,65.734 143.228,64.691 C 142.755,63.648 142.064,62.839 141.153,62.265 C 140.242,61.691 139.22,61.404 138.087,61.404 C 136.477,61.404 135.091,61.957 133.93,63.062 C 132.769,64.167 132.188,66.013 132.188,68.599 z "
   id="path29" />
	<path
   style="fill:#231f20"
   d="M 149.293,76.935 L 149.293,59.747 L 151.574,59.747 L 151.574,66.81 L 160.465,66.81 L 160.465,59.747 L 162.746,59.747 L 162.746,76.935 L 160.465,76.935 L 160.465,68.841 L 151.574,68.841 L 151.574,76.935 L 149.293,76.935 z "
   id="path31" />
</g>
<path
   style="fill:#231f20"
   d="M 127.03475,61.380625 L 126.2263,62.805625 L 102.6188,49.125625 L 102.6188,47.274075 L 127.03475,61.380625 z "
   id="polygon33" />
<g
   id="g35"
   transform="matrix(0.95,0,0,0.95,4.06865,2.923325)">
	<path
   style="fill:#231f20"
   d="M 95.493,9.119 C 95.493,6.266 96.259,4.034 97.792,2.421 C 99.323,0.807 101.302,0 103.724,0 C 105.312,0 106.742,0.379 108.015,1.137 C 109.289,1.896 110.261,2.952 110.929,4.308 C 111.597,5.664 111.931,7.202 111.931,8.92 C 111.931,10.663 111.579,12.222 110.876,13.597 C 110.173,14.972 109.176,16.014 107.886,16.721 C 106.597,17.428 105.205,17.782 103.712,17.782 C 102.095,17.782 100.648,17.391 99.374,16.61 C 98.1,15.829 97.136,14.761 96.478,13.41 C 95.82,12.059 95.493,10.628 95.493,9.119 z M 97.837,9.148 C 97.837,11.218 98.394,12.849 99.509,14.041 C 100.622,15.232 102.021,15.828 103.7,15.828 C 105.413,15.828 106.821,15.226 107.929,14.023 C 109.034,12.82 109.587,11.113 109.587,8.902 C 109.587,7.504 109.351,6.283 108.878,5.24 C 108.405,4.197 107.713,3.388 106.802,2.814 C 105.892,2.24 104.87,1.953 103.736,1.953 C 102.127,1.953 100.74,2.506 99.58,3.611 C 98.417,4.717 97.837,6.563 97.837,9.148 z "
   id="path37" />
</g>
<path
   style="fill:#231f20"
   d="M 98.96225,21.908124 L 100.5763,21.908124 L 100.5763,49.838124 L 98.96225,49.838124 L 98.96225,21.908124 z "
   id="rect39" />
<path
   style="fill:#231f20"
   d="M 104.6138,21.908124 L 106.22975,21.908124 L 106.22975,49.838124 L 104.6138,49.838124 L 104.6138,21.908124 z "
   id="rect41" />
</svg>