<?xml version="1.0" encoding="UTF-8"?>
<svg preserveAspectRatio="xMidYMid" viewBox="85.06 139.84 194.9 34.617" xmlns="http://www.w3.org/2000/svg" xmlns:cc="http://creativecommons.org/ns#" xmlns:dc="http://purl.org/dc/elements/1.1/" xmlns:rdf="http://www.w3.org/1999/02/22-rdf-syntax-ns#">
  <clipPath id="a">
    <rect x=".3" y=".3" width="539.4" height="719.15"/>
  </clipPath>
  <g clip-path="url(#a)" transform="translate(1.2925 .917)">
    <path d="M85.768 155.92v-6.442h2.8565q.8613 0 1.3095.175.4483.172.7163.611.2681.44.2681.971 0 .686-.4438 1.156-.4439.47-1.3711.598.3383.162.5141.321.3736.342.7075.857l1.1207 1.753h-1.0723l-.8526-1.34q-.3735-.58-.6152-.888t-.435-.431q-.189-.123-.3868-.171-.145-.031-.4746-.031h-.9887v2.861zm.8526-3.599h1.8325q.5844 0 .914-.119.3296-.123.501-.386.1714-.269.1714-.581 0-.457-.334-.751-.3296-.294-1.0459-.294h-2.039zM101.6 155.92v-6.442h.874l3.384 5.058v-5.058h.817v6.442h-.874l-3.384-5.063v5.063zM108.14 155.92v-6.442h.852v2.645h3.349v-2.645h.852v6.442h-.852v-3.037h-3.349v3.037zM117.32 157.39v.57h-3.194q-.006-.214.069-.412.122-.326.389-.643.271-.316.778-.731.788-.646 1.065-1.022.277-.379.277-.715 0-.353-.254-.594-.251-.243-.656-.243-.429 0-.686.257t-.26.712l-.61-.063q.063-.682.472-1.038.408-.36 1.097-.36.696 0 1.101.386t.405.956q0 .29-.118.57-.119.28-.396.59-.273.31-.913.85-.534.449-.685.61-.152.158-.251.32z"/>
    <path d="m92.3 152.7v-0.6h7.7v0.6z" fill-rule="evenodd" shape-rendering="geometricPrecision" stroke-width="0"/>
    <path d="m133.5 144.34q0-1.604 0.861-2.509 0.862-0.91 2.224-0.91 0.892 0 1.608 0.427 0.717 0.426 1.09 1.191 0.378 0.76 0.378 1.727 0 0.98-0.395 1.753-0.396 0.773-1.121 1.173-0.725 0.396-1.564 0.396-0.91 0-1.626-0.44-0.717-0.439-1.086-1.199-0.369-0.761-0.369-1.609zm0.879 0.013q0 1.165 0.624 1.837 0.628 0.668 1.573 0.668 0.963 0 1.582-0.676 0.624-0.677 0.624-1.921 0-0.786-0.268-1.371-0.263-0.589-0.778-0.91-0.509-0.325-1.147-0.325-0.905 0-1.56 0.624-0.65 0.62-0.65 2.074z"/>
    <path d="M140.75 147.34l-.3.52 8.28 4.78v-.7zM141.92 145.37l-.3.52 7.97 4.6.6-.34z" fill-rule="evenodd" shape-rendering="geometricPrecision" stroke-width="0"/>
    <path d="M146.49 169.08v-6.442h2.856q.861 0 1.31.175.448.172.716.611.268.44.268.971 0 .686-.444 1.156t-1.371.598q.338.162.514.321.374.342.708.857l1.12 1.753h-1.072l-.853-1.34q-.373-.58-.615-.888-.241-.308-.435-.431-.189-.123-.387-.171-.145-.031-.474-.031h-.989v2.861zm.852-3.599h1.833q.584 0 .914-.119.329-.123.501-.386.171-.269.171-.581 0-.457-.334-.751-.33-.294-1.046-.294h-2.039zM152.88 164.92l-.203-1.204v-1.076h.901v1.076l-.211 1.204zM154.6 164.92l-.202-1.204v-1.076h.901v1.076l-.211 1.204z"/>
    <path d="m148.73 150.98 0.6 0.34v9.78h-0.6z" fill-rule="evenodd" shape-rendering="geometricPrecision" stroke-width="0"/>
    <path d="M158.96 147.48v-6.442h2.856q.861 0 1.31.175.448.172.716.611.268.44.268.971 0 .686-.444 1.156t-1.371.598q.338.162.514.321.374.342.708.857l1.12 1.753h-1.072l-.853-1.34q-.373-.58-.615-.888-.241-.308-.435-.431-.189-.123-.387-.171-.145-.031-.474-.031h-.989v2.861zm.852-3.599h1.833q.584 0 .914-.119.329-.123.501-.386.171-.269.171-.581 0-.457-.334-.751-.33-.294-1.046-.294h-2.039zM165.35 143.32l-.203-1.204v-1.076h.901v1.076l-.211 1.204z"/>
    <path d="m149.33 151.32-0.6-0.34 8.73-5.05 0.3 0.52z" fill-rule="evenodd" shape-rendering="geometricPrecision" stroke-width="0"/>
    <path d="m125.25 155.71v-1.766h-1.753v-0.738h1.753v-1.754h0.747v1.754h1.754v0.738h-1.754v1.766z"/>
    <path d="m215.13 153.38h-43" stroke="#000" stroke-width=".6"/>
    <path d="m219.38 153.38-6-1.5c1.19 0.84 1.19 2.16 0 3z" fill-rule="evenodd" shape-rendering="geometricPrecision" stroke-miterlimit="6.935" stroke-width="0"/>
    <g shape-rendering="geometricPrecision">
      <path d="m200.9 158.48c-2.61-3.18-6.67-5.1-10.78-5.1" fill="none" stroke="#000" stroke-linejoin="bevel" stroke-width=".6"/>
      <path d="m202.8 161.54-1.62-4.68c0 1.24-0.88 1.82-2.01 1.32z" fill-rule="evenodd" stroke-miterlimit="6.935" stroke-width="0"/>
    </g>
    <path d="M196.66 169.5v-6.442h.852v2.645h3.349v-2.645h.852v6.442h-.852v-3.037h-3.349v3.037zM205.84 170.97v.57h-3.194q-.006-.214.069-.412.122-.326.389-.643.271-.316.778-.731.788-.646 1.065-1.022.277-.379.277-.715 0-.353-.254-.594-.251-.243-.656-.243-.428 0-.686.257-.257.257-.26.712l-.61-.063q.063-.682.472-1.038.408-.36 1.097-.36.696 0 1.101.386t.405.956q0 .29-.118.57-.119.28-.396.59-.273.31-.913.85-.534.449-.685.61-.152.158-.251.32zM206.64 166.36q0-1.604.862-2.509.861-.91 2.223-.91.892 0 1.609.427.716.426 1.089 1.191.378.76.378 1.727 0 .98-.395 1.753-.396.773-1.121 1.173-.725.396-1.564.396-.91 0-1.626-.44-.716-.439-1.086-1.199-.369-.761-.369-1.609zm.879.013q0 1.165.624 1.837.629.668 1.573.668.963 0 1.582-.676.625-.677.625-1.921 0-.786-.269-1.371-.263-.589-.777-.91-.51-.325-1.147-.325-.906 0-1.56.624-.651.62-.651 2.074zM244.62 147.48v-6.442h.874l3.384 5.058v-5.058h.817v6.442h-.874l-3.384-5.063v5.063z"/>
    <path d="M250.73 147.02l-.3.52 8.92 5.15v-.7zM251.94 144.97l-.3.52 8.62 4.98.6-.35zM259.35 150.98l.6.34v9.78h-.6z" fill-rule="evenodd" shape-rendering="geometricPrecision" stroke-width="0"/>
    <path d="M257.11 169.08v-6.442h2.856q.861 0 1.31.175.448.172.716.611.268.44.268.971 0 .686-.444 1.156t-1.371.598q.338.162.514.321.374.342.708.857l1.12 1.753h-1.072l-.853-1.34q-.373-.58-.615-.888-.241-.308-.435-.431-.189-.123-.387-.171-.145-.031-.474-.031h-.989v2.861zm.852-3.599h1.833q.584 0 .914-.119.329-.123.501-.386.171-.269.171-.581 0-.457-.334-.751-.33-.294-1.046-.294h-2.039zM263.5 164.92l-.203-1.204v-1.076h.901v1.076l-.211 1.204zM265.22 164.92l-.202-1.204v-1.076h.901v1.076l-.211 1.204z"/>
    <path d="m259.95 151.32-0.6-0.34 8.71-5.03 0.15 0.26 0.15 0.25z" fill-rule="evenodd" shape-rendering="geometricPrecision" stroke-width="0"/>
    <path d="M269.58 147.48v-6.442h2.856q.861 0 1.31.175.448.172.716.611.268.44.268.971 0 .686-.444 1.156t-1.371.598q.338.162.514.321.374.342.708.857l1.12 1.753h-1.072l-.853-1.34q-.373-.58-.615-.888-.241-.308-.435-.431-.189-.123-.387-.171-.145-.031-.474-.031h-.989v2.861zm.852-3.599h1.833q.584 0 .914-.119.329-.123.501-.386.171-.269.171-.581 0-.457-.334-.751-.33-.294-1.046-.294h-2.039zM275.97 143.32l-.203-1.204v-1.076h.901v1.076l-.211 1.204z"/>
    <path d="m243.16 145.92 0.3 0.52-4.52 2.62-0.3-0.52z" fill-rule="evenodd" shape-rendering="geometricPrecision" stroke-width="0"/>
    <path d="m232.17 154.68v-6.442h2.856q0.861 0 1.31 0.175 0.448 0.172 0.716 0.611 0.268 0.44 0.268 0.971 0 0.686-0.444 1.156t-1.371 0.598q0.338 0.162 0.514 0.321 0.374 0.342 0.708 0.857l1.12 1.753h-1.072l-0.853-1.34q-0.373-0.58-0.615-0.888-0.241-0.308-0.435-0.431-0.189-0.123-0.387-0.171-0.145-0.031-0.474-0.031h-0.989v2.861zm0.852-3.599h1.833q0.584 0 0.914-0.119 0.329-0.123 0.501-0.386 0.171-0.269 0.171-0.581 0-0.457-0.334-0.751-0.33-0.294-1.046-0.294h-2.039z"/>
  </g>
</svg>