<?xml version="1.0" encoding="UTF-8" standalone="no"?>
<!-- Created with Inkscape (http://www.inkscape.org/) -->
<svg xmlns:dc="http://purl.org/dc/elements/1.1/" xmlns:cc="http://creativecommons.org/ns#" xmlns:rdf="http://www.w3.org/1999/02/22-rdf-syntax-ns#" xmlns:svg="http://www.w3.org/2000/svg" xmlns="http://www.w3.org/2000/svg" xmlns:sodipodi="http://sodipodi.sourceforge.net/DTD/sodipodi-0.dtd" xmlns:inkscape="http://www.inkscape.org/namespaces/inkscape" width="385" height="385" id="svg2" version="1.1" inkscape:version="0.47 r22583" sodipodi:docname="Nouveau document 1">
  <defs id="defs4">
    <marker inkscape:stockid="TriangleOutL" orient="auto" refY="0" refX="0" id="TriangleOutL" style="overflow:visible">
      <path id="path3812" d="m 5.77,0 -8.65,5 0,-10 8.65,5 z" style="fill-rule:evenodd;stroke:#000000;stroke-width:1pt;marker-start:none" transform="scale(0.8,0.8)"/>
    </marker>
    <marker inkscape:stockid="TriangleOutM" orient="auto" refY="0" refX="0" id="TriangleOutM" style="overflow:visible">
      <path id="path3815" d="m 5.77,0 -8.65,5 0,-10 8.65,5 z" style="fill-rule:evenodd;stroke:#000000;stroke-width:1pt;marker-start:none" transform="scale(0.4,0.4)"/>
    </marker>
    <marker inkscape:stockid="Arrow1Lend" orient="auto" refY="0" refX="0" id="Arrow1Lend" style="overflow:visible">
      <path id="path3672" d="M 0,0 5,-5 -12.5,0 5,5 0,0 z" style="fill-rule:evenodd;stroke:#000000;stroke-width:1pt;marker-start:none" transform="matrix(-0.8,0,0,-0.8,-10,0)"/>
    </marker>
    <inkscape:path-effect effect="spiro" id="path-effect2892" is_visible="true"/>
    <inkscape:perspective sodipodi:type="inkscape:persp3d" inkscape:vp_x="0 : 526.18109 : 1" inkscape:vp_y="0 : 1000 : 0" inkscape:vp_z="744.09448 : 526.18109 : 1" inkscape:persp3d-origin="372.04724 : 350.78739 : 1" id="perspective10"/>
    <inkscape:perspective id="perspective2884" inkscape:persp3d-origin="0.5 : 0.33333333 : 1" inkscape:vp_z="1 : 0.5 : 1" inkscape:vp_y="0 : 1000 : 0" inkscape:vp_x="0 : 0.5 : 1" sodipodi:type="inkscape:persp3d"/>
  </defs>
  <sodipodi:namedview id="base" pagecolor="#ffffff" bordercolor="#666666" borderopacity="1.0" inkscape:pageopacity="0.0" inkscape:pageshadow="2" inkscape:zoom="0.98994949" inkscape:cx="279.68848" inkscape:cy="209.78853" inkscape:document-units="px" inkscape:current-layer="layer1" showgrid="false" inkscape:window-width="1280" inkscape:window-height="726" inkscape:window-x="0" inkscape:window-y="25" inkscape:window-maximized="1"/>
  <metadata id="metadata7">
    <rdf:RDF>
      <cc:Work rdf:about="">
        <dc:format>image/svg+xml</dc:format>
        <dc:type rdf:resource="http://purl.org/dc/dcmitype/StillImage"/>
        <dc:title/>
      </cc:Work>
    </rdf:RDF>
  </metadata>
  <g inkscape:label="Calque 1" inkscape:groupmode="layer" id="layer1" transform="translate(-154.76118,-196.17705)">
    <g id="g4903" transform="translate(2.6004248,-2.6017471)">
      <g id="g4829">
        <g id="g4679" style="fill:#ff0000">
          <path style="font-size:medium;font-style:normal;font-variant:normal;font-weight:normal;font-stretch:normal;text-indent:0;text-align:start;text-decoration:none;line-height:normal;letter-spacing:normal;word-spacing:normal;text-transform:none;direction:ltr;block-progression:tb;writing-mode:lr-tb;text-anchor:start;color:#000000;fill:#ff0000;fill-opacity:1;stroke:none;stroke-width:4;marker:none;visibility:visible;display:inline;overflow:visible;enable-background:accumulate;font-family:Adobe Caslon Pro;-inkscape-font-specification:Adobe Caslon Pro" d="m 172.78125,240.375 0,292.28125 4,0 0,-292.28125 -4,0 z" id="path2890"/>
          <path style="fill:#ff0000;fill-rule:evenodd;stroke:#ff0000;stroke-width:3.2pt;marker-start:none" d="m 174.775,535.96504 c 0,0 -5.5,-16.69459 -5.5,-16.69459 1.83333,0 3.66667,0 5.5,0 1.83333,0 3.66667,0 5.5,0 l -5.5,16.69459 z" id="path4685" sodipodi:nodetypes="ccscc"/>
        </g>
        <g style="fill:#ff0000" id="g4687" transform="matrix(0,-1,1,0,-46.44184,736.20666)">
          <path id="path4689" d="m 172.78125,240.375 0,292.28125 4,0 0,-292.28125 -4,0 z" style="font-size:medium;font-style:normal;font-variant:normal;font-weight:normal;font-stretch:normal;text-indent:0;text-align:start;text-decoration:none;line-height:normal;letter-spacing:normal;word-spacing:normal;text-transform:none;direction:ltr;block-progression:tb;writing-mode:lr-tb;text-anchor:start;color:#000000;fill:#ff0000;fill-opacity:1;stroke:none;stroke-width:4;marker:none;visibility:visible;display:inline;overflow:visible;enable-background:accumulate;font-family:Adobe Caslon Pro;-inkscape-font-specification:Adobe Caslon Pro"/>
          <path sodipodi:nodetypes="ccscc" id="path4691" d="m 174.775,535.96504 c 0,0 -5.5,-16.69459 -5.5,-16.69459 1.83333,0 3.66667,0 5.5,0 1.83333,0 3.66667,0 5.5,0 l -5.5,16.69459 z" style="fill:#ff0000;fill-rule:evenodd;stroke:#ff0000;stroke-width:3.2pt;marker-start:none"/>
        </g>
        <g transform="matrix(0,1,-1,0,736.00534,46.656659)" id="g4693" style="fill:#ff0000">
          <path style="font-size:medium;font-style:normal;font-variant:normal;font-weight:normal;font-stretch:normal;text-indent:0;text-align:start;text-decoration:none;line-height:normal;letter-spacing:normal;word-spacing:normal;text-transform:none;direction:ltr;block-progression:tb;writing-mode:lr-tb;text-anchor:start;color:#000000;fill:#ff0000;fill-opacity:1;stroke:none;stroke-width:4;marker:none;visibility:visible;display:inline;overflow:visible;enable-background:accumulate;font-family:Adobe Caslon Pro;-inkscape-font-specification:Adobe Caslon Pro" d="m 172.78125,240.375 0,292.28125 4,0 0,-292.28125 -4,0 z" id="path4695"/>
          <path style="fill:#ff0000;fill-rule:evenodd;stroke:#ff0000;stroke-width:3.2pt;marker-start:none" d="m 174.775,535.96504 c 0,0 -5.5,-16.69459 -5.5,-16.69459 1.83333,0 3.66667,0 5.5,0 1.83333,0 3.66667,0 5.5,0 l -5.5,16.69459 z" id="path4697" sodipodi:nodetypes="ccscc"/>
        </g>
        <g style="fill:#ff0000" id="g4699" transform="matrix(-1,0,0,-1,689.46304,782.72789)">
          <path id="path4701" d="m 172.78125,240.375 0,292.28125 4,0 0,-292.28125 -4,0 z" style="font-size:medium;font-style:normal;font-variant:normal;font-weight:normal;font-stretch:normal;text-indent:0;text-align:start;text-decoration:none;line-height:normal;letter-spacing:normal;word-spacing:normal;text-transform:none;direction:ltr;block-progression:tb;writing-mode:lr-tb;text-anchor:start;color:#000000;fill:#ff0000;fill-opacity:1;stroke:none;stroke-width:4;marker:none;visibility:visible;display:inline;overflow:visible;enable-background:accumulate;font-family:Adobe Caslon Pro;-inkscape-font-specification:Adobe Caslon Pro"/>
          <path sodipodi:nodetypes="ccscc" id="path4703" d="m 174.775,535.96504 c 0,0 -5.5,-16.69459 -5.5,-16.69459 1.83333,0 3.66667,0 5.5,0 1.83333,0 3.66667,0 5.5,0 l -5.5,16.69459 z" style="fill:#ff0000;fill-rule:evenodd;stroke:#ff0000;stroke-width:3.2pt;marker-start:none"/>
        </g>
        <g style="fill:#ff0000" id="g4705" transform="matrix(0,1,-1,0,831.96983,292.12373)">
          <path id="path4707" d="m 172.78125,431.3254 0,101.33085 4,0 0,-101.33085 -4,0 z" style="font-size:medium;font-style:normal;font-variant:normal;font-weight:normal;font-stretch:normal;text-indent:0;text-align:start;text-decoration:none;line-height:normal;letter-spacing:normal;word-spacing:normal;text-transform:none;direction:ltr;block-progression:tb;writing-mode:lr-tb;text-anchor:start;color:#000000;fill:#ff0000;fill-opacity:1;stroke:none;stroke-width:4;marker:none;visibility:visible;display:inline;overflow:visible;enable-background:accumulate;font-family:Adobe Caslon Pro;-inkscape-font-specification:Adobe Caslon Pro" sodipodi:nodetypes="ccccc"/>
          <path sodipodi:nodetypes="ccscc" id="path4709" d="m 174.775,537.10146 c 0,0 -5.5,-16.69459 -5.5,-16.69459 1.83333,0 3.66667,0 5.5,0 1.83333,0 3.66667,0 5.5,0 l -5.5,16.69459 z" style="fill:#ff0000;fill-rule:evenodd;stroke:#ff0000;stroke-width:3.2pt;marker-start:none"/>
        </g>
        <g transform="matrix(-1,0,0,-1,443.74965,879.38118)" id="g4711" style="fill:#ff0000">
          <path sodipodi:nodetypes="ccccc" style="font-size:medium;font-style:normal;font-variant:normal;font-weight:normal;font-stretch:normal;text-indent:0;text-align:start;text-decoration:none;line-height:normal;letter-spacing:normal;word-spacing:normal;text-transform:none;direction:ltr;block-progression:tb;writing-mode:lr-tb;text-anchor:start;color:#000000;fill:#ff0000;fill-opacity:1;stroke:none;stroke-width:4;marker:none;visibility:visible;display:inline;overflow:visible;enable-background:accumulate;font-family:Adobe Caslon Pro;-inkscape-font-specification:Adobe Caslon Pro" d="m 172.78125,431.3254 0,101.33085 4,0 0,-101.33085 -4,0 z" id="path4713"/>
          <path style="fill:#ff0000;fill-rule:evenodd;stroke:#ff0000;stroke-width:3.2pt;marker-start:none" d="m 174.775,537.10146 c 0,0 -5.5,-16.69459 -5.5,-16.69459 1.83333,0 3.66667,0 5.5,0 1.83333,0 3.66667,0 5.5,0 l -5.5,16.69459 z" id="path4715" sodipodi:nodetypes="ccscc"/>
        </g>
        <g style="fill:#ff0000" id="g4717" transform="translate(246.22761,-95.591366)">
          <path id="path4719" d="m 172.78125,431.3254 0,101.33085 4,0 0,-101.33085 -4,0 z" style="font-size:medium;font-style:normal;font-variant:normal;font-weight:normal;font-stretch:normal;text-indent:0;text-align:start;text-decoration:none;line-height:normal;letter-spacing:normal;word-spacing:normal;text-transform:none;direction:ltr;block-progression:tb;writing-mode:lr-tb;text-anchor:start;color:#000000;fill:#ff0000;fill-opacity:1;stroke:none;stroke-width:4;marker:none;visibility:visible;display:inline;overflow:visible;enable-background:accumulate;font-family:Adobe Caslon Pro;-inkscape-font-specification:Adobe Caslon Pro" sodipodi:nodetypes="ccccc"/>
          <path sodipodi:nodetypes="ccscc" id="path4721" d="m 174.775,537.10146 c 0,0 -5.5,-16.69459 -5.5,-16.69459 1.83333,0 3.66667,0 5.5,0 1.83333,0 3.66667,0 5.5,0 l -5.5,16.69459 z" style="fill:#ff0000;fill-rule:evenodd;stroke:#ff0000;stroke-width:3.2pt;marker-start:none"/>
        </g>
        <g transform="matrix(0,-1,1,0,-142.49764,490.15085)" id="g4723" style="fill:#ff0000">
          <path sodipodi:nodetypes="ccccc" style="font-size:medium;font-style:normal;font-variant:normal;font-weight:normal;font-stretch:normal;text-indent:0;text-align:start;text-decoration:none;line-height:normal;letter-spacing:normal;word-spacing:normal;text-transform:none;direction:ltr;block-progression:tb;writing-mode:lr-tb;text-anchor:start;color:#000000;fill:#ff0000;fill-opacity:1;stroke:none;stroke-width:4;marker:none;visibility:visible;display:inline;overflow:visible;enable-background:accumulate;font-family:Adobe Caslon Pro;-inkscape-font-specification:Adobe Caslon Pro" d="m 172.78125,431.3254 0,101.33085 4,0 0,-101.33085 -4,0 z" id="path4725"/>
          <path style="fill:#ff0000;fill-rule:evenodd;stroke:#ff0000;stroke-width:3.2pt;marker-start:none" d="m 174.775,537.10146 c 0,0 -5.5,-16.69459 -5.5,-16.69459 1.83333,0 3.66667,0 5.5,0 1.83333,0 3.66667,0 5.5,0 l -5.5,16.69459 z" id="path4727" sodipodi:nodetypes="ccscc"/>
        </g>
      </g>
      <g id="g4799">
        <g id="g4791">
          <g transform="translate(18.687822,0)" id="g4731" style="fill:#00ff00">
            <path sodipodi:nodetypes="ccccc" style="font-size:medium;font-style:normal;font-variant:normal;font-weight:normal;font-stretch:normal;text-indent:0;text-align:start;text-decoration:none;line-height:normal;letter-spacing:normal;word-spacing:normal;text-transform:none;direction:ltr;block-progression:tb;writing-mode:lr-tb;text-anchor:start;color:#000000;fill:#00ff00;fill-opacity:1;stroke:none;stroke-width:4;marker:none;visibility:visible;display:inline;overflow:visible;enable-background:accumulate;font-family:Adobe Caslon Pro;-inkscape-font-specification:Adobe Caslon Pro" d="m 172.78125,240.375 51.0127,184.19493 4,0 -51.0127,-184.19493 -4,0 z" id="path4733"/>
            <path style="fill:#00ff00;fill-rule:evenodd;stroke:#00ff00;stroke-width:3.2pt;marker-start:none" d="m 230.78062,441.55951 c 0,0 -9.96176,-14.4818 -9.96176,-14.4818 3.51948,-1.02844 7.03896,-2.05687 10.55845,-3.08531 l -0.59669,17.56711 z" id="path4735" sodipodi:nodetypes="cccc"/>
          </g>
          <g style="fill:#00ff00" id="g4737" transform="matrix(0.8660254,0.5,-0.5,0.8660254,217.5932,39.275285)">
            <path id="path4739" d="m 172.78125,240.375 51.0127,184.19493 4,0 -51.0127,-184.19493 -4,0 z" style="font-size:medium;font-style:normal;font-variant:normal;font-weight:normal;font-stretch:normal;text-indent:0;text-align:start;text-decoration:none;line-height:normal;letter-spacing:normal;word-spacing:normal;text-transform:none;direction:ltr;block-progression:tb;writing-mode:lr-tb;text-anchor:start;color:#000000;fill:#00ff00;fill-opacity:1;stroke:none;stroke-width:4;marker:none;visibility:visible;display:inline;overflow:visible;enable-background:accumulate;font-family:Adobe Caslon Pro;-inkscape-font-specification:Adobe Caslon Pro" sodipodi:nodetypes="ccccc"/>
            <path sodipodi:nodetypes="cccc" id="path4741" d="m 230.78062,441.55951 c 0,0 -9.96176,-14.4818 -9.96176,-14.4818 3.51948,-1.02844 7.03896,-2.05687 10.55845,-3.08531 l -0.59669,17.56711 z" style="fill:#00ff00;fill-rule:evenodd;stroke:#00ff00;stroke-width:3.2pt;marker-start:none"/>
          </g>
        </g>
        <g id="g4755">
          <g inkscape:transform-center-y="26.332991" inkscape:transform-center-x="-102.28721" style="fill:#00ff00" id="g4743" transform="matrix(0.5109607,-0.85960407,0.85960407,0.5109607,-7.7284021,513.60166)">
            <path id="path4745" d="m 172.78125,240.375 51.0127,184.19493 4,0 -51.0127,-184.19493 -4,0 z" style="font-size:medium;font-style:normal;font-variant:normal;font-weight:normal;font-stretch:normal;text-indent:0;text-align:start;text-decoration:none;line-height:normal;letter-spacing:normal;word-spacing:normal;text-transform:none;direction:ltr;block-progression:tb;writing-mode:lr-tb;text-anchor:start;color:#000000;fill:#00ff00;fill-opacity:1;stroke:none;stroke-width:4;marker:none;visibility:visible;display:inline;overflow:visible;enable-background:accumulate;font-family:Adobe Caslon Pro;-inkscape-font-specification:Adobe Caslon Pro" sodipodi:nodetypes="ccccc"/>
            <path sodipodi:nodetypes="cccc" id="path4747" d="m 230.78062,441.55951 c 0,0 -9.96176,-14.4818 -9.96176,-14.4818 3.51948,-1.02844 7.03896,-2.05687 10.55845,-3.08531 l -0.59669,17.56711 z" style="fill:#00ff00;fill-rule:evenodd;stroke:#00ff00;stroke-width:3.2pt;marker-start:none"/>
          </g>
          <g transform="matrix(0.5109607,0.85960407,0.85960407,-0.5109607,-101.67259,514.86509)" id="g4749" style="fill:#00ff00" inkscape:transform-center-x="-102.28721" inkscape:transform-center-y="-26.332992">
            <path sodipodi:nodetypes="ccccc" style="font-size:medium;font-style:normal;font-variant:normal;font-weight:normal;font-stretch:normal;text-indent:0;text-align:start;text-decoration:none;line-height:normal;letter-spacing:normal;word-spacing:normal;text-transform:none;direction:ltr;block-progression:tb;writing-mode:lr-tb;text-anchor:start;color:#000000;fill:#00ff00;fill-opacity:1;stroke:none;stroke-width:4;marker:none;visibility:visible;display:inline;overflow:visible;enable-background:accumulate;font-family:Adobe Caslon Pro;-inkscape-font-specification:Adobe Caslon Pro" d="m 172.78125,240.375 51.0127,184.19493 4,0 -51.0127,-184.19493 -4,0 z" id="path4751"/>
            <path style="fill:#00ff00;fill-rule:evenodd;stroke:#00ff00;stroke-width:3.2pt;marker-start:none" d="m 230.78062,441.55951 c 0,0 -9.96176,-14.4818 -9.96176,-14.4818 3.51948,-1.02844 7.03896,-2.05687 10.55845,-3.08531 l -0.59669,17.56711 z" id="path4753" sodipodi:nodetypes="cccc"/>
          </g>
        </g>
        <g id="g4763" transform="matrix(0,-1,1,0,-45.465832,736.52369)">
          <g transform="matrix(0.5109607,-0.85960407,0.85960407,0.5109607,-7.7284021,513.60166)" id="g4765" style="fill:#00ff00" inkscape:transform-center-x="-102.28721" inkscape:transform-center-y="26.332991">
            <path sodipodi:nodetypes="ccccc" style="font-size:medium;font-style:normal;font-variant:normal;font-weight:normal;font-stretch:normal;text-indent:0;text-align:start;text-decoration:none;line-height:normal;letter-spacing:normal;word-spacing:normal;text-transform:none;direction:ltr;block-progression:tb;writing-mode:lr-tb;text-anchor:start;color:#000000;fill:#00ff00;fill-opacity:1;stroke:none;stroke-width:4;marker:none;visibility:visible;display:inline;overflow:visible;enable-background:accumulate;font-family:Adobe Caslon Pro;-inkscape-font-specification:Adobe Caslon Pro" d="m 172.78125,240.375 51.0127,184.19493 4,0 -51.0127,-184.19493 -4,0 z" id="path4767"/>
            <path style="fill:#00ff00;fill-rule:evenodd;stroke:#00ff00;stroke-width:3.2pt;marker-start:none" d="m 230.78062,441.55951 c 0,0 -9.96176,-14.4818 -9.96176,-14.4818 3.51948,-1.02844 7.03896,-2.05687 10.55845,-3.08531 l -0.59669,17.56711 z" id="path4769" sodipodi:nodetypes="cccc"/>
          </g>
          <g inkscape:transform-center-y="-26.332992" inkscape:transform-center-x="-102.28721" style="fill:#00ff00" id="g4771" transform="matrix(0.5109607,0.85960407,0.85960407,-0.5109607,-101.67259,514.86509)">
            <path id="path4773" d="m 172.78125,240.375 51.0127,184.19493 4,0 -51.0127,-184.19493 -4,0 z" style="font-size:medium;font-style:normal;font-variant:normal;font-weight:normal;font-stretch:normal;text-indent:0;text-align:start;text-decoration:none;line-height:normal;letter-spacing:normal;word-spacing:normal;text-transform:none;direction:ltr;block-progression:tb;writing-mode:lr-tb;text-anchor:start;color:#000000;fill:#00ff00;fill-opacity:1;stroke:none;stroke-width:4;marker:none;visibility:visible;display:inline;overflow:visible;enable-background:accumulate;font-family:Adobe Caslon Pro;-inkscape-font-specification:Adobe Caslon Pro" sodipodi:nodetypes="ccccc"/>
            <path sodipodi:nodetypes="cccc" id="path4775" d="m 230.78062,441.55951 c 0,0 -9.96176,-14.4818 -9.96176,-14.4818 3.51948,-1.02844 7.03896,-2.05687 10.55845,-3.08531 l -0.59669,17.56711 z" style="fill:#00ff00;fill-rule:evenodd;stroke:#00ff00;stroke-width:3.2pt;marker-start:none"/>
          </g>
        </g>
        <g transform="matrix(-1,0,0,-1,690.0477,782.99967)" id="g4777">
          <g inkscape:transform-center-y="26.332991" inkscape:transform-center-x="-102.28721" style="fill:#00ff00" id="g4779" transform="matrix(0.5109607,-0.85960407,0.85960407,0.5109607,-7.7284021,513.60166)">
            <path id="path4781" d="m 172.78125,240.375 51.0127,184.19493 4,0 -51.0127,-184.19493 -4,0 z" style="font-size:medium;font-style:normal;font-variant:normal;font-weight:normal;font-stretch:normal;text-indent:0;text-align:start;text-decoration:none;line-height:normal;letter-spacing:normal;word-spacing:normal;text-transform:none;direction:ltr;block-progression:tb;writing-mode:lr-tb;text-anchor:start;color:#000000;fill:#00ff00;fill-opacity:1;stroke:none;stroke-width:4;marker:none;visibility:visible;display:inline;overflow:visible;enable-background:accumulate;font-family:Adobe Caslon Pro;-inkscape-font-specification:Adobe Caslon Pro" sodipodi:nodetypes="ccccc"/>
            <path sodipodi:nodetypes="cccc" id="path4783" d="m 230.78062,441.55951 c 0,0 -9.96176,-14.4818 -9.96176,-14.4818 3.51948,-1.02844 7.03896,-2.05687 10.55845,-3.08531 l -0.59669,17.56711 z" style="fill:#00ff00;fill-rule:evenodd;stroke:#00ff00;stroke-width:3.2pt;marker-start:none"/>
          </g>
          <g transform="matrix(0.5109607,0.85960407,0.85960407,-0.5109607,-101.67259,514.86509)" id="g4785" style="fill:#00ff00" inkscape:transform-center-x="-102.28721" inkscape:transform-center-y="-26.332992">
            <path sodipodi:nodetypes="ccccc" style="font-size:medium;font-style:normal;font-variant:normal;font-weight:normal;font-stretch:normal;text-indent:0;text-align:start;text-decoration:none;line-height:normal;letter-spacing:normal;word-spacing:normal;text-transform:none;direction:ltr;block-progression:tb;writing-mode:lr-tb;text-anchor:start;color:#000000;fill:#00ff00;fill-opacity:1;stroke:none;stroke-width:4;marker:none;visibility:visible;display:inline;overflow:visible;enable-background:accumulate;font-family:Adobe Caslon Pro;-inkscape-font-specification:Adobe Caslon Pro" d="m 172.78125,240.375 51.0127,184.19493 4,0 -51.0127,-184.19493 -4,0 z" id="path4787"/>
            <path style="fill:#00ff00;fill-rule:evenodd;stroke:#00ff00;stroke-width:3.2pt;marker-start:none" d="m 230.78062,441.55951 c 0,0 -9.96176,-14.4818 -9.96176,-14.4818 3.51948,-1.02844 7.03896,-2.05687 10.55845,-3.08531 l -0.59669,17.56711 z" id="path4789" sodipodi:nodetypes="cccc"/>
          </g>
        </g>
      </g>
      <rect ry="7.7678571" rx="7.7678571" y="542.04126" x="155.51118" height="38.385796" width="38.385796" id="rect4855" style="fill:none;stroke:#000000;stroke-width:1.5;stroke-linecap:butt;stroke-linejoin:round;stroke-miterlimit:4;stroke-opacity:1;stroke-dasharray:none;stroke-dashoffset:0"/>
      <rect style="fill:none;stroke:#000000;stroke-width:1.5;stroke-linecap:butt;stroke-linejoin:round;stroke-miterlimit:4;stroke-opacity:1;stroke-dasharray:none;stroke-dashoffset:0" id="rect4857" width="38.385796" height="38.385796" x="495.42453" y="542.04126" rx="7.7678571" ry="7.7678571"/>
      <rect style="fill:none;stroke:#000000;stroke-width:1.5;stroke-linecap:butt;stroke-linejoin:round;stroke-miterlimit:4;stroke-opacity:1;stroke-dasharray:none;stroke-dashoffset:0" id="rect4859" width="38.385796" height="38.385796" x="155.51118" y="202.13054" rx="7.7678571" ry="7.7678571"/>
      <rect ry="7.7678571" rx="7.7678571" y="202.13054" x="495.42453" height="38.385796" width="38.385796" id="rect4861" style="fill:none;stroke:#000000;stroke-width:1.5;stroke-linecap:butt;stroke-linejoin:round;stroke-miterlimit:4;stroke-opacity:1;stroke-dasharray:none;stroke-dashoffset:0"/>
      <rect style="fill:none;stroke:#000000;stroke-width:1.5;stroke-linecap:butt;stroke-linejoin:round;stroke-miterlimit:4;stroke-opacity:1;stroke-dasharray:none;stroke-dashoffset:0" id="rect4863" width="38.385796" height="38.385796" x="249.88618" y="448.1127" rx="7.7678571" ry="7.7678571"/>
      <rect ry="7.7678571" rx="7.7678571" y="448.1127" x="401.31476" height="38.385796" width="38.385796" id="rect4865" style="fill:none;stroke:#000000;stroke-width:1.5;stroke-linecap:butt;stroke-linejoin:round;stroke-miterlimit:4;stroke-opacity:1;stroke-dasharray:none;stroke-dashoffset:0"/>
      <rect ry="7.7678571" rx="7.7678571" y="296.211" x="249.50737" height="38.385796" width="38.385796" id="rect4867" style="fill:none;stroke:#000000;stroke-width:1.5;stroke-linecap:butt;stroke-linejoin:round;stroke-miterlimit:4;stroke-opacity:1;stroke-dasharray:none;stroke-dashoffset:0"/>
      <rect style="fill:none;stroke:#000000;stroke-width:1.5;stroke-linecap:butt;stroke-linejoin:round;stroke-miterlimit:4;stroke-opacity:1;stroke-dasharray:none;stroke-dashoffset:0" id="rect4869" width="38.385796" height="38.385796" x="400.93594" y="296.211" rx="7.7678571" ry="7.7678571"/>
      <text sodipodi:linespacing="125%" id="text4871" y="231" x="167.8" style="font-size:28px;font-style:italic;font-variant:normal;font-weight:normal;font-stretch:normal;text-align:start;line-height:125%;writing-mode:lr-tb;text-anchor:start;fill:#000000;fill-opacity:1;stroke:none;font-family:FreeSerif;-inkscape-font-specification:FreeSerif Italic" xml:space="preserve"><tspan y="231.33333" x="167.05873" id="tspan4873" sodipodi:role="line">j</tspan></text>
      <text xml:space="preserve" style="font-size:26px;font-style:italic;font-variant:normal;font-weight:normal;font-stretch:normal;text-align:start;line-height:125%;writing-mode:lr-tb;text-anchor:start;fill:#000000;fill-opacity:1;stroke:none;font-family:FreeSerif;-inkscape-font-specification:FreeSerif Italic" x="498.8" y="570.9" id="text4875" sodipodi:linespacing="125%"><tspan sodipodi:role="line" id="tspan4877" x="498.8" y="570.9">−j</tspan></text>
      <text sodipodi:linespacing="125%" id="text4879" y="571.5" x="159" style="font-size:26px;font-style:italic;font-variant:normal;font-weight:normal;font-stretch:normal;text-align:start;line-height:125%;writing-mode:lr-tb;text-anchor:start;fill:#000000;fill-opacity:1;stroke:none;font-family:FreeSerif;-inkscape-font-specification:FreeSerif Italic" xml:space="preserve"><tspan y="571.5" x="159" id="tspan4881" sodipodi:role="line">−k</tspan></text>
      <text xml:space="preserve" style="font-size:28px;font-style:italic;font-variant:normal;font-weight:normal;font-stretch:normal;text-align:start;line-height:125%;writing-mode:lr-tb;text-anchor:start;fill:#000000;fill-opacity:1;stroke:none;font-family:FreeSerif;-inkscape-font-specification:FreeSerif Italic" x="507.9" y="231.6" id="text4883" sodipodi:linespacing="125%"><tspan sodipodi:role="line" id="tspan4885" x="507.9" y="231.6">k</tspan></text>
      <text xml:space="preserve" style="font-size:26px;font-style:italic;font-variant:normal;font-weight:normal;font-stretch:normal;text-align:start;line-height:125%;writing-mode:lr-tb;text-anchor:start;fill:#000000;fill-opacity:1;stroke:none;font-family:FreeSerif;-inkscape-font-specification:FreeSerif Italic" x="256" y="325.2" id="text4887" sodipodi:linespacing="125%"><tspan sodipodi:role="line" id="tspan4889" x="256" y="325.2">−i</tspan></text>
      <text sodipodi:linespacing="125%" id="text4891" y="325.7" x="412.9" style="font-size:28px;font-style:normal;font-variant:normal;font-weight:normal;font-stretch:normal;text-align:start;line-height:125%;writing-mode:lr-tb;text-anchor:start;fill:#000000;fill-opacity:1;stroke:none;font-family:FreeSerif;-inkscape-font-specification:FreeSerif" xml:space="preserve"><tspan y="325.7" x="412.9" id="tspan4893" sodipodi:role="line">1</tspan></text>
      <text xml:space="preserve" style="font-size:26px;font-style:normal;font-variant:normal;font-weight:normal;font-stretch:normal;text-align:start;line-height:125%;writing-mode:lr-tb;text-anchor:start;fill:#000000;fill-opacity:1;stroke:none;font-family:FreeSerif;-inkscape-font-specification:FreeSerif" x="254.4" y="477.6" id="text4895" sodipodi:linespacing="125%"><tspan sodipodi:role="line" id="tspan4897" x="254.4" y="477.6">−1</tspan></text>
      <text sodipodi:linespacing="125%" id="text4899" y="477.1" x="416.3" style="font-size:28px;font-style:italic;font-variant:normal;font-weight:normal;font-stretch:normal;text-align:start;line-height:125%;writing-mode:lr-tb;text-anchor:start;fill:#000000;fill-opacity:1;stroke:none;font-family:FreeSerif;-inkscape-font-specification:FreeSerif Italic" xml:space="preserve"><tspan y="477.1" x="416.3" id="tspan4901" sodipodi:role="line">i</tspan></text>
    </g>
  </g>
</svg>