<svg xmlns="http://www.w3.org/2000/svg" xmlns:xlink="http://www.w3.org/1999/xlink" width="294.588" height="399.023" viewBox="0 0 220.941 299.267"><symbol id="a"><path d="M.144.115C.104.048.065.034.021.031.009.03 0 .03 0 .011 0 .005.005 0 .013 0l.086.003.1-.003c.006 0 .019 0 .019.019C.218.03.209.031.202.031.179.033.155.041.155.066c0 .012.006.023.014.037l.076.128h.251L.512.064C.512.034.46.031.44.031c-.014 0-.024 0-.024-.02C.416 0 .428 0 .43 0l.125.003L.668 0c.006 0 .018 0 .018.02 0 .011-.01.011-.023.011-.062 0-.062.007-.065.036L.537.692C.535.712.535.716.518.716.502.716.498.709.492.699L.144.115m.12.147.197.33.032-.33H.264z"/></symbol><use xlink:href="#a" transform="matrix(9.9626 0 0 -9.9626 6.16 286.776)"/><symbol id="b"><path d="M.118.078C.108.039.106.031.027.031.01.031 0 .031 0 .011 0 0 .009 0 .027 0h.357C.542 0 .66.118.66.216c0 .072-.058.13-.155.141.104.019.209.093.209.188 0 .074-.066.138-.186.138H.192c-.019 0-.029 0-.029-.02 0-.011.009-.011.028-.011.002 0 .021 0 .038-.002C.247.648.256.647.256.634L.252.615.118.078m.151.288.062.248C.34.649.342.652.385.652h.129C.602.652.623.593.623.549.623.461.537.366.415.366H.269M.224.031a.11.11 0 0 0-.022.001C.192.033.189.034.189.042c0 .003 0 .005.005.023l.069.279h.189C.548.344.567.27.567.227A.205.205 0 0 0 .36.031H.224z"/></symbol><use xlink:href="#b" transform="matrix(9.9626 0 0 -9.9626 110.341 13.283)"/><symbol id="c"><path d="M.71.717a.01.01 0 0 1-.011.01C.696.727.695.726.684.715L.614.638C.605.652.559.727.448.727A.48.48 0 0 1 0 .274C0 .109.118 0 .271 0c.087 0 .163.04.216.086a.33.33 0 0 1 .11.176c0 .01-.01.01-.012.01C.579.272.574.27.572.262A.325.325 0 0 0 .471.104.289.289 0 0 0 .287.031c-.09 0-.196.052-.196.208a.57.57 0 0 0 .121.336.34.34 0 0 0 .244.121C.558.696.617.619.617.503.617.463.614.462.614.452c0-.01.011-.01.015-.01.013 0 .013.002.018.02L.71.717z"/></symbol><use xlink:href="#c" transform="matrix(9.9626 0 0 -9.9626 209.263 129.205)"/><symbol id="d"><path d="M.119.078C.109.039.107.031.028.031.011.031 0 .031 0 .012 0 0 .009 0 .028 0h.331c.208 0 .405.211.405.43 0 .141-.085.253-.235.253H.193c-.019 0-.03 0-.03-.019 0-.012.009-.012.029-.012A.59.59 0 0 0 .235.65C.251.648.257.645.257.634L.253.615.119.078m.216.536c.009.035.011.038.054.038h.107C.594.652.677.599.677.467A.611.611 0 0 0 .572.144.3.3 0 0 0 .341.031H.228L.206.032C.196.033.193.034.193.042c0 .003 0 .005.005.023l.137.549z"/></symbol><use xlink:href="#d" transform="matrix(9.9626 0 0 -9.9626 209.163 286.776)"/><symbol id="e"><path d="m.67.233.005.014c0 .001 0 .011-.012.011C.654.258.652.252.65.246.585.098.548.031.377.031H.231L.209.032C.199.033.196.034.196.042c0 .003 0 .005.005.023l.068.273h.099C.453.338.453.317.453.292c0-.007 0-.019-.007-.049A.03.03 0 0 1 .443.232c0-.005.004-.011.013-.011.008 0 .011.005.015.02l.057.234c0 .006-.005.011-.012.011C.507.486.505.48.502.468.481.392.463.369.371.369H.277l.06.241c.009.035.01.039.054.039h.141C.654.649.684.62.684.538c0-.024 0-.026-.004-.053L.679.467c0-.005.003-.012.012-.012.011 0 .012.006.014.025l.02.173C.728.68.723.68.698.68H.193c-.02 0-.03 0-.03-.02 0-.011.009-.011.028-.011.037 0 .065 0 .065-.018 0-.004 0-.006-.005-.024L.119.078C.109.039.107.031.028.031.011.031 0 .031 0 .012 0 0 .009 0 .028 0h.519C.57 0 .571.001.578.017L.67.233z"/></symbol><use xlink:href="#e" transform="matrix(9.9626 0 0 -9.9626 209.144 20.406)"/><symbol id="f"><path d="M.265.325h.097C.437.325.445.309.445.28c0-.007 0-.019-.007-.049A.036.036 0 0 1 .435.22c0-.008.006-.012.012-.012.01 0 .01.003.015.021l.055.217A.051.051 0 0 1 .52.462C.52.464.518.473.508.473S.497.468.493.452C.472.374.449.356.364.356H.273L.337.61c.009.035.01.039.054.039h.132c.123 0 .146-.033.146-.11 0-.023 0-.027-.003-.054L.664.467c0-.005.003-.012.012-.012.011 0 .012.006.014.025l.02.173C.713.68.708.68.683.68h-.49c-.02 0-.03 0-.03-.02 0-.011.009-.011.028-.011.037 0 .065 0 .065-.018 0-.004 0-.006-.005-.024L.119.078C.109.039.107.031.028.031.011.031 0 .031 0 .012 0 0 .012 0 .015 0l.132.003L.296 0c.009 0 .021 0 .021.019 0 .008-.006.01-.006.011L.283.031c-.022 0-.027 0-.052.002C.202.036.199.04.199.053c0 .002 0 .008.004.023l.062.249z"/></symbol><use xlink:href="#f" transform="matrix(9.9626 0 0 -9.9626 5.872 20.406)"/><path stroke-width=".797" stroke-miterlimit="10" fill="none" stroke="#000" d="M17.002 283.372V16.999h188.046v266.373zM17.002 283.372l96.95-266.373"/><symbol id="g"><path d="M.205.64c0 .024 0 .026-.023.026C.12.602.032.602 0 .602V.571a.3.3 0 0 1 .131.026V.079C.131.043.128.031.038.031H.006V0c.035.003.122.003.162.003.04 0 .127 0 .162-.003v.031H.298c-.09 0-.093.011-.093.048V.64z"/></symbol><use xlink:href="#g" transform="scale(9.96245 -9.96245) rotate(70 13.865 -3.146)"/><path stroke-width=".797" stroke-miterlimit="10" fill="none" stroke="#000" d="M17.002 283.372 205.048 125.58"/><symbol id="h"><path d="M.083.229c0 .163.082.205.135.205C.227.434.29.433.325.397.284.394.278.364.278.351c0-.026.018-.046.046-.046C.35.305.37.322.37.352.37.42.294.459.217.459.092.459 0 .351 0 .227 0 .099.099 0 .215 0c.134 0 .166.12.166.13 0 .01-.01.01-.013.01C.359.14.357.136.355.13.326.037.261.025.224.025.171.025.083.068.083.229z"/></symbol><symbol id="i"><path d="M.443.225c0 .128-.1.234-.221.234C.097.459 0 .35 0 .225 0 .096.104 0 .221 0c.121 0 .222.098.222.225m-.221-.2a.13.13 0 0 0-.114.067C.083.136.083.197.083.233c0 .039 0 .093.024.137a.134.134 0 0 0 .114.067.131.131 0 0 0 .113-.065C.36.329.36.271.36.233c0-.036 0-.09-.022-.134A.129.129 0 0 0 .222.025z"/></symbol><symbol id="j"><path d="M.175.205C.197.201.279.185.279.113.279.062.244.022.166.022c-.084 0-.12.057-.139.142C.024.177.023.181.013.181 0 .181 0 .174 0 .156V.024C0 .007 0 0 .011 0c.005 0 .006.001.025.02.002.002.002.004.02.023A.15.15 0 0 1 .166 0c.115 0 .161.067.161.139 0 .053-.03.083-.042.095C.252.266.213.274.171.282.115.293.048.306.048.364.048.399.074.44.16.44.27.44.275.35.277.319.278.31.287.31.289.31c.013 0 .013.005.013.024v.101c0 .017 0 .024-.011.024-.005 0-.007 0-.02-.012A.129.129 0 0 0 .254.431C.216.459.175.459.16.459.038.459 0 .392 0 .336 0 .301.016.273.043.251.075.225.103.219.175.205z"/></symbol><use xlink:href="#h" transform="scale(9.96236 -9.96236) rotate(40.001 33.517 3.356)"/><use xlink:href="#i" transform="scale(9.96236 -9.96236) rotate(40.001 33.298 3.958)"/><use xlink:href="#j" transform="scale(9.96236 -9.96236) rotate(40.001 33.045 4.652)"/><symbol id="k"><path d="M.546.763A.133.133 0 0 1 .41.9.175.175 0 0 1 .289.858.427.427 0 0 1 .16.645L.001.01C0 .006.005 0 .013 0s.011.002.012.005l.07.276C.114.221.158.184.231.184c.073 0 .148.035.193.079.048.046.08.11.08.184a.18.18 0 0 1-.073.149c.058.033.115.095.115.167M.366.597A.118.118 0 0 0 .318.59C.304.59.284.589.274.594c.002.01.038.008.049.008.021 0 .03 0 .043-.005M.49.786A.21.21 0 0 0 .4.613a.198.198 0 0 1-.077.012C.302.625.246.626.246.593.245.565.297.568.315.568a.18.18 0 0 1 .082.013C.435.545.44.514.441.468a.32.32 0 0 0-.05-.172.217.217 0 0 0-.163-.09C.152.206.114.264.114.335c0 .01 0 .025.005.044l.064.253c.022.086.094.245.214.245C.455.877.49.846.49.786z"/></symbol><use xlink:href="#k" transform="scale(9.96236 -9.96236) rotate(40.001 33.018 5.509)"/><path stroke-width=".797" stroke-miterlimit="10" fill="none" stroke="#000" d="m113.952 16.999 91.096 108.582"/><symbol id="l"><path d="M.144.442.004.431V.4C.069.4.078.394.078.345V.076C.078.031.067.031 0 .031V0l.11.003C.145.003.18.001.214 0v.031c-.066 0-.07.005-.07.044v.367m.004.174a.052.052 0 0 1-.053.053.054.054 0 0 1-.053-.053c0-.027.022-.053.053-.053.028 0 .053.021.053.053z"/></symbol><symbol id="m"><path d="M.078.344V.076C.078.031.067.031 0 .031V0l.113.003L.225 0v.031c-.067 0-.078 0-.078.045V.26c0 .104.071.16.135.16C.345.42.356.366.356.309V.076C.356.031.345.031.278.031V0l.113.003L.503 0v.031c-.052 0-.077 0-.078.03v.191c0 .086 0 .117-.031.153C.38.422.347.442.289.442.216.442.169.399.141.337v.105L0 .431V.4C.07.4.078.393.078.344z"/></symbol><use xlink:href="#j" transform="scale(9.96244 -9.96244) rotate(-50.004 -.337 -19.16)"/><use xlink:href="#l" transform="scale(9.96244 -9.96244) rotate(-50.004 -.522 -19.588)"/><use xlink:href="#m" transform="scale(9.96244 -9.96244) rotate(-50.004 -.661 -19.885)"/><use xlink:href="#k" transform="scale(9.96244 -9.96244) rotate(-50.004 -1.229 -20.56)"/><path stroke-width=".797" stroke-miterlimit="10" fill="none" stroke="#000" d="M17.002 283.372h188.046"/><use xlink:href="#h" transform="matrix(9.9626 0 0 -9.9626 89.248 294.119)"/><use xlink:href="#i" transform="matrix(9.9626 0 0 -9.9626 93.611 294.119)"/><use xlink:href="#j" transform="matrix(9.9626 0 0 -9.9626 98.642 294.119)"/><symbol id="n"><path d="M.436.247c0 .157-.093.206-.167.206C.132.453 0 .31 0 .169 0 .076.06 0 .162 0c.063 0 .135.023.211.084C.386.031.419 0 .464 0c.053 0 .084.055.084.071 0 .007-.006.01-.012.01-.007 0-.01-.003-.013-.01C.505.022.469.022.467.022.436.022.436.1.436.124c0 .021 0 .023.01.035a.578.578 0 0 1 .115.235c0 .002-.001.01-.012.01-.01 0-.01-.003-.015-.021A.59.59 0 0 0 .436.185v.062M.369.11A.311.311 0 0 0 .164.022c-.06 0-.09.045-.09.109C.074.18.1.288.132.339c.047.073.101.092.136.092C.367.431.367.3.367.222c0-.037 0-.095.002-.112z"/></symbol><use xlink:href="#n" transform="matrix(9.9626 0 0 -9.9626 104.316 294.119)"/><use xlink:href="#h" transform="matrix(9.9626 0 0 -9.9626 112.318 294.119)"/><use xlink:href="#i" transform="matrix(9.9626 0 0 -9.9626 116.681 294.119)"/><use xlink:href="#j" transform="matrix(9.9626 0 0 -9.9626 121.712 294.119)"/><use xlink:href="#k" transform="matrix(9.9626 0 0 -9.9626 127.267 295.942)"/><path stroke-width=".797" stroke-miterlimit="10" fill="none" stroke="#000" d="M205.048 283.372V125.58"/><use xlink:href="#j" transform="matrix(0 -9.9626 -9.9626 0 215.794 225.71)"/><use xlink:href="#l" transform="matrix(0 -9.9626 -9.9626 0 215.684 221.785)"/><use xlink:href="#m" transform="matrix(0 -9.9626 -9.9626 0 215.684 219.025)"/><use xlink:href="#n" transform="matrix(0 -9.9626 -9.9626 0 215.794 211.739)"/><use xlink:href="#h" transform="matrix(0 -9.9626 -9.9626 0 215.794 203.738)"/><use xlink:href="#i" transform="matrix(0 -9.9626 -9.9626 0 215.794 199.375)"/><use xlink:href="#j" transform="matrix(0 -9.9626 -9.9626 0 215.794 194.344)"/><use xlink:href="#k" transform="matrix(0 -9.9626 -9.9626 0 217.617 188.788)"/><path stroke-width=".797" stroke-miterlimit="10" fill="none" stroke="#000" d="M205.048 125.58V17"/><use xlink:href="#h" transform="matrix(0 -9.9626 -9.9626 0 215.794 92.515)"/><use xlink:href="#i" transform="matrix(0 -9.9626 -9.9626 0 215.794 88.152)"/><use xlink:href="#j" transform="matrix(0 -9.9626 -9.9626 0 215.794 83.12)"/><use xlink:href="#n" transform="matrix(0 -9.9626 -9.9626 0 215.794 77.447)"/><use xlink:href="#j" transform="matrix(0 -9.9626 -9.9626 0 215.794 69.456)"/><use xlink:href="#l" transform="matrix(0 -9.9626 -9.9626 0 215.684 65.531)"/><use xlink:href="#m" transform="matrix(0 -9.9626 -9.9626 0 215.684 62.771)"/><use xlink:href="#k" transform="matrix(0 -9.9626 -9.9626 0 217.617 55.603)"/><path stroke-width=".797" stroke-miterlimit="10" fill="none" stroke="#000" d="M113.952 16.999h91.096"/><use xlink:href="#j" transform="matrix(9.9626 0 0 -9.9626 138.819 11.456)"/><use xlink:href="#l" transform="matrix(9.9626 0 0 -9.9626 142.744 11.346)"/><use xlink:href="#m" transform="matrix(9.9626 0 0 -9.9626 145.504 11.346)"/><use xlink:href="#n" transform="matrix(9.9626 0 0 -9.9626 152.791 11.456)"/><use xlink:href="#j" transform="matrix(9.9626 0 0 -9.9626 160.782 11.456)"/><use xlink:href="#l" transform="matrix(9.9626 0 0 -9.9626 164.707 11.346)"/><use xlink:href="#m" transform="matrix(9.9626 0 0 -9.9626 167.467 11.346)"/><use xlink:href="#k" transform="matrix(9.9626 0 0 -9.9626 174.635 13.279)"/><path stroke-width=".797" stroke-miterlimit="10" fill="none" stroke="#000" d="M17.002 16.999h96.95"/><symbol id="o"><path d="M.232.01c0 .003 0 .005-.017.022C.09.158.058.347.058.5c0 .174.038.348.161.473.013.012.013.014.013.017 0 .007-.004.01-.01.01-.01 0-.1-.068-.159-.195A.727.727 0 0 1 0 .5C0 .422.011.301.066.188A.432.432 0 0 1 .222 0c.006 0 .01.003.01.01z"/></symbol><use xlink:href="#h" transform="matrix(9.9626 0 0 -9.9626 42.898 10.902)"/><use xlink:href="#i" transform="matrix(9.9626 0 0 -9.9626 47.261 10.902)"/><use xlink:href="#j" transform="matrix(9.9626 0 0 -9.9626 52.292 10.902)"/><use xlink:href="#o" transform="matrix(9.9626 0 0 -9.9626 56.875 13.283)"/><use xlink:href="#n" transform="matrix(9.9626 0 0 -9.9626 60.18 10.902)"/><symbol id="p"><path d="M.353.313h.279c.014 0 .033 0 .033.02s-.019.02-.033.02H.353v.28c0 .014 0 .033-.02.033S.313.647.313.633v-.28h-.28C.019.353 0 .353 0 .333s.019-.02.033-.02h.28v-.28c0-.014 0-.033.02-.033s.02.019.02.033v.28z"/></symbol><use xlink:href="#p" transform="matrix(9.9626 0 0 -9.9626 68.954 11.619)"/><use xlink:href="#k" transform="matrix(9.9626 0 0 -9.9626 78.648 12.725)"/><symbol id="q"><path d="M.232.5a.729.729 0 0 1-.066.312A.432.432 0 0 1 .01 1C.004 1 0 .996 0 .99 0 .987 0 .985.019.967.117.868.174.709.174.5.174.329.137.153.013.027 0 .015 0 .013 0 .01 0 .004.004 0 .01 0c.01 0 .1.068.159.195C.22.305.232.416.232.5z"/></symbol><use xlink:href="#q" transform="matrix(9.9626 0 0 -9.9626 85.088 13.283)"/><path stroke-width=".797" stroke-miterlimit="10" fill="none" stroke="#000" d="M17.002 283.372V16.999"/><use xlink:href="#j" transform="matrix(0 -9.9626 -9.9626 0 10.902 172.222)"/><use xlink:href="#l" transform="matrix(0 -9.9626 -9.9626 0 10.792 168.297)"/><use xlink:href="#m" transform="matrix(0 -9.9626 -9.9626 0 10.792 165.537)"/><use xlink:href="#o" transform="matrix(0 -9.9626 -9.9626 0 13.283 159.33)"/><use xlink:href="#n" transform="matrix(0 -9.9626 -9.9626 0 10.902 156.036)"/><use xlink:href="#p" transform="matrix(0 -9.9626 -9.9626 0 11.619 147.262)"/><use xlink:href="#k" transform="matrix(0 -9.9626 -9.9626 0 12.725 137.57)"/><use xlink:href="#q" transform="matrix(0 -9.9626 -9.9626 0 13.283 131.13)"/><path stroke-width=".399" stroke-miterlimit="10" fill="none" stroke="#000" d="M190.875 283.372v-14.173h14.173M31.175 16.999v14.173H17.002M194.191 134.69l-9.11-10.857 10.858-9.11M45.349 283.372c0-6.663-2.35-13.116-6.633-18.22"/><use xlink:href="#n" transform="matrix(9.9626 0 0 -9.9626 30.187 279.81)"/><path stroke-width=".399" stroke-miterlimit="10" fill="none" stroke="#000" d="M205.048 97.234a28.352 28.352 0 0 0-18.219 6.63"/><use xlink:href="#n" transform="matrix(9.9626 0 0 -9.9626 196.433 111.855)"/><path stroke-width="1.395" stroke-miterlimit="10" fill="none" stroke="#000" d="M38.716 265.151a28.353 28.353 0 0 0-12.02-8.416"/><path stroke-width=".598" stroke-miterlimit="10" fill="none" stroke="#fff" d="M38.716 265.151a28.353 28.353 0 0 0-12.02-8.416"/><use xlink:href="#k" transform="matrix(9.9626 0 0 -9.9626 23.966 273.864)"/><path stroke-width=".399" stroke-miterlimit="10" fill="none" stroke="#000" d="M99.779 16.999a14.175 14.175 0 0 0 9.326 13.318"/><use xlink:href="#n" transform="matrix(9.9626 0 0 -9.9626 78.766 35.86)"/><use xlink:href="#p" transform="matrix(9.9626 0 0 -9.9626 87.539 36.578)"/><use xlink:href="#k" transform="matrix(9.9626 0 0 -9.9626 97.233 37.684)"/><path d="M18.995 283.372a1.993 1.993 0 1 0-3.986 0 1.993 1.993 0 0 0 3.986 0zM115.944 16.999a1.993 1.993 0 1 0-3.985 0 1.993 1.993 0 0 0 3.985 0zM207.04 125.58a1.993 1.993 0 1 0-3.984 0 1.993 1.993 0 0 0 3.985 0zM207.04 283.372a1.993 1.993 0 1 0-3.984 0 1.993 1.993 0 0 0 3.985 0zM207.04 16.999a1.993 1.993 0 1 0-3.984 0 1.993 1.993 0 0 0 3.985 0zM18.995 16.999a1.993 1.993 0 1 0-3.985 0 1.993 1.993 0 0 0 3.985 0zm-1.993 0"/></svg>