<?xml version="1.0" encoding="UTF-8" standalone="no"?>
<svg
   version="1.1"
   width="720"
   height="550"
   id="svg886"
   sodipodi:docname="desmos-graph.svg"
   inkscape:version="1.1.2 (b8e25be8, 2022-02-05)"
   xmlns:inkscape="http://www.inkscape.org/namespaces/inkscape"
   xmlns:sodipodi="http://sodipodi.sourceforge.net/DTD/sodipodi-0.dtd"
   xmlns="http://www.w3.org/2000/svg"
   xmlns:svg="http://www.w3.org/2000/svg">
  <sodipodi:namedview
     id="namedview888"
     pagecolor="#ffffff"
     bordercolor="#666666"
     borderopacity="1.0"
     inkscape:pageshadow="2"
     inkscape:pageopacity="0.0"
     inkscape:pagecheckerboard="0"
     showgrid="false"
     width="720px"
     inkscape:zoom="0.8"
     inkscape:cx="205.625"
     inkscape:cy="315.625"
     inkscape:window-width="1312"
     inkscape:window-height="855"
     inkscape:window-x="0"
     inkscape:window-y="23"
     inkscape:window-maximized="0"
     inkscape:current-layer="svg886" />
  <defs
     id="defs9" />
  <g
     id="g17"
     transform="matrix(2,0,0,2,6.326367,-120.4026)">
    <path
       fill="none"
       stroke="#000000"
       class="dcg-svg-tickmark"
       paint-order="fill stroke markers"
       d=""
       stroke-opacity="0.9"
       stroke-miterlimit="2"
       stroke-width="1.5"
       stroke-dasharray="none"
       id="path15" />
  </g>
  <path
     fill="#000000"
     stroke="none"
     class="dcg-svg-region"
     paint-order="stroke fill markers"
     d="m 339.10827,283.0988 -13.13984,-18.9007 13.13984,18.9007"
     fill-opacity="0.4"
     id="path25"
     style="stroke-width:2" />
  <path
     fill="#000000"
     stroke="none"
     paint-order="stroke fill markers"
     d=""
     fill-opacity="0.4"
     id="path27"
     style="stroke-width:2" />
  <path
     fill="none"
     stroke="#000000"
     class="dcg-svg-curve"
     paint-order="fill stroke markers"
     d="m 339.10827,283.0988 v 0 l -13.13984,-18.9007 13.13984,18.9007"
     stroke-linecap="round"
     stroke-linejoin="round"
     stroke-miterlimit="10"
     stroke-opacity="0.9"
     stroke-dasharray="none"
     id="path29"
     style="stroke-width:2" />
  <path
     fill="#000000"
     stroke="none"
     class="dcg-svg-region"
     paint-order="stroke fill markers"
     d="m 363.76983,237.91842 -37.8014,26.27968 37.8014,-26.27968"
     fill-opacity="0.4"
     id="path36"
     style="stroke-width:2" />
  <path
     fill="#000000"
     stroke="none"
     paint-order="stroke fill markers"
     d=""
     fill-opacity="0.4"
     id="path38"
     style="stroke-width:2" />
  <path
     fill="none"
     stroke="#000000"
     class="dcg-svg-curve"
     paint-order="fill stroke markers"
     d="m 363.76983,237.91842 v 0 l -37.8014,26.27968 37.8014,-26.27968"
     stroke-linecap="round"
     stroke-linejoin="round"
     stroke-miterlimit="10"
     stroke-opacity="0.9"
     stroke-dasharray="none"
     id="path40"
     style="stroke-width:2" />
  <path
     fill="#000000"
     stroke="none"
     class="dcg-svg-region"
     paint-order="stroke fill markers"
     d="m 363.76983,237.91842 13.13984,18.9007 -13.13984,-18.9007"
     fill-opacity="0.4"
     id="path48"
     style="stroke-width:2" />
  <path
     fill="#000000"
     stroke="none"
     paint-order="stroke fill markers"
     d=""
     fill-opacity="0.4"
     id="path50"
     style="stroke-width:2" />
  <path
     fill="none"
     stroke="#000000"
     class="dcg-svg-curve"
     paint-order="fill stroke markers"
     d="m 363.76983,237.91842 v 0 l 13.13984,18.9007 -13.13984,-18.9007"
     stroke-linecap="round"
     stroke-linejoin="round"
     stroke-miterlimit="10"
     stroke-opacity="0.9"
     stroke-dasharray="none"
     id="path52"
     style="stroke-width:2" />
  <path
     fill="#000000"
     stroke="none"
     paint-order="stroke fill markers"
     d=""
     fill-opacity="0.4"
     id="path64"
     style="stroke-width:2" />
  <path
     fill="none"
     stroke="#000000"
     class="dcg-svg-curve"
     paint-order="fill stroke markers"
     d="m 47.630169,485.73558 v 0 L 208.00017,54.182329"
     stroke-linecap="round"
     stroke-linejoin="round"
     stroke-miterlimit="10"
     stroke-width="5"
     stroke-opacity="0.9"
     stroke-dasharray="none"
     id="path66" />
  <path
     fill="#6042a6"
     stroke="none"
     paint-order="stroke fill markers"
     d=""
     fill-opacity="0.4"
     id="path82"
     style="stroke-width:2" />
  <path
     fill="none"
     stroke="#6042a6"
     class="dcg-svg-curve"
     paint-order="fill stroke markers"
     d="m 84.461177,485.73558 v 0 l -0.19624,-3.79698 -0.58663,-3.7565 -0.984438,-3.71862 -1.385008,-3.6366 -1.805724,-3.54766 -2.257674,-3.44016 -2.718858,-3.26506 -3.247898,-3.0744 -3.822322,-2.80342 -4.191228,-2.30832 -2.805388,-1.17654"
     stroke-linecap="round"
     stroke-linejoin="round"
     stroke-miterlimit="10"
     stroke-width="8"
     stroke-opacity="0.9"
     stroke-dasharray="none"
     id="path84" />
  <path
     fill="#c74440"
     stroke="none"
     class="dcg-svg-region"
     paint-order="stroke fill markers"
     d="M 47.630169,485.73558 208.00017,54.182329 358.00897,269.95896 47.630169,485.73558"
     fill-opacity="0.1"
     id="path100"
     style="stroke-width:2" />
  <path
     fill="#c74440"
     stroke="none"
     paint-order="stroke fill markers"
     d=""
     fill-opacity="0.4"
     id="path102"
     style="stroke-width:2" />
  <path
     fill="none"
     stroke="#c74440"
     class="dcg-svg-curve"
     paint-order="fill stroke markers"
     d="m 47.630169,485.73558 v 0 L 208.00017,54.182329 358.00897,269.95896 47.630169,485.73558"
     stroke-linecap="round"
     stroke-linejoin="round"
     stroke-miterlimit="10"
     stroke-width="5"
     stroke-opacity="0.9"
     stroke-dasharray="none"
     id="path104" />
  <path
     fill="#6042a6"
     stroke="none"
     paint-order="stroke fill markers"
     d=""
     fill-opacity="0.4"
     id="path116"
     style="stroke-width:2" />
  <path
     fill="none"
     stroke="#6042a6"
     class="dcg-svg-curve"
     paint-order="fill stroke markers"
     d="m 47.630169,485.73558 v 0 H 208.00017 V 54.182329 L 47.630169,485.73558"
     stroke-linecap="round"
     stroke-linejoin="round"
     stroke-miterlimit="10"
     stroke-width="10"
     stroke-opacity="0.9"
     stroke-dasharray="none"
     id="path118" />
  <path
     fill="#fa7e19"
     stroke="none"
     class="dcg-svg-region"
     paint-order="stroke fill markers"
     d="M 208.00017,54.182329 358.00897,269.95896 668.38777,54.182329 h -460.3876"
     fill-opacity="0.1"
     id="path126"
     style="stroke-width:2" />
  <path
     fill="#fa7e19"
     stroke="none"
     paint-order="stroke fill markers"
     d=""
     fill-opacity="0.4"
     id="path128"
     style="stroke-width:2" />
  <path
     fill="none"
     stroke="#fa7e19"
     class="dcg-svg-curve"
     paint-order="fill stroke markers"
     d="m 208.00017,54.182329 v 0 L 358.00897,269.95896 668.38777,54.182329 h -460.3876"
     stroke-linecap="round"
     stroke-linejoin="round"
     stroke-miterlimit="10"
     stroke-width="5"
     stroke-opacity="0.9"
     stroke-dasharray="none"
     id="path130" />
  <path
     fill="#c74440"
     stroke="none"
     paint-order="stroke fill markers"
     d=""
     fill-opacity="0.4"
     id="path142"
     style="stroke-width:2" />
  <path
     fill="none"
     stroke="#c74440"
     class="dcg-svg-curve"
     paint-order="fill stroke markers"
     d="m 153.51932,485.73558 v 0 l -0.19534,-6.42882 -0.58529,-6.40508 -0.97307,-6.35774 -1.37278,-6.34938 -1.77886,-6.3146 -2.16647,-6.19232 -2.59943,-6.1632 -3.01389,-6.04344 -3.46121,-5.94808 -2.79961,-4.24062"
     stroke-linecap="round"
     stroke-linejoin="round"
     stroke-miterlimit="10"
     stroke-width="5"
     stroke-opacity="0.9"
     stroke-dasharray="none"
     id="path144" />
  <path
     fill="#c74440"
     stroke="none"
     paint-order="stroke fill markers"
     d=""
     fill-opacity="0.4"
     id="path152"
     style="stroke-width:2" />
  <path
     fill="none"
     stroke="#c74440"
     class="dcg-svg-curve"
     paint-order="fill stroke markers"
     d="m 576.31025,54.182329 v 0 l 0.1944,5.98106 0.58256,5.95579 0.97904,5.96025 1.36772,5.88323 1.76848,5.83388 2.17208,5.75572 2.60142,5.69798 3.0111,5.556201 3.44832,5.42888 0.34954,0.50638"
     stroke-linecap="round"
     stroke-linejoin="round"
     stroke-miterlimit="10"
     stroke-width="5"
     stroke-opacity="0.9"
     stroke-dasharray="none"
     id="path154" />
  <path
     fill="#c74440"
     stroke="none"
     paint-order="stroke fill markers"
     d=""
     fill-opacity="0.4"
     id="path166"
     style="stroke-width:2" />
  <path
     fill="none"
     stroke="#c74440"
     class="dcg-svg-curve"
     paint-order="fill stroke markers"
     d="m 123.23296,433.1762 v 0 l -3.95866,-5.27996 -4.47952,-5.14626 -5.01319,-4.95166 -5.59763,-4.72592 -6.236347,-4.44988 -6.486272,-3.86286 -6.627352,-3.25084 -5.12982,-2.0839"
     stroke-linecap="round"
     stroke-linejoin="round"
     stroke-miterlimit="10"
     stroke-width="5"
     stroke-opacity="0.9"
     stroke-dasharray="none"
     id="path168" />
  <path
     fill="#2d70b3"
     stroke="none"
     class="dcg-svg-region"
     paint-order="stroke fill markers"
     d="M 47.630169,485.73558 H 668.38777 V 54.182329 L 47.630169,485.73558"
     fill-opacity="0.1"
     id="path204"
     style="stroke-width:2" />
  <path
     fill="#2d70b3"
     stroke="none"
     paint-order="stroke fill markers"
     d=""
     fill-opacity="0.4"
     id="path206"
     style="stroke-width:2" />
  <path
     fill="none"
     stroke="#2d70b3"
     class="dcg-svg-curve"
     paint-order="fill stroke markers"
     d="m 47.630169,485.73558 v 0 H 668.38777 V 54.182329 L 47.630169,485.73558"
     stroke-linecap="round"
     stroke-linejoin="round"
     stroke-miterlimit="10"
     stroke-width="5"
     stroke-opacity="0.9"
     stroke-dasharray="none"
     id="path208" />
  <path
     fill="#000000"
     stroke="none"
     class="dcg-svg-region"
     paint-order="stroke fill markers"
     d="M 645.36839,485.73558 V 462.7162 485.73558"
     fill-opacity="0.4"
     id="path216"
     style="stroke-width:2" />
  <path
     fill="#000000"
     stroke="none"
     paint-order="stroke fill markers"
     d=""
     fill-opacity="0.4"
     id="path218"
     style="stroke-width:2" />
  <path
     fill="none"
     stroke="#000000"
     class="dcg-svg-curve"
     paint-order="fill stroke markers"
     d="m 645.36839,485.73558 v 0 -23.01938 23.01938"
     stroke-linecap="round"
     stroke-linejoin="round"
     stroke-miterlimit="10"
     stroke-opacity="0.9"
     stroke-dasharray="none"
     id="path220"
     style="stroke-width:2" />
  <path
     fill="#000000"
     stroke="none"
     class="dcg-svg-region"
     paint-order="stroke fill markers"
     d="m 668.38777,462.7162 h -23.01938 23.01938"
     fill-opacity="0.4"
     id="path228"
     style="stroke-width:2" />
  <path
     fill="#000000"
     stroke="none"
     paint-order="stroke fill markers"
     d=""
     fill-opacity="0.4"
     id="path230"
     style="stroke-width:2" />
  <path
     fill="none"
     stroke="#000000"
     class="dcg-svg-curve"
     paint-order="fill stroke markers"
     d="m 668.38777,462.7162 v 0 h -23.01938 23.01938"
     stroke-linecap="round"
     stroke-linejoin="round"
     stroke-miterlimit="10"
     stroke-opacity="0.9"
     stroke-dasharray="none"
     id="path232"
     style="stroke-width:2" />
  <path
     fill="#000000"
     stroke="none"
     class="dcg-svg-region"
     paint-order="stroke fill markers"
     d="M 184.98079,485.73558 V 462.7162 485.73558"
     fill-opacity="0.4"
     id="path240"
     style="stroke-width:2" />
  <path
     fill="#000000"
     stroke="none"
     paint-order="stroke fill markers"
     d=""
     fill-opacity="0.4"
     id="path242"
     style="stroke-width:2" />
  <path
     fill="none"
     stroke="#000000"
     class="dcg-svg-curve"
     paint-order="fill stroke markers"
     d="m 184.98079,485.73558 v 0 -23.01938 23.01938"
     stroke-linecap="round"
     stroke-linejoin="round"
     stroke-miterlimit="10"
     stroke-opacity="0.9"
     stroke-dasharray="none"
     id="path244"
     style="stroke-width:2" />
  <path
     fill="#000000"
     stroke="none"
     class="dcg-svg-region"
     paint-order="stroke fill markers"
     d="m 208.00017,462.7162 h -23.01938 23.01938"
     fill-opacity="0.4"
     id="path252"
     style="stroke-width:2" />
  <path
     fill="#000000"
     stroke="none"
     paint-order="stroke fill markers"
     d=""
     fill-opacity="0.4"
     id="path254"
     style="stroke-width:2" />
  <path
     fill="none"
     stroke="#000000"
     class="dcg-svg-curve"
     paint-order="fill stroke markers"
     d="m 208.00017,462.7162 v 0 h -23.01938 23.01938"
     stroke-linecap="round"
     stroke-linejoin="round"
     stroke-miterlimit="10"
     stroke-opacity="0.9"
     stroke-dasharray="none"
     id="path256"
     style="stroke-width:2" />
  <path
     fill="#fa7e19"
     stroke="none"
     class="dcg-svg-region"
     paint-order="stroke fill markers"
     d="m 208.00017,54.182329 h 460.3876 -460.3876"
     fill-opacity="0.4"
     id="path268"
     style="stroke-width:2" />
  <path
     fill="#fa7e19"
     stroke="none"
     paint-order="stroke fill markers"
     d=""
     fill-opacity="0.4"
     id="path270"
     style="stroke-width:2" />
  <path
     fill="none"
     stroke="#fa7e19"
     class="dcg-svg-curve"
     paint-order="fill stroke markers"
     d="m 208.00017,54.182329 v 0 h 460.3876 -460.3876"
     stroke-linecap="round"
     stroke-linejoin="round"
     stroke-miterlimit="10"
     stroke-width="10"
     stroke-opacity="0.9"
     stroke-dasharray="none"
     id="path272" />
  <g
     transform="matrix(2,0,0,2,197.70137,18.159899)"
     id="g283">
    <g
       id="g281">
      <g
         aria-label="B"
         id="text279"
         style="font-size:15.4px;font-family:arial, sans-serif;fill:none;stroke:#ffffff;stroke-width:3;stroke-linecap:round;stroke-linejoin:round;stroke-miterlimit:2;stroke-opacity:0.9">
        <path
           d="M 1.1279297,13.4888 V 2.4651675 h 4.135742 q 1.2632813,0 2.0227539,0.3383789 0.7669922,0.3308594 1.1956054,1.0301758 0.4361328,0.6917968 0.4361328,1.4512695 0,0.7068359 -0.383496,1.330957 -0.3834961,0.624121 -1.1580078,1.0076171 1.0000976,0.2932617 1.5339843,1.0000977 0.5414062,0.7068359 0.5414062,1.6693355 0,0.774512 -0.3308593,1.44375 -0.3233399,0.661719 -0.8045898,1.022657 -0.48125,0.360937 -1.2106445,0.548925 Q 6.3840819,13.4888 5.3313475,13.4888 Z M 2.5867187,7.0971986 H 4.97041 q 0.9700195,0 1.3911133,-0.127832 0.5564453,-0.1654297 0.8346679,-0.5489258 0.2857422,-0.383496 0.2857422,-0.9624999 0,-0.5489258 -0.2631836,-0.9625 Q 6.9555662,4.0743472 6.4667967,3.9239565 5.9780272,3.7660464 4.7899413,3.7660464 H 2.5867187 Z m 0,5.0907224 h 2.7446288 q 0.7068359,0 0.9925781,-0.05264 0.5038086,-0.09023 0.8421875,-0.300781 0.3383789,-0.210547 0.5564453,-0.609082 0.2180664,-0.406054 0.2180664,-0.932422 0,-0.6166012 -0.3158203,-1.0677731 Q 7.3089842,8.7665345 6.7450194,8.5860658 6.1885741,8.3980775 5.1358397,8.3980775 h -2.549121 z"
           id="path3406" />
      </g>
    </g>
  </g>
  <g
     transform="matrix(2,0,0,2,197.70137,18.159899)"
     id="g289">
    <g
       id="g287">
      <g
         aria-label="B"
         id="text285"
         style="font-size:15.4px;font-family:arial, sans-serif;fill-opacity:0.9">
        <path
           d="M 1.1279297,13.4888 V 2.4651675 h 4.135742 q 1.2632813,0 2.0227539,0.3383789 0.7669922,0.3308594 1.1956054,1.0301758 0.4361328,0.6917968 0.4361328,1.4512695 0,0.7068359 -0.383496,1.330957 -0.3834961,0.624121 -1.1580078,1.0076171 1.0000976,0.2932617 1.5339843,1.0000977 0.5414062,0.7068359 0.5414062,1.6693355 0,0.774512 -0.3308593,1.44375 -0.3233399,0.661719 -0.8045898,1.022657 -0.48125,0.360937 -1.2106445,0.548925 Q 6.3840819,13.4888 5.3313475,13.4888 Z M 2.5867187,7.0971986 H 4.97041 q 0.9700195,0 1.3911133,-0.127832 0.5564453,-0.1654297 0.8346679,-0.5489258 0.2857422,-0.383496 0.2857422,-0.9624999 0,-0.5489258 -0.2631836,-0.9625 Q 6.9555662,4.0743472 6.4667967,3.9239565 5.9780272,3.7660464 4.7899413,3.7660464 H 2.5867187 Z m 0,5.0907224 h 2.7446288 q 0.7068359,0 0.9925781,-0.05264 0.5038086,-0.09023 0.8421875,-0.300781 0.3383789,-0.210547 0.5564453,-0.609082 0.2180664,-0.406054 0.2180664,-0.932422 0,-0.6166012 -0.3158203,-1.0677731 Q 7.3089842,8.7665345 6.7450194,8.5860658 6.1885741,8.3980775 5.1358397,8.3980775 h -2.549121 z"
           id="path3403" />
      </g>
    </g>
  </g>
  <g
     transform="matrix(2,0,0,2,110.63887,233.94116)"
     id="g299">
    <g
       id="g297">
      <g
         aria-label="1"
         id="text295"
         style="font-size:15.4px;font-family:arial, sans-serif;fill:none;stroke:#ffffff;stroke-width:3;stroke-linecap:round;stroke-linejoin:round;stroke-miterlimit:2;stroke-opacity:0.9">
        <path
           d="M 5.7374022,13.4888 H 4.3838866 V 4.8638979 Q 3.8951171,5.3301088 3.0980468,5.7963198 2.308496,6.2625307 1.6768554,6.4956362 V 5.1872378 Q 2.8123046,4.653351 3.6620116,3.8938784 4.5117186,3.1344058 4.8651366,2.4200503 h 0.8722656 z"
           id="path3400" />
      </g>
    </g>
  </g>
  <g
     transform="matrix(2,0,0,2,110.63887,233.94116)"
     id="g305">
    <g
       id="g303">
      <g
         aria-label="1"
         id="text301"
         style="font-size:15.4px;font-family:arial, sans-serif;fill-opacity:0.9">
        <path
           d="M 5.7374022,13.4888 H 4.3838866 V 4.8638979 Q 3.8951171,5.3301088 3.0980468,5.7963198 2.308496,6.2625307 1.6768554,6.4956362 V 5.1872378 Q 2.8123046,4.653351 3.6620116,3.8938784 4.5117186,3.1344058 4.8651366,2.4200503 h 0.8722656 z"
           id="path3397" />
      </g>
    </g>
  </g>
  <g
     transform="matrix(2,0,0,2,421.01387,18.159899)"
     id="g315">
    <g
       id="g313">
      <g
         aria-label="1"
         id="text311"
         style="font-size:15.4px;font-family:arial, sans-serif;fill:none;stroke:#ffffff;stroke-width:3;stroke-linecap:round;stroke-linejoin:round;stroke-miterlimit:2;stroke-opacity:0.9">
        <path
           d="M 5.7374022,13.4888 H 4.3838866 V 4.8638979 Q 3.8951171,5.3301088 3.0980468,5.7963198 2.308496,6.2625307 1.6768554,6.4956362 V 5.1872378 Q 2.8123046,4.653351 3.6620116,3.8938784 4.5117186,3.1344058 4.8651366,2.4200503 h 0.8722656 z"
           id="path3394" />
      </g>
    </g>
  </g>
  <g
     transform="matrix(2,0,0,2,421.01387,18.159899)"
     id="g321">
    <g
       id="g319">
      <g
         aria-label="1"
         id="text317"
         style="font-size:15.4px;font-family:arial, sans-serif;fill:#fa7e19;fill-opacity:0.9">
        <path
           d="M 5.7374022,13.4888 H 4.3838866 V 4.8638979 Q 3.8951171,5.3301088 3.0980468,5.7963198 2.308496,6.2625307 1.6768554,6.4956362 V 5.1872378 Q 2.8123046,4.653351 3.6620116,3.8938784 4.5117186,3.1344058 4.8651366,2.4200503 h 0.8722656 z"
           id="path3391" />
      </g>
    </g>
  </g>
  <g
     transform="matrix(2,0,0,2,75.576367,440.11303)"
     id="g337">
    <g
       id="g335">
      <g
         aria-label="2"
         id="text333"
         style="font-size:17.71px;font-family:Symbola, 'Times New Roman', serif;fill:none;stroke:#ffffff;stroke-width:3;stroke-linecap:round;stroke-linejoin:round;stroke-miterlimit:2;stroke-opacity:0.9">
        <path
           d="M 8.1199654,11.705133 7.2984567,13.96212 H 0.38048826 V 13.642164 Q 3.4330418,10.857682 4.6782761,9.0935998 5.9235104,7.3295179 5.9235104,5.868097 q 0,-1.1155224 -0.6831493,-1.8332616 Q 4.5572117,3.3170962 3.605991,3.3170962 q -0.864746,0 -1.5565429,0.5102002 Q 1.3662988,4.3288491 1.0376953,5.3060121 H 0.71773922 Q 0.93392573,3.7062319 1.8246142,2.8501333 2.7239501,1.9940347 4.0643064,1.9940347 q 1.426831,0 2.3780517,0.9166308 0.9598681,0.9166309 0.9598681,2.1618652 0,0.8906884 -0.4150781,1.7813768 Q 6.347236,8.2547961 4.9117576,9.8199865 2.7585399,12.172096 2.2223973,12.656354 h 3.0612011 q 0.9339257,0 1.3057665,-0.06918 0.3804883,-0.06918 0.6831494,-0.276719 0.3026611,-0.216186 0.5274951,-0.605322 z"
           id="path3388" />
      </g>
    </g>
  </g>
  <g
     transform="matrix(2,0,0,2,93.920117,436.11303)"
     id="g343">
    <g
       id="g341">
      <g
         aria-label="θ"
         id="text339"
         style="font-style:italic;font-size:17.71px;font-family:'Times New Roman', Symbola, serif;fill:none;stroke:#ffffff;stroke-width:3;stroke-linecap:round;stroke-linejoin:round;stroke-miterlimit:2;stroke-opacity:0.9">
        <path
           d="m 6.5807174,3.6654312 q 2.403994,0 2.403994,3.2946825 0,1.9889159 -0.977163,4.4102053 -0.9685156,2.412641 -2.2223973,3.605991 -1.2452343,1.193349 -2.5682958,1.193349 -1.0809326,0 -1.7640819,-0.916631 -0.67450196,-0.925278 -0.67450196,-2.300224 0,-0.882041 0.38913576,-2.438584 Q 1.5565429,8.9576771 2.3348143,7.3751918 3.1130858,5.7840591 4.2804929,4.7290689 5.4565476,3.6654312 6.5807174,3.6654312 Z M 7.11686,9.5457044 q 0.5793798,-1.8246142 0.5793798,-3.5454588 0,-1.971621 -1.1155224,-1.971621 -0.977163,0 -1.9197362,1.4787157 Q 3.718408,6.9774086 2.9314891,9.5457044 Z M 2.7671874,10.03861 q -0.7955664,2.481821 -0.7955664,3.804882 0,0.864746 0.3545459,1.418184 0.3545459,0.54479 1.0549902,0.54479 0.5793798,0 1.08958,-0.458316 Q 4.9809372,14.881187 5.6640866,13.463004 6.347236,12.04482 6.9525582,10.03861 Z"
           id="path3385" />
      </g>
    </g>
  </g>
  <g
     transform="matrix(2,0,0,2,75.576367,440.11303)"
     id="g355">
    <g
       id="g353">
      <g
         aria-label="2"
         id="text351"
         style="font-size:17.71px;font-family:Symbola, 'Times New Roman', serif;fill:#6042a6;fill-opacity:0.9">
        <path
           d="M 8.1199654,11.705133 7.2984567,13.96212 H 0.38048826 V 13.642164 Q 3.4330418,10.857682 4.6782761,9.0935998 5.9235104,7.3295179 5.9235104,5.868097 q 0,-1.1155224 -0.6831493,-1.8332616 Q 4.5572117,3.3170962 3.605991,3.3170962 q -0.864746,0 -1.5565429,0.5102002 Q 1.3662988,4.3288491 1.0376953,5.3060121 H 0.71773922 Q 0.93392573,3.7062319 1.8246142,2.8501333 2.7239501,1.9940347 4.0643064,1.9940347 q 1.426831,0 2.3780517,0.9166308 0.9598681,0.9166309 0.9598681,2.1618652 0,0.8906884 -0.4150781,1.7813768 Q 6.347236,8.2547961 4.9117576,9.8199865 2.7585399,12.172096 2.2223973,12.656354 h 3.0612011 q 0.9339257,0 1.3057665,-0.06918 0.3804883,-0.06918 0.6831494,-0.276719 0.3026611,-0.216186 0.5274951,-0.605322 z"
           id="path3382" />
      </g>
    </g>
  </g>
  <g
     transform="matrix(2,0,0,2,93.920117,436.11303)"
     id="g361">
    <g
       id="g359">
      <g
         aria-label="θ"
         id="text357"
         style="font-style:italic;font-size:17.71px;font-family:'Times New Roman', Symbola, serif;fill:#6042a6;fill-opacity:0.9">
        <path
           d="m 6.5807174,3.6654312 q 2.403994,0 2.403994,3.2946825 0,1.9889159 -0.977163,4.4102053 -0.9685156,2.412641 -2.2223973,3.605991 -1.2452343,1.193349 -2.5682958,1.193349 -1.0809326,0 -1.7640819,-0.916631 -0.67450196,-0.925278 -0.67450196,-2.300224 0,-0.882041 0.38913576,-2.438584 Q 1.5565429,8.9576771 2.3348143,7.3751918 3.1130858,5.7840591 4.2804929,4.7290689 5.4565476,3.6654312 6.5807174,3.6654312 Z M 7.11686,9.5457044 q 0.5793798,-1.8246142 0.5793798,-3.5454588 0,-1.971621 -1.1155224,-1.971621 -0.977163,0 -1.9197362,1.4787157 Q 3.718408,6.9774086 2.9314891,9.5457044 Z M 2.7671874,10.03861 q -0.7955664,2.481821 -0.7955664,3.804882 0,0.864746 0.3545459,1.418184 0.3545459,0.54479 1.0549902,0.54479 0.5793798,0 1.08958,-0.458316 Q 4.9809372,14.881187 5.6640866,13.463004 6.347236,12.04482 6.9525582,10.03861 Z"
           id="path3379" />
      </g>
    </g>
  </g>
  <g
     transform="matrix(2,0,0,2,668.35763,18.159899)"
     id="g371">
    <g
       id="g369">
      <g
         aria-label="D"
         id="text367"
         style="font-size:15.4px;font-family:arial, sans-serif;fill:none;stroke:#ffffff;stroke-width:3;stroke-linecap:round;stroke-linejoin:round;stroke-miterlimit:2;stroke-opacity:0.9">
        <path
           d="M 1.1880859,13.4888 V 2.4651675 h 3.7973632 q 1.2858398,0 1.9625976,0.1579102 0.9474609,0.2180664 1.6166992,0.7895507 0.8722656,0.7369141 1.3008789,1.8874023 0.4361332,1.1429687 0.4361332,2.6167968 0,1.2557617 -0.293262,2.2257815 -0.2932619,0.970019 -0.7519533,1.609179 -0.4586914,0.631641 -1.0076171,1.000098 -0.5414063,0.360937 -1.315918,0.548926 Q 6.1660155,13.4888 5.1659178,13.4888 Z m 1.458789,-1.300879 h 2.3536133 q 1.090332,0 1.7069335,-0.203027 0.6241211,-0.203028 0.9925781,-0.571485 0.5188477,-0.518847 0.8045898,-1.391113 0.2932617,-0.8797849 0.2932617,-2.1280271 0,-1.7294921 -0.5714843,-2.6543944 Q 7.6624022,4.3074526 6.8502928,3.9916323 6.2637694,3.7660464 4.9628905,3.7660464 H 2.6468749 Z"
           id="path3376" />
      </g>
    </g>
  </g>
  <g
     transform="matrix(2,0,0,2,668.35763,18.159899)"
     id="g377">
    <g
       id="g375">
      <g
         aria-label="D"
         id="text373"
         style="font-size:15.4px;font-family:arial, sans-serif;fill-opacity:0.9">
        <path
           d="M 1.1880859,13.4888 V 2.4651675 h 3.7973632 q 1.2858398,0 1.9625976,0.1579102 0.9474609,0.2180664 1.6166992,0.7895507 0.8722656,0.7369141 1.3008789,1.8874023 0.4361332,1.1429687 0.4361332,2.6167968 0,1.2557617 -0.293262,2.2257815 -0.2932619,0.970019 -0.7519533,1.609179 -0.4586914,0.631641 -1.0076171,1.000098 -0.5414063,0.360937 -1.315918,0.548926 Q 6.1660155,13.4888 5.1659178,13.4888 Z m 1.458789,-1.300879 h 2.3536133 q 1.090332,0 1.7069335,-0.203027 0.6241211,-0.203028 0.9925781,-0.571485 0.5188477,-0.518847 0.8045898,-1.391113 0.2932617,-0.8797849 0.2932617,-2.1280271 0,-1.7294921 -0.5714843,-2.6543944 Q 7.6624022,4.3074526 6.8502928,3.9916323 6.2637694,3.7660464 4.9628905,3.7660464 H 2.6468749 Z"
           id="path3373" />
      </g>
    </g>
  </g>
  <g
     transform="matrix(2,0,0,2,207.98262,485.72241)"
     id="g387">
    <g
       id="g385">
      <g
         aria-label="F"
         id="text383"
         style="font-size:15.4px;font-family:arial, sans-serif;fill:none;stroke:#ffffff;stroke-width:3;stroke-linecap:round;stroke-linejoin:round;stroke-miterlimit:2;stroke-opacity:0.9">
        <path
           d="M 1.2632812,13.4888 V 2.4651675 H 8.7000974 V 3.7660464 H 2.7220702 V 7.1799135 H 7.8955076 V 8.4807924 H 2.7220702 V 13.4888 Z"
           id="path3370" />
      </g>
    </g>
  </g>
  <g
     transform="matrix(2,0,0,2,207.98262,485.72241)"
     id="g393">
    <g
       id="g391">
      <g
         aria-label="F"
         id="text389"
         style="font-size:15.4px;font-family:arial, sans-serif;fill-opacity:0.9">
        <path
           d="M 1.2632812,13.4888 V 2.4651675 H 8.7000974 V 3.7660464 H 2.7220702 V 7.1799135 H 7.8955076 V 8.4807924 H 2.7220702 V 13.4888 Z"
           id="path3367" />
      </g>
    </g>
  </g>
  <g
     transform="matrix(2,0,0,2,82.623239,502.9099)"
     id="g409">
    <g
       id="g407">
      <g
         aria-label="c"
         id="text405"
         style="font-size:17.71px;font-family:Symbola, 'Times New Roman', serif;fill:none;stroke:#ffffff;stroke-width:3;stroke-linecap:round;stroke-linejoin:round;stroke-miterlimit:2;stroke-opacity:0.9">
        <path
           d="m 7.2811617,10.952804 q -0.319956,1.56519 -1.2538817,2.412641 -0.9339258,0.838804 -2.0667431,0.838804 -1.3490038,0 -2.3521092,-1.132817 -1.00310547,-1.132818 -1.00310547,-3.061201 0,-1.8678519 1.10687497,-3.035259 1.1155224,-1.1674072 2.6720653,-1.1674072 1.1674071,0 1.9197362,0.6226172 0.7523291,0.6139697 0.7523291,1.2798241 0,0.3286035 -0.2161866,0.5361426 -0.207539,0.1988916 -0.5880273,0.1988916 -0.5102001,0 -0.7696239,-0.3286035 Q 5.3354831,7.9348401 5.2835984,7.4246399 5.2403611,6.9144398 4.9376999,6.6463685 4.6350388,6.3869447 4.0988963,6.3869447 q -0.8647461,0 -1.3922412,0.639912 -0.7004443,0.8474512 -0.7004443,2.2396923 0,1.418184 0.6917969,2.507764 0.7004443,1.080932 1.8851464,1.080932 0.8474511,0 1.521953,-0.57938 0.4756103,-0.397783 0.9252783,-1.444126 z"
           id="path3364" />
      </g>
    </g>
  </g>
  <g
     transform="matrix(2,0,0,2,98.34199,502.9099)"
     id="g415">
    <g
       id="g413">
      <g
         aria-label="o"
         id="text411"
         style="font-size:17.71px;font-family:Symbola, 'Times New Roman', serif;fill:none;stroke:#ffffff;stroke-width:3;stroke-linecap:round;stroke-linejoin:round;stroke-miterlimit:2;stroke-opacity:0.9">
        <path
           d="m 4.4274998,5.8075648 q 1.7986718,0 2.8882518,1.3662988 0.9252782,1.1674071 0.9252782,2.6807127 0,1.0636377 -0.5102001,2.1532177 -0.5102002,1.08958 -1.4095361,1.643017 -0.8906884,0.553438 -1.9889159,0.553438 -1.7900243,0 -2.8450145,-1.426831 -0.89068843,-1.201997 -0.89068843,-2.698008 0,-1.0895797 0.53614253,-2.1618648 0.54479,-1.0809326 1.426831,-1.5911328 0.882041,-0.5188476 1.8678515,-0.5188476 z M 4.1594285,6.3696497 q -0.4583154,0 -0.9252783,0.2767188 -0.4583154,0.2680713 -0.7436816,0.9512206 -0.2853662,0.6831494 -0.2853662,1.7554345 0,1.7294924 0.6831494,2.9833734 0.6917968,1.253882 1.8159667,1.253882 0.8388037,0 1.3835937,-0.691797 0.54479,-0.691796 0.54479,-2.378051 0,-2.1099806 -0.9079834,-3.320625 Q 5.1106491,6.3696497 4.1594285,6.3696497 Z"
           id="path3361" />
      </g>
    </g>
  </g>
  <g
     transform="matrix(2,0,0,2,116.06074,502.9099)"
     id="g421">
    <g
       id="g419">
      <g
         aria-label="s"
         id="text417"
         style="font-size:17.71px;font-family:Symbola, 'Times New Roman', serif;fill:none;stroke:#ffffff;stroke-width:3;stroke-linecap:round;stroke-linejoin:round;stroke-miterlimit:2;stroke-opacity:0.9">
        <path
           d="M 5.6727341,5.8075648 V 8.5055725 H 5.3873679 Q 5.0587644,7.2343958 4.5399168,6.7760804 4.0297166,6.317765 3.2341502,6.317765 q -0.6053222,0 -0.977163,0.319956 -0.3718408,0.3199561 -0.3718408,0.7090918 0,0.4842578 0.2767187,0.8301562 0.2680713,0.3545459 1.08958,0.7523291 l 1.2625293,0.6139696 q 1.7554345,0.8560983 1.7554345,2.2569873 0,1.080932 -0.8215088,1.746787 -0.8128613,0.657207 -1.8246142,0.657207 -0.7263866,0 -1.6603124,-0.259424 -0.2853662,-0.08647 -0.4669628,-0.08647 -0.1988916,0 -0.3113086,0.224834 H 0.89933589 v -2.82772 H 1.1847021 q 0.2421289,1.210644 0.9252783,1.824614 0.6831493,0.61397 1.5306005,0.61397 0.5966747,0 0.9685155,-0.345899 0.3804883,-0.354546 0.3804883,-0.847451 0,-0.596675 -0.4237256,-1.003105 Q 4.150781,11.091163 2.8968993,10.468546 1.6430175,9.8459289 1.2538818,9.3443762 0.86474605,8.8514709 0.86474605,8.0991418 q 0,-0.977163 0.66585445,-1.63437 0.6745019,-0.657207 1.7381396,-0.657207 0.4669628,0 1.1328173,0.1988916 0.4410205,0.1297119 0.5880273,0.1297119 0.1383594,0 0.2161865,-0.060532 0.077827,-0.060532 0.1815967,-0.2680713 z"
           id="path3358" />
      </g>
    </g>
  </g>
  <g
     transform="matrix(2,0,0,2,137.21699,502.9099)"
     id="g427">
    <g
       id="g425">
      <g
         aria-label="2"
         id="text423"
         style="font-size:17.71px;font-family:Symbola, 'Times New Roman', serif;fill:none;stroke:#ffffff;stroke-width:3;stroke-linecap:round;stroke-linejoin:round;stroke-miterlimit:2;stroke-opacity:0.9">
        <path
           d="M 8.1199654,11.705133 7.2984567,13.96212 H 0.38048826 V 13.642164 Q 3.4330418,10.857682 4.6782761,9.0935998 5.9235104,7.3295179 5.9235104,5.868097 q 0,-1.1155224 -0.6831493,-1.8332616 Q 4.5572117,3.3170962 3.605991,3.3170962 q -0.864746,0 -1.5565429,0.5102002 Q 1.3662988,4.3288491 1.0376953,5.3060121 H 0.71773922 Q 0.93392573,3.7062319 1.8246142,2.8501333 2.7239501,1.9940347 4.0643064,1.9940347 q 1.426831,0 2.3780517,0.9166308 0.9598681,0.9166309 0.9598681,2.1618652 0,0.8906884 -0.4150781,1.7813768 Q 6.347236,8.2547961 4.9117576,9.8199865 2.7585399,12.172096 2.2223973,12.656354 h 3.0612011 q 0.9339257,0 1.3057665,-0.06918 0.3804883,-0.06918 0.6831494,-0.276719 0.3026611,-0.216186 0.5274951,-0.605322 z"
           id="path3355" />
      </g>
    </g>
  </g>
  <g
     transform="matrix(2,0,0,2,155.56074,498.9099)"
     id="g433">
    <g
       id="g431">
      <g
         aria-label="θ"
         id="text429"
         style="font-style:italic;font-size:17.71px;font-family:'Times New Roman', Symbola, serif;fill:none;stroke:#ffffff;stroke-width:3;stroke-linecap:round;stroke-linejoin:round;stroke-miterlimit:2;stroke-opacity:0.9">
        <path
           d="m 6.5807174,3.6654312 q 2.403994,0 2.403994,3.2946825 0,1.9889159 -0.977163,4.4102053 -0.9685156,2.412641 -2.2223973,3.605991 -1.2452343,1.193349 -2.5682958,1.193349 -1.0809326,0 -1.7640819,-0.916631 -0.67450196,-0.925278 -0.67450196,-2.300224 0,-0.882041 0.38913576,-2.438584 Q 1.5565429,8.9576771 2.3348143,7.3751918 3.1130858,5.7840591 4.2804929,4.7290689 5.4565476,3.6654312 6.5807174,3.6654312 Z M 7.11686,9.5457044 q 0.5793798,-1.8246142 0.5793798,-3.5454588 0,-1.971621 -1.1155224,-1.971621 -0.977163,0 -1.9197362,1.4787157 Q 3.718408,6.9774086 2.9314891,9.5457044 Z M 2.7671874,10.03861 q -0.7955664,2.481821 -0.7955664,3.804882 0,0.864746 0.3545459,1.418184 0.3545459,0.54479 1.0549902,0.54479 0.5793798,0 1.08958,-0.458316 Q 4.9809372,14.881187 5.6640866,13.463004 6.347236,12.04482 6.9525582,10.03861 Z"
           id="path3352" />
      </g>
    </g>
  </g>
  <g
     transform="matrix(2,0,0,2,82.623239,502.9099)"
     id="g445">
    <g
       id="g443">
      <g
         aria-label="c"
         id="text441"
         style="font-size:17.71px;font-family:Symbola, 'Times New Roman', serif;fill:#6042a6;fill-opacity:0.9">
        <path
           d="m 7.2811617,10.952804 q -0.319956,1.56519 -1.2538817,2.412641 -0.9339258,0.838804 -2.0667431,0.838804 -1.3490038,0 -2.3521092,-1.132817 -1.00310547,-1.132818 -1.00310547,-3.061201 0,-1.8678519 1.10687497,-3.035259 1.1155224,-1.1674072 2.6720653,-1.1674072 1.1674071,0 1.9197362,0.6226172 0.7523291,0.6139697 0.7523291,1.2798241 0,0.3286035 -0.2161866,0.5361426 -0.207539,0.1988916 -0.5880273,0.1988916 -0.5102001,0 -0.7696239,-0.3286035 Q 5.3354831,7.9348401 5.2835984,7.4246399 5.2403611,6.9144398 4.9376999,6.6463685 4.6350388,6.3869447 4.0988963,6.3869447 q -0.8647461,0 -1.3922412,0.639912 -0.7004443,0.8474512 -0.7004443,2.2396923 0,1.418184 0.6917969,2.507764 0.7004443,1.080932 1.8851464,1.080932 0.8474511,0 1.521953,-0.57938 0.4756103,-0.397783 0.9252783,-1.444126 z"
           id="path3349" />
      </g>
    </g>
  </g>
  <g
     transform="matrix(2,0,0,2,98.34199,502.9099)"
     id="g451">
    <g
       id="g449">
      <g
         aria-label="o"
         id="text447"
         style="font-size:17.71px;font-family:Symbola, 'Times New Roman', serif;fill:#6042a6;fill-opacity:0.9">
        <path
           d="m 4.4274998,5.8075648 q 1.7986718,0 2.8882518,1.3662988 0.9252782,1.1674071 0.9252782,2.6807127 0,1.0636377 -0.5102001,2.1532177 -0.5102002,1.08958 -1.4095361,1.643017 -0.8906884,0.553438 -1.9889159,0.553438 -1.7900243,0 -2.8450145,-1.426831 -0.89068843,-1.201997 -0.89068843,-2.698008 0,-1.0895797 0.53614253,-2.1618648 0.54479,-1.0809326 1.426831,-1.5911328 0.882041,-0.5188476 1.8678515,-0.5188476 z M 4.1594285,6.3696497 q -0.4583154,0 -0.9252783,0.2767188 -0.4583154,0.2680713 -0.7436816,0.9512206 -0.2853662,0.6831494 -0.2853662,1.7554345 0,1.7294924 0.6831494,2.9833734 0.6917968,1.253882 1.8159667,1.253882 0.8388037,0 1.3835937,-0.691797 0.54479,-0.691796 0.54479,-2.378051 0,-2.1099806 -0.9079834,-3.320625 Q 5.1106491,6.3696497 4.1594285,6.3696497 Z"
           id="path3346" />
      </g>
    </g>
  </g>
  <g
     transform="matrix(2,0,0,2,116.06074,502.9099)"
     id="g457">
    <g
       id="g455">
      <g
         aria-label="s"
         id="text453"
         style="font-size:17.71px;font-family:Symbola, 'Times New Roman', serif;fill:#6042a6;fill-opacity:0.9">
        <path
           d="M 5.6727341,5.8075648 V 8.5055725 H 5.3873679 Q 5.0587644,7.2343958 4.5399168,6.7760804 4.0297166,6.317765 3.2341502,6.317765 q -0.6053222,0 -0.977163,0.319956 -0.3718408,0.3199561 -0.3718408,0.7090918 0,0.4842578 0.2767187,0.8301562 0.2680713,0.3545459 1.08958,0.7523291 l 1.2625293,0.6139696 q 1.7554345,0.8560983 1.7554345,2.2569873 0,1.080932 -0.8215088,1.746787 -0.8128613,0.657207 -1.8246142,0.657207 -0.7263866,0 -1.6603124,-0.259424 -0.2853662,-0.08647 -0.4669628,-0.08647 -0.1988916,0 -0.3113086,0.224834 H 0.89933589 v -2.82772 H 1.1847021 q 0.2421289,1.210644 0.9252783,1.824614 0.6831493,0.61397 1.5306005,0.61397 0.5966747,0 0.9685155,-0.345899 0.3804883,-0.354546 0.3804883,-0.847451 0,-0.596675 -0.4237256,-1.003105 Q 4.150781,11.091163 2.8968993,10.468546 1.6430175,9.8459289 1.2538818,9.3443762 0.86474605,8.8514709 0.86474605,8.0991418 q 0,-0.977163 0.66585445,-1.63437 0.6745019,-0.657207 1.7381396,-0.657207 0.4669628,0 1.1328173,0.1988916 0.4410205,0.1297119 0.5880273,0.1297119 0.1383594,0 0.2161865,-0.060532 0.077827,-0.060532 0.1815967,-0.2680713 z"
           id="path3343" />
      </g>
    </g>
  </g>
  <g
     transform="matrix(2,0,0,2,137.21699,502.9099)"
     id="g463">
    <g
       id="g461">
      <g
         aria-label="2"
         id="text459"
         style="font-size:17.71px;font-family:Symbola, 'Times New Roman', serif;fill:#6042a6;fill-opacity:0.9">
        <path
           d="M 8.1199654,11.705133 7.2984567,13.96212 H 0.38048826 V 13.642164 Q 3.4330418,10.857682 4.6782761,9.0935998 5.9235104,7.3295179 5.9235104,5.868097 q 0,-1.1155224 -0.6831493,-1.8332616 Q 4.5572117,3.3170962 3.605991,3.3170962 q -0.864746,0 -1.5565429,0.5102002 Q 1.3662988,4.3288491 1.0376953,5.3060121 H 0.71773922 Q 0.93392573,3.7062319 1.8246142,2.8501333 2.7239501,1.9940347 4.0643064,1.9940347 q 1.426831,0 2.3780517,0.9166308 0.9598681,0.9166309 0.9598681,2.1618652 0,0.8906884 -0.4150781,1.7813768 Q 6.347236,8.2547961 4.9117576,9.8199865 2.7585399,12.172096 2.2223973,12.656354 h 3.0612011 q 0.9339257,0 1.3057665,-0.06918 0.3804883,-0.06918 0.6831494,-0.276719 0.3026611,-0.216186 0.5274951,-0.605322 z"
           id="path3340" />
      </g>
    </g>
  </g>
  <g
     transform="matrix(2,0,0,2,155.56074,498.9099)"
     id="g469">
    <g
       id="g467">
      <g
         aria-label="θ"
         id="text465"
         style="font-style:italic;font-size:17.71px;font-family:'Times New Roman', Symbola, serif;fill:#6042a6;fill-opacity:0.9">
        <path
           d="m 6.5807174,3.6654312 q 2.403994,0 2.403994,3.2946825 0,1.9889159 -0.977163,4.4102053 -0.9685156,2.412641 -2.2223973,3.605991 -1.2452343,1.193349 -2.5682958,1.193349 -1.0809326,0 -1.7640819,-0.916631 -0.67450196,-0.925278 -0.67450196,-2.300224 0,-0.882041 0.38913576,-2.438584 Q 1.5565429,8.9576771 2.3348143,7.3751918 3.1130858,5.7840591 4.2804929,4.7290689 5.4565476,3.6654312 6.5807174,3.6654312 Z M 7.11686,9.5457044 q 0.5793798,-1.8246142 0.5793798,-3.5454588 0,-1.971621 -1.1155224,-1.971621 -0.977163,0 -1.9197362,1.4787157 Q 3.718408,6.9774086 2.9314891,9.5457044 Z M 2.7671874,10.03861 q -0.7955664,2.481821 -0.7955664,3.804882 0,0.864746 0.3545459,1.418184 0.3545459,0.54479 1.0549902,0.54479 0.5793798,0 1.08958,-0.458316 Q 4.9809372,14.881187 5.6640866,13.463004 6.347236,12.04482 6.9525582,10.03861 Z"
           id="path3337" />
      </g>
    </g>
  </g>
  <g
     transform="matrix(2,0,0,2,553.10762,64.894269)"
     id="g485">
    <g
       id="g483">
      <g
         aria-label="θ"
         id="text481"
         style="font-style:italic;font-size:17.71px;font-family:'Times New Roman', Symbola, serif;fill:none;stroke:#ffffff;stroke-width:3;stroke-linecap:round;stroke-linejoin:round;stroke-miterlimit:2;stroke-opacity:0.9">
        <path
           d="m 6.5807174,3.6654312 q 2.403994,0 2.403994,3.2946825 0,1.9889159 -0.977163,4.4102053 -0.9685156,2.412641 -2.2223973,3.605991 -1.2452343,1.193349 -2.5682958,1.193349 -1.0809326,0 -1.7640819,-0.916631 -0.67450196,-0.925278 -0.67450196,-2.300224 0,-0.882041 0.38913576,-2.438584 Q 1.5565429,8.9576771 2.3348143,7.3751918 3.1130858,5.7840591 4.2804929,4.7290689 5.4565476,3.6654312 6.5807174,3.6654312 Z M 7.11686,9.5457044 q 0.5793798,-1.8246142 0.5793798,-3.5454588 0,-1.971621 -1.1155224,-1.971621 -0.977163,0 -1.9197362,1.4787157 Q 3.718408,6.9774086 2.9314891,9.5457044 Z M 2.7671874,10.03861 q -0.7955664,2.481821 -0.7955664,3.804882 0,0.864746 0.3545459,1.418184 0.3545459,0.54479 1.0549902,0.54479 0.5793798,0 1.08958,-0.458316 Q 4.9809372,14.881187 5.6640866,13.463004 6.347236,12.04482 6.9525582,10.03861 Z"
           id="path3334" />
      </g>
    </g>
  </g>
  <g
     transform="matrix(2,0,0,2,553.10762,64.894269)"
     id="g497">
    <g
       id="g495">
      <g
         aria-label="θ"
         id="text493"
         style="font-style:italic;font-size:17.71px;font-family:'Times New Roman', Symbola, serif;fill-opacity:0.9">
        <path
           d="m 6.5807174,3.6654312 q 2.403994,0 2.403994,3.2946825 0,1.9889159 -0.977163,4.4102053 -0.9685156,2.412641 -2.2223973,3.605991 -1.2452343,1.193349 -2.5682958,1.193349 -1.0809326,0 -1.7640819,-0.916631 -0.67450196,-0.925278 -0.67450196,-2.300224 0,-0.882041 0.38913576,-2.438584 Q 1.5565429,8.9576771 2.3348143,7.3751918 3.1130858,5.7840591 4.2804929,4.7290689 5.4565476,3.6654312 6.5807174,3.6654312 Z M 7.11686,9.5457044 q 0.5793798,-1.8246142 0.5793798,-3.5454588 0,-1.971621 -1.1155224,-1.971621 -0.977163,0 -1.9197362,1.4787157 Q 3.718408,6.9774086 2.9314891,9.5457044 Z M 2.7671874,10.03861 q -0.7955664,2.481821 -0.7955664,3.804882 0,0.864746 0.3545459,1.418184 0.3545459,0.54479 1.0549902,0.54479 0.5793798,0 1.08958,-0.458316 Q 4.9809372,14.881187 5.6640866,13.463004 6.347236,12.04482 6.9525582,10.03861 Z"
           id="path3331" />
      </g>
    </g>
  </g>
  <g
     transform="matrix(2,0,0,2,99.57637,378.4724)"
     id="g513">
    <g
       id="g511">
      <g
         aria-label="θ"
         id="text509"
         style="font-style:italic;font-size:17.71px;font-family:'Times New Roman', Symbola, serif;fill:none;stroke:#ffffff;stroke-width:3;stroke-linecap:round;stroke-linejoin:round;stroke-miterlimit:2;stroke-opacity:0.9">
        <path
           d="m 6.5807174,3.6654312 q 2.403994,0 2.403994,3.2946825 0,1.9889159 -0.977163,4.4102053 -0.9685156,2.412641 -2.2223973,3.605991 -1.2452343,1.193349 -2.5682958,1.193349 -1.0809326,0 -1.7640819,-0.916631 -0.67450196,-0.925278 -0.67450196,-2.300224 0,-0.882041 0.38913576,-2.438584 Q 1.5565429,8.9576771 2.3348143,7.3751918 3.1130858,5.7840591 4.2804929,4.7290689 5.4565476,3.6654312 6.5807174,3.6654312 Z M 7.11686,9.5457044 q 0.5793798,-1.8246142 0.5793798,-3.5454588 0,-1.971621 -1.1155224,-1.971621 -0.977163,0 -1.9197362,1.4787157 Q 3.718408,6.9774086 2.9314891,9.5457044 Z M 2.7671874,10.03861 q -0.7955664,2.481821 -0.7955664,3.804882 0,0.864746 0.3545459,1.418184 0.3545459,0.54479 1.0549902,0.54479 0.5793798,0 1.08958,-0.458316 Q 4.9809372,14.881187 5.6640866,13.463004 6.347236,12.04482 6.9525582,10.03861 Z"
           id="path3328" />
      </g>
    </g>
  </g>
  <g
     transform="matrix(2,0,0,2,99.57637,378.4724)"
     id="g525">
    <g
       id="g523">
      <g
         aria-label="θ"
         id="text521"
         style="font-style:italic;font-size:17.71px;font-family:'Times New Roman', Symbola, serif;fill-opacity:0.9">
        <path
           d="m 6.5807174,3.6654312 q 2.403994,0 2.403994,3.2946825 0,1.9889159 -0.977163,4.4102053 -0.9685156,2.412641 -2.2223973,3.605991 -1.2452343,1.193349 -2.5682958,1.193349 -1.0809326,0 -1.7640819,-0.916631 -0.67450196,-0.925278 -0.67450196,-2.300224 0,-0.882041 0.38913576,-2.438584 Q 1.5565429,8.9576771 2.3348143,7.3751918 3.1130858,5.7840591 4.2804929,4.7290689 5.4565476,3.6654312 6.5807174,3.6654312 Z M 7.11686,9.5457044 q 0.5793798,-1.8246142 0.5793798,-3.5454588 0,-1.971621 -1.1155224,-1.971621 -0.977163,0 -1.9197362,1.4787157 Q 3.718408,6.9774086 2.9314891,9.5457044 Z M 2.7671874,10.03861 q -0.7955664,2.481821 -0.7955664,3.804882 0,0.864746 0.3545459,1.418184 0.3545459,0.54479 1.0549902,0.54479 0.5793798,0 1.08958,-0.458316 Q 4.9809372,14.881187 5.6640866,13.463004 6.347236,12.04482 6.9525582,10.03861 Z"
           id="path3325" />
      </g>
    </g>
  </g>
  <g
     transform="matrix(2,0,0,2,145.48262,434.48802)"
     id="g541">
    <g
       id="g539">
      <g
         aria-label="θ"
         id="text537"
         style="font-style:italic;font-size:17.71px;font-family:'Times New Roman', Symbola, serif;fill:none;stroke:#ffffff;stroke-width:3;stroke-linecap:round;stroke-linejoin:round;stroke-miterlimit:2;stroke-opacity:0.9">
        <path
           d="m 6.5807174,3.6654312 q 2.403994,0 2.403994,3.2946825 0,1.9889159 -0.977163,4.4102053 -0.9685156,2.412641 -2.2223973,3.605991 -1.2452343,1.193349 -2.5682958,1.193349 -1.0809326,0 -1.7640819,-0.916631 -0.67450196,-0.925278 -0.67450196,-2.300224 0,-0.882041 0.38913576,-2.438584 Q 1.5565429,8.9576771 2.3348143,7.3751918 3.1130858,5.7840591 4.2804929,4.7290689 5.4565476,3.6654312 6.5807174,3.6654312 Z M 7.11686,9.5457044 q 0.5793798,-1.8246142 0.5793798,-3.5454588 0,-1.971621 -1.1155224,-1.971621 -0.977163,0 -1.9197362,1.4787157 Q 3.718408,6.9774086 2.9314891,9.5457044 Z M 2.7671874,10.03861 q -0.7955664,2.481821 -0.7955664,3.804882 0,0.864746 0.3545459,1.418184 0.3545459,0.54479 1.0549902,0.54479 0.5793798,0 1.08958,-0.458316 Q 4.9809372,14.881187 5.6640866,13.463004 6.347236,12.04482 6.9525582,10.03861 Z"
           id="path3322" />
      </g>
    </g>
  </g>
  <g
     transform="matrix(2,0,0,2,145.48262,434.48802)"
     id="g553">
    <g
       id="g551">
      <g
         aria-label="θ"
         id="text549"
         style="font-style:italic;font-size:17.71px;font-family:'Times New Roman', Symbola, serif;fill-opacity:0.9">
        <path
           d="m 6.5807174,3.6654312 q 2.403994,0 2.403994,3.2946825 0,1.9889159 -0.977163,4.4102053 -0.9685156,2.412641 -2.2223973,3.605991 -1.2452343,1.193349 -2.5682958,1.193349 -1.0809326,0 -1.7640819,-0.916631 -0.67450196,-0.925278 -0.67450196,-2.300224 0,-0.882041 0.38913576,-2.438584 Q 1.5565429,8.9576771 2.3348143,7.3751918 3.1130858,5.7840591 4.2804929,4.7290689 5.4565476,3.6654312 6.5807174,3.6654312 Z M 7.11686,9.5457044 q 0.5793798,-1.8246142 0.5793798,-3.5454588 0,-1.971621 -1.1155224,-1.971621 -0.977163,0 -1.9197362,1.4787157 Q 3.718408,6.9774086 2.9314891,9.5457044 Z M 2.7671874,10.03861 q -0.7955664,2.481821 -0.7955664,3.804882 0,0.864746 0.3545459,1.418184 0.3545459,0.54479 1.0549902,0.54479 0.5793798,0 1.08958,-0.458316 Q 4.9809372,14.881187 5.6640866,13.463004 6.347236,12.04482 6.9525582,10.03861 Z"
           id="path3319" />
      </g>
    </g>
  </g>
  <g
     transform="matrix(1.6421552,-1.1416331,1.1416331,1.6421552,211.8237,321.15744)"
     id="g569">
    <g
       id="g567">
      <g
         aria-label="c"
         id="text565"
         style="font-size:17.71px;font-family:Symbola, 'Times New Roman', serif;fill:none;stroke:#ffffff;stroke-width:3;stroke-linecap:round;stroke-linejoin:round;stroke-miterlimit:2;stroke-opacity:0.9">
        <path
           d="m 7.2811617,10.952804 q -0.319956,1.56519 -1.2538817,2.412641 -0.9339258,0.838804 -2.0667431,0.838804 -1.3490038,0 -2.3521092,-1.132817 -1.00310547,-1.132818 -1.00310547,-3.061201 0,-1.8678519 1.10687497,-3.035259 1.1155224,-1.1674072 2.6720653,-1.1674072 1.1674071,0 1.9197362,0.6226172 0.7523291,0.6139697 0.7523291,1.2798241 0,0.3286035 -0.2161866,0.5361426 -0.207539,0.1988916 -0.5880273,0.1988916 -0.5102001,0 -0.7696239,-0.3286035 Q 5.3354831,7.9348401 5.2835984,7.4246399 5.2403611,6.9144398 4.9376999,6.6463685 4.6350388,6.3869447 4.0988963,6.3869447 q -0.8647461,0 -1.3922412,0.639912 -0.7004443,0.8474512 -0.7004443,2.2396923 0,1.418184 0.6917969,2.507764 0.7004443,1.080932 1.8851464,1.080932 0.8474511,0 1.521953,-0.57938 0.4756103,-0.397783 0.9252783,-1.444126 z"
           id="path3316" />
      </g>
    </g>
  </g>
  <g
     transform="matrix(1.6421552,-1.1416331,1.1416331,1.6421552,224.73002,312.18492)"
     id="g575">
    <g
       id="g573">
      <g
         aria-label="o"
         id="text571"
         style="font-size:17.71px;font-family:Symbola, 'Times New Roman', serif;fill:none;stroke:#ffffff;stroke-width:3;stroke-linecap:round;stroke-linejoin:round;stroke-miterlimit:2;stroke-opacity:0.9">
        <path
           d="m 4.4274998,5.8075648 q 1.7986718,0 2.8882518,1.3662988 0.9252782,1.1674071 0.9252782,2.6807127 0,1.0636377 -0.5102001,2.1532177 -0.5102002,1.08958 -1.4095361,1.643017 -0.8906884,0.553438 -1.9889159,0.553438 -1.7900243,0 -2.8450145,-1.426831 -0.89068843,-1.201997 -0.89068843,-2.698008 0,-1.0895797 0.53614253,-2.1618648 0.54479,-1.0809326 1.426831,-1.5911328 0.882041,-0.5188476 1.8678515,-0.5188476 z M 4.1594285,6.3696497 q -0.4583154,0 -0.9252783,0.2767188 -0.4583154,0.2680713 -0.7436816,0.9512206 -0.2853662,0.6831494 -0.2853662,1.7554345 0,1.7294924 0.6831494,2.9833734 0.6917968,1.253882 1.8159667,1.253882 0.8388037,0 1.3835937,-0.691797 0.54479,-0.691796 0.54479,-2.378051 0,-2.1099806 -0.9079834,-3.320625 Q 5.1106491,6.3696497 4.1594285,6.3696497 Z"
           id="path3313" />
      </g>
    </g>
  </g>
  <g
     transform="matrix(1.6421552,-1.1416331,1.1416331,1.6421552,239.27849,302.07076)"
     id="g581">
    <g
       id="g579">
      <g
         aria-label="s"
         id="text577"
         style="font-size:17.71px;font-family:Symbola, 'Times New Roman', serif;fill:none;stroke:#ffffff;stroke-width:3;stroke-linecap:round;stroke-linejoin:round;stroke-miterlimit:2;stroke-opacity:0.9">
        <path
           d="M 5.6727341,5.8075648 V 8.5055725 H 5.3873679 Q 5.0587644,7.2343958 4.5399168,6.7760804 4.0297166,6.317765 3.2341502,6.317765 q -0.6053222,0 -0.977163,0.319956 -0.3718408,0.3199561 -0.3718408,0.7090918 0,0.4842578 0.2767187,0.8301562 0.2680713,0.3545459 1.08958,0.7523291 l 1.2625293,0.6139696 q 1.7554345,0.8560983 1.7554345,2.2569873 0,1.080932 -0.8215088,1.746787 -0.8128613,0.657207 -1.8246142,0.657207 -0.7263866,0 -1.6603124,-0.259424 -0.2853662,-0.08647 -0.4669628,-0.08647 -0.1988916,0 -0.3113086,0.224834 H 0.89933589 v -2.82772 H 1.1847021 q 0.2421289,1.210644 0.9252783,1.824614 0.6831493,0.61397 1.5306005,0.61397 0.5966747,0 0.9685155,-0.345899 0.3804883,-0.354546 0.3804883,-0.847451 0,-0.596675 -0.4237256,-1.003105 Q 4.150781,11.091163 2.8968993,10.468546 1.6430175,9.8459289 1.2538818,9.3443762 0.86474605,8.8514709 0.86474605,8.0991418 q 0,-0.977163 0.66585445,-1.63437 0.6745019,-0.657207 1.7381396,-0.657207 0.4669628,0 1.1328173,0.1988916 0.4410205,0.1297119 0.5880273,0.1297119 0.1383594,0 0.2161865,-0.060532 0.077827,-0.060532 0.1815967,-0.2680713 z"
           id="path3310" />
      </g>
    </g>
  </g>
  <g
     transform="matrix(1.6421552,-1.1416331,1.1416331,1.6421552,254.10956,286.8885)"
     id="g587">
    <g
       id="g585">
      <g
         aria-label="θ"
         id="text583"
         style="font-style:italic;font-size:17.71px;font-family:'Times New Roman', Symbola, serif;fill:none;stroke:#ffffff;stroke-width:3;stroke-linecap:round;stroke-linejoin:round;stroke-miterlimit:2;stroke-opacity:0.9">
        <path
           d="m 6.5807174,3.6654312 q 2.403994,0 2.403994,3.2946825 0,1.9889159 -0.977163,4.4102053 -0.9685156,2.412641 -2.2223973,3.605991 -1.2452343,1.193349 -2.5682958,1.193349 -1.0809326,0 -1.7640819,-0.916631 -0.67450196,-0.925278 -0.67450196,-2.300224 0,-0.882041 0.38913576,-2.438584 Q 1.5565429,8.9576771 2.3348143,7.3751918 3.1130858,5.7840591 4.2804929,4.7290689 5.4565476,3.6654312 6.5807174,3.6654312 Z M 7.11686,9.5457044 q 0.5793798,-1.8246142 0.5793798,-3.5454588 0,-1.971621 -1.1155224,-1.971621 -0.977163,0 -1.9197362,1.4787157 Q 3.718408,6.9774086 2.9314891,9.5457044 Z M 2.7671874,10.03861 q -0.7955664,2.481821 -0.7955664,3.804882 0,0.864746 0.3545459,1.418184 0.3545459,0.54479 1.0549902,0.54479 0.5793798,0 1.08958,-0.458316 Q 4.9809372,14.881187 5.6640866,13.463004 6.347236,12.04482 6.9525582,10.03861 Z"
           id="path3307" />
      </g>
    </g>
  </g>
  <g
     transform="matrix(1.6421552,-1.1416331,1.1416331,1.6421552,211.8237,321.15744)"
     id="g599">
    <g
       id="g597">
      <g
         aria-label="c"
         id="text595"
         style="font-size:17.71px;font-family:Symbola, 'Times New Roman', serif;fill:#c74440;fill-opacity:0.9">
        <path
           d="m 7.2811617,10.952804 q -0.319956,1.56519 -1.2538817,2.412641 -0.9339258,0.838804 -2.0667431,0.838804 -1.3490038,0 -2.3521092,-1.132817 -1.00310547,-1.132818 -1.00310547,-3.061201 0,-1.8678519 1.10687497,-3.035259 1.1155224,-1.1674072 2.6720653,-1.1674072 1.1674071,0 1.9197362,0.6226172 0.7523291,0.6139697 0.7523291,1.2798241 0,0.3286035 -0.2161866,0.5361426 -0.207539,0.1988916 -0.5880273,0.1988916 -0.5102001,0 -0.7696239,-0.3286035 Q 5.3354831,7.9348401 5.2835984,7.4246399 5.2403611,6.9144398 4.9376999,6.6463685 4.6350388,6.3869447 4.0988963,6.3869447 q -0.8647461,0 -1.3922412,0.639912 -0.7004443,0.8474512 -0.7004443,2.2396923 0,1.418184 0.6917969,2.507764 0.7004443,1.080932 1.8851464,1.080932 0.8474511,0 1.521953,-0.57938 0.4756103,-0.397783 0.9252783,-1.444126 z"
           id="path3304" />
      </g>
    </g>
  </g>
  <g
     transform="matrix(1.6421552,-1.1416331,1.1416331,1.6421552,224.73002,312.18492)"
     id="g605">
    <g
       id="g603">
      <g
         aria-label="o"
         id="text601"
         style="font-size:17.71px;font-family:Symbola, 'Times New Roman', serif;fill:#c74440;fill-opacity:0.9">
        <path
           d="m 4.4274998,5.8075648 q 1.7986718,0 2.8882518,1.3662988 0.9252782,1.1674071 0.9252782,2.6807127 0,1.0636377 -0.5102001,2.1532177 -0.5102002,1.08958 -1.4095361,1.643017 -0.8906884,0.553438 -1.9889159,0.553438 -1.7900243,0 -2.8450145,-1.426831 -0.89068843,-1.201997 -0.89068843,-2.698008 0,-1.0895797 0.53614253,-2.1618648 0.54479,-1.0809326 1.426831,-1.5911328 0.882041,-0.5188476 1.8678515,-0.5188476 z M 4.1594285,6.3696497 q -0.4583154,0 -0.9252783,0.2767188 -0.4583154,0.2680713 -0.7436816,0.9512206 -0.2853662,0.6831494 -0.2853662,1.7554345 0,1.7294924 0.6831494,2.9833734 0.6917968,1.253882 1.8159667,1.253882 0.8388037,0 1.3835937,-0.691797 0.54479,-0.691796 0.54479,-2.378051 0,-2.1099806 -0.9079834,-3.320625 Q 5.1106491,6.3696497 4.1594285,6.3696497 Z"
           id="path3301" />
      </g>
    </g>
  </g>
  <g
     transform="matrix(1.6421552,-1.1416331,1.1416331,1.6421552,239.27849,302.07076)"
     id="g611">
    <g
       id="g609">
      <g
         aria-label="s"
         id="text607"
         style="font-size:17.71px;font-family:Symbola, 'Times New Roman', serif;fill:#c74440;fill-opacity:0.9">
        <path
           d="M 5.6727341,5.8075648 V 8.5055725 H 5.3873679 Q 5.0587644,7.2343958 4.5399168,6.7760804 4.0297166,6.317765 3.2341502,6.317765 q -0.6053222,0 -0.977163,0.319956 -0.3718408,0.3199561 -0.3718408,0.7090918 0,0.4842578 0.2767187,0.8301562 0.2680713,0.3545459 1.08958,0.7523291 l 1.2625293,0.6139696 q 1.7554345,0.8560983 1.7554345,2.2569873 0,1.080932 -0.8215088,1.746787 -0.8128613,0.657207 -1.8246142,0.657207 -0.7263866,0 -1.6603124,-0.259424 -0.2853662,-0.08647 -0.4669628,-0.08647 -0.1988916,0 -0.3113086,0.224834 H 0.89933589 v -2.82772 H 1.1847021 q 0.2421289,1.210644 0.9252783,1.824614 0.6831493,0.61397 1.5306005,0.61397 0.5966747,0 0.9685155,-0.345899 0.3804883,-0.354546 0.3804883,-0.847451 0,-0.596675 -0.4237256,-1.003105 Q 4.150781,11.091163 2.8968993,10.468546 1.6430175,9.8459289 1.2538818,9.3443762 0.86474605,8.8514709 0.86474605,8.0991418 q 0,-0.977163 0.66585445,-1.63437 0.6745019,-0.657207 1.7381396,-0.657207 0.4669628,0 1.1328173,0.1988916 0.4410205,0.1297119 0.5880273,0.1297119 0.1383594,0 0.2161865,-0.060532 0.077827,-0.060532 0.1815967,-0.2680713 z"
           id="path3298" />
      </g>
    </g>
  </g>
  <g
     transform="matrix(1.6421552,-1.1416331,1.1416331,1.6421552,254.10956,286.8885)"
     id="g617">
    <g
       id="g615">
      <g
         aria-label="θ"
         id="text613"
         style="font-style:italic;font-size:17.71px;font-family:'Times New Roman', Symbola, serif;fill:#c74440;fill-opacity:0.9">
        <path
           d="m 6.5807174,3.6654312 q 2.403994,0 2.403994,3.2946825 0,1.9889159 -0.977163,4.4102053 -0.9685156,2.412641 -2.2223973,3.605991 -1.2452343,1.193349 -2.5682958,1.193349 -1.0809326,0 -1.7640819,-0.916631 -0.67450196,-0.925278 -0.67450196,-2.300224 0,-0.882041 0.38913576,-2.438584 Q 1.5565429,8.9576771 2.3348143,7.3751918 3.1130858,5.7840591 4.2804929,4.7290689 5.4565476,3.6654312 6.5807174,3.6654312 Z M 7.11686,9.5457044 q 0.5793798,-1.8246142 0.5793798,-3.5454588 0,-1.971621 -1.1155224,-1.971621 -0.977163,0 -1.9197362,1.4787157 Q 3.718408,6.9774086 2.9314891,9.5457044 Z M 2.7671874,10.03861 q -0.7955664,2.481821 -0.7955664,3.804882 0,0.864746 0.3545459,1.418184 0.3545459,0.54479 1.0549902,0.54479 0.5793798,0 1.08958,-0.458316 Q 4.9809372,14.881187 5.6640866,13.463004 6.347236,12.04482 6.9525582,10.03861 Z"
           id="path3295" />
      </g>
    </g>
  </g>
  <g
     transform="matrix(1.6421552,-1.1416331,1.1416331,1.6421552,408.37159,184.48125)"
     id="g633">
    <g
       id="g631">
      <g
         aria-label="c"
         id="text629"
         style="font-size:17.71px;font-family:Symbola, 'Times New Roman', serif;fill:none;stroke:#ffffff;stroke-width:3;stroke-linecap:round;stroke-linejoin:round;stroke-miterlimit:2;stroke-opacity:0.9">
        <path
           d="m 7.2811617,10.952804 q -0.319956,1.56519 -1.2538817,2.412641 -0.9339258,0.838804 -2.0667431,0.838804 -1.3490038,0 -2.3521092,-1.132817 -1.00310547,-1.132818 -1.00310547,-3.061201 0,-1.8678519 1.10687497,-3.035259 1.1155224,-1.1674072 2.6720653,-1.1674072 1.1674071,0 1.9197362,0.6226172 0.7523291,0.6139697 0.7523291,1.2798241 0,0.3286035 -0.2161866,0.5361426 -0.207539,0.1988916 -0.5880273,0.1988916 -0.5102001,0 -0.7696239,-0.3286035 Q 5.3354831,7.9348401 5.2835984,7.4246399 5.2403611,6.9144398 4.9376999,6.6463685 4.6350388,6.3869447 4.0988963,6.3869447 q -0.8647461,0 -1.3922412,0.639912 -0.7004443,0.8474512 -0.7004443,2.2396923 0,1.418184 0.6917969,2.507764 0.7004443,1.080932 1.8851464,1.080932 0.8474511,0 1.521953,-0.57938 0.4756103,-0.397783 0.9252783,-1.444126 z"
           id="path3292" />
      </g>
    </g>
  </g>
  <g
     transform="matrix(1.6421552,-1.1416331,1.1416331,1.6421552,421.2779,175.50873)"
     id="g639">
    <g
       id="g637">
      <g
         aria-label="o"
         id="text635"
         style="font-size:17.71px;font-family:Symbola, 'Times New Roman', serif;fill:none;stroke:#ffffff;stroke-width:3;stroke-linecap:round;stroke-linejoin:round;stroke-miterlimit:2;stroke-opacity:0.9">
        <path
           d="m 4.4274998,5.8075648 q 1.7986718,0 2.8882518,1.3662988 0.9252782,1.1674071 0.9252782,2.6807127 0,1.0636377 -0.5102001,2.1532177 -0.5102002,1.08958 -1.4095361,1.643017 -0.8906884,0.553438 -1.9889159,0.553438 -1.7900243,0 -2.8450145,-1.426831 -0.89068843,-1.201997 -0.89068843,-2.698008 0,-1.0895797 0.53614253,-2.1618648 0.54479,-1.0809326 1.426831,-1.5911328 0.882041,-0.5188476 1.8678515,-0.5188476 z M 4.1594285,6.3696497 q -0.4583154,0 -0.9252783,0.2767188 -0.4583154,0.2680713 -0.7436816,0.9512206 -0.2853662,0.6831494 -0.2853662,1.7554345 0,1.7294924 0.6831494,2.9833734 0.6917968,1.253882 1.8159667,1.253882 0.8388037,0 1.3835937,-0.691797 0.54479,-0.691796 0.54479,-2.378051 0,-2.1099806 -0.9079834,-3.320625 Q 5.1106491,6.3696497 4.1594285,6.3696497 Z"
           id="path3289" />
      </g>
    </g>
  </g>
  <g
     transform="matrix(1.6421552,-1.1416331,1.1416331,1.6421552,435.82637,165.39457)"
     id="g645">
    <g
       id="g643">
      <g
         aria-label="s"
         id="text641"
         style="font-size:17.71px;font-family:Symbola, 'Times New Roman', serif;fill:none;stroke:#ffffff;stroke-width:3;stroke-linecap:round;stroke-linejoin:round;stroke-miterlimit:2;stroke-opacity:0.9">
        <path
           d="M 5.6727341,5.8075648 V 8.5055725 H 5.3873679 Q 5.0587644,7.2343958 4.5399168,6.7760804 4.0297166,6.317765 3.2341502,6.317765 q -0.6053222,0 -0.977163,0.319956 -0.3718408,0.3199561 -0.3718408,0.7090918 0,0.4842578 0.2767187,0.8301562 0.2680713,0.3545459 1.08958,0.7523291 l 1.2625293,0.6139696 q 1.7554345,0.8560983 1.7554345,2.2569873 0,1.080932 -0.8215088,1.746787 -0.8128613,0.657207 -1.8246142,0.657207 -0.7263866,0 -1.6603124,-0.259424 -0.2853662,-0.08647 -0.4669628,-0.08647 -0.1988916,0 -0.3113086,0.224834 H 0.89933589 v -2.82772 H 1.1847021 q 0.2421289,1.210644 0.9252783,1.824614 0.6831493,0.61397 1.5306005,0.61397 0.5966747,0 0.9685155,-0.345899 0.3804883,-0.354546 0.3804883,-0.847451 0,-0.596675 -0.4237256,-1.003105 Q 4.150781,11.091163 2.8968993,10.468546 1.6430175,9.8459289 1.2538818,9.3443762 0.86474605,8.8514709 0.86474605,8.0991418 q 0,-0.977163 0.66585445,-1.63437 0.6745019,-0.657207 1.7381396,-0.657207 0.4669628,0 1.1328173,0.1988916 0.4410205,0.1297119 0.5880273,0.1297119 0.1383594,0 0.2161865,-0.060532 0.077827,-0.060532 0.1815967,-0.2680713 z"
           id="path3286" />
      </g>
    </g>
  </g>
  <g
     transform="matrix(1.6421552,-1.1416331,1.1416331,1.6421552,450.65744,150.2123)"
     id="g651">
    <g
       id="g649">
      <g
         aria-label="θ"
         id="text647"
         style="font-style:italic;font-size:17.71px;font-family:'Times New Roman', Symbola, serif;fill:none;stroke:#ffffff;stroke-width:3;stroke-linecap:round;stroke-linejoin:round;stroke-miterlimit:2;stroke-opacity:0.9">
        <path
           d="m 6.5807174,3.6654312 q 2.403994,0 2.403994,3.2946825 0,1.9889159 -0.977163,4.4102053 -0.9685156,2.412641 -2.2223973,3.605991 -1.2452343,1.193349 -2.5682958,1.193349 -1.0809326,0 -1.7640819,-0.916631 -0.67450196,-0.925278 -0.67450196,-2.300224 0,-0.882041 0.38913576,-2.438584 Q 1.5565429,8.9576771 2.3348143,7.3751918 3.1130858,5.7840591 4.2804929,4.7290689 5.4565476,3.6654312 6.5807174,3.6654312 Z M 7.11686,9.5457044 q 0.5793798,-1.8246142 0.5793798,-3.5454588 0,-1.971621 -1.1155224,-1.971621 -0.977163,0 -1.9197362,1.4787157 Q 3.718408,6.9774086 2.9314891,9.5457044 Z M 2.7671874,10.03861 q -0.7955664,2.481821 -0.7955664,3.804882 0,0.864746 0.3545459,1.418184 0.3545459,0.54479 1.0549902,0.54479 0.5793798,0 1.08958,-0.458316 Q 4.9809372,14.881187 5.6640866,13.463004 6.347236,12.04482 6.9525582,10.03861 Z"
           id="path3283" />
      </g>
    </g>
  </g>
  <g
     transform="matrix(1.6421552,-1.1416331,1.1416331,1.6421552,408.37159,184.48125)"
     id="g663">
    <g
       id="g661">
      <g
         aria-label="c"
         id="text659"
         style="font-size:17.71px;font-family:Symbola, 'Times New Roman', serif;fill:#fa7e19;fill-opacity:0.9">
        <path
           d="m 7.2811617,10.952804 q -0.319956,1.56519 -1.2538817,2.412641 -0.9339258,0.838804 -2.0667431,0.838804 -1.3490038,0 -2.3521092,-1.132817 -1.00310547,-1.132818 -1.00310547,-3.061201 0,-1.8678519 1.10687497,-3.035259 1.1155224,-1.1674072 2.6720653,-1.1674072 1.1674071,0 1.9197362,0.6226172 0.7523291,0.6139697 0.7523291,1.2798241 0,0.3286035 -0.2161866,0.5361426 -0.207539,0.1988916 -0.5880273,0.1988916 -0.5102001,0 -0.7696239,-0.3286035 Q 5.3354831,7.9348401 5.2835984,7.4246399 5.2403611,6.9144398 4.9376999,6.6463685 4.6350388,6.3869447 4.0988963,6.3869447 q -0.8647461,0 -1.3922412,0.639912 -0.7004443,0.8474512 -0.7004443,2.2396923 0,1.418184 0.6917969,2.507764 0.7004443,1.080932 1.8851464,1.080932 0.8474511,0 1.521953,-0.57938 0.4756103,-0.397783 0.9252783,-1.444126 z"
           id="path3280" />
      </g>
    </g>
  </g>
  <g
     transform="matrix(1.6421552,-1.1416331,1.1416331,1.6421552,421.2779,175.50873)"
     id="g669">
    <g
       id="g667">
      <g
         aria-label="o"
         id="text665"
         style="font-size:17.71px;font-family:Symbola, 'Times New Roman', serif;fill:#fa7e19;fill-opacity:0.9">
        <path
           d="m 4.4274998,5.8075648 q 1.7986718,0 2.8882518,1.3662988 0.9252782,1.1674071 0.9252782,2.6807127 0,1.0636377 -0.5102001,2.1532177 -0.5102002,1.08958 -1.4095361,1.643017 -0.8906884,0.553438 -1.9889159,0.553438 -1.7900243,0 -2.8450145,-1.426831 -0.89068843,-1.201997 -0.89068843,-2.698008 0,-1.0895797 0.53614253,-2.1618648 0.54479,-1.0809326 1.426831,-1.5911328 0.882041,-0.5188476 1.8678515,-0.5188476 z M 4.1594285,6.3696497 q -0.4583154,0 -0.9252783,0.2767188 -0.4583154,0.2680713 -0.7436816,0.9512206 -0.2853662,0.6831494 -0.2853662,1.7554345 0,1.7294924 0.6831494,2.9833734 0.6917968,1.253882 1.8159667,1.253882 0.8388037,0 1.3835937,-0.691797 0.54479,-0.691796 0.54479,-2.378051 0,-2.1099806 -0.9079834,-3.320625 Q 5.1106491,6.3696497 4.1594285,6.3696497 Z"
           id="path3277" />
      </g>
    </g>
  </g>
  <g
     transform="matrix(1.6421552,-1.1416331,1.1416331,1.6421552,435.82637,165.39457)"
     id="g675">
    <g
       id="g673">
      <g
         aria-label="s"
         id="text671"
         style="font-size:17.71px;font-family:Symbola, 'Times New Roman', serif;fill:#fa7e19;fill-opacity:0.9">
        <path
           d="M 5.6727341,5.8075648 V 8.5055725 H 5.3873679 Q 5.0587644,7.2343958 4.5399168,6.7760804 4.0297166,6.317765 3.2341502,6.317765 q -0.6053222,0 -0.977163,0.319956 -0.3718408,0.3199561 -0.3718408,0.7090918 0,0.4842578 0.2767187,0.8301562 0.2680713,0.3545459 1.08958,0.7523291 l 1.2625293,0.6139696 q 1.7554345,0.8560983 1.7554345,2.2569873 0,1.080932 -0.8215088,1.746787 -0.8128613,0.657207 -1.8246142,0.657207 -0.7263866,0 -1.6603124,-0.259424 -0.2853662,-0.08647 -0.4669628,-0.08647 -0.1988916,0 -0.3113086,0.224834 H 0.89933589 v -2.82772 H 1.1847021 q 0.2421289,1.210644 0.9252783,1.824614 0.6831493,0.61397 1.5306005,0.61397 0.5966747,0 0.9685155,-0.345899 0.3804883,-0.354546 0.3804883,-0.847451 0,-0.596675 -0.4237256,-1.003105 Q 4.150781,11.091163 2.8968993,10.468546 1.6430175,9.8459289 1.2538818,9.3443762 0.86474605,8.8514709 0.86474605,8.0991418 q 0,-0.977163 0.66585445,-1.63437 0.6745019,-0.657207 1.7381396,-0.657207 0.4669628,0 1.1328173,0.1988916 0.4410205,0.1297119 0.5880273,0.1297119 0.1383594,0 0.2161865,-0.060532 0.077827,-0.060532 0.1815967,-0.2680713 z"
           id="path3274" />
      </g>
    </g>
  </g>
  <g
     transform="matrix(1.6421552,-1.1416331,1.1416331,1.6421552,450.65744,150.2123)"
     id="g681">
    <g
       id="g679">
      <g
         aria-label="θ"
         id="text677"
         style="font-style:italic;font-size:17.71px;font-family:'Times New Roman', Symbola, serif;fill:#fa7e19;fill-opacity:0.9">
        <path
           d="m 6.5807174,3.6654312 q 2.403994,0 2.403994,3.2946825 0,1.9889159 -0.977163,4.4102053 -0.9685156,2.412641 -2.2223973,3.605991 -1.2452343,1.193349 -2.5682958,1.193349 -1.0809326,0 -1.7640819,-0.916631 -0.67450196,-0.925278 -0.67450196,-2.300224 0,-0.882041 0.38913576,-2.438584 Q 1.5565429,8.9576771 2.3348143,7.3751918 3.1130858,5.7840591 4.2804929,4.7290689 5.4565476,3.6654312 6.5807174,3.6654312 Z M 7.11686,9.5457044 q 0.5793798,-1.8246142 0.5793798,-3.5454588 0,-1.971621 -1.1155224,-1.971621 -0.977163,0 -1.9197362,1.4787157 Q 3.718408,6.9774086 2.9314891,9.5457044 Z M 2.7671874,10.03861 q -0.7955664,2.481821 -0.7955664,3.804882 0,0.864746 0.3545459,1.418184 0.3545459,0.54479 1.0549902,0.54479 0.5793798,0 1.08958,-0.458316 Q 4.9809372,14.881187 5.6640866,13.463004 6.347236,12.04482 6.9525582,10.03861 Z"
           id="path3271" />
      </g>
    </g>
  </g>
  <g
     transform="matrix(1.6421552,-1.1416331,1.1416331,1.6421552,319.38634,299.2237)"
     id="g697">
    <g
       id="g695">
      <g
         aria-label="2"
         id="text693"
         style="font-size:17.71px;font-family:Symbola, 'Times New Roman', serif;fill:none;stroke:#ffffff;stroke-width:3;stroke-linecap:round;stroke-linejoin:round;stroke-miterlimit:2;stroke-opacity:0.9">
        <path
           d="M 8.1199654,11.705133 7.2984567,13.96212 H 0.38048826 V 13.642164 Q 3.4330418,10.857682 4.6782761,9.0935998 5.9235104,7.3295179 5.9235104,5.868097 q 0,-1.1155224 -0.6831493,-1.8332616 Q 4.5572117,3.3170962 3.605991,3.3170962 q -0.864746,0 -1.5565429,0.5102002 Q 1.3662988,4.3288491 1.0376953,5.3060121 H 0.71773922 Q 0.93392573,3.7062319 1.8246142,2.8501333 2.7239501,1.9940347 4.0643064,1.9940347 q 1.426831,0 2.3780517,0.9166308 0.9598681,0.9166309 0.9598681,2.1618652 0,0.8906884 -0.4150781,1.7813768 Q 6.347236,8.2547961 4.9117576,9.8199865 2.7585399,12.172096 2.2223973,12.656354 h 3.0612011 q 0.9339257,0 1.3057665,-0.06918 0.3804883,-0.06918 0.6831494,-0.276719 0.3026611,-0.216186 0.5274951,-0.605322 z"
           id="path3268" />
      </g>
    </g>
  </g>
  <g
     transform="matrix(1.6421552,-1.1416331,1.1416331,1.6421552,340.24684,284.72139)"
     id="g703">
    <g
       id="g701">
      <g
         aria-label="c"
         id="text699"
         style="font-size:17.71px;font-family:Symbola, 'Times New Roman', serif;fill:none;stroke:#ffffff;stroke-width:3;stroke-linecap:round;stroke-linejoin:round;stroke-miterlimit:2;stroke-opacity:0.9">
        <path
           d="m 7.2811617,10.952804 q -0.319956,1.56519 -1.2538817,2.412641 -0.9339258,0.838804 -2.0667431,0.838804 -1.3490038,0 -2.3521092,-1.132817 -1.00310547,-1.132818 -1.00310547,-3.061201 0,-1.8678519 1.10687497,-3.035259 1.1155224,-1.1674072 2.6720653,-1.1674072 1.1674071,0 1.9197362,0.6226172 0.7523291,0.6139697 0.7523291,1.2798241 0,0.3286035 -0.2161866,0.5361426 -0.207539,0.1988916 -0.5880273,0.1988916 -0.5102001,0 -0.7696239,-0.3286035 Q 5.3354831,7.9348401 5.2835984,7.4246399 5.2403611,6.9144398 4.9376999,6.6463685 4.6350388,6.3869447 4.0988963,6.3869447 q -0.8647461,0 -1.3922412,0.639912 -0.7004443,0.8474512 -0.7004443,2.2396923 0,1.418184 0.6917969,2.507764 0.7004443,1.080932 1.8851464,1.080932 0.8474511,0 1.521953,-0.57938 0.4756103,-0.397783 0.9252783,-1.444126 z"
           id="path3265" />
      </g>
    </g>
  </g>
  <g
     transform="matrix(1.6421552,-1.1416331,1.1416331,1.6421552,353.15316,275.74887)"
     id="g709">
    <g
       id="g707">
      <g
         aria-label="o"
         id="text705"
         style="font-size:17.71px;font-family:Symbola, 'Times New Roman', serif;fill:none;stroke:#ffffff;stroke-width:3;stroke-linecap:round;stroke-linejoin:round;stroke-miterlimit:2;stroke-opacity:0.9">
        <path
           d="m 4.4274998,5.8075648 q 1.7986718,0 2.8882518,1.3662988 0.9252782,1.1674071 0.9252782,2.6807127 0,1.0636377 -0.5102001,2.1532177 -0.5102002,1.08958 -1.4095361,1.643017 -0.8906884,0.553438 -1.9889159,0.553438 -1.7900243,0 -2.8450145,-1.426831 -0.89068843,-1.201997 -0.89068843,-2.698008 0,-1.0895797 0.53614253,-2.1618648 0.54479,-1.0809326 1.426831,-1.5911328 0.882041,-0.5188476 1.8678515,-0.5188476 z M 4.1594285,6.3696497 q -0.4583154,0 -0.9252783,0.2767188 -0.4583154,0.2680713 -0.7436816,0.9512206 -0.2853662,0.6831494 -0.2853662,1.7554345 0,1.7294924 0.6831494,2.9833734 0.6917968,1.253882 1.8159667,1.253882 0.8388037,0 1.3835937,-0.691797 0.54479,-0.691796 0.54479,-2.378051 0,-2.1099806 -0.9079834,-3.320625 Q 5.1106491,6.3696497 4.1594285,6.3696497 Z"
           id="path3262" />
      </g>
    </g>
  </g>
  <g
     transform="matrix(1.6421552,-1.1416331,1.1416331,1.6421552,367.70162,265.63471)"
     id="g715">
    <g
       id="g713">
      <g
         aria-label="s"
         id="text711"
         style="font-size:17.71px;font-family:Symbola, 'Times New Roman', serif;fill:none;stroke:#ffffff;stroke-width:3;stroke-linecap:round;stroke-linejoin:round;stroke-miterlimit:2;stroke-opacity:0.9">
        <path
           d="M 5.6727341,5.8075648 V 8.5055725 H 5.3873679 Q 5.0587644,7.2343958 4.5399168,6.7760804 4.0297166,6.317765 3.2341502,6.317765 q -0.6053222,0 -0.977163,0.319956 -0.3718408,0.3199561 -0.3718408,0.7090918 0,0.4842578 0.2767187,0.8301562 0.2680713,0.3545459 1.08958,0.7523291 l 1.2625293,0.6139696 q 1.7554345,0.8560983 1.7554345,2.2569873 0,1.080932 -0.8215088,1.746787 -0.8128613,0.657207 -1.8246142,0.657207 -0.7263866,0 -1.6603124,-0.259424 -0.2853662,-0.08647 -0.4669628,-0.08647 -0.1988916,0 -0.3113086,0.224834 H 0.89933589 v -2.82772 H 1.1847021 q 0.2421289,1.210644 0.9252783,1.824614 0.6831493,0.61397 1.5306005,0.61397 0.5966747,0 0.9685155,-0.345899 0.3804883,-0.354546 0.3804883,-0.847451 0,-0.596675 -0.4237256,-1.003105 Q 4.150781,11.091163 2.8968993,10.468546 1.6430175,9.8459289 1.2538818,9.3443762 0.86474605,8.8514709 0.86474605,8.0991418 q 0,-0.977163 0.66585445,-1.63437 0.6745019,-0.657207 1.7381396,-0.657207 0.4669628,0 1.1328173,0.1988916 0.4410205,0.1297119 0.5880273,0.1297119 0.1383594,0 0.2161865,-0.060532 0.077827,-0.060532 0.1815967,-0.2680713 z"
           id="path3259" />
      </g>
    </g>
  </g>
  <g
     transform="matrix(1.6421552,-1.1416331,1.1416331,1.6421552,382.53269,250.45244)"
     id="g721">
    <g
       id="g719">
      <g
         aria-label="θ"
         id="text717"
         style="font-style:italic;font-size:17.71px;font-family:'Times New Roman', Symbola, serif;fill:none;stroke:#ffffff;stroke-width:3;stroke-linecap:round;stroke-linejoin:round;stroke-miterlimit:2;stroke-opacity:0.9">
        <path
           d="m 6.5807174,3.6654312 q 2.403994,0 2.403994,3.2946825 0,1.9889159 -0.977163,4.4102053 -0.9685156,2.412641 -2.2223973,3.605991 -1.2452343,1.193349 -2.5682958,1.193349 -1.0809326,0 -1.7640819,-0.916631 -0.67450196,-0.925278 -0.67450196,-2.300224 0,-0.882041 0.38913576,-2.438584 Q 1.5565429,8.9576771 2.3348143,7.3751918 3.1130858,5.7840591 4.2804929,4.7290689 5.4565476,3.6654312 6.5807174,3.6654312 Z M 7.11686,9.5457044 q 0.5793798,-1.8246142 0.5793798,-3.5454588 0,-1.971621 -1.1155224,-1.971621 -0.977163,0 -1.9197362,1.4787157 Q 3.718408,6.9774086 2.9314891,9.5457044 Z M 2.7671874,10.03861 q -0.7955664,2.481821 -0.7955664,3.804882 0,0.864746 0.3545459,1.418184 0.3545459,0.54479 1.0549902,0.54479 0.5793798,0 1.08958,-0.458316 Q 4.9809372,14.881187 5.6640866,13.463004 6.347236,12.04482 6.9525582,10.03861 Z"
           id="path3256" />
      </g>
    </g>
  </g>
  <g
     transform="matrix(1.6421552,-1.1416331,1.1416331,1.6421552,319.38634,299.2237)"
     id="g733">
    <g
       id="g731">
      <g
         aria-label="2"
         id="text729"
         style="font-size:17.71px;font-family:Symbola, 'Times New Roman', serif;fill:#2d70b3;fill-opacity:0.9">
        <path
           d="M 8.1199654,11.705133 7.2984567,13.96212 H 0.38048826 V 13.642164 Q 3.4330418,10.857682 4.6782761,9.0935998 5.9235104,7.3295179 5.9235104,5.868097 q 0,-1.1155224 -0.6831493,-1.8332616 Q 4.5572117,3.3170962 3.605991,3.3170962 q -0.864746,0 -1.5565429,0.5102002 Q 1.3662988,4.3288491 1.0376953,5.3060121 H 0.71773922 Q 0.93392573,3.7062319 1.8246142,2.8501333 2.7239501,1.9940347 4.0643064,1.9940347 q 1.426831,0 2.3780517,0.9166308 0.9598681,0.9166309 0.9598681,2.1618652 0,0.8906884 -0.4150781,1.7813768 Q 6.347236,8.2547961 4.9117576,9.8199865 2.7585399,12.172096 2.2223973,12.656354 h 3.0612011 q 0.9339257,0 1.3057665,-0.06918 0.3804883,-0.06918 0.6831494,-0.276719 0.3026611,-0.216186 0.5274951,-0.605322 z"
           id="path3253" />
      </g>
    </g>
  </g>
  <g
     transform="matrix(1.6421552,-1.1416331,1.1416331,1.6421552,340.24684,284.72139)"
     id="g739">
    <g
       id="g737">
      <g
         aria-label="c"
         id="text735"
         style="font-size:17.71px;font-family:Symbola, 'Times New Roman', serif;fill:#2d70b3;fill-opacity:0.9">
        <path
           d="m 7.2811617,10.952804 q -0.319956,1.56519 -1.2538817,2.412641 -0.9339258,0.838804 -2.0667431,0.838804 -1.3490038,0 -2.3521092,-1.132817 -1.00310547,-1.132818 -1.00310547,-3.061201 0,-1.8678519 1.10687497,-3.035259 1.1155224,-1.1674072 2.6720653,-1.1674072 1.1674071,0 1.9197362,0.6226172 0.7523291,0.6139697 0.7523291,1.2798241 0,0.3286035 -0.2161866,0.5361426 -0.207539,0.1988916 -0.5880273,0.1988916 -0.5102001,0 -0.7696239,-0.3286035 Q 5.3354831,7.9348401 5.2835984,7.4246399 5.2403611,6.9144398 4.9376999,6.6463685 4.6350388,6.3869447 4.0988963,6.3869447 q -0.8647461,0 -1.3922412,0.639912 -0.7004443,0.8474512 -0.7004443,2.2396923 0,1.418184 0.6917969,2.507764 0.7004443,1.080932 1.8851464,1.080932 0.8474511,0 1.521953,-0.57938 0.4756103,-0.397783 0.9252783,-1.444126 z"
           id="path3250" />
      </g>
    </g>
  </g>
  <g
     transform="matrix(1.6421552,-1.1416331,1.1416331,1.6421552,353.15316,275.74887)"
     id="g745">
    <g
       id="g743">
      <g
         aria-label="o"
         id="text741"
         style="font-size:17.71px;font-family:Symbola, 'Times New Roman', serif;fill:#2d70b3;fill-opacity:0.9">
        <path
           d="m 4.4274998,5.8075648 q 1.7986718,0 2.8882518,1.3662988 0.9252782,1.1674071 0.9252782,2.6807127 0,1.0636377 -0.5102001,2.1532177 -0.5102002,1.08958 -1.4095361,1.643017 -0.8906884,0.553438 -1.9889159,0.553438 -1.7900243,0 -2.8450145,-1.426831 -0.89068843,-1.201997 -0.89068843,-2.698008 0,-1.0895797 0.53614253,-2.1618648 0.54479,-1.0809326 1.426831,-1.5911328 0.882041,-0.5188476 1.8678515,-0.5188476 z M 4.1594285,6.3696497 q -0.4583154,0 -0.9252783,0.2767188 -0.4583154,0.2680713 -0.7436816,0.9512206 -0.2853662,0.6831494 -0.2853662,1.7554345 0,1.7294924 0.6831494,2.9833734 0.6917968,1.253882 1.8159667,1.253882 0.8388037,0 1.3835937,-0.691797 0.54479,-0.691796 0.54479,-2.378051 0,-2.1099806 -0.9079834,-3.320625 Q 5.1106491,6.3696497 4.1594285,6.3696497 Z"
           id="path3247" />
      </g>
    </g>
  </g>
  <g
     transform="matrix(1.6421552,-1.1416331,1.1416331,1.6421552,367.70162,265.63471)"
     id="g751">
    <g
       id="g749">
      <g
         aria-label="s"
         id="text747"
         style="font-size:17.71px;font-family:Symbola, 'Times New Roman', serif;fill:#2d70b3;fill-opacity:0.9">
        <path
           d="M 5.6727341,5.8075648 V 8.5055725 H 5.3873679 Q 5.0587644,7.2343958 4.5399168,6.7760804 4.0297166,6.317765 3.2341502,6.317765 q -0.6053222,0 -0.977163,0.319956 -0.3718408,0.3199561 -0.3718408,0.7090918 0,0.4842578 0.2767187,0.8301562 0.2680713,0.3545459 1.08958,0.7523291 l 1.2625293,0.6139696 q 1.7554345,0.8560983 1.7554345,2.2569873 0,1.080932 -0.8215088,1.746787 -0.8128613,0.657207 -1.8246142,0.657207 -0.7263866,0 -1.6603124,-0.259424 -0.2853662,-0.08647 -0.4669628,-0.08647 -0.1988916,0 -0.3113086,0.224834 H 0.89933589 v -2.82772 H 1.1847021 q 0.2421289,1.210644 0.9252783,1.824614 0.6831493,0.61397 1.5306005,0.61397 0.5966747,0 0.9685155,-0.345899 0.3804883,-0.354546 0.3804883,-0.847451 0,-0.596675 -0.4237256,-1.003105 Q 4.150781,11.091163 2.8968993,10.468546 1.6430175,9.8459289 1.2538818,9.3443762 0.86474605,8.8514709 0.86474605,8.0991418 q 0,-0.977163 0.66585445,-1.63437 0.6745019,-0.657207 1.7381396,-0.657207 0.4669628,0 1.1328173,0.1988916 0.4410205,0.1297119 0.5880273,0.1297119 0.1383594,0 0.2161865,-0.060532 0.077827,-0.060532 0.1815967,-0.2680713 z"
           id="path3244" />
      </g>
    </g>
  </g>
  <g
     transform="matrix(1.6421552,-1.1416331,1.1416331,1.6421552,382.53269,250.45244)"
     id="g757">
    <g
       id="g755">
      <g
         aria-label="θ"
         id="text753"
         style="font-style:italic;font-size:17.71px;font-family:'Times New Roman', Symbola, serif;fill:#2d70b3;fill-opacity:0.9">
        <path
           d="m 6.5807174,3.6654312 q 2.403994,0 2.403994,3.2946825 0,1.9889159 -0.977163,4.4102053 -0.9685156,2.412641 -2.2223973,3.605991 -1.2452343,1.193349 -2.5682958,1.193349 -1.0809326,0 -1.7640819,-0.916631 -0.67450196,-0.925278 -0.67450196,-2.300224 0,-0.882041 0.38913576,-2.438584 Q 1.5565429,8.9576771 2.3348143,7.3751918 3.1130858,5.7840591 4.2804929,4.7290689 5.4565476,3.6654312 6.5807174,3.6654312 Z M 7.11686,9.5457044 q 0.5793798,-1.8246142 0.5793798,-3.5454588 0,-1.971621 -1.1155224,-1.971621 -0.977163,0 -1.9197362,1.4787157 Q 3.718408,6.9774086 2.9314891,9.5457044 Z M 2.7671874,10.03861 q -0.7955664,2.481821 -0.7955664,3.804882 0,0.864746 0.3545459,1.418184 0.3545459,0.54479 1.0549902,0.54479 0.5793798,0 1.08958,-0.458316 Q 4.9809372,14.881187 5.6640866,13.463004 6.347236,12.04482 6.9525582,10.03861 Z"
           id="path3241" />
      </g>
    </g>
  </g>
  <g
     transform="matrix(2,0,0,2,668.35763,485.72241)"
     id="g767">
    <g
       id="g765">
      <g
         aria-label="E"
         id="text763"
         style="font-size:15.4px;font-family:arial, sans-serif;fill:none;stroke:#ffffff;stroke-width:3;stroke-linecap:round;stroke-linejoin:round;stroke-miterlimit:2;stroke-opacity:0.9">
        <path
           d="M 1.218164,13.4888 V 2.4651675 H 9.188867 V 3.7660464 H 2.6769531 V 7.1423158 H 8.7752928 V 8.4356752 H 2.6769531 V 12.187921 H 9.444531 V 13.4888 Z"
           id="path3238" />
      </g>
    </g>
  </g>
  <g
     transform="matrix(2,0,0,2,668.35763,485.72241)"
     id="g773">
    <g
       id="g771">
      <g
         aria-label="E"
         id="text769"
         style="font-size:15.4px;font-family:arial, sans-serif;fill-opacity:0.9">
        <path
           d="M 1.218164,13.4888 V 2.4651675 H 9.188867 V 3.7660464 H 2.6769531 V 7.1423158 H 8.7752928 V 8.4356752 H 2.6769531 V 12.187921 H 9.444531 V 13.4888 Z"
           id="path3235" />
      </g>
    </g>
  </g>
  <g
     transform="matrix(2,0,0,2,21.045117,467.72241)"
     id="g783">
    <g
       id="g781">
      <g
         aria-label="A"
         id="text779"
         style="font-size:15.4px;font-family:arial, sans-serif;fill:none;stroke:#ffffff;stroke-width:3;stroke-linecap:round;stroke-linejoin:round;stroke-miterlimit:2;stroke-opacity:0.9">
        <path
           d="M -0.02255859,13.4888 4.2109374,2.4651675 h 1.571582 L 10.294238,13.4888 H 8.6324217 L 7.3465818,10.150128 H 2.7371093 L 1.5264648,13.4888 Z M 3.158203,8.9620423 H 6.89541 L 5.7449217,5.9091127 Q 5.2185546,4.5179995 4.9628905,3.6231753 4.7523436,4.6834292 4.3688475,5.728644 Z"
           id="path3232" />
      </g>
    </g>
  </g>
  <g
     transform="matrix(2,0,0,2,21.045117,467.72241)"
     id="g789">
    <g
       id="g787">
      <g
         aria-label="A"
         id="text785"
         style="font-size:15.4px;font-family:arial, sans-serif;fill-opacity:0.9">
        <path
           d="M -0.02255859,13.4888 4.2109374,2.4651675 h 1.571582 L 10.294238,13.4888 H 8.6324217 L 7.3465818,10.150128 H 2.7371093 L 1.5264648,13.4888 Z M 3.158203,8.9620423 H 6.89541 L 5.7449217,5.9091127 Q 5.2185546,4.5179995 4.9628905,3.6231753 4.7523436,4.6834292 4.3688475,5.728644 Z"
           id="path3229" />
      </g>
    </g>
  </g>
  <g
     transform="matrix(2,0,0,2,301.5295,508.12864)"
     id="g805">
    <g
       id="g803">
      <g
         aria-label="2"
         id="text801"
         style="font-size:17.71px;font-family:Symbola, 'Times New Roman', serif;fill:none;stroke:#ffffff;stroke-width:3;stroke-linecap:round;stroke-linejoin:round;stroke-miterlimit:2;stroke-opacity:0.9">
        <path
           d="M 8.1199654,11.705133 7.2984567,13.96212 H 0.38048826 V 13.642164 Q 3.4330418,10.857682 4.6782761,9.0935998 5.9235104,7.3295179 5.9235104,5.868097 q 0,-1.1155224 -0.6831493,-1.8332616 Q 4.5572117,3.3170962 3.605991,3.3170962 q -0.864746,0 -1.5565429,0.5102002 Q 1.3662988,4.3288491 1.0376953,5.3060121 H 0.71773922 Q 0.93392573,3.7062319 1.8246142,2.8501333 2.7239501,1.9940347 4.0643064,1.9940347 q 1.426831,0 2.3780517,0.9166308 0.9598681,0.9166309 0.9598681,2.1618652 0,0.8906884 -0.4150781,1.7813768 Q 6.347236,8.2547961 4.9117576,9.8199865 2.7585399,12.172096 2.2223973,12.656354 h 3.0612011 q 0.9339257,0 1.3057665,-0.06918 0.3804883,-0.06918 0.6831494,-0.276719 0.3026611,-0.216186 0.5274951,-0.605322 z"
           id="path3226" />
      </g>
    </g>
  </g>
  <g
     transform="matrix(2,0,0,2,326.93575,508.12864)"
     id="g811">
    <g
       id="g809">
      <g
         aria-label="c"
         id="text807"
         style="font-size:17.71px;font-family:Symbola, 'Times New Roman', serif;fill:none;stroke:#ffffff;stroke-width:3;stroke-linecap:round;stroke-linejoin:round;stroke-miterlimit:2;stroke-opacity:0.9">
        <path
           d="m 7.2811617,10.952804 q -0.319956,1.56519 -1.2538817,2.412641 -0.9339258,0.838804 -2.0667431,0.838804 -1.3490038,0 -2.3521092,-1.132817 -1.00310547,-1.132818 -1.00310547,-3.061201 0,-1.8678519 1.10687497,-3.035259 1.1155224,-1.1674072 2.6720653,-1.1674072 1.1674071,0 1.9197362,0.6226172 0.7523291,0.6139697 0.7523291,1.2798241 0,0.3286035 -0.2161866,0.5361426 -0.207539,0.1988916 -0.5880273,0.1988916 -0.5102001,0 -0.7696239,-0.3286035 Q 5.3354831,7.9348401 5.2835984,7.4246399 5.2403611,6.9144398 4.9376999,6.6463685 4.6350388,6.3869447 4.0988963,6.3869447 q -0.8647461,0 -1.3922412,0.639912 -0.7004443,0.8474512 -0.7004443,2.2396923 0,1.418184 0.6917969,2.507764 0.7004443,1.080932 1.8851464,1.080932 0.8474511,0 1.521953,-0.57938 0.4756103,-0.397783 0.9252783,-1.444126 z"
           id="path3223" />
      </g>
    </g>
  </g>
  <g
     transform="matrix(2,0,0,2,342.6545,508.12864)"
     id="g817">
    <g
       id="g815">
      <g
         aria-label="o"
         id="text813"
         style="font-size:17.71px;font-family:Symbola, 'Times New Roman', serif;fill:none;stroke:#ffffff;stroke-width:3;stroke-linecap:round;stroke-linejoin:round;stroke-miterlimit:2;stroke-opacity:0.9">
        <path
           d="m 4.4274998,5.8075648 q 1.7986718,0 2.8882518,1.3662988 0.9252782,1.1674071 0.9252782,2.6807127 0,1.0636377 -0.5102001,2.1532177 -0.5102002,1.08958 -1.4095361,1.643017 -0.8906884,0.553438 -1.9889159,0.553438 -1.7900243,0 -2.8450145,-1.426831 -0.89068843,-1.201997 -0.89068843,-2.698008 0,-1.0895797 0.53614253,-2.1618648 0.54479,-1.0809326 1.426831,-1.5911328 0.882041,-0.5188476 1.8678515,-0.5188476 z M 4.1594285,6.3696497 q -0.4583154,0 -0.9252783,0.2767188 -0.4583154,0.2680713 -0.7436816,0.9512206 -0.2853662,0.6831494 -0.2853662,1.7554345 0,1.7294924 0.6831494,2.9833734 0.6917968,1.253882 1.8159667,1.253882 0.8388037,0 1.3835937,-0.691797 0.54479,-0.691796 0.54479,-2.378051 0,-2.1099806 -0.9079834,-3.320625 Q 5.1106491,6.3696497 4.1594285,6.3696497 Z"
           id="path3220" />
      </g>
    </g>
  </g>
  <g
     transform="matrix(2,0,0,2,360.37325,508.12864)"
     id="g823">
    <g
       id="g821">
      <g
         aria-label="s"
         id="text819"
         style="font-size:17.71px;font-family:Symbola, 'Times New Roman', serif;fill:none;stroke:#ffffff;stroke-width:3;stroke-linecap:round;stroke-linejoin:round;stroke-miterlimit:2;stroke-opacity:0.9">
        <path
           d="M 5.6727341,5.8075648 V 8.5055725 H 5.3873679 Q 5.0587644,7.2343958 4.5399168,6.7760804 4.0297166,6.317765 3.2341502,6.317765 q -0.6053222,0 -0.977163,0.319956 -0.3718408,0.3199561 -0.3718408,0.7090918 0,0.4842578 0.2767187,0.8301562 0.2680713,0.3545459 1.08958,0.7523291 l 1.2625293,0.6139696 q 1.7554345,0.8560983 1.7554345,2.2569873 0,1.080932 -0.8215088,1.746787 -0.8128613,0.657207 -1.8246142,0.657207 -0.7263866,0 -1.6603124,-0.259424 -0.2853662,-0.08647 -0.4669628,-0.08647 -0.1988916,0 -0.3113086,0.224834 H 0.89933589 v -2.82772 H 1.1847021 q 0.2421289,1.210644 0.9252783,1.824614 0.6831493,0.61397 1.5306005,0.61397 0.5966747,0 0.9685155,-0.345899 0.3804883,-0.354546 0.3804883,-0.847451 0,-0.596675 -0.4237256,-1.003105 Q 4.150781,11.091163 2.8968993,10.468546 1.6430175,9.8459289 1.2538818,9.3443762 0.86474605,8.8514709 0.86474605,8.0991418 q 0,-0.977163 0.66585445,-1.63437 0.6745019,-0.657207 1.7381396,-0.657207 0.4669628,0 1.1328173,0.1988916 0.4410205,0.1297119 0.5880273,0.1297119 0.1383594,0 0.2161865,-0.060532 0.077827,-0.060532 0.1815967,-0.2680713 z"
           id="path3217" />
      </g>
    </g>
  </g>
  <g
     transform="matrix(2,0,0,2,374.43575,494.31614)"
     id="g829">
    <g
       id="g827">
      <g
         aria-label="2"
         id="text825"
         style="font-size:15.939px;font-family:Symbola, 'Times New Roman', serif;fill:none;stroke:#ffffff;stroke-width:3;stroke-linecap:round;stroke-linejoin:round;stroke-miterlimit:2;stroke-opacity:0.9">
        <path
           d="M 7.3079693,9.3346191 6.5686114,11.365908 H 0.34243946 V 11.077947 Q 3.0897378,8.571913 4.2104488,6.9842392 5.3311597,5.3965653 5.3311597,4.0812865 q 0,-1.0039702 -0.6148345,-1.6499355 -0.6148344,-0.6459654 -1.4709331,-0.6459654 -0.7782715,0 -1.4008887,0.4591802 Q 1.229669,2.6959633 0.93392579,3.57541 H 0.64596534 Q 0.84053321,2.1356078 1.6421528,1.365119 2.4515552,0.59463024 3.657876,0.59463024 q 1.284148,0 2.1402466,0.82496776 0.8638814,0.8249678 0.8638814,1.9456787 0,0.8016197 -0.3735704,1.6032393 Q 5.7125127,6.2293158 4.4205821,7.6379872 2.4826861,9.7548857 2.0001577,10.190718 h 2.7550811 q 0.8405332,0 1.17519,-0.06226 0.3424394,-0.06226 0.6148344,-0.2490469 0.2723951,-0.1945679 0.4747456,-0.54479 z"
           id="path3214" />
      </g>
    </g>
  </g>
  <g
     transform="matrix(2,0,0,2,397.342,504.12864)"
     id="g835">
    <g
       id="g833">
      <g
         aria-label="θ"
         id="text831"
         style="font-style:italic;font-size:17.71px;font-family:'Times New Roman', Symbola, serif;fill:none;stroke:#ffffff;stroke-width:3;stroke-linecap:round;stroke-linejoin:round;stroke-miterlimit:2;stroke-opacity:0.9">
        <path
           d="m 6.5807174,3.6654312 q 2.403994,0 2.403994,3.2946825 0,1.9889159 -0.977163,4.4102053 -0.9685156,2.412641 -2.2223973,3.605991 -1.2452343,1.193349 -2.5682958,1.193349 -1.0809326,0 -1.7640819,-0.916631 -0.67450196,-0.925278 -0.67450196,-2.300224 0,-0.882041 0.38913576,-2.438584 Q 1.5565429,8.9576771 2.3348143,7.3751918 3.1130858,5.7840591 4.2804929,4.7290689 5.4565476,3.6654312 6.5807174,3.6654312 Z M 7.11686,9.5457044 q 0.5793798,-1.8246142 0.5793798,-3.5454588 0,-1.971621 -1.1155224,-1.971621 -0.977163,0 -1.9197362,1.4787157 Q 3.718408,6.9774086 2.9314891,9.5457044 Z M 2.7671874,10.03861 q -0.7955664,2.481821 -0.7955664,3.804882 0,0.864746 0.3545459,1.418184 0.3545459,0.54479 1.0549902,0.54479 0.5793798,0 1.08958,-0.458316 Q 4.9809372,14.881187 5.6640866,13.463004 6.347236,12.04482 6.9525582,10.03861 Z"
           id="path3211" />
      </g>
    </g>
  </g>
  <g
     transform="matrix(2,0,0,2,301.5295,508.12864)"
     id="g847">
    <g
       id="g845">
      <g
         aria-label="2"
         id="text843"
         style="font-size:17.71px;font-family:Symbola, 'Times New Roman', serif;fill:#2d70b3;fill-opacity:0.9">
        <path
           d="M 8.1199654,11.705133 7.2984567,13.96212 H 0.38048826 V 13.642164 Q 3.4330418,10.857682 4.6782761,9.0935998 5.9235104,7.3295179 5.9235104,5.868097 q 0,-1.1155224 -0.6831493,-1.8332616 Q 4.5572117,3.3170962 3.605991,3.3170962 q -0.864746,0 -1.5565429,0.5102002 Q 1.3662988,4.3288491 1.0376953,5.3060121 H 0.71773922 Q 0.93392573,3.7062319 1.8246142,2.8501333 2.7239501,1.9940347 4.0643064,1.9940347 q 1.426831,0 2.3780517,0.9166308 0.9598681,0.9166309 0.9598681,2.1618652 0,0.8906884 -0.4150781,1.7813768 Q 6.347236,8.2547961 4.9117576,9.8199865 2.7585399,12.172096 2.2223973,12.656354 h 3.0612011 q 0.9339257,0 1.3057665,-0.06918 0.3804883,-0.06918 0.6831494,-0.276719 0.3026611,-0.216186 0.5274951,-0.605322 z"
           id="path3208" />
      </g>
    </g>
  </g>
  <g
     transform="matrix(2,0,0,2,326.93575,508.12864)"
     id="g853">
    <g
       id="g851">
      <g
         aria-label="c"
         id="text849"
         style="font-size:17.71px;font-family:Symbola, 'Times New Roman', serif;fill:#2d70b3;fill-opacity:0.9">
        <path
           d="m 7.2811617,10.952804 q -0.319956,1.56519 -1.2538817,2.412641 -0.9339258,0.838804 -2.0667431,0.838804 -1.3490038,0 -2.3521092,-1.132817 -1.00310547,-1.132818 -1.00310547,-3.061201 0,-1.8678519 1.10687497,-3.035259 1.1155224,-1.1674072 2.6720653,-1.1674072 1.1674071,0 1.9197362,0.6226172 0.7523291,0.6139697 0.7523291,1.2798241 0,0.3286035 -0.2161866,0.5361426 -0.207539,0.1988916 -0.5880273,0.1988916 -0.5102001,0 -0.7696239,-0.3286035 Q 5.3354831,7.9348401 5.2835984,7.4246399 5.2403611,6.9144398 4.9376999,6.6463685 4.6350388,6.3869447 4.0988963,6.3869447 q -0.8647461,0 -1.3922412,0.639912 -0.7004443,0.8474512 -0.7004443,2.2396923 0,1.418184 0.6917969,2.507764 0.7004443,1.080932 1.8851464,1.080932 0.8474511,0 1.521953,-0.57938 0.4756103,-0.397783 0.9252783,-1.444126 z"
           id="path3205" />
      </g>
    </g>
  </g>
  <g
     transform="matrix(2,0,0,2,342.6545,508.12864)"
     id="g859">
    <g
       id="g857">
      <g
         aria-label="o"
         id="text855"
         style="font-size:17.71px;font-family:Symbola, 'Times New Roman', serif;fill:#2d70b3;fill-opacity:0.9">
        <path
           d="m 4.4274998,5.8075648 q 1.7986718,0 2.8882518,1.3662988 0.9252782,1.1674071 0.9252782,2.6807127 0,1.0636377 -0.5102001,2.1532177 -0.5102002,1.08958 -1.4095361,1.643017 -0.8906884,0.553438 -1.9889159,0.553438 -1.7900243,0 -2.8450145,-1.426831 -0.89068843,-1.201997 -0.89068843,-2.698008 0,-1.0895797 0.53614253,-2.1618648 0.54479,-1.0809326 1.426831,-1.5911328 0.882041,-0.5188476 1.8678515,-0.5188476 z M 4.1594285,6.3696497 q -0.4583154,0 -0.9252783,0.2767188 -0.4583154,0.2680713 -0.7436816,0.9512206 -0.2853662,0.6831494 -0.2853662,1.7554345 0,1.7294924 0.6831494,2.9833734 0.6917968,1.253882 1.8159667,1.253882 0.8388037,0 1.3835937,-0.691797 0.54479,-0.691796 0.54479,-2.378051 0,-2.1099806 -0.9079834,-3.320625 Q 5.1106491,6.3696497 4.1594285,6.3696497 Z"
           id="path3202" />
      </g>
    </g>
  </g>
  <g
     transform="matrix(2,0,0,2,360.37325,508.12864)"
     id="g865">
    <g
       id="g863">
      <g
         aria-label="s"
         id="text861"
         style="font-size:17.71px;font-family:Symbola, 'Times New Roman', serif;fill:#2d70b3;fill-opacity:0.9">
        <path
           d="M 5.6727341,5.8075648 V 8.5055725 H 5.3873679 Q 5.0587644,7.2343958 4.5399168,6.7760804 4.0297166,6.317765 3.2341502,6.317765 q -0.6053222,0 -0.977163,0.319956 -0.3718408,0.3199561 -0.3718408,0.7090918 0,0.4842578 0.2767187,0.8301562 0.2680713,0.3545459 1.08958,0.7523291 l 1.2625293,0.6139696 q 1.7554345,0.8560983 1.7554345,2.2569873 0,1.080932 -0.8215088,1.746787 -0.8128613,0.657207 -1.8246142,0.657207 -0.7263866,0 -1.6603124,-0.259424 -0.2853662,-0.08647 -0.4669628,-0.08647 -0.1988916,0 -0.3113086,0.224834 H 0.89933589 v -2.82772 H 1.1847021 q 0.2421289,1.210644 0.9252783,1.824614 0.6831493,0.61397 1.5306005,0.61397 0.5966747,0 0.9685155,-0.345899 0.3804883,-0.354546 0.3804883,-0.847451 0,-0.596675 -0.4237256,-1.003105 Q 4.150781,11.091163 2.8968993,10.468546 1.6430175,9.8459289 1.2538818,9.3443762 0.86474605,8.8514709 0.86474605,8.0991418 q 0,-0.977163 0.66585445,-1.63437 0.6745019,-0.657207 1.7381396,-0.657207 0.4669628,0 1.1328173,0.1988916 0.4410205,0.1297119 0.5880273,0.1297119 0.1383594,0 0.2161865,-0.060532 0.077827,-0.060532 0.1815967,-0.2680713 z"
           id="path3199" />
      </g>
    </g>
  </g>
  <g
     transform="matrix(2,0,0,2,374.43575,494.31614)"
     id="g871">
    <g
       id="g869">
      <g
         aria-label="2"
         id="text867"
         style="font-size:15.939px;font-family:Symbola, 'Times New Roman', serif;fill:#2d70b3;fill-opacity:0.9">
        <path
           d="M 7.3079693,9.3346191 6.5686114,11.365908 H 0.34243946 V 11.077947 Q 3.0897378,8.571913 4.2104488,6.9842392 5.3311597,5.3965653 5.3311597,4.0812865 q 0,-1.0039702 -0.6148345,-1.6499355 -0.6148344,-0.6459654 -1.4709331,-0.6459654 -0.7782715,0 -1.4008887,0.4591802 Q 1.229669,2.6959633 0.93392579,3.57541 H 0.64596534 Q 0.84053321,2.1356078 1.6421528,1.365119 2.4515552,0.59463024 3.657876,0.59463024 q 1.284148,0 2.1402466,0.82496776 0.8638814,0.8249678 0.8638814,1.9456787 0,0.8016197 -0.3735704,1.6032393 Q 5.7125127,6.2293158 4.4205821,7.6379872 2.4826861,9.7548857 2.0001577,10.190718 h 2.7550811 q 0.8405332,0 1.17519,-0.06226 0.3424394,-0.06226 0.6148344,-0.2490469 0.2723951,-0.1945679 0.4747456,-0.54479 z"
           id="path3196" />
      </g>
    </g>
  </g>
  <g
     transform="matrix(2,0,0,2,397.342,504.12864)"
     id="g877">
    <g
       id="g875">
      <g
         aria-label="θ"
         id="text873"
         style="font-style:italic;font-size:17.71px;font-family:'Times New Roman', Symbola, serif;fill:#2d70b3;fill-opacity:0.9">
        <path
           d="m 6.5807174,3.6654312 q 2.403994,0 2.403994,3.2946825 0,1.9889159 -0.977163,4.4102053 -0.9685156,2.412641 -2.2223973,3.605991 -1.2452343,1.193349 -2.5682958,1.193349 -1.0809326,0 -1.7640819,-0.916631 -0.67450196,-0.925278 -0.67450196,-2.300224 0,-0.882041 0.38913576,-2.438584 Q 1.5565429,8.9576771 2.3348143,7.3751918 3.1130858,5.7840591 4.2804929,4.7290689 5.4565476,3.6654312 6.5807174,3.6654312 Z M 7.11686,9.5457044 q 0.5793798,-1.8246142 0.5793798,-3.5454588 0,-1.971621 -1.1155224,-1.971621 -0.977163,0 -1.9197362,1.4787157 Q 3.718408,6.9774086 2.9314891,9.5457044 Z M 2.7671874,10.03861 q -0.7955664,2.481821 -0.7955664,3.804882 0,0.864746 0.3545459,1.418184 0.3545459,0.54479 1.0549902,0.54479 0.5793798,0 1.08958,-0.458316 Q 4.9809372,14.881187 5.6640866,13.463004 6.347236,12.04482 6.9525582,10.03861 Z"
           id="path3193" />
      </g>
    </g>
  </g>
</svg>
