<?xml version="1.0" encoding="utf-8" standalone="no"?>
<!DOCTYPE svg PUBLIC "-//W3C//DTD SVG 1.1//EN"
"http://www.w3.org/Graphics/SVG/1.1/DTD/svg11.dtd">

<svg xmlns="http://www.w3.org/2000/svg" version="1.1"
  xmlns:xlink="http://www.w3.org/1999/xlink"
  width="810px" height="430px">
<defs>
	<circle id="pt" cx="0" cy="0" r="3" fill="black" />
	<path id="rt" d="M20,0 V20 H0" stroke="black" fill="none" stroke-width="1" />
	<path id="an" d="M40,0 A40,40 0 0,0 35.92,-17.61 M45,0 A45,45 0 0,0 40.40,-19.81" stroke="black" fill="none" stroke-width="1" />
</defs>
<title>Tangent half-angle formula</title>
<g stroke="black" stroke-width="2" fill="none" stroke-linejoin="round">
	<path d="M5,405 H805 A400,400 0 1,0 5,405 M405,405 V5 M5,405 L650,88.81 405,405 M805,405 650,88.81 V405" />
	<path d="M405,405 V209" stroke="purple" stroke-width="3" />
</g>
<use xlink:href="#pt" x="5" y="405" />
<use xlink:href="#pt" x="405" y="405" />
<use xlink:href="#pt" x="805" y="405" />
<use xlink:href="#pt" x="650" y="88.81" />
<use xlink:href="#pt" x="405" y="209" />
<use xlink:href="#pt" x="650" y="405" />
<use xlink:href="#rt" x="650" y="88.81" transform="rotate(63.88,650,88.81)" />
<use xlink:href="#rt" x="650" y="405" transform="rotate(-90,650,405)" />
<use xlink:href="#an" x="5" y="405" />
<use xlink:href="#an" x="650" y="88.81" transform="rotate(90,650,88.81)"/>
<path d="M40,0 A40,40 0 0,0 24.5,-31.62" stroke="black" fill="none" stroke-width="1" transform="translate(405,405)"/>
<g x="92" y="100" font-family="DejaVu Sans" font-style="normal" font-size="25" stroke="black" stroke-width=".1">
<text>
	<tspan x="2" y="427">A</tspan> <tspan dx="370">O</tspan> <tspan dx="230">C</tspan> <tspan dx="135">D</tspan>
	<tspan x="60" y="395" font-style="italic">φ</tspan><tspan dy="2">∕</tspan><tspan dy="2">2</tspan>
	<tspan x="390" y="330" fill="purple">t</tspan>
	<tspan x="445" y="390" font-style="italic">φ</tspan>
	<tspan x="500" y="425">cos </tspan><tspan font-style="italic">φ</tspan>
	<tspan x="385" y="209">B</tspan>
	<tspan x="660" y="88">E</tspan>
</text>
<g transform="rotate(-26.12,170,320)">
	<text x="170" y="320"><tspan>√1+t</tspan><tspan dy="-7" font-size="15">2</tspan></text>
	<line x1="183" y1="298" x2="245" y2="298" stroke-width="1"/>
</g>
<g transform="rotate(-90,645,300)">
	<text x="645" y="300">sin <tspan font-style="italic">φ</tspan></text>
</g>
<g transform="rotate(90,660,145)">
	<text x="660" y="145"><tspan font-style="italic">φ</tspan><tspan dy="2">∕</tspan><tspan dy="2">2</tspan></text>
</g>
</g>
</svg>
