<?xml version="1.0" encoding="UTF-8" standalone="no"?>
<svg
   version="1.1"
   width="750"
   height="370"
   id="svg6735"
   sodipodi:docname="sin2theta_paths.svg"
   inkscape:version="1.1.2 (b8e25be8, 2022-02-05)"
   xmlns:inkscape="http://www.inkscape.org/namespaces/inkscape"
   xmlns:sodipodi="http://sodipodi.sourceforge.net/DTD/sodipodi-0.dtd"
   xmlns="http://www.w3.org/2000/svg"
   xmlns:svg="http://www.w3.org/2000/svg">
  <sodipodi:namedview
     id="namedview6737"
     pagecolor="#ffffff"
     bordercolor="#666666"
     borderopacity="1.0"
     inkscape:pageshadow="2"
     inkscape:pageopacity="0.0"
     inkscape:pagecheckerboard="0"
     showgrid="false"
     width="750px"
     inkscape:zoom="0.8"
     inkscape:cx="519.375"
     inkscape:cy="209.375"
     inkscape:window-width="1312"
     inkscape:window-height="855"
     inkscape:window-x="0"
     inkscape:window-y="23"
     inkscape:window-maximized="0"
     inkscape:current-layer="svg6735" />
  <defs
     id="defs6128" />
  <g
     id="g6136"
     transform="matrix(2,0,0,2,-30,-217.5)">
    <path
       fill="none"
       stroke="#000000"
       class="dcg-svg-tickmark"
       paint-order="fill stroke markers"
       d=""
       stroke-opacity="0.9"
       stroke-miterlimit="2"
       stroke-width="1.5"
       stroke-dasharray="none"
       id="path6134" />
  </g>
  <path
     fill="#000000"
     stroke="none"
     paint-order="stroke fill markers"
     d=""
     fill-opacity="0.4"
     id="path6144"
     style="stroke-width:2" />
  <path
     fill="none"
     stroke="#000000"
     class="dcg-svg-curve"
     paint-order="fill stroke markers"
     d="m 179.54792,301.9719 v 0 h -47.98578 v 23.9929 h 47.98578 v -23.9929"
     stroke-linecap="round"
     stroke-linejoin="round"
     stroke-miterlimit="10"
     stroke-opacity="0.9"
     stroke-dasharray="none"
     id="path6146"
     style="stroke-width:2" />
  <path
     fill="#000000"
     stroke="none"
     paint-order="stroke fill markers"
     d=""
     fill-opacity="0.4"
     id="path6153"
     style="stroke-width:2" />
  <path
     fill="none"
     stroke="#000000"
     class="dcg-svg-curve"
     paint-order="fill stroke markers"
     d="m 643.10338,301.9719 v 0 H 595.1176 v 23.9929 h 47.98578 v -23.9929"
     stroke-linecap="round"
     stroke-linejoin="round"
     stroke-miterlimit="10"
     stroke-opacity="0.9"
     stroke-dasharray="none"
     id="path6155"
     style="stroke-width:2" />
  <path
     fill="#c74440"
     stroke="none"
     class="dcg-svg-region"
     paint-order="stroke fill markers"
     d="M 155.55503,14.41172 298.43982,325.9648 H 155.55503 V 14.41172"
     fill-opacity="0.1"
     id="path6163"
     style="stroke-width:2" />
  <path
     fill="#c74440"
     stroke="none"
     paint-order="stroke fill markers"
     d=""
     fill-opacity="0.4"
     id="path6165"
     style="stroke-width:2" />
  <path
     fill="none"
     stroke="#c74440"
     class="dcg-svg-curve"
     paint-order="fill stroke markers"
     d="m 155.55503,14.41172 v 0 L 298.43982,325.9648 H 155.55503 V 14.41172"
     stroke-linecap="round"
     stroke-linejoin="round"
     stroke-miterlimit="10"
     stroke-width="5"
     stroke-opacity="0.9"
     stroke-dasharray="none"
     id="path6167" />
  <path
     fill="#2d70b3"
     stroke="none"
     class="dcg-svg-region"
     paint-order="stroke fill markers"
     d="M 155.55503,14.41172 V 325.9648 H 12.67024 L 155.55503,14.41172"
     fill-opacity="0.1"
     id="path6175"
     style="stroke-width:2" />
  <path
     fill="#2d70b3"
     stroke="none"
     paint-order="stroke fill markers"
     d=""
     fill-opacity="0.4"
     id="path6177"
     style="stroke-width:2" />
  <path
     fill="none"
     stroke="#2d70b3"
     class="dcg-svg-curve"
     paint-order="fill stroke markers"
     d="m 155.55503,14.41172 v 0 311.55308 H 12.67024 L 155.55503,14.41172"
     stroke-linecap="round"
     stroke-linejoin="round"
     stroke-miterlimit="10"
     stroke-width="5"
     stroke-opacity="0.9"
     stroke-dasharray="none"
     id="path6179" />
  <path
     fill="#2d70b3"
     stroke="none"
     class="dcg-svg-region"
     paint-order="stroke fill markers"
     d="M 395.48392,325.9648 H 738.2395 L 678.675,196.08742 395.48392,325.9648"
     fill-opacity="0.1"
     id="path6207"
     style="stroke-width:2" />
  <path
     fill="#2d70b3"
     stroke="none"
     paint-order="stroke fill markers"
     d=""
     fill-opacity="0.4"
     id="path6209"
     style="stroke-width:2" />
  <path
     fill="none"
     stroke="#2d70b3"
     class="dcg-svg-curve"
     paint-order="fill stroke markers"
     d="m 395.48392,325.9648 v 0 H 738.2395 L 678.675,196.08742 395.48392,325.9648"
     stroke-linecap="round"
     stroke-linejoin="round"
     stroke-miterlimit="10"
     stroke-width="5"
     stroke-opacity="0.9"
     stroke-dasharray="none"
     id="path6211" />
  <path
     fill="#c74440"
     stroke="none"
     class="dcg-svg-region"
     paint-order="stroke fill markers"
     d="M 395.48392,325.9648 678.675,196.08742 619.1105,66.21004 395.48392,325.9648"
     fill-opacity="0.1"
     id="path6219"
     style="stroke-width:2" />
  <path
     fill="#c74440"
     stroke="none"
     paint-order="stroke fill markers"
     d=""
     fill-opacity="0.4"
     id="path6221"
     style="stroke-width:2" />
  <path
     fill="none"
     stroke="#c74440"
     class="dcg-svg-curve"
     paint-order="fill stroke markers"
     d="m 395.48392,325.9648 v 0 L 678.675,196.08742 619.1105,66.21004 395.48392,325.9648"
     stroke-linecap="round"
     stroke-linejoin="round"
     stroke-miterlimit="10"
     stroke-width="5"
     stroke-opacity="0.9"
     stroke-dasharray="none"
     id="path6223" />
  <path
     fill="#000000"
     stroke="none"
     paint-order="stroke fill markers"
     d=""
     fill-opacity="0.4"
     id="path6231"
     style="stroke-width:2" />
  <path
     fill="none"
     stroke="#000000"
     class="dcg-svg-curve"
     paint-order="fill stroke markers"
     d="m 619.1105,66.21004 v 22 m 0,14 v 22 m 0,14 v 22 m 0,14 v 22 m 0,14 v 22 m 0,14 v 22 m 0,14 v 22 m 0,14 v 7.75476 m 0,0 v -14.24524 m 0,-14 v -22 m 0,-14 v -22 m 0,-14 v -22 m 0,-14 v -22 m 0,-14 v -22 m 0,-14 v -22 m 0,-14 V 66.21004"
     stroke-linecap="round"
     stroke-linejoin="round"
     stroke-miterlimit="10"
     stroke-width="5"
     stroke-opacity="0.9"
     stroke-dasharray="none"
     id="path6233" />
  <path
     fill="#000000"
     stroke="none"
     paint-order="stroke fill markers"
     d=""
     fill-opacity="0.4"
     id="path6253"
     style="stroke-width:2" />
  <path
     fill="none"
     stroke="#000000"
     class="dcg-svg-curve"
     paint-order="fill stroke markers"
     d="m 155.55503,82.96284 v 0 l 5.97623,-0.261 5.93072,-0.781 5.86853,-1.30272 5.78721,-1.83206 5.01426,-2.06372"
     stroke-linecap="round"
     stroke-linejoin="round"
     stroke-miterlimit="10"
     stroke-width="5"
     stroke-opacity="0.9"
     stroke-dasharray="none"
     id="path6255" />
  <path
     fill="#000000"
     stroke="none"
     paint-order="stroke fill markers"
     d=""
     fill-opacity="0.4"
     id="path6271"
     style="stroke-width:2" />
  <path
     fill="none"
     stroke="#000000"
     class="dcg-svg-curve"
     paint-order="fill stroke markers"
     d="m 155.55503,100.10062 v 0 l -6.66244,-0.2594 -6.65849,-0.78236 -6.57696,-1.3005 -6.52526,-1.83342 -6.42801,-2.37164 -2.87004,-1.2533"
     stroke-linecap="round"
     stroke-linejoin="round"
     stroke-miterlimit="10"
     stroke-width="5"
     stroke-opacity="0.9"
     stroke-dasharray="none"
     id="path6273" />
  <path
     fill="#000000"
     stroke="none"
     paint-order="stroke fill markers"
     d=""
     fill-opacity="0.4"
     id="path6281"
     style="stroke-width:2" />
  <path
     fill="none"
     stroke="#000000"
     class="dcg-svg-curve"
     paint-order="fill stroke markers"
     d="m 155.55503,100.10062 v 0 l -6.66244,-0.2594 -6.65849,-0.78236 -6.57696,-1.3005 -6.52526,-1.83342 -6.42801,-2.37164 -2.87004,-1.2533"
     stroke-linecap="round"
     stroke-linejoin="round"
     stroke-miterlimit="10"
     stroke-width="5"
     stroke-opacity="0.9"
     stroke-dasharray="none"
     id="path6283" />
  <path
     fill="#000000"
     stroke="none"
     paint-order="stroke fill markers"
     d=""
     fill-opacity="0.4"
     id="path6291"
     style="stroke-width:2" />
  <path
     fill="none"
     stroke="#000000"
     class="dcg-svg-curve"
     paint-order="fill stroke markers"
     d="m 446.89726,325.9648 v 0 l -0.1938,-4.46016 -0.58768,-4.47006 -0.97704,-4.4014 -1.37404,-4.3404 -1.79032,-4.28182 -2.21404,-4.17914 -2.64052,-4.02966 -3.12304,-3.8975 -3.61614,-3.69634 -1.3527,-1.20674"
     stroke-linecap="round"
     stroke-linejoin="round"
     stroke-miterlimit="10"
     stroke-width="5"
     stroke-opacity="0.9"
     stroke-dasharray="none"
     id="path6293" />
  <g
     transform="matrix(2,0,0,2,60.937496,152.1875)"
     id="g6308">
    <g
       id="g6306">
      <g
         aria-label="1"
         id="text6304"
         style="font-size:15.4px;font-family:arial, sans-serif;fill:none;stroke:#ffffff;stroke-width:3;stroke-linecap:round;stroke-linejoin:round;stroke-miterlimit:2;stroke-opacity:0.9">
        <path
           d="M 5.7374022,13.4888 H 4.3838866 V 4.8638979 Q 3.8951171,5.3301088 3.0980468,5.7963198 2.308496,6.2625307 1.6768554,6.4956362 V 5.1872378 Q 2.8123046,4.653351 3.6620116,3.8938784 4.5117186,3.1344058 4.8651366,2.4200503 h 0.8722656 z"
           id="path417" />
      </g>
    </g>
  </g>
  <g
     transform="matrix(2,0,0,2,60.937496,152.1875)"
     id="g6314">
    <g
       id="g6312">
      <g
         aria-label="1"
         id="text6310"
         style="font-size:15.4px;font-family:arial, sans-serif;fill-opacity:0.9">
        <path
           d="M 5.7374022,13.4888 H 4.3838866 V 4.8638979 Q 3.8951171,5.3301088 3.0980468,5.7963198 2.308496,6.2625307 1.6768554,6.4956362 V 5.1872378 Q 2.8123046,4.653351 3.6620116,3.8938784 4.5117186,3.1344058 4.8651366,2.4200503 h 0.8722656 z"
           id="path414" />
      </g>
    </g>
  </g>
  <g
     transform="matrix(2,0,0,2,232.96875,152.1875)"
     id="g6324">
    <g
       id="g6322">
      <g
         aria-label="1"
         id="text6320"
         style="font-size:15.4px;font-family:arial, sans-serif;fill:none;stroke:#ffffff;stroke-width:3;stroke-linecap:round;stroke-linejoin:round;stroke-miterlimit:2;stroke-opacity:0.9">
        <path
           d="M 5.7374022,13.4888 H 4.3838866 V 4.8638979 Q 3.8951171,5.3301088 3.0980468,5.7963198 2.308496,6.2625307 1.6768554,6.4956362 V 5.1872378 Q 2.8123046,4.653351 3.6620116,3.8938784 4.5117186,3.1344058 4.8651366,2.4200503 h 0.8722656 z"
           id="path411" />
      </g>
    </g>
  </g>
  <g
     transform="matrix(2,0,0,2,232.96875,152.1875)"
     id="g6330">
    <g
       id="g6328">
      <g
         aria-label="1"
         id="text6326"
         style="font-size:15.4px;font-family:arial, sans-serif;fill-opacity:0.9">
        <path
           d="M 5.7374022,13.4888 H 4.3838866 V 4.8638979 Q 3.8951171,5.3301088 3.0980468,5.7963198 2.308496,6.2625307 1.6768554,6.4956362 V 5.1872378 Q 2.8123046,4.653351 3.6620116,3.8938784 4.5117186,3.1344058 4.8651366,2.4200503 h 0.8722656 z"
           id="path408" />
      </g>
    </g>
  </g>
  <g
     transform="matrix(0,2,-2,0,196.9813,186.24624)"
     id="g6346">
    <g
       id="g6344">
      <g
         aria-label="c"
         id="text6342"
         style="font-size:17.71px;font-family:Symbola, 'Times New Roman', serif;fill:none;stroke:#ffffff;stroke-width:3;stroke-linecap:round;stroke-linejoin:round;stroke-miterlimit:2;stroke-opacity:0.9">
        <path
           d="m 7.2811617,10.952804 q -0.319956,1.56519 -1.2538817,2.412641 -0.9339258,0.838804 -2.0667431,0.838804 -1.3490038,0 -2.3521092,-1.132817 -1.00310547,-1.132818 -1.00310547,-3.061201 0,-1.8678519 1.10687497,-3.035259 1.1155224,-1.1674072 2.6720653,-1.1674072 1.1674071,0 1.9197362,0.6226172 0.7523291,0.6139697 0.7523291,1.2798241 0,0.3286035 -0.2161866,0.5361426 -0.207539,0.1988916 -0.5880273,0.1988916 -0.5102001,0 -0.7696239,-0.3286035 Q 5.3354831,7.9348401 5.2835984,7.4246399 5.2403611,6.9144398 4.9376999,6.6463685 4.6350388,6.3869447 4.0988963,6.3869447 q -0.8647461,0 -1.3922412,0.639912 -0.7004443,0.8474512 -0.7004443,2.2396923 0,1.418184 0.6917969,2.507764 0.7004443,1.080932 1.8851464,1.080932 0.8474511,0 1.521953,-0.57938 0.4756103,-0.397783 0.9252783,-1.444126 z"
           id="path405" />
      </g>
    </g>
  </g>
  <g
     transform="matrix(0,2,-2,0,196.9813,201.96499)"
     id="g6352">
    <g
       id="g6350">
      <g
         aria-label="o"
         id="text6348"
         style="font-size:17.71px;font-family:Symbola, 'Times New Roman', serif;fill:none;stroke:#ffffff;stroke-width:3;stroke-linecap:round;stroke-linejoin:round;stroke-miterlimit:2;stroke-opacity:0.9">
        <path
           d="m 4.4274998,5.8075648 q 1.7986718,0 2.8882518,1.3662988 0.9252782,1.1674071 0.9252782,2.6807127 0,1.0636377 -0.5102001,2.1532177 -0.5102002,1.08958 -1.4095361,1.643017 -0.8906884,0.553438 -1.9889159,0.553438 -1.7900243,0 -2.8450145,-1.426831 -0.89068843,-1.201997 -0.89068843,-2.698008 0,-1.0895797 0.53614253,-2.1618648 0.54479,-1.0809326 1.426831,-1.5911328 0.882041,-0.5188476 1.8678515,-0.5188476 z M 4.1594285,6.3696497 q -0.4583154,0 -0.9252783,0.2767188 -0.4583154,0.2680713 -0.7436816,0.9512206 -0.2853662,0.6831494 -0.2853662,1.7554345 0,1.7294924 0.6831494,2.9833734 0.6917968,1.253882 1.8159667,1.253882 0.8388037,0 1.3835937,-0.691797 0.54479,-0.691796 0.54479,-2.378051 0,-2.1099806 -0.9079834,-3.320625 Q 5.1106491,6.3696497 4.1594285,6.3696497 Z"
           id="path402" />
      </g>
    </g>
  </g>
  <g
     transform="matrix(0,2,-2,0,196.9813,219.68374)"
     id="g6358">
    <g
       id="g6356">
      <g
         aria-label="s"
         id="text6354"
         style="font-size:17.71px;font-family:Symbola, 'Times New Roman', serif;fill:none;stroke:#ffffff;stroke-width:3;stroke-linecap:round;stroke-linejoin:round;stroke-miterlimit:2;stroke-opacity:0.9">
        <path
           d="M 5.6727341,5.8075648 V 8.5055725 H 5.3873679 Q 5.0587644,7.2343958 4.5399168,6.7760804 4.0297166,6.317765 3.2341502,6.317765 q -0.6053222,0 -0.977163,0.319956 -0.3718408,0.3199561 -0.3718408,0.7090918 0,0.4842578 0.2767187,0.8301562 0.2680713,0.3545459 1.08958,0.7523291 l 1.2625293,0.6139696 q 1.7554345,0.8560983 1.7554345,2.2569873 0,1.080932 -0.8215088,1.746787 -0.8128613,0.657207 -1.8246142,0.657207 -0.7263866,0 -1.6603124,-0.259424 -0.2853662,-0.08647 -0.4669628,-0.08647 -0.1988916,0 -0.3113086,0.224834 H 0.89933589 v -2.82772 H 1.1847021 q 0.2421289,1.210644 0.9252783,1.824614 0.6831493,0.61397 1.5306005,0.61397 0.5966747,0 0.9685155,-0.345899 0.3804883,-0.354546 0.3804883,-0.847451 0,-0.596675 -0.4237256,-1.003105 Q 4.150781,11.091163 2.8968993,10.468546 1.6430175,9.8459289 1.2538818,9.3443762 0.86474605,8.8514709 0.86474605,8.0991418 q 0,-0.977163 0.66585445,-1.63437 0.6745019,-0.657207 1.7381396,-0.657207 0.4669628,0 1.1328173,0.1988916 0.4410205,0.1297119 0.5880273,0.1297119 0.1383594,0 0.2161865,-0.060532 0.077827,-0.060532 0.1815967,-0.2680713 z"
           id="path399" />
      </g>
    </g>
  </g>
  <g
     transform="matrix(0,2,-2,0,200.9813,240.52749)"
     id="g6364">
    <g
       id="g6362">
      <g
         aria-label="θ"
         id="text6360"
         style="font-style:italic;font-size:17.71px;font-family:'Times New Roman', Symbola, serif;fill:none;stroke:#ffffff;stroke-width:3;stroke-linecap:round;stroke-linejoin:round;stroke-miterlimit:2;stroke-opacity:0.9">
        <path
           d="m 6.5807174,3.6654312 q 2.403994,0 2.403994,3.2946825 0,1.9889159 -0.977163,4.4102053 -0.9685156,2.412641 -2.2223973,3.605991 -1.2452343,1.193349 -2.5682958,1.193349 -1.0809326,0 -1.7640819,-0.916631 -0.67450196,-0.925278 -0.67450196,-2.300224 0,-0.882041 0.38913576,-2.438584 Q 1.5565429,8.9576771 2.3348143,7.3751918 3.1130858,5.7840591 4.2804929,4.7290689 5.4565476,3.6654312 6.5807174,3.6654312 Z M 7.11686,9.5457044 q 0.5793798,-1.8246142 0.5793798,-3.5454588 0,-1.971621 -1.1155224,-1.971621 -0.977163,0 -1.9197362,1.4787157 Q 3.718408,6.9774086 2.9314891,9.5457044 Z M 2.7671874,10.03861 q -0.7955664,2.481821 -0.7955664,3.804882 0,0.864746 0.3545459,1.418184 0.3545459,0.54479 1.0549902,0.54479 0.5793798,0 1.08958,-0.458316 Q 4.9809372,14.881187 5.6640866,13.463004 6.347236,12.04482 6.9525582,10.03861 Z"
           id="path396" />
      </g>
    </g>
  </g>
  <g
     transform="matrix(0,2,-2,0,196.9813,186.24624)"
     id="g6376">
    <g
       id="g6374">
      <g
         aria-label="c"
         id="text6372"
         style="font-size:17.71px;font-family:Symbola, 'Times New Roman', serif;fill-opacity:0.9">
        <path
           d="m 7.2811617,10.952804 q -0.319956,1.56519 -1.2538817,2.412641 -0.9339258,0.838804 -2.0667431,0.838804 -1.3490038,0 -2.3521092,-1.132817 -1.00310547,-1.132818 -1.00310547,-3.061201 0,-1.8678519 1.10687497,-3.035259 1.1155224,-1.1674072 2.6720653,-1.1674072 1.1674071,0 1.9197362,0.6226172 0.7523291,0.6139697 0.7523291,1.2798241 0,0.3286035 -0.2161866,0.5361426 -0.207539,0.1988916 -0.5880273,0.1988916 -0.5102001,0 -0.7696239,-0.3286035 Q 5.3354831,7.9348401 5.2835984,7.4246399 5.2403611,6.9144398 4.9376999,6.6463685 4.6350388,6.3869447 4.0988963,6.3869447 q -0.8647461,0 -1.3922412,0.639912 -0.7004443,0.8474512 -0.7004443,2.2396923 0,1.418184 0.6917969,2.507764 0.7004443,1.080932 1.8851464,1.080932 0.8474511,0 1.521953,-0.57938 0.4756103,-0.397783 0.9252783,-1.444126 z"
           id="path393" />
      </g>
    </g>
  </g>
  <g
     transform="matrix(0,2,-2,0,196.9813,201.96499)"
     id="g6382">
    <g
       id="g6380">
      <g
         aria-label="o"
         id="text6378"
         style="font-size:17.71px;font-family:Symbola, 'Times New Roman', serif;fill-opacity:0.9">
        <path
           d="m 4.4274998,5.8075648 q 1.7986718,0 2.8882518,1.3662988 0.9252782,1.1674071 0.9252782,2.6807127 0,1.0636377 -0.5102001,2.1532177 -0.5102002,1.08958 -1.4095361,1.643017 -0.8906884,0.553438 -1.9889159,0.553438 -1.7900243,0 -2.8450145,-1.426831 -0.89068843,-1.201997 -0.89068843,-2.698008 0,-1.0895797 0.53614253,-2.1618648 0.54479,-1.0809326 1.426831,-1.5911328 0.882041,-0.5188476 1.8678515,-0.5188476 z M 4.1594285,6.3696497 q -0.4583154,0 -0.9252783,0.2767188 -0.4583154,0.2680713 -0.7436816,0.9512206 -0.2853662,0.6831494 -0.2853662,1.7554345 0,1.7294924 0.6831494,2.9833734 0.6917968,1.253882 1.8159667,1.253882 0.8388037,0 1.3835937,-0.691797 0.54479,-0.691796 0.54479,-2.378051 0,-2.1099806 -0.9079834,-3.320625 Q 5.1106491,6.3696497 4.1594285,6.3696497 Z"
           id="path390" />
      </g>
    </g>
  </g>
  <g
     transform="matrix(0,2,-2,0,196.9813,219.68374)"
     id="g6388">
    <g
       id="g6386">
      <g
         aria-label="s"
         id="text6384"
         style="font-size:17.71px;font-family:Symbola, 'Times New Roman', serif;fill-opacity:0.9">
        <path
           d="M 5.6727341,5.8075648 V 8.5055725 H 5.3873679 Q 5.0587644,7.2343958 4.5399168,6.7760804 4.0297166,6.317765 3.2341502,6.317765 q -0.6053222,0 -0.977163,0.319956 -0.3718408,0.3199561 -0.3718408,0.7090918 0,0.4842578 0.2767187,0.8301562 0.2680713,0.3545459 1.08958,0.7523291 l 1.2625293,0.6139696 q 1.7554345,0.8560983 1.7554345,2.2569873 0,1.080932 -0.8215088,1.746787 -0.8128613,0.657207 -1.8246142,0.657207 -0.7263866,0 -1.6603124,-0.259424 -0.2853662,-0.08647 -0.4669628,-0.08647 -0.1988916,0 -0.3113086,0.224834 H 0.89933589 v -2.82772 H 1.1847021 q 0.2421289,1.210644 0.9252783,1.824614 0.6831493,0.61397 1.5306005,0.61397 0.5966747,0 0.9685155,-0.345899 0.3804883,-0.354546 0.3804883,-0.847451 0,-0.596675 -0.4237256,-1.003105 Q 4.150781,11.091163 2.8968993,10.468546 1.6430175,9.8459289 1.2538818,9.3443762 0.86474605,8.8514709 0.86474605,8.0991418 q 0,-0.977163 0.66585445,-1.63437 0.6745019,-0.657207 1.7381396,-0.657207 0.4669628,0 1.1328173,0.1988916 0.4410205,0.1297119 0.5880273,0.1297119 0.1383594,0 0.2161865,-0.060532 0.077827,-0.060532 0.1815967,-0.2680713 z"
           id="path387" />
      </g>
    </g>
  </g>
  <g
     transform="matrix(0,2,-2,0,200.9813,240.52749)"
     id="g6394">
    <g
       id="g6392">
      <g
         aria-label="θ"
         id="text6390"
         style="font-style:italic;font-size:17.71px;font-family:'Times New Roman', Symbola, serif;fill-opacity:0.9">
        <path
           d="m 6.5807174,3.6654312 q 2.403994,0 2.403994,3.2946825 0,1.9889159 -0.977163,4.4102053 -0.9685156,2.412641 -2.2223973,3.605991 -1.2452343,1.193349 -2.5682958,1.193349 -1.0809326,0 -1.7640819,-0.916631 -0.67450196,-0.925278 -0.67450196,-2.300224 0,-0.882041 0.38913576,-2.438584 Q 1.5565429,8.9576771 2.3348143,7.3751918 3.1130858,5.7840591 4.2804929,4.7290689 5.4565476,3.6654312 6.5807174,3.6654312 Z M 7.11686,9.5457044 q 0.5793798,-1.8246142 0.5793798,-3.5454588 0,-1.971621 -1.1155224,-1.971621 -0.977163,0 -1.9197362,1.4787157 Q 3.718408,6.9774086 2.9314891,9.5457044 Z M 2.7671874,10.03861 q -0.7955664,2.481821 -0.7955664,3.804882 0,0.864746 0.3545459,1.418184 0.3545459,0.54479 1.0549902,0.54479 0.5793798,0 1.08958,-0.458316 Q 4.9809372,14.881187 5.6640866,13.463004 6.347236,12.04482 6.9525582,10.03861 Z"
           id="path384" />
      </g>
    </g>
  </g>
  <g
     transform="matrix(2,0,0,2,194.0625,327.9375)"
     id="g6410">
    <g
       id="g6408">
      <g
         aria-label="s"
         id="text6406"
         style="font-size:17.71px;font-family:Symbola, 'Times New Roman', serif;fill:none;stroke:#ffffff;stroke-width:3;stroke-linecap:round;stroke-linejoin:round;stroke-miterlimit:2;stroke-opacity:0.9">
        <path
           d="M 5.6727341,5.8075648 V 8.5055725 H 5.3873679 Q 5.0587644,7.2343958 4.5399168,6.7760804 4.0297166,6.317765 3.2341502,6.317765 q -0.6053222,0 -0.977163,0.319956 -0.3718408,0.3199561 -0.3718408,0.7090918 0,0.4842578 0.2767187,0.8301562 0.2680713,0.3545459 1.08958,0.7523291 l 1.2625293,0.6139696 q 1.7554345,0.8560983 1.7554345,2.2569873 0,1.080932 -0.8215088,1.746787 -0.8128613,0.657207 -1.8246142,0.657207 -0.7263866,0 -1.6603124,-0.259424 -0.2853662,-0.08647 -0.4669628,-0.08647 -0.1988916,0 -0.3113086,0.224834 H 0.89933589 v -2.82772 H 1.1847021 q 0.2421289,1.210644 0.9252783,1.824614 0.6831493,0.61397 1.5306005,0.61397 0.5966747,0 0.9685155,-0.345899 0.3804883,-0.354546 0.3804883,-0.847451 0,-0.596675 -0.4237256,-1.003105 Q 4.150781,11.091163 2.8968993,10.468546 1.6430175,9.8459289 1.2538818,9.3443762 0.86474605,8.8514709 0.86474605,8.0991418 q 0,-0.977163 0.66585445,-1.63437 0.6745019,-0.657207 1.7381396,-0.657207 0.4669628,0 1.1328173,0.1988916 0.4410205,0.1297119 0.5880273,0.1297119 0.1383594,0 0.2161865,-0.060532 0.077827,-0.060532 0.1815967,-0.2680713 z"
           id="path381" />
      </g>
    </g>
  </g>
  <g
     transform="matrix(2,0,0,2,207.84375,327.9375)"
     id="g6416">
    <g
       id="g6414">
      <g
         aria-label="i"
         id="text6412"
         style="font-size:17.71px;font-family:Symbola, 'Times New Roman', serif;fill:none;stroke:#ffffff;stroke-width:3;stroke-linecap:round;stroke-linejoin:round;stroke-miterlimit:2;stroke-opacity:0.9">
        <path
           d="m 2.5682958,1.6654312 q 0.3631933,0 0.6139697,0.2594239 0.2594238,0.2507763 0.2594238,0.6139696 0,0.3631934 -0.2594238,0.6226172 -0.2507764,0.2594238 -0.6139697,0.2594238 -0.3631934,0 -0.6226172,-0.2594238 -0.2594238,-0.2594238 -0.2594238,-0.6226172 0,-0.3631933 0.2507763,-0.6139696 Q 2.196455,1.6654312 2.5682958,1.6654312 Z M 3.286035,5.8075648 v 6.3645312 q 0,0.743681 0.1037695,0.994458 0.112417,0.242129 0.3199561,0.363193 0.2161865,0.121064 0.7782714,0.121064 V 13.96212 H 0.63991208 v -0.311309 q 0.57937982,0 0.77827142,-0.112417 0.1988916,-0.112416 0.3113086,-0.37184 0.1210644,-0.259424 0.1210644,-0.994458 V 9.1195422 q 0,-1.2884716 -0.077827,-1.6689599 Q 1.7121972,7.1738636 1.5824853,7.070094 1.4527734,6.9576771 1.2279394,6.9576771 q -0.2421289,0 -0.58802732,0.1297119 L 0.51884763,6.7760804 2.9055467,5.8075648 Z"
           id="path378" />
      </g>
    </g>
  </g>
  <g
     transform="matrix(2,0,0,2,217.6875,327.9375)"
     id="g6422">
    <g
       id="g6420">
      <g
         aria-label="n"
         id="text6418"
         style="font-size:17.71px;font-family:Symbola, 'Times New Roman', serif;fill:none;stroke:#ffffff;stroke-width:3;stroke-linecap:round;stroke-linejoin:round;stroke-miterlimit:2;stroke-opacity:0.9">
        <path
           d="m 2.8623094,7.4851721 q 1.3922412,-1.6776073 2.6547704,-1.6776073 0.6485595,0 1.1155224,0.3286035 0.4669629,0.3199561 0.7436816,1.0636377 0.1902441,0.5188476 0.1902441,1.5911327 v 3.3811573 q 0,0.752329 0.1210645,1.0204 0.095122,0.216187 0.3026611,0.337251 0.2161865,0.121064 0.7869189,0.121064 V 13.96212 H 4.8598728 v -0.311309 h 0.1643017 q 0.5534375,0 0.769624,-0.164301 0.224834,-0.172949 0.3113086,-0.501553 0.03459,-0.129712 0.03459,-0.812861 V 8.9292981 q 0,-1.0809326 -0.2853661,-1.5651904 Q 5.577612,6.8712025 4.9117576,6.8712025 q -1.0290478,0 -2.0494482,1.1241698 v 4.1767237 q 0,0.804214 0.095122,0.994458 0.1210644,0.250776 0.3286035,0.37184 0.2161865,0.112417 0.864746,0.112417 V 13.96212 H 0.23348143 v -0.311309 h 0.17294921 q 0.60532226,0 0.81286126,-0.302661 0.2161865,-0.311308 0.2161865,-1.176054 V 9.2319592 q 0,-1.426831 -0.06918,-1.7381396 Q 1.3057665,7.182511 1.1674072,7.070094 1.0376953,6.9576771 0.81286129,6.9576771 q -0.2421289,0 -0.57937986,0.1297119 L 0.10376953,6.7760804 2.4904686,5.8075648 h 0.3718408 z"
           id="path375" />
      </g>
    </g>
  </g>
  <g
     transform="matrix(2,0,0,2,242.46875,323.9375)"
     id="g6428">
    <g
       id="g6426">
      <g
         aria-label="θ"
         id="text6424"
         style="font-style:italic;font-size:17.71px;font-family:'Times New Roman', Symbola, serif;fill:none;stroke:#ffffff;stroke-width:3;stroke-linecap:round;stroke-linejoin:round;stroke-miterlimit:2;stroke-opacity:0.9">
        <path
           d="m 6.5807174,3.6654312 q 2.403994,0 2.403994,3.2946825 0,1.9889159 -0.977163,4.4102053 -0.9685156,2.412641 -2.2223973,3.605991 -1.2452343,1.193349 -2.5682958,1.193349 -1.0809326,0 -1.7640819,-0.916631 -0.67450196,-0.925278 -0.67450196,-2.300224 0,-0.882041 0.38913576,-2.438584 Q 1.5565429,8.9576771 2.3348143,7.3751918 3.1130858,5.7840591 4.2804929,4.7290689 5.4565476,3.6654312 6.5807174,3.6654312 Z M 7.11686,9.5457044 q 0.5793798,-1.8246142 0.5793798,-3.5454588 0,-1.971621 -1.1155224,-1.971621 -0.977163,0 -1.9197362,1.4787157 Q 3.718408,6.9774086 2.9314891,9.5457044 Z M 2.7671874,10.03861 q -0.7955664,2.481821 -0.7955664,3.804882 0,0.864746 0.3545459,1.418184 0.3545459,0.54479 1.0549902,0.54479 0.5793798,0 1.08958,-0.458316 Q 4.9809372,14.881187 5.6640866,13.463004 6.347236,12.04482 6.9525582,10.03861 Z"
           id="path372" />
      </g>
    </g>
  </g>
  <g
     transform="matrix(2,0,0,2,194.0625,327.9375)"
     id="g6440">
    <g
       id="g6438">
      <g
         aria-label="s"
         id="text6436"
         style="font-size:17.71px;font-family:Symbola, 'Times New Roman', serif;fill-opacity:0.9">
        <path
           d="M 5.6727341,5.8075648 V 8.5055725 H 5.3873679 Q 5.0587644,7.2343958 4.5399168,6.7760804 4.0297166,6.317765 3.2341502,6.317765 q -0.6053222,0 -0.977163,0.319956 -0.3718408,0.3199561 -0.3718408,0.7090918 0,0.4842578 0.2767187,0.8301562 0.2680713,0.3545459 1.08958,0.7523291 l 1.2625293,0.6139696 q 1.7554345,0.8560983 1.7554345,2.2569873 0,1.080932 -0.8215088,1.746787 -0.8128613,0.657207 -1.8246142,0.657207 -0.7263866,0 -1.6603124,-0.259424 -0.2853662,-0.08647 -0.4669628,-0.08647 -0.1988916,0 -0.3113086,0.224834 H 0.89933589 v -2.82772 H 1.1847021 q 0.2421289,1.210644 0.9252783,1.824614 0.6831493,0.61397 1.5306005,0.61397 0.5966747,0 0.9685155,-0.345899 0.3804883,-0.354546 0.3804883,-0.847451 0,-0.596675 -0.4237256,-1.003105 Q 4.150781,11.091163 2.8968993,10.468546 1.6430175,9.8459289 1.2538818,9.3443762 0.86474605,8.8514709 0.86474605,8.0991418 q 0,-0.977163 0.66585445,-1.63437 0.6745019,-0.657207 1.7381396,-0.657207 0.4669628,0 1.1328173,0.1988916 0.4410205,0.1297119 0.5880273,0.1297119 0.1383594,0 0.2161865,-0.060532 0.077827,-0.060532 0.1815967,-0.2680713 z"
           id="path369" />
      </g>
    </g>
  </g>
  <g
     transform="matrix(2,0,0,2,207.84375,327.9375)"
     id="g6446">
    <g
       id="g6444">
      <g
         aria-label="i"
         id="text6442"
         style="font-size:17.71px;font-family:Symbola, 'Times New Roman', serif;fill-opacity:0.9">
        <path
           d="m 2.5682958,1.6654312 q 0.3631933,0 0.6139697,0.2594239 0.2594238,0.2507763 0.2594238,0.6139696 0,0.3631934 -0.2594238,0.6226172 -0.2507764,0.2594238 -0.6139697,0.2594238 -0.3631934,0 -0.6226172,-0.2594238 -0.2594238,-0.2594238 -0.2594238,-0.6226172 0,-0.3631933 0.2507763,-0.6139696 Q 2.196455,1.6654312 2.5682958,1.6654312 Z M 3.286035,5.8075648 v 6.3645312 q 0,0.743681 0.1037695,0.994458 0.112417,0.242129 0.3199561,0.363193 0.2161865,0.121064 0.7782714,0.121064 V 13.96212 H 0.63991208 v -0.311309 q 0.57937982,0 0.77827142,-0.112417 0.1988916,-0.112416 0.3113086,-0.37184 0.1210644,-0.259424 0.1210644,-0.994458 V 9.1195422 q 0,-1.2884716 -0.077827,-1.6689599 Q 1.7121972,7.1738636 1.5824853,7.070094 1.4527734,6.9576771 1.2279394,6.9576771 q -0.2421289,0 -0.58802732,0.1297119 L 0.51884763,6.7760804 2.9055467,5.8075648 Z"
           id="path366" />
      </g>
    </g>
  </g>
  <g
     transform="matrix(2,0,0,2,217.6875,327.9375)"
     id="g6452">
    <g
       id="g6450">
      <g
         aria-label="n"
         id="text6448"
         style="font-size:17.71px;font-family:Symbola, 'Times New Roman', serif;fill-opacity:0.9">
        <path
           d="m 2.8623094,7.4851721 q 1.3922412,-1.6776073 2.6547704,-1.6776073 0.6485595,0 1.1155224,0.3286035 0.4669629,0.3199561 0.7436816,1.0636377 0.1902441,0.5188476 0.1902441,1.5911327 v 3.3811573 q 0,0.752329 0.1210645,1.0204 0.095122,0.216187 0.3026611,0.337251 0.2161865,0.121064 0.7869189,0.121064 V 13.96212 H 4.8598728 v -0.311309 h 0.1643017 q 0.5534375,0 0.769624,-0.164301 0.224834,-0.172949 0.3113086,-0.501553 0.03459,-0.129712 0.03459,-0.812861 V 8.9292981 q 0,-1.0809326 -0.2853661,-1.5651904 Q 5.577612,6.8712025 4.9117576,6.8712025 q -1.0290478,0 -2.0494482,1.1241698 v 4.1767237 q 0,0.804214 0.095122,0.994458 0.1210644,0.250776 0.3286035,0.37184 0.2161865,0.112417 0.864746,0.112417 V 13.96212 H 0.23348143 v -0.311309 h 0.17294921 q 0.60532226,0 0.81286126,-0.302661 0.2161865,-0.311308 0.2161865,-1.176054 V 9.2319592 q 0,-1.426831 -0.06918,-1.7381396 Q 1.3057665,7.182511 1.1674072,7.070094 1.0376953,6.9576771 0.81286129,6.9576771 q -0.2421289,0 -0.57937986,0.1297119 L 0.10376953,6.7760804 2.4904686,5.8075648 h 0.3718408 z"
           id="path363" />
      </g>
    </g>
  </g>
  <g
     transform="matrix(2,0,0,2,242.46875,323.9375)"
     id="g6458">
    <g
       id="g6456">
      <g
         aria-label="θ"
         id="text6454"
         style="font-style:italic;font-size:17.71px;font-family:'Times New Roman', Symbola, serif;fill-opacity:0.9">
        <path
           d="m 6.5807174,3.6654312 q 2.403994,0 2.403994,3.2946825 0,1.9889159 -0.977163,4.4102053 -0.9685156,2.412641 -2.2223973,3.605991 -1.2452343,1.193349 -2.5682958,1.193349 -1.0809326,0 -1.7640819,-0.916631 -0.67450196,-0.925278 -0.67450196,-2.300224 0,-0.882041 0.38913576,-2.438584 Q 1.5565429,8.9576771 2.3348143,7.3751918 3.1130858,5.7840591 4.2804929,4.7290689 5.4565476,3.6654312 6.5807174,3.6654312 Z M 7.11686,9.5457044 q 0.5793798,-1.8246142 0.5793798,-3.5454588 0,-1.971621 -1.1155224,-1.971621 -0.977163,0 -1.9197362,1.4787157 Q 3.718408,6.9774086 2.9314891,9.5457044 Z M 2.7671874,10.03861 q -0.7955664,2.481821 -0.7955664,3.804882 0,0.864746 0.3545459,1.418184 0.3545459,0.54479 1.0549902,0.54479 0.5793798,0 1.08958,-0.458316 Q 4.9809372,14.881187 5.6640866,13.463004 6.347236,12.04482 6.9525582,10.03861 Z"
           id="path360" />
      </g>
    </g>
  </g>
  <g
     transform="matrix(2,0,0,2,51.187496,327.9375)"
     id="g6474">
    <g
       id="g6472">
      <g
         aria-label="s"
         id="text6470"
         style="font-size:17.71px;font-family:Symbola, 'Times New Roman', serif;fill:none;stroke:#ffffff;stroke-width:3;stroke-linecap:round;stroke-linejoin:round;stroke-miterlimit:2;stroke-opacity:0.9">
        <path
           d="M 5.6727341,5.8075648 V 8.5055725 H 5.3873679 Q 5.0587644,7.2343958 4.5399168,6.7760804 4.0297166,6.317765 3.2341502,6.317765 q -0.6053222,0 -0.977163,0.319956 -0.3718408,0.3199561 -0.3718408,0.7090918 0,0.4842578 0.2767187,0.8301562 0.2680713,0.3545459 1.08958,0.7523291 l 1.2625293,0.6139696 q 1.7554345,0.8560983 1.7554345,2.2569873 0,1.080932 -0.8215088,1.746787 -0.8128613,0.657207 -1.8246142,0.657207 -0.7263866,0 -1.6603124,-0.259424 -0.2853662,-0.08647 -0.4669628,-0.08647 -0.1988916,0 -0.3113086,0.224834 H 0.89933589 v -2.82772 H 1.1847021 q 0.2421289,1.210644 0.9252783,1.824614 0.6831493,0.61397 1.5306005,0.61397 0.5966747,0 0.9685155,-0.345899 0.3804883,-0.354546 0.3804883,-0.847451 0,-0.596675 -0.4237256,-1.003105 Q 4.150781,11.091163 2.8968993,10.468546 1.6430175,9.8459289 1.2538818,9.3443762 0.86474605,8.8514709 0.86474605,8.0991418 q 0,-0.977163 0.66585445,-1.63437 0.6745019,-0.657207 1.7381396,-0.657207 0.4669628,0 1.1328173,0.1988916 0.4410205,0.1297119 0.5880273,0.1297119 0.1383594,0 0.2161865,-0.060532 0.077827,-0.060532 0.1815967,-0.2680713 z"
           id="path357" />
      </g>
    </g>
  </g>
  <g
     transform="matrix(2,0,0,2,64.968745,327.9375)"
     id="g6480">
    <g
       id="g6478">
      <g
         aria-label="i"
         id="text6476"
         style="font-size:17.71px;font-family:Symbola, 'Times New Roman', serif;fill:none;stroke:#ffffff;stroke-width:3;stroke-linecap:round;stroke-linejoin:round;stroke-miterlimit:2;stroke-opacity:0.9">
        <path
           d="m 2.5682958,1.6654312 q 0.3631933,0 0.6139697,0.2594239 0.2594238,0.2507763 0.2594238,0.6139696 0,0.3631934 -0.2594238,0.6226172 -0.2507764,0.2594238 -0.6139697,0.2594238 -0.3631934,0 -0.6226172,-0.2594238 -0.2594238,-0.2594238 -0.2594238,-0.6226172 0,-0.3631933 0.2507763,-0.6139696 Q 2.196455,1.6654312 2.5682958,1.6654312 Z M 3.286035,5.8075648 v 6.3645312 q 0,0.743681 0.1037695,0.994458 0.112417,0.242129 0.3199561,0.363193 0.2161865,0.121064 0.7782714,0.121064 V 13.96212 H 0.63991208 v -0.311309 q 0.57937982,0 0.77827142,-0.112417 0.1988916,-0.112416 0.3113086,-0.37184 0.1210644,-0.259424 0.1210644,-0.994458 V 9.1195422 q 0,-1.2884716 -0.077827,-1.6689599 Q 1.7121972,7.1738636 1.5824853,7.070094 1.4527734,6.9576771 1.2279394,6.9576771 q -0.2421289,0 -0.58802732,0.1297119 L 0.51884763,6.7760804 2.9055467,5.8075648 Z"
           id="path354" />
      </g>
    </g>
  </g>
  <g
     transform="matrix(2,0,0,2,74.812495,327.9375)"
     id="g6486">
    <g
       id="g6484">
      <g
         aria-label="n"
         id="text6482"
         style="font-size:17.71px;font-family:Symbola, 'Times New Roman', serif;fill:none;stroke:#ffffff;stroke-width:3;stroke-linecap:round;stroke-linejoin:round;stroke-miterlimit:2;stroke-opacity:0.9">
        <path
           d="m 2.8623094,7.4851721 q 1.3922412,-1.6776073 2.6547704,-1.6776073 0.6485595,0 1.1155224,0.3286035 0.4669629,0.3199561 0.7436816,1.0636377 0.1902441,0.5188476 0.1902441,1.5911327 v 3.3811573 q 0,0.752329 0.1210645,1.0204 0.095122,0.216187 0.3026611,0.337251 0.2161865,0.121064 0.7869189,0.121064 V 13.96212 H 4.8598728 v -0.311309 h 0.1643017 q 0.5534375,0 0.769624,-0.164301 0.224834,-0.172949 0.3113086,-0.501553 0.03459,-0.129712 0.03459,-0.812861 V 8.9292981 q 0,-1.0809326 -0.2853661,-1.5651904 Q 5.577612,6.8712025 4.9117576,6.8712025 q -1.0290478,0 -2.0494482,1.1241698 v 4.1767237 q 0,0.804214 0.095122,0.994458 0.1210644,0.250776 0.3286035,0.37184 0.2161865,0.112417 0.864746,0.112417 V 13.96212 H 0.23348143 v -0.311309 h 0.17294921 q 0.60532226,0 0.81286126,-0.302661 0.2161865,-0.311308 0.2161865,-1.176054 V 9.2319592 q 0,-1.426831 -0.06918,-1.7381396 Q 1.3057665,7.182511 1.1674072,7.070094 1.0376953,6.9576771 0.81286129,6.9576771 q -0.2421289,0 -0.57937986,0.1297119 L 0.10376953,6.7760804 2.4904686,5.8075648 h 0.3718408 z"
           id="path351" />
      </g>
    </g>
  </g>
  <g
     transform="matrix(2,0,0,2,99.59375,323.9375)"
     id="g6492">
    <g
       id="g6490">
      <g
         aria-label="θ"
         id="text6488"
         style="font-style:italic;font-size:17.71px;font-family:'Times New Roman', Symbola, serif;fill:none;stroke:#ffffff;stroke-width:3;stroke-linecap:round;stroke-linejoin:round;stroke-miterlimit:2;stroke-opacity:0.9">
        <path
           d="m 6.5807174,3.6654312 q 2.403994,0 2.403994,3.2946825 0,1.9889159 -0.977163,4.4102053 -0.9685156,2.412641 -2.2223973,3.605991 -1.2452343,1.193349 -2.5682958,1.193349 -1.0809326,0 -1.7640819,-0.916631 -0.67450196,-0.925278 -0.67450196,-2.300224 0,-0.882041 0.38913576,-2.438584 Q 1.5565429,8.9576771 2.3348143,7.3751918 3.1130858,5.7840591 4.2804929,4.7290689 5.4565476,3.6654312 6.5807174,3.6654312 Z M 7.11686,9.5457044 q 0.5793798,-1.8246142 0.5793798,-3.5454588 0,-1.971621 -1.1155224,-1.971621 -0.977163,0 -1.9197362,1.4787157 Q 3.718408,6.9774086 2.9314891,9.5457044 Z M 2.7671874,10.03861 q -0.7955664,2.481821 -0.7955664,3.804882 0,0.864746 0.3545459,1.418184 0.3545459,0.54479 1.0549902,0.54479 0.5793798,0 1.08958,-0.458316 Q 4.9809372,14.881187 5.6640866,13.463004 6.347236,12.04482 6.9525582,10.03861 Z"
           id="path348" />
      </g>
    </g>
  </g>
  <g
     transform="matrix(2,0,0,2,51.187496,327.9375)"
     id="g6504">
    <g
       id="g6502">
      <g
         aria-label="s"
         id="text6500"
         style="font-size:17.71px;font-family:Symbola, 'Times New Roman', serif;fill-opacity:0.9">
        <path
           d="M 5.6727341,5.8075648 V 8.5055725 H 5.3873679 Q 5.0587644,7.2343958 4.5399168,6.7760804 4.0297166,6.317765 3.2341502,6.317765 q -0.6053222,0 -0.977163,0.319956 -0.3718408,0.3199561 -0.3718408,0.7090918 0,0.4842578 0.2767187,0.8301562 0.2680713,0.3545459 1.08958,0.7523291 l 1.2625293,0.6139696 q 1.7554345,0.8560983 1.7554345,2.2569873 0,1.080932 -0.8215088,1.746787 -0.8128613,0.657207 -1.8246142,0.657207 -0.7263866,0 -1.6603124,-0.259424 -0.2853662,-0.08647 -0.4669628,-0.08647 -0.1988916,0 -0.3113086,0.224834 H 0.89933589 v -2.82772 H 1.1847021 q 0.2421289,1.210644 0.9252783,1.824614 0.6831493,0.61397 1.5306005,0.61397 0.5966747,0 0.9685155,-0.345899 0.3804883,-0.354546 0.3804883,-0.847451 0,-0.596675 -0.4237256,-1.003105 Q 4.150781,11.091163 2.8968993,10.468546 1.6430175,9.8459289 1.2538818,9.3443762 0.86474605,8.8514709 0.86474605,8.0991418 q 0,-0.977163 0.66585445,-1.63437 0.6745019,-0.657207 1.7381396,-0.657207 0.4669628,0 1.1328173,0.1988916 0.4410205,0.1297119 0.5880273,0.1297119 0.1383594,0 0.2161865,-0.060532 0.077827,-0.060532 0.1815967,-0.2680713 z"
           id="path345" />
      </g>
    </g>
  </g>
  <g
     transform="matrix(2,0,0,2,64.968745,327.9375)"
     id="g6510">
    <g
       id="g6508">
      <g
         aria-label="i"
         id="text6506"
         style="font-size:17.71px;font-family:Symbola, 'Times New Roman', serif;fill-opacity:0.9">
        <path
           d="m 2.5682958,1.6654312 q 0.3631933,0 0.6139697,0.2594239 0.2594238,0.2507763 0.2594238,0.6139696 0,0.3631934 -0.2594238,0.6226172 -0.2507764,0.2594238 -0.6139697,0.2594238 -0.3631934,0 -0.6226172,-0.2594238 -0.2594238,-0.2594238 -0.2594238,-0.6226172 0,-0.3631933 0.2507763,-0.6139696 Q 2.196455,1.6654312 2.5682958,1.6654312 Z M 3.286035,5.8075648 v 6.3645312 q 0,0.743681 0.1037695,0.994458 0.112417,0.242129 0.3199561,0.363193 0.2161865,0.121064 0.7782714,0.121064 V 13.96212 H 0.63991208 v -0.311309 q 0.57937982,0 0.77827142,-0.112417 0.1988916,-0.112416 0.3113086,-0.37184 0.1210644,-0.259424 0.1210644,-0.994458 V 9.1195422 q 0,-1.2884716 -0.077827,-1.6689599 Q 1.7121972,7.1738636 1.5824853,7.070094 1.4527734,6.9576771 1.2279394,6.9576771 q -0.2421289,0 -0.58802732,0.1297119 L 0.51884763,6.7760804 2.9055467,5.8075648 Z"
           id="path342" />
      </g>
    </g>
  </g>
  <g
     transform="matrix(2,0,0,2,74.812495,327.9375)"
     id="g6516">
    <g
       id="g6514">
      <g
         aria-label="n"
         id="text6512"
         style="font-size:17.71px;font-family:Symbola, 'Times New Roman', serif;fill-opacity:0.9">
        <path
           d="m 2.8623094,7.4851721 q 1.3922412,-1.6776073 2.6547704,-1.6776073 0.6485595,0 1.1155224,0.3286035 0.4669629,0.3199561 0.7436816,1.0636377 0.1902441,0.5188476 0.1902441,1.5911327 v 3.3811573 q 0,0.752329 0.1210645,1.0204 0.095122,0.216187 0.3026611,0.337251 0.2161865,0.121064 0.7869189,0.121064 V 13.96212 H 4.8598728 v -0.311309 h 0.1643017 q 0.5534375,0 0.769624,-0.164301 0.224834,-0.172949 0.3113086,-0.501553 0.03459,-0.129712 0.03459,-0.812861 V 8.9292981 q 0,-1.0809326 -0.2853661,-1.5651904 Q 5.577612,6.8712025 4.9117576,6.8712025 q -1.0290478,0 -2.0494482,1.1241698 v 4.1767237 q 0,0.804214 0.095122,0.994458 0.1210644,0.250776 0.3286035,0.37184 0.2161865,0.112417 0.864746,0.112417 V 13.96212 H 0.23348143 v -0.311309 h 0.17294921 q 0.60532226,0 0.81286126,-0.302661 0.2161865,-0.311308 0.2161865,-1.176054 V 9.2319592 q 0,-1.426831 -0.06918,-1.7381396 Q 1.3057665,7.182511 1.1674072,7.070094 1.0376953,6.9576771 0.81286129,6.9576771 q -0.2421289,0 -0.57937986,0.1297119 L 0.10376953,6.7760804 2.4904686,5.8075648 h 0.3718408 z"
           id="path339" />
      </g>
    </g>
  </g>
  <g
     transform="matrix(2,0,0,2,99.59375,323.9375)"
     id="g6522">
    <g
       id="g6520">
      <g
         aria-label="θ"
         id="text6518"
         style="font-style:italic;font-size:17.71px;font-family:'Times New Roman', Symbola, serif;fill-opacity:0.9">
        <path
           d="m 6.5807174,3.6654312 q 2.403994,0 2.403994,3.2946825 0,1.9889159 -0.977163,4.4102053 -0.9685156,2.412641 -2.2223973,3.605991 -1.2452343,1.193349 -2.5682958,1.193349 -1.0809326,0 -1.7640819,-0.916631 -0.67450196,-0.925278 -0.67450196,-2.300224 0,-0.882041 0.38913576,-2.438584 Q 1.5565429,8.9576771 2.3348143,7.3751918 3.1130858,5.7840591 4.2804929,4.7290689 5.4565476,3.6654312 6.5807174,3.6654312 Z M 7.11686,9.5457044 q 0.5793798,-1.8246142 0.5793798,-3.5454588 0,-1.971621 -1.1155224,-1.971621 -0.977163,0 -1.9197362,1.4787157 Q 3.718408,6.9774086 2.9314891,9.5457044 Z M 2.7671874,10.03861 q -0.7955664,2.481821 -0.7955664,3.804882 0,0.864746 0.3545459,1.418184 0.3545459,0.54479 1.0549902,0.54479 0.5793798,0 1.08958,-0.458316 Q 4.9809372,14.881187 5.6640866,13.463004 6.347236,12.04482 6.9525582,10.03861 Z"
           id="path336" />
      </g>
    </g>
  </g>
  <g
     transform="matrix(2,0,0,2,558.26562,325.9375)"
     id="g6532">
    <g
       id="g6530">
      <g
         aria-label="1"
         id="text6528"
         style="font-size:15.4px;font-family:arial, sans-serif;fill:none;stroke:#ffffff;stroke-width:3;stroke-linecap:round;stroke-linejoin:round;stroke-miterlimit:2;stroke-opacity:0.9">
        <path
           d="M 5.7374022,13.4888 H 4.3838866 V 4.8638979 Q 3.8951171,5.3301088 3.0980468,5.7963198 2.308496,6.2625307 1.6768554,6.4956362 V 5.1872378 Q 2.8123046,4.653351 3.6620116,3.8938784 4.5117186,3.1344058 4.8651366,2.4200503 h 0.8722656 z"
           id="path333" />
      </g>
    </g>
  </g>
  <g
     transform="matrix(2,0,0,2,558.26562,325.9375)"
     id="g6538">
    <g
       id="g6536">
      <g
         aria-label="1"
         id="text6534"
         style="font-size:15.4px;font-family:arial, sans-serif;fill-opacity:0.9">
        <path
           d="M 5.7374022,13.4888 H 4.3838866 V 4.8638979 Q 3.8951171,5.3301088 3.0980468,5.7963198 2.308496,6.2625307 1.6768554,6.4956362 V 5.1872378 Q 2.8123046,4.653351 3.6620116,3.8938784 4.5117186,3.1344058 4.8651366,2.4200503 h 0.8722656 z"
           id="path330" />
      </g>
    </g>
  </g>
  <g
     transform="matrix(2,0,0,2,484.12501,178.0625)"
     id="g6548">
    <g
       id="g6546">
      <g
         aria-label="1"
         id="text6544"
         style="font-size:15.4px;font-family:arial, sans-serif;fill:none;stroke:#ffffff;stroke-width:3;stroke-linecap:round;stroke-linejoin:round;stroke-miterlimit:2;stroke-opacity:0.9">
        <path
           d="M 5.7374022,13.4888 H 4.3838866 V 4.8638979 Q 3.8951171,5.3301088 3.0980468,5.7963198 2.308496,6.2625307 1.6768554,6.4956362 V 5.1872378 Q 2.8123046,4.653351 3.6620116,3.8938784 4.5117186,3.1344058 4.8651366,2.4200503 h 0.8722656 z"
           id="path327" />
      </g>
    </g>
  </g>
  <g
     transform="matrix(2,0,0,2,484.12501,178.0625)"
     id="g6554">
    <g
       id="g6552">
      <g
         aria-label="1"
         id="text6550"
         style="font-size:15.4px;font-family:arial, sans-serif;fill-opacity:0.9">
        <path
           d="M 5.7374022,13.4888 H 4.3838866 V 4.8638979 Q 3.8951171,5.3301088 3.0980468,5.7963198 2.308496,6.2625307 1.6768554,6.4956362 V 5.1872378 Q 2.8123046,4.653351 3.6620116,3.8938784 4.5117186,3.1344058 4.8651366,2.4200503 h 0.8722656 z"
           id="path324" />
      </g>
    </g>
  </g>
  <g
     transform="matrix(0,2,-2,0,660.52162,197.12875)"
     id="g6570">
    <g
       id="g6568">
      <g
         aria-label="s"
         id="text6566"
         style="font-size:17.71px;font-family:Symbola, 'Times New Roman', serif;fill:none;stroke:#ffffff;stroke-width:3;stroke-linecap:round;stroke-linejoin:round;stroke-miterlimit:2;stroke-opacity:0.9">
        <path
           d="M 5.6727341,5.8075648 V 8.5055725 H 5.3873679 Q 5.0587644,7.2343958 4.5399168,6.7760804 4.0297166,6.317765 3.2341502,6.317765 q -0.6053222,0 -0.977163,0.319956 -0.3718408,0.3199561 -0.3718408,0.7090918 0,0.4842578 0.2767187,0.8301562 0.2680713,0.3545459 1.08958,0.7523291 l 1.2625293,0.6139696 q 1.7554345,0.8560983 1.7554345,2.2569873 0,1.080932 -0.8215088,1.746787 -0.8128613,0.657207 -1.8246142,0.657207 -0.7263866,0 -1.6603124,-0.259424 -0.2853662,-0.08647 -0.4669628,-0.08647 -0.1988916,0 -0.3113086,0.224834 H 0.89933589 v -2.82772 H 1.1847021 q 0.2421289,1.210644 0.9252783,1.824614 0.6831493,0.61397 1.5306005,0.61397 0.5966747,0 0.9685155,-0.345899 0.3804883,-0.354546 0.3804883,-0.847451 0,-0.596675 -0.4237256,-1.003105 Q 4.150781,11.091163 2.8968993,10.468546 1.6430175,9.8459289 1.2538818,9.3443762 0.86474605,8.8514709 0.86474605,8.0991418 q 0,-0.977163 0.66585445,-1.63437 0.6745019,-0.657207 1.7381396,-0.657207 0.4669628,0 1.1328173,0.1988916 0.4410205,0.1297119 0.5880273,0.1297119 0.1383594,0 0.2161865,-0.060532 0.077827,-0.060532 0.1815967,-0.2680713 z"
           id="path321" />
      </g>
    </g>
  </g>
  <g
     transform="matrix(0,2,-2,0,660.52162,210.91)"
     id="g6576">
    <g
       id="g6574">
      <g
         aria-label="i"
         id="text6572"
         style="font-size:17.71px;font-family:Symbola, 'Times New Roman', serif;fill:none;stroke:#ffffff;stroke-width:3;stroke-linecap:round;stroke-linejoin:round;stroke-miterlimit:2;stroke-opacity:0.9">
        <path
           d="m 2.5682958,1.6654312 q 0.3631933,0 0.6139697,0.2594239 0.2594238,0.2507763 0.2594238,0.6139696 0,0.3631934 -0.2594238,0.6226172 -0.2507764,0.2594238 -0.6139697,0.2594238 -0.3631934,0 -0.6226172,-0.2594238 -0.2594238,-0.2594238 -0.2594238,-0.6226172 0,-0.3631933 0.2507763,-0.6139696 Q 2.196455,1.6654312 2.5682958,1.6654312 Z M 3.286035,5.8075648 v 6.3645312 q 0,0.743681 0.1037695,0.994458 0.112417,0.242129 0.3199561,0.363193 0.2161865,0.121064 0.7782714,0.121064 V 13.96212 H 0.63991208 v -0.311309 q 0.57937982,0 0.77827142,-0.112417 0.1988916,-0.112416 0.3113086,-0.37184 0.1210644,-0.259424 0.1210644,-0.994458 V 9.1195422 q 0,-1.2884716 -0.077827,-1.6689599 Q 1.7121972,7.1738636 1.5824853,7.070094 1.4527734,6.9576771 1.2279394,6.9576771 q -0.2421289,0 -0.58802732,0.1297119 L 0.51884763,6.7760804 2.9055467,5.8075648 Z"
           id="path318" />
      </g>
    </g>
  </g>
  <g
     transform="matrix(0,2,-2,0,660.52162,220.75375)"
     id="g6582">
    <g
       id="g6580">
      <g
         aria-label="n"
         id="text6578"
         style="font-size:17.71px;font-family:Symbola, 'Times New Roman', serif;fill:none;stroke:#ffffff;stroke-width:3;stroke-linecap:round;stroke-linejoin:round;stroke-miterlimit:2;stroke-opacity:0.9">
        <path
           d="m 2.8623094,7.4851721 q 1.3922412,-1.6776073 2.6547704,-1.6776073 0.6485595,0 1.1155224,0.3286035 0.4669629,0.3199561 0.7436816,1.0636377 0.1902441,0.5188476 0.1902441,1.5911327 v 3.3811573 q 0,0.752329 0.1210645,1.0204 0.095122,0.216187 0.3026611,0.337251 0.2161865,0.121064 0.7869189,0.121064 V 13.96212 H 4.8598728 v -0.311309 h 0.1643017 q 0.5534375,0 0.769624,-0.164301 0.224834,-0.172949 0.3113086,-0.501553 0.03459,-0.129712 0.03459,-0.812861 V 8.9292981 q 0,-1.0809326 -0.2853661,-1.5651904 Q 5.577612,6.8712025 4.9117576,6.8712025 q -1.0290478,0 -2.0494482,1.1241698 v 4.1767237 q 0,0.804214 0.095122,0.994458 0.1210644,0.250776 0.3286035,0.37184 0.2161865,0.112417 0.864746,0.112417 V 13.96212 H 0.23348143 v -0.311309 h 0.17294921 q 0.60532226,0 0.81286126,-0.302661 0.2161865,-0.311308 0.2161865,-1.176054 V 9.2319592 q 0,-1.426831 -0.06918,-1.7381396 Q 1.3057665,7.182511 1.1674072,7.070094 1.0376953,6.9576771 0.81286129,6.9576771 q -0.2421289,0 -0.57937986,0.1297119 L 0.10376953,6.7760804 2.4904686,5.8075648 h 0.3718408 z"
           id="path315" />
      </g>
    </g>
  </g>
  <g
     transform="matrix(0,2,-2,0,660.52162,245.8475)"
     id="g6588">
    <g
       id="g6586">
      <g
         aria-label="2"
         id="text6584"
         style="font-size:17.71px;font-family:Symbola, 'Times New Roman', serif;fill:none;stroke:#ffffff;stroke-width:3;stroke-linecap:round;stroke-linejoin:round;stroke-miterlimit:2;stroke-opacity:0.9">
        <path
           d="M 8.1199654,11.705133 7.2984567,13.96212 H 0.38048826 V 13.642164 Q 3.4330418,10.857682 4.6782761,9.0935998 5.9235104,7.3295179 5.9235104,5.868097 q 0,-1.1155224 -0.6831493,-1.8332616 Q 4.5572117,3.3170962 3.605991,3.3170962 q -0.864746,0 -1.5565429,0.5102002 Q 1.3662988,4.3288491 1.0376953,5.3060121 H 0.71773922 Q 0.93392573,3.7062319 1.8246142,2.8501333 2.7239501,1.9940347 4.0643064,1.9940347 q 1.426831,0 2.3780517,0.9166308 0.9598681,0.9166309 0.9598681,2.1618652 0,0.8906884 -0.4150781,1.7813768 Q 6.347236,8.2547961 4.9117576,9.8199865 2.7585399,12.172096 2.2223973,12.656354 h 3.0612011 q 0.9339257,0 1.3057665,-0.06918 0.3804883,-0.06918 0.6831494,-0.276719 0.3026611,-0.216186 0.5274951,-0.605322 z"
           id="path312" />
      </g>
    </g>
  </g>
  <g
     transform="matrix(0,2,-2,0,664.52162,264.19125)"
     id="g6594">
    <g
       id="g6592">
      <g
         aria-label="θ"
         id="text6590"
         style="font-style:italic;font-size:17.71px;font-family:'Times New Roman', Symbola, serif;fill:none;stroke:#ffffff;stroke-width:3;stroke-linecap:round;stroke-linejoin:round;stroke-miterlimit:2;stroke-opacity:0.9">
        <path
           d="m 6.5807174,3.6654312 q 2.403994,0 2.403994,3.2946825 0,1.9889159 -0.977163,4.4102053 -0.9685156,2.412641 -2.2223973,3.605991 -1.2452343,1.193349 -2.5682958,1.193349 -1.0809326,0 -1.7640819,-0.916631 -0.67450196,-0.925278 -0.67450196,-2.300224 0,-0.882041 0.38913576,-2.438584 Q 1.5565429,8.9576771 2.3348143,7.3751918 3.1130858,5.7840591 4.2804929,4.7290689 5.4565476,3.6654312 6.5807174,3.6654312 Z M 7.11686,9.5457044 q 0.5793798,-1.8246142 0.5793798,-3.5454588 0,-1.971621 -1.1155224,-1.971621 -0.977163,0 -1.9197362,1.4787157 Q 3.718408,6.9774086 2.9314891,9.5457044 Z M 2.7671874,10.03861 q -0.7955664,2.481821 -0.7955664,3.804882 0,0.864746 0.3545459,1.418184 0.3545459,0.54479 1.0549902,0.54479 0.5793798,0 1.08958,-0.458316 Q 4.9809372,14.881187 5.6640866,13.463004 6.347236,12.04482 6.9525582,10.03861 Z"
           id="path309" />
      </g>
    </g>
  </g>
  <g
     transform="matrix(0,2,-2,0,660.52162,197.12875)"
     id="g6606">
    <g
       id="g6604">
      <g
         aria-label="s"
         id="text6602"
         style="font-size:17.71px;font-family:Symbola, 'Times New Roman', serif;fill-opacity:0.9">
        <path
           d="M 5.6727341,5.8075648 V 8.5055725 H 5.3873679 Q 5.0587644,7.2343958 4.5399168,6.7760804 4.0297166,6.317765 3.2341502,6.317765 q -0.6053222,0 -0.977163,0.319956 -0.3718408,0.3199561 -0.3718408,0.7090918 0,0.4842578 0.2767187,0.8301562 0.2680713,0.3545459 1.08958,0.7523291 l 1.2625293,0.6139696 q 1.7554345,0.8560983 1.7554345,2.2569873 0,1.080932 -0.8215088,1.746787 -0.8128613,0.657207 -1.8246142,0.657207 -0.7263866,0 -1.6603124,-0.259424 -0.2853662,-0.08647 -0.4669628,-0.08647 -0.1988916,0 -0.3113086,0.224834 H 0.89933589 v -2.82772 H 1.1847021 q 0.2421289,1.210644 0.9252783,1.824614 0.6831493,0.61397 1.5306005,0.61397 0.5966747,0 0.9685155,-0.345899 0.3804883,-0.354546 0.3804883,-0.847451 0,-0.596675 -0.4237256,-1.003105 Q 4.150781,11.091163 2.8968993,10.468546 1.6430175,9.8459289 1.2538818,9.3443762 0.86474605,8.8514709 0.86474605,8.0991418 q 0,-0.977163 0.66585445,-1.63437 0.6745019,-0.657207 1.7381396,-0.657207 0.4669628,0 1.1328173,0.1988916 0.4410205,0.1297119 0.5880273,0.1297119 0.1383594,0 0.2161865,-0.060532 0.077827,-0.060532 0.1815967,-0.2680713 z"
           id="path306" />
      </g>
    </g>
  </g>
  <g
     transform="matrix(0,2,-2,0,660.52162,210.91)"
     id="g6612">
    <g
       id="g6610">
      <g
         aria-label="i"
         id="text6608"
         style="font-size:17.71px;font-family:Symbola, 'Times New Roman', serif;fill-opacity:0.9">
        <path
           d="m 2.5682958,1.6654312 q 0.3631933,0 0.6139697,0.2594239 0.2594238,0.2507763 0.2594238,0.6139696 0,0.3631934 -0.2594238,0.6226172 -0.2507764,0.2594238 -0.6139697,0.2594238 -0.3631934,0 -0.6226172,-0.2594238 -0.2594238,-0.2594238 -0.2594238,-0.6226172 0,-0.3631933 0.2507763,-0.6139696 Q 2.196455,1.6654312 2.5682958,1.6654312 Z M 3.286035,5.8075648 v 6.3645312 q 0,0.743681 0.1037695,0.994458 0.112417,0.242129 0.3199561,0.363193 0.2161865,0.121064 0.7782714,0.121064 V 13.96212 H 0.63991208 v -0.311309 q 0.57937982,0 0.77827142,-0.112417 0.1988916,-0.112416 0.3113086,-0.37184 0.1210644,-0.259424 0.1210644,-0.994458 V 9.1195422 q 0,-1.2884716 -0.077827,-1.6689599 Q 1.7121972,7.1738636 1.5824853,7.070094 1.4527734,6.9576771 1.2279394,6.9576771 q -0.2421289,0 -0.58802732,0.1297119 L 0.51884763,6.7760804 2.9055467,5.8075648 Z"
           id="path303" />
      </g>
    </g>
  </g>
  <g
     transform="matrix(0,2,-2,0,660.52162,220.75375)"
     id="g6618">
    <g
       id="g6616">
      <g
         aria-label="n"
         id="text6614"
         style="font-size:17.71px;font-family:Symbola, 'Times New Roman', serif;fill-opacity:0.9">
        <path
           d="m 2.8623094,7.4851721 q 1.3922412,-1.6776073 2.6547704,-1.6776073 0.6485595,0 1.1155224,0.3286035 0.4669629,0.3199561 0.7436816,1.0636377 0.1902441,0.5188476 0.1902441,1.5911327 v 3.3811573 q 0,0.752329 0.1210645,1.0204 0.095122,0.216187 0.3026611,0.337251 0.2161865,0.121064 0.7869189,0.121064 V 13.96212 H 4.8598728 v -0.311309 h 0.1643017 q 0.5534375,0 0.769624,-0.164301 0.224834,-0.172949 0.3113086,-0.501553 0.03459,-0.129712 0.03459,-0.812861 V 8.9292981 q 0,-1.0809326 -0.2853661,-1.5651904 Q 5.577612,6.8712025 4.9117576,6.8712025 q -1.0290478,0 -2.0494482,1.1241698 v 4.1767237 q 0,0.804214 0.095122,0.994458 0.1210644,0.250776 0.3286035,0.37184 0.2161865,0.112417 0.864746,0.112417 V 13.96212 H 0.23348143 v -0.311309 h 0.17294921 q 0.60532226,0 0.81286126,-0.302661 0.2161865,-0.311308 0.2161865,-1.176054 V 9.2319592 q 0,-1.426831 -0.06918,-1.7381396 Q 1.3057665,7.182511 1.1674072,7.070094 1.0376953,6.9576771 0.81286129,6.9576771 q -0.2421289,0 -0.57937986,0.1297119 L 0.10376953,6.7760804 2.4904686,5.8075648 h 0.3718408 z"
           id="path300" />
      </g>
    </g>
  </g>
  <g
     transform="matrix(0,2,-2,0,660.52162,245.8475)"
     id="g6624">
    <g
       id="g6622">
      <g
         aria-label="2"
         id="text6620"
         style="font-size:17.71px;font-family:Symbola, 'Times New Roman', serif;fill-opacity:0.9">
        <path
           d="M 8.1199654,11.705133 7.2984567,13.96212 H 0.38048826 V 13.642164 Q 3.4330418,10.857682 4.6782761,9.0935998 5.9235104,7.3295179 5.9235104,5.868097 q 0,-1.1155224 -0.6831493,-1.8332616 Q 4.5572117,3.3170962 3.605991,3.3170962 q -0.864746,0 -1.5565429,0.5102002 Q 1.3662988,4.3288491 1.0376953,5.3060121 H 0.71773922 Q 0.93392573,3.7062319 1.8246142,2.8501333 2.7239501,1.9940347 4.0643064,1.9940347 q 1.426831,0 2.3780517,0.9166308 0.9598681,0.9166309 0.9598681,2.1618652 0,0.8906884 -0.4150781,1.7813768 Q 6.347236,8.2547961 4.9117576,9.8199865 2.7585399,12.172096 2.2223973,12.656354 h 3.0612011 q 0.9339257,0 1.3057665,-0.06918 0.3804883,-0.06918 0.6831494,-0.276719 0.3026611,-0.216186 0.5274951,-0.605322 z"
           id="path297" />
      </g>
    </g>
  </g>
  <g
     transform="matrix(0,2,-2,0,664.52162,264.19125)"
     id="g6630">
    <g
       id="g6628">
      <g
         aria-label="θ"
         id="text6626"
         style="font-style:italic;font-size:17.71px;font-family:'Times New Roman', Symbola, serif;fill-opacity:0.9">
        <path
           d="m 6.5807174,3.6654312 q 2.403994,0 2.403994,3.2946825 0,1.9889159 -0.977163,4.4102053 -0.9685156,2.412641 -2.2223973,3.605991 -1.2452343,1.193349 -2.5682958,1.193349 -1.0809326,0 -1.7640819,-0.916631 -0.67450196,-0.925278 -0.67450196,-2.300224 0,-0.882041 0.38913576,-2.438584 Q 1.5565429,8.9576771 2.3348143,7.3751918 3.1130858,5.7840591 4.2804929,4.7290689 5.4565476,3.6654312 6.5807174,3.6654312 Z M 7.11686,9.5457044 q 0.5793798,-1.8246142 0.5793798,-3.5454588 0,-1.971621 -1.1155224,-1.971621 -0.977163,0 -1.9197362,1.4787157 Q 3.718408,6.9774086 2.9314891,9.5457044 Z M 2.7671874,10.03861 q -0.7955664,2.481821 -0.7955664,3.804882 0,0.864746 0.3545459,1.418184 0.3545459,0.54479 1.0549902,0.54479 0.5793798,0 1.08958,-0.458316 Q 4.9809372,14.881187 5.6640866,13.463004 6.347236,12.04482 6.9525582,10.03861 Z"
           id="path294" />
      </g>
    </g>
  </g>
  <g
     transform="matrix(2,0,0,2,165.375,79.375)"
     id="g6646">
    <g
       id="g6644">
      <g
         aria-label="θ"
         id="text6642"
         style="font-style:italic;font-size:17.71px;font-family:'Times New Roman', Symbola, serif;fill:none;stroke:#ffffff;stroke-width:3;stroke-linecap:round;stroke-linejoin:round;stroke-miterlimit:2;stroke-opacity:0.9">
        <path
           d="m 6.5807174,3.6654312 q 2.403994,0 2.403994,3.2946825 0,1.9889159 -0.977163,4.4102053 -0.9685156,2.412641 -2.2223973,3.605991 -1.2452343,1.193349 -2.5682958,1.193349 -1.0809326,0 -1.7640819,-0.916631 -0.67450196,-0.925278 -0.67450196,-2.300224 0,-0.882041 0.38913576,-2.438584 Q 1.5565429,8.9576771 2.3348143,7.3751918 3.1130858,5.7840591 4.2804929,4.7290689 5.4565476,3.6654312 6.5807174,3.6654312 Z M 7.11686,9.5457044 q 0.5793798,-1.8246142 0.5793798,-3.5454588 0,-1.971621 -1.1155224,-1.971621 -0.977163,0 -1.9197362,1.4787157 Q 3.718408,6.9774086 2.9314891,9.5457044 Z M 2.7671874,10.03861 q -0.7955664,2.481821 -0.7955664,3.804882 0,0.864746 0.3545459,1.418184 0.3545459,0.54479 1.0549902,0.54479 0.5793798,0 1.08958,-0.458316 Q 4.9809372,14.881187 5.6640866,13.463004 6.347236,12.04482 6.9525582,10.03861 Z"
           id="path291" />
      </g>
    </g>
  </g>
  <g
     transform="matrix(2,0,0,2,165.375,79.375)"
     id="g6658">
    <g
       id="g6656">
      <g
         aria-label="θ"
         id="text6654"
         style="font-style:italic;font-size:17.71px;font-family:'Times New Roman', Symbola, serif;fill-opacity:0.9">
        <path
           d="m 6.5807174,3.6654312 q 2.403994,0 2.403994,3.2946825 0,1.9889159 -0.977163,4.4102053 -0.9685156,2.412641 -2.2223973,3.605991 -1.2452343,1.193349 -2.5682958,1.193349 -1.0809326,0 -1.7640819,-0.916631 -0.67450196,-0.925278 -0.67450196,-2.300224 0,-0.882041 0.38913576,-2.438584 Q 1.5565429,8.9576771 2.3348143,7.3751918 3.1130858,5.7840591 4.2804929,4.7290689 5.4565476,3.6654312 6.5807174,3.6654312 Z M 7.11686,9.5457044 q 0.5793798,-1.8246142 0.5793798,-3.5454588 0,-1.971621 -1.1155224,-1.971621 -0.977163,0 -1.9197362,1.4787157 Q 3.718408,6.9774086 2.9314891,9.5457044 Z M 2.7671874,10.03861 q -0.7955664,2.481821 -0.7955664,3.804882 0,0.864746 0.3545459,1.418184 0.3545459,0.54479 1.0549902,0.54479 0.5793798,0 1.08958,-0.458316 Q 4.9809372,14.881187 5.6640866,13.463004 6.347236,12.04482 6.9525582,10.03861 Z"
           id="path288" />
      </g>
    </g>
  </g>
  <g
     transform="matrix(2,0,0,2,115.84375,96.12499)"
     id="g6674">
    <g
       id="g6672">
      <g
         aria-label="θ"
         id="text6670"
         style="font-style:italic;font-size:17.71px;font-family:'Times New Roman', Symbola, serif;fill:none;stroke:#ffffff;stroke-width:3;stroke-linecap:round;stroke-linejoin:round;stroke-miterlimit:2;stroke-opacity:0.9">
        <path
           d="m 6.5807174,3.6654312 q 2.403994,0 2.403994,3.2946825 0,1.9889159 -0.977163,4.4102053 -0.9685156,2.412641 -2.2223973,3.605991 -1.2452343,1.193349 -2.5682958,1.193349 -1.0809326,0 -1.7640819,-0.916631 -0.67450196,-0.925278 -0.67450196,-2.300224 0,-0.882041 0.38913576,-2.438584 Q 1.5565429,8.9576771 2.3348143,7.3751918 3.1130858,5.7840591 4.2804929,4.7290689 5.4565476,3.6654312 6.5807174,3.6654312 Z M 7.11686,9.5457044 q 0.5793798,-1.8246142 0.5793798,-3.5454588 0,-1.971621 -1.1155224,-1.971621 -0.977163,0 -1.9197362,1.4787157 Q 3.718408,6.9774086 2.9314891,9.5457044 Z M 2.7671874,10.03861 q -0.7955664,2.481821 -0.7955664,3.804882 0,0.864746 0.3545459,1.418184 0.3545459,0.54479 1.0549902,0.54479 0.5793798,0 1.08958,-0.458316 Q 4.9809372,14.881187 5.6640866,13.463004 6.347236,12.04482 6.9525582,10.03861 Z"
           id="path285" />
      </g>
    </g>
  </g>
  <g
     transform="matrix(2,0,0,2,115.84375,96.12499)"
     id="g6686">
    <g
       id="g6684">
      <g
         aria-label="θ"
         id="text6682"
         style="font-style:italic;font-size:17.71px;font-family:'Times New Roman', Symbola, serif;fill-opacity:0.9">
        <path
           d="m 6.5807174,3.6654312 q 2.403994,0 2.403994,3.2946825 0,1.9889159 -0.977163,4.4102053 -0.9685156,2.412641 -2.2223973,3.605991 -1.2452343,1.193349 -2.5682958,1.193349 -1.0809326,0 -1.7640819,-0.916631 -0.67450196,-0.925278 -0.67450196,-2.300224 0,-0.882041 0.38913576,-2.438584 Q 1.5565429,8.9576771 2.3348143,7.3751918 3.1130858,5.7840591 4.2804929,4.7290689 5.4565476,3.6654312 6.5807174,3.6654312 Z M 7.11686,9.5457044 q 0.5793798,-1.8246142 0.5793798,-3.5454588 0,-1.971621 -1.1155224,-1.971621 -0.977163,0 -1.9197362,1.4787157 Q 3.718408,6.9774086 2.9314891,9.5457044 Z M 2.7671874,10.03861 q -0.7955664,2.481821 -0.7955664,3.804882 0,0.864746 0.3545459,1.418184 0.3545459,0.54479 1.0549902,0.54479 0.5793798,0 1.08958,-0.458316 Q 4.9809372,14.881187 5.6640866,13.463004 6.347236,12.04482 6.9525582,10.03861 Z"
           id="path282" />
      </g>
    </g>
  </g>
  <g
     transform="matrix(2,0,0,2,446.49999,273.12501)"
     id="g6702">
    <g
       id="g6700">
      <g
         aria-label="2"
         id="text6698"
         style="font-size:17.71px;font-family:Symbola, 'Times New Roman', serif;fill:none;stroke:#ffffff;stroke-width:3;stroke-linecap:round;stroke-linejoin:round;stroke-miterlimit:2;stroke-opacity:0.9">
        <path
           d="M 8.1199654,11.705133 7.2984567,13.96212 H 0.38048826 V 13.642164 Q 3.4330418,10.857682 4.6782761,9.0935998 5.9235104,7.3295179 5.9235104,5.868097 q 0,-1.1155224 -0.6831493,-1.8332616 Q 4.5572117,3.3170962 3.605991,3.3170962 q -0.864746,0 -1.5565429,0.5102002 Q 1.3662988,4.3288491 1.0376953,5.3060121 H 0.71773922 Q 0.93392573,3.7062319 1.8246142,2.8501333 2.7239501,1.9940347 4.0643064,1.9940347 q 1.426831,0 2.3780517,0.9166308 0.9598681,0.9166309 0.9598681,2.1618652 0,0.8906884 -0.4150781,1.7813768 Q 6.347236,8.2547961 4.9117576,9.8199865 2.7585399,12.172096 2.2223973,12.656354 h 3.0612011 q 0.9339257,0 1.3057665,-0.06918 0.3804883,-0.06918 0.6831494,-0.276719 0.3026611,-0.216186 0.5274951,-0.605322 z"
           id="path279" />
      </g>
    </g>
  </g>
  <g
     transform="matrix(2,0,0,2,464.84374,269.12501)"
     id="g6708">
    <g
       id="g6706">
      <g
         aria-label="θ"
         id="text6704"
         style="font-style:italic;font-size:17.71px;font-family:'Times New Roman', Symbola, serif;fill:none;stroke:#ffffff;stroke-width:3;stroke-linecap:round;stroke-linejoin:round;stroke-miterlimit:2;stroke-opacity:0.9">
        <path
           d="m 6.5807174,3.6654312 q 2.403994,0 2.403994,3.2946825 0,1.9889159 -0.977163,4.4102053 -0.9685156,2.412641 -2.2223973,3.605991 -1.2452343,1.193349 -2.5682958,1.193349 -1.0809326,0 -1.7640819,-0.916631 -0.67450196,-0.925278 -0.67450196,-2.300224 0,-0.882041 0.38913576,-2.438584 Q 1.5565429,8.9576771 2.3348143,7.3751918 3.1130858,5.7840591 4.2804929,4.7290689 5.4565476,3.6654312 6.5807174,3.6654312 Z M 7.11686,9.5457044 q 0.5793798,-1.8246142 0.5793798,-3.5454588 0,-1.971621 -1.1155224,-1.971621 -0.977163,0 -1.9197362,1.4787157 Q 3.718408,6.9774086 2.9314891,9.5457044 Z M 2.7671874,10.03861 q -0.7955664,2.481821 -0.7955664,3.804882 0,0.864746 0.3545459,1.418184 0.3545459,0.54479 1.0549902,0.54479 0.5793798,0 1.08958,-0.458316 Q 4.9809372,14.881187 5.6640866,13.463004 6.347236,12.04482 6.9525582,10.03861 Z"
           id="path276" />
      </g>
    </g>
  </g>
  <g
     transform="matrix(2,0,0,2,446.49999,273.12501)"
     id="g6720">
    <g
       id="g6718">
      <g
         aria-label="2"
         id="text6716"
         style="font-size:17.71px;font-family:Symbola, 'Times New Roman', serif;fill-opacity:0.9">
        <path
           d="M 8.1199654,11.705133 7.2984567,13.96212 H 0.38048826 V 13.642164 Q 3.4330418,10.857682 4.6782761,9.0935998 5.9235104,7.3295179 5.9235104,5.868097 q 0,-1.1155224 -0.6831493,-1.8332616 Q 4.5572117,3.3170962 3.605991,3.3170962 q -0.864746,0 -1.5565429,0.5102002 Q 1.3662988,4.3288491 1.0376953,5.3060121 H 0.71773922 Q 0.93392573,3.7062319 1.8246142,2.8501333 2.7239501,1.9940347 4.0643064,1.9940347 q 1.426831,0 2.3780517,0.9166308 0.9598681,0.9166309 0.9598681,2.1618652 0,0.8906884 -0.4150781,1.7813768 Q 6.347236,8.2547961 4.9117576,9.8199865 2.7585399,12.172096 2.2223973,12.656354 h 3.0612011 q 0.9339257,0 1.3057665,-0.06918 0.3804883,-0.06918 0.6831494,-0.276719 0.3026611,-0.216186 0.5274951,-0.605322 z"
           id="path273" />
      </g>
    </g>
  </g>
  <g
     transform="matrix(2,0,0,2,464.84374,269.12501)"
     id="g6726">
    <g
       id="g6724">
      <g
         aria-label="θ"
         id="text6722"
         style="font-style:italic;font-size:17.71px;font-family:'Times New Roman', Symbola, serif;fill-opacity:0.9">
        <path
           d="m 6.5807174,3.6654312 q 2.403994,0 2.403994,3.2946825 0,1.9889159 -0.977163,4.4102053 -0.9685156,2.412641 -2.2223973,3.605991 -1.2452343,1.193349 -2.5682958,1.193349 -1.0809326,0 -1.7640819,-0.916631 -0.67450196,-0.925278 -0.67450196,-2.300224 0,-0.882041 0.38913576,-2.438584 Q 1.5565429,8.9576771 2.3348143,7.3751918 3.1130858,5.7840591 4.2804929,4.7290689 5.4565476,3.6654312 6.5807174,3.6654312 Z M 7.11686,9.5457044 q 0.5793798,-1.8246142 0.5793798,-3.5454588 0,-1.971621 -1.1155224,-1.971621 -0.977163,0 -1.9197362,1.4787157 Q 3.718408,6.9774086 2.9314891,9.5457044 Z M 2.7671874,10.03861 q -0.7955664,2.481821 -0.7955664,3.804882 0,0.864746 0.3545459,1.418184 0.3545459,0.54479 1.0549902,0.54479 0.5793798,0 1.08958,-0.458316 Q 4.9809372,14.881187 5.6640866,13.463004 6.347236,12.04482 6.9525582,10.03861 Z"
           id="path270" />
      </g>
    </g>
  </g>
</svg>
