<?xml version="1.0" standalone="no"?>
<!DOCTYPE svg PUBLIC "-//W3C//DTD SVG 1.1//EN"
"http://www.w3.org/Graphics/SVG/1.1/DTD/svg11.dtd">
<!-- Creator: fig2dev Version 3.2 Patchlevel 5 -->
<!-- CreationDate: Thu Dec 13 18:20:55 2012 -->
<!-- Magnification: 1.000 -->
<svg xmlns="http://www.w3.org/2000/svg" width="9.4in" height="6.2in" viewBox="1167 3267 11224 7405">
<g style="stroke-width:.025in; stroke:black; fill:none">
<!-- Arc -->
<path style="stroke:#000000;stroke-width:15;stroke-linecap:butt;"
d="M 7350,7800 A 967 967  0  0  0  6900  6975 " />
<!-- Arc -->
<path style="stroke:#000000;stroke-width:15;stroke-linecap:butt;"
d="M 3750,9600 A 1325 1325  0  0  0  3600  8775 " />
<!-- Arc -->
<path style="stroke:#000000;stroke-width:15;stroke-linecap:butt;"
d="M 5250,9600 A 4092 4092  0  0  0  4425  7200 " />
<!-- Line -->
<polyline points="1200,9600
4200,5100
" style="stroke:#000000;stroke-width:30;
stroke-linejoin:miter; stroke-linecap:butt;
"/>
<!-- Line -->
<polyline points="4200,5100
9300,3300
" style="stroke:#000000;stroke-width:30;
stroke-linejoin:miter; stroke-linecap:butt;
"/>
<!-- Line -->
<polyline points="9300,3300
6300,7800
" style="stroke:#000000;stroke-width:30;
stroke-linejoin:miter; stroke-linecap:butt;
"/>
<!-- Line -->
<polyline points="1200,9600
10200,9600
" style="stroke:#000000;stroke-width:15;
stroke-linejoin:miter; stroke-linecap:butt;
stroke-dasharray:60 60;"/>
<!-- Line -->
<polyline points="1200,9600
6300,7800
" style="stroke:#000000;stroke-width:30;
stroke-linejoin:miter; stroke-linecap:butt;
"/>
<!-- Line -->
<polyline points="6300,7800
10200,7800
" style="stroke:#000000;stroke-width:15;
stroke-linejoin:miter; stroke-linecap:butt;
stroke-dasharray:60 60;"/>
<!-- Line -->
<polyline points="9300,3300
9300,9600
" style="stroke:#000000;stroke-width:15;
stroke-linejoin:miter; stroke-linecap:butt;
stroke-dasharray:60 60;"/>
<!-- Line -->
<polyline points="6300,7800
6300,9600
" style="stroke:#000000;stroke-width:15;
stroke-linejoin:miter; stroke-linecap:butt;
stroke-dasharray:60 60;"/>
<!-- Line -->
<polyline points="1200,9600
9300,3300
" style="stroke:#000000;stroke-width:15;
stroke-linejoin:miter; stroke-linecap:butt;
"/>
<!-- Line -->
<polyline points="9675,7875
9825,8025
" style="stroke:#000000;stroke-width:15;
stroke-linejoin:miter; stroke-linecap:butt;
"/>
<!-- Line -->
<polyline points="9675,7875
9525,8025
" style="stroke:#000000;stroke-width:15;
stroke-linejoin:miter; stroke-linecap:butt;
"/>
<!-- Line -->
<polyline points="9675,9000
9675,9525
" style="stroke:#000000;stroke-width:15;
stroke-linejoin:miter; stroke-linecap:butt;
"/>
<!-- Line -->
<polyline points="9675,9525
9825,9375
" style="stroke:#000000;stroke-width:15;
stroke-linejoin:miter; stroke-linecap:butt;
"/>
<!-- Line -->
<polyline points="9675,9525
9525,9375
" style="stroke:#000000;stroke-width:15;
stroke-linejoin:miter; stroke-linecap:butt;
"/>
<!-- Line -->
<polyline points="6900,6975
7125,6975
" style="stroke:#000000;stroke-width:15;
stroke-linejoin:miter; stroke-linecap:butt;
"/>
<!-- Line -->
<polyline points="6900,6975
6975,7200
" style="stroke:#000000;stroke-width:15;
stroke-linejoin:miter; stroke-linecap:butt;
"/>
<!-- Line -->
<polyline points="3600,8775
3825,8925
" style="stroke:#000000;stroke-width:15;
stroke-linejoin:miter; stroke-linecap:butt;
"/>
<!-- Line -->
<polyline points="3600,8775
3600,9075
" style="stroke:#000000;stroke-width:15;
stroke-linejoin:miter; stroke-linecap:butt;
"/>
<!-- Line -->
<polyline points="9675,5850
9675,7725
" style="stroke:#000000;stroke-width:15;
stroke-linejoin:miter; stroke-linecap:butt;
"/>
<!-- Line -->
<polyline points="9675,7725
9825,7575
" style="stroke:#000000;stroke-width:15;
stroke-linejoin:miter; stroke-linecap:butt;
"/>
<!-- Line -->
<polyline points="9825,7575
9675,7725
9525,7575
" style="stroke:#000000;stroke-width:15;
stroke-linejoin:miter; stroke-linecap:butt;
"/>
<!-- Line -->
<polyline points="9675,5400
9675,3300
" style="stroke:#000000;stroke-width:15;
stroke-linejoin:miter; stroke-linecap:butt;
"/>
<!-- Line -->
<polyline points="9675,3300
9825,3450
" style="stroke:#000000;stroke-width:15;
stroke-linejoin:miter; stroke-linecap:butt;
"/>
<!-- Line -->
<polyline points="9675,3300
9525,3450
" style="stroke:#000000;stroke-width:15;
stroke-linejoin:miter; stroke-linecap:butt;
"/>
<!-- Line -->
<polyline points="6375,9900
7275,9900
" style="stroke:#000000;stroke-width:15;
stroke-linejoin:miter; stroke-linecap:butt;
"/>
<!-- Line -->
<polyline points="8400,9900
9225,9900
" style="stroke:#000000;stroke-width:15;
stroke-linejoin:miter; stroke-linecap:butt;
"/>
<!-- Line -->
<polyline points="9225,9900
9075,9750
" style="stroke:#000000;stroke-width:15;
stroke-linejoin:miter; stroke-linecap:butt;
"/>
<!-- Line -->
<polyline points="9225,9900
9075,10050
" style="stroke:#000000;stroke-width:15;
stroke-linejoin:miter; stroke-linecap:butt;
"/>
<!-- Line -->
<polyline points="6375,9900
6525,9750
" style="stroke:#000000;stroke-width:15;
stroke-linejoin:miter; stroke-linecap:butt;
"/>
<!-- Line -->
<polyline points="6375,9900
6525,10050
" style="stroke:#000000;stroke-width:15;
stroke-linejoin:miter; stroke-linecap:butt;
"/>
<!-- Line -->
<polyline points="5100,9900
6225,9900
" style="stroke:#000000;stroke-width:15;
stroke-linejoin:miter; stroke-linecap:butt;
"/>
<!-- Line -->
<polyline points="6225,9900
6075,9750
" style="stroke:#000000;stroke-width:15;
stroke-linejoin:miter; stroke-linecap:butt;
"/>
<!-- Line -->
<polyline points="6225,9900
6075,10050
" style="stroke:#000000;stroke-width:15;
stroke-linejoin:miter; stroke-linecap:butt;
"/>
<!-- Line -->
<polyline points="3750,9900
1200,9900
" style="stroke:#000000;stroke-width:15;
stroke-linejoin:miter; stroke-linecap:butt;
"/>
<!-- Line -->
<polyline points="1200,9900
1350,9750
" style="stroke:#000000;stroke-width:15;
stroke-linejoin:miter; stroke-linecap:butt;
"/>
<!-- Line -->
<polyline points="1200,9900
1350,10050
" style="stroke:#000000;stroke-width:15;
stroke-linejoin:miter; stroke-linecap:butt;
"/>
<!-- Line -->
<polyline points="11100,6600
11100,3300
" style="stroke:#000000;stroke-width:15;
stroke-linejoin:miter; stroke-linecap:butt;
"/>
<!-- Line -->
<polyline points="11100,3300
11250,3450
" style="stroke:#000000;stroke-width:15;
stroke-linejoin:miter; stroke-linecap:butt;
"/>
<!-- Line -->
<polyline points="11100,3300
10950,3450
" style="stroke:#000000;stroke-width:15;
stroke-linejoin:miter; stroke-linecap:butt;
"/>
<!-- Line -->
<polyline points="11100,7200
11100,9525
" style="stroke:#000000;stroke-width:15;
stroke-linejoin:miter; stroke-linecap:butt;
"/>
<!-- Line -->
<polyline points="11100,9525
11250,9375
" style="stroke:#000000;stroke-width:15;
stroke-linejoin:miter; stroke-linecap:butt;
"/>
<!-- Line -->
<polyline points="11100,9525
10950,9375
" style="stroke:#000000;stroke-width:15;
stroke-linejoin:miter; stroke-linecap:butt;
"/>
<!-- Line -->
<polyline points="9225,10500
9075,10350
" style="stroke:#000000;stroke-width:15;
stroke-linejoin:miter; stroke-linecap:butt;
"/>
<!-- Line -->
<polyline points="9225,10500
9075,10650
" style="stroke:#000000;stroke-width:15;
stroke-linejoin:miter; stroke-linecap:butt;
"/>
<!-- Line -->
<polyline points="1200,10500
1350,10350
" style="stroke:#000000;stroke-width:15;
stroke-linejoin:miter; stroke-linecap:butt;
"/>
<!-- Line -->
<polyline points="1200,10500
1350,10650
" style="stroke:#000000;stroke-width:15;
stroke-linejoin:miter; stroke-linecap:butt;
"/>
<!-- Line -->
<polyline points="1200,10500
3750,10500
" style="stroke:#000000;stroke-width:15;
stroke-linejoin:miter; stroke-linecap:butt;
"/>
<!-- Line -->
<polyline points="4425,7200
4725,7275
" style="stroke:#000000;stroke-width:15;
stroke-linejoin:miter; stroke-linecap:butt;
"/>
<!-- Line -->
<polyline points="4425,7200
4500,7500
" style="stroke:#000000;stroke-width:15;
stroke-linejoin:miter; stroke-linecap:butt;
"/>
<!-- Line -->
<polyline points="9675,7875
9675,8550
" style="stroke:#000000;stroke-width:15;
stroke-linejoin:miter; stroke-linecap:butt;
"/>
<!-- Line -->
<polyline points="9225,10500
5925,10500
" style="stroke:#000000;stroke-width:15;
stroke-linejoin:miter; stroke-linecap:butt;
"/>
<!-- Text -->
<text xml:space="preserve" x="9450" y="8850" stroke="#000000" fill="#000000"  font-family="Palatino" font-style="normal" font-weight="normal" font-size="216" text-anchor="start">sin(a)</text>
<!-- Text -->
<text xml:space="preserve" x="9450" y="5700" stroke="#000000" fill="#000000"  font-family="Palatino" font-style="normal" font-weight="normal" font-size="216" text-anchor="start">sin(b)</text>
<!-- Text -->
<text xml:space="preserve" x="7425" y="9975" stroke="#000000" fill="#000000"  font-family="Palatino" font-style="normal" font-weight="normal" font-size="216" text-anchor="start">cos(b)</text>
<!-- Text -->
<text xml:space="preserve" x="4050" y="9975" stroke="#000000" fill="#000000"  font-family="Palatino" font-style="normal" font-weight="normal" font-size="216" text-anchor="start">cos(a)</text>
<!-- Text -->
<text xml:space="preserve" x="4875" y="7725" stroke="#000000" fill="#000000"  font-family="Palatino" font-style="normal" font-weight="normal" font-size="216" text-anchor="start">(a + b)/2</text>
<!-- Text -->
<text xml:space="preserve" x="3900" y="9225" stroke="#000000" fill="#000000"  font-family="Palatino" font-style="normal" font-weight="normal" font-size="216" text-anchor="start">a</text>
<!-- Text -->
<text xml:space="preserve" x="7350" y="7350" stroke="#000000" fill="#000000"  font-family="Palatino" font-style="normal" font-weight="normal" font-size="216" text-anchor="start">b</text>
<!-- Text -->
<text xml:space="preserve" x="10500" y="6975" stroke="#000000" fill="#000000"  font-family="Palatino" font-style="normal" font-weight="normal" font-size="216" text-anchor="start">sin((a + b)/2)</text>
<!-- Text -->
<text xml:space="preserve" x="3900" y="10575" stroke="#000000" fill="#000000"  font-family="Palatino" font-style="normal" font-weight="normal" font-size="216" text-anchor="start">cos((a + b)/2)</text>
</g>
</svg>
