<?xml version="1.0" encoding="UTF-8" standalone="no"?>
<svg
   xmlns:dc="http://purl.org/dc/elements/1.1/"
   xmlns:cc="http://creativecommons.org/ns#"
   xmlns:rdf="http://www.w3.org/1999/02/22-rdf-syntax-ns#"
   xmlns:svg="http://www.w3.org/2000/svg"
   xmlns="http://www.w3.org/2000/svg"
   xmlns:sodipodi="http://sodipodi.sourceforge.net/DTD/sodipodi-0.dtd"
   xmlns:inkscape="http://www.inkscape.org/namespaces/inkscape"
   width="392.35001"
   height="392.35001"
   id="svg2"
   sodipodi:version="0.32"
   inkscape:version="0.46"
   sodipodi:docname="TrigSumFormula.svg"
   inkscape:output_extension="org.inkscape.output.svg.inkscape"
   version="1.0">
  <metadata
     id="metadata57">
    <rdf:RDF>
      <cc:Work
         rdf:about="">
        <dc:format>image/svg+xml</dc:format>
        <dc:type
           rdf:resource="http://purl.org/dc/dcmitype/StillImage" />
      </cc:Work>
    </rdf:RDF>
  </metadata>
  <sodipodi:namedview
     inkscape:window-height="788"
     inkscape:window-width="1152"
     inkscape:pageshadow="2"
     inkscape:pageopacity="0.0"
     guidetolerance="10.0"
     gridtolerance="10.0"
     objecttolerance="10.0"
     borderopacity="1.0"
     bordercolor="#666666"
     pagecolor="#ffffff"
     id="base"
     showgrid="false"
     units="px"
     inkscape:zoom="1"
     inkscape:cx="283.86936"
     inkscape:cy="190.35775"
     inkscape:window-x="0"
     inkscape:window-y="52"
     inkscape:current-layer="svg2" />
  <defs
     id="defs4">
    <inkscape:perspective
       sodipodi:type="inkscape:persp3d"
       inkscape:vp_x="0 : 81.739998 : 1"
       inkscape:vp_y="0 : 1000 : 0"
       inkscape:vp_z="163.48 : 81.739998 : 1"
       inkscape:persp3d-origin="81.739998 : 54.493332 : 1"
       id="perspective59" />
    <marker
       id="ArrowEnd"
       viewBox="0 0 10 10"
       refX="0"
       refY="5"
       markerUnits="strokeWidth"
       markerWidth="4"
       markerHeight="3"
       orient="auto">
      <path
         d="M 0,0 L 10,5 L 0,10 L 0,0 z"
         id="path7" />
    </marker>
    <marker
       id="ArrowStart"
       viewBox="0 0 10 10"
       refX="10"
       refY="5"
       markerUnits="strokeWidth"
       markerWidth="4"
       markerHeight="3"
       orient="auto">
      <path
         d="M 10,0 L 0,5 L 10,10 L 10,0 z"
         id="path10" />
    </marker>
  </defs>
  <g
     id="g12"
     transform="matrix(2.4,0,0,2.4,3.2204865,2.0110911)">
    <path
       style="fill:none;stroke:#000000;stroke-width:0.49813199"
       d="M 84.871,50.935 C 87.552,50.935 90.204,50.371 92.653,49.281"
       id="path14" />
    <path
       style="fill:none;stroke:#000000;stroke-width:0.49813199"
       d="M 40.225,142.268 C 40.225,139.587 39.661,136.935 38.571,134.486"
       id="path16" />
    <path
       style="fill:none;stroke:#000000;stroke-width:0.49813199"
       d="M 35.658,135.783 C 34.288,132.707 31.98,130.143 29.064,128.46"
       id="path18" />
    <path
       style="fill:#000000;fill-rule:evenodd;stroke:none"
       d="M 119.105,95.188 C 119.105,94.198 118.302,93.395 117.312,93.395 C 116.322,93.395 115.519,94.198 115.519,95.188 C 115.519,96.178 116.322,96.981 117.312,96.981 C 118.302,96.981 119.105,96.178 119.105,95.188"
       id="path20" />
    <path
       style="fill:none;stroke:#000000;stroke-width:0.49813199"
       d="M 122.361,97.176 L 119.249,90.187 L 112.26,93.299"
       id="path22" />
    <path
       style="fill:#000000;fill-rule:evenodd;stroke:none"
       d="M 17.412,146.953 C 17.412,145.359 16.353,144.288 14.865,144.288 C 12.708,144.288 10.512,146.537 10.512,148.844 C 10.512,150.487 11.63,151.488 13.068,151.488 C 15.185,151.488 17.412,149.319 17.412,146.953 z M 13.105,151.188 C 12.113,151.188 11.412,150.385 11.412,149.077 C 11.412,148.641 11.552,147.195 12.324,146.035 C 13.015,145.004 13.997,144.488 14.789,144.488 C 15.61,144.488 16.512,145.044 16.512,146.521 C 16.512,147.234 16.241,148.78 15.249,149.999 C 14.768,150.604 13.947,151.188 13.105,151.188 z"
       id="path24" />
    <path
       style="fill:#000000;fill-rule:evenodd;stroke:none"
       d="M 79.026,25.088 L 80.717,25.088 C 82.129,25.088 83.512,24.04 83.512,22.91 C 83.512,22.134 82.855,21.387 81.552,21.387 L 78.33,21.387 C 78.141,21.387 78.032,21.387 78.032,21.571 C 78.032,21.687 78.121,21.687 78.321,21.687 C 78.45,21.687 78.629,21.698 78.748,21.7079 C 78.907,21.728 78.967,21.758 78.967,21.868 C 78.967,21.908 78.957,21.938 78.927,22.0569 L 77.594,27.418 C 77.494,27.8069 77.474,27.887 76.689,27.887 C 76.52,27.887 76.41,27.887 76.41,28.071 C 76.41,28.187 76.53,28.187 76.559,28.187 L 79.105,28.187 C 79.175,28.187 79.304,28.187 79.304,27.994 C 79.304,27.887 79.215,27.887 79.025,27.887 C 78.657,27.887 78.379,27.887 78.379,27.71 C 78.379,27.651 78.399,27.602 78.409,27.543 L 79.026,25.088 z M 79.751,22.068 C 79.841,21.718 79.861,21.688 80.291,21.688 L 81.251,21.688 C 82.081,21.688 82.612,21.959 82.612,22.649 C 82.612,23.039 82.411,23.899 82.021,24.259 C 81.521,24.709 80.921,24.789 80.481,24.789 L 79.071,24.789 L 79.751,22.068 z"
       id="path26" />
    <path
       style="fill:#000000;fill-rule:evenodd;stroke:none"
       d="M 123.496,108.073 C 125.044,107.492 126.512,105.739 126.512,103.838 C 126.512,102.252 125.453,101.188 123.965,101.188 C 121.808,101.188 119.612,103.437 119.612,105.744 C 119.612,107.387 120.73,108.388 122.168,108.388 C 122.418,108.388 122.757,108.353 123.147,108.258 C 123.107,108.865 123.107,108.884 123.107,109.012 C 123.107,109.325 123.107,110.088 123.936,110.088 C 125.124,110.088 125.603,108.295 125.603,108.187 C 125.603,108.118 125.533,108.089 125.493,108.089 C 125.413,108.089 125.393,108.136 125.373,108.192 C 125.134,108.855 124.554,109.088 124.205,109.088 C 123.746,109.088 123.596,108.822 123.496,108.074 L 123.496,108.073 z M 121.593,108.049 C 120.84,107.739 120.512,106.959 120.512,106.059 C 120.512,105.369 120.769,103.949 121.522,102.869 C 122.245,101.849 123.176,101.388 123.899,101.388 C 124.889,101.388 125.612,102.168 125.612,103.509 C 125.612,104.509 125.1,106.85 123.416,107.79 C 123.366,107.433 123.266,106.688 122.534,106.688 C 122.003,106.688 121.511,107.196 121.511,107.724 C 121.511,107.927 121.592,108.039 121.592,108.049 L 121.593,108.049 z M 122.183,108.188 C 122.04,108.188 121.712,108.188 121.712,107.734 C 121.712,107.311 122.101,106.888 122.532,106.888 C 122.962,106.888 123.157,107.142 123.157,107.786 C 123.157,107.945 123.146,107.955 123.044,107.997 C 122.778,108.113 122.47,108.187 122.183,108.187 L 122.183,108.188 z"
       id="path28" />
    <path
       style="fill:#000000;fill-rule:evenodd;stroke:none"
       d="M 77.141,97.6609 C 77.2,97.419 77.23,97.319 77.417,97.288 C 77.506,97.288 77.821,97.288 78.018,97.288 C 78.718,97.288 79.812,97.288 79.812,98.281 C 79.812,98.6219 79.654,99.314 79.269,99.706 C 79.013,99.967 78.491,100.288 77.604,100.288 L 76.5,100.288 L 77.141,97.6609 z M 78.583,100.403 C 79.56,100.184 80.712,99.487 80.712,98.482 C 80.712,97.626 79.823,96.988 78.53,96.988 L 75.716,96.988 C 75.519,96.988 75.43,96.988 75.43,97.181 C 75.43,97.288 75.519,97.288 75.707,97.288 C 75.727,97.288 75.914,97.288 76.082,97.309 C 76.26,97.329 76.349,97.339 76.349,97.469 C 76.349,97.509 76.339,97.539 76.31,97.658 L 74.987,103.019 C 74.888,103.408 74.869,103.488 74.089,103.488 C 73.911,103.488 73.823,103.488 73.823,103.682 C 73.823,103.788 73.943,103.788 73.962,103.788 L 76.482,103.788 C 76.562,103.788 76.681,103.788 76.681,103.595 C 76.681,103.488 76.592,103.488 76.402,103.488 C 76.034,103.488 75.755,103.488 75.755,103.308 C 75.755,103.248 75.775,103.198 75.785,103.138 L 76.442,100.488 L 77.628,100.488 C 78.535,100.488 78.714,101.043 78.714,101.39 C 78.714,101.539 78.634,101.846 78.575,102.074 C 78.505,102.352 78.416,102.719 78.416,102.917 C 78.416,103.988 79.612,103.988 79.741,103.988 C 80.588,103.988 80.937,102.997 80.937,102.86 C 80.937,102.742 80.827,102.742 80.817,102.742 C 80.727,102.742 80.707,102.812 80.687,102.881 C 80.438,103.618 80.01,103.788 79.78,103.788 C 79.451,103.788 79.382,103.569 79.382,103.181 C 79.382,102.872 79.439,102.365 79.477,102.046 C 79.496,101.907 79.515,101.717 79.515,101.578 C 79.515,100.811 78.852,100.503 78.585,100.403 L 78.583,100.403 z"
       id="path30" />
    <path
       style="fill:#000000;fill-rule:evenodd;stroke:none"
       d="M 113.495,151.854 C 113.097,152.519 112.708,152.658 112.27,152.688 C 112.15,152.698 112.061,152.698 112.061,152.882 C 112.061,152.94 112.111,152.988 112.19,152.988 L 114.043,152.988 C 114.103,152.988 114.232,152.988 114.232,152.804 C 114.232,152.698 114.142,152.688 114.073,152.688 C 113.844,152.668 113.605,152.588 113.605,152.338 C 113.605,152.218 113.665,152.108 113.744,151.968 C 113.814,151.848 113.824,151.848 114.501,150.688 L 117.002,150.688 C 117.022,150.898 117.161,152.258 117.161,152.358 C 117.161,152.658 116.643,152.688 116.444,152.688 C 116.304,152.688 116.205,152.688 116.205,152.882 C 116.205,152.988 116.325,152.988 116.345,152.988 L 118.716,152.988 C 118.776,152.988 118.895,152.988 118.895,152.795 C 118.895,152.688 118.795,152.688 118.666,152.688 C 118.048,152.688 118.048,152.618 118.018,152.331 L 117.41,146.127 C 117.39,145.929 117.39,145.888 117.221,145.888 C 117.062,145.888 117.022,145.958 116.962,146.058 L 113.495,151.854 z M 114.691,150.388 L 116.654,147.09 L 116.973,150.388 L 114.691,150.388 z"
       id="path32" />
    <path
       style="fill:#000000;fill-rule:evenodd;stroke:none"
       d="M 82.406,152.219 C 82.306,152.608 82.286,152.688 81.499,152.688 C 81.329,152.688 81.23,152.688 81.23,152.882 C 81.23,152.988 81.32,152.988 81.499,152.988 L 85.058,152.988 C 86.633,152.988 87.811,151.813 87.811,150.838 C 87.811,150.121 87.231,149.544 86.261,149.434 C 87.297,149.245 88.343,148.508 88.343,147.562 C 88.343,146.825 87.686,146.188 86.49,146.188 L 83.143,146.188 C 82.954,146.188 82.854,146.188 82.854,146.381 C 82.854,146.488 82.944,146.488 83.133,146.488 C 83.153,146.488 83.342,146.488 83.512,146.509 C 83.691,146.529 83.781,146.539 83.781,146.669 C 83.781,146.709 83.771,146.739 83.741,146.858 L 82.406,152.219 z M 83.91,149.388 L 84.528,146.873 C 84.618,146.518 84.638,146.487 85.066,146.487 L 86.351,146.487 C 87.228,146.487 87.437,147.085 87.437,147.532 C 87.437,148.425 86.58,149.388 85.365,149.388 L 83.91,149.388 z M 83.465,152.688 C 83.324,152.688 83.304,152.688 83.244,152.688 C 83.144,152.678 83.114,152.668 83.114,152.589 C 83.114,152.559 83.114,152.539 83.164,152.36 L 83.857,149.588 L 85.756,149.588 C 86.721,149.588 86.912,150.321 86.912,150.747 C 86.912,151.727 86.017,152.688 84.832,152.688 L 83.465,152.688 z"
       id="path34" />
    <path
       style="fill:#000000;fill-rule:evenodd;stroke:none"
       d="M 92.012,56.644 C 92.012,55.078 91.073,54.589 90.326,54.589 C 88.943,54.589 87.611,56.0099 87.611,57.41 C 87.611,58.334 88.21,59.089 89.227,59.089 C 89.856,59.089 90.574,58.862 91.332,58.261 C 91.462,58.783 91.791,59.089 92.24,59.089 C 92.769,59.089 93.079,58.547 93.079,58.39 C 93.079,58.321 93.022,58.292 92.965,58.292 C 92.898,58.292 92.87,58.322 92.841,58.393 C 92.67,58.889 92.326,58.889 92.307,58.889 C 92.012,58.889 92.012,58.111 92.012,57.871 C 92.012,57.662 92.012,57.642 92.108,57.522 C 93.008,56.345 93.21,55.188 93.21,55.178 C 93.21,55.158 93.2,55.078 93.095,55.078 C 92.999,55.078 92.999,55.108 92.951,55.287 C 92.779,55.916 92.463,56.674 92.013,57.262 L 92.012,56.644 z M 91.312,58.006 C 90.417,58.777 89.633,58.888 89.227,58.888 C 88.617,58.888 88.312,58.437 88.312,57.795 C 88.312,57.304 88.578,56.2209 88.906,55.71 C 89.387,54.978 89.94,54.788 90.299,54.788 C 91.313,54.788 91.313,56.101 91.313,56.883 C 91.313,57.254 91.313,57.835 91.313,58.006 L 91.312,58.006 z"
       id="path36" />
    <path
       style="fill:#000000;fill-rule:evenodd;stroke:none"
       d="M 47.312,137.044 C 47.312,135.478 46.373,134.989 45.626,134.989 C 44.243,134.989 42.911,136.41 42.911,137.81 C 42.911,138.734 43.51,139.489 44.527,139.489 C 45.156,139.489 45.874,139.262 46.632,138.661 C 46.762,139.183 47.091,139.489 47.54,139.489 C 48.069,139.489 48.379,138.947 48.379,138.79 C 48.379,138.721 48.322,138.692 48.265,138.692 C 48.198,138.692 48.17,138.722 48.141,138.793 C 47.97,139.289 47.626,139.289 47.607,139.289 C 47.312,139.289 47.312,138.511 47.312,138.271 C 47.312,138.062 47.312,138.042 47.408,137.922 C 48.308,136.745 48.51,135.588 48.51,135.578 C 48.51,135.558 48.5,135.478 48.395,135.478 C 48.299,135.478 48.299,135.508 48.251,135.687 C 48.079,136.316 47.763,137.074 47.313,137.662 L 47.312,137.044 z M 46.612,138.406 C 45.717,139.177 44.933,139.288 44.527,139.288 C 43.917,139.288 43.612,138.837 43.612,138.195 C 43.612,137.704 43.878,136.621 44.206,136.11 C 44.687,135.378 45.24,135.188 45.599,135.188 C 46.613,135.188 46.613,136.501 46.613,137.283 C 46.613,137.654 46.613,138.235 46.613,138.406 L 46.612,138.406 z"
       id="path38" />
    <path
       style="fill:#000000;fill-rule:evenodd;stroke:none"
       d="M 35.791,129.44 C 35.781,129.479 35.761,129.539 35.761,129.588 C 35.761,129.687 35.861,129.687 35.881,129.687 C 35.931,129.687 35.951,129.677 35.981,129.648 C 36.031,129.598 36.311,128.338 36.741,126.741 C 36.891,127.309 37.411,127.887 38.341,127.887 C 39.661,127.887 41.001,126.56 41.001,125.154 C 41.001,124.451 40.681,124.015 40.331,123.778 C 41.021,123.362 41.412,122.659 41.412,122.055 C 41.412,121.412 40.951,120.787 40.071,120.787 C 38.771,120.787 37.641,122.143 37.311,123.44 L 35.791,129.44 z M 38.78,123.802 C 38.88,123.731 38.95,123.688 39.288,123.688 C 39.438,123.688 39.557,123.688 39.686,123.774 C 39.507,123.888 39.288,123.888 39.208,123.888 C 38.959,123.888 38.949,123.888 38.779,123.802 L 38.78,123.802 z M 40.034,123.594 C 39.752,123.488 39.429,123.488 39.338,123.488 C 39.096,123.488 38.551,123.488 38.551,123.819 C 38.551,124.088 38.995,124.088 39.237,124.088 C 39.378,124.088 39.671,124.088 39.994,123.942 C 40.216,124.172 40.296,124.461 40.296,124.779 C 40.296,125.177 40.094,126.114 39.802,126.661 C 39.57,127.079 39.056,127.687 38.329,127.687 C 37.431,127.687 36.917,127.03 36.917,126.233 C 36.917,125.994 36.957,125.845 37.048,125.486 C 37.139,125.118 37.452,123.873 37.512,123.644 C 37.986,121.803 39.187,120.986 40.085,120.986 C 40.388,120.986 40.812,121.136 40.812,121.792 C 40.812,122.031 40.691,123.104 40.035,123.592 L 40.034,123.594 z"
       id="path40" />
    <path
       style="fill:none;stroke:#000000;stroke-width:0.49813199"
       d="M 84.871,31.802 L 115.371,100.288"
       id="path42" />
    <path
       style="fill:none;stroke:#000000;stroke-width:0.49813199"
       d="M 115.371,100.288 L 84.871,100.288"
       id="path44" />
    <path
       style="fill:none;stroke:#000000;stroke-width:0.49813199"
       d="M 84.871,31.802 L 84.871,142.268"
       id="path46" />
    <path
       style="fill:none;stroke:#000000;stroke-width:0.49813199"
       d="M 115.371,100.288 L 115.371,142.268"
       id="path48" />
    <path
       style="fill:none;stroke:#000000;stroke-width:0.49813199"
       d="M 21.092,142.268 L 148.651,142.268"
       id="path50" />
    <path
       style="fill:none;stroke:#000000;stroke-width:0.49813199"
       d="M 21.092,142.268 L 149.276,85.198"
       id="path52" />
    <path
       style="fill:none;stroke:#000000;stroke-width:0.49813199"
       d="M 21.092,142.268 L 97.628,9.70898"
       id="path54" />
  </g>
</svg>
