<?xml version="1.0" encoding="UTF-8"?>
<!-- Created with Inkscape (http://www.inkscape.org/) -->
<svg width="500" height="400" version="1.1" viewBox="0 0 500 400" xmlns="http://www.w3.org/2000/svg" xmlns:cc="http://creativecommons.org/ns#" xmlns:dc="http://purl.org/dc/elements/1.1/" xmlns:rdf="http://www.w3.org/1999/02/22-rdf-syntax-ns#">
 <defs>
  <marker id="marker1494" overflow="visible" orient="auto">
   <path transform="matrix(.8 0 0 .8 10 0)" d="m0 0 5-5-17.5 5 17.5 5z" fill="#808" fill-rule="evenodd" stroke="#808" stroke-width="1pt"/>
  </marker>
  <marker id="marker1442" overflow="visible" orient="auto">
   <path transform="matrix(.8 0 0 .8 10 0)" d="m0 0 5-5-17.5 5 17.5 5z" fill="#00f" fill-rule="evenodd" stroke="#00f" stroke-width="1pt"/>
  </marker>
  <marker id="marker1396" overflow="visible" orient="auto">
   <path transform="matrix(.8 0 0 .8 10 0)" d="m0 0 5-5-17.5 5 17.5 5z" fill="#080" fill-rule="evenodd" stroke="#080" stroke-width="1pt"/>
  </marker>
  <marker id="marker1356" overflow="visible" orient="auto">
   <path transform="matrix(.8 0 0 .8 10 0)" d="m0 0 5-5-17.5 5 17.5 5z" fill="#f80" fill-rule="evenodd" stroke="#f80" stroke-width="1pt"/>
  </marker>
  <marker id="Arrow1Lstart" overflow="visible" orient="auto">
   <path transform="matrix(.8 0 0 .8 10 0)" d="m0 0 5-5-17.5 5 17.5 5z" fill="#f00" fill-rule="evenodd" stroke="#f00" stroke-width="1pt"/>
  </marker>
 </defs>
 <metadata>
  <rdf:RDF>
   <cc:Work rdf:about="">
    <dc:format>image/svg+xml</dc:format>
    <dc:type rdf:resource="http://purl.org/dc/dcmitype/StillImage"/>
    <dc:title/>
   </cc:Work>
  </rdf:RDF>
 </metadata>
 <g transform="translate(0 -722.52)">
  <g fill="none">
   <g stroke="#000">
    <path d="m0 922.52h400" stroke-opacity=".26667" stroke-width="2"/>
    <path d="m200 722.52v400" stroke-opacity=".26667" stroke-width="2"/>
    <circle cx="200" cy="922.52" r="150" stroke-linecap="square" stroke-linejoin="bevel" stroke-width="4"/>
   </g>
   <g stroke-width="2">
    <path d="m200 922.52 129.9-75" stroke="#f00"/>
    <path d="m200 922.52-75-129.9" stroke="#f80"/>
    <path d="m200 922.52-129.9 75" stroke="#080"/>
    <path d="m200 922.52 75 129.9" stroke="#00f"/>
   </g>
   <g stroke-dasharray="1, 2">
    <path d="m329.9 922.52v-75h-129.9" stroke="#f00"/>
    <path d="m200 792.62h-75v129.9" stroke="#f80"/>
    <path d="m200 1052.4h75v-129.9" stroke="#00f"/>
    <path d="m70.096 922.52v75h129.9" stroke="#080"/>
   </g>
   <g stroke-linecap="square" stroke-linejoin="bevel">
    <path d="m225.98 907.52a30 30 0 0 1 4.0192 15" stroke="#f00"/>
    <path d="m148.04 952.52a60 60 0 0 1 5.9988-68.567 60 60 0 0 1 66.484-17.814 60 60 0 0 1 39.479 56.382" stroke="#080"/>
    <path d="m177.5 883.55a45 45 0 0 1 45 0 45 45 0 0 1 22.5 38.971" stroke="#f80"/>
    <path d="m237.5 987.47a75 75 0 0 1-90.533-11.919 75 75 0 0 1-11.919-90.533 75 75 0 0 1 84.363-34.944 75 75 0 0 1 55.589 72.444" stroke="#00f"/>
   </g>
  </g>
  <g>
   <text x="90" y="652.51965" fill="#000000" font-family="sans-serif" font-size="40px" letter-spacing="0px" text-align="center" text-anchor="middle" word-spacing="0px" style="line-height:1.25" xml:space="preserve"><tspan x="90" y="689.01288"/></text>
   <g font-family="serif" font-style="italic" letter-spacing="0px" word-spacing="0px">
    <g font-size="14.688px">
     <text x="395" y="1050.0197" fill="#ff0000" style="line-height:125%" xml:space="preserve"><tspan x="395" y="1050.0197" fill="#ff0000" font-family="serif" font-size="24px" font-style="italic"><tspan dx="0" dy="0" fill="#ff0000" font-family="serif" font-size="24px" font-style="italic">θ</tspan></tspan></text>
     <text x="390" y="1025.0195" fill="#ff8800" style="line-height:125%" xml:space="preserve"><tspan x="390" y="1025.0195" fill="#ff8800" font-family="serif" font-size="24px" font-style="italic"><tspan dx="0 0 0 0 0 0" dy="0 0 0 0 0 0" fill="#ff8800" font-family="serif" font-size="24px" font-style="italic">θ+π/2 </tspan></tspan></text>
     <text x="385" y="1000.0196" fill="#008800" style="line-height:125%" xml:space="preserve"><tspan x="385" y="1000.0196" fill="#008800" font-family="serif" font-size="24px" font-style="italic"><tspan dx="0 0 0 0" dy="0 0 0 0" fill="#008800" font-family="serif" font-size="24px" font-style="italic">θ+π </tspan></tspan></text>
     <text x="380" y="975.01959" fill="#0000ff" style="line-height:125%" xml:space="preserve"><tspan x="380" y="975.01959" fill="#0000ff" font-family="serif" font-size="24px" font-style="italic"><tspan dx="0 0 0 0 0 0 0" dy="0 0 0 0 0 0 0" fill="#0000ff" font-family="serif" font-size="24px" font-style="italic">θ+3π/2 </tspan></tspan></text>
    </g>
    <g font-size="24px" text-anchor="middle">
     <text x="380" y="832.51959" fill="#ff0000" text-align="center" style="line-height:1.25" xml:space="preserve"><tspan x="380" y="832.51959">(x=a,y=b)</tspan></text>
     <text x="110" y="782.51965" fill="#ff8800" text-align="center" style="line-height:1.25" xml:space="preserve"><tspan x="110" y="782.51965">(-b,a)</tspan></text>
     <text x="40" y="1022.5197" fill="#008800" text-align="center" style="line-height:1.25" xml:space="preserve"><tspan x="40" y="1022.5197">(-a,-b)</tspan></text>
     <text x="300" y="1072.5197" fill="#0000ff" text-align="center" style="line-height:1.25" xml:space="preserve"><tspan x="300" y="1072.5197">(b,-a)</tspan></text>
    </g>
   </g>
   <path d="m276.25 1054.6a2.5 2.5 0 0 1-3.0178-0.3973 2.5 2.5 0 0 1-0.39729-3.0177 2.5 2.5 0 0 1 2.8121-1.1649 2.5 2.5 0 0 1 1.853 2.4149" fill="#00f"/>
   <path d="m331.15 849.68a2.5 2.5 0 0 1-3.0178-0.3973 2.5 2.5 0 0 1-0.39729-3.0178 2.5 2.5 0 0 1 2.8121-1.1648 2.5 2.5 0 0 1 1.853 2.4148" fill="#f00"/>
   <path d="m126.25 794.78a2.5 2.5 0 0 1-3.0178-0.3973 2.5 2.5 0 0 1-0.39729-3.0178 2.5 2.5 0 0 1 2.8121-1.1648 2.5 2.5 0 0 1 1.853 2.4148" fill="#f80"/>
   <path d="m71.346 999.68a2.5 2.5 0 0 1-3.0178-0.3973 2.5 2.5 0 0 1-0.3973-3.0178 2.5 2.5 0 0 1 2.8121-1.1648 2.5 2.5 0 0 1 1.853 2.4148" fill="#080"/>
  </g>
  <g fill="none">
   <circle cx="200" cy="922.52" r="90" stroke="#808" stroke-linecap="square" stroke-linejoin="bevel"/>
   <g stroke-width=".5">
    <path d="m275 922.52 56.25 45h43.75" marker-start="url(#marker1442)" stroke="#00f"/>
    <path d="m260 922.52 87.5 70h32.5" marker-start="url(#marker1396)" stroke="#080"/>
    <path d="m245 922.52 118.75 95h21.25" marker-start="url(#marker1356)" stroke="#f80"/>
    <path d="m230 922.52 150 120h10" marker-start="url(#Arrow1Lstart)" stroke="#f00"/>
    <path d="m290 922.52 25 20 55-7e-5" marker-start="url(#marker1494)" stroke="#808"/>
   </g>
  </g>
  <text x="375" y="950.01959" fill="#0000ff" font-family="serif" font-size="14.688px" font-style="italic" letter-spacing="0px" word-spacing="0px" style="line-height:125%" xml:space="preserve"><tspan x="375" y="950.01959" fill="#0000ff" font-family="serif" font-size="24px" font-style="italic"><tspan dx="0 0 0 0 0" dy="0 0 0 0 0" fill="#0000ff" font-family="serif" font-size="24px" font-style="italic"><tspan fill="#880088" font-family="serif" font-style="italic">θ+2π</tspan> </tspan></tspan></text>
  <text x="380" y="862.51959" fill="#880088" font-family="serif" font-size="24px" font-style="italic" letter-spacing="0px" text-align="center" text-anchor="middle" word-spacing="0px" style="line-height:1.25" xml:space="preserve"><tspan x="380" y="862.51959">(a,b)</tspan></text>
 </g>
</svg>
