<?xml version="1.0" encoding="UTF-8"?>
<!-- Created with Inkscape (http://www.inkscape.org/) -->
<svg width="500" height="400" version="1.1" viewBox="0 0 500 400" xmlns="http://www.w3.org/2000/svg" xmlns:cc="http://creativecommons.org/ns#" xmlns:dc="http://purl.org/dc/elements/1.1/" xmlns:rdf="http://www.w3.org/1999/02/22-rdf-syntax-ns#">
 <defs>
  <marker id="marker1494" overflow="visible" orient="auto">
   <path transform="matrix(.8 0 0 .8 10 0)" d="m0 0 5-5-17.5 5 17.5 5z" fill="#808" fill-rule="evenodd" stroke="#808" stroke-width="1pt"/>
  </marker>
  <marker id="marker1442" overflow="visible" orient="auto">
   <path transform="matrix(.8 0 0 .8 10 0)" d="m0 0 5-5-17.5 5 17.5 5z" fill="#00f" fill-rule="evenodd" stroke="#00f" stroke-width="1pt"/>
  </marker>
  <marker id="marker1396" overflow="visible" orient="auto">
   <path transform="matrix(.8 0 0 .8 10 0)" d="m0 0 5-5-17.5 5 17.5 5z" fill="#080" fill-rule="evenodd" stroke="#080" stroke-width="1pt"/>
  </marker>
  <marker id="marker1356" overflow="visible" orient="auto">
   <path transform="matrix(.8 0 0 .8 10 0)" d="m0 0 5-5-17.5 5 17.5 5z" fill="#f80" fill-rule="evenodd" stroke="#f80" stroke-width="1pt"/>
  </marker>
  <marker id="Arrow1Lstart" overflow="visible" orient="auto">
   <path transform="matrix(.8 0 0 .8 10 0)" d="m0 0 5-5-17.5 5 17.5 5z" fill="#f00" fill-rule="evenodd" stroke="#f00" stroke-width="1pt"/>
  </marker>
 </defs>
 <metadata>
  <rdf:RDF>
   <cc:Work rdf:about="">
    <dc:format>image/svg+xml</dc:format>
    <dc:type rdf:resource="http://purl.org/dc/dcmitype/StillImage"/>
    <dc:title/>
   </cc:Work>
  </rdf:RDF>
 </metadata>
 <g transform="translate(0 -722.52)">
  <g fill="none">
   <path d="m344.89 922.52v38.823h-144.89" stroke="#808" stroke-dasharray="1, 2"/>
   <g stroke="#000">
    <path d="m0 922.52h400" stroke-opacity=".13333" stroke-width="2"/>
    <path d="m200 722.52v400" stroke-opacity=".13333" stroke-width="2"/>
    <circle cx="200" cy="922.52" r="150" stroke-linecap="square" stroke-linejoin="bevel" stroke-width="4"/>
   </g>
   <g stroke-width="2">
    <path d="m200 922.52 144.89-38.823" stroke="#f00"/>
    <path d="m200 922.52 38.823-144.89" stroke="#f80"/>
    <path d="m200 922.52-144.89-38.823" stroke="#080"/>
    <path d="m200 922.52-38.823 144.89" stroke="#00f"/>
   </g>
   <g stroke-dasharray="1, 2">
    <path d="m344.89 922.52v-38.823h-144.89" stroke="#f00"/>
    <path d="m200 777.63h38.823v144.89" stroke="#f80"/>
    <path d="m200 1067.4h-38.823v-144.89" stroke="#00f"/>
    <path d="m55.111 922.52v-38.823h144.89" stroke="#080"/>
   </g>
   <g stroke-linecap="square" stroke-linejoin="bevel">
    <path d="m228.98 914.76a30 30 0 0 1 1.0222 7.7646" stroke="#f00"/>
    <path d="m142.04 906.99a60 60 0 0 1 65.787-43.958 60 60 0 0 1 52.168 59.487" stroke="#080"/>
    <path d="m211.65 879.05a45 45 0 0 1 33.353 43.467" stroke="#f80"/>
    <path d="m180.59 994.96a75 75 0 0 1-54.449-85.468 75 75 0 0 1 80.397-61.691 75 75 0 0 1 68.463 74.715" stroke="#00f"/>
   </g>
  </g>
  <g>
   <text x="90" y="652.51965" fill="#000000" font-family="sans-serif" font-size="40px" letter-spacing="0px" text-align="center" text-anchor="middle" word-spacing="0px" style="line-height:1.25" xml:space="preserve"><tspan x="90" y="689.01288"/></text>
   <g font-family="serif" font-style="italic" letter-spacing="0px" word-spacing="0px">
    <g font-size="14.688px">
     <text x="340" y="1085.0197" fill="#ff0000" style="line-height:125%" xml:space="preserve"><tspan x="340" y="1085.0197" fill="#ff0000" font-family="serif" font-size="24px" font-style="italic"><tspan dx="0" dy="0" fill="#ff0000" font-family="serif" font-size="24px" font-style="italic">θ</tspan></tspan></text>
     <text x="345" y="1060.0197" fill="#ff8800" style="line-height:125%" xml:space="preserve"><tspan x="345" y="1060.0197" fill="#ff8800" font-family="serif" font-size="24px" font-style="italic"><tspan dx="0 0 0 0 0 0" dy="0 0 0 0 0 0" fill="#ff8800" font-family="serif" font-size="24px" font-style="italic">π/2-θ </tspan></tspan></text>
     <text x="350" y="1035.0197" fill="#008800" style="line-height:125%" xml:space="preserve"><tspan x="350" y="1035.0197" fill="#008800" font-family="serif" font-size="24px" font-style="italic"><tspan dx="0 0 0 0" dy="0 0 0 0" fill="#008800" font-family="serif" font-size="24px" font-style="italic">π-θ </tspan></tspan></text>
     <text x="355" y="1010.0196" fill="#0000ff" style="line-height:125%" xml:space="preserve"><tspan x="355" y="1010.0196" fill="#0000ff" font-family="serif" font-size="24px" font-style="italic"><tspan dx="0 0 0 0 0 0 0" dy="0 0 0 0 0 0 0" fill="#0000ff" font-family="serif" font-size="24px" font-style="italic">3π/2-θ </tspan></tspan></text>
    </g>
    <g font-size="24px">
     <text x="350" y="882.51959" fill="#ff0000" style="line-height:1.25" xml:space="preserve"><tspan x="350" y="882.51959">(x=a,y=b)</tspan></text>
     <text x="240" y="772.51959" fill="#ff8800" style="line-height:1.25" xml:space="preserve"><tspan x="240" y="772.51959">(b,a)</tspan></text>
     <text x="60" y="862.51959" fill="#008800" text-align="end" text-anchor="end" style="line-height:1.25" xml:space="preserve"><tspan x="60" y="862.51959">(-a,b)</tspan></text>
     <text x="140" y="1092.5195" fill="#0000ff" text-align="center" text-anchor="middle" style="line-height:1.25" xml:space="preserve"><tspan x="140" y="1092.5195">(-b,-a)</tspan></text>
    </g>
   </g>
   <path d="m162.43 1069.6a2.5 2.5 0 0 1-3.0178-0.3973 2.5 2.5 0 0 1-0.3973-3.0178 2.5 2.5 0 0 1 2.8121-1.1648 2.5 2.5 0 0 1 1.853 2.4148" fill="#00f"/>
   <path d="m346.14 885.86a2.5 2.5 0 0 1-3.0178-0.3973 2.5 2.5 0 0 1-0.3973-3.0178 2.5 2.5 0 0 1 2.8121-1.1648 2.5 2.5 0 0 1 1.853 2.4148" fill="#f00"/>
   <path d="m240.07 779.8a2.5 2.5 0 0 1-3.0178-0.3973 2.5 2.5 0 0 1-0.39729-3.0178 2.5 2.5 0 0 1 2.8121-1.1648 2.5 2.5 0 0 1 1.853 2.4148" fill="#f80"/>
   <path d="m56.361 885.86a2.5 2.5 0 0 1-3.0178-0.3973 2.5 2.5 0 0 1-0.3973-3.0178 2.5 2.5 0 0 1 2.8121-1.1648 2.5 2.5 0 0 1 1.853 2.4148" fill="#080"/>
  </g>
  <path d="m286.93 945.81a90 90 0 0 1-104.49 64.977 90 90 0 0 1-71.672-100.02 90 90 0 0 1 95.116-78.06 90 90 0 0 1 84.114 89.807" fill="none" stroke="#808" stroke-linecap="square" stroke-linejoin="bevel"/>
  <text x="360" y="985.01959" fill="#0000ff" font-family="serif" font-size="14.688px" font-style="italic" letter-spacing="0px" word-spacing="0px" style="line-height:125%" xml:space="preserve"><tspan x="360" y="985.01959" fill="#0000ff" font-family="serif" font-size="24px" font-style="italic"><tspan dx="0 0 0 0 0" dy="0 0 0 0 0" fill="#0000ff" font-family="serif" font-size="24px" font-style="italic"><tspan fill="#880088" font-family="serif" font-style="italic">2π-θ</tspan> </tspan></tspan></text>
  <text x="380" y="952.51959" fill="#880088" font-family="serif" font-size="24px" font-style="italic" letter-spacing="0px" text-align="center" text-anchor="middle" word-spacing="0px" style="line-height:1.25" xml:space="preserve"><tspan x="380" y="952.51959">(a,-b)</tspan></text>
  <path d="m200 922.52 144.89 38.823" fill="none" stroke="#808" stroke-width="2"/>
  <path d="m346.14 963.51a2.5 2.5 0 0 1-3.0178-0.3973 2.5 2.5 0 0 1-0.3973-3.0178 2.5 2.5 0 0 1 2.8121-1.1648 2.5 2.5 0 0 1 1.853 2.4148" fill="#808"/>
  <g fill="none">
   <g stroke-width=".5">
    <path d="m275 922.52 31.25 80h43.75" marker-start="url(#marker1442)" stroke="#00f"/>
    <path d="m260 922.52 41.016 105h43.984" marker-start="url(#marker1396)" stroke="#080"/>
    <path d="m245 922.52 50.781 130 44.219 1e-4" marker-start="url(#marker1356)" stroke="#f80"/>
    <path d="m230 922.52 60.547 155h44.453" marker-start="url(#Arrow1Lstart)" stroke="#f00"/>
    <path d="m290 922.52 21.484 55h43.516" marker-start="url(#marker1494)" stroke="#808"/>
   </g>
   <g stroke-width="1px">
    <path d="m200 922.52 200-200" stroke="#f80" stroke-opacity=".53333"/>
    <path d="m200 922.52v-200" stroke="#080" stroke-opacity=".53333"/>
    <path d="m200 922.52h-200" stroke="#808" stroke-opacity=".53333"/>
   </g>
  </g>
  <text x="390" y="752.51959" fill="#ff8800" fill-opacity=".53333" font-family="Calibri" font-size="14.688px" font-weight="400" letter-spacing="0px" word-spacing="0px" style="line-height:125%" xml:space="preserve"><tspan x="390" y="752.51959" fill="#ff8800" fill-opacity=".53333"><tspan dx="0" dy="0" font-family="serif" font-size="24px" font-style="italic" font-weight="normal">α=π/4</tspan><tspan dx="0" dy="0" font-family="'Times New Roman'" font-size="16px" font-weight="400"> </tspan></tspan></text>
  <text x="205" y="742.51959" fill="#008800" fill-opacity=".53333" font-family="Calibri" font-size="14.688px" font-weight="400" letter-spacing="0px" word-spacing="0px" style="line-height:125%" xml:space="preserve"><tspan x="205" y="742.51959" fill="#008800" fill-opacity=".53333"><tspan dx="0" dy="0" font-family="serif" font-size="24px" font-style="italic" font-weight="normal">α=π/2</tspan><tspan dx="0" dy="0" font-family="'Times New Roman'" font-size="16px" font-weight="400"> </tspan></tspan></text>
  <path d="m200 922.52-200-200" fill="none" stroke="#00f" stroke-opacity=".53333" stroke-width="1px"/>
  <text x="60" y="942.51959" fill="#880088" fill-opacity=".53333" font-family="Calibri" font-size="14.688px" font-weight="400" letter-spacing="0px" word-spacing="0px" style="line-height:125%" xml:space="preserve"><tspan x="60" y="942.51959" fill="#880088" fill-opacity=".53333"><tspan dx="0" dy="0" font-family="serif" font-size="24px" font-style="italic" font-weight="normal">α=π</tspan><tspan dx="0" dy="0" font-family="'Times New Roman'" font-size="16px" font-weight="400"> </tspan></tspan></text>
  <text x="40" y="752.51959" fill="#0000ff" fill-opacity=".53333" font-family="Calibri" font-size="14.688px" font-weight="400" letter-spacing="0px" word-spacing="0px" style="line-height:125%" xml:space="preserve"><tspan x="40" y="752.51959" fill="#0000ff" fill-opacity=".53333"><tspan dx="0" dy="0" font-family="serif" font-size="24px" font-style="italic" font-weight="normal">α=3π/4</tspan><tspan dx="0" dy="0" font-family="'Times New Roman'" font-size="16px" font-weight="400"> </tspan></tspan></text>
 </g>
</svg>
