<?xml version="1.0" encoding="utf-8" standalone="no"?>
<!DOCTYPE svg PUBLIC "-//W3C//DTD SVG 1.1//EN"
  "http://www.w3.org/Graphics/SVG/1.1/DTD/svg11.dtd">
<!-- Created with matplotlib (https://matplotlib.org/) -->
<svg height="230.4pt" version="1.1" viewBox="0 0 288 230.4" width="288pt" xmlns="http://www.w3.org/2000/svg" xmlns:xlink="http://www.w3.org/1999/xlink">
 <defs>
  <style type="text/css">
*{stroke-linecap:butt;stroke-linejoin:round;}
  </style>
 </defs>
 <g id="figure_1">
  <g id="patch_1">
   <path d="M 0 230.4 
L 288 230.4 
L 288 0 
L 0 0 
z
" style="fill:none;"/>
  </g>
  <g id="axes_1">
   <g id="patch_2">
    <path d="M 43.2 200.448 
L 270.72 200.448 
L 270.72 16.128 
L 43.2 16.128 
z
" style="fill:#ffffff;"/>
   </g>
   <g id="matplotlib.axis_1">
    <g id="xtick_1">
     <g id="line2d_1">
      <path clip-path="url(#pc7f5bcc67a)" d="M 43.2 200.448 
L 43.2 16.128 
" style="fill:none;stroke:#b0b0b0;stroke-dasharray:2.96,1.28;stroke-dashoffset:0;stroke-width:0.8;"/>
     </g>
     <g id="line2d_2">
      <defs>
       <path d="M 0 0 
L 0 -3.5 
" id="m0908baf645" style="stroke:#000000;stroke-width:0.8;"/>
      </defs>
      <g>
       <use style="stroke:#000000;stroke-width:0.8;" x="43.2" xlink:href="#m0908baf645" y="200.448"/>
      </g>
     </g>
     <g id="line2d_3">
      <defs>
       <path d="M 0 0 
L 0 3.5 
" id="m773690fab7" style="stroke:#000000;stroke-width:0.8;"/>
      </defs>
      <g>
       <use style="stroke:#000000;stroke-width:0.8;" x="43.2" xlink:href="#m773690fab7" y="16.128"/>
      </g>
     </g>
     <g id="text_1">
      <!-- $0$ -->
      <defs>
       <path d="M 42 31.84375 
C 42 37.96875 41.90625 48.421875 37.703125 56.453125 
C 34 63.484375 28.09375 66 22.90625 66 
C 18.09375 66 12 63.78125 8.203125 56.5625 
C 4.203125 49.015625 3.796875 39.671875 3.796875 31.84375 
C 3.796875 26.109375 3.90625 17.375 7 9.734375 
C 11.296875 -0.609375 19 -2 22.90625 -2 
C 27.5 -2 34.5 -0.109375 38.59375 9.4375 
C 41.59375 16.375 42 24.5 42 31.84375 
z
M 22.90625 -0.40625 
C 16.5 -0.40625 12.703125 5.125 11.296875 12.75 
C 10.203125 18.6875 10.203125 27.328125 10.203125 32.953125 
C 10.203125 40.6875 10.203125 47.109375 11.5 53.234375 
C 13.40625 61.78125 19 64.390625 22.90625 64.390625 
C 27 64.390625 32.296875 61.671875 34.203125 53.4375 
C 35.5 47.71875 35.59375 40.984375 35.59375 32.953125 
C 35.59375 26.421875 35.59375 18.375 34.40625 12.453125 
C 32.296875 1.5 26.40625 -0.40625 22.90625 -0.40625 
z
" id="CMR17-48"/>
      </defs>
      <g transform="translate(40.273505 212.25018)scale(0.12 -0.12)">
       <use transform="scale(0.996264)" xlink:href="#CMR17-48"/>
      </g>
     </g>
    </g>
    <g id="xtick_2">
     <g id="line2d_4">
      <path clip-path="url(#pc7f5bcc67a)" d="M 100.08 200.448 
L 100.08 16.128 
" style="fill:none;stroke:#b0b0b0;stroke-dasharray:2.96,1.28;stroke-dashoffset:0;stroke-width:0.8;"/>
     </g>
     <g id="line2d_5">
      <g>
       <use style="stroke:#000000;stroke-width:0.8;" x="100.08" xlink:href="#m0908baf645" y="200.448"/>
      </g>
     </g>
     <g id="line2d_6">
      <g>
       <use style="stroke:#000000;stroke-width:0.8;" x="100.08" xlink:href="#m773690fab7" y="16.128"/>
      </g>
     </g>
     <g id="text_2">
      <!-- $5$ -->
      <defs>
       <path d="M 11.40625 58.59375 
C 12.40625 58.1875 16.5 56.890625 20.703125 56.890625 
C 30 56.890625 35.09375 61.890625 38 64.6875 
C 38 65.484375 38 66 37.40625 66 
C 37.296875 66 37.09375 66 36.296875 65.59375 
C 32.796875 64.09375 28.703125 63 23.703125 63 
C 20.703125 63 16.203125 63.359375 11.296875 65.484375 
C 10.203125 66 10 66 9.90625 66 
C 9.40625 66 9.296875 65.890625 9.296875 63.90625 
L 9.296875 34.859375 
C 9.296875 33.015625 9.296875 32.5 10.296875 32.5 
C 10.796875 32.5 11 32.703125 11.5 33.421875 
C 14.703125 38.046875 19.09375 40 24.09375 40 
C 27.59375 40 35.09375 37.734375 35.09375 20.203125 
C 35.09375 16.984375 35.09375 11.1875 32.09375 6.59375 
C 29.59375 2.484375 25.703125 0.390625 21.40625 0.390625 
C 14.796875 0.390625 8.09375 4.984375 6.296875 12.6875 
C 6.703125 12.59375 7.5 12.390625 7.90625 12.390625 
C 9.203125 12.390625 11.703125 13.09375 11.703125 16.1875 
C 11.703125 18.890625 9.796875 20 7.90625 20 
C 5.59375 20 4.09375 18.59375 4.09375 15.796875 
C 4.09375 7.09375 11 -2 21.59375 -2 
C 31.90625 -2 41.703125 6.890625 41.703125 19.796875 
C 41.703125 32.09375 33.90625 41.59375 24.203125 41.59375 
C 19.09375 41.59375 14.796875 39.6875 11.40625 36 
z
" id="CMR17-53"/>
      </defs>
      <g transform="translate(97.153505 212.25018)scale(0.12 -0.12)">
       <use transform="scale(0.996264)" xlink:href="#CMR17-53"/>
      </g>
     </g>
    </g>
    <g id="xtick_3">
     <g id="line2d_7">
      <path clip-path="url(#pc7f5bcc67a)" d="M 156.96 200.448 
L 156.96 16.128 
" style="fill:none;stroke:#b0b0b0;stroke-dasharray:2.96,1.28;stroke-dashoffset:0;stroke-width:0.8;"/>
     </g>
     <g id="line2d_8">
      <g>
       <use style="stroke:#000000;stroke-width:0.8;" x="156.96" xlink:href="#m0908baf645" y="200.448"/>
      </g>
     </g>
     <g id="line2d_9">
      <g>
       <use style="stroke:#000000;stroke-width:0.8;" x="156.96" xlink:href="#m773690fab7" y="16.128"/>
      </g>
     </g>
     <g id="text_3">
      <!-- $10$ -->
      <defs>
       <path d="M 26.59375 63.796875 
C 26.59375 65.890625 26.5 66 25.09375 66 
C 21.203125 61.359375 15.296875 59.890625 9.703125 59.6875 
C 9.40625 59.6875 8.90625 59.6875 8.796875 59.5 
C 8.703125 59.296875 8.703125 59.09375 8.703125 57 
C 11.796875 57 17 57.59375 21 59.984375 
L 21 7.296875 
C 21 3.796875 20.796875 2.59375 12.203125 2.59375 
L 9.203125 2.59375 
L 9.203125 0 
C 14 0.09375 19 0.1875 23.796875 0.1875 
C 28.59375 0.1875 33.59375 0.09375 38.40625 0 
L 38.40625 2.59375 
L 35.40625 2.59375 
C 26.796875 2.59375 26.59375 3.6875 26.59375 7.296875 
z
" id="CMR17-49"/>
      </defs>
      <g transform="translate(151.10701 212.25018)scale(0.12 -0.12)">
       <use transform="scale(0.996264)" xlink:href="#CMR17-49"/>
       <use transform="translate(45.690477 0)scale(0.996264)" xlink:href="#CMR17-48"/>
      </g>
     </g>
    </g>
    <g id="xtick_4">
     <g id="line2d_10">
      <path clip-path="url(#pc7f5bcc67a)" d="M 213.84 200.448 
L 213.84 16.128 
" style="fill:none;stroke:#b0b0b0;stroke-dasharray:2.96,1.28;stroke-dashoffset:0;stroke-width:0.8;"/>
     </g>
     <g id="line2d_11">
      <g>
       <use style="stroke:#000000;stroke-width:0.8;" x="213.84" xlink:href="#m0908baf645" y="200.448"/>
      </g>
     </g>
     <g id="line2d_12">
      <g>
       <use style="stroke:#000000;stroke-width:0.8;" x="213.84" xlink:href="#m773690fab7" y="16.128"/>
      </g>
     </g>
     <g id="text_4">
      <!-- $15$ -->
      <g transform="translate(207.98701 212.25018)scale(0.12 -0.12)">
       <use transform="scale(0.996264)" xlink:href="#CMR17-49"/>
       <use transform="translate(45.690477 0)scale(0.996264)" xlink:href="#CMR17-53"/>
      </g>
     </g>
    </g>
    <g id="xtick_5">
     <g id="line2d_13">
      <path clip-path="url(#pc7f5bcc67a)" d="M 270.72 200.448 
L 270.72 16.128 
" style="fill:none;stroke:#b0b0b0;stroke-dasharray:2.96,1.28;stroke-dashoffset:0;stroke-width:0.8;"/>
     </g>
     <g id="line2d_14">
      <g>
       <use style="stroke:#000000;stroke-width:0.8;" x="270.72" xlink:href="#m0908baf645" y="200.448"/>
      </g>
     </g>
     <g id="line2d_15">
      <g>
       <use style="stroke:#000000;stroke-width:0.8;" x="270.72" xlink:href="#m773690fab7" y="16.128"/>
      </g>
     </g>
     <g id="text_5">
      <!-- $20$ -->
      <defs>
       <path d="M 41.703125 15.46875 
L 39.90625 15.46875 
C 38.90625 8.390625 38.09375 7.1875 37.703125 6.59375 
C 37.203125 5.796875 30 5.796875 28.59375 5.796875 
L 9.40625 5.796875 
C 13 9.6875 20 16.765625 28.5 24.9375 
C 34.59375 30.71875 41.703125 37.5 41.703125 47.390625 
C 41.703125 59.1875 32.296875 66 21.796875 66 
C 10.796875 66 4.09375 56.296875 4.09375 47.296875 
C 4.09375 43.390625 7 42.890625 8.203125 42.890625 
C 9.203125 42.890625 12.203125 43.484375 12.203125 46.984375 
C 12.203125 50.09375 9.59375 51 8.203125 51 
C 7.59375 51 7 50.890625 6.59375 50.6875 
C 8.5 59.1875 14.296875 63.390625 20.40625 63.390625 
C 29.09375 63.390625 34.796875 56.5 34.796875 47.390625 
C 34.796875 38.703125 29.703125 31.21875 24 24.734375 
L 4.09375 2.296875 
L 4.09375 0 
L 39.296875 0 
z
" id="CMR17-50"/>
      </defs>
      <g transform="translate(264.86701 212.25018)scale(0.12 -0.12)">
       <use transform="scale(0.996264)" xlink:href="#CMR17-50"/>
       <use transform="translate(45.690477 0)scale(0.996264)" xlink:href="#CMR17-48"/>
      </g>
     </g>
    </g>
    <g id="text_6">
     <!-- $x$ -->
     <defs>
      <path d="M 47.40625 41 
C 44.203125 40.390625 43 37.984375 43 36.09375 
C 43 33.6875 44.90625 32.890625 46.296875 32.890625 
C 49.296875 32.890625 51.40625 35.484375 51.40625 38.1875 
C 51.40625 42.09375 46.59375 44 42.40625 44 
C 36.296875 44 32.90625 38.296875 32 36.390625 
C 29.703125 43.59375 23.5 44 21.703125 44 
C 11.5 44 6.09375 31.140625 6.09375 28.890625 
C 6.09375 28.484375 6.5 27.96875 7.203125 27.96875 
C 8 27.96875 8.203125 28.578125 8.40625 28.984375 
C 11.796875 40.1875 18.5 41.984375 21.40625 41.984375 
C 25.90625 41.984375 26.796875 38.09375 26.796875 35.6875 
C 26.796875 33.484375 26.203125 31.140625 25 26.21875 
L 21.59375 12.15625 
C 20.09375 6.09375 17.203125 1 11.90625 1 
C 11.40625 1 8.90625 1 6.796875 1.96875 
C 10.40625 2.59375 11.203125 5.59375 11.203125 6.796875 
C 11.203125 8.796875 9.703125 10 7.796875 10 
C 5.40625 10 2.796875 7.890625 2.796875 4.6875 
C 2.796875 0.890625 7.5 -1 11.796875 -1 
C 16.59375 -1 20 2.390625 22.09375 6.484375 
C 23.703125 1 28.703125 -1 32.40625 -1 
C 42.59375 -1 48 11.734375 48 14 
C 48 14.515625 47.59375 14.921875 47 14.921875 
C 46.09375 14.921875 46 14.40625 45.703125 13.59375 
C 43 4.6875 37.203125 1 32.703125 1 
C 29.203125 1 27.296875 3.1875 27.296875 7.296875 
C 27.296875 9.484375 27.703125 11.125 29.296875 17.90625 
L 32.796875 31.859375 
C 34.296875 37.890625 37.703125 41.984375 42.296875 41.984375 
C 42.5 41.984375 45.296875 41.984375 47.40625 41 
z
" id="CMMI12-120"/>
     </defs>
     <g transform="translate(153.633956 226.876955)scale(0.12 -0.12)">
      <use transform="scale(0.996264)" xlink:href="#CMMI12-120"/>
     </g>
    </g>
   </g>
   <g id="matplotlib.axis_2">
    <g id="ytick_1">
     <g id="line2d_16">
      <path clip-path="url(#pc7f5bcc67a)" d="M 43.2 200.448 
L 270.72 200.448 
" style="fill:none;stroke:#b0b0b0;stroke-dasharray:2.96,1.28;stroke-dashoffset:0;stroke-width:0.8;"/>
     </g>
     <g id="line2d_17">
      <defs>
       <path d="M 0 0 
L 3.5 0 
" id="mae283d46ab" style="stroke:#000000;stroke-width:0.8;"/>
      </defs>
      <g>
       <use style="stroke:#000000;stroke-width:0.8;" x="43.2" xlink:href="#mae283d46ab" y="200.448"/>
      </g>
     </g>
     <g id="line2d_18">
      <defs>
       <path d="M 0 0 
L -3.5 0 
" id="m44e13b2d2b" style="stroke:#000000;stroke-width:0.8;"/>
      </defs>
      <g>
       <use style="stroke:#000000;stroke-width:0.8;" x="270.72" xlink:href="#m44e13b2d2b" y="200.448"/>
      </g>
     </g>
     <g id="text_7">
      <!-- $0.0$ -->
      <defs>
       <path d="M 18.40625 4.796875 
C 18.40625 7.6875 16 9.6875 13.59375 9.6875 
C 10.703125 9.6875 8.703125 7.296875 8.703125 4.890625 
C 8.703125 2 11.09375 0 13.5 0 
C 16.40625 0 18.40625 2.390625 18.40625 4.796875 
z
" id="CMMI12-58"/>
      </defs>
      <g transform="translate(24.742358 204.59909)scale(0.12 -0.12)">
       <use transform="scale(0.996264)" xlink:href="#CMR17-48"/>
       <use transform="translate(45.690477 0)scale(0.996264)" xlink:href="#CMMI12-58"/>
       <use transform="translate(72.787654 0)scale(0.996264)" xlink:href="#CMR17-48"/>
      </g>
     </g>
    </g>
    <g id="ytick_2">
     <g id="line2d_19">
      <path clip-path="url(#pc7f5bcc67a)" d="M 43.2 165.339429 
L 270.72 165.339429 
" style="fill:none;stroke:#b0b0b0;stroke-dasharray:2.96,1.28;stroke-dashoffset:0;stroke-width:0.8;"/>
     </g>
     <g id="line2d_20">
      <g>
       <use style="stroke:#000000;stroke-width:0.8;" x="43.2" xlink:href="#mae283d46ab" y="165.339429"/>
      </g>
     </g>
     <g id="line2d_21">
      <g>
       <use style="stroke:#000000;stroke-width:0.8;" x="270.72" xlink:href="#m44e13b2d2b" y="165.339429"/>
      </g>
     </g>
     <g id="text_8">
      <!-- $0.2$ -->
      <g transform="translate(24.742358 169.490518)scale(0.12 -0.12)">
       <use transform="scale(0.996264)" xlink:href="#CMR17-48"/>
       <use transform="translate(45.690477 0)scale(0.996264)" xlink:href="#CMMI12-58"/>
       <use transform="translate(72.787654 0)scale(0.996264)" xlink:href="#CMR17-50"/>
      </g>
     </g>
    </g>
    <g id="ytick_3">
     <g id="line2d_22">
      <path clip-path="url(#pc7f5bcc67a)" d="M 43.2 130.230857 
L 270.72 130.230857 
" style="fill:none;stroke:#b0b0b0;stroke-dasharray:2.96,1.28;stroke-dashoffset:0;stroke-width:0.8;"/>
     </g>
     <g id="line2d_23">
      <g>
       <use style="stroke:#000000;stroke-width:0.8;" x="43.2" xlink:href="#mae283d46ab" y="130.230857"/>
      </g>
     </g>
     <g id="line2d_24">
      <g>
       <use style="stroke:#000000;stroke-width:0.8;" x="270.72" xlink:href="#m44e13b2d2b" y="130.230857"/>
      </g>
     </g>
     <g id="text_9">
      <!-- $0.4$ -->
      <defs>
       <path d="M 33.59375 64.796875 
C 33.59375 66.890625 33.5 67 31.703125 67 
L 2 19.59375 
L 2 17 
L 27.796875 17 
L 27.796875 7.1875 
C 27.796875 3.59375 27.59375 2.59375 20.59375 2.59375 
L 18.703125 2.59375 
L 18.703125 0 
C 21.90625 0.1875 27.296875 0.1875 30.703125 0.1875 
C 34.09375 0.1875 39.5 0.1875 42.703125 0 
L 42.703125 2.59375 
L 40.796875 2.59375 
C 33.796875 2.59375 33.59375 3.59375 33.59375 7.1875 
L 33.59375 17 
L 43.796875 17 
L 43.796875 19.59375 
L 33.59375 19.59375 
z
M 28.09375 58.171875 
L 28.09375 19.59375 
L 4 19.59375 
z
" id="CMR17-52"/>
      </defs>
      <g transform="translate(24.742358 134.381947)scale(0.12 -0.12)">
       <use transform="scale(0.996264)" xlink:href="#CMR17-48"/>
       <use transform="translate(45.690477 0)scale(0.996264)" xlink:href="#CMMI12-58"/>
       <use transform="translate(72.787654 0)scale(0.996264)" xlink:href="#CMR17-52"/>
      </g>
     </g>
    </g>
    <g id="ytick_4">
     <g id="line2d_25">
      <path clip-path="url(#pc7f5bcc67a)" d="M 43.2 95.122286 
L 270.72 95.122286 
" style="fill:none;stroke:#b0b0b0;stroke-dasharray:2.96,1.28;stroke-dashoffset:0;stroke-width:0.8;"/>
     </g>
     <g id="line2d_26">
      <g>
       <use style="stroke:#000000;stroke-width:0.8;" x="43.2" xlink:href="#mae283d46ab" y="95.122286"/>
      </g>
     </g>
     <g id="line2d_27">
      <g>
       <use style="stroke:#000000;stroke-width:0.8;" x="270.72" xlink:href="#m44e13b2d2b" y="95.122286"/>
      </g>
     </g>
     <g id="text_10">
      <!-- $0.6$ -->
      <defs>
       <path d="M 10.59375 34.34375 
C 10.59375 58 21.796875 63.6875 28.296875 63.6875 
C 30.40625 63.6875 35.5 63.265625 37.5 59.09375 
C 35.90625 59.09375 32.90625 59.09375 32.90625 55.59375 
C 32.90625 52.890625 35.09375 52 36.5 52 
C 37.40625 52 40.09375 52.390625 40.09375 55.796875 
C 40.09375 62.296875 35.09375 66 28.203125 66 
C 16.296875 66 3.796875 53.296875 3.796875 31.421875 
C 3.796875 4.015625 15.09375 -2 23.09375 -2 
C 32.796875 -2 42 6.734375 42 20.234375 
C 42 32.828125 33.90625 42 23.703125 42 
C 17.59375 42 13.09375 37.96875 10.59375 30.921875 
z
M 23.09375 0.390625 
C 10.796875 0.390625 10.796875 18.9375 10.796875 22.65625 
C 10.796875 29.90625 14.203125 40.390625 23.5 40.390625 
C 25.203125 40.390625 30.09375 40.390625 33.40625 33.4375 
C 35.203125 29.515625 35.203125 25.375 35.203125 20.34375 
C 35.203125 14.90625 35.203125 10.875 33.09375 6.84375 
C 30.90625 2.703125 27.703125 0.390625 23.09375 0.390625 
z
" id="CMR17-54"/>
      </defs>
      <g transform="translate(24.742358 99.273376)scale(0.12 -0.12)">
       <use transform="scale(0.996264)" xlink:href="#CMR17-48"/>
       <use transform="translate(45.690477 0)scale(0.996264)" xlink:href="#CMMI12-58"/>
       <use transform="translate(72.787654 0)scale(0.996264)" xlink:href="#CMR17-54"/>
      </g>
     </g>
    </g>
    <g id="ytick_5">
     <g id="line2d_28">
      <path clip-path="url(#pc7f5bcc67a)" d="M 43.2 60.013714 
L 270.72 60.013714 
" style="fill:none;stroke:#b0b0b0;stroke-dasharray:2.96,1.28;stroke-dashoffset:0;stroke-width:0.8;"/>
     </g>
     <g id="line2d_29">
      <g>
       <use style="stroke:#000000;stroke-width:0.8;" x="43.2" xlink:href="#mae283d46ab" y="60.013714"/>
      </g>
     </g>
     <g id="line2d_30">
      <g>
       <use style="stroke:#000000;stroke-width:0.8;" x="270.72" xlink:href="#m44e13b2d2b" y="60.013714"/>
      </g>
     </g>
     <g id="text_11">
      <!-- $0.8$ -->
      <defs>
       <path d="M 27.203125 35.765625 
C 33.5 38.96875 39.90625 43.796875 39.90625 51.53125 
C 39.90625 60.6875 31.09375 66 23 66 
C 13.90625 66 5.90625 59.375 5.90625 50.234375 
C 5.90625 47.71875 6.5 43.390625 10.40625 39.578125 
C 11.40625 38.578125 15.59375 35.5625 18.296875 33.65625 
C 13.796875 31.34375 3.296875 25.8125 3.296875 14.765625 
C 3.296875 4.40625 13.09375 -2 22.796875 -2 
C 33.5 -2 42.5 5.71875 42.5 15.96875 
C 42.5 25.109375 36.40625 29.328125 32.40625 32.046875 
z
M 14.09375 44.609375 
C 13.296875 45.109375 9.296875 48.21875 9.296875 52.9375 
C 9.296875 59.078125 15.59375 63.6875 22.796875 63.6875 
C 30.703125 63.6875 36.5 58.0625 36.5 51.53125 
C 36.5 42.1875 26.09375 36.859375 25.59375 36.859375 
C 25.5 36.859375 25.40625 36.859375 24.59375 37.46875 
z
M 32.5 24 
C 34 22.90625 38.796875 19.578125 38.796875 13.453125 
C 38.796875 6.015625 31.40625 0.390625 23 0.390625 
C 13.90625 0.390625 7 6.921875 7 14.859375 
C 7 22.796875 13.09375 29.4375 20 32.546875 
z
" id="CMR17-56"/>
      </defs>
      <g transform="translate(24.742358 64.164804)scale(0.12 -0.12)">
       <use transform="scale(0.996264)" xlink:href="#CMR17-48"/>
       <use transform="translate(45.690477 0)scale(0.996264)" xlink:href="#CMMI12-58"/>
       <use transform="translate(72.787654 0)scale(0.996264)" xlink:href="#CMR17-56"/>
      </g>
     </g>
    </g>
    <g id="ytick_6">
     <g id="line2d_31">
      <path clip-path="url(#pc7f5bcc67a)" d="M 43.2 24.905143 
L 270.72 24.905143 
" style="fill:none;stroke:#b0b0b0;stroke-dasharray:2.96,1.28;stroke-dashoffset:0;stroke-width:0.8;"/>
     </g>
     <g id="line2d_32">
      <g>
       <use style="stroke:#000000;stroke-width:0.8;" x="43.2" xlink:href="#mae283d46ab" y="24.905143"/>
      </g>
     </g>
     <g id="line2d_33">
      <g>
       <use style="stroke:#000000;stroke-width:0.8;" x="270.72" xlink:href="#m44e13b2d2b" y="24.905143"/>
      </g>
     </g>
     <g id="text_12">
      <!-- $1.0$ -->
      <g transform="translate(24.742358 29.056233)scale(0.12 -0.12)">
       <use transform="scale(0.996264)" xlink:href="#CMR17-49"/>
       <use transform="translate(45.690477 0)scale(0.996264)" xlink:href="#CMMI12-58"/>
       <use transform="translate(72.787654 0)scale(0.996264)" xlink:href="#CMR17-48"/>
      </g>
     </g>
    </g>
    <g id="text_13">
     <!-- $P(X\le x)$ -->
     <defs>
      <path d="M 29.59375 31.59375 
L 46.40625 31.59375 
C 60.203125 31.59375 74 41.765625 74 53.125 
C 74 60.90625 67.40625 68 54.796875 68 
L 23.90625 68 
C 22 68 21.09375 68 21.09375 66.09375 
C 21.09375 65.09375 22 65.09375 23.5 65.09375 
C 29.59375 65.09375 29.59375 64.296875 29.59375 63.203125 
C 29.59375 63 29.59375 62.40625 29.203125 60.90625 
L 15.703125 7.359375 
C 14.796875 3.890625 14.59375 2.890625 7.59375 2.890625 
C 5.703125 2.890625 4.703125 2.890625 4.703125 1.09375 
C 4.703125 0 5.59375 0 6.203125 0 
C 8.09375 0 10.09375 0.1875 12 0.1875 
L 23.703125 0.1875 
C 25.59375 0.1875 27.703125 0 29.59375 0 
C 30.40625 0 31.5 0 31.5 1.890625 
C 31.5 2.890625 30.59375 2.890625 29.09375 2.890625 
C 23.09375 2.890625 23 3.59375 23 4.578125 
C 23 5.078125 23.09375 5.765625 23.203125 6.265625 
z
M 36.796875 61.203125 
C 37.703125 64.890625 38.09375 65.09375 42 65.09375 
L 51.90625 65.09375 
C 59.40625 65.09375 65.59375 62.703125 65.59375 55.21875 
C 65.59375 52.640625 64.296875 44.15625 59.703125 39.578125 
C 58 37.78125 53.203125 34 44.09375 34 
L 30 34 
z
" id="CMMI12-80"/>
      <path d="M 30.59375 -24.40625 
C 30.59375 -24.3125 30.59375 -24.109375 30.296875 -23.8125 
C 25.703125 -19.109375 13.40625 -6.296875 13.40625 24.9375 
C 13.40625 56.171875 25.5 68.875 30.40625 73.890625 
C 30.40625 73.984375 30.59375 74.1875 30.59375 74.484375 
C 30.59375 74.796875 30.296875 75 29.90625 75 
C 28.796875 75 20.296875 67.578125 15.40625 56.5625 
C 10.40625 45.453125 9 34.65625 9 25.046875 
C 9 17.828125 9.703125 5.625 15.703125 -7.296875 
C 20.5 -17.703125 28.703125 -25 29.90625 -25 
C 30.40625 -25 30.59375 -24.8125 30.59375 -24.40625 
z
" id="CMR17-40"/>
      <path d="M 47.5 40.40625 
L 38.09375 62.203125 
C 39.40625 64.59375 42.40625 64.984375 43.59375 65.09375 
C 44.203125 65.09375 45.296875 65.1875 45.296875 66.890625 
C 45.296875 68 44.40625 68 43.796875 68 
C 42.09375 68 40.09375 67.796875 38.40625 67.796875 
L 32.59375 67.796875 
C 26.5 67.796875 22.09375 68 22 68 
C 21.203125 68 20.203125 68 20.203125 66.09375 
C 20.203125 65.09375 21.09375 65.09375 22.40625 65.09375 
C 28.203125 65.09375 28.59375 64.09375 29.59375 61.703125 
L 41.5 34.046875 
L 19.796875 10.953125 
C 16.203125 7.078125 11.90625 3.296875 4.5 2.890625 
C 3.296875 2.796875 2.5 2.796875 2.5 1 
C 2.5 0.6875 2.59375 0 3.703125 0 
C 5.09375 0 6.59375 0.1875 8 0.1875 
L 12.703125 0.1875 
C 15.90625 0.1875 19.40625 0 22.5 0 
C 23.203125 0 24.40625 0 24.40625 1.796875 
C 24.40625 2.796875 23.703125 2.890625 23.09375 2.890625 
C 21.09375 3.09375 19.796875 4.1875 19.796875 5.78125 
C 19.796875 7.46875 21 8.671875 23.90625 11.65625 
L 32.796875 21.296875 
C 35 23.59375 40.296875 29.359375 42.5 31.546875 
L 53 7.078125 
C 53.09375 6.875 53.5 5.875 53.5 5.78125 
C 53.5 4.875 51.296875 3.09375 48.09375 2.890625 
C 47.5 2.890625 46.40625 2.796875 46.40625 1 
C 46.40625 0 47.40625 0 47.90625 0 
C 49.59375 0 51.59375 0.1875 53.296875 0.1875 
L 64.296875 0.1875 
C 66.09375 0.1875 68 0 69.703125 0 
C 70.40625 0 71.5 0 71.5 1.890625 
C 71.5 2.890625 70.5 2.890625 69.59375 2.890625 
C 63.59375 2.984375 63.40625 3.484375 61.703125 7.171875 
L 48.5 38.015625 
L 61.203125 51.5625 
C 62.203125 52.546875 64.5 55.046875 65.40625 56.03125 
C 69.703125 60.515625 73.703125 64.59375 81.796875 65.09375 
C 82.796875 65.1875 83.796875 65.1875 83.796875 66.890625 
C 83.796875 68 82.90625 68 82.5 68 
C 81.09375 68 79.59375 67.796875 78.203125 67.796875 
L 73.59375 67.796875 
C 70.40625 67.796875 66.90625 68 63.796875 68 
C 63.09375 68 61.90625 68 61.90625 66.1875 
C 61.90625 65.1875 62.59375 65.09375 63.203125 65.09375 
C 64.796875 64.890625 66.5 64.09375 66.5 62.203125 
L 66.40625 62 
C 66.296875 61.3125 66.09375 60.3125 65 59.125 
z
" id="CMMI12-88"/>
      <path d="M 67.5 59.78125 
C 68.59375 60.28125 69.40625 60.78125 69.40625 61.984375 
C 69.40625 63.09375 68.59375 64 67.40625 64 
C 66.90625 64 66 63.59375 65.59375 63.390625 
L 10.296875 37.203125 
C 8.59375 36.390625 8.296875 35.6875 8.296875 34.890625 
C 8.296875 33.984375 8.90625 33.28125 10.296875 32.6875 
L 65.59375 6.59375 
C 66.90625 5.890625 67.09375 5.890625 67.40625 5.890625 
C 68.5 5.890625 69.40625 6.796875 69.40625 7.890625 
C 69.40625 8.796875 69 9.390625 67.296875 10.203125 
L 15 34.890625 
z
M 65.90625 -14 
C 67.59375 -14 69.40625 -14 69.40625 -12 
C 69.40625 -10 67.296875 -10 65.796875 -10 
L 11.90625 -10 
C 10.40625 -10 8.296875 -10 8.296875 -12 
C 8.296875 -14 10.09375 -14 11.796875 -14 
z
" id="CMSY10-20"/>
      <path d="M 26.296875 24.9375 
C 26.296875 32.140625 25.59375 44.359375 19.59375 57.265625 
C 14.796875 67.6875 6.59375 75 5.40625 75 
C 5.09375 75 4.703125 74.890625 4.703125 74.390625 
C 4.703125 74.1875 4.796875 74.09375 4.90625 73.890625 
C 9.703125 68.875 21.90625 56.171875 21.90625 25.046875 
C 21.90625 -6.1875 9.796875 -18.90625 4.90625 -23.90625 
C 4.796875 -24.109375 4.703125 -24.203125 4.703125 -24.40625 
C 4.703125 -24.90625 5.09375 -25 5.40625 -25 
C 6.5 -25 15 -17.609375 19.90625 -6.59375 
C 24.90625 4.515625 26.296875 15.328125 26.296875 24.9375 
z
" id="CMR17-41"/>
     </defs>
     <g transform="translate(17.753566 134.049541)rotate(-90)scale(0.12 -0.12)">
      <use transform="scale(0.996264)" xlink:href="#CMMI12-80"/>
      <use transform="translate(76.425821 0)scale(0.996264)" xlink:href="#CMR17-40"/>
      <use transform="translate(111.706589 0)scale(0.996264)" xlink:href="#CMMI12-88"/>
      <use transform="translate(228.173159 0)scale(0.996264)" xlink:href="#CMSY10-20"/>
      <use transform="translate(333.334636 0)scale(0.996264)" xlink:href="#CMMI12-120"/>
      <use transform="translate(388.768695 0)scale(0.996264)" xlink:href="#CMR17-41"/>
     </g>
    </g>
   </g>
   <g id="line2d_34">
    <path clip-path="url(#pc7f5bcc67a)" d="M 43.2 200.448 
L 44.67888 200.345946 
L 45.4752 200.078949 
L 46.15776 199.64386 
L 46.84032 198.964288 
L 47.52288 197.994326 
L 48.3192 196.442938 
L 49.11552 194.391032 
L 50.0256 191.385733 
L 51.04944 187.12603 
L 52.18704 181.295175 
L 53.4384 173.60288 
L 54.91728 162.973174 
L 56.73744 148.095007 
L 59.6952 121.700732 
L 62.88048 93.844536 
L 64.8144 78.75699 
L 66.5208 67.107701 
L 67.99968 58.407804 
L 69.47856 51.021882 
L 70.84368 45.326015 
L 72.09504 40.98328 
L 73.3464 37.400998 
L 74.59776 34.491988 
L 75.84912 32.165806 
L 77.10048 30.333636 
L 78.35184 28.91193 
L 79.6032 27.824849 
L 80.96832 26.942382 
L 82.4472 26.261164 
L 84.1536 25.734392 
L 86.20128 25.350627 
L 88.93152 25.089685 
L 93.02688 24.949101 
L 102.69648 24.906014 
L 270.60624 24.905143 
L 270.60624 24.905143 
" style="fill:none;stroke:#0000ff;stroke-linecap:square;stroke-width:1.5;"/>
   </g>
   <g id="line2d_35">
    <path clip-path="url(#pc7f5bcc67a)" d="M 43.2 200.448 
L 46.15776 200.345946 
L 47.7504 200.078949 
L 49.11552 199.64386 
L 50.36688 199.031416 
L 51.61824 198.177923 
L 52.8696 197.052082 
L 54.12096 195.627351 
L 55.48608 193.707237 
L 56.8512 191.385733 
L 58.33008 188.403668 
L 59.92272 184.64376 
L 61.62912 179.993358 
L 63.44928 174.354548 
L 65.49696 167.241035 
L 67.77216 158.506201 
L 70.5024 147.1156 
L 74.484 129.426024 
L 81.19584 99.568863 
L 84.26736 86.964395 
L 86.88384 77.107919 
L 89.2728 68.931546 
L 91.548 61.927272 
L 93.70944 55.996549 
L 95.75712 51.021882 
L 97.69104 46.880265 
L 99.62496 43.252506 
L 101.55888 40.105379 
L 103.37904 37.548543 
L 105.1992 35.350044 
L 107.13312 33.367805 
L 109.06704 31.709131 
L 111.00096 30.333636 
L 113.04864 29.143426 
L 115.21008 28.138692 
L 117.59904 27.276349 
L 120.21552 26.57094 
L 123.17328 26.004091 
L 126.69984 25.559021 
L 131.13648 25.233445 
L 137.27952 25.023567 
L 147.74544 24.922643 
L 186.08256 24.905145 
L 270.60624 24.905143 
L 270.60624 24.905143 
" style="fill:none;stroke:#ff0000;stroke-linecap:square;stroke-width:1.5;"/>
   </g>
   <g id="line2d_36">
    <path clip-path="url(#pc7f5bcc67a)" d="M 43.2 200.448 
L 50.70816 200.341179 
L 54.80352 200.05655 
L 58.33008 199.587706 
L 61.51536 198.936873 
L 64.47312 198.105576 
L 67.31712 197.075147 
L 70.04736 195.85404 
L 72.7776 194.391032 
L 75.50784 192.67476 
L 78.23808 190.697109 
L 81.08208 188.353958 
L 83.92608 185.720354 
L 86.88384 182.675678 
L 89.95536 179.19114 
L 93.14064 175.243163 
L 96.55344 170.656444 
L 100.19376 165.389126 
L 104.17536 159.233357 
L 108.72576 151.771238 
L 114.07248 142.554626 
L 121.46688 129.323127 
L 135.00432 105.060532 
L 140.80608 95.163903 
L 145.81152 87.053923 
L 150.36192 80.096566 
L 154.57104 74.054187 
L 158.6664 68.562929 
L 162.53424 63.741666 
L 166.28832 59.407236 
L 170.0424 55.413145 
L 173.68272 51.861244 
L 177.32304 48.618192 
L 180.96336 45.673696 
L 184.60368 43.015012 
L 188.244 40.627457 
L 191.99808 38.432181 
L 195.86592 36.434159 
L 199.84752 34.634813 
L 203.94288 33.032109 
L 208.26576 31.585692 
L 212.81616 30.304365 
L 217.59408 29.191088 
L 222.82704 28.204884 
L 228.51504 27.363365 
L 234.8856 26.650835 
L 242.16624 26.066697 
L 250.812 25.605319 
L 261.50544 25.267166 
L 270.60624 25.105715 
L 270.60624 25.105715 
" style="fill:none;stroke:#008000;stroke-linecap:square;stroke-width:1.5;"/>
   </g>
   <g id="patch_3">
    <path d="M 43.2 200.448 
L 43.2 16.128 
" style="fill:none;stroke:#000000;stroke-linecap:square;stroke-linejoin:miter;stroke-width:0.8;"/>
   </g>
   <g id="patch_4">
    <path d="M 270.72 200.448 
L 270.72 16.128 
" style="fill:none;stroke:#000000;stroke-linecap:square;stroke-linejoin:miter;stroke-width:0.8;"/>
   </g>
   <g id="patch_5">
    <path d="M 43.2 200.448 
L 270.72 200.448 
" style="fill:none;stroke:#000000;stroke-linecap:square;stroke-linejoin:miter;stroke-width:0.8;"/>
   </g>
   <g id="patch_6">
    <path d="M 43.2 16.128 
L 270.72 16.128 
" style="fill:none;stroke:#000000;stroke-linecap:square;stroke-linejoin:miter;stroke-width:0.8;"/>
   </g>
   <g id="legend_1">
    <g id="patch_7">
     <path d="M 214.775759 194.448 
L 262.32 194.448 
Q 264.72 194.448 264.72 192.048 
L 264.72 143.074213 
Q 264.72 140.674213 262.32 140.674213 
L 214.775759 140.674213 
Q 212.375759 140.674213 212.375759 143.074213 
L 212.375759 192.048 
Q 212.375759 194.448 214.775759 194.448 
z
" style="fill:#ffffff;stroke:#cccccc;stroke-linejoin:miter;"/>
    </g>
    <g id="line2d_37">
     <path d="M 217.175759 149.674213 
L 226.175759 149.674213 
" style="fill:none;stroke:#0000ff;stroke-linecap:square;stroke-width:1.5;"/>
    </g>
    <g id="line2d_38"/>
    <g id="text_14">
     <!-- $a=1$ -->
     <defs>
      <path d="M 30.09375 11.859375 
C 29.59375 10.171875 29.59375 9.96875 28.203125 8.078125 
C 26 5.28125 21.59375 1 16.90625 1 
C 12.796875 1 10.5 4.6875 10.5 10.5625 
C 10.5 16.0625 13.59375 27.234375 15.5 31.421875 
C 18.90625 38.40625 23.59375 41.984375 27.5 41.984375 
C 34.09375 41.984375 35.40625 33.8125 35.40625 33.015625 
C 35.40625 32.921875 35.09375 31.625 35 31.421875 
z
M 36.5 37.40625 
C 35.40625 40 32.703125 44 27.5 44 
C 16.203125 44 4 29.421875 4 14.65625 
C 4 4.78125 9.796875 -1 16.59375 -1 
C 22.09375 -1 26.796875 3.28125 29.59375 6.578125 
C 30.59375 0.6875 35.296875 -1 38.296875 -1 
C 41.296875 -1 43.703125 0.796875 45.5 4.375 
C 47.09375 7.75 48.5 13.828125 48.5 14.21875 
C 48.5 14.71875 48.09375 15.125 47.5 15.125 
C 46.59375 15.125 46.5 14.625 46.09375 13.125 
C 44.59375 7.265625 42.703125 1 38.59375 1 
C 35.703125 1 35.5 3.578125 35.5 5.5625 
C 35.5 7.859375 35.796875 8.953125 36.703125 12.828125 
C 37.40625 15.3125 37.90625 17.5 38.703125 20.390625 
C 42.40625 35.3125 43.296875 38.890625 43.296875 39.5 
C 43.296875 40.890625 42.203125 42 40.703125 42 
C 37.5 42 36.703125 38.5 36.5 37.3125 
z
" id="CMMI12-97"/>
      <path d="M 64.296875 32 
C 65.796875 32 67.296875 32 67.296875 33.6875 
C 67.296875 35.5 65.59375 35.5 63.90625 35.5 
L 8 35.5 
C 6.296875 35.5 4.59375 35.5 4.59375 33.6875 
C 4.59375 32 6.09375 32 7.59375 32 
z
M 63.90625 14.484375 
C 65.59375 14.484375 67.296875 14.484375 67.296875 16.296875 
C 67.296875 18 65.796875 18 64.296875 18 
L 7.59375 18 
C 6.09375 18 4.59375 18 4.59375 16.296875 
C 4.59375 14.484375 6.296875 14.484375 8 14.484375 
z
" id="CMR17-61"/>
     </defs>
     <g transform="translate(232.175759 153.874213)scale(0.12 -0.12)">
      <use transform="scale(0.996264)" xlink:href="#CMMI12-97"/>
      <use transform="translate(78.881866 0)scale(0.996264)" xlink:href="#CMR17-61"/>
      <use transform="translate(178.270663 0)scale(0.996264)" xlink:href="#CMR17-49"/>
     </g>
    </g>
    <g id="line2d_39">
     <path d="M 217.175759 166.398808 
L 226.175759 166.398808 
" style="fill:none;stroke:#ff0000;stroke-linecap:square;stroke-width:1.5;"/>
    </g>
    <g id="line2d_40"/>
    <g id="text_15">
     <!-- $a=2$ -->
     <g transform="translate(232.175759 170.598808)scale(0.12 -0.12)">
      <use transform="scale(0.996264)" xlink:href="#CMMI12-97"/>
      <use transform="translate(78.881866 0)scale(0.996264)" xlink:href="#CMR17-61"/>
      <use transform="translate(178.270663 0)scale(0.996264)" xlink:href="#CMR17-50"/>
     </g>
    </g>
    <g id="line2d_41">
     <path d="M 217.175759 183.123404 
L 226.175759 183.123404 
" style="fill:none;stroke:#008000;stroke-linecap:square;stroke-width:1.5;"/>
    </g>
    <g id="line2d_42"/>
    <g id="text_16">
     <!-- $a=5$ -->
     <g transform="translate(232.175759 187.323404)scale(0.12 -0.12)">
      <use transform="scale(0.996264)" xlink:href="#CMMI12-97"/>
      <use transform="translate(78.881866 0)scale(0.996264)" xlink:href="#CMR17-61"/>
      <use transform="translate(178.270663 0)scale(0.996264)" xlink:href="#CMR17-53"/>
     </g>
    </g>
   </g>
  </g>
 </g>
 <defs>
  <clipPath id="pc7f5bcc67a">
   <rect height="184.32" width="227.52" x="43.2" y="16.128"/>
  </clipPath>
 </defs>
</svg>
