<?xml version="1.0" encoding="utf-8" standalone="no"?>
<!DOCTYPE svg PUBLIC "-//W3C//DTD SVG 1.1//EN"
  "http://www.w3.org/Graphics/SVG/1.1/DTD/svg11.dtd">
<!-- Created with matplotlib (https://matplotlib.org/) -->
<svg height="230.4pt" version="1.1" viewBox="0 0 288 230.4" width="288pt" xmlns="http://www.w3.org/2000/svg" xmlns:xlink="http://www.w3.org/1999/xlink">
 <defs>
  <style type="text/css">
*{stroke-linecap:butt;stroke-linejoin:round;}
  </style>
 </defs>
 <g id="figure_1">
  <g id="patch_1">
   <path d="M 0 230.4 
L 288 230.4 
L 288 0 
L 0 0 
z
" style="fill:#ffffff;"/>
  </g>
  <g id="axes_1">
   <g id="patch_2">
    <path d="M 40.32 202.752 
L 279.36 202.752 
L 279.36 13.824 
L 40.32 13.824 
z
" style="fill:#ffffff;"/>
   </g>
   <g id="matplotlib.axis_1">
    <g id="xtick_1">
     <g id="line2d_1">
      <defs>
       <path d="M 0 0 
L 0 -3.5 
" id="m1a16d86b4d" style="stroke:#000000;stroke-width:0.8;"/>
      </defs>
      <g>
       <use style="stroke:#000000;stroke-width:0.8;" x="64.224" xlink:href="#m1a16d86b4d" y="202.752"/>
      </g>
     </g>
     <g id="line2d_2">
      <defs>
       <path d="M 0 0 
L 0 3.5 
" id="mf1da3de7d0" style="stroke:#000000;stroke-width:0.8;"/>
      </defs>
      <g>
       <use style="stroke:#000000;stroke-width:0.8;" x="64.224" xlink:href="#mf1da3de7d0" y="13.824"/>
      </g>
     </g>
     <g id="text_1">
      <!-- $-4$ -->
      <defs>
       <path d="M 65.90625 23 
C 67.59375 23 69.40625 23 69.40625 25 
C 69.40625 27 67.59375 27 65.90625 27 
L 11.796875 27 
C 10.09375 27 8.296875 27 8.296875 25 
C 8.296875 23 10.09375 23 11.796875 23 
z
" id="CMSY10-0"/>
       <path d="M 33.59375 64.796875 
C 33.59375 66.890625 33.5 67 31.703125 67 
L 2 19.59375 
L 2 17 
L 27.796875 17 
L 27.796875 7.1875 
C 27.796875 3.59375 27.59375 2.59375 20.59375 2.59375 
L 18.703125 2.59375 
L 18.703125 0 
C 21.90625 0.1875 27.296875 0.1875 30.703125 0.1875 
C 34.09375 0.1875 39.5 0.1875 42.703125 0 
L 42.703125 2.59375 
L 40.796875 2.59375 
C 33.796875 2.59375 33.59375 3.59375 33.59375 7.1875 
L 33.59375 17 
L 43.796875 17 
L 43.796875 19.59375 
L 33.59375 19.59375 
z
M 28.09375 58.171875 
L 28.09375 19.59375 
L 4 19.59375 
z
" id="CMR17-52"/>
      </defs>
      <g transform="translate(56.64826 214.55418)scale(0.12 -0.12)">
       <use transform="scale(0.996264)" xlink:href="#CMSY10-0"/>
       <use transform="translate(77.487468 0)scale(0.996264)" xlink:href="#CMR17-52"/>
      </g>
     </g>
    </g>
    <g id="xtick_2">
     <g id="line2d_3">
      <g>
       <use style="stroke:#000000;stroke-width:0.8;" x="112.032" xlink:href="#m1a16d86b4d" y="202.752"/>
      </g>
     </g>
     <g id="line2d_4">
      <g>
       <use style="stroke:#000000;stroke-width:0.8;" x="112.032" xlink:href="#mf1da3de7d0" y="13.824"/>
      </g>
     </g>
     <g id="text_2">
      <!-- $-2$ -->
      <defs>
       <path d="M 41.703125 15.46875 
L 39.90625 15.46875 
C 38.90625 8.390625 38.09375 7.1875 37.703125 6.59375 
C 37.203125 5.796875 30 5.796875 28.59375 5.796875 
L 9.40625 5.796875 
C 13 9.6875 20 16.765625 28.5 24.9375 
C 34.59375 30.71875 41.703125 37.5 41.703125 47.390625 
C 41.703125 59.1875 32.296875 66 21.796875 66 
C 10.796875 66 4.09375 56.296875 4.09375 47.296875 
C 4.09375 43.390625 7 42.890625 8.203125 42.890625 
C 9.203125 42.890625 12.203125 43.484375 12.203125 46.984375 
C 12.203125 50.09375 9.59375 51 8.203125 51 
C 7.59375 51 7 50.890625 6.59375 50.6875 
C 8.5 59.1875 14.296875 63.390625 20.40625 63.390625 
C 29.09375 63.390625 34.796875 56.5 34.796875 47.390625 
C 34.796875 38.703125 29.703125 31.21875 24 24.734375 
L 4.09375 2.296875 
L 4.09375 0 
L 39.296875 0 
z
" id="CMR17-50"/>
      </defs>
      <g transform="translate(104.45626 214.55418)scale(0.12 -0.12)">
       <use transform="scale(0.996264)" xlink:href="#CMSY10-0"/>
       <use transform="translate(77.487468 0)scale(0.996264)" xlink:href="#CMR17-50"/>
      </g>
     </g>
    </g>
    <g id="xtick_3">
     <g id="line2d_5">
      <g>
       <use style="stroke:#000000;stroke-width:0.8;" x="159.84" xlink:href="#m1a16d86b4d" y="202.752"/>
      </g>
     </g>
     <g id="line2d_6">
      <g>
       <use style="stroke:#000000;stroke-width:0.8;" x="159.84" xlink:href="#mf1da3de7d0" y="13.824"/>
      </g>
     </g>
     <g id="text_3">
      <!-- $0$ -->
      <defs>
       <path d="M 42 31.84375 
C 42 37.96875 41.90625 48.421875 37.703125 56.453125 
C 34 63.484375 28.09375 66 22.90625 66 
C 18.09375 66 12 63.78125 8.203125 56.5625 
C 4.203125 49.015625 3.796875 39.671875 3.796875 31.84375 
C 3.796875 26.109375 3.90625 17.375 7 9.734375 
C 11.296875 -0.609375 19 -2 22.90625 -2 
C 27.5 -2 34.5 -0.109375 38.59375 9.4375 
C 41.59375 16.375 42 24.5 42 31.84375 
z
M 22.90625 -0.40625 
C 16.5 -0.40625 12.703125 5.125 11.296875 12.75 
C 10.203125 18.6875 10.203125 27.328125 10.203125 32.953125 
C 10.203125 40.6875 10.203125 47.109375 11.5 53.234375 
C 13.40625 61.78125 19 64.390625 22.90625 64.390625 
C 27 64.390625 32.296875 61.671875 34.203125 53.4375 
C 35.5 47.71875 35.59375 40.984375 35.59375 32.953125 
C 35.59375 26.421875 35.59375 18.375 34.40625 12.453125 
C 32.296875 1.5 26.40625 -0.40625 22.90625 -0.40625 
z
" id="CMR17-48"/>
      </defs>
      <g transform="translate(156.913505 214.55418)scale(0.12 -0.12)">
       <use transform="scale(0.996264)" xlink:href="#CMR17-48"/>
      </g>
     </g>
    </g>
    <g id="xtick_4">
     <g id="line2d_7">
      <g>
       <use style="stroke:#000000;stroke-width:0.8;" x="207.648" xlink:href="#m1a16d86b4d" y="202.752"/>
      </g>
     </g>
     <g id="line2d_8">
      <g>
       <use style="stroke:#000000;stroke-width:0.8;" x="207.648" xlink:href="#mf1da3de7d0" y="13.824"/>
      </g>
     </g>
     <g id="text_4">
      <!-- $2$ -->
      <g transform="translate(204.721505 214.55418)scale(0.12 -0.12)">
       <use transform="scale(0.996264)" xlink:href="#CMR17-50"/>
      </g>
     </g>
    </g>
    <g id="xtick_5">
     <g id="line2d_9">
      <g>
       <use style="stroke:#000000;stroke-width:0.8;" x="255.456" xlink:href="#m1a16d86b4d" y="202.752"/>
      </g>
     </g>
     <g id="line2d_10">
      <g>
       <use style="stroke:#000000;stroke-width:0.8;" x="255.456" xlink:href="#mf1da3de7d0" y="13.824"/>
      </g>
     </g>
     <g id="text_5">
      <!-- $4$ -->
      <g transform="translate(252.529505 214.55418)scale(0.12 -0.12)">
       <use transform="scale(0.996264)" xlink:href="#CMR17-52"/>
      </g>
     </g>
    </g>
    <g id="text_6">
     <!-- $x$ -->
     <defs>
      <path d="M 47.40625 41 
C 44.203125 40.390625 43 37.984375 43 36.09375 
C 43 33.6875 44.90625 32.890625 46.296875 32.890625 
C 49.296875 32.890625 51.40625 35.484375 51.40625 38.1875 
C 51.40625 42.09375 46.59375 44 42.40625 44 
C 36.296875 44 32.90625 38.296875 32 36.390625 
C 29.703125 43.59375 23.5 44 21.703125 44 
C 11.5 44 6.09375 31.140625 6.09375 28.890625 
C 6.09375 28.484375 6.5 27.96875 7.203125 27.96875 
C 8 27.96875 8.203125 28.578125 8.40625 28.984375 
C 11.796875 40.1875 18.5 41.984375 21.40625 41.984375 
C 25.90625 41.984375 26.796875 38.09375 26.796875 35.6875 
C 26.796875 33.484375 26.203125 31.140625 25 26.21875 
L 21.59375 12.15625 
C 20.09375 6.09375 17.203125 1 11.90625 1 
C 11.40625 1 8.90625 1 6.796875 1.96875 
C 10.40625 2.59375 11.203125 5.59375 11.203125 6.796875 
C 11.203125 8.796875 9.703125 10 7.796875 10 
C 5.40625 10 2.796875 7.890625 2.796875 4.6875 
C 2.796875 0.890625 7.5 -1 11.796875 -1 
C 16.59375 -1 20 2.390625 22.09375 6.484375 
C 23.703125 1 28.703125 -1 32.40625 -1 
C 42.59375 -1 48 11.734375 48 14 
C 48 14.515625 47.59375 14.921875 47 14.921875 
C 46.09375 14.921875 46 14.40625 45.703125 13.59375 
C 43 4.6875 37.203125 1 32.703125 1 
C 29.203125 1 27.296875 3.1875 27.296875 7.296875 
C 27.296875 9.484375 27.703125 11.125 29.296875 17.90625 
L 32.796875 31.859375 
C 34.296875 37.890625 37.703125 41.984375 42.296875 41.984375 
C 42.5 41.984375 45.296875 41.984375 47.40625 41 
z
" id="CMMI12-120"/>
     </defs>
     <g transform="translate(156.513956 229.180955)scale(0.12 -0.12)">
      <use transform="scale(0.996264)" xlink:href="#CMMI12-120"/>
     </g>
    </g>
   </g>
   <g id="matplotlib.axis_2">
    <g id="ytick_1">
     <g id="line2d_11">
      <defs>
       <path d="M 0 0 
L 3.5 0 
" id="mc4e8383e41" style="stroke:#000000;stroke-width:0.8;"/>
      </defs>
      <g>
       <use style="stroke:#000000;stroke-width:0.8;" x="40.32" xlink:href="#mc4e8383e41" y="202.752"/>
      </g>
     </g>
     <g id="line2d_12">
      <defs>
       <path d="M 0 0 
L -3.5 0 
" id="m9423e60ec6" style="stroke:#000000;stroke-width:0.8;"/>
      </defs>
      <g>
       <use style="stroke:#000000;stroke-width:0.8;" x="279.36" xlink:href="#m9423e60ec6" y="202.752"/>
      </g>
     </g>
     <g id="text_7">
      <!-- $0.0$ -->
      <defs>
       <path d="M 18.40625 4.796875 
C 18.40625 7.6875 16 9.6875 13.59375 9.6875 
C 10.703125 9.6875 8.703125 7.296875 8.703125 4.890625 
C 8.703125 2 11.09375 0 13.5 0 
C 16.40625 0 18.40625 2.390625 18.40625 4.796875 
z
" id="CMMI12-58"/>
      </defs>
      <g transform="translate(21.862358 206.90309)scale(0.12 -0.12)">
       <use transform="scale(0.996264)" xlink:href="#CMR17-48"/>
       <use transform="translate(45.690477 0)scale(0.996264)" xlink:href="#CMMI12-58"/>
       <use transform="translate(72.787654 0)scale(0.996264)" xlink:href="#CMR17-48"/>
      </g>
     </g>
    </g>
    <g id="ytick_2">
     <g id="line2d_13">
      <g>
       <use style="stroke:#000000;stroke-width:0.8;" x="40.32" xlink:href="#mc4e8383e41" y="164.9664"/>
      </g>
     </g>
     <g id="line2d_14">
      <g>
       <use style="stroke:#000000;stroke-width:0.8;" x="279.36" xlink:href="#m9423e60ec6" y="164.9664"/>
      </g>
     </g>
     <g id="text_8">
      <!-- $0.2$ -->
      <g transform="translate(21.862358 169.11749)scale(0.12 -0.12)">
       <use transform="scale(0.996264)" xlink:href="#CMR17-48"/>
       <use transform="translate(45.690477 0)scale(0.996264)" xlink:href="#CMMI12-58"/>
       <use transform="translate(72.787654 0)scale(0.996264)" xlink:href="#CMR17-50"/>
      </g>
     </g>
    </g>
    <g id="ytick_3">
     <g id="line2d_15">
      <g>
       <use style="stroke:#000000;stroke-width:0.8;" x="40.32" xlink:href="#mc4e8383e41" y="127.1808"/>
      </g>
     </g>
     <g id="line2d_16">
      <g>
       <use style="stroke:#000000;stroke-width:0.8;" x="279.36" xlink:href="#m9423e60ec6" y="127.1808"/>
      </g>
     </g>
     <g id="text_9">
      <!-- $0.4$ -->
      <g transform="translate(21.862358 131.33189)scale(0.12 -0.12)">
       <use transform="scale(0.996264)" xlink:href="#CMR17-48"/>
       <use transform="translate(45.690477 0)scale(0.996264)" xlink:href="#CMMI12-58"/>
       <use transform="translate(72.787654 0)scale(0.996264)" xlink:href="#CMR17-52"/>
      </g>
     </g>
    </g>
    <g id="ytick_4">
     <g id="line2d_17">
      <g>
       <use style="stroke:#000000;stroke-width:0.8;" x="40.32" xlink:href="#mc4e8383e41" y="89.3952"/>
      </g>
     </g>
     <g id="line2d_18">
      <g>
       <use style="stroke:#000000;stroke-width:0.8;" x="279.36" xlink:href="#m9423e60ec6" y="89.3952"/>
      </g>
     </g>
     <g id="text_10">
      <!-- $0.6$ -->
      <defs>
       <path d="M 10.59375 34.34375 
C 10.59375 58 21.796875 63.6875 28.296875 63.6875 
C 30.40625 63.6875 35.5 63.265625 37.5 59.09375 
C 35.90625 59.09375 32.90625 59.09375 32.90625 55.59375 
C 32.90625 52.890625 35.09375 52 36.5 52 
C 37.40625 52 40.09375 52.390625 40.09375 55.796875 
C 40.09375 62.296875 35.09375 66 28.203125 66 
C 16.296875 66 3.796875 53.296875 3.796875 31.421875 
C 3.796875 4.015625 15.09375 -2 23.09375 -2 
C 32.796875 -2 42 6.734375 42 20.234375 
C 42 32.828125 33.90625 42 23.703125 42 
C 17.59375 42 13.09375 37.96875 10.59375 30.921875 
z
M 23.09375 0.390625 
C 10.796875 0.390625 10.796875 18.9375 10.796875 22.65625 
C 10.796875 29.90625 14.203125 40.390625 23.5 40.390625 
C 25.203125 40.390625 30.09375 40.390625 33.40625 33.4375 
C 35.203125 29.515625 35.203125 25.375 35.203125 20.34375 
C 35.203125 14.90625 35.203125 10.875 33.09375 6.84375 
C 30.90625 2.703125 27.703125 0.390625 23.09375 0.390625 
z
" id="CMR17-54"/>
      </defs>
      <g transform="translate(21.862358 93.54629)scale(0.12 -0.12)">
       <use transform="scale(0.996264)" xlink:href="#CMR17-48"/>
       <use transform="translate(45.690477 0)scale(0.996264)" xlink:href="#CMMI12-58"/>
       <use transform="translate(72.787654 0)scale(0.996264)" xlink:href="#CMR17-54"/>
      </g>
     </g>
    </g>
    <g id="ytick_5">
     <g id="line2d_19">
      <g>
       <use style="stroke:#000000;stroke-width:0.8;" x="40.32" xlink:href="#mc4e8383e41" y="51.6096"/>
      </g>
     </g>
     <g id="line2d_20">
      <g>
       <use style="stroke:#000000;stroke-width:0.8;" x="279.36" xlink:href="#m9423e60ec6" y="51.6096"/>
      </g>
     </g>
     <g id="text_11">
      <!-- $0.8$ -->
      <defs>
       <path d="M 27.203125 35.765625 
C 33.5 38.96875 39.90625 43.796875 39.90625 51.53125 
C 39.90625 60.6875 31.09375 66 23 66 
C 13.90625 66 5.90625 59.375 5.90625 50.234375 
C 5.90625 47.71875 6.5 43.390625 10.40625 39.578125 
C 11.40625 38.578125 15.59375 35.5625 18.296875 33.65625 
C 13.796875 31.34375 3.296875 25.8125 3.296875 14.765625 
C 3.296875 4.40625 13.09375 -2 22.796875 -2 
C 33.5 -2 42.5 5.71875 42.5 15.96875 
C 42.5 25.109375 36.40625 29.328125 32.40625 32.046875 
z
M 14.09375 44.609375 
C 13.296875 45.109375 9.296875 48.21875 9.296875 52.9375 
C 9.296875 59.078125 15.59375 63.6875 22.796875 63.6875 
C 30.703125 63.6875 36.5 58.0625 36.5 51.53125 
C 36.5 42.1875 26.09375 36.859375 25.59375 36.859375 
C 25.5 36.859375 25.40625 36.859375 24.59375 37.46875 
z
M 32.5 24 
C 34 22.90625 38.796875 19.578125 38.796875 13.453125 
C 38.796875 6.015625 31.40625 0.390625 23 0.390625 
C 13.90625 0.390625 7 6.921875 7 14.859375 
C 7 22.796875 13.09375 29.4375 20 32.546875 
z
" id="CMR17-56"/>
      </defs>
      <g transform="translate(21.862358 55.76069)scale(0.12 -0.12)">
       <use transform="scale(0.996264)" xlink:href="#CMR17-48"/>
       <use transform="translate(45.690477 0)scale(0.996264)" xlink:href="#CMMI12-58"/>
       <use transform="translate(72.787654 0)scale(0.996264)" xlink:href="#CMR17-56"/>
      </g>
     </g>
    </g>
    <g id="ytick_6">
     <g id="line2d_21">
      <g>
       <use style="stroke:#000000;stroke-width:0.8;" x="40.32" xlink:href="#mc4e8383e41" y="13.824"/>
      </g>
     </g>
     <g id="line2d_22">
      <g>
       <use style="stroke:#000000;stroke-width:0.8;" x="279.36" xlink:href="#m9423e60ec6" y="13.824"/>
      </g>
     </g>
     <g id="text_12">
      <!-- $1.0$ -->
      <defs>
       <path d="M 26.59375 63.796875 
C 26.59375 65.890625 26.5 66 25.09375 66 
C 21.203125 61.359375 15.296875 59.890625 9.703125 59.6875 
C 9.40625 59.6875 8.90625 59.6875 8.796875 59.5 
C 8.703125 59.296875 8.703125 59.09375 8.703125 57 
C 11.796875 57 17 57.59375 21 59.984375 
L 21 7.296875 
C 21 3.796875 20.796875 2.59375 12.203125 2.59375 
L 9.203125 2.59375 
L 9.203125 0 
C 14 0.09375 19 0.1875 23.796875 0.1875 
C 28.59375 0.1875 33.59375 0.09375 38.40625 0 
L 38.40625 2.59375 
L 35.40625 2.59375 
C 26.796875 2.59375 26.59375 3.6875 26.59375 7.296875 
z
" id="CMR17-49"/>
      </defs>
      <g transform="translate(21.862358 17.97509)scale(0.12 -0.12)">
       <use transform="scale(0.996264)" xlink:href="#CMR17-49"/>
       <use transform="translate(45.690477 0)scale(0.996264)" xlink:href="#CMMI12-58"/>
       <use transform="translate(72.787654 0)scale(0.996264)" xlink:href="#CMR17-48"/>
      </g>
     </g>
    </g>
    <g id="text_13">
     <!-- $P(X\le x)$ -->
     <defs>
      <path d="M 29.59375 31.59375 
L 46.40625 31.59375 
C 60.203125 31.59375 74 41.765625 74 53.125 
C 74 60.90625 67.40625 68 54.796875 68 
L 23.90625 68 
C 22 68 21.09375 68 21.09375 66.09375 
C 21.09375 65.09375 22 65.09375 23.5 65.09375 
C 29.59375 65.09375 29.59375 64.296875 29.59375 63.203125 
C 29.59375 63 29.59375 62.40625 29.203125 60.90625 
L 15.703125 7.359375 
C 14.796875 3.890625 14.59375 2.890625 7.59375 2.890625 
C 5.703125 2.890625 4.703125 2.890625 4.703125 1.09375 
C 4.703125 0 5.59375 0 6.203125 0 
C 8.09375 0 10.09375 0.1875 12 0.1875 
L 23.703125 0.1875 
C 25.59375 0.1875 27.703125 0 29.59375 0 
C 30.40625 0 31.5 0 31.5 1.890625 
C 31.5 2.890625 30.59375 2.890625 29.09375 2.890625 
C 23.09375 2.890625 23 3.59375 23 4.578125 
C 23 5.078125 23.09375 5.765625 23.203125 6.265625 
z
M 36.796875 61.203125 
C 37.703125 64.890625 38.09375 65.09375 42 65.09375 
L 51.90625 65.09375 
C 59.40625 65.09375 65.59375 62.703125 65.59375 55.21875 
C 65.59375 52.640625 64.296875 44.15625 59.703125 39.578125 
C 58 37.78125 53.203125 34 44.09375 34 
L 30 34 
z
" id="CMMI12-80"/>
      <path d="M 30.59375 -24.40625 
C 30.59375 -24.3125 30.59375 -24.109375 30.296875 -23.8125 
C 25.703125 -19.109375 13.40625 -6.296875 13.40625 24.9375 
C 13.40625 56.171875 25.5 68.875 30.40625 73.890625 
C 30.40625 73.984375 30.59375 74.1875 30.59375 74.484375 
C 30.59375 74.796875 30.296875 75 29.90625 75 
C 28.796875 75 20.296875 67.578125 15.40625 56.5625 
C 10.40625 45.453125 9 34.65625 9 25.046875 
C 9 17.828125 9.703125 5.625 15.703125 -7.296875 
C 20.5 -17.703125 28.703125 -25 29.90625 -25 
C 30.40625 -25 30.59375 -24.8125 30.59375 -24.40625 
z
" id="CMR17-40"/>
      <path d="M 47.5 40.40625 
L 38.09375 62.203125 
C 39.40625 64.59375 42.40625 64.984375 43.59375 65.09375 
C 44.203125 65.09375 45.296875 65.1875 45.296875 66.890625 
C 45.296875 68 44.40625 68 43.796875 68 
C 42.09375 68 40.09375 67.796875 38.40625 67.796875 
L 32.59375 67.796875 
C 26.5 67.796875 22.09375 68 22 68 
C 21.203125 68 20.203125 68 20.203125 66.09375 
C 20.203125 65.09375 21.09375 65.09375 22.40625 65.09375 
C 28.203125 65.09375 28.59375 64.09375 29.59375 61.703125 
L 41.5 34.046875 
L 19.796875 10.953125 
C 16.203125 7.078125 11.90625 3.296875 4.5 2.890625 
C 3.296875 2.796875 2.5 2.796875 2.5 1 
C 2.5 0.6875 2.59375 0 3.703125 0 
C 5.09375 0 6.59375 0.1875 8 0.1875 
L 12.703125 0.1875 
C 15.90625 0.1875 19.40625 0 22.5 0 
C 23.203125 0 24.40625 0 24.40625 1.796875 
C 24.40625 2.796875 23.703125 2.890625 23.09375 2.890625 
C 21.09375 3.09375 19.796875 4.1875 19.796875 5.78125 
C 19.796875 7.46875 21 8.671875 23.90625 11.65625 
L 32.796875 21.296875 
C 35 23.59375 40.296875 29.359375 42.5 31.546875 
L 53 7.078125 
C 53.09375 6.875 53.5 5.875 53.5 5.78125 
C 53.5 4.875 51.296875 3.09375 48.09375 2.890625 
C 47.5 2.890625 46.40625 2.796875 46.40625 1 
C 46.40625 0 47.40625 0 47.90625 0 
C 49.59375 0 51.59375 0.1875 53.296875 0.1875 
L 64.296875 0.1875 
C 66.09375 0.1875 68 0 69.703125 0 
C 70.40625 0 71.5 0 71.5 1.890625 
C 71.5 2.890625 70.5 2.890625 69.59375 2.890625 
C 63.59375 2.984375 63.40625 3.484375 61.703125 7.171875 
L 48.5 38.015625 
L 61.203125 51.5625 
C 62.203125 52.546875 64.5 55.046875 65.40625 56.03125 
C 69.703125 60.515625 73.703125 64.59375 81.796875 65.09375 
C 82.796875 65.1875 83.796875 65.1875 83.796875 66.890625 
C 83.796875 68 82.90625 68 82.5 68 
C 81.09375 68 79.59375 67.796875 78.203125 67.796875 
L 73.59375 67.796875 
C 70.40625 67.796875 66.90625 68 63.796875 68 
C 63.09375 68 61.90625 68 61.90625 66.1875 
C 61.90625 65.1875 62.59375 65.09375 63.203125 65.09375 
C 64.796875 64.890625 66.5 64.09375 66.5 62.203125 
L 66.40625 62 
C 66.296875 61.3125 66.09375 60.3125 65 59.125 
z
" id="CMMI12-88"/>
      <path d="M 67.5 59.78125 
C 68.59375 60.28125 69.40625 60.78125 69.40625 61.984375 
C 69.40625 63.09375 68.59375 64 67.40625 64 
C 66.90625 64 66 63.59375 65.59375 63.390625 
L 10.296875 37.203125 
C 8.59375 36.390625 8.296875 35.6875 8.296875 34.890625 
C 8.296875 33.984375 8.90625 33.28125 10.296875 32.6875 
L 65.59375 6.59375 
C 66.90625 5.890625 67.09375 5.890625 67.40625 5.890625 
C 68.5 5.890625 69.40625 6.796875 69.40625 7.890625 
C 69.40625 8.796875 69 9.390625 67.296875 10.203125 
L 15 34.890625 
z
M 65.90625 -14 
C 67.59375 -14 69.40625 -14 69.40625 -12 
C 69.40625 -10 67.296875 -10 65.796875 -10 
L 11.90625 -10 
C 10.40625 -10 8.296875 -10 8.296875 -12 
C 8.296875 -14 10.09375 -14 11.796875 -14 
z
" id="CMSY10-20"/>
      <path d="M 26.296875 24.9375 
C 26.296875 32.140625 25.59375 44.359375 19.59375 57.265625 
C 14.796875 67.6875 6.59375 75 5.40625 75 
C 5.09375 75 4.703125 74.890625 4.703125 74.390625 
C 4.703125 74.1875 4.796875 74.09375 4.90625 73.890625 
C 9.703125 68.875 21.90625 56.171875 21.90625 25.046875 
C 21.90625 -6.1875 9.796875 -18.90625 4.90625 -23.90625 
C 4.796875 -24.109375 4.703125 -24.203125 4.703125 -24.40625 
C 4.703125 -24.90625 5.09375 -25 5.40625 -25 
C 6.5 -25 15 -17.609375 19.90625 -6.59375 
C 24.90625 4.515625 26.296875 15.328125 26.296875 24.9375 
z
" id="CMR17-41"/>
     </defs>
     <g transform="translate(14.873566 134.049541)rotate(-90)scale(0.12 -0.12)">
      <use transform="scale(0.996264)" xlink:href="#CMMI12-80"/>
      <use transform="translate(76.425821 0)scale(0.996264)" xlink:href="#CMR17-40"/>
      <use transform="translate(111.706589 0)scale(0.996264)" xlink:href="#CMMI12-88"/>
      <use transform="translate(228.173159 0)scale(0.996264)" xlink:href="#CMSY10-20"/>
      <use transform="translate(333.334636 0)scale(0.996264)" xlink:href="#CMMI12-120"/>
      <use transform="translate(388.768695 0)scale(0.996264)" xlink:href="#CMR17-41"/>
     </g>
    </g>
   </g>
   <g id="line2d_23">
    <path clip-path="url(#p3804b2e2a6)" d="M 40.32 196.758161 
L 55.61856 195.885477 
L 68.28768 194.945282 
L 78.80544 193.945632 
L 87.64992 192.884941 
L 95.06016 191.779883 
L 101.51424 190.596982 
L 107.01216 189.371462 
L 111.79296 188.089978 
L 116.09568 186.712425 
L 119.92032 185.257516 
L 123.26688 183.757119 
L 126.3744 182.123346 
L 129.24288 180.356832 
L 131.87232 178.464821 
L 134.26272 176.463508 
L 136.41408 174.380409 
L 138.56544 171.970192 
L 140.47776 169.493988 
L 142.39008 166.636868 
L 144.06336 163.762838 
L 145.73664 160.474256 
L 147.40992 156.699019 
L 149.0832 152.357778 
L 150.75648 147.369682 
L 152.42976 141.664139 
L 154.10304 135.2008 
L 156.01536 126.912807 
L 158.40576 115.470175 
L 164.14272 87.507099 
L 166.05504 79.450837 
L 167.96736 72.375199 
L 169.64064 66.9844 
L 171.31392 62.283129 
L 172.9872 58.194464 
L 174.66048 54.637167 
L 176.5728 51.124347 
L 178.48512 48.104894 
L 180.39744 45.494127 
L 182.5488 42.959364 
L 184.70016 40.774386 
L 187.09056 38.680719 
L 189.48096 36.873808 
L 192.1104 35.155164 
L 194.97888 33.540758 
L 198.0864 32.038784 
L 201.672 30.560288 
L 205.49664 29.221327 
L 209.79936 27.945583 
L 214.8192 26.697107 
L 220.55616 25.51267 
L 227.01024 24.413816 
L 234.42048 23.380189 
L 243.02592 22.405736 
L 253.30464 21.472725 
L 265.49568 20.598104 
L 279.12096 19.829771 
L 279.12096 19.829771 
" style="fill:none;stroke:#ffa500;stroke-linecap:square;stroke-width:1.7;"/>
   </g>
   <g id="line2d_24">
    <path clip-path="url(#p3804b2e2a6)" d="M 40.32 190.881095 
L 51.79392 189.658125 
L 61.8336 188.365174 
L 70.43904 187.039959 
L 78.08832 185.644783 
L 85.02048 184.155083 
L 91.23552 182.589211 
L 96.73344 180.976914 
L 101.75328 179.274259 
L 106.29504 177.501406 
L 110.35872 175.688267 
L 114.18336 173.746551 
L 117.76896 171.679168 
L 121.11552 169.493988 
L 124.22304 167.205009 
L 127.09152 164.833399 
L 129.96 162.174665 
L 132.58944 159.448641 
L 135.21888 156.408669 
L 137.84832 153.015713 
L 140.47776 149.230243 
L 143.1072 145.015624 
L 145.73664 140.343419 
L 148.36608 135.2008 
L 151.23456 129.068901 
L 154.34208 121.883222 
L 158.6448 111.292381 
L 165.816 93.555559 
L 169.16256 85.92545 
L 172.03104 79.926148 
L 174.66048 74.911861 
L 177.28992 70.366535 
L 179.91936 66.27224 
L 182.5488 62.597653 
L 185.17824 59.304913 
L 187.80768 56.354358 
L 190.67616 53.480639 
L 193.54464 50.922136 
L 196.65216 48.458391 
L 199.75968 46.270574 
L 203.10624 44.178478 
L 206.69184 42.195591 
L 210.51648 40.32972 
L 214.8192 38.488095 
L 219.36096 36.789995 
L 224.3808 35.155164 
L 229.87872 33.603308 
L 235.85472 32.146403 
L 242.54784 30.743773 
L 250.19712 29.377127 
L 258.80256 28.076994 
L 268.36416 26.861987 
L 279.12096 25.71808 
L 279.12096 25.71808 
" style="fill:none;stroke:#800080;stroke-linecap:square;stroke-width:1.7;"/>
   </g>
   <g id="line2d_25">
    <path clip-path="url(#p3804b2e2a6)" d="M 40.32 179.869241 
L 49.40352 178.183165 
L 57.76992 176.409513 
L 65.4192 174.565599 
L 72.5904 172.607145 
L 79.04448 170.62009 
L 85.02048 168.55848 
L 90.75744 166.346789 
L 96.01632 164.089409 
L 101.03616 161.700684 
L 105.81696 159.185826 
L 110.35872 156.554207 
L 114.90048 153.660665 
L 119.2032 150.654618 
L 123.50592 147.369682 
L 127.5696 143.99471 
L 131.63328 140.343419 
L 135.936 136.170678 
L 140.23872 131.687393 
L 144.78048 126.639655 
L 150.03936 120.447748 
L 156.73248 112.191456 
L 170.83584 94.692778 
L 176.09472 88.578576 
L 180.87552 83.360531 
L 185.17824 78.9794 
L 189.48096 74.911861 
L 193.78368 71.15866 
L 198.0864 67.710665 
L 202.38912 64.552131 
L 206.69184 61.66343 
L 211.2336 58.883296 
L 216.0144 56.22774 
L 220.7952 53.821713 
L 226.05408 51.431273 
L 231.552 49.185095 
L 237.28896 47.082012 
L 243.504 45.044227 
L 250.19712 43.090354 
L 257.36832 41.233163 
L 265.0176 39.480375 
L 273.384 37.790203 
L 279.12096 36.748305 
L 279.12096 36.748305 
" style="fill:none;stroke:#00bfff;stroke-linecap:square;stroke-width:1.7;"/>
   </g>
   <g id="line2d_26">
    <path clip-path="url(#p3804b2e2a6)" d="M 40.32 183.402678 
L 46.05696 181.84774 
L 51.31584 180.196517 
L 56.09664 178.464821 
L 60.39936 176.677428 
L 64.46304 174.748564 
L 68.28768 172.676432 
L 71.63424 170.62009 
L 74.9808 168.295163 
L 78.08832 165.854175 
L 80.9568 163.320006 
L 83.82528 160.474256 
L 86.45472 157.552866 
L 89.08416 154.292871 
L 91.7136 150.654618 
L 94.34304 146.599913 
L 96.97248 142.09659 
L 99.60192 137.125163 
L 102.23136 131.687393 
L 105.09984 125.262298 
L 108.68544 116.652903 
L 120.15936 88.578576 
L 123.02784 82.360329 
L 125.89632 76.680626 
L 128.52576 71.965883 
L 131.1552 67.710665 
L 133.78464 63.887617 
L 136.41408 60.460597 
L 139.04352 57.390174 
L 141.912 54.401335 
L 144.78048 51.742601 
L 147.888 49.185095 
L 150.99552 46.916826 
L 154.34208 44.750696 
L 157.92768 42.700598 
L 161.75232 40.774386 
L 165.816 38.975028 
L 170.35776 37.214953 
L 175.13856 35.599086 
L 180.39744 34.052098 
L 186.37344 32.532965 
L 192.82752 31.122743 
L 200.23776 29.739199 
L 208.36512 28.45106 
L 217.68768 27.204538 
L 228.20544 26.027679 
L 240.39648 24.895996 
L 254.2608 23.837585 
L 270.51552 22.826676 
L 279.12096 22.3694 
L 279.12096 22.3694 
" style="fill:none;stroke:#3cb371;stroke-linecap:square;stroke-width:1.7;"/>
   </g>
   <g id="patch_3">
    <path d="M 40.32 202.752 
L 40.32 13.824 
" style="fill:none;stroke:#000000;stroke-linecap:square;stroke-linejoin:miter;stroke-width:0.8;"/>
   </g>
   <g id="patch_4">
    <path d="M 279.36 202.752 
L 279.36 13.824 
" style="fill:none;stroke:#000000;stroke-linecap:square;stroke-linejoin:miter;stroke-width:0.8;"/>
   </g>
   <g id="patch_5">
    <path d="M 40.32 202.752 
L 279.36 202.752 
" style="fill:none;stroke:#000000;stroke-linecap:square;stroke-linejoin:miter;stroke-width:0.8;"/>
   </g>
   <g id="patch_6">
    <path d="M 40.32 13.824 
L 279.36 13.824 
" style="fill:none;stroke:#000000;stroke-linecap:square;stroke-linejoin:miter;stroke-width:0.8;"/>
   </g>
   <g id="legend_1">
    <g id="line2d_27">
     <path d="M 175.719623 135.253617 
L 184.719623 135.253617 
" style="fill:none;stroke:#ffa500;stroke-linecap:square;stroke-width:1.7;"/>
    </g>
    <g id="line2d_28"/>
    <g id="text_14">
     <!-- $x_0=0,\, \gamma=0.5$ -->
     <defs>
      <path d="M 64.296875 32 
C 65.796875 32 67.296875 32 67.296875 33.6875 
C 67.296875 35.5 65.59375 35.5 63.90625 35.5 
L 8 35.5 
C 6.296875 35.5 4.59375 35.5 4.59375 33.6875 
C 4.59375 32 6.09375 32 7.59375 32 
z
M 63.90625 14.484375 
C 65.59375 14.484375 67.296875 14.484375 67.296875 16.296875 
C 67.296875 18 65.796875 18 64.296875 18 
L 7.59375 18 
C 6.09375 18 4.59375 18 4.59375 16.296875 
C 4.59375 14.484375 6.296875 14.484375 8 14.484375 
z
" id="CMR17-61"/>
      <path d="M 19.5 -0.40625 
C 19.5 5.390625 17.59375 9.6875 13.5 9.6875 
C 10.296875 9.6875 8.703125 7.09375 8.703125 4.890625 
C 8.703125 2.6875 10.203125 0 13.59375 0 
C 14.90625 0 16 0.390625 16.90625 1.296875 
C 17.09375 1.5 17.203125 1.5 17.296875 1.5 
C 17.5 1.5 17.5 0.09375 17.5 -0.40625 
C 17.5 -3.640625 16.90625 -10.03125 11.09375 -16.421875 
C 10 -17.609375 10 -17.8125 10 -18 
C 10 -18.5 10.5 -19 11 -19 
C 11.796875 -19 19.5 -11.703125 19.5 -0.40625 
z
" id="CMMI12-59"/>
      <path d="M 37.796875 12.265625 
C 37.59375 17.140625 37.40625 24.78125 33.59375 33.71875 
C 31.59375 38.6875 28.203125 44 20.90625 44 
C 8.59375 44 1.90625 28.359375 1.90625 25.765625 
C 1.90625 24.875 2.59375 24.875 2.90625 24.875 
C 3.796875 24.875 3.796875 25.078125 4.296875 26.375 
C 6.40625 32.515625 12.796875 37.390625 19.703125 37.390625 
C 33.59375 37.390625 35.59375 22 35.59375 12.171875 
C 35.59375 5.90625 34.90625 3.828125 34.296875 1.84375 
C 32.40625 -4.3125 29.09375 -16.625 29.09375 -19.40625 
C 29.09375 -20.203125 29.40625 -21.109375 30.203125 -21.109375 
C 31.703125 -21.109375 32.59375 -17.8125 33.703125 -13.84375 
C 36.09375 -5.109375 36.703125 -0.734375 37.203125 3.234375 
C 37.5 5.625 43.203125 22.015625 51.09375 37.609375 
C 51.796875 39.203125 53.203125 41.890625 53.203125 42.1875 
C 53.203125 42.296875 53.09375 43 52.203125 43 
C 52 43 51.5 43 51.296875 42.59375 
C 51.09375 42.390625 47.59375 35.625 44.59375 28.875 
C 43.09375 25.46875 41.09375 21 37.796875 12.265625 
z
" id="CMMI12-13"/>
      <path d="M 11.40625 58.59375 
C 12.40625 58.1875 16.5 56.890625 20.703125 56.890625 
C 30 56.890625 35.09375 61.890625 38 64.6875 
C 38 65.484375 38 66 37.40625 66 
C 37.296875 66 37.09375 66 36.296875 65.59375 
C 32.796875 64.09375 28.703125 63 23.703125 63 
C 20.703125 63 16.203125 63.359375 11.296875 65.484375 
C 10.203125 66 10 66 9.90625 66 
C 9.40625 66 9.296875 65.890625 9.296875 63.90625 
L 9.296875 34.859375 
C 9.296875 33.015625 9.296875 32.5 10.296875 32.5 
C 10.796875 32.5 11 32.703125 11.5 33.421875 
C 14.703125 38.046875 19.09375 40 24.09375 40 
C 27.59375 40 35.09375 37.734375 35.09375 20.203125 
C 35.09375 16.984375 35.09375 11.1875 32.09375 6.59375 
C 29.59375 2.484375 25.703125 0.390625 21.40625 0.390625 
C 14.796875 0.390625 8.09375 4.984375 6.296875 12.6875 
C 6.703125 12.59375 7.5 12.390625 7.90625 12.390625 
C 9.203125 12.390625 11.703125 13.09375 11.703125 16.1875 
C 11.703125 18.890625 9.796875 20 7.90625 20 
C 5.59375 20 4.09375 18.59375 4.09375 15.796875 
C 4.09375 7.09375 11 -2 21.59375 -2 
C 31.90625 -2 41.703125 6.890625 41.703125 19.796875 
C 41.703125 32.09375 33.90625 41.59375 24.203125 41.59375 
C 19.09375 41.59375 14.796875 39.6875 11.40625 36 
z
" id="CMR17-53"/>
     </defs>
     <g transform="translate(190.719623 139.453617)scale(0.12 -0.12)">
      <use transform="translate(0 14.943915)scale(0.996264)" xlink:href="#CMMI12-120"/>
      <use transform="translate(55.43406 0)scale(0.697382)" xlink:href="#CMR17-48"/>
      <use transform="translate(115.589382 14.943915)scale(0.996264)" xlink:href="#CMR17-61"/>
      <use transform="translate(214.978179 14.943915)scale(0.996264)" xlink:href="#CMR17-48"/>
      <use transform="translate(260.668656 14.943915)scale(0.996264)" xlink:href="#CMMI12-59"/>
      <use transform="translate(320.974644 14.943915)scale(0.996264)" xlink:href="#CMMI12-13"/>
      <use transform="translate(404.667221 14.943915)scale(0.996264)" xlink:href="#CMR17-61"/>
      <use transform="translate(504.056018 14.943915)scale(0.996264)" xlink:href="#CMR17-48"/>
      <use transform="translate(549.746495 14.943915)scale(0.996264)" xlink:href="#CMMI12-58"/>
      <use transform="translate(576.843672 14.943915)scale(0.996264)" xlink:href="#CMR17-53"/>
     </g>
    </g>
    <g id="line2d_29">
     <path d="M 175.719623 151.978213 
L 184.719623 151.978213 
" style="fill:none;stroke:#800080;stroke-linecap:square;stroke-width:1.7;"/>
    </g>
    <g id="line2d_30"/>
    <g id="text_15">
     <!-- $x_0=0,\,\gamma=1$ -->
     <g transform="translate(190.719623 156.178213)scale(0.12 -0.12)">
      <use transform="translate(0 14.943915)scale(0.996264)" xlink:href="#CMMI12-120"/>
      <use transform="translate(55.43406 0)scale(0.697382)" xlink:href="#CMR17-48"/>
      <use transform="translate(115.589382 14.943915)scale(0.996264)" xlink:href="#CMR17-61"/>
      <use transform="translate(214.978179 14.943915)scale(0.996264)" xlink:href="#CMR17-48"/>
      <use transform="translate(260.668656 14.943915)scale(0.996264)" xlink:href="#CMMI12-59"/>
      <use transform="translate(320.974644 14.943915)scale(0.996264)" xlink:href="#CMMI12-13"/>
      <use transform="translate(404.667221 14.943915)scale(0.996264)" xlink:href="#CMR17-61"/>
      <use transform="translate(504.056018 14.943915)scale(0.996264)" xlink:href="#CMR17-49"/>
     </g>
    </g>
    <g id="line2d_31">
     <path d="M 175.719623 168.702808 
L 184.719623 168.702808 
" style="fill:none;stroke:#00bfff;stroke-linecap:square;stroke-width:1.7;"/>
    </g>
    <g id="line2d_32"/>
    <g id="text_16">
     <!-- $x_0=0,\, \gamma=2$ -->
     <g transform="translate(190.719623 172.902808)scale(0.12 -0.12)">
      <use transform="translate(0 14.943915)scale(0.996264)" xlink:href="#CMMI12-120"/>
      <use transform="translate(55.43406 0)scale(0.697382)" xlink:href="#CMR17-48"/>
      <use transform="translate(115.589382 14.943915)scale(0.996264)" xlink:href="#CMR17-61"/>
      <use transform="translate(214.978179 14.943915)scale(0.996264)" xlink:href="#CMR17-48"/>
      <use transform="translate(260.668656 14.943915)scale(0.996264)" xlink:href="#CMMI12-59"/>
      <use transform="translate(320.974644 14.943915)scale(0.996264)" xlink:href="#CMMI12-13"/>
      <use transform="translate(404.667221 14.943915)scale(0.996264)" xlink:href="#CMR17-61"/>
      <use transform="translate(504.056018 14.943915)scale(0.996264)" xlink:href="#CMR17-50"/>
     </g>
    </g>
    <g id="line2d_33">
     <path d="M 175.719623 185.427404 
L 184.719623 185.427404 
" style="fill:none;stroke:#3cb371;stroke-linecap:square;stroke-width:1.7;"/>
    </g>
    <g id="line2d_34"/>
    <g id="text_17">
     <!-- $x_0=-2,\, \gamma=1$ -->
     <g transform="translate(190.719623 189.627404)scale(0.12 -0.12)">
      <use transform="translate(0 14.943915)scale(0.996264)" xlink:href="#CMMI12-120"/>
      <use transform="translate(55.43406 0)scale(0.697382)" xlink:href="#CMR17-48"/>
      <use transform="translate(115.589382 14.943915)scale(0.996264)" xlink:href="#CMR17-61"/>
      <use transform="translate(214.978179 14.943915)scale(0.996264)" xlink:href="#CMSY10-0"/>
      <use transform="translate(292.465647 14.943915)scale(0.996264)" xlink:href="#CMR17-50"/>
      <use transform="translate(338.156124 14.943915)scale(0.996264)" xlink:href="#CMMI12-59"/>
      <use transform="translate(398.462112 14.943915)scale(0.996264)" xlink:href="#CMMI12-13"/>
      <use transform="translate(482.154688 14.943915)scale(0.996264)" xlink:href="#CMR17-61"/>
      <use transform="translate(581.543486 14.943915)scale(0.996264)" xlink:href="#CMR17-49"/>
     </g>
    </g>
   </g>
  </g>
 </g>
 <defs>
  <clipPath id="p3804b2e2a6">
   <rect height="188.928" width="239.04" x="40.32" y="13.824"/>
  </clipPath>
 </defs>
</svg>
