<?xml version="1.0" encoding="utf-8" standalone="no"?>
<!DOCTYPE svg PUBLIC "-//W3C//DTD SVG 1.1//EN"
  "http://www.w3.org/Graphics/SVG/1.1/DTD/svg11.dtd">
<!-- Created with matplotlib (https://matplotlib.org/) -->
<svg height="230.4pt" version="1.1" viewBox="0 0 288 230.4" width="288pt" xmlns="http://www.w3.org/2000/svg" xmlns:xlink="http://www.w3.org/1999/xlink">
 <defs>
  <style type="text/css">
*{stroke-linecap:butt;stroke-linejoin:round;}
  </style>
 </defs>
 <g id="figure_1">
  <g id="patch_1">
   <path d="M 0 230.4 
L 288 230.4 
L 288 0 
L 0 0 
z
" style="fill:#ffffff;"/>
  </g>
  <g id="axes_1">
   <g id="patch_2">
    <path d="M 40.32 202.752 
L 279.36 202.752 
L 279.36 13.824 
L 40.32 13.824 
z
" style="fill:#ffffff;"/>
   </g>
   <g id="matplotlib.axis_1">
    <g id="xtick_1">
     <g id="line2d_1">
      <defs>
       <path d="M 0 0 
L 0 -3.5 
" id="me884c68a81" style="stroke:#000000;stroke-width:0.8;"/>
      </defs>
      <g>
       <use style="stroke:#000000;stroke-width:0.8;" x="64.224" xlink:href="#me884c68a81" y="202.752"/>
      </g>
     </g>
     <g id="line2d_2">
      <defs>
       <path d="M 0 0 
L 0 3.5 
" id="m10543c27c2" style="stroke:#000000;stroke-width:0.8;"/>
      </defs>
      <g>
       <use style="stroke:#000000;stroke-width:0.8;" x="64.224" xlink:href="#m10543c27c2" y="13.824"/>
      </g>
     </g>
     <g id="text_1">
      <!-- $-4$ -->
      <defs>
       <path d="M 65.90625 23 
C 67.59375 23 69.40625 23 69.40625 25 
C 69.40625 27 67.59375 27 65.90625 27 
L 11.796875 27 
C 10.09375 27 8.296875 27 8.296875 25 
C 8.296875 23 10.09375 23 11.796875 23 
z
" id="CMSY10-0"/>
       <path d="M 33.59375 64.796875 
C 33.59375 66.890625 33.5 67 31.703125 67 
L 2 19.59375 
L 2 17 
L 27.796875 17 
L 27.796875 7.1875 
C 27.796875 3.59375 27.59375 2.59375 20.59375 2.59375 
L 18.703125 2.59375 
L 18.703125 0 
C 21.90625 0.1875 27.296875 0.1875 30.703125 0.1875 
C 34.09375 0.1875 39.5 0.1875 42.703125 0 
L 42.703125 2.59375 
L 40.796875 2.59375 
C 33.796875 2.59375 33.59375 3.59375 33.59375 7.1875 
L 33.59375 17 
L 43.796875 17 
L 43.796875 19.59375 
L 33.59375 19.59375 
z
M 28.09375 58.171875 
L 28.09375 19.59375 
L 4 19.59375 
z
" id="CMR17-52"/>
      </defs>
      <g transform="translate(56.64826 214.55418)scale(0.12 -0.12)">
       <use transform="scale(0.996264)" xlink:href="#CMSY10-0"/>
       <use transform="translate(77.487468 0)scale(0.996264)" xlink:href="#CMR17-52"/>
      </g>
     </g>
    </g>
    <g id="xtick_2">
     <g id="line2d_3">
      <g>
       <use style="stroke:#000000;stroke-width:0.8;" x="112.032" xlink:href="#me884c68a81" y="202.752"/>
      </g>
     </g>
     <g id="line2d_4">
      <g>
       <use style="stroke:#000000;stroke-width:0.8;" x="112.032" xlink:href="#m10543c27c2" y="13.824"/>
      </g>
     </g>
     <g id="text_2">
      <!-- $-2$ -->
      <defs>
       <path d="M 41.703125 15.46875 
L 39.90625 15.46875 
C 38.90625 8.390625 38.09375 7.1875 37.703125 6.59375 
C 37.203125 5.796875 30 5.796875 28.59375 5.796875 
L 9.40625 5.796875 
C 13 9.6875 20 16.765625 28.5 24.9375 
C 34.59375 30.71875 41.703125 37.5 41.703125 47.390625 
C 41.703125 59.1875 32.296875 66 21.796875 66 
C 10.796875 66 4.09375 56.296875 4.09375 47.296875 
C 4.09375 43.390625 7 42.890625 8.203125 42.890625 
C 9.203125 42.890625 12.203125 43.484375 12.203125 46.984375 
C 12.203125 50.09375 9.59375 51 8.203125 51 
C 7.59375 51 7 50.890625 6.59375 50.6875 
C 8.5 59.1875 14.296875 63.390625 20.40625 63.390625 
C 29.09375 63.390625 34.796875 56.5 34.796875 47.390625 
C 34.796875 38.703125 29.703125 31.21875 24 24.734375 
L 4.09375 2.296875 
L 4.09375 0 
L 39.296875 0 
z
" id="CMR17-50"/>
      </defs>
      <g transform="translate(104.45626 214.55418)scale(0.12 -0.12)">
       <use transform="scale(0.996264)" xlink:href="#CMSY10-0"/>
       <use transform="translate(77.487468 0)scale(0.996264)" xlink:href="#CMR17-50"/>
      </g>
     </g>
    </g>
    <g id="xtick_3">
     <g id="line2d_5">
      <g>
       <use style="stroke:#000000;stroke-width:0.8;" x="159.84" xlink:href="#me884c68a81" y="202.752"/>
      </g>
     </g>
     <g id="line2d_6">
      <g>
       <use style="stroke:#000000;stroke-width:0.8;" x="159.84" xlink:href="#m10543c27c2" y="13.824"/>
      </g>
     </g>
     <g id="text_3">
      <!-- $0$ -->
      <defs>
       <path d="M 42 31.84375 
C 42 37.96875 41.90625 48.421875 37.703125 56.453125 
C 34 63.484375 28.09375 66 22.90625 66 
C 18.09375 66 12 63.78125 8.203125 56.5625 
C 4.203125 49.015625 3.796875 39.671875 3.796875 31.84375 
C 3.796875 26.109375 3.90625 17.375 7 9.734375 
C 11.296875 -0.609375 19 -2 22.90625 -2 
C 27.5 -2 34.5 -0.109375 38.59375 9.4375 
C 41.59375 16.375 42 24.5 42 31.84375 
z
M 22.90625 -0.40625 
C 16.5 -0.40625 12.703125 5.125 11.296875 12.75 
C 10.203125 18.6875 10.203125 27.328125 10.203125 32.953125 
C 10.203125 40.6875 10.203125 47.109375 11.5 53.234375 
C 13.40625 61.78125 19 64.390625 22.90625 64.390625 
C 27 64.390625 32.296875 61.671875 34.203125 53.4375 
C 35.5 47.71875 35.59375 40.984375 35.59375 32.953125 
C 35.59375 26.421875 35.59375 18.375 34.40625 12.453125 
C 32.296875 1.5 26.40625 -0.40625 22.90625 -0.40625 
z
" id="CMR17-48"/>
      </defs>
      <g transform="translate(156.913505 214.55418)scale(0.12 -0.12)">
       <use transform="scale(0.996264)" xlink:href="#CMR17-48"/>
      </g>
     </g>
    </g>
    <g id="xtick_4">
     <g id="line2d_7">
      <g>
       <use style="stroke:#000000;stroke-width:0.8;" x="207.648" xlink:href="#me884c68a81" y="202.752"/>
      </g>
     </g>
     <g id="line2d_8">
      <g>
       <use style="stroke:#000000;stroke-width:0.8;" x="207.648" xlink:href="#m10543c27c2" y="13.824"/>
      </g>
     </g>
     <g id="text_4">
      <!-- $2$ -->
      <g transform="translate(204.721505 214.55418)scale(0.12 -0.12)">
       <use transform="scale(0.996264)" xlink:href="#CMR17-50"/>
      </g>
     </g>
    </g>
    <g id="xtick_5">
     <g id="line2d_9">
      <g>
       <use style="stroke:#000000;stroke-width:0.8;" x="255.456" xlink:href="#me884c68a81" y="202.752"/>
      </g>
     </g>
     <g id="line2d_10">
      <g>
       <use style="stroke:#000000;stroke-width:0.8;" x="255.456" xlink:href="#m10543c27c2" y="13.824"/>
      </g>
     </g>
     <g id="text_5">
      <!-- $4$ -->
      <g transform="translate(252.529505 214.55418)scale(0.12 -0.12)">
       <use transform="scale(0.996264)" xlink:href="#CMR17-52"/>
      </g>
     </g>
    </g>
    <g id="text_6">
     <!-- $x$ -->
     <defs>
      <path d="M 47.40625 41 
C 44.203125 40.390625 43 37.984375 43 36.09375 
C 43 33.6875 44.90625 32.890625 46.296875 32.890625 
C 49.296875 32.890625 51.40625 35.484375 51.40625 38.1875 
C 51.40625 42.09375 46.59375 44 42.40625 44 
C 36.296875 44 32.90625 38.296875 32 36.390625 
C 29.703125 43.59375 23.5 44 21.703125 44 
C 11.5 44 6.09375 31.140625 6.09375 28.890625 
C 6.09375 28.484375 6.5 27.96875 7.203125 27.96875 
C 8 27.96875 8.203125 28.578125 8.40625 28.984375 
C 11.796875 40.1875 18.5 41.984375 21.40625 41.984375 
C 25.90625 41.984375 26.796875 38.09375 26.796875 35.6875 
C 26.796875 33.484375 26.203125 31.140625 25 26.21875 
L 21.59375 12.15625 
C 20.09375 6.09375 17.203125 1 11.90625 1 
C 11.40625 1 8.90625 1 6.796875 1.96875 
C 10.40625 2.59375 11.203125 5.59375 11.203125 6.796875 
C 11.203125 8.796875 9.703125 10 7.796875 10 
C 5.40625 10 2.796875 7.890625 2.796875 4.6875 
C 2.796875 0.890625 7.5 -1 11.796875 -1 
C 16.59375 -1 20 2.390625 22.09375 6.484375 
C 23.703125 1 28.703125 -1 32.40625 -1 
C 42.59375 -1 48 11.734375 48 14 
C 48 14.515625 47.59375 14.921875 47 14.921875 
C 46.09375 14.921875 46 14.40625 45.703125 13.59375 
C 43 4.6875 37.203125 1 32.703125 1 
C 29.203125 1 27.296875 3.1875 27.296875 7.296875 
C 27.296875 9.484375 27.703125 11.125 29.296875 17.90625 
L 32.796875 31.859375 
C 34.296875 37.890625 37.703125 41.984375 42.296875 41.984375 
C 42.5 41.984375 45.296875 41.984375 47.40625 41 
z
" id="CMMI12-120"/>
     </defs>
     <g transform="translate(156.513956 229.180955)scale(0.12 -0.12)">
      <use transform="scale(0.996264)" xlink:href="#CMMI12-120"/>
     </g>
    </g>
   </g>
   <g id="matplotlib.axis_2">
    <g id="ytick_1">
     <g id="line2d_11">
      <defs>
       <path d="M 0 0 
L 3.5 0 
" id="m318d8e1b50" style="stroke:#000000;stroke-width:0.8;"/>
      </defs>
      <g>
       <use style="stroke:#000000;stroke-width:0.8;" x="40.32" xlink:href="#m318d8e1b50" y="202.752"/>
      </g>
     </g>
     <g id="line2d_12">
      <defs>
       <path d="M 0 0 
L -3.5 0 
" id="m5cf132acba" style="stroke:#000000;stroke-width:0.8;"/>
      </defs>
      <g>
       <use style="stroke:#000000;stroke-width:0.8;" x="279.36" xlink:href="#m5cf132acba" y="202.752"/>
      </g>
     </g>
     <g id="text_7">
      <!-- $0.0$ -->
      <defs>
       <path d="M 18.40625 4.796875 
C 18.40625 7.6875 16 9.6875 13.59375 9.6875 
C 10.703125 9.6875 8.703125 7.296875 8.703125 4.890625 
C 8.703125 2 11.09375 0 13.5 0 
C 16.40625 0 18.40625 2.390625 18.40625 4.796875 
z
" id="CMMI12-58"/>
      </defs>
      <g transform="translate(21.862358 206.90309)scale(0.12 -0.12)">
       <use transform="scale(0.996264)" xlink:href="#CMR17-48"/>
       <use transform="translate(45.690477 0)scale(0.996264)" xlink:href="#CMMI12-58"/>
       <use transform="translate(72.787654 0)scale(0.996264)" xlink:href="#CMR17-48"/>
      </g>
     </g>
    </g>
    <g id="ytick_2">
     <g id="line2d_13">
      <g>
       <use style="stroke:#000000;stroke-width:0.8;" x="40.32" xlink:href="#m318d8e1b50" y="175.762286"/>
      </g>
     </g>
     <g id="line2d_14">
      <g>
       <use style="stroke:#000000;stroke-width:0.8;" x="279.36" xlink:href="#m5cf132acba" y="175.762286"/>
      </g>
     </g>
     <g id="text_8">
      <!-- $0.1$ -->
      <defs>
       <path d="M 26.59375 63.796875 
C 26.59375 65.890625 26.5 66 25.09375 66 
C 21.203125 61.359375 15.296875 59.890625 9.703125 59.6875 
C 9.40625 59.6875 8.90625 59.6875 8.796875 59.5 
C 8.703125 59.296875 8.703125 59.09375 8.703125 57 
C 11.796875 57 17 57.59375 21 59.984375 
L 21 7.296875 
C 21 3.796875 20.796875 2.59375 12.203125 2.59375 
L 9.203125 2.59375 
L 9.203125 0 
C 14 0.09375 19 0.1875 23.796875 0.1875 
C 28.59375 0.1875 33.59375 0.09375 38.40625 0 
L 38.40625 2.59375 
L 35.40625 2.59375 
C 26.796875 2.59375 26.59375 3.6875 26.59375 7.296875 
z
" id="CMR17-49"/>
      </defs>
      <g transform="translate(21.862358 179.913376)scale(0.12 -0.12)">
       <use transform="scale(0.996264)" xlink:href="#CMR17-48"/>
       <use transform="translate(45.690477 0)scale(0.996264)" xlink:href="#CMMI12-58"/>
       <use transform="translate(72.787654 0)scale(0.996264)" xlink:href="#CMR17-49"/>
      </g>
     </g>
    </g>
    <g id="ytick_3">
     <g id="line2d_15">
      <g>
       <use style="stroke:#000000;stroke-width:0.8;" x="40.32" xlink:href="#m318d8e1b50" y="148.772571"/>
      </g>
     </g>
     <g id="line2d_16">
      <g>
       <use style="stroke:#000000;stroke-width:0.8;" x="279.36" xlink:href="#m5cf132acba" y="148.772571"/>
      </g>
     </g>
     <g id="text_9">
      <!-- $0.2$ -->
      <g transform="translate(21.862358 152.923661)scale(0.12 -0.12)">
       <use transform="scale(0.996264)" xlink:href="#CMR17-48"/>
       <use transform="translate(45.690477 0)scale(0.996264)" xlink:href="#CMMI12-58"/>
       <use transform="translate(72.787654 0)scale(0.996264)" xlink:href="#CMR17-50"/>
      </g>
     </g>
    </g>
    <g id="ytick_4">
     <g id="line2d_17">
      <g>
       <use style="stroke:#000000;stroke-width:0.8;" x="40.32" xlink:href="#m318d8e1b50" y="121.782857"/>
      </g>
     </g>
     <g id="line2d_18">
      <g>
       <use style="stroke:#000000;stroke-width:0.8;" x="279.36" xlink:href="#m5cf132acba" y="121.782857"/>
      </g>
     </g>
     <g id="text_10">
      <!-- $0.3$ -->
      <defs>
       <path d="M 22.09375 34 
C 31 34 34.90625 26.140625 34.90625 17.09375 
C 34.90625 5.03125 28.5 0.390625 22.703125 0.390625 
C 17.40625 0.390625 8.796875 3.015625 6.09375 10.796875 
C 6.59375 10.59375 7.09375 10.59375 7.59375 10.59375 
C 10 10.59375 11.796875 12.1875 11.796875 14.796875 
C 11.796875 17.6875 9.59375 19 7.59375 19 
C 5.90625 19 3.296875 18.1875 3.296875 14.484375 
C 3.296875 5.234375 12.296875 -2 22.90625 -2 
C 34 -2 42.5 6.75 42.5 16.984375 
C 42.5 26.84375 34.5 34 25 35.09375 
C 32.59375 36.671875 39.90625 43.375 39.90625 52.390625 
C 39.90625 60.25 32 66 23 66 
C 13.90625 66 5.90625 60.34375 5.90625 52.296875 
C 5.90625 48.796875 8.5 48.1875 9.796875 48.1875 
C 11.90625 48.1875 13.703125 49.484375 13.703125 52.09375 
C 13.703125 54.6875 11.90625 56 9.796875 56 
C 9.40625 56 8.90625 56 8.5 55.796875 
C 11.40625 62.484375 19.296875 63.6875 22.796875 63.6875 
C 26.296875 63.6875 32.90625 61.96875 32.90625 52.296875 
C 32.90625 49.484375 32.5 44.546875 29.09375 40.21875 
C 26.09375 36.390625 22.703125 36.1875 19.40625 35.890625 
C 18.90625 35.890625 16.59375 35.6875 16.203125 35.6875 
C 15.5 35.59375 15.09375 35.5 15.09375 34.796875 
C 15.09375 34.09375 15.203125 34 17.203125 34 
z
" id="CMR17-51"/>
      </defs>
      <g transform="translate(21.862358 125.933947)scale(0.12 -0.12)">
       <use transform="scale(0.996264)" xlink:href="#CMR17-48"/>
       <use transform="translate(45.690477 0)scale(0.996264)" xlink:href="#CMMI12-58"/>
       <use transform="translate(72.787654 0)scale(0.996264)" xlink:href="#CMR17-51"/>
      </g>
     </g>
    </g>
    <g id="ytick_5">
     <g id="line2d_19">
      <g>
       <use style="stroke:#000000;stroke-width:0.8;" x="40.32" xlink:href="#m318d8e1b50" y="94.793143"/>
      </g>
     </g>
     <g id="line2d_20">
      <g>
       <use style="stroke:#000000;stroke-width:0.8;" x="279.36" xlink:href="#m5cf132acba" y="94.793143"/>
      </g>
     </g>
     <g id="text_11">
      <!-- $0.4$ -->
      <g transform="translate(21.862358 98.944233)scale(0.12 -0.12)">
       <use transform="scale(0.996264)" xlink:href="#CMR17-48"/>
       <use transform="translate(45.690477 0)scale(0.996264)" xlink:href="#CMMI12-58"/>
       <use transform="translate(72.787654 0)scale(0.996264)" xlink:href="#CMR17-52"/>
      </g>
     </g>
    </g>
    <g id="ytick_6">
     <g id="line2d_21">
      <g>
       <use style="stroke:#000000;stroke-width:0.8;" x="40.32" xlink:href="#m318d8e1b50" y="67.803429"/>
      </g>
     </g>
     <g id="line2d_22">
      <g>
       <use style="stroke:#000000;stroke-width:0.8;" x="279.36" xlink:href="#m5cf132acba" y="67.803429"/>
      </g>
     </g>
     <g id="text_12">
      <!-- $0.5$ -->
      <defs>
       <path d="M 11.40625 58.59375 
C 12.40625 58.1875 16.5 56.890625 20.703125 56.890625 
C 30 56.890625 35.09375 61.890625 38 64.6875 
C 38 65.484375 38 66 37.40625 66 
C 37.296875 66 37.09375 66 36.296875 65.59375 
C 32.796875 64.09375 28.703125 63 23.703125 63 
C 20.703125 63 16.203125 63.359375 11.296875 65.484375 
C 10.203125 66 10 66 9.90625 66 
C 9.40625 66 9.296875 65.890625 9.296875 63.90625 
L 9.296875 34.859375 
C 9.296875 33.015625 9.296875 32.5 10.296875 32.5 
C 10.796875 32.5 11 32.703125 11.5 33.421875 
C 14.703125 38.046875 19.09375 40 24.09375 40 
C 27.59375 40 35.09375 37.734375 35.09375 20.203125 
C 35.09375 16.984375 35.09375 11.1875 32.09375 6.59375 
C 29.59375 2.484375 25.703125 0.390625 21.40625 0.390625 
C 14.796875 0.390625 8.09375 4.984375 6.296875 12.6875 
C 6.703125 12.59375 7.5 12.390625 7.90625 12.390625 
C 9.203125 12.390625 11.703125 13.09375 11.703125 16.1875 
C 11.703125 18.890625 9.796875 20 7.90625 20 
C 5.59375 20 4.09375 18.59375 4.09375 15.796875 
C 4.09375 7.09375 11 -2 21.59375 -2 
C 31.90625 -2 41.703125 6.890625 41.703125 19.796875 
C 41.703125 32.09375 33.90625 41.59375 24.203125 41.59375 
C 19.09375 41.59375 14.796875 39.6875 11.40625 36 
z
" id="CMR17-53"/>
      </defs>
      <g transform="translate(21.862358 71.954518)scale(0.12 -0.12)">
       <use transform="scale(0.996264)" xlink:href="#CMR17-48"/>
       <use transform="translate(45.690477 0)scale(0.996264)" xlink:href="#CMMI12-58"/>
       <use transform="translate(72.787654 0)scale(0.996264)" xlink:href="#CMR17-53"/>
      </g>
     </g>
    </g>
    <g id="ytick_7">
     <g id="line2d_23">
      <g>
       <use style="stroke:#000000;stroke-width:0.8;" x="40.32" xlink:href="#m318d8e1b50" y="40.813714"/>
      </g>
     </g>
     <g id="line2d_24">
      <g>
       <use style="stroke:#000000;stroke-width:0.8;" x="279.36" xlink:href="#m5cf132acba" y="40.813714"/>
      </g>
     </g>
     <g id="text_13">
      <!-- $0.6$ -->
      <defs>
       <path d="M 10.59375 34.34375 
C 10.59375 58 21.796875 63.6875 28.296875 63.6875 
C 30.40625 63.6875 35.5 63.265625 37.5 59.09375 
C 35.90625 59.09375 32.90625 59.09375 32.90625 55.59375 
C 32.90625 52.890625 35.09375 52 36.5 52 
C 37.40625 52 40.09375 52.390625 40.09375 55.796875 
C 40.09375 62.296875 35.09375 66 28.203125 66 
C 16.296875 66 3.796875 53.296875 3.796875 31.421875 
C 3.796875 4.015625 15.09375 -2 23.09375 -2 
C 32.796875 -2 42 6.734375 42 20.234375 
C 42 32.828125 33.90625 42 23.703125 42 
C 17.59375 42 13.09375 37.96875 10.59375 30.921875 
z
M 23.09375 0.390625 
C 10.796875 0.390625 10.796875 18.9375 10.796875 22.65625 
C 10.796875 29.90625 14.203125 40.390625 23.5 40.390625 
C 25.203125 40.390625 30.09375 40.390625 33.40625 33.4375 
C 35.203125 29.515625 35.203125 25.375 35.203125 20.34375 
C 35.203125 14.90625 35.203125 10.875 33.09375 6.84375 
C 30.90625 2.703125 27.703125 0.390625 23.09375 0.390625 
z
" id="CMR17-54"/>
      </defs>
      <g transform="translate(21.862358 44.964804)scale(0.12 -0.12)">
       <use transform="scale(0.996264)" xlink:href="#CMR17-48"/>
       <use transform="translate(45.690477 0)scale(0.996264)" xlink:href="#CMMI12-58"/>
       <use transform="translate(72.787654 0)scale(0.996264)" xlink:href="#CMR17-54"/>
      </g>
     </g>
    </g>
    <g id="ytick_8">
     <g id="line2d_25">
      <g>
       <use style="stroke:#000000;stroke-width:0.8;" x="40.32" xlink:href="#m318d8e1b50" y="13.824"/>
      </g>
     </g>
     <g id="line2d_26">
      <g>
       <use style="stroke:#000000;stroke-width:0.8;" x="279.36" xlink:href="#m5cf132acba" y="13.824"/>
      </g>
     </g>
     <g id="text_14">
      <!-- $0.7$ -->
      <defs>
       <path d="M 45.09375 61.796875 
L 45.09375 64 
L 21.59375 64 
C 9.90625 64 9.703125 65.09375 9.296875 67 
L 7.5 67 
L 4.59375 48.5 
L 6.40625 48.5 
C 6.703125 50.40625 7.40625 55.5 8.59375 57.390625 
C 9.203125 58.1875 16.59375 58.1875 18.296875 58.1875 
L 40.296875 58.1875 
L 29.203125 41.71875 
C 21.796875 30.640625 16.703125 15.671875 16.703125 2.59375 
C 16.703125 1.390625 16.703125 -2 20.296875 -2 
C 23.90625 -2 23.90625 1.390625 23.90625 2.6875 
L 23.90625 7.28125 
C 23.90625 23.65625 26.703125 34.4375 31.296875 41.3125 
z
" id="CMR17-55"/>
      </defs>
      <g transform="translate(21.862358 17.97509)scale(0.12 -0.12)">
       <use transform="scale(0.996264)" xlink:href="#CMR17-48"/>
       <use transform="translate(45.690477 0)scale(0.996264)" xlink:href="#CMMI12-58"/>
       <use transform="translate(72.787654 0)scale(0.996264)" xlink:href="#CMR17-55"/>
      </g>
     </g>
    </g>
    <g id="text_15">
     <!-- $P(x)$ -->
     <defs>
      <path d="M 29.59375 31.59375 
L 46.40625 31.59375 
C 60.203125 31.59375 74 41.765625 74 53.125 
C 74 60.90625 67.40625 68 54.796875 68 
L 23.90625 68 
C 22 68 21.09375 68 21.09375 66.09375 
C 21.09375 65.09375 22 65.09375 23.5 65.09375 
C 29.59375 65.09375 29.59375 64.296875 29.59375 63.203125 
C 29.59375 63 29.59375 62.40625 29.203125 60.90625 
L 15.703125 7.359375 
C 14.796875 3.890625 14.59375 2.890625 7.59375 2.890625 
C 5.703125 2.890625 4.703125 2.890625 4.703125 1.09375 
C 4.703125 0 5.59375 0 6.203125 0 
C 8.09375 0 10.09375 0.1875 12 0.1875 
L 23.703125 0.1875 
C 25.59375 0.1875 27.703125 0 29.59375 0 
C 30.40625 0 31.5 0 31.5 1.890625 
C 31.5 2.890625 30.59375 2.890625 29.09375 2.890625 
C 23.09375 2.890625 23 3.59375 23 4.578125 
C 23 5.078125 23.09375 5.765625 23.203125 6.265625 
z
M 36.796875 61.203125 
C 37.703125 64.890625 38.09375 65.09375 42 65.09375 
L 51.90625 65.09375 
C 59.40625 65.09375 65.59375 62.703125 65.59375 55.21875 
C 65.59375 52.640625 64.296875 44.15625 59.703125 39.578125 
C 58 37.78125 53.203125 34 44.09375 34 
L 30 34 
z
" id="CMMI12-80"/>
      <path d="M 30.59375 -24.40625 
C 30.59375 -24.3125 30.59375 -24.109375 30.296875 -23.8125 
C 25.703125 -19.109375 13.40625 -6.296875 13.40625 24.9375 
C 13.40625 56.171875 25.5 68.875 30.40625 73.890625 
C 30.40625 73.984375 30.59375 74.1875 30.59375 74.484375 
C 30.59375 74.796875 30.296875 75 29.90625 75 
C 28.796875 75 20.296875 67.578125 15.40625 56.5625 
C 10.40625 45.453125 9 34.65625 9 25.046875 
C 9 17.828125 9.703125 5.625 15.703125 -7.296875 
C 20.5 -17.703125 28.703125 -25 29.90625 -25 
C 30.40625 -25 30.59375 -24.8125 30.59375 -24.40625 
z
" id="CMR17-40"/>
      <path d="M 26.296875 24.9375 
C 26.296875 32.140625 25.59375 44.359375 19.59375 57.265625 
C 14.796875 67.6875 6.59375 75 5.40625 75 
C 5.09375 75 4.703125 74.890625 4.703125 74.390625 
C 4.703125 74.1875 4.796875 74.09375 4.90625 73.890625 
C 9.703125 68.875 21.90625 56.171875 21.90625 25.046875 
C 21.90625 -6.1875 9.796875 -18.90625 4.90625 -23.90625 
C 4.796875 -24.109375 4.703125 -24.203125 4.703125 -24.40625 
C 4.703125 -24.90625 5.09375 -25 5.40625 -25 
C 6.5 -25 15 -17.609375 19.90625 -6.59375 
C 24.90625 4.515625 26.296875 15.328125 26.296875 24.9375 
z
" id="CMR17-41"/>
     </defs>
     <g transform="translate(14.873566 120.751919)rotate(-90)scale(0.12 -0.12)">
      <use transform="scale(0.996264)" xlink:href="#CMMI12-80"/>
      <use transform="translate(76.425821 0)scale(0.996264)" xlink:href="#CMR17-40"/>
      <use transform="translate(111.706589 0)scale(0.996264)" xlink:href="#CMMI12-120"/>
      <use transform="translate(167.140648 0)scale(0.996264)" xlink:href="#CMR17-41"/>
     </g>
    </g>
   </g>
   <g id="line2d_27">
    <path clip-path="url(#p3fe44e8dd6)" d="M 40.32 201.050793 
L 56.57472 200.480714 
L 68.76576 199.84294 
L 78.5664 199.114789 
L 86.45472 198.312113 
L 92.9088 197.442301 
L 98.40672 196.485612 
L 103.18752 195.430337 
L 107.2512 194.312812 
L 110.8368 193.104507 
L 113.94432 191.839627 
L 116.8128 190.443844 
L 119.44224 188.922611 
L 121.83264 187.289826 
L 123.984 185.569814 
L 126.13536 183.559174 
L 128.04768 181.475332 
L 129.96 179.052433 
L 131.63328 176.597918 
L 133.30656 173.769162 
L 134.97984 170.493466 
L 136.65312 166.682251 
L 138.3264 162.227977 
L 139.76064 157.800698 
L 141.19488 152.710685 
L 142.62912 146.849522 
L 144.06336 140.098172 
L 145.4976 132.333206 
L 146.93184 123.439843 
L 148.60512 111.532071 
L 150.2784 97.982575 
L 152.42976 78.63913 
L 155.53728 50.643415 
L 156.73248 41.809833 
L 157.68864 36.322459 
L 158.40576 33.369254 
L 158.88384 32.022809 
L 159.36192 31.204618 
L 159.84 30.930142 
L 160.07904 30.998844 
L 160.55712 31.546482 
L 161.0352 32.631349 
L 161.51328 34.233113 
L 162.2304 37.538675 
L 163.18656 43.421642 
L 164.38176 52.610565 
L 166.05504 67.501797 
L 169.87968 102.012168 
L 171.55296 115.105674 
L 173.22624 126.535775 
L 174.89952 136.349984 
L 176.5728 144.704075 
L 178.24608 151.790481 
L 179.91936 157.800698 
L 181.59264 162.908326 
L 183.26592 167.263348 
L 184.9392 170.991952 
L 186.61248 174.19878 
L 188.28576 176.969955 
L 190.19808 179.693616 
L 192.1104 182.0256 
L 194.02272 184.034206 
L 196.17408 185.975143 
L 198.56448 187.80785 
L 200.95488 189.363562 
L 203.58432 190.81628 
L 206.4528 192.152256 
L 209.79936 193.450455 
L 213.38496 194.597344 
L 217.44864 195.661416 
L 222.22944 196.669466 
L 227.72736 197.586352 
L 234.18144 198.422729 
L 241.83072 199.176817 
L 250.91424 199.84294 
L 262.14912 200.438636 
L 276.49152 200.966979 
L 279.12096 201.044036 
L 279.12096 201.044036 
" style="fill:none;stroke:#ffa500;stroke-linecap:square;stroke-width:1.7;"/>
   </g>
   <g id="line2d_28">
    <path clip-path="url(#p3fe44e8dd6)" d="M 40.32 199.447734 
L 52.75008 198.674672 
L 62.78976 197.838199 
L 71.3952 196.903741 
L 78.5664 195.911958 
L 84.78144 194.840942 
L 90.27936 193.678276 
L 95.2992 192.3888 
L 99.60192 191.064074 
L 103.6656 189.580528 
L 107.2512 188.041225 
L 110.59776 186.368041 
L 113.70528 184.569408 
L 116.57376 182.661046 
L 119.44224 180.472773 
L 122.07168 178.180747 
L 124.70112 175.572738 
L 127.09152 172.889673 
L 129.48192 169.872468 
L 131.87232 166.485831 
L 134.26272 162.698418 
L 136.65312 158.488551 
L 139.28256 153.36655 
L 142.15104 147.23964 
L 145.97568 138.46666 
L 150.2784 128.690854 
L 152.42976 124.373267 
L 154.10304 121.520033 
L 155.53728 119.53723 
L 156.73248 118.268837 
L 157.68864 117.531358 
L 158.6448 117.055313 
L 159.60096 116.849661 
L 160.55712 116.918321 
L 161.51328 117.259982 
L 162.46944 117.868166 
L 163.4256 118.731532 
L 164.6208 120.145338 
L 165.816 121.894655 
L 167.25024 124.373267 
L 169.16256 128.183014 
L 171.792 134.023257 
L 179.44128 151.382155 
L 182.07072 156.684689 
L 184.70016 161.480416 
L 187.09056 165.392925 
L 189.48096 168.896811 
L 191.87136 172.021234 
L 194.26176 174.800761 
L 196.8912 177.502645 
L 199.52064 179.87658 
L 202.15008 181.964919 
L 205.01856 183.961744 
L 208.12608 185.841731 
L 211.47264 187.588394 
L 215.05824 189.19304 
L 218.88288 190.653403 
L 222.94656 191.972171 
L 227.48832 193.215772 
L 232.50816 194.363572 
L 238.24512 195.445655 
L 244.6992 196.436181 
L 252.10944 197.348661 
L 260.95392 198.20474 
L 271.23264 198.969977 
L 279.12096 199.434989 
L 279.12096 199.434989 
" style="fill:none;stroke:#800080;stroke-linecap:square;stroke-width:1.7;"/>
   </g>
   <g id="line2d_29">
    <path clip-path="url(#p3fe44e8dd6)" d="M 40.32 196.827108 
L 51.0768 195.796354 
L 60.39936 194.687366 
L 68.76576 193.472408 
L 76.176 192.178347 
L 82.86912 190.793685 
L 89.08416 189.288025 
L 94.82112 187.677792 
L 100.31904 185.906885 
L 105.57792 183.979605 
L 110.59776 181.908939 
L 115.6176 179.603215 
L 120.87648 176.940908 
L 126.85248 173.651353 
L 143.34624 164.36549 
L 146.93184 162.715217 
L 150.03936 161.528935 
L 152.90784 160.681077 
L 155.53728 160.141679 
L 157.92768 159.865155 
L 160.31808 159.800831 
L 162.70848 159.950621 
L 165.09888 160.310083 
L 167.72832 160.935003 
L 170.5968 161.866371 
L 173.70432 163.128843 
L 177.28992 164.846496 
L 181.83168 167.298497 
L 190.43712 172.278487 
L 197.60832 176.303219 
L 203.10624 179.137446 
L 208.36512 181.594018 
L 213.38496 183.697944 
L 218.64384 185.658019 
L 224.14176 187.460052 
L 229.87872 189.098983 
L 235.85472 190.57676 
L 242.3088 191.947293 
L 249.48 193.239371 
L 257.36832 194.429878 
L 266.2128 195.533352 
L 276.25248 196.552827 
L 279.12096 196.806628 
L 279.12096 196.806628 
" style="fill:none;stroke:#00bfff;stroke-linecap:square;stroke-width:1.7;"/>
   </g>
   <g id="line2d_30">
    <path clip-path="url(#p3fe44e8dd6)" d="M 40.32 194.160907 
L 45.57888 192.909311 
L 50.12064 191.606461 
L 54.18432 190.221965 
L 58.00896 188.685766 
L 61.35552 187.115911 
L 64.46304 185.431597 
L 67.57056 183.487732 
L 70.43904 181.421449 
L 73.06848 179.25917 
L 75.69792 176.800173 
L 78.08832 174.270721 
L 80.47872 171.425086 
L 82.86912 168.227434 
L 85.25952 164.643887 
L 87.64992 160.647055 
L 90.04032 156.223117 
L 92.66976 150.876552 
L 95.77728 144.005468 
L 103.6656 126.216651 
L 105.33888 123.086821 
L 106.77312 120.8072 
L 107.96832 119.254159 
L 109.16352 118.060627 
L 110.11968 117.387405 
L 111.07584 116.978309 
L 112.032 116.841071 
L 112.98816 116.978309 
L 113.94432 117.387405 
L 114.90048 118.060627 
L 115.85664 118.985494 
L 117.05184 120.46972 
L 118.48608 122.678434 
L 120.15936 125.743279 
L 122.31072 130.247207 
L 125.65728 137.908669 
L 130.43808 148.818339 
L 133.30656 154.813309 
L 135.936 159.796536 
L 138.3264 163.878277 
L 140.7168 167.542603 
L 143.1072 170.814852 
L 145.4976 173.728038 
L 147.888 176.317868 
L 150.51744 178.835369 
L 153.14688 181.048552 
L 156.01536 183.162678 
L 158.88384 185.007674 
L 161.99136 186.748027 
L 165.33792 188.368547 
L 168.92352 189.860978 
L 172.9872 191.301026 
L 177.28992 192.588514 
L 182.07072 193.788847 
L 187.56864 194.931678 
L 193.78368 195.985442 
L 200.71584 196.933093 
L 208.8432 197.8153 
L 218.4048 198.622163 
L 229.87872 199.356969 
L 243.74304 200.012502 
L 260.95392 200.594133 
L 279.12096 201.02896 
L 279.12096 201.02896 
" style="fill:none;stroke:#3cb371;stroke-linecap:square;stroke-width:1.7;"/>
   </g>
   <g id="patch_3">
    <path d="M 40.32 202.752 
L 40.32 13.824 
" style="fill:none;stroke:#000000;stroke-linecap:square;stroke-linejoin:miter;stroke-width:0.8;"/>
   </g>
   <g id="patch_4">
    <path d="M 279.36 202.752 
L 279.36 13.824 
" style="fill:none;stroke:#000000;stroke-linecap:square;stroke-linejoin:miter;stroke-width:0.8;"/>
   </g>
   <g id="patch_5">
    <path d="M 40.32 202.752 
L 279.36 202.752 
" style="fill:none;stroke:#000000;stroke-linecap:square;stroke-linejoin:miter;stroke-width:0.8;"/>
   </g>
   <g id="patch_6">
    <path d="M 40.32 13.824 
L 279.36 13.824 
" style="fill:none;stroke:#000000;stroke-linecap:square;stroke-linejoin:miter;stroke-width:0.8;"/>
   </g>
   <g id="legend_1">
    <g id="line2d_31">
     <path d="M 175.719623 28.824 
L 184.719623 28.824 
" style="fill:none;stroke:#ffa500;stroke-linecap:square;stroke-width:1.7;"/>
    </g>
    <g id="line2d_32"/>
    <g id="text_16">
     <!-- $x_0=0,\, \gamma=0.5$ -->
     <defs>
      <path d="M 64.296875 32 
C 65.796875 32 67.296875 32 67.296875 33.6875 
C 67.296875 35.5 65.59375 35.5 63.90625 35.5 
L 8 35.5 
C 6.296875 35.5 4.59375 35.5 4.59375 33.6875 
C 4.59375 32 6.09375 32 7.59375 32 
z
M 63.90625 14.484375 
C 65.59375 14.484375 67.296875 14.484375 67.296875 16.296875 
C 67.296875 18 65.796875 18 64.296875 18 
L 7.59375 18 
C 6.09375 18 4.59375 18 4.59375 16.296875 
C 4.59375 14.484375 6.296875 14.484375 8 14.484375 
z
" id="CMR17-61"/>
      <path d="M 19.5 -0.40625 
C 19.5 5.390625 17.59375 9.6875 13.5 9.6875 
C 10.296875 9.6875 8.703125 7.09375 8.703125 4.890625 
C 8.703125 2.6875 10.203125 0 13.59375 0 
C 14.90625 0 16 0.390625 16.90625 1.296875 
C 17.09375 1.5 17.203125 1.5 17.296875 1.5 
C 17.5 1.5 17.5 0.09375 17.5 -0.40625 
C 17.5 -3.640625 16.90625 -10.03125 11.09375 -16.421875 
C 10 -17.609375 10 -17.8125 10 -18 
C 10 -18.5 10.5 -19 11 -19 
C 11.796875 -19 19.5 -11.703125 19.5 -0.40625 
z
" id="CMMI12-59"/>
      <path d="M 37.796875 12.265625 
C 37.59375 17.140625 37.40625 24.78125 33.59375 33.71875 
C 31.59375 38.6875 28.203125 44 20.90625 44 
C 8.59375 44 1.90625 28.359375 1.90625 25.765625 
C 1.90625 24.875 2.59375 24.875 2.90625 24.875 
C 3.796875 24.875 3.796875 25.078125 4.296875 26.375 
C 6.40625 32.515625 12.796875 37.390625 19.703125 37.390625 
C 33.59375 37.390625 35.59375 22 35.59375 12.171875 
C 35.59375 5.90625 34.90625 3.828125 34.296875 1.84375 
C 32.40625 -4.3125 29.09375 -16.625 29.09375 -19.40625 
C 29.09375 -20.203125 29.40625 -21.109375 30.203125 -21.109375 
C 31.703125 -21.109375 32.59375 -17.8125 33.703125 -13.84375 
C 36.09375 -5.109375 36.703125 -0.734375 37.203125 3.234375 
C 37.5 5.625 43.203125 22.015625 51.09375 37.609375 
C 51.796875 39.203125 53.203125 41.890625 53.203125 42.1875 
C 53.203125 42.296875 53.09375 43 52.203125 43 
C 52 43 51.5 43 51.296875 42.59375 
C 51.09375 42.390625 47.59375 35.625 44.59375 28.875 
C 43.09375 25.46875 41.09375 21 37.796875 12.265625 
z
" id="CMMI12-13"/>
     </defs>
     <g transform="translate(190.719623 33.024)scale(0.12 -0.12)">
      <use transform="translate(0 14.943915)scale(0.996264)" xlink:href="#CMMI12-120"/>
      <use transform="translate(55.43406 0)scale(0.697382)" xlink:href="#CMR17-48"/>
      <use transform="translate(115.589382 14.943915)scale(0.996264)" xlink:href="#CMR17-61"/>
      <use transform="translate(214.978179 14.943915)scale(0.996264)" xlink:href="#CMR17-48"/>
      <use transform="translate(260.668656 14.943915)scale(0.996264)" xlink:href="#CMMI12-59"/>
      <use transform="translate(320.974644 14.943915)scale(0.996264)" xlink:href="#CMMI12-13"/>
      <use transform="translate(404.667221 14.943915)scale(0.996264)" xlink:href="#CMR17-61"/>
      <use transform="translate(504.056018 14.943915)scale(0.996264)" xlink:href="#CMR17-48"/>
      <use transform="translate(549.746495 14.943915)scale(0.996264)" xlink:href="#CMMI12-58"/>
      <use transform="translate(576.843672 14.943915)scale(0.996264)" xlink:href="#CMR17-53"/>
     </g>
    </g>
    <g id="line2d_33">
     <path d="M 175.719623 45.548596 
L 184.719623 45.548596 
" style="fill:none;stroke:#800080;stroke-linecap:square;stroke-width:1.7;"/>
    </g>
    <g id="line2d_34"/>
    <g id="text_17">
     <!-- $x_0=0,\,\gamma=1$ -->
     <g transform="translate(190.719623 49.748596)scale(0.12 -0.12)">
      <use transform="translate(0 14.943915)scale(0.996264)" xlink:href="#CMMI12-120"/>
      <use transform="translate(55.43406 0)scale(0.697382)" xlink:href="#CMR17-48"/>
      <use transform="translate(115.589382 14.943915)scale(0.996264)" xlink:href="#CMR17-61"/>
      <use transform="translate(214.978179 14.943915)scale(0.996264)" xlink:href="#CMR17-48"/>
      <use transform="translate(260.668656 14.943915)scale(0.996264)" xlink:href="#CMMI12-59"/>
      <use transform="translate(320.974644 14.943915)scale(0.996264)" xlink:href="#CMMI12-13"/>
      <use transform="translate(404.667221 14.943915)scale(0.996264)" xlink:href="#CMR17-61"/>
      <use transform="translate(504.056018 14.943915)scale(0.996264)" xlink:href="#CMR17-49"/>
     </g>
    </g>
    <g id="line2d_35">
     <path d="M 175.719623 62.273192 
L 184.719623 62.273192 
" style="fill:none;stroke:#00bfff;stroke-linecap:square;stroke-width:1.7;"/>
    </g>
    <g id="line2d_36"/>
    <g id="text_18">
     <!-- $x_0=0,\, \gamma=2$ -->
     <g transform="translate(190.719623 66.473192)scale(0.12 -0.12)">
      <use transform="translate(0 14.943915)scale(0.996264)" xlink:href="#CMMI12-120"/>
      <use transform="translate(55.43406 0)scale(0.697382)" xlink:href="#CMR17-48"/>
      <use transform="translate(115.589382 14.943915)scale(0.996264)" xlink:href="#CMR17-61"/>
      <use transform="translate(214.978179 14.943915)scale(0.996264)" xlink:href="#CMR17-48"/>
      <use transform="translate(260.668656 14.943915)scale(0.996264)" xlink:href="#CMMI12-59"/>
      <use transform="translate(320.974644 14.943915)scale(0.996264)" xlink:href="#CMMI12-13"/>
      <use transform="translate(404.667221 14.943915)scale(0.996264)" xlink:href="#CMR17-61"/>
      <use transform="translate(504.056018 14.943915)scale(0.996264)" xlink:href="#CMR17-50"/>
     </g>
    </g>
    <g id="line2d_37">
     <path d="M 175.719623 78.997787 
L 184.719623 78.997787 
" style="fill:none;stroke:#3cb371;stroke-linecap:square;stroke-width:1.7;"/>
    </g>
    <g id="line2d_38"/>
    <g id="text_19">
     <!-- $x_0=-2,\, \gamma=1$ -->
     <g transform="translate(190.719623 83.197787)scale(0.12 -0.12)">
      <use transform="translate(0 14.943915)scale(0.996264)" xlink:href="#CMMI12-120"/>
      <use transform="translate(55.43406 0)scale(0.697382)" xlink:href="#CMR17-48"/>
      <use transform="translate(115.589382 14.943915)scale(0.996264)" xlink:href="#CMR17-61"/>
      <use transform="translate(214.978179 14.943915)scale(0.996264)" xlink:href="#CMSY10-0"/>
      <use transform="translate(292.465647 14.943915)scale(0.996264)" xlink:href="#CMR17-50"/>
      <use transform="translate(338.156124 14.943915)scale(0.996264)" xlink:href="#CMMI12-59"/>
      <use transform="translate(398.462112 14.943915)scale(0.996264)" xlink:href="#CMMI12-13"/>
      <use transform="translate(482.154688 14.943915)scale(0.996264)" xlink:href="#CMR17-61"/>
      <use transform="translate(581.543486 14.943915)scale(0.996264)" xlink:href="#CMR17-49"/>
     </g>
    </g>
   </g>
  </g>
 </g>
 <defs>
  <clipPath id="p3fe44e8dd6">
   <rect height="188.928" width="239.04" x="40.32" y="13.824"/>
  </clipPath>
 </defs>
</svg>
