<?xml version="1.0" encoding="UTF-8" standalone="no"?>
<!-- Created with Inkscape (http://www.inkscape.org/) -->

<svg
   xmlns:dc="http://purl.org/dc/elements/1.1/"
   xmlns:cc="http://creativecommons.org/ns#"
   xmlns:rdf="http://www.w3.org/1999/02/22-rdf-syntax-ns#"
   xmlns:svg="http://www.w3.org/2000/svg"
   xmlns="http://www.w3.org/2000/svg"
   xmlns:sodipodi="http://sodipodi.sourceforge.net/DTD/sodipodi-0.dtd"
   xmlns:inkscape="http://www.inkscape.org/namespaces/inkscape"
   width="722"
   height="662"
   id="svg2"
   sodipodi:version="0.32"
   inkscape:version="0.92.4 (5da689c313, 2019-01-14)"
   sodipodi:docname="Resonant_Cavity_Magnetron_Diagram.svg"
   inkscape:output_extension="org.inkscape.output.svg.inkscape"
   version="1.0">
  <defs
     id="defs4">
    <inkscape:perspective
       sodipodi:type="inkscape:persp3d"
       inkscape:vp_x="0 : 526.18109 : 1"
       inkscape:vp_y="0 : 1000 : 0"
       inkscape:vp_z="744.09448 : 526.18109 : 1"
       inkscape:persp3d-origin="372.04724 : 350.78739 : 1"
       id="perspective10" />
    <inkscape:perspective
       id="perspective2502"
       inkscape:persp3d-origin="372.04724 : 350.78739 : 1"
       inkscape:vp_z="744.09448 : 526.18109 : 1"
       inkscape:vp_y="0 : 1000 : 0"
       inkscape:vp_x="0 : 526.18109 : 1"
       sodipodi:type="inkscape:persp3d" />
  </defs>
  <sodipodi:namedview
     id="base"
     pagecolor="#ffffff"
     bordercolor="#666666"
     borderopacity="1.0"
     gridtolerance="10000"
     guidetolerance="10"
     objecttolerance="10"
     inkscape:pageopacity="0.0"
     inkscape:pageshadow="2"
     inkscape:zoom="0.9899495"
     inkscape:cx="232.56422"
     inkscape:cy="244.71778"
     inkscape:document-units="px"
     inkscape:current-layer="layer2"
     showgrid="true"
     inkscape:window-width="1766"
     inkscape:window-height="1124"
     inkscape:window-x="312"
     inkscape:window-y="96"
     units="px"
     fit-margin-top="0"
     fit-margin-left="0"
     fit-margin-right="0"
     fit-margin-bottom="0"
     inkscape:snap-object-midpoints="true"
     inkscape:window-maximized="0">
    <inkscape:grid
       type="xygrid"
       id="grid3321"
       visible="true"
       enabled="true"
       originx="125.99999"
       originy="146.00001" />
  </sodipodi:namedview>
  <metadata
     id="metadata7">
    <rdf:RDF>
      <cc:Work
         rdf:about="">
        <dc:format>image/svg+xml</dc:format>
        <dc:type
           rdf:resource="http://purl.org/dc/dcmitype/StillImage" />
        <dc:title>Resonant Cavity Magnetron Diagram</dc:title>
        <dc:creator>
          <cc:Agent>
            <dc:title>Vanessa Ezekowitz</dc:title>
          </cc:Agent>
        </dc:creator>
        <dc:source>http://en.wikipedia.org/wiki/Image:Resonant_Cavity_Magnetron_Diagram.png</dc:source>
        <dc:description>SVG-ified version of above image originally drawn by Ian Dunster (based on an image from &quot;Radar&quot; by J.T. Morgan)</dc:description>
      </cc:Work>
    </rdf:RDF>
  </metadata>
  <g
     inkscape:groupmode="layer"
     id="layer2"
     style="display:inline"
     transform="translate(26.494904,64.178593)">
    <rect
       style="opacity:1;vector-effect:none;fill:#ffffff;fill-opacity:1;stroke:#000000;stroke-width:1;stroke-linecap:butt;stroke-linejoin:miter;stroke-miterlimit:4;stroke-dasharray:none;stroke-dashoffset:0;stroke-opacity:0.99275363;paint-order:normal"
       id="rect856"
       width="721"
       height="661"
       x="-25.994904"
       y="-63.678593"
       rx="1.04874e-16"
       ry="1.04874e-16" />
    <path
       style="fill:#fb1832;fill-opacity:1;fill-rule:nonzero;stroke:#000000;stroke-width:1.5;stroke-linecap:butt;stroke-linejoin:round;stroke-miterlimit:4;stroke-dashoffset:0;stroke-opacity:1"
       d="m 321.50233,66.447321 c -81.5311,4.83826 -146.22827,72.566699 -146.22827,155.316029 0,85.88708 69.69666,155.59255 155.57293,155.59255 85.87625,0 155.57292,-69.70547 155.57292,-155.59255 0,-80.79629 -61.67927,-147.27236 -140.48415,-154.868992 l -3.01847,-0.276418"
       id="path3476"
       sodipodi:nodetypes="ccssc"
       inkscape:connector-curvature="0" />
    <path
       id="path3323"
       style="fill:#ffffff;fill-opacity:1;fill-rule:evenodd;stroke:#000000;stroke-width:1.5;stroke-linecap:butt;stroke-linejoin:round;stroke-miterlimit:4;stroke-dasharray:none;stroke-opacity:1"
       d="m 344.16903,97.647022 -1.65285,-2.00303 V 15.52278 h 7.86433 l -0.2312,51.80281 -6.9638,-0.618235 m 1.77776,-0.650464 -0.0346,32.747121 v 0 c 13.41096,6.975338 17.4194,19.513098 14.58056,32.218818 -2.83884,12.70571 -11.57594,19.48907 -22.16865,21.00835 l -0.0228,13.49453 c 11.07067,0.72462 21.31897,5.35158 29.58842,12.29929 l 8.40554,-9.34706 c -8.84944,-13.22248 -4.66361,-31.09472 8.92431,-39.5262 13.58795,-8.43147 31.45794,-4.24514 39.88835,9.34452 8.43041,13.58964 4.2446,31.46188 -9.34334,39.89335 -9.15538,5.68104 -19.79948,5.95912 -28.60123,0.17126 l -9.53911,9.29895 c 6.67954,7.80034 10.70811,17.57733 11.18065,27.94121 l 12.40765,-0.27598 -0.63627,-0.24913 c 3.17819,-15.78018 18.87737,-25.28892 34.40646,-21.47397 15.52914,3.81497 25.03669,19.5161 21.2222,35.0472 -3.81447,15.53106 -19.51363,25.03982 -35.04276,21.22485 -10.46334,-2.57047 -18.10702,-9.9841 -20.38388,-20.75037 l -12.13833,-0.20171 c -0.75918,10.30718 -5.06429,19.84446 -11.58904,27.87782 l 10.21369,10.56833 -0.36284,-0.57325 c 13.79221,-8.01316 31.31779,-2.56176 38.75679,11.59506 7.439,14.15684 1.9883,31.68465 -12.16675,39.12459 -14.15504,7.43994 -31.68064,1.98855 -39.11964,-12.16831 -5.01231,-9.53869 -4.52986,-20.17682 1.74426,-28.68217 l -9.27266,-9.61048 c -7.99655,6.94467 -18.37581,11.16263 -29.75439,11.3933 l -0.23879,14.26944 c 15.58215,3.06448 25.25731,18.66288 21.60939,34.23392 -3.64794,15.57107 -19.24435,25.24745 -34.81345,21.59905 -15.56909,-3.64838 -25.24425,-19.24676 -21.59631,-34.81781 2.45791,-10.4916 9.78832,-18.21522 20.04082,-20.55562 l -0.21578,-15.38576 c -9.36726,-1.30649 -18.33195,-5.7644 -25.6354,-12.29297 l 0.72094,-0.45393 -9.83306,10.82846 c 8.93071,13.46221 4.46143,31.26564 -9.25876,39.48011 -13.72019,8.21445 -31.5214,3.74462 -39.73481,-9.9773 -8.21343,-13.72192 -3.74417,-31.52537 9.97604,-39.73982 9.24448,-5.53481 19.89165,-5.64369 28.76688,0.18068 l 10.54799,-9.09206 c -7.15,-8.10394 -10.8268,-18.15893 -11.47037,-28.79887 l -13.57762,-0.0803 0.5331,0.36604 c -3.50033,15.8417 -19.33223,25.12773 -34.80591,21.09379 -15.4737,-4.03395 -24.75858,-19.86782 -20.72515,-35.34347 4.03344,-15.47565 19.86532,-24.76168 35.33902,-20.72774 10.426,2.71801 17.96421,10.23887 20.18309,20.62484 l 13.4953,-0.0346 -0.43697,0.0493 c 1.05132,-10.58315 5.45517,-20.28502 12.19658,-28.15645 l -9.9041,-9.06145 c -14.4937,7.95275 -31.86936,2.04069 -38.93222,-12.30754 -7.06285,-14.34825 -1.15155,-31.7261 13.19489,-38.78984 14.34641,-7.06375 31.72207,-1.15171 38.78493,13.19654 4.75888,9.66767 3.9959,20.28936 -2.49116,29.08857 l 8.90207,9.41081 c 6.73478,-6.35731 15.66481,-10.39735 25.208,-12.4824 l 0.38293,-13.25395 c -14.85524,-4.18199 -23.38615,-20.4346 -18.63031,-35.70368 2.83228,-9.09333 9.74141,-15.29143 17.94048,-18.942513 l -0.1513,-81.347507 h -8.01111 v 51.327651 l 7.18855,-0.500757"
       sodipodi:nodetypes="cccccccccssscccccssscccccssscccccsssccccssscccccssscccccssscccczcccccccccc"
       inkscape:connector-curvature="0" />
    <text
       xml:space="preserve"
       style="font-style:normal;font-variant:normal;font-weight:normal;font-stretch:normal;font-size:24.03484917px;line-height:0%;font-family:'Nimbus Sans L';-inkscape-font-specification:'Nimbus Sans L';text-align:start;writing-mode:lr-tb;text-anchor:start;fill:#000000;fill-opacity:1;stroke:none;stroke-width:1px;stroke-linecap:butt;stroke-linejoin:miter;stroke-opacity:1"
       x="82.923653"
       y="1.5187521"
       id="text3285"
       transform="scale(0.999937,1.000063)"><tspan
         sodipodi:role="line"
         id="tspan3287"
         x="82.923653"
         y="1.5187521"
         style="font-size:30.04356003px;line-height:1.20000005;stroke-width:1px">Output coupling</tspan><tspan
         sodipodi:role="line"
         x="82.923653"
         y="37.571022"
         id="tspan3289"
         style="font-size:30.04356003px;line-height:1.20000005;stroke-width:1px">loop</tspan></text>
    <text
       xml:space="preserve"
       style="font-style:normal;font-variant:normal;font-weight:normal;font-stretch:normal;font-size:24.03484917px;line-height:0%;font-family:'Nimbus Sans L';-inkscape-font-specification:'Nimbus Sans L';text-align:start;writing-mode:lr-tb;text-anchor:start;fill:#000000;fill-opacity:1;stroke:none;stroke-width:1px;stroke-linecap:butt;stroke-linejoin:miter;stroke-opacity:1"
       x="6.4688964"
       y="112.91302"
       id="text3291"
       transform="scale(0.99993697,1.000063)"><tspan
         sodipodi:role="line"
         id="tspan3293"
         x="6.4688964"
         y="112.91302"
         style="font-size:30.04356003px;line-height:1.20000005;stroke-width:1px">Copper</tspan><tspan
         sodipodi:role="line"
         x="6.4688964"
         y="148.96529"
         id="tspan3295"
         style="font-size:30.04356003px;line-height:1.20000005;stroke-width:1px">anode block</tspan></text>
    <text
       xml:space="preserve"
       style="font-style:normal;font-variant:normal;font-weight:normal;font-stretch:normal;font-size:24.03484917px;line-height:0%;font-family:'Nimbus Sans L';-inkscape-font-specification:'Nimbus Sans L';text-align:start;writing-mode:lr-tb;text-anchor:start;fill:#000000;fill-opacity:1;stroke:none;stroke-width:1px;stroke-linecap:butt;stroke-linejoin:miter;stroke-opacity:1"
       x="418.67371"
       y="39.315704"
       id="text3297"
       transform="scale(0.99993697,1.000063)"><tspan
         sodipodi:role="line"
         id="tspan3299"
         x="418.67371"
         y="39.315704"
         style="font-size:30.04356003px;line-height:1.20000005;stroke-width:1px">Resonating cavity</tspan></text>
    <text
       xml:space="preserve"
       style="font-style:normal;font-variant:normal;font-weight:normal;font-stretch:normal;font-size:24.03484917px;line-height:0%;font-family:'Nimbus Sans L';-inkscape-font-specification:'Nimbus Sans L';text-align:start;writing-mode:lr-tb;text-anchor:start;fill:#000000;fill-opacity:1;stroke:none;stroke-width:1px;stroke-linecap:butt;stroke-linejoin:miter;stroke-opacity:1"
       x="413.84531"
       y="413.99243"
       id="text3301"
       transform="scale(0.99993697,1.000063)"><tspan
         sodipodi:role="line"
         id="tspan3303"
         x="413.84531"
         y="413.99243"
         style="font-size:30.04356003px;line-height:1.20000005;stroke-width:1px">Leads to cathode</tspan><tspan
         sodipodi:role="line"
         x="413.84531"
         y="450.04471"
         id="tspan3305"
         style="font-size:30.04356003px;line-height:1.20000005;stroke-width:1px">&amp; heater</tspan></text>
    <text
       xml:space="preserve"
       style="font-style:normal;font-variant:normal;font-weight:normal;font-stretch:normal;font-size:24.03484917px;line-height:0%;font-family:'Nimbus Sans L';-inkscape-font-specification:'Nimbus Sans L';text-align:start;writing-mode:lr-tb;text-anchor:start;fill:#000000;fill-opacity:1;stroke:none;stroke-width:1px;stroke-linecap:butt;stroke-linejoin:miter;stroke-opacity:1"
       x="42.21965"
       y="396.0563"
       id="text3307"
       transform="scale(0.99993699,1.000063)"><tspan
         sodipodi:role="line"
         id="tspan3309"
         x="42.21965"
         y="396.0563"
         style="font-size:30.04356003px;line-height:1.20000005;stroke-width:1px">Oxide-coated</tspan><tspan
         sodipodi:role="line"
         x="42.21965"
         y="432.10858"
         id="tspan3311"
         style="font-size:30.04356003px;line-height:1.20000005;stroke-width:1px">cathode</tspan></text>
    <text
       xml:space="preserve"
       style="font-style:normal;font-variant:normal;font-weight:normal;font-stretch:normal;font-size:24.03484917px;line-height:0%;font-family:'Nimbus Sans L';-inkscape-font-specification:'Nimbus Sans L';text-align:center;writing-mode:lr-tb;text-anchor:middle;fill:#000000;fill-opacity:1;stroke:none;stroke-width:1px;stroke-linecap:butt;stroke-linejoin:miter;stroke-opacity:1"
       x="343.02832"
       y="514.31647"
       id="text3313"
       transform="scale(0.99993697,1.000063)"><tspan
         sodipodi:role="line"
         id="tspan3315"
         x="343.02835"
         y="514.31647"
         style="font-size:30.04356003px;line-height:1.20000005;stroke-width:1px">Resonant cavity magnetron high-power</tspan><tspan
         sodipodi:role="line"
         x="343.02832"
         y="550.36871"
         id="tspan3317"
         style="font-size:30.04356003px;line-height:1.20000005;stroke-width:1px">high-frequency oscillator</tspan></text>
    <path
       style="fill:none;fill-opacity:1;fill-rule:nonzero;stroke:#000000;stroke-width:1.98618078;stroke-linecap:butt;stroke-linejoin:miter;stroke-miterlimit:4;stroke-dashoffset:0;stroke-opacity:1"
       d="m 313.46573,57.586416 c -82.61397,8.878692 -147.02596,79.259914 -147.02596,164.677014 0,91.42307 73.78854,165.62152 164.70654,165.62152 90.91802,0 164.70656,-74.19845 164.70656,-165.62152 0,-84.39914 -62.8859,-154.118681 -144.08021,-164.333454 l -1.43435,-0.34356"
       id="path2509"
       sodipodi:nodetypes="ccssc"
       inkscape:connector-curvature="0" />
    <ellipse
       style="opacity:1;fill:none;fill-opacity:1;fill-rule:nonzero;stroke:#000000;stroke-width:1.5;stroke-linecap:butt;stroke-linejoin:round;stroke-miterlimit:4;stroke-dasharray:none;stroke-dashoffset:0;stroke-opacity:1"
       id="path3349"
       cx="331.38345"
       cy="222.12105"
       rx="7.1527777"
       ry="7.1536794" />
    <path
       style="opacity:1;fill:#fb1832;fill-opacity:1;fill-rule:nonzero;stroke:#000000;stroke-width:1.5;stroke-linecap:butt;stroke-linejoin:round;stroke-miterlimit:4;stroke-dasharray:none;stroke-dashoffset:0;stroke-opacity:1"
       d="m 331.38202,194.39887 a 27.538195,27.541667 0 0 0 -27.5382,27.54167 27.538195,27.541667 0 0 0 27.5382,27.54166 27.538195,27.541667 0 0 0 27.53819,-27.54166 27.538195,27.541667 0 0 0 -27.53819,-27.54167 z m 0,9.33835 a 18.025,18.027273 0 0 1 18.025,18.02727 18.025,18.027273 0 0 1 -18.025,18.02727 18.025,18.027273 0 0 1 -18.025,-18.02727 18.025,18.027273 0 0 1 18.025,-18.02727 z"
       id="path3353"
       inkscape:connector-curvature="0" />
    <path
       style="fill:none;fill-rule:evenodd;stroke:#000000;stroke-width:1.24244213px;stroke-linecap:butt;stroke-linejoin:miter;stroke-opacity:1"
       d="m 319.37711,66.771312 -0.0385,30.096371"
       id="path3479"
       sodipodi:nodetypes="cc"
       inkscape:connector-curvature="0" />
    <path
       style="fill:none;fill-rule:evenodd;stroke:#000000;stroke-width:1;stroke-linecap:butt;stroke-linejoin:miter;stroke-miterlimit:4;stroke-dasharray:4.00000001, 1;stroke-dashoffset:0;stroke-opacity:1"
       d="M 332.20602,229.84702 V 432.15308"
       id="path3483"
       inkscape:connector-curvature="0" />
    <path
       style="fill:none;fill-rule:evenodd;stroke:#000000;stroke-width:1;stroke-linecap:butt;stroke-linejoin:miter;stroke-miterlimit:4;stroke-dasharray:4.00000001, 1;stroke-dashoffset:0;stroke-opacity:1"
       d="M 326.19769,227.84399 V 428.14702"
       id="path3485"
       inkscape:connector-curvature="0" />
    <g
       id="g3530"
       transform="matrix(2.0027778,0,0,2.0030303,-335.43428,-268.34532)"
       style="stroke-width:0.49927503">
      <path
         id="path3487"
         d="M 371,333.36218 H 340"
         style="fill:none;fill-rule:evenodd;stroke:#000000;stroke-width:0.49927503px;stroke-linecap:butt;stroke-linejoin:miter;stroke-opacity:1"
         inkscape:connector-curvature="0" />
      <path
         sodipodi:nodetypes="ccccc"
         id="path3528"
         d="m 342,333.36218 v -2.99999 l -7,2.99999 7,3 z"
         style="fill:#000000;fill-opacity:1;fill-rule:evenodd;stroke:none;stroke-width:0.49927503px;stroke-linecap:butt;stroke-linejoin:miter;stroke-opacity:1"
         inkscape:connector-curvature="0" />
    </g>
    <g
       style="display:inline;stroke-width:0.49927503"
       id="g3534"
       transform="matrix(-1.4176123,1.4149201,-1.4147417,-1.4177911,1257.1251,241.02383)">
      <path
         id="path3536"
         d="M 424.0637,333.60625 340,333.36218"
         style="fill:none;fill-rule:evenodd;stroke:#000000;stroke-width:0.49927503px;stroke-linecap:butt;stroke-linejoin:miter;stroke-opacity:1"
         sodipodi:nodetypes="cc"
         inkscape:connector-curvature="0" />
      <path
         sodipodi:nodetypes="ccccc"
         id="path3538"
         d="m 342,333.36218 v -2.99999 l -7,2.99999 7,3 z"
         style="fill:#000000;fill-opacity:1;fill-rule:evenodd;stroke:none;stroke-width:0.49927503px;stroke-linecap:butt;stroke-linejoin:miter;stroke-opacity:1"
         inkscape:connector-curvature="0" />
    </g>
    <g
       style="display:inline;stroke-width:0.49927503"
       id="g3540"
       transform="matrix(-1.7363582,-0.99821358,0.99808774,-1.7365771,455.65696,1102.0791)">
      <path
         id="path3542"
         d="M 371,333.36218 H 340"
         style="fill:none;fill-rule:evenodd;stroke:#000000;stroke-width:0.49927503px;stroke-linecap:butt;stroke-linejoin:miter;stroke-opacity:1"
         inkscape:connector-curvature="0" />
      <path
         sodipodi:nodetypes="ccccc"
         id="path3544"
         d="m 342,333.36218 v -2.99999 l -7,2.99999 7,3 z"
         style="fill:#000000;fill-opacity:1;fill-rule:evenodd;stroke:none;stroke-width:0.49927503px;stroke-linecap:butt;stroke-linejoin:miter;stroke-opacity:1"
         inkscape:connector-curvature="0" />
    </g>
    <g
       style="display:inline;stroke-width:0.49927503"
       id="g3546"
       transform="matrix(1.0514115,-1.7048124,1.7045975,1.0515441,-520.40122,375.59036)">
      <path
         id="path3548"
         d="M 392.45595,333.53993 340,333.36218"
         style="fill:none;fill-rule:evenodd;stroke:#000000;stroke-width:0.49927503px;stroke-linecap:butt;stroke-linejoin:miter;stroke-opacity:1"
         sodipodi:nodetypes="cc"
         inkscape:connector-curvature="0" />
      <path
         sodipodi:nodetypes="ccccc"
         id="path3550"
         d="m 342,333.36218 v -2.99999 l -7,2.99999 7,3 z"
         style="fill:#000000;fill-opacity:1;fill-rule:evenodd;stroke:none;stroke-width:0.49927503px;stroke-linecap:butt;stroke-linejoin:miter;stroke-opacity:1"
         inkscape:connector-curvature="0" />
    </g>
    <g
       style="display:inline;stroke-width:0.49927503"
       id="g3552"
       transform="matrix(-2.001344,-0.07577999,0.07577044,-2.0015963,971.38175,800.6839)">
      <path
         id="path3554"
         d="m 340,333.36218 14.03658,-0.1625 49.70656,45.51936"
         style="fill:none;fill-rule:evenodd;stroke:#000000;stroke-width:0.49927503px;stroke-linecap:butt;stroke-linejoin:miter;stroke-opacity:1"
         sodipodi:nodetypes="cc"
         inkscape:connector-curvature="0" />
      <path
         sodipodi:nodetypes="ccccc"
         id="path3556"
         d="m 342,333.36218 v -2.99999 l -7,2.99999 7,3 z"
         style="fill:#000000;fill-opacity:1;fill-rule:evenodd;stroke:none;stroke-width:0.49927503px;stroke-linecap:butt;stroke-linejoin:miter;stroke-opacity:1"
         inkscape:connector-curvature="0" />
    </g>
    <path
       style="fill:#ff9955;fill-rule:evenodd;stroke:#000000;stroke-width:1px;stroke-linecap:butt;stroke-linejoin:bevel;stroke-opacity:1"
       d="M 333.49351,93.640962 V -8.5135838 l -4.00556,4.0060606 V 97.647022 c -6.39421,4.680638 -6.44428,13.761618 -0.92985,17.133078 5.51441,3.37144 15.42784,2.73348 14.77047,-10.87361 l 0.17882,-20.28068 h -4.00555 v 20.0303 c 0,8.13126 -4.927,9.57144 -8.01111,7.83329 -2.91418,-1.6424 -3.91621,-6.90622 2.00278,-11.839348 z"
       id="path3329"
       sodipodi:nodetypes="cccczccccscc"
       inkscape:connector-curvature="0" />
  </g>
</svg>
