<?xml version="1.0" encoding="utf-8"?>
<!-- Generator: Adobe Illustrator 15.0.0, SVG Export Plug-In  -->
<!DOCTYPE svg PUBLIC "-//W3C//DTD SVG 1.1//EN" "http://www.w3.org/Graphics/SVG/1.1/DTD/svg11.dtd" [
	<!ENTITY ns_flows "http://ns.adobe.com/Flows/1.0/">
]>
<svg version="1.1"
	 xmlns="http://www.w3.org/2000/svg" xmlns:xlink="http://www.w3.org/1999/xlink" xmlns:a="http://ns.adobe.com/AdobeSVGViewerExtensions/3.0/"
	 x="0px" y="0px" width="354px" height="283px" viewBox="0 0 354 283" enable-background="new 0 0 354 283" xml:space="preserve">
<defs>
</defs>
<path fill="#FFFFFF" d="M354.331,257.107c0,16.767-9.592,26.357-26.357,26.357l-301.614-0.041c-16.766,0-26.358-9.591-26.358-26.357
	L0,26.359C0,9.59,9.592,0,26.358,0h301.613c16.766,0,26.359,9.59,26.359,26.359V257.107z"/>
<path fill="#008000" d="M343.27,249.786c0,15.288-7.332,22.619-22.617,22.619L33.68,272.364c-15.285,0-22.617-7.331-22.617-22.619
	L11.062,33.679c0-15.283,7.333-22.619,22.617-22.619h286.972c15.285,0,22.619,7.336,22.619,22.619V249.786z"/>
<path fill="#FF0000" d="M11.062,86.88V33.681c0-15.289,7.333-22.621,22.617-22.621H320.65c15.287,0,22.619,7.332,22.619,22.621
	V86.88H11.062z"/>
<path fill="#FFFFFF" d="M64.215,61.706v1.56h-3.72v-27.06h23.939v26.82h-3.81v-1.32H64.215z M80.625,58.526v-19.08h-16.41v19.08
	H80.625z M70.215,44.156h-5.16v-3h14.49v3h-5.67v2.58h5.1v3h-1.859c0.659,0.98,1.3,2,1.92,3.061l-2.011,0.84h3.061v3.09h-15.36
	v-3.09h5.49v-3.9h-4.59v-3h4.59V44.156z M76.786,49.736h-2.91v3.9h1.92c-0.42-0.801-0.96-1.65-1.62-2.551L76.786,49.736z"/>
<path fill="#FFFFFF" d="M137.985,44.996h-4.83v-2.88h16.021v2.88h-5.91c-0.66,0.521-1.37,1.04-2.13,1.561
	c1.16,1.061,2.05,2.26,2.67,3.6c1.8-0.92,3.64-2.28,5.521-4.08c1.659,1.18,2.625,1.891,2.895,2.13
	c0.271,0.24,0.405,0.445,0.405,0.615s-0.245,0.315-0.735,0.435c-0.49,0.12-1.615,0.66-3.375,1.62c0.76,3.12,2.8,5.729,6.12,7.83
	c-1.181,0.76-2.271,1.649-3.27,2.67c-2.801-2.261-4.65-5.26-5.551-9c-0.239,0.14-0.59,0.33-1.05,0.57c0.36,1.72,0.54,3.25,0.54,4.59
	c0,2.06-0.525,3.524-1.575,4.396c-1.05,0.869-2.875,1.305-5.475,1.305c-0.12-1.36-0.561-2.59-1.32-3.689
	c0.601,0.02,1.12,0.029,1.561,0.029c1.3,0,2.149-0.12,2.55-0.359c0.399-0.24,0.6-0.631,0.6-1.17c0-0.541-0.04-1.33-0.12-2.371
	c-3.08,2.521-6.89,4.68-11.43,6.48c-0.5-1.24-1.271-2.2-2.31-2.88c2.26-0.601,4.595-1.54,7.005-2.82
	c2.409-1.28,4.435-2.649,6.075-4.11c-0.12-0.439-0.24-0.789-0.36-1.049c-2.32,1.76-5.5,3.49-9.54,5.189
	c-0.6-0.96-1.35-1.83-2.25-2.61c3.859-0.939,7.25-2.579,10.17-4.92c-0.16-0.2-0.39-0.409-0.69-0.63c-2.88,1.62-5.579,2.801-8.1,3.54
	c-0.641-1.1-1.311-2.08-2.01-2.94C132.565,47.946,135.865,46.636,137.985,44.996z M139.185,37.585c-0.06-0.68-0.229-1.479-0.51-2.4
	l4.77-0.51c0.14,0.961,0.21,1.931,0.21,2.91h10.351v6.09h-3.96v-3.09h-17.641v3.09h-3.689v-6.09H139.185z"/>
<path fill="#FFFFFF" d="M208.215,37.466c-0.16-0.86-0.33-1.621-0.51-2.281l4.71-0.42c0.199,1.041,0.33,1.941,0.39,2.701h10.23v3.119
	h-25.83v-3.119H208.215z M207.525,60.085v0.99h-3.27v-7.891h11.79v6.181c0.699,0.1,1.204,0.149,1.515,0.149
	c0.31,0,0.505-0.064,0.585-0.194s0.12-0.386,0.12-0.765v-6.301h-16.11v10.62h-3.689V49.226h23.61v9.689
	c0,0.98-0.146,1.75-0.436,2.311c-0.29,0.559-0.825,0.99-1.604,1.289c-0.78,0.301-1.931,0.5-3.45,0.601
	c-0.021-1.001-0.2-1.87-0.54-2.61v0.45h-3.45v-0.87H207.525z M218.835,48.296h-16.95v-6.811h16.95V48.296z M214.666,45.716v-1.561
	h-8.94v1.561H214.666z M212.595,57.595v-1.77h-5.07v1.77H212.595z"/>
<path fill="#FFFFFF" d="M293.835,58.196c-0.44,1.2-0.75,2.489-0.931,3.87c-2.68,0.1-5.13,0.15-7.35,0.15
	c-4.82,0-8.025-0.176-9.615-0.525c-1.59-0.351-2.725-0.836-3.404-1.455c-0.44-0.4-0.766-0.6-0.976-0.6s-0.455,0.119-0.734,0.359
	c-0.28,0.24-0.75,0.68-1.41,1.32c-0.66,0.64-1.131,1.189-1.41,1.65c-1.181-1.221-2.21-2.261-3.09-3.121
	c1.279-1,2.234-1.68,2.864-2.039c0.631-0.36,1.01-0.646,1.141-0.855c0.13-0.21,0.195-0.595,0.195-1.154v-8.011h-3.48v-3.33h7.17
	v10.74c0,0.659,0.26,1.245,0.78,1.755c0.52,0.51,1.135,0.885,1.845,1.125s1.85,0.42,3.42,0.54s3.75,0.181,6.54,0.181
	S290.995,58.595,293.835,58.196z M273.855,41.335l-3.689,1.68c-0.801-1.879-1.9-3.699-3.3-5.459l3.539-1.891
	C271.925,37.925,273.076,39.816,273.855,41.335z M281.206,40.796h-7.2v-3.091h7.2v-2.489h3.27c0.48,0,0.72,0.13,0.72,0.389
	c0,0.121-0.064,0.301-0.194,0.541c-0.131,0.24-0.195,0.76-0.195,1.56h7.38v3.091h-7.41v1.68h6.091v8.01h-3.45
	c1.56,1.301,3.26,2.84,5.1,4.619l-3,2.341c-1.3-1.66-2.88-3.2-4.74-4.62v5.16h-3.569v-5.4c-1.32,1.82-3.09,3.49-5.311,5.01
	c-0.779-0.819-1.72-1.659-2.819-2.52c1.5-0.8,2.645-1.516,3.435-2.145c0.79-0.631,1.515-1.445,2.175-2.445h-3.45v-8.01h5.971V40.796
	z M281.206,47.666v-2.311h-2.551v2.311H281.206z M284.775,45.355v2.311h2.58v-2.311H284.775z M284.775,50.486v1.98l2.341-1.98
	H284.775z"/>
<path fill="#FFFFFF" d="M113.801,176.802c-1.562,42.637-14.771,63.955-39.626,63.955c-11.704,0-21.318-5.712-28.842-17.139
	c-7.524-11.423-11.286-26.611-11.286-45.562c0-20.482,3.817-36.399,11.454-47.757c7.633-11.354,17.472-17.033,29.511-17.033
	c7.579,0,14.434,2.648,20.565,7.941c6.129,5.297,10.978,12.959,14.546,22.99l-18.392,8.569c-3.122-9.751-8.861-14.63-17.222-14.63
	c-13.601,0-20.398,13.029-20.398,39.082c0,26.057,6.965,39.084,20.9,39.084c7.801,0,13.376-4.807,16.72-14.422H80.026v-25.08
	H113.801z"/>
<path fill="#FFFFFF" d="M160.28,168.861c8.136-2.508,15.132-3.762,20.984-3.762c5.852,0,11.842,1.604,17.974,4.807
	c6.129,3.207,10.727,8.082,13.794,14.631c3.064,6.551,4.598,12.889,4.598,19.018c0,10.592-3.427,19.474-10.282,26.648
	c-6.855,7.178-16.192,10.764-28.006,10.764c-13.042,0-23.27-4.389-30.682-13.168c-7.414-8.777-11.119-21.664-11.119-38.664
	c0-13.377,2.646-25.984,7.942-37.83c5.293-11.84,12.512-21.072,21.652-27.691c9.139-6.617,18.56-10.064,28.257-10.346l6.855-0.209
	v24.662h-4.181c-7.915,0-15.298,2.648-22.153,7.941C169.059,150.958,163.847,158.692,160.28,168.861z M177.502,216.304
	c6.798,0,11.955-1.15,15.466-3.449c3.512-2.299,5.268-5.538,5.268-9.719c0-8.914-6.855-13.375-20.565-13.375
	c-6.132,0-10.785,1.221-13.962,3.657c-3.177,2.439-4.765,5.61-4.765,9.509c0,3.903,1.781,7.106,5.351,9.615
	C167.859,215.05,172.262,216.304,177.502,216.304z"/>
<path fill="#FFFFFF" d="M278.824,113.058c11.926,0,21.846,5.747,29.762,17.242c7.912,11.495,11.871,27.065,11.871,46.711
	c0,19.646-3.736,35.217-11.203,46.713c-7.469,11.494-17.697,17.242-30.682,17.242c-12.986,0-23.269-5.676-30.848-17.033
	c-7.581-11.355-11.369-26.89-11.369-46.607c0-19.715,3.788-35.354,11.369-46.921C255.303,118.841,265.669,113.058,278.824,113.058z
	 M279.826,216.304c6.242,0,11.313-3.69,15.215-11.077c3.902-7.384,5.854-17.312,5.854-29.782c0-12.469-1.785-21.873-5.352-28.215
	c-3.568-6.34-9.195-9.51-16.887-9.51c-15.048,0-22.572,13.238-22.572,39.709c0,12.541,2.032,22.154,6.103,28.843
	C266.254,212.96,272.135,216.304,279.826,216.304z"/>
</svg>
