<?xml version="1.0" encoding="UTF-8" standalone="no"?>
<!-- Created with Serif DrawPlus 11, 0, 3, 23 (Feb 25, 14:12:55) (http://www.serif.com) -->
<svg version="1.1" xmlns="http://www.w3.org/2000/svg" xmlns:xlink="http://www.w3.org/1999/xlink" width="370.888" height="517.279">
	<g id="dp_group001" transform="matrix(1,0,0,1,47.508,-489.873)">
		<g id="dp_group002">
			<g id="dp_group003">
				<g id="dp_group004">
					<path id="dp_path005" fill="black" fill-rule="evenodd" d="M 312.896,684.447 L 312.896,686.544 L 312.896,690.737 L 323.379,685.495 L 312.896,680.253 Z "/>
					<path id="dp_path006" fill="black" d="M -47.508,686.544 L 312.896,686.544 L 312.896,684.448 L -47.508,684.448 Z "/>
				</g>
			</g>
			<g id="dp_group007">
				<g id="dp_group008">
					<path id="dp_path009" fill="black" fill-rule="evenodd" d="M 137.091,500.356 L 139.188,500.356 L 143.381,500.356 L 138.139,489.873 L 132.897,500.356 Z "/>
					<path id="dp_path010" fill="black" d="M 139.188,860.76 L 139.188,500.356 L 137.092,500.356 L 137.092,860.76 Z "/>
				</g>
			</g>
			<g id="dp_group011">
				<g id="dp_group012">
					<path id="dp_path013" fill="black" fill-rule="evenodd" d="M 260.789,559.921 L 262.272,561.404 L 265.236,564.368 L 268.943,553.249 L 257.824,556.956 Z "/>
					<path id="dp_path014" fill="black" d="M 7.42667,816.249 L 262.272,561.404 L 260.789,559.921 L 5.944,814.767 Z "/>
				</g>
			</g>
			<g id="dp_group015">
				<g id="dp_group016">
					<path id="dp_path017" fill="black" fill-rule="evenodd" d="M 262.393,808.472 L 260.911,809.955 L 257.947,812.919 L 269.065,816.625 L 265.359,805.507 Z "/>
					<path id="dp_path018" fill="black" d="M 6.06533,555.109 L 260.911,809.955 L 262.393,808.472 L 7.548,553.627 Z "/>
				</g>
			</g>
			<text id="dp_text001" transform="matrix(1,0,0,1,201.258,792.529)" xml:space="preserve" fill="black" font-family="Arial" font-size="27" font-weight="400" x="0" y="0">k </text>
			<text id="dp_text002" transform="matrix(1,0,0,1,292.544,714.024)" xml:space="preserve" fill="black" font-family="Arial" font-size="27" font-weight="400" x="0" y="0">1 </text>
			<text id="dp_text003" transform="matrix(1,0,0,1,222.602,642.16)" xml:space="preserve" fill="black" font-family="Arial" font-size="27" font-weight="400" x="0" y="0">j </text>
			<text id="dp_text004" transform="matrix(1,0,0,1,147.767,538.446)" xml:space="preserve" fill="black" font-family="Arial" font-size="27" font-weight="400" x="0" y="0">i </text>
			<g id="dp_group023">
				<g id="dp_group024">
					<path id="dp_path025" fill="#ff0202" fill-rule="evenodd" d="M 216.409,616.976 L 216.945,615.049 L 218.019,611.196 L 207.044,613.331 L 215.336,620.829 Z "/>
					<path id="dp_path026" fill="#ff0202" d="M 216.409,616.976 L 217.117,617.172 L 218.361,617.548 L 219.603,617.931 L 220.836,618.317 L 222.06,618.708 L 223.276,619.104 L 224.484,619.504 L 225.681,619.908 L 226.871,620.315 L 228.052,620.727 L 229.221,621.143 L 230.385,621.563 L 231.539,621.987 L 232.683,622.413 L 233.817,622.845 L 234.943,623.28 L 236.06,623.72 L 237.167,624.163 L 238.265,624.609 L 239.355,625.061 L 240.433,625.515 L 241.503,625.972 L 242.563,626.433 L 243.615,626.899 L 244.656,627.368 L 245.687,627.839 L 246.709,628.316 L 247.723,628.795 L 248.725,629.276 L 249.719,629.763 L 250.701,630.252 L 251.676,630.745 L 252.639,631.24 L 253.593,631.74 L 254.537,632.241 L 255.471,632.748 L 256.395,633.257 L 257.309,633.769 L 258.213,634.284 L 259.107,634.803 L 259.991,635.323 L 260.864,635.848 L 261.727,636.375 L 262.58,636.905 L 263.423,637.439 L 264.255,637.975 L 265.077,638.512 L 265.888,639.053 L 266.689,639.599 L 267.48,640.145 L 268.26,640.696 L 269.029,641.248 L 269.788,641.803 L 270.535,642.36 L 271.273,642.921 L 272.001,643.483 L 272.716,644.048 L 273.421,644.616 L 274.116,645.187 L 274.799,645.759 L 275.471,646.333 L 276.133,646.911 L 276.784,647.491 L 277.423,648.072 L 278.052,648.656 L 278.669,649.241 L 279.275,649.831 L 279.869,650.421 L 280.455,651.013 L 281.027,651.608 L 281.588,652.204 L 282.137,652.803 L 282.676,653.403 L 283.204,654.005 L 283.72,654.609 L 284.224,655.216 L 284.717,655.823 L 285.199,656.433 L 285.669,657.044 L 286.128,657.657 L 286.575,658.271 L 287.009,658.887 L 287.433,659.504 L 287.845,660.124 L 288.245,660.744 L 288.633,661.367 L 289.009,661.991 L 289.375,662.615 L 289.727,663.243 L 290.069,663.871 L 290.397,664.499 L 290.715,665.129 L 291.02,665.76 L 291.312,666.393 L 291.593,667.028 L 291.864,667.664 L 292.121,668.3 L 292.367,668.939 L 292.484,669.256 L 292.599,669.576 L 292.712,669.895 L 292.819,670.215 L 292.927,670.536 L 293.028,670.856 L 293.128,671.175 L 293.224,671.497 L 293.319,671.82 L 293.409,672.141 L 293.497,672.463 L 293.581,672.784 L 293.663,673.107 L 293.741,673.428 L 293.816,673.752 L 293.889,674.075 L 293.957,674.397 L 294.024,674.719 L 294.087,675.044 L 294.147,675.368 L 294.203,675.692 L 294.257,676.017 L 294.308,676.341 L 294.356,676.667 L 294.4,676.989 L 294.441,677.315 L 294.479,677.639 L 294.513,677.968 L 294.547,678.292 L 294.575,678.619 L 294.6,678.944 L 294.623,679.271 L 294.643,679.599 L 294.659,679.925 L 294.672,680.249 L 294.681,680.576 L 294.688,680.905 L 294.692,681.235 L 294.692,681.563 L 294.689,681.889 L 294.684,682.219 L 294.675,682.545 L 294.661,682.873 L 294.645,683.204 L 294.628,683.533 L 294.605,683.865 L 296.6,683.999 L 296.623,683.653 L 296.643,683.305 L 296.659,682.959 L 296.672,682.612 L 296.681,682.261 L 296.687,681.916 L 296.692,681.568 L 296.689,681.221 L 296.685,680.876 L 296.679,680.531 L 296.669,680.183 L 296.656,679.835 L 296.637,679.489 L 296.617,679.145 L 296.595,678.8 L 296.567,678.453 L 296.536,678.108 L 296.503,677.763 L 296.465,677.42 L 296.425,677.075 L 296.381,676.731 L 296.335,676.387 L 296.284,676.043 L 296.231,675.7 L 296.173,675.359 L 296.115,675.016 L 296.049,674.673 L 295.984,674.332 L 295.915,673.989 L 295.841,673.648 L 295.765,673.307 L 295.685,672.967 L 295.604,672.627 L 295.517,672.285 L 295.428,671.945 L 295.335,671.605 L 295.239,671.268 L 295.141,670.932 L 295.04,670.593 L 294.935,670.253 L 294.825,669.917 L 294.715,669.58 L 294.6,669.244 L 294.481,668.907 L 294.361,668.573 L 294.236,668.235 L 293.98,667.567 L 293.709,666.899 L 293.428,666.233 L 293.133,665.569 L 292.825,664.907 L 292.507,664.247 L 292.176,663.587 L 291.832,662.929 L 291.476,662.275 L 291.108,661.623 L 290.729,660.972 L 290.337,660.321 L 289.933,659.675 L 289.517,659.031 L 289.089,658.387 L 288.649,657.745 L 288.199,657.108 L 287.736,656.471 L 287.261,655.836 L 286.775,655.204 L 286.277,654.575 L 285.768,653.947 L 285.248,653.321 L 284.716,652.699 L 284.172,652.077 L 283.617,651.459 L 283.052,650.844 L 282.475,650.229 L 281.884,649.619 L 281.285,649.011 L 280.675,648.404 L 280.053,647.801 L 279.42,647.2 L 278.775,646.6 L 278.12,646.005 L 277.453,645.412 L 276.777,644.821 L 276.089,644.233 L 275.391,643.648 L 274.683,643.067 L 273.961,642.485 L 273.231,641.909 L 272.489,641.335 L 271.737,640.763 L 270.975,640.195 L 270.2,639.629 L 269.417,639.067 L 268.624,638.508 L 267.82,637.951 L 267.005,637.397 L 266.179,636.845 L 265.343,636.297 L 264.497,635.753 L 263.641,635.212 L 262.775,634.673 L 261.899,634.139 L 261.012,633.605 L 260.115,633.077 L 259.208,632.551 L 258.291,632.028 L 257.365,631.511 L 256.428,630.993 L 255.481,630.481 L 254.524,629.972 L 253.559,629.467 L 252.583,628.964 L 251.597,628.465 L 250.601,627.971 L 249.597,627.479 L 248.581,626.989 L 247.557,626.505 L 246.524,626.025 L 245.48,625.547 L 244.428,625.075 L 243.365,624.604 L 242.295,624.137 L 241.212,623.675 L 240.123,623.216 L 239.023,622.761 L 237.913,622.309 L 236.796,621.861 L 235.668,621.419 L 234.532,620.979 L 233.387,620.544 L 232.232,620.112 L 231.068,619.685 L 229.896,619.26 L 228.713,618.841 L 227.524,618.427 L 226.324,618.015 L 225.116,617.608 L 223.897,617.205 L 222.673,616.807 L 221.439,616.411 L 220.195,616.021 L 218.943,615.636 L 217.675,615.252 L 216.945,615.048 Z "/>
				</g>
			</g>
			<g id="dp_group027">
				<g id="dp_group028">
					<path id="dp_path029" fill="#0101ff" fill-rule="evenodd" d="M 208.925,745.528 L 206.927,745.531 L 202.927,745.536 L 207.94,755.529 L 212.925,745.523 Z "/>
					<path id="dp_path030" fill="#0101ff" d="M 137.805,543.755 L 138.143,543.756 L 138.471,543.763 L 138.797,543.776 L 139.125,543.791 L 139.452,543.813 L 139.779,543.839 L 140.107,543.869 L 140.433,543.904 L 140.757,543.943 L 141.084,543.988 L 141.411,544.036 L 141.735,544.091 L 142.061,544.149 L 142.387,544.212 L 142.711,544.279 L 143.033,544.351 L 143.36,544.428 L 143.684,544.509 L 144.008,544.595 L 144.331,544.685 L 144.653,544.78 L 144.976,544.88 L 145.299,544.984 L 145.623,545.093 L 145.945,545.207 L 146.267,545.323 L 146.588,545.447 L 146.912,545.573 L 147.232,545.704 L 147.552,545.84 L 147.873,545.981 L 148.195,546.127 L 148.515,546.276 L 148.836,546.431 L 149.155,546.589 L 149.473,546.751 L 149.793,546.92 L 150.113,547.092 L 150.432,547.268 L 150.751,547.449 L 151.068,547.635 L 151.387,547.825 L 151.704,548.019 L 152.019,548.219 L 152.337,548.423 L 152.655,548.631 L 152.971,548.844 L 153.287,549.061 L 153.603,549.281 L 153.916,549.508 L 154.232,549.739 L 154.547,549.972 L 154.86,550.212 L 155.175,550.456 L 155.487,550.703 L 155.8,550.956 L 156.113,551.213 L 156.425,551.475 L 156.737,551.74 L 157.049,552.009 L 157.36,552.284 L 157.669,552.563 L 157.98,552.845 L 158.289,553.132 L 158.599,553.424 L 158.907,553.72 L 159.216,554.02 L 159.523,554.324 L 159.831,554.633 L 160.137,554.948 L 160.444,555.265 L 160.749,555.585 L 161.055,555.912 L 161.359,556.243 L 161.664,556.577 L 161.967,556.916 L 162.271,557.259 L 162.573,557.607 L 162.875,557.956 L 163.175,558.312 L 163.477,558.673 L 163.779,559.037 L 164.077,559.404 L 164.376,559.776 L 164.675,560.153 L 164.973,560.535 L 165.271,560.919 L 165.568,561.307 L 166.159,562.097 L 166.748,562.904 L 167.335,563.728 L 167.92,564.567 L 168.501,565.423 L 169.081,566.293 L 169.656,567.181 L 170.229,568.084 L 170.8,569.004 L 171.369,569.939 L 171.933,570.888 L 172.495,571.855 L 173.053,572.837 L 173.609,573.835 L 174.163,574.848 L 174.712,575.876 L 175.259,576.92 L 175.801,577.977 L 176.34,579.051 L 176.877,580.141 L 177.411,581.244 L 177.94,582.363 L 178.467,583.496 L 178.989,584.644 L 179.509,585.805 L 180.024,586.983 L 180.536,588.175 L 181.044,589.381 L 181.549,590.601 L 182.051,591.835 L 182.548,593.084 L 183.041,594.347 L 183.531,595.624 L 184.017,596.915 L 184.499,598.219 L 184.977,599.537 L 185.451,600.869 L 185.921,602.215 L 186.387,603.575 L 186.848,604.947 L 187.307,606.333 L 187.759,607.732 L 188.208,609.145 L 188.653,610.571 L 189.093,612.009 L 189.531,613.46 L 189.961,614.925 L 190.389,616.403 L 190.811,617.893 L 191.229,619.397 L 191.643,620.912 L 192.053,622.441 L 192.459,623.983 L 192.859,625.535 L 193.253,627.099 L 193.644,628.677 L 194.029,630.267 L 194.411,631.868 L 194.787,633.483 L 195.159,635.108 L 195.524,636.747 L 195.887,638.396 L 196.243,640.056 L 196.593,641.729 L 196.941,643.413 L 197.281,645.109 L 197.617,646.816 L 197.949,648.535 L 198.275,650.265 L 198.595,652.005 L 198.909,653.757 L 199.22,655.521 L 199.524,657.295 L 199.824,659.079 L 200.117,660.875 L 200.405,662.681 L 200.688,664.497 L 200.965,666.325 L 201.236,668.164 L 201.503,670.012 L 201.763,671.871 L 202.016,673.739 L 202.265,675.619 L 202.508,677.508 L 202.8,679.848 L 203.081,682.197 L 203.353,684.556 L 203.616,686.921 L 203.868,689.296 L 204.109,691.68 L 204.343,694.071 L 204.567,696.467 L 204.779,698.872 L 204.983,701.283 L 205.176,703.701 L 205.36,706.125 L 205.533,708.555 L 205.697,710.992 L 205.852,713.433 L 205.996,715.88 L 206.131,718.332 L 206.253,720.788 L 206.368,723.249 L 206.473,725.715 L 206.567,728.184 L 206.652,730.656 L 206.727,733.131 L 206.791,735.609 L 206.845,738.091 L 206.889,740.576 L 206.923,743.059 L 206.925,745.531 L 208.925,745.528 L 208.92,743.045 L 208.887,740.547 L 208.843,738.053 L 208.788,735.564 L 208.724,733.077 L 208.649,730.592 L 208.564,728.112 L 208.471,725.635 L 208.365,723.161 L 208.251,720.692 L 208.125,718.228 L 207.991,715.768 L 207.847,713.313 L 207.692,710.864 L 207.528,708.419 L 207.352,705.979 L 207.168,703.547 L 206.975,701.12 L 206.771,698.701 L 206.556,696.288 L 206.332,693.881 L 206.099,691.483 L 205.855,689.091 L 205.603,686.708 L 205.34,684.332 L 205.065,681.965 L 204.784,679.608 L 204.492,677.257 L 204.247,675.36 L 203.997,673.475 L 203.741,671.599 L 203.481,669.732 L 203.215,667.876 L 202.941,666.032 L 202.664,664.196 L 202.379,662.372 L 202.091,660.557 L 201.795,658.753 L 201.495,656.961 L 201.188,655.18 L 200.877,653.408 L 200.56,651.648 L 200.24,649.9 L 199.912,648.161 L 199.58,646.435 L 199.241,644.72 L 198.899,643.016 L 198.551,641.324 L 198.197,639.643 L 197.839,637.972 L 197.476,636.315 L 197.108,634.668 L 196.733,633.035 L 196.357,631.412 L 195.973,629.8 L 195.585,628.203 L 195.192,626.616 L 194.795,625.041 L 194.392,623.479 L 193.984,621.929 L 193.573,620.392 L 193.157,618.867 L 192.736,617.355 L 192.309,615.853 L 191.879,614.365 L 191.445,612.892 L 191.005,611.431 L 190.563,609.981 L 190.115,608.545 L 189.663,607.121 L 189.205,605.712 L 188.744,604.315 L 188.28,602.932 L 187.809,601.561 L 187.336,600.205 L 186.857,598.863 L 186.376,597.533 L 185.889,596.216 L 185.4,594.915 L 184.905,593.627 L 184.407,592.351 L 183.904,591.091 L 183.4,589.844 L 182.889,588.611 L 182.376,587.393 L 181.859,586.188 L 181.336,584.997 L 180.811,583.823 L 180.283,582.661 L 179.751,581.515 L 179.213,580.383 L 178.672,579.264 L 178.129,578.163 L 177.583,577.073 L 177.032,576 L 176.477,574.943 L 175.92,573.899 L 175.359,572.869 L 174.795,571.859 L 174.228,570.86 L 173.656,569.877 L 173.081,568.909 L 172.504,567.959 L 171.923,567.023 L 171.339,566.101 L 170.751,565.197 L 170.16,564.308 L 169.565,563.433 L 168.969,562.576 L 168.369,561.736 L 167.767,560.911 L 167.16,560.101 L 166.855,559.703 L 166.552,559.308 L 166.245,558.916 L 165.939,558.531 L 165.632,558.148 L 165.323,557.768 L 165.013,557.396 L 164.705,557.027 L 164.395,556.66 L 164.083,556.297 L 163.772,555.941 L 163.46,555.588 L 163.147,555.239 L 162.833,554.893 L 162.519,554.552 L 162.203,554.215 L 161.887,553.881 L 161.569,553.553 L 161.252,553.231 L 160.933,552.911 L 160.616,552.596 L 160.296,552.283 L 159.975,551.976 L 159.655,551.673 L 159.332,551.373 L 159.011,551.08 L 158.688,550.791 L 158.364,550.505 L 158.039,550.223 L 157.713,549.947 L 157.388,549.675 L 157.061,549.407 L 156.735,549.143 L 156.407,548.883 L 156.079,548.628 L 155.749,548.377 L 155.419,548.131 L 155.089,547.889 L 154.757,547.652 L 154.425,547.419 L 154.093,547.191 L 153.759,546.967 L 153.425,546.748 L 153.093,546.533 L 152.757,546.323 L 152.421,546.116 L 152.084,545.915 L 151.748,545.719 L 151.411,545.527 L 151.071,545.337 L 150.732,545.155 L 150.393,544.977 L 150.053,544.803 L 149.711,544.633 L 149.371,544.471 L 149.029,544.311 L 148.687,544.155 L 148.344,544.005 L 148,543.859 L 147.653,543.717 L 147.311,543.583 L 146.965,543.451 L 146.617,543.324 L 146.273,543.203 L 145.925,543.085 L 145.579,542.973 L 145.229,542.865 L 144.88,542.763 L 144.531,542.667 L 144.18,542.573 L 143.832,542.487 L 143.481,542.404 L 143.129,542.324 L 142.776,542.252 L 142.427,542.184 L 142.073,542.12 L 141.72,542.063 L 141.367,542.009 L 141.013,541.961 L 140.657,541.917 L 140.304,541.88 L 139.949,541.847 L 139.596,541.819 L 139.237,541.796 L 138.883,541.779 L 138.527,541.765 L 138.169,541.759 L 137.821,541.755 Z "/>
				</g>
			</g>
			<g id="dp_group031">
				<g id="dp_group032">
					<path id="dp_path033" fill="#ff0202" fill-rule="evenodd" d="M 72.524,608.161 L 71.1,606.757 L 68.252,603.948 L 64.7907,614.58 L 75.372,610.969 Z "/>
					<path id="dp_path034" fill="#ff0202" d="M 72.524,608.16 L 72.848,607.831 L 73.3053,607.419 L 73.7827,606.992 L 74.264,606.571 L 74.7467,606.153 L 75.232,605.74 L 75.72,605.329 L 76.2093,604.921 L 76.7,604.52 L 77.1947,604.12 L 77.6907,603.725 L 78.1893,603.335 L 78.6893,602.947 L 79.192,602.563 L 79.696,602.183 L 80.2027,601.807 L 80.7093,601.435 L 81.22,601.068 L 81.7333,600.703 L 82.248,600.341 L 82.764,599.985 L 83.2827,599.632 L 83.8013,599.284 L 84.324,598.937 L 84.848,598.596 L 85.3733,598.259 L 85.9,597.925 L 86.4293,597.595 L 86.9613,597.268 L 87.4933,596.945 L 88.0267,596.627 L 88.564,596.313 L 89.1027,596.001 L 89.6427,595.693 L 90.1827,595.391 L 90.7253,595.091 L 91.2693,594.796 L 91.816,594.504 L 92.364,594.215 L 92.912,593.932 L 93.4613,593.651 L 94.0147,593.375 L 94.568,593.101 L 95.1227,592.833 L 95.68,592.568 L 96.236,592.307 L 96.796,592.049 L 97.356,591.796 L 97.9187,591.547 L 98.4813,591.3 L 99.0467,591.059 L 99.6133,590.82 L 100.18,590.584 L 100.748,590.353 L 101.319,590.127 L 101.889,589.904 L 102.46,589.685 L 103.035,589.471 L 103.609,589.259 L 104.184,589.051 L 104.76,588.847 L 105.339,588.647 L 105.917,588.449 L 106.496,588.257 L 107.079,588.071 L 107.661,587.884 L 108.243,587.704 L 108.827,587.527 L 109.411,587.353 L 109.997,587.184 L 110.584,587.019 L 111.172,586.856 L 111.759,586.699 L 112.348,586.545 L 112.939,586.395 L 113.531,586.248 L 114.123,586.105 L 114.715,585.965 L 115.307,585.831 L 115.901,585.7 L 116.495,585.572 L 117.089,585.449 L 117.687,585.329 L 118.283,585.213 L 118.88,585.101 L 119.479,584.993 L 120.076,584.889 L 120.676,584.788 L 121.275,584.691 L 121.873,584.599 L 122.475,584.511 L 123.076,584.424 L 123.676,584.343 L 124.279,584.267 L 124.88,584.192 L 125.483,584.123 L 126.087,584.056 L 126.691,583.993 L 127.292,583.935 L 127.897,583.881 L 128.501,583.829 L 129.105,583.783 L 129.711,583.74 L 130.315,583.7 L 130.919,583.665 L 131.525,583.635 L 132.132,583.607 L 132.737,583.581 L 133.343,583.561 L 133.948,583.545 L 134.555,583.533 L 135.161,583.524 L 135.767,583.52 L 136.373,583.52 L 136.98,583.521 L 137.587,583.528 L 138.192,583.539 L 138.797,583.553 L 139.404,583.572 L 140.009,583.593 L 140.613,583.62 L 141.22,583.649 L 141.827,583.683 L 142.431,583.72 L 143.036,583.763 L 143.641,583.807 L 144.245,583.856 L 144.849,583.908 L 145.453,583.965 L 146.057,584.025 L 146.659,584.089 L 147.263,584.157 L 147.864,584.229 L 148.467,584.305 L 149.069,584.385 L 149.669,584.468 L 150.272,584.555 L 150.872,584.647 L 151.471,584.741 L 152.069,584.84 L 152.669,584.943 L 153.268,585.049 L 153.864,585.16 L 154.461,585.273 L 155.057,585.392 L 155.653,585.513 L 156.249,585.639 L 156.844,585.768 L 157.437,585.901 L 158.029,586.039 L 158.621,586.179 L 159.213,586.324 L 159.804,586.472 L 160.395,586.625 L 160.984,586.781 L 161.571,586.941 L 162.16,587.105 L 162.745,587.273 L 163.331,587.445 L 163.915,587.62 L 164.499,587.8 L 165.083,587.983 L 165.664,588.169 L 166.243,588.36 L 166.823,588.556 L 167.404,588.753 L 167.981,588.956 L 168.556,589.161 L 169.131,589.372 L 169.705,589.585 L 170.279,589.804 L 170.852,590.025 L 171.421,590.249 L 171.991,590.479 L 172.56,590.712 L 173.125,590.949 L 173.692,591.191 L 174.257,591.435 L 174.82,591.683 L 175.38,591.935 L 175.941,592.191 L 176.5,592.449 L 177.056,592.713 L 177.613,592.981 L 178.168,593.253 L 178.721,593.528 L 179.273,593.808 L 179.824,594.091 L 180.372,594.376 L 180.919,594.668 L 181.465,594.961 L 182.009,595.26 L 182.551,595.561 L 183.093,595.868 L 183.632,596.177 L 184.168,596.491 L 184.704,596.809 L 185.239,597.129 L 185.771,597.455 L 186.301,597.784 L 186.829,598.116 L 187.356,598.453 L 187.884,598.795 L 188.407,599.139 L 188.929,599.485 L 189.447,599.837 L 189.964,600.193 L 190.481,600.553 L 190.995,600.916 L 191.507,601.284 L 192.019,601.656 L 192.525,602.029 L 193.029,602.408 L 193.535,602.792 L 194.039,603.18 L 194.537,603.568 L 195.035,603.963 L 195.531,604.36 L 196.024,604.763 L 196.515,605.168 L 197.004,605.579 L 197.492,605.992 L 197.976,606.408 L 198.457,606.829 L 198.939,607.256 L 199.417,607.684 L 199.892,608.116 L 200.367,608.553 L 200.837,608.993 L 201.305,609.437 L 201.772,609.887 L 202.235,610.337 L 202.697,610.793 L 203.156,611.253 L 203.612,611.716 L 204.065,612.183 L 204.517,612.655 L 204.968,613.131 L 205.415,613.608 L 205.859,614.091 L 206.3,614.58 L 207.783,613.239 L 207.333,612.744 L 206.879,612.251 L 206.424,611.763 L 205.965,611.279 L 205.505,610.796 L 205.041,610.319 L 204.575,609.845 L 204.105,609.377 L 203.635,608.911 L 203.161,608.449 L 202.684,607.992 L 202.205,607.537 L 201.724,607.089 L 201.241,606.644 L 200.756,606.201 L 200.267,605.763 L 199.777,605.331 L 199.285,604.899 L 198.788,604.472 L 198.292,604.051 L 197.792,603.632 L 197.291,603.219 L 196.787,602.808 L 196.28,602.4 L 195.772,601.997 L 195.26,601.599 L 194.748,601.205 L 194.235,600.813 L 193.717,600.427 L 193.197,600.043 L 192.677,599.665 L 192.155,599.289 L 191.628,598.919 L 191.103,598.551 L 190.575,598.187 L 190.041,597.827 L 189.508,597.472 L 188.975,597.12 L 188.439,596.773 L 187.901,596.428 L 187.36,596.088 L 186.819,595.753 L 186.273,595.42 L 185.728,595.092 L 185.181,594.768 L 184.632,594.447 L 184.08,594.132 L 183.529,593.82 L 182.975,593.511 L 182.42,593.207 L 181.863,592.905 L 181.303,592.608 L 180.741,592.315 L 180.18,592.027 L 179.617,591.741 L 179.051,591.461 L 178.485,591.184 L 177.917,590.911 L 177.348,590.641 L 176.776,590.375 L 176.204,590.113 L 175.631,589.856 L 175.055,589.603 L 174.479,589.353 L 173.901,589.107 L 173.323,588.867 L 172.743,588.628 L 172.16,588.393 L 171.577,588.164 L 170.993,587.937 L 170.409,587.716 L 169.824,587.497 L 169.236,587.281 L 168.645,587.071 L 168.055,586.865 L 167.465,586.663 L 166.875,586.464 L 166.28,586.268 L 165.685,586.079 L 165.091,585.891 L 164.496,585.708 L 163.899,585.528 L 163.3,585.353 L 162.701,585.183 L 162.101,585.016 L 161.501,584.851 L 160.899,584.692 L 160.297,584.536 L 159.693,584.385 L 159.091,584.237 L 158.485,584.092 L 157.88,583.952 L 157.273,583.816 L 156.665,583.684 L 156.059,583.556 L 155.452,583.432 L 154.843,583.311 L 154.232,583.195 L 153.623,583.081 L 153.011,582.975 L 152.4,582.869 L 151.788,582.768 L 151.176,582.671 L 150.563,582.579 L 149.949,582.489 L 149.336,582.404 L 148.723,582.324 L 148.107,582.245 L 147.492,582.173 L 146.877,582.103 L 146.26,582.036 L 145.643,581.976 L 145.028,581.919 L 144.411,581.864 L 143.793,581.815 L 143.177,581.768 L 142.559,581.725 L 141.941,581.688 L 141.324,581.655 L 140.707,581.623 L 140.087,581.596 L 139.468,581.575 L 138.851,581.556 L 138.232,581.541 L 137.613,581.531 L 136.993,581.524 L 136.376,581.52 L 135.759,581.52 L 135.14,581.527 L 134.52,581.536 L 133.903,581.548 L 133.284,581.564 L 132.665,581.584 L 132.047,581.609 L 131.429,581.637 L 130.812,581.671 L 130.195,581.705 L 129.575,581.745 L 128.959,581.791 L 128.341,581.837 L 127.724,581.889 L 127.108,581.945 L 126.491,582.004 L 125.876,582.069 L 125.261,582.136 L 124.645,582.208 L 124.031,582.283 L 123.417,582.361 L 122.801,582.445 L 122.189,582.532 L 121.577,582.623 L 120.963,582.717 L 120.351,582.817 L 119.74,582.919 L 119.129,583.025 L 118.52,583.136 L 117.909,583.251 L 117.3,583.369 L 116.692,583.492 L 116.084,583.617 L 115.477,583.748 L 114.872,583.881 L 114.264,584.019 L 113.659,584.161 L 113.056,584.307 L 112.453,584.456 L 111.852,584.609 L 111.249,584.765 L 110.647,584.928 L 110.048,585.093 L 109.448,585.261 L 108.851,585.436 L 108.253,585.612 L 107.659,585.792 L 107.061,585.977 L 106.468,586.167 L 105.875,586.359 L 105.283,586.556 L 104.691,586.756 L 104.101,586.961 L 103.512,587.168 L 102.924,587.381 L 102.339,587.596 L 101.753,587.816 L 101.169,588.04 L 100.585,588.268 L 100.004,588.5 L 99.4227,588.736 L 98.8427,588.975 L 98.2653,589.219 L 97.6893,589.465 L 97.1133,589.717 L 96.54,589.972 L 95.9667,590.231 L 95.396,590.493 L 94.8267,590.76 L 94.2587,591.031 L 93.6907,591.307 L 93.1267,591.585 L 92.5627,591.867 L 92,592.153 L 91.4387,592.444 L 90.88,592.739 L 90.3227,593.036 L 89.7653,593.339 L 89.212,593.644 L 88.6587,593.955 L 88.108,594.268 L 87.5587,594.585 L 87.0107,594.907 L 86.464,595.233 L 85.9213,595.561 L 85.3787,595.896 L 84.8387,596.232 L 84.2987,596.573 L 83.7627,596.919 L 83.228,597.268 L 82.6947,597.62 L 82.1627,597.976 L 81.6333,598.337 L 81.1067,598.701 L 80.5813,599.071 L 80.0573,599.441 L 79.536,599.819 L 79.016,600.199 L 78.4987,600.583 L 77.984,600.971 L 77.4707,601.363 L 76.96,601.759 L 76.4507,602.157 L 75.944,602.563 L 75.4413,602.968 L 74.9373,603.38 L 74.4373,603.796 L 73.9387,604.215 L 73.4453,604.639 L 72.952,605.064 L 72.46,605.496 L 71.972,605.931 L 71.4667,606.385 L 71.1,606.757 Z "/>
				</g>
			</g>
			<g id="dp_group035">
				<g id="dp_group036">
					<path id="dp_path037" fill="#0101ff" fill-rule="evenodd" d="M 148.508,545.124 L 148.577,543.125 L 148.716,539.128 L 138.549,543.777 L 148.369,549.121 Z "/>
					<path id="dp_path038" fill="#0101ff" d="M 148.508,545.124 L 149.385,545.153 L 150.456,545.225 L 151.539,545.303 L 152.621,545.389 L 153.704,545.481 L 154.785,545.579 L 155.865,545.685 L 156.949,545.796 L 158.029,545.913 L 159.109,546.037 L 160.189,546.169 L 161.269,546.305 L 162.348,546.451 L 163.427,546.6 L 164.505,546.756 L 165.583,546.92 L 166.657,547.089 L 167.735,547.265 L 168.808,547.448 L 169.883,547.639 L 170.957,547.833 L 172.029,548.036 L 173.101,548.245 L 174.172,548.46 L 175.241,548.681 L 176.308,548.911 L 177.376,549.145 L 178.441,549.388 L 179.508,549.636 L 180.572,549.891 L 181.633,550.152 L 182.695,550.421 L 183.755,550.696 L 184.815,550.977 L 185.871,551.264 L 186.925,551.56 L 187.98,551.861 L 189.033,552.169 L 190.084,552.483 L 191.135,552.805 L 192.183,553.133 L 193.229,553.467 L 194.272,553.809 L 195.316,554.156 L 196.356,554.512 L 197.396,554.872 L 198.433,555.24 L 199.469,555.616 L 200.503,555.997 L 201.533,556.385 L 202.564,556.78 L 203.591,557.181 L 204.615,557.589 L 205.639,558.005 L 206.659,558.428 L 207.937,558.967 L 209.209,559.516 L 210.472,560.073 L 211.727,560.639 L 212.975,561.213 L 214.215,561.799 L 215.448,562.391 L 216.672,562.992 L 217.889,563.603 L 219.097,564.221 L 220.299,564.848 L 221.491,565.483 L 222.677,566.127 L 223.853,566.779 L 225.023,567.44 L 226.184,568.108 L 227.336,568.785 L 228.48,569.469 L 229.616,570.163 L 230.744,570.864 L 231.864,571.572 L 232.973,572.288 L 234.076,573.012 L 235.171,573.745 L 236.257,574.485 L 237.333,575.232 L 238.401,575.987 L 239.461,576.748 L 240.513,577.52 L 241.556,578.296 L 242.589,579.08 L 243.613,579.872 L 244.629,580.671 L 245.636,581.477 L 246.635,582.291 L 247.624,583.111 L 248.605,583.939 L 249.577,584.772 L 250.537,585.612 L 251.492,586.46 L 252.435,587.313 L 253.369,588.175 L 254.295,589.041 L 255.209,589.917 L 256.117,590.799 L 257.015,591.684 L 257.901,592.577 L 258.78,593.476 L 259.649,594.383 L 260.508,595.293 L 261.357,596.212 L 262.197,597.136 L 263.028,598.067 L 263.848,599.003 L 264.659,599.944 L 265.459,600.892 L 266.251,601.847 L 267.032,602.805 L 267.804,603.771 L 268.564,604.741 L 269.315,605.716 L 270.056,606.699 L 270.788,607.685 L 271.508,608.676 L 272.219,609.675 L 272.92,610.677 L 273.609,611.684 L 274.289,612.699 L 274.959,613.716 L 275.617,614.739 L 276.265,615.767 L 276.905,616.8 L 277.532,617.836 L 278.148,618.879 L 278.756,619.927 L 279.351,620.979 L 279.936,622.035 L 280.511,623.096 L 281.075,624.16 L 281.627,625.229 L 282.168,626.304 L 282.7,627.383 L 283.22,628.464 L 283.729,629.551 L 284.227,630.641 L 284.713,631.736 L 285.189,632.835 L 285.655,633.937 L 286.107,635.044 L 286.549,636.155 L 286.981,637.269 L 287.191,637.827 L 287.4,638.387 L 287.607,638.947 L 287.808,639.507 L 288.008,640.069 L 288.205,640.633 L 288.4,641.196 L 288.589,641.76 L 288.779,642.327 L 288.964,642.892 L 289.147,643.459 L 289.327,644.028 L 289.504,644.597 L 289.679,645.167 L 289.848,645.737 L 290.016,646.308 L 290.181,646.881 L 290.345,647.455 L 290.504,648.027 L 290.66,648.601 L 290.813,649.177 L 290.964,649.755 L 291.112,650.331 L 291.256,650.907 L 291.399,651.485 L 291.537,652.067 L 291.673,652.645 L 291.807,653.225 L 291.936,653.807 L 292.063,654.389 L 292.187,654.971 L 292.308,655.553 L 292.425,656.139 L 292.54,656.725 L 292.652,657.308 L 292.761,657.895 L 292.867,658.483 L 292.971,659.071 L 293.071,659.657 L 293.167,660.245 L 293.26,660.835 L 293.351,661.425 L 293.439,662.016 L 293.524,662.605 L 293.604,663.199 L 293.684,663.792 L 293.759,664.384 L 293.831,664.977 L 293.9,665.572 L 293.967,666.167 L 294.029,666.763 L 294.089,667.356 L 294.147,667.953 L 294.2,668.551 L 294.251,669.148 L 294.299,669.745 L 294.341,670.344 L 294.384,670.943 L 294.421,671.543 L 294.457,672.144 L 294.488,672.743 L 294.517,673.343 L 294.543,673.944 L 294.565,674.548 L 294.585,675.149 L 294.601,675.751 L 294.613,676.355 L 294.624,676.959 L 294.631,677.561 L 294.632,678.167 L 294.632,678.773 L 294.631,679.379 L 294.624,679.984 L 294.613,680.593 L 296.613,680.623 L 296.621,680.008 L 296.628,679.392 L 296.632,678.776 L 296.632,678.164 L 296.628,677.548 L 296.621,676.932 L 296.611,676.32 L 296.599,675.705 L 296.583,675.091 L 296.563,674.479 L 296.54,673.867 L 296.515,673.255 L 296.485,672.644 L 296.452,672.032 L 296.416,671.423 L 296.379,670.812 L 296.336,670.203 L 296.291,669.593 L 296.243,668.985 L 296.192,668.377 L 296.136,667.769 L 296.079,667.164 L 296.019,666.557 L 295.953,665.951 L 295.887,665.345 L 295.815,664.743 L 295.743,664.139 L 295.665,663.533 L 295.585,662.932 L 295.503,662.331 L 295.417,661.728 L 295.327,661.127 L 295.236,660.528 L 295.14,659.928 L 295.041,659.329 L 294.939,658.729 L 294.835,658.133 L 294.727,657.537 L 294.617,656.94 L 294.503,656.344 L 294.385,655.749 L 294.265,655.156 L 294.144,654.563 L 294.017,653.968 L 293.888,653.377 L 293.756,652.785 L 293.62,652.195 L 293.481,651.605 L 293.34,651.016 L 293.197,650.429 L 293.051,649.84 L 292.9,649.253 L 292.747,648.668 L 292.591,648.084 L 292.432,647.499 L 292.268,646.913 L 292.104,646.332 L 291.936,645.751 L 291.765,645.169 L 291.591,644.588 L 291.413,644.008 L 291.233,643.431 L 291.051,642.853 L 290.865,642.276 L 290.677,641.7 L 290.485,641.125 L 290.291,640.551 L 290.093,639.977 L 289.893,639.405 L 289.691,638.835 L 289.484,638.264 L 289.275,637.693 L 289.063,637.125 L 288.848,636.557 L 288.411,635.424 L 287.96,634.297 L 287.5,633.172 L 287.027,632.051 L 286.543,630.933 L 286.048,629.823 L 285.543,628.713 L 285.025,627.608 L 284.497,626.508 L 283.957,625.413 L 283.408,624.323 L 282.845,623.235 L 282.273,622.152 L 281.688,621.075 L 281.095,620.003 L 280.489,618.935 L 279.873,617.871 L 279.247,616.812 L 278.609,615.757 L 277.961,614.708 L 277.303,613.664 L 276.633,612.625 L 275.953,611.592 L 275.263,610.564 L 274.563,609.541 L 273.851,608.523 L 273.129,607.511 L 272.399,606.504 L 271.656,605.501 L 270.904,604.505 L 270.143,603.515 L 269.369,602.531 L 268.587,601.552 L 267.795,600.577 L 266.992,599.609 L 266.179,598.648 L 265.357,597.693 L 264.524,596.744 L 263.683,595.8 L 262.829,594.863 L 261.969,593.931 L 261.097,593.007 L 260.215,592.087 L 259.325,591.175 L 258.425,590.268 L 257.515,589.369 L 256.596,588.477 L 255.668,587.591 L 254.729,586.711 L 253.781,585.839 L 252.825,584.972 L 251.86,584.113 L 250.884,583.26 L 249.899,582.416 L 248.907,581.577 L 247.904,580.747 L 246.892,579.923 L 245.872,579.105 L 244.843,578.296 L 243.803,577.493 L 242.756,576.699 L 241.7,575.912 L 240.635,575.132 L 239.561,574.36 L 238.48,573.595 L 237.388,572.837 L 236.288,572.089 L 235.18,571.348 L 234.064,570.613 L 232.939,569.887 L 231.805,569.171 L 230.664,568.461 L 229.512,567.76 L 228.355,567.065 L 227.187,566.38 L 226.012,565.704 L 224.829,565.035 L 223.637,564.375 L 222.437,563.723 L 221.229,563.08 L 220.015,562.445 L 218.791,561.819 L 217.56,561.203 L 216.32,560.593 L 215.073,559.993 L 213.817,559.403 L 212.556,558.82 L 211.285,558.247 L 210.007,557.684 L 208.721,557.129 L 207.429,556.583 L 206.396,556.157 L 205.361,555.736 L 204.324,555.323 L 203.284,554.916 L 202.243,554.516 L 201.199,554.125 L 200.155,553.739 L 199.108,553.36 L 198.057,552.987 L 197.007,552.621 L 195.953,552.263 L 194.899,551.911 L 193.843,551.565 L 192.783,551.227 L 191.724,550.896 L 190.663,550.571 L 189.599,550.252 L 188.535,549.941 L 187.469,549.637 L 186.401,549.339 L 185.332,549.047 L 184.261,548.763 L 183.191,548.485 L 182.116,548.213 L 181.041,547.949 L 179.967,547.692 L 178.889,547.441 L 177.811,547.196 L 176.732,546.959 L 175.652,546.727 L 174.569,546.503 L 173.488,546.285 L 172.405,546.073 L 171.32,545.868 L 170.235,545.671 L 169.149,545.48 L 168.063,545.295 L 166.975,545.116 L 165.887,544.944 L 164.796,544.78 L 163.707,544.621 L 162.617,544.469 L 161.525,544.324 L 160.435,544.185 L 159.344,544.053 L 158.251,543.927 L 157.157,543.809 L 156.065,543.696 L 154.972,543.589 L 153.877,543.489 L 152.784,543.397 L 151.688,543.311 L 150.595,543.231 L 149.487,543.156 L 148.577,543.124 Z "/>
				</g>
			</g>
			<text id="dp_text005" transform="matrix(1,0,0,1,26.5249,625.217)" xml:space="preserve" fill="black" font-family="Arial" font-size="27" font-weight="400" x="0" y="0">−</text>
			<text id="dp_text006" transform="matrix(1,0,0,1,26.5249,625.217)" xml:space="preserve" fill="black" font-family="Arial" font-size="27" font-weight="400" x="15.5733" y="0">k </text>
			<text id="dp_text007" transform="matrix(1,0,0,1,-36.5871,677.909)" xml:space="preserve" fill="black" font-family="Arial" font-size="27" font-weight="400" x="0" y="0">−</text>
			<text id="dp_text008" transform="matrix(1,0,0,1,-36.5871,677.909)" xml:space="preserve" fill="black" font-family="Arial" font-size="27" font-weight="400" x="15.5733" y="0">1 </text>
			<text id="dp_text009" transform="matrix(1,0,0,1,26.5249,759.39)" xml:space="preserve" fill="black" font-family="Arial" font-size="27" font-weight="400" x="0" y="0">−</text>
			<text id="dp_text010" transform="matrix(1,0,0,1,26.5249,759.39)" xml:space="preserve" fill="black" font-family="Arial" font-size="27" font-weight="400" x="15.5733" y="0">j </text>
			<text id="dp_text011" transform="matrix(1,0,0,1,102.194,853.289)" xml:space="preserve" fill="black" font-family="Arial" font-size="27" font-weight="400" x="0" y="0">−i</text>
			<text id="dp_text012" transform="matrix(1,0,0,1,102.194,853.289)" xml:space="preserve" fill="black" font-family="Arial" font-size="27" font-weight="400" x="21.476" y="0"> </text>
			<path id="dp_path047" fill="black" fill-rule="evenodd" stroke="none" stroke-width="1.33333" d="M 137.839,540.104 C 139.716,540.104 141.237,541.627 141.237,543.504 C 141.237,545.381 139.716,546.904 137.839,546.904 C 135.961,546.904 134.44,545.381 134.44,543.504 C 134.44,541.627 135.961,540.104 137.839,540.104 Z "/>
			<path id="dp_path048" fill="black" fill-rule="evenodd" stroke="none" stroke-width="1.33333" d="M 64.9373,611.179 C 66.8147,611.179 68.336,612.701 68.336,614.579 C 68.336,616.456 66.8147,617.979 64.9373,617.979 C 63.06,617.979 61.5387,616.456 61.5387,614.579 C 61.5387,612.701 63.06,611.179 64.9373,611.179 Z "/>
			<path id="dp_path049" fill="black" fill-rule="evenodd" stroke="none" stroke-width="1.33333" d="M 207.043,610.509 C 208.92,610.509 210.441,612.032 210.441,613.909 C 210.441,615.787 208.92,617.309 207.043,617.309 C 205.165,617.309 203.644,615.787 203.644,613.909 C 203.644,612.032 205.165,610.509 207.043,610.509 Z "/>
			<path id="dp_path050" fill="black" fill-rule="evenodd" stroke="none" stroke-width="1.33333" d="M 208.019,759.6 C 209.896,759.6 211.417,758.077 211.417,756.2 C 211.417,754.323 209.896,752.8 208.019,752.8 C 206.141,752.8 204.62,754.323 204.62,756.2 C 204.62,758.077 206.141,759.6 208.019,759.6 Z "/>
			<path id="dp_path051" fill="black" fill-rule="evenodd" stroke="none" stroke-width="1.33333" d="M 296.043,682.509 C 297.92,682.509 299.441,684.032 299.441,685.909 C 299.441,687.787 297.92,689.309 296.043,689.309 C 294.165,689.309 292.644,687.787 292.644,685.909 C 292.644,684.032 294.165,682.509 296.043,682.509 Z "/>
			<path id="dp_path052" fill="black" fill-rule="evenodd" stroke="none" stroke-width="1.33333" d="M -20.1707,682.509 C -22.048,682.509 -23.5693,684.032 -23.5693,685.909 C -23.5693,687.787 -22.048,689.309 -20.1707,689.309 C -18.2933,689.309 -16.772,687.787 -16.772,685.909 C -16.772,684.032 -18.2933,682.509 -20.1707,682.509 Z "/>
			<path id="dp_path053" fill="black" fill-rule="evenodd" stroke="none" stroke-width="1.33333" d="M 137.936,827.303 C 136.059,827.303 134.537,825.78 134.537,823.903 C 134.537,822.025 136.059,820.503 137.936,820.503 C 139.813,820.503 141.335,822.025 141.335,823.903 C 141.335,825.78 139.813,827.303 137.936,827.303 Z "/>
			<path id="dp_path054" fill="black" fill-rule="evenodd" stroke="none" stroke-width="1.33333" d="M 68.732,756.897 C 66.8547,756.897 65.3333,755.375 65.3333,753.497 C 65.3333,751.62 66.8547,750.097 68.732,750.097 C 70.6093,750.097 72.1307,751.62 72.1307,753.497 C 72.1307,755.375 70.6093,756.897 68.732,756.897 Z "/>
		</g>
		<g id="dp_group055">
			<text id="dp_text013" transform="matrix(1,0,0,1,110.568,930.276)" xml:space="preserve" fill="#0101ff" font-family="Arial" font-size="27" font-weight="400" x="0" y="0">ij</text>
			<text id="dp_text014" transform="matrix(1,0,0,1,110.568,930.276)" xml:space="preserve" fill="black" font-family="Arial" font-size="27" font-weight="400" x="11.804" y="0"> = k </text>
			<text id="dp_text015" transform="matrix(1,0,0,1,110.568,965.478)" xml:space="preserve" fill="#ff0202" font-family="Arial" font-size="27" font-weight="400" x="0" y="0">ji</text>
			<text id="dp_text016" transform="matrix(1,0,0,1,110.568,965.478)" xml:space="preserve" fill="black" font-family="Arial" font-size="27" font-weight="400" x="11.804" y="0"> = </text>
			<text id="dp_text017" transform="matrix(1,0,0,1,110.568,965.478)" xml:space="preserve" fill="black" font-family="Arial" font-size="27" font-weight="400" x="42.1667" y="0">−</text>
			<text id="dp_text018" transform="matrix(1,0,0,1,110.568,965.478)" xml:space="preserve" fill="black" font-family="Arial" font-size="27" font-weight="400" x="57.74" y="0">k </text>
			<text id="dp_text019" transform="matrix(1,0,0,1,110.568,1000.68)" xml:space="preserve" fill="#0101ff" font-family="Arial" font-size="27" font-weight="400" x="0" y="0">ij</text>
			<text id="dp_text020" transform="matrix(1,0,0,1,110.568,1000.68)" xml:space="preserve" fill="black" font-family="Arial" font-size="27" font-weight="400" x="11.804" y="0"> = </text>
			<text id="dp_text021" transform="matrix(1,0,0,1,110.568,1000.68)" xml:space="preserve" fill="black" font-family="Arial" font-size="27" font-weight="400" x="42.1667" y="0">−</text>
			<text id="dp_text022" transform="matrix(1,0,0,1,110.568,1000.68)" xml:space="preserve" fill="#ff0202" font-family="Arial" font-size="27" font-weight="400" x="57.74" y="0">ji</text>
			<text id="dp_text023" transform="matrix(1,0,0,1,110.568,1000.68)" xml:space="preserve" fill="black" font-family="Arial" font-size="27" font-weight="400" x="69.544" y="0"> </text>
		</g>
	</g>
</svg>