<svg width="196mm" height="100mm" version="1.1" viewBox="0 0 196 100" xmlns="http://www.w3.org/2000/svg"><rect width="196" height="100" fill="#fff"/>
 <g fill="none" stroke="#000" stroke-width="1.5"><path d="m78 17v24m-5-24v24" stroke="#000" stroke-width="2"/><path d="m28 94 133 0m-45 0v-22l-6-2 12-4-12-4 12-4-12-4 12-4-6-2v-19m-38 0h83m-133 0 45 0"/>
 <g fill="#fff"><circle cx="28" cy="29" r="4"/><circle cx="161" cy="29" r="4"/><circle cx="161" cy="94" r="4"/><circle cx="28" cy="94" r="4"/></g></g>
 <circle cx="116" cy="29" r="3"/><circle cx="116" cy="94" r="3"/>
 <g font-family="Arial" font-size="16px"><text x="2" y="33">V<tspan dy="4" font-size="10px">in</tspan></text><text x="167" y="34">V<tspan dy="4" font-size="10px">out</tspan></text><text x="69" y="14">C</text><text x="126" y="65">R</text></g></svg>