<svg width="800" height="500" xmlns="http://www.w3.org/2000/svg" xmlns:xlink="http://www.w3.org/1999/xlink">
<defs>
<g id="star" stroke-width="2">
<g id="ray10">
<path id="ray5" d="M78.32 12.41l-31.5-5M70.66 36 42.23 21.52M56.07 56.07 33.52 33.52M36 70.66 21.52 42.23M12.41 78.32l-5-31.5" fill="none" stroke-linecap="round"/>
<use xlink:href="#ray5" transform="scale(-1,1)"/>
</g>
<use xlink:href="#ray10" transform="scale(1,-1)"/>
<circle r="47.4"/>
</g>
<linearGradient id="lgArrow" x1=".06">
<stop offset="0" stop-color="green"/>
<stop offset="1" stop-color="#41FF41"/>
</linearGradient>
<linearGradient id="lgHilite">
<stop offset="0" stop-color="#FFF" stop-opacity=".72"/>
<stop offset="1" stop-color="#FFF" stop-opacity="0"/>
</linearGradient>
<linearGradient id="lgHilite1" xlink:href="#lgHilite" x2="0" y1="-.91" y2=".72"/>
<linearGradient id="lgHilite2" xlink:href="#lgHilite" x1="1.47" y1="-1.54" x2="2" y2="1"/>
<linearGradient id="lgStar" y1="-.64" x2="0" y2=".93">
<stop offset="0" stop-color="#FF8C00"/>
<stop offset="1" stop-color="#FFAC46"/>
</linearGradient>
</defs>
<g id="movingStar">
<use xlink:href="#star" fill="#FAEBD7" stroke="#FAEBD7" transform="translate(208.9,133.53) scale(.75)"/>
<use xlink:href="#star" fill="#FFDEAD" stroke="#FFE4B5" transform="translate(181.53,133.53) scale(.9)"/>
<use xlink:href="#star" x="151.9" y="133.53" fill="url(#lgStar)" stroke="#FF8C00"/>
<path d="M27.66 133.52l37.52 52.1V159.51H94.25V107.54H65.18V81.43Z" fill="url(#lgArrow)" stroke="green" stroke-width="3" stroke-linejoin="round"/>
</g>
<g id="starShade">
<ellipse cx="152.12" cy="122.66" rx="39.7" ry="33.32" fill="url(#lgHilite1)"/>
<path d="M172.65 100.66c-.17.03-12.45-5.72-32.45 3.6s-20.18 36.04-24.47 24.57c-5.04-13.5 3.6-27.08 16.5-34.23s36.33-1.56 40.42 6.06Z" fill="url(#lgHilite2)"/>
</g>
<g id="head" stroke="#000" stroke-width=".47">
<path d="M657.64 100.65v1.7h10.34l-4.39 6.38.99 2.55" fill="none"/>
<path d="M660.47 102.35c0 0-.21 1.95.64 3.51.85 1.56 2.76 2.73 2.76 2.73l4.11-6.38-7.51.14Z"/>
<g stroke-width="2.34" stroke-linecap="round" stroke-linejoin="round">
<path d="M672.94 97.11c-14.73-4.53-20.12 1.13-20.12 1.13m-2.55.15c1.56 7.36-3.78 27.16-1.84 34 1.59 5.61 8.04.81 10.77 1.84 3.47 1.3-.8 5.53 1.13 7.08 1.7 1.36 4.39 1.42 4.39 1.42 0 0-3.89 5.17 3.97 5.24 2.16.02-1.67 7.42 1.98 12.04 5.17 6.53 29.83 5.13 44.26-14.91m1.62-53.71c.7-5.11 9.42-10.15 12.42 2.01 2.83 11.47-3.26 14.72-6.41 19.23-3.35 4.78-6.41 2.15-6.21.4m-18.64 46.48c0 0 2.41 17.43.41 25.85m59.56-47.12c0 0 2.8 22.84 15.02 25.64" fill="none"/>
<path d="M650.07 98.4c-2.91 3.57-9.19-6.26-9.29-11.06-.28-13.77 16.19-41.81 42.58-49.26 26.28-7.44 53.49-1.71 74.36 29.17 16.37 24.23.7 72.53.7 72.53 0 0-9.04-21.16-19.83-31.26-10.8-10.09-25.15-6.31-25.15-6.31 0 0-29.35-23.85-49.08-16.53-19.65 7.29-12.53 10.57-14.29 12.72Z" fill="#696969" fill-opacity=".93"/>
</g>
</g>
<path d="M216.82 138.29c31.99-.45 27.78-32.8 55.84-32.8s28.06 47.86 56.12 47.86 28.06-47.86 56.12-47.86 28.06 47.86 56.12 47.86 28.06-47.86 56.12-47.86 28.06 47.86 56.12 47.86 28.06-47.86 56.12-47.86h24" fill="none" stroke="red" stroke-width="6.6" stroke-linecap="round" stroke-linejoin="round"/>
<g fill="red" stroke="red">
<path id="arrow" d="M644.75 105.49l-25.1 14.5v-29Z" stroke-width="1.3" stroke-linejoin="round"/>
</g>
<path d="M184.13 392.26c19.07-.47 16.56-33.77 33.28-33.77s16.72 49.27 33.43 49.27 16.72-49.27 33.44-49.27 16.72 49.27 33.44 49.27 16.72-49.27 33.44-49.27 16.72 49.27 33.43 49.27 16.72-49.27 33.44-49.27 16.72 49.27 33.43 49.27 16.72-49.27 33.44-49.27 16.72 49.27 33.44 49.27 16.72-49.27 33.44-49.27 16.72 49.27 33.43 49.27 16.72-49.27 33.44-49.27h15" fill="none" stroke="blue" stroke-width="5.2" stroke-linecap="round" stroke-linejoin="round"/>
<g transform="translate(0,253)">
<use xlink:href="#head"/>
<use xlink:href="#arrow" fill="blue" stroke="blue"/>
<use xlink:href="#movingStar" transform="matrix(-1,0,0,1,303.8,0)"/>
<use xlink:href="#starShade"/>
</g>
</svg>