<?xml version="1.0" encoding="UTF-8" standalone="no"?>
<svg
   width="632"
   height="394"
   overflow="hidden"
   version="1.1"
   id="svg50"
   sodipodi:docname="Carnot_theorem_paradox - copia.svg"
   inkscape:version="1.3.2 (091e20e, 2023-11-25, custom)"
   xmlns:inkscape="http://www.inkscape.org/namespaces/inkscape"
   xmlns:sodipodi="http://sodipodi.sourceforge.net/DTD/sodipodi-0.dtd"
   xmlns="http://www.w3.org/2000/svg"
   xmlns:svg="http://www.w3.org/2000/svg">
  <defs
     id="defs50" />
  <sodipodi:namedview
     id="namedview50"
     pagecolor="#ffffff"
     bordercolor="#000000"
     borderopacity="0.25"
     inkscape:showpageshadow="2"
     inkscape:pageopacity="0.0"
     inkscape:pagecheckerboard="0"
     inkscape:deskcolor="#d1d1d1"
     inkscape:zoom="1.2609325"
     inkscape:cx="285.10646"
     inkscape:cy="197.07637"
     inkscape:window-width="1920"
     inkscape:window-height="1009"
     inkscape:window-x="-8"
     inkscape:window-y="-8"
     inkscape:window-maximized="1"
     inkscape:current-layer="svg50" />
  <g
     id="g50">
    <path
       d="M324 223 324 210 266 210 266 184 324 184 324 171 350 197Z"
       stroke="#000000"
       stroke-width="4"
       stroke-miterlimit="8"
       fill="#FFFFFF"
       fill-rule="evenodd"
       id="path1" />
    <path
       d="M457 86.9999 444 86.9999 444 171 418 171 418 86.9999 405 86.9999 431 61Z"
       stroke="#000000"
       stroke-width="4"
       stroke-miterlimit="8"
       fill="#FFFFFF"
       fill-rule="evenodd"
       id="path2" />
    <path
       d="M457 270 444 270 444 333 418 333 418 270 405 270 431 244Z"
       stroke="#000000"
       stroke-width="4"
       stroke-miterlimit="8"
       fill="#FFFFFF"
       fill-rule="evenodd"
       id="path3" />
    <path
       d="M175 124 188 124 188 61 214 61 214 124 227 124 201 150Z"
       stroke="#000000"
       stroke-width="4"
       stroke-miterlimit="8"
       fill="#FFFFFF"
       fill-rule="evenodd"
       id="path4" />
    <path
       d="M175 307 188 307 188 232 214 232 214 307 227 307 201 333Z"
       stroke="#000000"
       stroke-width="4"
       stroke-miterlimit="8"
       fill="#FFFFFF"
       fill-rule="evenodd"
       id="path5" />
    <path
       d="M56 19.7752C56 11.0628 63.0628 4 71.7752 4L560.225 4C568.937 4 576 11.0628 576 19.7752L576 45.2248C576 53.9372 568.937 61 560.225 61L71.7752 61C63.0628 61 56 53.9372 56 45.2248Z"
       stroke="#000000"
       stroke-width="4"
       stroke-miterlimit="8"
       fill="#FFFFFF"
       fill-rule="evenodd"
       id="path6" />
    <path
       d="m 15.96875,-3.4179688 q 0,0.7929688 0.04102,1.1894532 0.04102,0.3964844 0.136718,0.6425781 0.0957,0.2324219 0.232422,0.3828125 0.136719,0.1503906 0.382813,0.2734375 0.259765,0.12304687 0.792968,0.25976563 V 0 h -5.728515 v -0.66992187 q 0.751953,-0.19140626 1.052734,-0.42382813 0.300782,-0.2324219 0.410157,-0.7109375 0.123046,-0.4785156 0.123046,-1.6132813 V -9.1464844 H 5.8105469 v 5.7285156 q 0,0.9160157 0.054687,1.3398438 0.068359,0.4238281 0.2050781,0.6699219 0.1503906,0.2460937 0.4238281,0.41015622 0.2871094,0.1640625 0.9160156,0.32812501 V 0 H 1.6542969 V -0.66992187 Q 2.5019531,-0.88867188 2.7890625,-1.1484375 3.0761719,-1.421875 3.1582031,-1.9140625 3.2539063,-2.40625 3.2539063,-3.4179688 V -15.244141 q 0,-0.943359 -0.068359,-1.367187 -0.068359,-0.4375 -0.2324219,-0.669922 -0.1503906,-0.246094 -0.4101562,-0.382812 -0.2597657,-0.150391 -0.8886719,-0.328125 v -0.669922 h 5.7558593 v 0.669922 q -0.6015625,0.15039 -0.875,0.300781 -0.2597656,0.15039 -0.4238281,0.382812 -0.1503906,0.21875 -0.2324219,0.669922 -0.068359,0.451172 -0.068359,1.394531 v 4.839844 h 7.6015621 v -4.839844 q 0,-1.189453 -0.123046,-1.626953 -0.109375,-0.4375 -0.382813,-0.669922 -0.273437,-0.232421 -1.080078,-0.451171 v -0.669922 h 5.728515 v 0.669922 q -0.765625,0.191406 -1.066406,0.4375 -0.300781,0.232421 -0.410156,0.710937 -0.109375,0.478516 -0.109375,1.599609 z M 28.164062,0.21875 q -1.640625,0 -2.99414,-0.53320313 -1.339844,-0.546875 -2.310547,-1.68164057 -0.957031,-1.1484376 -1.490234,-2.9257813 -0.519532,-1.7773437 -0.519532,-4.2519531 0,-3.0488279 0.929688,-5.2363279 0.929687,-2.1875 2.652344,-3.322266 1.736328,-1.148437 4.019531,-1.148437 2.433594,0 4.08789,1.080078 1.667969,1.066406 2.501954,3.158203 0.847656,2.078125 0.847656,5.0722655 0,3.1992188 -0.957031,5.4003906 Q 33.974609,-1.96875 32.224609,-0.875 30.488281,0.21875 28.164062,0.21875 Z m -4.498046,-9.7753906 q 0,4.1972656 1.216796,6.3847656 1.230469,2.1875 3.582032,2.1875 1.490234,0 2.529297,-0.9433594 1.039062,-0.9570312 1.558593,-2.7890625 0.519532,-1.8320312 0.519532,-4.2792969 0,-2.9804692 -0.615235,-4.9355472 -0.601562,-1.96875 -1.654297,-2.857421 -1.052734,-0.888672 -2.447265,-0.888672 -1.230469,0 -2.119141,0.574218 -0.875,0.574219 -1.462891,1.640625 -0.574218,1.052735 -0.847656,2.556641 -0.259765,1.503906 -0.259765,3.3496094 z m 14.36914,-9.1054684 h 14.792969 v 4.757812 h -1.339844 q -0.300781,-1.175781 -0.601562,-1.859375 -0.28711,-0.683594 -0.615235,-1.039062 -0.328125,-0.355469 -0.710937,-0.50586 -0.369141,-0.15039 -1.121094,-0.15039 h -1.736328 v 13.9999996 q 0,0.8066406 0.08203,1.2851563 0.0957,0.4785156 0.273438,0.765625 0.191406,0.2734375 0.505859,0.43749997 0.314453,0.15039063 0.984375,0.30078126 V 0 H 42.300781 V -0.66992187 Q 42.710937,-0.765625 43.025391,-0.875 q 0.314453,-0.109375 0.505859,-0.2597656 0.205078,-0.1640625 0.328125,-0.4101563 0.136719,-0.2460937 0.205078,-0.6699219 0.08203,-0.4238281 0.08203,-1.2441406 V -17.458984 h -1.722656 q -0.642578,0 -1.066406,0.123047 -0.410156,0.123046 -0.765625,0.519531 -0.355469,0.382812 -0.65625,1.107422 -0.28711,0.710937 -0.546875,1.804687 h -1.353516 z"
       id="text7"
       style="font-size:28px;font-family:Cambria, Cambria_MSFontService, sans-serif"
       transform="translate(300.943 56)"
       aria-label="HOT" />
    <path
       d="M 14.949219,0 H 6.1098633 l 0.230957,-1.0288086 Q 7.159668,-1.1337891 7.5585937,-1.34375 7.9575195,-1.574707 8.2514648,-2.015625 8.5664063,-2.456543 8.8813477,-3.3803711 9.1962891,-4.3251953 9.6162109,-6.2568359 L 14.109375,-26.812012 h -2.666504 q -1.301758,0 -2.0786132,0.37793 -0.7768555,0.37793 -1.5537109,1.406738 -0.7768555,1.028809 -1.8896485,3.44336 h -2.015625 l 1.5747071,-7.075684 H 27.399902 l -1.637695,7.390625 h -2.015625 q 0,-2.036621 -0.10498,-3.044434 -0.104981,-1.028808 -0.398926,-1.55371 -0.293946,-0.545899 -0.734864,-0.734864 -0.419921,-0.209961 -1.511718,-0.209961 H 17.888672 L 13.33252,-6.1098633 q -0.188965,0.8188477 -0.27295,1.3017578 -0.06299,0.4829102 -0.125976,1.0288086 -0.04199,0.5249024 -0.04199,0.9448242 0,0.6508789 0.209961,1.0288086 0.20996,0.3569336 0.629882,0.5249024 0.419922,0.1679687 1.448731,0.2519531 z"
       id="text6"
       style="font-style:italic;font-size:43px;font-family:Cambria, Cambria_MSFontService, sans-serif"
       transform="translate(276.443 46)"
       aria-label="T" />
    <path
       d="M56 348.775C56 340.063 63.0628 333 71.7752 333L560.225 333C568.937 333 576 340.063 576 348.775L576 374.225C576 382.937 568.937 390 560.225 390L71.7752 390C63.0628 390 56 382.937 56 374.225Z"
       stroke="#000000"
       stroke-width="4"
       stroke-miterlimit="8"
       fill="#FFFFFF"
       fill-rule="evenodd"
       id="path7" />
    <path
       d="M 14.949219,0 H 6.1098633 l 0.230957,-1.0288086 Q 7.159668,-1.1337891 7.5585937,-1.34375 7.9575195,-1.574707 8.2514648,-2.015625 8.5664063,-2.456543 8.8813477,-3.3803711 9.1962891,-4.3251953 9.6162109,-6.2568359 L 14.109375,-26.812012 h -2.666504 q -1.301758,0 -2.0786132,0.37793 -0.7768555,0.37793 -1.5537109,1.406738 -0.7768555,1.028809 -1.8896485,3.44336 h -2.015625 l 1.5747071,-7.075684 H 27.399902 l -1.637695,7.390625 h -2.015625 q 0,-2.036621 -0.10498,-3.044434 -0.104981,-1.028808 -0.398926,-1.55371 -0.293946,-0.545899 -0.734864,-0.734864 -0.419921,-0.209961 -1.511718,-0.209961 H 17.888672 L 13.33252,-6.1098633 q -0.188965,0.8188477 -0.27295,1.3017578 -0.06299,0.4829102 -0.125976,1.0288086 -0.04199,0.5249024 -0.04199,0.9448242 0,0.6508789 0.209961,1.0288086 0.20996,0.3569336 0.629882,0.5249024 0.419922,0.1679687 1.448731,0.2519531 z"
       id="text8"
       style="font-style:italic;font-size:43px;font-family:Cambria, Cambria_MSFontService, sans-serif"
       transform="translate(269.417 374)"
       aria-label="T" />
    <path
       d="m 14.246094,-18.265625 v 3.787109 h -1.353516 q -0.328125,-1.189453 -0.833984,-1.886718 -0.50586,-0.710938 -1.175781,-1.011719 -0.669922,-0.300781 -1.6132817,-0.300781 -1.4082032,0 -2.5156251,0.943359 -1.09375,0.929687 -1.7226562,2.816406 -0.6289063,1.873047 -0.6289063,4.5390627 0,2.6796876 0.5195313,4.5800782 0.5195312,1.8867187 1.53125,2.8574219 1.0117187,0.9570312 2.4882813,0.9570312 1.1210937,0 1.8320317,-0.3144531 0.710937,-0.328125 1.189453,-1.0253907 0.492187,-0.6972656 0.929687,-2.0507812 h 1.353516 v 3.91015625 Q 12.960938,-0.12304687 11.607422,0.04101562 10.267578,0.21875 8.6542969,0.21875 q -3.4726563,0 -5.25,-2.3515625 -1.7773438,-2.3515625 -1.7773438,-7.0136719 0,-2.9257816 0.9160157,-5.1269536 0.9296875,-2.201171 2.7207031,-3.404296 1.7910156,-1.203125 4.2792969,-1.203125 1.2441402,0 2.2968752,0.136718 1.052734,0.123047 2.40625,0.478516 z M 24.527344,0.21875 q -1.640625,0 -2.994141,-0.53320313 -1.339844,-0.546875 -2.310547,-1.68164057 -0.957031,-1.1484376 -1.490234,-2.9257813 -0.519531,-1.7773437 -0.519531,-4.2519531 0,-3.0488279 0.929687,-5.2363279 0.929688,-2.1875 2.652344,-3.322266 1.736328,-1.148437 4.019531,-1.148437 2.433594,0 4.087891,1.080078 1.667968,1.066406 2.501953,3.158203 0.847656,2.078125 0.847656,5.0722655 0,3.1992188 -0.957031,5.4003906 Q 30.337891,-1.96875 28.587891,-0.875 26.851562,0.21875 24.527344,0.21875 Z m -4.498047,-9.7753906 q 0,4.1972656 1.216797,6.3847656 1.230468,2.1875 3.582031,2.1875 1.490234,0 2.529297,-0.9433594 1.039062,-0.9570312 1.558594,-2.7890625 0.519531,-1.8320312 0.519531,-4.2792969 0,-2.9804692 -0.615235,-4.9355472 -0.601562,-1.96875 -1.654296,-2.857421 -1.052735,-0.888672 -2.447266,-0.888672 -1.230469,0 -2.119141,0.574218 -0.875,0.574219 -1.46289,1.640625 -0.574219,1.052735 -0.847657,2.556641 -0.259765,1.503906 -0.259765,3.3496094 z m 19.660156,8.2988281 h 3.582031 q 0.587891,0 0.984375,-0.068359 0.396485,-0.068359 0.669922,-0.2050781 0.28711,-0.1503906 0.50586,-0.3964844 0.232421,-0.2597656 0.4375,-0.6699219 0.205078,-0.4101562 0.382812,-1.0253906 0.191406,-0.6289062 0.464844,-1.8730468 h 1.380859 L 47.824219,0 H 35.533203 v -0.66992187 q 0.847656,-0.21875001 1.134766,-0.47851563 0.287109,-0.2734375 0.36914,-0.765625 0.0957,-0.4921875 0.0957,-1.5039063 V -15.244141 q 0,-0.943359 -0.06836,-1.367187 -0.06836,-0.4375 -0.232422,-0.669922 -0.15039,-0.246094 -0.410156,-0.382812 -0.259766,-0.150391 -0.888672,-0.328125 v -0.669922 h 5.755859 v 0.669922 q -0.601562,0.164062 -0.861328,0.300781 -0.246093,0.123047 -0.410156,0.341797 -0.164062,0.21875 -0.246094,0.669922 -0.08203,0.451171 -0.08203,1.435546 z M 50.544922,0 v -0.66992187 q 0.628906,-0.16406251 0.902344,-0.31445313 0.273437,-0.1503906 0.423828,-0.3828125 0.15039,-0.2324219 0.21875,-0.6699219 0.06836,-0.4375 0.06836,-1.3808594 V -15.244141 q 0,-0.957031 -0.06836,-1.380859 -0.06836,-0.4375 -0.232422,-0.669922 -0.150391,-0.232422 -0.410156,-0.36914 -0.259766,-0.150391 -0.902344,-0.328125 v -0.669922 h 5.988281 q 2.583984,0 4.224609,0.574218 1.654297,0.560547 2.789063,1.667969 1.134766,1.107422 1.695312,2.761719 0.560547,1.640625 0.560547,3.923828 0,2.3105469 -0.533203,4.0742188 -0.519531,1.7499999 -1.53125,2.9394531 -0.875,1.0390625 -2.146484,1.7089844 -1.052735,0.54687495 -2.433594,0.77929682 Q 57.777344,0 55.494141,0 Z m 4.169922,-1.2714844 q 0.546875,0.054687 1.613281,0.054687 1.148437,0 2.050781,-0.1914062 0.902344,-0.1914063 1.640625,-0.6015625 0.738281,-0.4101563 1.326172,-1.1347657 0.587891,-0.7382812 0.957031,-1.6816406 0.369141,-0.9570312 0.533203,-2.1191406 0.177735,-1.1621094 0.177735,-2.5429688 0,-2.7753907 -0.806641,-4.5527347 -0.792969,-1.791015 -2.255859,-2.611328 -1.449219,-0.820312 -3.472656,-0.820312 -0.929688,0 -1.763672,0.05469 z"
       id="text9"
       style="font-size:28px;font-family:Cambria, Cambria_MSFontService, sans-serif"
       transform="translate(293.917 384)"
       aria-label="COLD" />
    <path
       d="M120 197C120 171.043 156.265 150 201 150 245.735 150 282 171.043 282 197 282 222.957 245.735 244 201 244 156.265 244 120 222.957 120 197Z"
       stroke="#000000"
       stroke-width="4"
       stroke-miterlimit="8"
       fill="#FFFFFF"
       fill-rule="evenodd"
       id="path9" />
    <path
       d="m 13.921875,-17.995605 v 3.981445 h -1.291992 q -0.197754,-0.645996 -0.408692,-1.133789 -0.210937,-0.487793 -0.435058,-0.817383 -0.224121,-0.32959 -0.500977,-0.527344 -0.263672,-0.197754 -0.632812,-0.263672 -0.369141,-0.0791 -0.883301,-0.0791 H 5.6030273 v 6.9082029 h 2.8212891 q 0.5800781,0 0.909668,-0.1582029 0.3295898,-0.171387 0.5405273,-0.566895 0.2241213,-0.395508 0.4218753,-1.239258 h 1.239258 v 5.0625004 H 10.296387 Q 10.111816,-7.6201172 9.8876953,-8.015625 9.6635742,-8.4243164 9.347168,-8.5957031 9.0439453,-8.7670898 8.4243164,-8.7670898 H 5.6030273 v 7.6069336 H 9.703125 q 0.645996,0 1.041504,-0.1054688 0.408691,-0.1186523 0.69873,-0.3823242 0.290039,-0.2768555 0.514161,-0.7119141 0.224121,-0.4350586 0.36914,-0.8964844 0.158203,-0.4746093 0.421875,-1.3710937 h 1.305176 L 13.803223,0 H 1.5952148 v -0.64599609 q 0.8173829,-0.2109375 1.0942383,-0.46142581 0.2768555,-0.2636718 0.3559571,-0.7382812 0.092285,-0.4746094 0.092285,-1.4501953 V -14.699707 q 0,-0.909668 -0.065918,-1.318359 -0.065918,-0.421875 -0.224121,-0.645996 -0.1450196,-0.237305 -0.3955079,-0.369141 -0.2504882,-0.14502 -0.8569336,-0.316406 v -0.645996 z m 9.663574,6.723632 H 20.43457 v 7.9760746 q 0,0.8833007 0.0791,1.3315429 0.09229,0.4482422 0.250488,0.6855469 0.171387,0.2241211 0.435059,0.36914063 0.276855,0.13183594 0.870117,0.26367188 V 0 h -5.39209 v -0.64599609 q 0.580078,-0.15820313 0.830566,-0.30322266 0.250489,-0.14501955 0.382325,-0.36914065 0.145019,-0.2241211 0.210937,-0.6459961 0.06592,-0.421875 0.06592,-1.3315429 v -7.9760746 h -1.595215 v -0.672363 q 0.500977,-0.0791 0.65918,-0.118652 0.171387,-0.05273 0.316406,-0.14502 0.158203,-0.09229 0.263672,-0.263672 0.118652,-0.171386 0.197754,-0.500976 0.09229,-0.342774 0.14502,-0.949219 0.118652,-1.437012 0.51416,-2.333496 0.408691,-0.896484 1.17334,-1.529297 0.777832,-0.632812 1.647949,-0.883301 0.883301,-0.263672 2.069824,-0.263672 1.041504,0 1.766602,0.14502 v 2.38623 h -1.305176 q -0.250488,-0.777832 -0.593262,-1.094238 -0.32959,-0.32959 -0.936035,-0.32959 -0.435059,0 -0.738281,0.118653 -0.290039,0.118652 -0.540528,0.36914 -0.250488,0.250489 -0.435058,0.672364 -0.171387,0.421875 -0.263672,1.054687 -0.0791,0.619629 -0.0791,1.621582 v 1.384277 h 3.150879 z m 8.173828,0 h -3.150879 v 7.9760746 q 0,0.8833007 0.0791,1.3315429 0.09229,0.4482422 0.250488,0.6855469 0.171387,0.2241211 0.435059,0.36914063 0.276855,0.13183594 0.870117,0.26367188 V 0 h -5.39209 v -0.64599609 q 0.580078,-0.15820313 0.830567,-0.30322266 0.250488,-0.14501955 0.382324,-0.36914065 0.145019,-0.2241211 0.210937,-0.6459961 0.06592,-0.421875 0.06592,-1.3315429 v -7.9760746 h -1.595215 v -0.672363 q 0.500977,-0.0791 0.65918,-0.118652 0.171387,-0.05273 0.316406,-0.14502 0.158204,-0.09229 0.263672,-0.263672 0.118653,-0.171386 0.197754,-0.500976 0.09229,-0.342774 0.14502,-0.949219 0.118652,-1.437012 0.51416,-2.333496 0.408691,-0.896484 1.17334,-1.529297 0.777832,-0.632812 1.647949,-0.883301 0.883301,-0.263672 2.069824,-0.263672 1.041504,0 1.766602,0.14502 v 2.38623 h -1.305176 q -0.250488,-0.777832 -0.593262,-1.094238 -0.32959,-0.32959 -0.936035,-0.32959 -0.435059,0 -0.738281,0.118653 -0.290039,0.118652 -0.540528,0.36914 -0.250488,0.250489 -0.435058,0.672364 -0.171387,0.421875 -0.263672,1.054687 -0.0791,0.619629 -0.0791,1.621582 v 1.384277 h 3.150879 z"
       id="text10"
       style="font-size:27px;font-family:'Cambria Math', 'Cambria Math_MSFontService', sans-serif"
       transform="translate(146.643 207)"
       aria-label="Eff" />
    <path
       d="M 4.1000977,-3.0585938 V 0 h -2.663086 v -3.0585938 z"
       id="text11"
       style="font-size:27px;font-family:'Cambria Math', 'Cambria Math_MSFontService', sans-serif"
       transform="translate(177.976 207)"
       aria-label="." />
    <path
       d="M 1.9643555,-9.5712891 V -11.324707 H 18.206543 v 1.7534179 z m 0,5.4711914 V -5.8535156 H 18.206543 v 1.7534179 z M 18.760254,-7.7124023 Z"
       id="text12"
       style="font-size:27px;font-family:'Cambria Math', 'Cambria Math_MSFontService', sans-serif"
       transform="translate(187.923 207)"
       aria-label="=" />
    <path
       d="M 9.5449219,5.6953125 H 7.3828125 L 10.27002,-7.3959961 q 0.105468,-0.5009766 0.18457,-1.1206055 0.09229,-0.6328125 0.09229,-1.0283203 0,-0.9228511 -0.32959,-1.3183591 -0.3295897,-0.408692 -1.001953,-0.408692 -0.6987304,0 -1.621582,0.8042 -0.9228516,0.7910152 -1.7138672,2.030273 -0.777832,1.2260742 -0.9755859,2.1621094 L 3.5463867,0 H 1.265625 l 2.0039063,-8.859375 q 0.065918,-0.3032227 0.1186523,-0.7250977 0.065918,-0.4350583 0.065918,-0.7646483 0,-0.461426 -0.1713868,-0.698731 -0.1582031,-0.250488 -0.5405273,-0.250488 -0.3164062,0 -0.7382812,0.237305 -0.4218751,0.237305 -0.9492188,0.830566 L 0.31640625,-10.96875 q 1.19970705,-1.120605 1.87207035,-1.476563 0.6855468,-0.36914 1.5161132,-0.36914 0.8305664,0 1.3183594,0.474609 0.487793,0.47461 0.487793,1.265625 0,0.817383 -0.3164063,1.7534182 l 0.1186524,0.052734 q 0.5668945,-0.7778316 1.1206054,-1.4238286 0.5668946,-0.645996 1.1601563,-1.107421 0.6064453,-0.47461 1.2524414,-0.738282 0.6591797,-0.276855 1.3974606,-0.276855 1.252442,0 1.924805,0.725098 0.672363,0.711914 0.672363,2.043457 0,0.8041988 -0.303222,2.1884761 z"
       id="text13"
       style="font-size:27px;font-family:'Cambria Math', 'Cambria Math_MSFontService', sans-serif"
       transform="translate(215.329 207)"
       aria-label="ðœ‚" />
    <path
       d="m 15.126953,-12.851563 q -0.429687,0.107422 -0.625,0.214844 -0.185547,0.107422 -0.302734,0.273438 -0.107422,0.15625 -0.166016,0.478515 -0.04883,0.322266 -0.04883,0.996094 v 8.4472657 q 0,0.6542969 0.03906,0.9570313 0.04883,0.3027344 0.146484,0.4785156 0.107422,0.17578127 0.302734,0.29296878 0.205078,0.1171875 0.654297,0.23437499 V 0 h -4.072265 v -0.47851563 q 0.55664,-0.13671874 0.771484,-0.31249999 0.214844,-0.17578126 0.292969,-0.51757808 0.07813,-0.3417969 0.07813,-1.1328126 v -3.7402343 q 0,-1.4746094 0.03906,-2.9785157 0.04883,-1.5136717 0.107422,-2.0703127 H 12.177734 L 8.3105469,-1.5527344 H 7.1875 L 3.59375,-11.386719 H 3.4277344 q 0.048828,0.595703 0.087891,2.1582034 0.048828,1.5625 0.048828,3.2128906 v 3.5742187 q 0,0.6542969 0.039063,0.9570313 0.048828,0.3027344 0.1464844,0.4785156 0.1074219,0.17578127 0.3027344,0.29296878 0.2050781,0.1171875 0.6542968,0.23437499 V 0 H 1.1425781 V -0.47851563 Q 1.7480469,-0.63476562 1.953125,-0.8203125 2.1582031,-1.015625 2.2167969,-1.3671875 2.2851563,-1.71875 2.2851563,-2.4414063 v -8.4472657 q 0,-0.673828 -0.048828,-0.976562 -0.048828,-0.3125 -0.1660156,-0.478516 -0.1074219,-0.175781 -0.2929688,-0.273438 -0.1855468,-0.107421 -0.6347656,-0.234375 v -0.478515 h 3.4863281 l 3.4277344,9.501953 3.7695314,-9.501953 h 3.300781 z"
       id="text14"
       style="font-size:20px;font-family:'Cambria Math', 'Cambria Math_MSFontService', sans-serif"
       transform="translate(229.329 212)"
       aria-label="M" />
    <path
       d="M350 197C350 171.043 386.265 150 431 150 475.735 150 512 171.043 512 197 512 222.957 475.735 244 431 244 386.265 244 350 222.957 350 197Z"
       stroke="#000000"
       stroke-width="4"
       stroke-miterlimit="8"
       fill="#FFFFFF"
       fill-rule="evenodd"
       id="path14" />
    <path
       d="m 13.921875,-17.995605 v 3.981445 h -1.291992 q -0.197754,-0.645996 -0.408692,-1.133789 -0.210937,-0.487793 -0.435058,-0.817383 -0.224121,-0.32959 -0.500977,-0.527344 -0.263672,-0.197754 -0.632812,-0.263672 -0.369141,-0.0791 -0.883301,-0.0791 H 5.6030273 v 6.9082029 h 2.8212891 q 0.5800781,0 0.909668,-0.1582029 0.3295898,-0.171387 0.5405273,-0.566895 0.2241213,-0.395508 0.4218753,-1.239258 h 1.239258 v 5.0625004 H 10.296387 Q 10.111816,-7.6201172 9.8876953,-8.015625 9.6635742,-8.4243164 9.347168,-8.5957031 9.0439453,-8.7670898 8.4243164,-8.7670898 H 5.6030273 v 7.6069336 H 9.703125 q 0.645996,0 1.041504,-0.1054688 0.408691,-0.1186523 0.69873,-0.3823242 0.290039,-0.2768555 0.514161,-0.7119141 0.224121,-0.4350586 0.36914,-0.8964844 0.158203,-0.4746093 0.421875,-1.3710937 h 1.305176 L 13.803223,0 H 1.5952148 v -0.64599609 q 0.8173829,-0.2109375 1.0942383,-0.46142581 0.2768555,-0.2636718 0.3559571,-0.7382812 0.092285,-0.4746094 0.092285,-1.4501953 V -14.699707 q 0,-0.909668 -0.065918,-1.318359 -0.065918,-0.421875 -0.224121,-0.645996 -0.1450196,-0.237305 -0.3955079,-0.369141 -0.2504882,-0.14502 -0.8569336,-0.316406 v -0.645996 z m 9.663574,6.723632 H 20.43457 v 7.9760746 q 0,0.8833007 0.0791,1.3315429 0.09229,0.4482422 0.250488,0.6855469 0.171387,0.2241211 0.435059,0.36914063 0.276855,0.13183594 0.870117,0.26367188 V 0 h -5.39209 v -0.64599609 q 0.580078,-0.15820313 0.830566,-0.30322266 0.250489,-0.14501955 0.382325,-0.36914065 0.145019,-0.2241211 0.210937,-0.6459961 0.06592,-0.421875 0.06592,-1.3315429 v -7.9760746 h -1.595215 v -0.672363 q 0.500977,-0.0791 0.65918,-0.118652 0.171387,-0.05273 0.316406,-0.14502 0.158203,-0.09229 0.263672,-0.263672 0.118652,-0.171386 0.197754,-0.500976 0.09229,-0.342774 0.14502,-0.949219 0.118652,-1.437012 0.51416,-2.333496 0.408691,-0.896484 1.17334,-1.529297 0.777832,-0.632812 1.647949,-0.883301 0.883301,-0.263672 2.069824,-0.263672 1.041504,0 1.766602,0.14502 v 2.38623 h -1.305176 q -0.250488,-0.777832 -0.593262,-1.094238 -0.32959,-0.32959 -0.936035,-0.32959 -0.435059,0 -0.738281,0.118653 -0.290039,0.118652 -0.540528,0.36914 -0.250488,0.250489 -0.435058,0.672364 -0.171387,0.421875 -0.263672,1.054687 -0.0791,0.619629 -0.0791,1.621582 v 1.384277 h 3.150879 z m 8.173828,0 h -3.150879 v 7.9760746 q 0,0.8833007 0.0791,1.3315429 0.09229,0.4482422 0.250488,0.6855469 0.171387,0.2241211 0.435059,0.36914063 0.276855,0.13183594 0.870117,0.26367188 V 0 h -5.39209 v -0.64599609 q 0.580078,-0.15820313 0.830567,-0.30322266 0.250488,-0.14501955 0.382324,-0.36914065 0.145019,-0.2241211 0.210937,-0.6459961 0.06592,-0.421875 0.06592,-1.3315429 v -7.9760746 h -1.595215 v -0.672363 q 0.500977,-0.0791 0.65918,-0.118652 0.171387,-0.05273 0.316406,-0.14502 0.158204,-0.09229 0.263672,-0.263672 0.118653,-0.171386 0.197754,-0.500976 0.09229,-0.342774 0.14502,-0.949219 0.118652,-1.437012 0.51416,-2.333496 0.408691,-0.896484 1.17334,-1.529297 0.777832,-0.632812 1.647949,-0.883301 0.883301,-0.263672 2.069824,-0.263672 1.041504,0 1.766602,0.14502 v 2.38623 h -1.305176 q -0.250488,-0.777832 -0.593262,-1.094238 -0.32959,-0.32959 -0.936035,-0.32959 -0.435059,0 -0.738281,0.118653 -0.290039,0.118652 -0.540528,0.36914 -0.250488,0.250489 -0.435058,0.672364 -0.171387,0.421875 -0.263672,1.054687 -0.0791,0.619629 -0.0791,1.621582 v 1.384277 h 3.150879 z"
       id="text15"
       style="font-size:27px;font-family:'Cambria Math', 'Cambria Math_MSFontService', sans-serif"
       transform="translate(380.397 207)"
       aria-label="Eff" />
    <path
       d="M 4.1000977,-3.0585938 V 0 h -2.663086 v -3.0585938 z"
       id="text16"
       style="font-size:27px;font-family:'Cambria Math', 'Cambria Math_MSFontService', sans-serif"
       transform="translate(411.73 207)"
       aria-label="." />
    <path
       d="M 1.9643555,-9.5712891 V -11.324707 H 18.206543 v 1.7534179 z m 0,5.4711914 V -5.8535156 H 18.206543 v 1.7534179 z M 18.760254,-7.7124023 Z"
       id="text17"
       style="font-size:27px;font-family:'Cambria Math', 'Cambria Math_MSFontService', sans-serif"
       transform="translate(421.677 207)"
       aria-label="=" />
    <path
       d="M 9.5449219,5.6953125 H 7.3828125 L 10.27002,-7.3959961 q 0.105468,-0.5009766 0.18457,-1.1206055 0.09229,-0.6328125 0.09229,-1.0283203 0,-0.9228511 -0.32959,-1.3183591 -0.3295897,-0.408692 -1.001953,-0.408692 -0.6987304,0 -1.621582,0.8042 -0.9228516,0.7910152 -1.7138672,2.030273 -0.777832,1.2260742 -0.9755859,2.1621094 L 3.5463867,0 H 1.265625 l 2.0039063,-8.859375 q 0.065918,-0.3032227 0.1186523,-0.7250977 0.065918,-0.4350583 0.065918,-0.7646483 0,-0.461426 -0.1713868,-0.698731 -0.1582031,-0.250488 -0.5405273,-0.250488 -0.3164062,0 -0.7382812,0.237305 -0.4218751,0.237305 -0.9492188,0.830566 L 0.31640625,-10.96875 q 1.19970705,-1.120605 1.87207035,-1.476563 0.6855468,-0.36914 1.5161132,-0.36914 0.8305664,0 1.3183594,0.474609 0.487793,0.47461 0.487793,1.265625 0,0.817383 -0.3164063,1.7534182 l 0.1186524,0.052734 q 0.5668945,-0.7778316 1.1206054,-1.4238286 0.5668946,-0.645996 1.1601563,-1.107421 0.6064453,-0.47461 1.2524414,-0.738282 0.6591797,-0.276855 1.3974606,-0.276855 1.252442,0 1.924805,0.725098 0.672363,0.711914 0.672363,2.043457 0,0.8041988 -0.303222,2.1884761 z"
       id="text18"
       style="font-size:27px;font-family:'Cambria Math', 'Cambria Math_MSFontService', sans-serif"
       transform="translate(449.084 207)"
       aria-label="ðœ‚" />
    <path
       d="m 4.1503906,-0.8984375 h 2.5585938 q 0.4199218,0 0.703125,-0.0488281 Q 7.6953125,-0.99609375 7.890625,-1.09375 8.0957031,-1.2011719 8.2519531,-1.3769531 8.4179688,-1.5625 8.5644531,-1.8554687 8.7109375,-2.1484375 8.8378906,-2.5878906 8.9746094,-3.0371094 9.1699219,-3.9257813 H 10.15625 L 9.9609375,0 H 1.1816406 V -0.47851563 Q 1.7871094,-0.63476562 1.9921875,-0.8203125 2.1972656,-1.015625 2.2558594,-1.3671875 2.3242188,-1.71875 2.3242188,-2.4414063 v -8.4472657 q 0,-0.673828 -0.048828,-0.976562 -0.048828,-0.3125 -0.1660156,-0.478516 -0.1074219,-0.175781 -0.2929688,-0.273438 -0.1855468,-0.107421 -0.6347656,-0.234375 v -0.478515 h 4.1113281 v 0.478515 q -0.4296875,0.117188 -0.6152343,0.214844 -0.1757813,0.08789 -0.2929688,0.244141 -0.1171875,0.15625 -0.1757812,0.478515 -0.058594,0.322266 -0.058594,1.025391 z"
       id="text19"
       style="font-size:20px;font-family:'Cambria Math', 'Cambria Math_MSFontService', sans-serif"
       transform="translate(463.084 212)"
       aria-label="L" />
    <path
       d="M 9.5449219,5.6953125 H 7.3828125 L 10.27002,-7.3959961 q 0.105468,-0.5009766 0.18457,-1.1206055 0.09229,-0.6328125 0.09229,-1.0283203 0,-0.9228511 -0.32959,-1.3183591 -0.3295897,-0.408692 -1.001953,-0.408692 -0.6987304,0 -1.621582,0.8042 -0.9228516,0.7910152 -1.7138672,2.030273 -0.777832,1.2260742 -0.9755859,2.1621094 L 3.5463867,0 H 1.265625 l 2.0039063,-8.859375 q 0.065918,-0.3032227 0.1186523,-0.7250977 0.065918,-0.4350583 0.065918,-0.7646483 0,-0.461426 -0.1713868,-0.698731 -0.1582031,-0.250488 -0.5405273,-0.250488 -0.3164062,0 -0.7382812,0.237305 -0.4218751,0.237305 -0.9492188,0.830566 L 0.31640625,-10.96875 q 1.19970705,-1.120605 1.87207035,-1.476563 0.6855468,-0.36914 1.5161132,-0.36914 0.8305664,0 1.3183594,0.474609 0.487793,0.47461 0.487793,1.265625 0,0.817383 -0.3164063,1.7534182 l 0.1186524,0.052734 q 0.5668945,-0.7778316 1.1206054,-1.4238286 0.5668946,-0.645996 1.1601563,-1.107421 0.6064453,-0.47461 1.2524414,-0.738282 0.6591797,-0.276855 1.3974606,-0.276855 1.252442,0 1.924805,0.725098 0.672363,0.711914 0.672363,2.043457 0,0.8041988 -0.303222,2.1884761 z"
       id="text20"
       style="font-size:27px;font-family:'Cambria Math', 'Cambria Math_MSFontService', sans-serif"
       transform="translate(461.259 298)"
       aria-label="ðœ‚" />
    <path
       d="m 15.126953,-12.851563 q -0.429687,0.107422 -0.625,0.214844 -0.185547,0.107422 -0.302734,0.273438 -0.107422,0.15625 -0.166016,0.478515 -0.04883,0.322266 -0.04883,0.996094 v 8.4472657 q 0,0.6542969 0.03906,0.9570313 0.04883,0.3027344 0.146484,0.4785156 0.107422,0.17578127 0.302734,0.29296878 0.205078,0.1171875 0.654297,0.23437499 V 0 h -4.072265 v -0.47851563 q 0.55664,-0.13671874 0.771484,-0.31249999 0.214844,-0.17578126 0.292969,-0.51757808 0.07813,-0.3417969 0.07813,-1.1328126 v -3.7402343 q 0,-1.4746094 0.03906,-2.9785157 0.04883,-1.5136717 0.107422,-2.0703127 H 12.177734 L 8.3105469,-1.5527344 H 7.1875 L 3.59375,-11.386719 H 3.4277344 q 0.048828,0.595703 0.087891,2.1582034 0.048828,1.5625 0.048828,3.2128906 v 3.5742187 q 0,0.6542969 0.039063,0.9570313 0.048828,0.3027344 0.1464844,0.4785156 0.1074219,0.17578127 0.3027344,0.29296878 0.2050781,0.1171875 0.6542968,0.23437499 V 0 H 1.1425781 V -0.47851563 Q 1.7480469,-0.63476562 1.953125,-0.8203125 2.1582031,-1.015625 2.2167969,-1.3671875 2.2851563,-1.71875 2.2851563,-2.4414063 v -8.4472657 q 0,-0.673828 -0.048828,-0.976562 -0.048828,-0.3125 -0.1660156,-0.478516 -0.1074219,-0.175781 -0.2929688,-0.273438 -0.1855468,-0.107421 -0.6347656,-0.234375 v -0.478515 h 3.4863281 l 3.4277344,9.501953 3.7695314,-9.501953 h 3.300781 z"
       id="text21"
       style="font-size:20px;font-family:'Cambria Math', 'Cambria Math_MSFontService', sans-serif"
       transform="translate(475.259 304)"
       aria-label="M" />
    <path
       d="m 9.0439453,-0.01318359 q 0.3032227,0.96240234 0.5668945,1.58203129 0.2636719,0.6328125 0.5009762,1.0151367 0.250489,0.3955078 0.487793,0.5800781 0.237305,0.1977539 0.47461,0.2636719 0.237304,0.065918 0.553711,0.065918 0.500976,0 1.015136,-0.290039 0.514161,-0.2900391 1.146973,-1.0019531 l 0.685547,0.7382812 q -1.054688,1.1469727 -1.964356,1.621582 -0.909667,0.4746094 -1.87207,0.4746094 -1.0942381,0 -1.7929686,-0.487793 Q 8.1606445,4.0605469 7.6464844,2.9926758 7.1455078,1.9248047 6.6708984,0.19775391 4.284668,0.06591797 3.0322266,-1.3842773 1.7797852,-2.8344727 1.7797852,-5.4711914 q 0,-1.9775391 0.6591796,-4.4692383 0.6723633,-2.4916993 1.9248047,-4.3901363 1.265625,-1.911621 3.0058594,-2.887207 1.753418,-0.98877 3.8100591,-0.98877 2.544433,0 3.915527,1.476563 1.384277,1.476562 1.384277,4.271484 0,1.845703 -0.580078,4.1264647 -0.580078,2.2807618 -1.595215,4.0341797 -1.015136,1.7402344 -2.359863,2.8081055 -1.331543,1.0678711 -2.9003907,1.47656251 z M 13.987793,-13.012207 q 0,-1.964356 -0.725098,-2.992676 -0.725097,-1.041504 -2.228027,-1.041504 -1.4238282,0 -2.663086,1.015137 -1.2260742,1.015137 -2.1621093,2.900391 -0.9228516,1.885254 -1.4370118,4.1396481 -0.5141601,2.2543945 -0.5141601,3.9814453 0,4.07373044 2.9663086,4.07373044 1.8325195,0 3.3618166,-1.70068364 1.529297,-1.7138671 2.465332,-4.7329101 0.936035,-3.0190431 0.936035,-5.6425781 z"
       id="text22"
       style="font-size:27px;font-family:'Cambria Math', 'Cambria Math_MSFontService', sans-serif"
       transform="translate(493.866 298)"
       aria-label="ð‘„" />
    <path
       d="M607.176 256.175C610.788 259.269 613.655 263.883 615.778 270.018 617.9 276.153 618.962 283 618.962 290.558 618.962 298.002 617.9 304.838 615.778 311.065 613.655 317.292 610.788 321.944 607.176 325.02L606.556 324.044C609.676 320.872 612.08 316.279 613.767 310.268 615.455 304.256 616.299 297.69 616.299 290.571 616.299 283.285 615.45 276.689 613.754 270.783 612.058 264.876 609.658 260.337 606.556 257.164ZM531.093 256.175 531.713 257.164C528.602 260.337 526.2 264.876 524.508 270.783 522.816 276.689 521.97 283.285 521.97 290.571 521.97 297.69 522.814 304.256 524.502 310.268 526.189 316.279 528.593 320.872 531.713 324.044L531.093 325.02C527.481 321.944 524.614 317.292 522.491 311.065 520.369 304.838 519.307 298.002 519.307 290.558 519.307 283 520.369 276.153 522.491 270.018 524.614 263.883 527.481 259.269 531.093 256.175Z"
       fill-rule="evenodd"
       id="path22" />
    <path
       d="m 9.1625977,-3.440918 q 0,0.7646485 0.079102,1.1601563 0.092285,0.3823242 0.3032227,0.6328125 0.2241211,0.2373047 0.6328121,0.3823242 0.408692,0.1318359 1.028321,0.2109375 0.619629,0.065918 1.634765,0.0922852 V 0 H 3.0981445 V -0.96240234 Q 4.5615234,-1.0283203 5.1811523,-1.1337891 5.8139648,-1.2524414 6.1435547,-1.4765625 6.4731445,-1.7006836 6.6181641,-2.109375 6.7763672,-2.5180664 6.7763672,-3.440918 v -10.691895 q 0,-0.527343 -0.1845703,-0.764648 -0.1845703,-0.250488 -0.5405274,-0.250488 -0.421875,0 -1.199707,0.435058 -0.777832,0.435059 -1.9248047,1.199707 l -0.5800781,-1.015136 6.1699219,-3.678223 h 0.7250976 q -0.079102,1.265625 -0.079102,3.506836 z"
       id="text23"
       style="font-size:27px;font-family:'Cambria Math', 'Cambria Math_MSFontService', sans-serif"
       transform="translate(538.279 278)"
       aria-label="1" />
    <path
       d="M 9.5449219,5.6953125 H 7.3828125 L 10.27002,-7.3959961 q 0.105468,-0.5009766 0.18457,-1.1206055 0.09229,-0.6328125 0.09229,-1.0283203 0,-0.9228511 -0.32959,-1.3183591 -0.3295897,-0.408692 -1.001953,-0.408692 -0.6987304,0 -1.621582,0.8042 -0.9228516,0.7910152 -1.7138672,2.030273 -0.777832,1.2260742 -0.9755859,2.1621094 L 3.5463867,0 H 1.265625 l 2.0039063,-8.859375 q 0.065918,-0.3032227 0.1186523,-0.7250977 0.065918,-0.4350583 0.065918,-0.7646483 0,-0.461426 -0.1713868,-0.698731 -0.1582031,-0.250488 -0.5405273,-0.250488 -0.3164062,0 -0.7382812,0.237305 -0.4218751,0.237305 -0.9492188,0.830566 L 0.31640625,-10.96875 q 1.19970705,-1.120605 1.87207035,-1.476563 0.6855468,-0.36914 1.5161132,-0.36914 0.8305664,0 1.3183594,0.474609 0.487793,0.47461 0.487793,1.265625 0,0.817383 -0.3164063,1.7534182 l 0.1186524,0.052734 q 0.5668945,-0.7778316 1.1206054,-1.4238286 0.5668946,-0.645996 1.1601563,-1.107421 0.6064453,-0.47461 1.2524414,-0.738282 0.6591797,-0.276855 1.3974606,-0.276855 1.252442,0 1.924805,0.725098 0.672363,0.711914 0.672363,2.043457 0,0.8041988 -0.303222,2.1884761 z"
       id="text24"
       style="font-size:27px;font-family:'Cambria Math', 'Cambria Math_MSFontService', sans-serif"
       transform="translate(532.392 316)"
       aria-label="ðœ‚" />
    <path
       d="m 4.1503906,-0.8984375 h 2.5585938 q 0.4199218,0 0.703125,-0.0488281 Q 7.6953125,-0.99609375 7.890625,-1.09375 8.0957031,-1.2011719 8.2519531,-1.3769531 8.4179688,-1.5625 8.5644531,-1.8554687 8.7109375,-2.1484375 8.8378906,-2.5878906 8.9746094,-3.0371094 9.1699219,-3.9257813 H 10.15625 L 9.9609375,0 H 1.1816406 V -0.47851563 Q 1.7871094,-0.63476562 1.9921875,-0.8203125 2.1972656,-1.015625 2.2558594,-1.3671875 2.3242188,-1.71875 2.3242188,-2.4414063 v -8.4472657 q 0,-0.673828 -0.048828,-0.976562 -0.048828,-0.3125 -0.1660156,-0.478516 -0.1074219,-0.175781 -0.2929688,-0.273438 -0.1855468,-0.107421 -0.6347656,-0.234375 v -0.478515 h 4.1113281 v 0.478515 q -0.4296875,0.117188 -0.6152343,0.214844 -0.1757813,0.08789 -0.2929688,0.244141 -0.1171875,0.15625 -0.1757812,0.478515 -0.058594,0.322266 -0.058594,1.025391 z"
       id="text25"
       style="font-size:20px;font-family:'Cambria Math', 'Cambria Math_MSFontService', sans-serif"
       transform="translate(546.392 322)"
       aria-label="L" />
    <path
       d="M532.459 290.31 559.459 290.31 559.459 292.31 532.459 292.31Z"
       fill-rule="evenodd"
       id="path25" />
    <path
       d="M 1.9643555,-6.8422852 V -8.5957031 H 18.206543 v 1.7534179 z"
       id="text26"
       style="font-size:27px;font-family:'Cambria Math', 'Cambria Math_MSFontService', sans-serif"
       transform="translate(564.926 298)"
       aria-label="âˆ’" />
    <path
       d="m 9.1625977,-3.440918 q 0,0.7646485 0.079102,1.1601563 0.092285,0.3823242 0.3032227,0.6328125 0.2241211,0.2373047 0.6328121,0.3823242 0.408692,0.1318359 1.028321,0.2109375 0.619629,0.065918 1.634765,0.0922852 V 0 H 3.0981445 V -0.96240234 Q 4.5615234,-1.0283203 5.1811523,-1.1337891 5.8139648,-1.2524414 6.1435547,-1.4765625 6.4731445,-1.7006836 6.6181641,-2.109375 6.7763672,-2.5180664 6.7763672,-3.440918 v -10.691895 q 0,-0.527343 -0.1845703,-0.764648 -0.1845703,-0.250488 -0.5405274,-0.250488 -0.421875,0 -1.199707,0.435058 -0.777832,0.435059 -1.9248047,1.199707 l -0.5800781,-1.015136 6.1699219,-3.678223 h 0.7250976 q -0.079102,1.265625 -0.079102,3.506836 z"
       id="text27"
       style="font-size:27px;font-family:'Cambria Math', 'Cambria Math_MSFontService', sans-serif"
       transform="translate(590.852 298)"
       aria-label="1" />
    <path
       d="M 9.5449219,5.6953125 H 7.3828125 L 10.27002,-7.3959961 q 0.105468,-0.5009766 0.18457,-1.1206055 0.09229,-0.6328125 0.09229,-1.0283203 0,-0.9228511 -0.32959,-1.3183591 -0.3295897,-0.408692 -1.001953,-0.408692 -0.6987304,0 -1.621582,0.8042 -0.9228516,0.7910152 -1.7138672,2.030273 -0.777832,1.2260742 -0.9755859,2.1621094 L 3.5463867,0 H 1.265625 l 2.0039063,-8.859375 q 0.065918,-0.3032227 0.1186523,-0.7250977 0.065918,-0.4350583 0.065918,-0.7646483 0,-0.461426 -0.1713868,-0.698731 -0.1582031,-0.250488 -0.5405273,-0.250488 -0.3164062,0 -0.7382812,0.237305 -0.4218751,0.237305 -0.9492188,0.830566 L 0.31640625,-10.96875 q 1.19970705,-1.120605 1.87207035,-1.476563 0.6855468,-0.36914 1.5161132,-0.36914 0.8305664,0 1.3183594,0.474609 0.487793,0.47461 0.487793,1.265625 0,0.817383 -0.3164063,1.7534182 l 0.1186524,0.052734 q 0.5668945,-0.7778316 1.1206054,-1.4238286 0.5668946,-0.645996 1.1601563,-1.107421 0.6064453,-0.47461 1.2524414,-0.738282 0.6591797,-0.276855 1.3974606,-0.276855 1.252442,0 1.924805,0.725098 0.672363,0.711914 0.672363,2.043457 0,0.8041988 -0.303222,2.1884761 z"
       id="text28"
       style="font-size:27px;font-family:'Cambria Math', 'Cambria Math_MSFontService', sans-serif"
       transform="translate(468.311 97)"
       aria-label="ðœ‚" />
    <path
       d="m 13.388672,-13.330078 h 3.076172 l -0.107422,0.478515 q -0.371094,0.07813 -0.537109,0.175782 -0.15625,0.09766 -0.292969,0.292968 -0.126953,0.195313 -0.263672,0.615235 -0.126953,0.410156 -0.332031,1.347656 l -1.669922,7.5781251 q -0.126953,0.5761719 -0.166016,0.9179688 -0.03906,0.3320312 -0.03906,0.6054687 0,0.43945315 0.214843,0.62500003 0.22461,0.17578125 0.742188,0.21484374 L 13.90625,0 H 10 l 0.107422,-0.47851563 q 0.371094,-0.0585937 0.556641,-0.18554687 0.185546,-0.13671875 0.3125,-0.3710937 0.126953,-0.234375 0.234375,-0.5664063 0.107421,-0.3417969 0.322265,-1.3085938 l 1.298828,-5.8886718 q 0.273438,-1.2207029 0.625,-2.4316409 h -0.136718 q -0.302735,0.576172 -1.367188,2.3437502 L 7.5097656,-1.5527344 H 6.4453125 L 5.6347656,-7.8320312 Q 5.4589844,-9.1601563 5.2441406,-11.40625 H 5.0488281 q -0.3320312,2.1875 -0.7421875,4.0527344 l -0.9960937,4.5117187 q -0.2050781,0.9277344 -0.2050781,1.5234375 0,0.43945315 0.2148437,0.62500003 0.2246094,0.17578125 0.7421875,0.21484374 L 3.9550781,0 H 0.53710937 L 0.64453125,-0.47851563 Q 1.015625,-0.53710937 1.2011719,-0.6640625 q 0.1855468,-0.13671875 0.3125,-0.3710937 0.1269531,-0.234375 0.234375,-0.5664063 0.1074218,-0.3417969 0.3222656,-1.3085938 l 1.6601563,-7.5195317 q 0.097656,-0.419921 0.15625,-0.800781 0.058594,-0.380859 0.058594,-0.771484 0,-0.458985 -0.234375,-0.634766 -0.2246094,-0.185547 -0.7226562,-0.214844 l 0.1074218,-0.478515 h 3.4863281 l 1.1132813,9.4726561 z"
       id="text29"
       style="font-size:20px;font-family:'Cambria Math', 'Cambria Math_MSFontService', sans-serif"
       transform="translate(482.311 102)"
       aria-label="ð‘€" />
    <path
       d="M 9.5449219,5.6953125 H 7.3828125 L 10.27002,-7.3959961 q 0.105468,-0.5009766 0.18457,-1.1206055 0.09229,-0.6328125 0.09229,-1.0283203 0,-0.9228511 -0.32959,-1.3183591 -0.3295897,-0.408692 -1.001953,-0.408692 -0.6987304,0 -1.621582,0.8042 -0.9228516,0.7910152 -1.7138672,2.030273 -0.777832,1.2260742 -0.9755859,2.1621094 L 3.5463867,0 H 1.265625 l 2.0039063,-8.859375 q 0.065918,-0.3032227 0.1186523,-0.7250977 0.065918,-0.4350583 0.065918,-0.7646483 0,-0.461426 -0.1713868,-0.698731 -0.1582031,-0.250488 -0.5405273,-0.250488 -0.3164062,0 -0.7382812,0.237305 -0.4218751,0.237305 -0.9492188,0.830566 L 0.31640625,-10.96875 q 1.19970705,-1.120605 1.87207035,-1.476563 0.6855468,-0.36914 1.5161132,-0.36914 0.8305664,0 1.3183594,0.474609 0.487793,0.47461 0.487793,1.265625 0,0.817383 -0.3164063,1.7534182 l 0.1186524,0.052734 q 0.5668945,-0.7778316 1.1206054,-1.4238286 0.5668946,-0.645996 1.1601563,-1.107421 0.6064453,-0.47461 1.2524414,-0.738282 0.6591797,-0.276855 1.3974606,-0.276855 1.252442,0 1.924805,0.725098 0.672363,0.711914 0.672363,2.043457 0,0.8041988 -0.303222,2.1884761 z"
       id="text30"
       style="font-size:27px;font-family:'Cambria Math', 'Cambria Math_MSFontService', sans-serif"
       transform="translate(471.538 135)"
       aria-label="ðœ‚" />
    <path
       d="m 0.6640625,-0.47851563 q 0.3710937,-0.0585937 0.5566406,-0.18554687 0.1855469,-0.13671875 0.3125,-0.3710937 0.1269531,-0.234375 0.234375,-0.5664063 Q 1.875,-1.9433594 2.0898438,-2.9101563 L 3.75,-10.429688 q 0.2148438,-0.976562 0.2148438,-1.572265 0,-0.458985 -0.234375,-0.634766 -0.2246094,-0.185547 -0.7226563,-0.214844 l 0.1074219,-0.478515 h 3.90625 l -0.1074219,0.478515 q -0.3710938,0.07813 -0.5371094,0.175782 -0.15625,0.09766 -0.2832031,0.292968 -0.1269531,0.195313 -0.2636719,0.615235 -0.1367187,0.410156 -0.3417969,1.347656 l -2.0898437,9.5214845 h 2.4023437 q 0.6542969,0 1.0253907,-0.1269531 Q 7.2070312,-1.1523437 7.5390625,-1.484375 7.8808594,-1.8261719 8.203125,-2.4023438 8.5253906,-2.9785156 8.8574219,-3.8378906 H 9.8046875 L 8.8183594,0 H 0.55664062 Z"
       id="text31"
       style="font-size:20px;font-family:'Cambria Math', 'Cambria Math_MSFontService', sans-serif"
       transform="translate(485.538 140)"
       aria-label="ð¿" />
    <path
       d="M468.051 108.987 479.051 108.987 490.051 108.987 501.051 108.987 501.051 110.987 490.051 110.987 479.051 110.987 468.051 110.987Z"
       fill-rule="evenodd"
       id="path31" />
    <path
       d="m 9.0439453,-0.01318359 q 0.3032227,0.96240234 0.5668945,1.58203129 0.2636719,0.6328125 0.5009762,1.0151367 0.250489,0.3955078 0.487793,0.5800781 0.237305,0.1977539 0.47461,0.2636719 0.237304,0.065918 0.553711,0.065918 0.500976,0 1.015136,-0.290039 0.514161,-0.2900391 1.146973,-1.0019531 l 0.685547,0.7382812 q -1.054688,1.1469727 -1.964356,1.621582 -0.909667,0.4746094 -1.87207,0.4746094 -1.0942381,0 -1.7929686,-0.487793 Q 8.1606445,4.0605469 7.6464844,2.9926758 7.1455078,1.9248047 6.6708984,0.19775391 4.284668,0.06591797 3.0322266,-1.3842773 1.7797852,-2.8344727 1.7797852,-5.4711914 q 0,-1.9775391 0.6591796,-4.4692383 0.6723633,-2.4916993 1.9248047,-4.3901363 1.265625,-1.911621 3.0058594,-2.887207 1.753418,-0.98877 3.8100591,-0.98877 2.544433,0 3.915527,1.476563 1.384277,1.476562 1.384277,4.271484 0,1.845703 -0.580078,4.1264647 -0.580078,2.2807618 -1.595215,4.0341797 -1.015136,1.7402344 -2.359863,2.8081055 -1.331543,1.0678711 -2.9003907,1.47656251 z M 13.987793,-13.012207 q 0,-1.964356 -0.725098,-2.992676 -0.725097,-1.041504 -2.228027,-1.041504 -1.4238282,0 -2.663086,1.015137 -1.2260742,1.015137 -2.1621093,2.900391 -0.9228516,1.885254 -1.4370118,4.1396481 -0.5141601,2.2543945 -0.5141601,3.9814453 0,4.07373044 2.9663086,4.07373044 1.8325195,0 3.3618166,-1.70068364 1.529297,-1.7138671 2.465332,-4.7329101 0.936035,-3.0190431 0.936035,-5.6425781 z"
       id="text32"
       style="font-size:27px;font-family:'Cambria Math', 'Cambria Math_MSFontService', sans-serif"
       transform="translate(505.504 117)"
       aria-label="ð‘„" />
    <path
       d="M 9.5449219,5.6953125 H 7.3828125 L 10.27002,-7.3959961 q 0.105468,-0.5009766 0.18457,-1.1206055 0.09229,-0.6328125 0.09229,-1.0283203 0,-0.9228511 -0.32959,-1.3183591 -0.3295897,-0.408692 -1.001953,-0.408692 -0.6987304,0 -1.621582,0.8042 -0.9228516,0.7910152 -1.7138672,2.030273 -0.777832,1.2260742 -0.9755859,2.1621094 L 3.5463867,0 H 1.265625 l 2.0039063,-8.859375 q 0.065918,-0.3032227 0.1186523,-0.7250977 0.065918,-0.4350583 0.065918,-0.7646483 0,-0.461426 -0.1713868,-0.698731 -0.1582031,-0.250488 -0.5405273,-0.250488 -0.3164062,0 -0.7382812,0.237305 -0.4218751,0.237305 -0.9492188,0.830566 L 0.31640625,-10.96875 q 1.19970705,-1.120605 1.87207035,-1.476563 0.6855468,-0.36914 1.5161132,-0.36914 0.8305664,0 1.3183594,0.474609 0.487793,0.47461 0.487793,1.265625 0,0.817383 -0.3164063,1.7534182 l 0.1186524,0.052734 q 0.5668945,-0.7778316 1.1206054,-1.4238286 0.5668946,-0.645996 1.1601563,-1.107421 0.6064453,-0.47461 1.2524414,-0.738282 0.6591797,-0.276855 1.3974606,-0.276855 1.252442,0 1.924805,0.725098 0.672363,0.711914 0.672363,2.043457 0,0.8041988 -0.303222,2.1884761 z"
       id="text33"
       style="font-size:27px;font-family:'Cambria Math', 'Cambria Math_MSFontService', sans-serif"
       transform="translate(268.906 129)"
       aria-label="ðœ‚" />
    <path
       d="m 15.126953,-12.851563 q -0.429687,0.107422 -0.625,0.214844 -0.185547,0.107422 -0.302734,0.273438 -0.107422,0.15625 -0.166016,0.478515 -0.04883,0.322266 -0.04883,0.996094 v 8.4472657 q 0,0.6542969 0.03906,0.9570313 0.04883,0.3027344 0.146484,0.4785156 0.107422,0.17578127 0.302734,0.29296878 0.205078,0.1171875 0.654297,0.23437499 V 0 h -4.072265 v -0.47851563 q 0.55664,-0.13671874 0.771484,-0.31249999 0.214844,-0.17578126 0.292969,-0.51757808 0.07813,-0.3417969 0.07813,-1.1328126 v -3.7402343 q 0,-1.4746094 0.03906,-2.9785157 0.04883,-1.5136717 0.107422,-2.0703127 H 12.177734 L 8.3105469,-1.5527344 H 7.1875 L 3.59375,-11.386719 H 3.4277344 q 0.048828,0.595703 0.087891,2.1582034 0.048828,1.5625 0.048828,3.2128906 v 3.5742187 q 0,0.6542969 0.039063,0.9570313 0.048828,0.3027344 0.1464844,0.4785156 0.1074219,0.17578127 0.3027344,0.29296878 0.2050781,0.1171875 0.6542968,0.23437499 V 0 H 1.1425781 V -0.47851563 Q 1.7480469,-0.63476562 1.953125,-0.8203125 2.1582031,-1.015625 2.2167969,-1.3671875 2.2851563,-1.71875 2.2851563,-2.4414063 v -8.4472657 q 0,-0.673828 -0.048828,-0.976562 -0.048828,-0.3125 -0.1660156,-0.478516 -0.1074219,-0.175781 -0.2929688,-0.273438 -0.1855468,-0.107421 -0.6347656,-0.234375 v -0.478515 h 3.4863281 l 3.4277344,9.501953 3.7695314,-9.501953 h 3.300781 z"
       id="text34"
       style="font-size:20px;font-family:'Cambria Math', 'Cambria Math_MSFontService', sans-serif"
       transform="translate(282.906 134)"
       aria-label="M" />
    <path
       d="m 1.9643555,-2.3466797 v -1.977539 L 16.083984,-9.6108398 1.9643555,-14.897461 V -16.875 l 16.2949215,6.341309 v 1.8457027 z m 0,3.796875 V -0.30322266 H 18.206543 V 1.4501953 Z"
       id="text35"
       style="font-size:27px;font-family:'Cambria Math', 'Cambria Math_MSFontService', sans-serif"
       transform="translate(308.919 129)"
       aria-label="â‰¥" />
    <path
       d="M 9.5449219,5.6953125 H 7.3828125 L 10.27002,-7.3959961 q 0.105468,-0.5009766 0.18457,-1.1206055 0.09229,-0.6328125 0.09229,-1.0283203 0,-0.9228511 -0.32959,-1.3183591 -0.3295897,-0.408692 -1.001953,-0.408692 -0.6987304,0 -1.621582,0.8042 -0.9228516,0.7910152 -1.7138672,2.030273 -0.777832,1.2260742 -0.9755859,2.1621094 L 3.5463867,0 H 1.265625 l 2.0039063,-8.859375 q 0.065918,-0.3032227 0.1186523,-0.7250977 0.065918,-0.4350583 0.065918,-0.7646483 0,-0.461426 -0.1713868,-0.698731 -0.1582031,-0.250488 -0.5405273,-0.250488 -0.3164062,0 -0.7382812,0.237305 -0.4218751,0.237305 -0.9492188,0.830566 L 0.31640625,-10.96875 q 1.19970705,-1.120605 1.87207035,-1.476563 0.6855468,-0.36914 1.5161132,-0.36914 0.8305664,0 1.3183594,0.474609 0.487793,0.47461 0.487793,1.265625 0,0.817383 -0.3164063,1.7534182 l 0.1186524,0.052734 q 0.5668945,-0.7778316 1.1206054,-1.4238286 0.5668946,-0.645996 1.1601563,-1.107421 0.6064453,-0.47461 1.2524414,-0.738282 0.6591797,-0.276855 1.3974606,-0.276855 1.252442,0 1.924805,0.725098 0.672363,0.711914 0.672363,2.043457 0,0.8041988 -0.303222,2.1884761 z"
       id="text36"
       style="font-size:27px;font-family:'Cambria Math', 'Cambria Math_MSFontService', sans-serif"
       transform="translate(336.326 129)"
       aria-label="ðœ‚" />
    <path
       d="m 4.1503906,-0.8984375 h 2.5585938 q 0.4199218,0 0.703125,-0.0488281 Q 7.6953125,-0.99609375 7.890625,-1.09375 8.0957031,-1.2011719 8.2519531,-1.3769531 8.4179688,-1.5625 8.5644531,-1.8554687 8.7109375,-2.1484375 8.8378906,-2.5878906 8.9746094,-3.0371094 9.1699219,-3.9257813 H 10.15625 L 9.9609375,0 H 1.1816406 V -0.47851563 Q 1.7871094,-0.63476562 1.9921875,-0.8203125 2.1972656,-1.015625 2.2558594,-1.3671875 2.3242188,-1.71875 2.3242188,-2.4414063 v -8.4472657 q 0,-0.673828 -0.048828,-0.976562 -0.048828,-0.3125 -0.1660156,-0.478516 -0.1074219,-0.175781 -0.2929688,-0.273438 -0.1855468,-0.107421 -0.6347656,-0.234375 v -0.478515 h 4.1113281 v 0.478515 q -0.4296875,0.117188 -0.6152343,0.214844 -0.1757813,0.08789 -0.2929688,0.244141 -0.1171875,0.15625 -0.1757812,0.478515 -0.058594,0.322266 -0.058594,1.025391 z"
       id="text37"
       style="font-size:20px;font-family:'Cambria Math', 'Cambria Math_MSFontService', sans-serif"
       transform="translate(350.326 134)"
       aria-label="L" />
    <path
       d="M 9.5449219,5.6953125 H 7.3828125 L 10.27002,-7.3959961 q 0.105468,-0.5009766 0.18457,-1.1206055 0.09229,-0.6328125 0.09229,-1.0283203 0,-0.9228511 -0.32959,-1.3183591 -0.3295897,-0.408692 -1.001953,-0.408692 -0.6987304,0 -1.621582,0.8042 -0.9228516,0.7910152 -1.7138672,2.030273 -0.777832,1.2260742 -0.9755859,2.1621094 L 3.5463867,0 H 1.265625 l 2.0039063,-8.859375 q 0.065918,-0.3032227 0.1186523,-0.7250977 0.065918,-0.4350583 0.065918,-0.7646483 0,-0.461426 -0.1713868,-0.698731 -0.1582031,-0.250488 -0.5405273,-0.250488 -0.3164062,0 -0.7382812,0.237305 -0.4218751,0.237305 -0.9492188,0.830566 L 0.31640625,-10.96875 q 1.19970705,-1.120605 1.87207035,-1.476563 0.6855468,-0.36914 1.5161132,-0.36914 0.8305664,0 1.3183594,0.474609 0.487793,0.47461 0.487793,1.265625 0,0.817383 -0.3164063,1.7534182 l 0.1186524,0.052734 q 0.5668945,-0.7778316 1.1206054,-1.4238286 0.5668946,-0.645996 1.1601563,-1.107421 0.6064453,-0.47461 1.2524414,-0.738282 0.6591797,-0.276855 1.3974606,-0.276855 1.252442,0 1.924805,0.725098 0.672363,0.711914 0.672363,2.043457 0,0.8041988 -0.303222,2.1884761 z"
       id="text38"
       style="font-size:27px;font-family:'Cambria Math', 'Cambria Math_MSFontService', sans-serif"
       transform="translate(290.262 257)"
       aria-label="ðœ‚" />
    <path
       d="m 15.126953,-12.851563 q -0.429687,0.107422 -0.625,0.214844 -0.185547,0.107422 -0.302734,0.273438 -0.107422,0.15625 -0.166016,0.478515 -0.04883,0.322266 -0.04883,0.996094 v 8.4472657 q 0,0.6542969 0.03906,0.9570313 0.04883,0.3027344 0.146484,0.4785156 0.107422,0.17578127 0.302734,0.29296878 0.205078,0.1171875 0.654297,0.23437499 V 0 h -4.072265 v -0.47851563 q 0.55664,-0.13671874 0.771484,-0.31249999 0.214844,-0.17578126 0.292969,-0.51757808 0.07813,-0.3417969 0.07813,-1.1328126 v -3.7402343 q 0,-1.4746094 0.03906,-2.9785157 0.04883,-1.5136717 0.107422,-2.0703127 H 12.177734 L 8.3105469,-1.5527344 H 7.1875 L 3.59375,-11.386719 H 3.4277344 q 0.048828,0.595703 0.087891,2.1582034 0.048828,1.5625 0.048828,3.2128906 v 3.5742187 q 0,0.6542969 0.039063,0.9570313 0.048828,0.3027344 0.1464844,0.4785156 0.1074219,0.17578127 0.3027344,0.29296878 0.2050781,0.1171875 0.6542968,0.23437499 V 0 H 1.1425781 V -0.47851563 Q 1.7480469,-0.63476562 1.953125,-0.8203125 2.1582031,-1.015625 2.2167969,-1.3671875 2.2851563,-1.71875 2.2851563,-2.4414063 v -8.4472657 q 0,-0.673828 -0.048828,-0.976562 -0.048828,-0.3125 -0.1660156,-0.478516 -0.1074219,-0.175781 -0.2929688,-0.273438 -0.1855468,-0.107421 -0.6347656,-0.234375 v -0.478515 h 3.4863281 l 3.4277344,9.501953 3.7695314,-9.501953 h 3.300781 z"
       id="text39"
       style="font-size:20px;font-family:'Cambria Math', 'Cambria Math_MSFontService', sans-serif"
       transform="translate(304.262 262)"
       aria-label="M" />
    <path
       d="m 9.0439453,-0.01318359 q 0.3032227,0.96240234 0.5668945,1.58203129 0.2636719,0.6328125 0.5009762,1.0151367 0.250489,0.3955078 0.487793,0.5800781 0.237305,0.1977539 0.47461,0.2636719 0.237304,0.065918 0.553711,0.065918 0.500976,0 1.015136,-0.290039 0.514161,-0.2900391 1.146973,-1.0019531 l 0.685547,0.7382812 q -1.054688,1.1469727 -1.964356,1.621582 -0.909667,0.4746094 -1.87207,0.4746094 -1.0942381,0 -1.7929686,-0.487793 Q 8.1606445,4.0605469 7.6464844,2.9926758 7.1455078,1.9248047 6.6708984,0.19775391 4.284668,0.06591797 3.0322266,-1.3842773 1.7797852,-2.8344727 1.7797852,-5.4711914 q 0,-1.9775391 0.6591796,-4.4692383 0.6723633,-2.4916993 1.9248047,-4.3901363 1.265625,-1.911621 3.0058594,-2.887207 1.753418,-0.98877 3.8100591,-0.98877 2.544433,0 3.915527,1.476563 1.384277,1.476562 1.384277,4.271484 0,1.845703 -0.580078,4.1264647 -0.580078,2.2807618 -1.595215,4.0341797 -1.015136,1.7402344 -2.359863,2.8081055 -1.331543,1.0678711 -2.9003907,1.47656251 z M 13.987793,-13.012207 q 0,-1.964356 -0.725098,-2.992676 -0.725097,-1.041504 -2.228027,-1.041504 -1.4238282,0 -2.663086,1.015137 -1.2260742,1.015137 -2.1621093,2.900391 -0.9228516,1.885254 -1.4370118,4.1396481 -0.5141601,2.2543945 -0.5141601,3.9814453 0,4.07373044 2.9663086,4.07373044 1.8325195,0 3.3618166,-1.70068364 1.529297,-1.7138671 2.465332,-4.7329101 0.936035,-3.0190431 0.936035,-5.6425781 z"
       id="text40"
       style="font-size:27px;font-family:'Cambria Math', 'Cambria Math_MSFontService', sans-serif"
       transform="translate(322.869 257)"
       aria-label="ð‘„" />
    <path
       d="M141.626 277.251C144.193 277.928 146.164 279.389 147.539 281.635 148.915 283.88 149.602 286.59 149.602 289.762 149.602 292.944 148.917 295.653 147.546 297.89 146.175 300.127 144.201 301.584 141.626 302.26L141.31 301.245C143.34 300.569 144.85 299.233 145.838 297.238 146.827 295.242 147.322 292.707 147.322 289.631 147.322 286.66 146.829 284.192 145.845 282.228 144.861 280.264 143.336 278.943 141.27 278.266ZM60.7584 277.251 61.1144 278.266C59.0577 278.943 57.535 280.264 56.5463 282.228 55.5575 284.192 55.0631 286.66 55.0631 289.631 55.0631 292.707 55.5575 295.242 56.5463 297.238 57.535 299.233 59.0445 300.569 61.0748 301.245L60.7584 302.26C58.1832 301.584 56.2101 300.127 54.839 297.89 53.4679 295.653 52.7823 292.944 52.7823 289.762 52.7823 286.59 53.4701 283.88 54.8456 281.635 56.2211 279.389 58.192 277.928 60.7584 277.251Z"
       fill-rule="evenodd"
       id="path40" />
    <path
       d="m 9.1625977,-3.440918 q 0,0.7646485 0.079102,1.1601563 0.092285,0.3823242 0.3032227,0.6328125 0.2241211,0.2373047 0.6328121,0.3823242 0.408692,0.1318359 1.028321,0.2109375 0.619629,0.065918 1.634765,0.0922852 V 0 H 3.0981445 V -0.96240234 Q 4.5615234,-1.0283203 5.1811523,-1.1337891 5.8139648,-1.2524414 6.1435547,-1.4765625 6.4731445,-1.7006836 6.6181641,-2.109375 6.7763672,-2.5180664 6.7763672,-3.440918 v -10.691895 q 0,-0.527343 -0.1845703,-0.764648 -0.1845703,-0.250488 -0.5405274,-0.250488 -0.421875,0 -1.199707,0.435058 -0.777832,0.435059 -1.9248047,1.199707 l -0.5800781,-1.015136 6.1699219,-3.678223 h 0.7250976 q -0.079102,1.265625 -0.079102,3.506836 z"
       id="text41"
       style="font-size:27px;font-family:'Cambria Math', 'Cambria Math_MSFontService', sans-serif"
       transform="translate(61.476 297)"
       aria-label="1" />
    <path
       d="M 1.9643555,-6.8422852 V -8.5957031 H 18.206543 v 1.7534179 z"
       id="text42"
       style="font-size:27px;font-family:'Cambria Math', 'Cambria Math_MSFontService', sans-serif"
       transform="translate(82.236 297)"
       aria-label="âˆ’" />
    <path
       d="M 9.5449219,5.6953125 H 7.3828125 L 10.27002,-7.3959961 q 0.105468,-0.5009766 0.18457,-1.1206055 0.09229,-0.6328125 0.09229,-1.0283203 0,-0.9228511 -0.32959,-1.3183591 -0.3295897,-0.408692 -1.001953,-0.408692 -0.6987304,0 -1.621582,0.8042 -0.9228516,0.7910152 -1.7138672,2.030273 -0.777832,1.2260742 -0.9755859,2.1621094 L 3.5463867,0 H 1.265625 l 2.0039063,-8.859375 q 0.065918,-0.3032227 0.1186523,-0.7250977 0.065918,-0.4350583 0.065918,-0.7646483 0,-0.461426 -0.1713868,-0.698731 -0.1582031,-0.250488 -0.5405273,-0.250488 -0.3164062,0 -0.7382812,0.237305 -0.4218751,0.237305 -0.9492188,0.830566 L 0.31640625,-10.96875 q 1.19970705,-1.120605 1.87207035,-1.476563 0.6855468,-0.36914 1.5161132,-0.36914 0.8305664,0 1.3183594,0.474609 0.487793,0.47461 0.487793,1.265625 0,0.817383 -0.3164063,1.7534182 l 0.1186524,0.052734 q 0.5668945,-0.7778316 1.1206054,-1.4238286 0.5668946,-0.645996 1.1601563,-1.107421 0.6064453,-0.47461 1.2524414,-0.738282 0.6591797,-0.276855 1.3974606,-0.276855 1.252442,0 1.924805,0.725098 0.672363,0.711914 0.672363,2.043457 0,0.8041988 -0.303222,2.1884761 z"
       id="text43"
       style="font-size:27px;font-family:'Cambria Math', 'Cambria Math_MSFontService', sans-serif"
       transform="translate(108.163 297)"
       aria-label="ðœ‚" />
    <path
       d="m 15.126953,-12.851563 q -0.429687,0.107422 -0.625,0.214844 -0.185547,0.107422 -0.302734,0.273438 -0.107422,0.15625 -0.166016,0.478515 -0.04883,0.322266 -0.04883,0.996094 v 8.4472657 q 0,0.6542969 0.03906,0.9570313 0.04883,0.3027344 0.146484,0.4785156 0.107422,0.17578127 0.302734,0.29296878 0.205078,0.1171875 0.654297,0.23437499 V 0 h -4.072265 v -0.47851563 q 0.55664,-0.13671874 0.771484,-0.31249999 0.214844,-0.17578126 0.292969,-0.51757808 0.07813,-0.3417969 0.07813,-1.1328126 v -3.7402343 q 0,-1.4746094 0.03906,-2.9785157 0.04883,-1.5136717 0.107422,-2.0703127 H 12.177734 L 8.3105469,-1.5527344 H 7.1875 L 3.59375,-11.386719 H 3.4277344 q 0.048828,0.595703 0.087891,2.1582034 0.048828,1.5625 0.048828,3.2128906 v 3.5742187 q 0,0.6542969 0.039063,0.9570313 0.048828,0.3027344 0.1464844,0.4785156 0.1074219,0.17578127 0.3027344,0.29296878 0.2050781,0.1171875 0.6542968,0.23437499 V 0 H 1.1425781 V -0.47851563 Q 1.7480469,-0.63476562 1.953125,-0.8203125 2.1582031,-1.015625 2.2167969,-1.3671875 2.2851563,-1.71875 2.2851563,-2.4414063 v -8.4472657 q 0,-0.673828 -0.048828,-0.976562 -0.048828,-0.3125 -0.1660156,-0.478516 -0.1074219,-0.175781 -0.2929688,-0.273438 -0.1855468,-0.107421 -0.6347656,-0.234375 v -0.478515 h 3.4863281 l 3.4277344,9.501953 3.7695314,-9.501953 h 3.300781 z"
       id="text44"
       style="font-size:20px;font-family:'Cambria Math', 'Cambria Math_MSFontService', sans-serif"
       transform="translate(122.163 303)"
       aria-label="M" />
    <path
       d="m 9.0439453,-0.01318359 q 0.3032227,0.96240234 0.5668945,1.58203129 0.2636719,0.6328125 0.5009762,1.0151367 0.250489,0.3955078 0.487793,0.5800781 0.237305,0.1977539 0.47461,0.2636719 0.237304,0.065918 0.553711,0.065918 0.500976,0 1.015136,-0.290039 0.514161,-0.2900391 1.146973,-1.0019531 l 0.685547,0.7382812 q -1.054688,1.1469727 -1.964356,1.621582 -0.909667,0.4746094 -1.87207,0.4746094 -1.0942381,0 -1.7929686,-0.487793 Q 8.1606445,4.0605469 7.6464844,2.9926758 7.1455078,1.9248047 6.6708984,0.19775391 4.284668,0.06591797 3.0322266,-1.3842773 1.7797852,-2.8344727 1.7797852,-5.4711914 q 0,-1.9775391 0.6591796,-4.4692383 0.6723633,-2.4916993 1.9248047,-4.3901363 1.265625,-1.911621 3.0058594,-2.887207 1.753418,-0.98877 3.8100591,-0.98877 2.544433,0 3.915527,1.476563 1.384277,1.476562 1.384277,4.271484 0,1.845703 -0.580078,4.1264647 -0.580078,2.2807618 -1.595215,4.0341797 -1.015136,1.7402344 -2.359863,2.8081055 -1.331543,1.0678711 -2.9003907,1.47656251 z M 13.987793,-13.012207 q 0,-1.964356 -0.725098,-2.992676 -0.725097,-1.041504 -2.228027,-1.041504 -1.4238282,0 -2.663086,1.015137 -1.2260742,1.015137 -2.1621093,2.900391 -0.9228516,1.885254 -1.4370118,4.1396481 -0.5141601,2.2543945 -0.5141601,3.9814453 0,4.07373044 2.9663086,4.07373044 1.8325195,0 3.3618166,-1.70068364 1.529297,-1.7138671 2.465332,-4.7329101 0.936035,-3.0190431 0.936035,-5.6425781 z"
       id="text45"
       style="font-size:27px;font-family:'Cambria Math', 'Cambria Math_MSFontService', sans-serif"
       transform="translate(151.836 297)"
       aria-label="ð‘„" />
    <path
       d="m 9.0439453,-0.01318359 q 0.3032227,0.96240234 0.5668945,1.58203129 0.2636719,0.6328125 0.5009762,1.0151367 0.250489,0.3955078 0.487793,0.5800781 0.237305,0.1977539 0.47461,0.2636719 0.237304,0.065918 0.553711,0.065918 0.500976,0 1.015136,-0.290039 0.514161,-0.2900391 1.146973,-1.0019531 l 0.685547,0.7382812 q -1.054688,1.1469727 -1.964356,1.621582 -0.909667,0.4746094 -1.87207,0.4746094 -1.0942381,0 -1.7929686,-0.487793 Q 8.1606445,4.0605469 7.6464844,2.9926758 7.1455078,1.9248047 6.6708984,0.19775391 4.284668,0.06591797 3.0322266,-1.3842773 1.7797852,-2.8344727 1.7797852,-5.4711914 q 0,-1.9775391 0.6591796,-4.4692383 0.6723633,-2.4916993 1.9248047,-4.3901363 1.265625,-1.911621 3.0058594,-2.887207 1.753418,-0.98877 3.8100591,-0.98877 2.544433,0 3.915527,1.476563 1.384277,1.476562 1.384277,4.271484 0,1.845703 -0.580078,4.1264647 -0.580078,2.2807618 -1.595215,4.0341797 -1.015136,1.7402344 -2.359863,2.8081055 -1.331543,1.0678711 -2.9003907,1.47656251 z M 13.987793,-13.012207 q 0,-1.964356 -0.725098,-2.992676 -0.725097,-1.041504 -2.228027,-1.041504 -1.4238282,0 -2.663086,1.015137 -1.2260742,1.015137 -2.1621093,2.900391 -0.9228516,1.885254 -1.4370118,4.1396481 -0.5141601,2.2543945 -0.5141601,3.9814453 0,4.07373044 2.9663086,4.07373044 1.8325195,0 3.3618166,-1.70068364 1.529297,-1.7138671 2.465332,-4.7329101 0.936035,-3.0190431 0.936035,-5.6425781 z"
       id="text46"
       style="font-size:27px;font-family:'Cambria Math', 'Cambria Math_MSFontService', sans-serif"
       transform="translate(149.955 114)"
       aria-label="ð‘„" />
    <path
       d="m 20.421387,-17.349609 q -0.580078,0.145019 -0.84375,0.290039 -0.250489,0.145019 -0.408692,0.36914 -0.145019,0.210938 -0.224121,0.645996 -0.06592,0.435059 -0.06592,1.344727 v 11.4038086 q 0,0.8833007 0.05273,1.2919921 0.06592,0.4086915 0.197754,0.6459961 0.145019,0.2373047 0.408691,0.39550786 0.276855,0.15820312 0.883301,0.31640625 V 0 h -5.497559 v -0.64599609 q 0.751465,-0.18457032 1.041504,-0.42187501 0.290039,-0.2373047 0.395508,-0.6987305 0.105469,-0.4614257 0.105469,-1.5292968 v -5.0493164 q 0,-1.9907232 0.05273,-4.0209962 0.06592,-2.043457 0.145019,-2.794922 H 16.439941 L 11.219238,-2.0961914 H 9.703125 L 4.8515625,-15.37207 H 4.6274414 q 0.065918,0.804199 0.1186523,2.913574 0.065918,2.109375 0.065918,4.3374022 v 4.8251954 q 0,0.8833007 0.052734,1.2919921 0.065918,0.4086915 0.1977539,0.6459961 0.1450195,0.2373047 0.4086914,0.39550786 0.2768555,0.15820312 0.8833008,0.31640625 V 0 H 1.5424805 v -0.64599609 q 0.8173828,-0.2109375 1.0942383,-0.46142581 0.2768554,-0.2636718 0.355957,-0.7382812 0.092285,-0.4746094 0.092285,-1.4501953 V -14.699707 q 0,-0.909668 -0.065918,-1.318359 -0.065918,-0.421875 -0.2241211,-0.645996 -0.1450196,-0.237305 -0.3955078,-0.369141 -0.2504883,-0.14502 -0.8569336,-0.316406 v -0.645996 h 4.7065429 l 4.6274416,12.8276363 5.088867,-12.8276363 h 4.456055 z m 8.608886,17.5605465 q -2.742187,0 -4.192382,-1.6083984 -1.437012,-1.6215821 -1.437012,-4.7856446 0,-2.1752929 0.751465,-3.6782226 0.764648,-1.5029299 2.083008,-2.2280269 1.318359,-0.738282 3.005859,-0.738282 2.821289,0 4.271484,1.647949 1.450196,1.6347661 1.450196,4.7065435 0,2.1884765 -0.725098,3.6914062 -0.725098,1.5029297 -2.056641,2.25439455 -1.331543,0.73828125 -3.150879,0.73828125 z m -3.137695,-6.6708984 q 0,2.7158203 0.856934,4.1791992 0.870117,1.45019529 2.478515,1.45019529 0.883301,0 1.50293,-0.42187499 0.619629,-0.4350586 1.001953,-1.1601563 0.395508,-0.7250976 0.566895,-1.6743164 0.171386,-0.9624023 0.171386,-2.0039062 0,-1.9379883 -0.435058,-3.2167969 -0.421875,-1.2788088 -1.160156,-1.8720708 -0.738282,-0.606445 -1.6875,-0.606445 -1.595215,0 -2.452149,1.384278 -0.84375,1.3842769 -0.84375,3.9418941 z m 15.292969,-3.9550781 0.18457,0.03955 q 0.725098,-0.883301 1.344727,-1.384278 0.619629,-0.51416 1.331543,-0.791015 0.725097,-0.276856 1.634765,-0.276856 0.764649,0 1.384278,0.0791 v 3.0322264 h -1.489746 q -0.316407,-0.7119144 -0.672364,-1.0283204 -0.355957,-0.32959 -0.975586,-0.32959 -0.474609,0 -0.949218,0.276856 -0.461426,0.276855 -0.896485,0.8041989 -0.435058,0.5273438 -0.606445,0.9887696 -0.158203,0.4614257 -0.158203,1.0942383 v 4.6142578 q 0,1.199707 0.145019,1.6611328 0.14502,0.4482422 0.47461,0.65917966 0.342773,0.2109375 1.015136,0.32958985 V 0 H 37.63916 v -0.64599609 q 0.500977,-0.15820313 0.711914,-0.27685547 0.224121,-0.11865234 0.382324,-0.32958984 0.158204,-0.2109375 0.237305,-0.6459961 0.0791,-0.4350586 0.0791,-1.3579102 v -5.7480468 q 0,-0.84375 -0.02637,-1.3579105 -0.02637,-0.51416 -0.18457,-0.817383 -0.158203,-0.316406 -0.487793,-0.461425 -0.316406,-0.158203 -0.909668,-0.263672 v -0.685547 l 3.084961,-0.131836 h 0.804199 z m 17.745117,8.1738281 q -0.84375,0.8833007 -1.555664,1.38427731 -0.69873,0.50097656 -1.54248,0.79101562 -0.84375,0.27685547 -1.858887,0.27685547 -2.715821,0 -4.100098,-1.621582 -1.384277,-1.6347657 -1.384277,-4.8120117 0,-1.9643555 0.69873,-3.4672852 0.711914,-1.5029296 2.01709,-2.3203126 1.305176,-0.817383 3.005859,-0.817383 1.331543,0 2.267579,0.421875 0.936035,0.421875 1.489746,1.160157 0.566894,0.725097 0.870117,1.8457027 0.316406,1.1074218 0.355957,2.9003906 h -8.305664 v 0.2373047 q 0,1.555664 0.342773,2.6235351 0.355957,1.0546875 1.146973,1.6611328 0.804199,0.5932618 2.083008,0.5932618 1.081054,0 1.937988,-0.3955079 0.870117,-0.4086914 1.727051,-1.3183593 z M 56.71582,-7.59375 q -0.0791,-1.4238281 -0.355957,-2.3203125 -0.276855,-0.9096675 -0.830566,-1.3842775 -0.553711,-0.487793 -1.450195,-0.487793 -1.357911,0 -2.175293,1.094238 -0.8042,1.0810552 -0.949219,3.098145 z"
       id="text47"
       style="font-size:27px;font-family:Cambria, Cambria_MSFontService, sans-serif"
       transform="translate(34.0702 191)"
       aria-label="More" />
    <path
       d="m 11.8125,-2.2412109 q -0.84375,0.8833007 -1.555664,1.38427731 -0.6987305,0.50097656 -1.5424805,0.79101562 -0.84375,0.27685547 -1.8588868,0.27685547 -2.7158203,0 -4.1000976,-1.621582 -1.3842774,-1.6347657 -1.3842774,-4.8120117 0,-1.9643555 0.6987305,-3.4672852 0.7119141,-1.5029296 2.0170899,-2.3203126 1.3051757,-0.817383 3.0058593,-0.817383 1.331543,0 2.2675782,0.421875 0.9360354,0.421875 1.4897464,1.160157 0.566894,0.725097 0.870117,1.8457027 0.316406,1.1074218 0.355957,2.9003906 H 3.7705078 v 0.2373047 q 0,1.555664 0.3427734,2.6235351 0.3559571,1.0546875 1.1469727,1.6611328 0.8041992,0.5932618 2.0830078,0.5932618 1.0810547,0 1.9379883,-0.3955079 0.870117,-0.4086914 1.727051,-1.3183593 z M 9.5976563,-7.59375 Q 9.5185547,-9.0175781 9.2416992,-9.9140625 8.9648438,-10.82373 8.4111328,-11.29834 q -0.5537109,-0.487793 -1.4501953,-0.487793 -1.3579102,0 -2.175293,1.094238 -0.8041992,1.0810552 -0.9492187,3.098145 z m 11.6279297,-3.678223 h -3.150879 v 7.9760746 q 0,0.8833007 0.0791,1.3315429 0.09229,0.4482422 0.250488,0.6855469 0.171387,0.2241211 0.435058,0.36914063 0.276856,0.13183594 0.870118,0.26367188 V 0 h -5.39209 v -0.64599609 q 0.580078,-0.15820313 0.830566,-0.30322266 0.250489,-0.14501955 0.382324,-0.36914065 0.14502,-0.2241211 0.210938,-0.6459961 0.06592,-0.421875 0.06592,-1.3315429 v -7.9760746 h -1.595215 v -0.672363 q 0.500977,-0.0791 0.65918,-0.118652 0.171386,-0.05273 0.316406,-0.14502 0.158203,-0.09229 0.263672,-0.263672 0.118652,-0.171386 0.197754,-0.500976 0.09229,-0.342774 0.145019,-0.949219 0.118653,-1.437012 0.51416,-2.333496 0.408692,-0.896484 1.17334,-1.529297 0.777832,-0.632812 1.64795,-0.883301 0.8833,-0.263672 2.069824,-0.263672 1.041504,0 1.766601,0.14502 v 2.38623 h -1.305175 q -0.250489,-0.777832 -0.593262,-1.094238 -0.32959,-0.32959 -0.936035,-0.32959 -0.435059,0 -0.738282,0.118653 -0.290039,0.118652 -0.540527,0.36914 -0.250488,0.250489 -0.435059,0.672364 -0.171386,0.421875 -0.263671,1.054687 -0.0791,0.619629 -0.0791,1.621582 v 1.384277 h 3.150879 z m 8.173828,0 h -3.150879 v 7.9760746 q 0,0.8833007 0.0791,1.3315429 0.09229,0.4482422 0.250488,0.6855469 0.171387,0.2241211 0.435059,0.36914063 0.276855,0.13183594 0.870117,0.26367188 V 0 h -5.39209 v -0.64599609 q 0.580078,-0.15820313 0.830566,-0.30322266 0.250489,-0.14501955 0.382325,-0.36914065 0.145019,-0.2241211 0.210937,-0.6459961 0.06592,-0.421875 0.06592,-1.3315429 v -7.9760746 h -1.595215 v -0.672363 q 0.711914,-0.0791 0.98877,-0.276855 0.290039,-0.210938 0.421875,-0.606446 0.131836,-0.395508 0.171386,-1.094238 0.09229,-1.621582 0.738282,-2.755371 0.659179,-1.133789 1.753418,-1.6875 1.094238,-0.566895 2.544433,-0.566895 0.751465,0 1.423828,0.118653 v 2.412597 H 29.34668 q -0.14502,-0.725097 -0.435059,-1.041504 -0.276855,-0.329589 -0.804199,-0.329589 -0.487793,0 -0.84375,0.224121 -0.342774,0.224121 -0.593262,0.711914 -0.237305,0.474609 -0.32959,1.239258 -0.09229,0.764648 -0.09229,1.832519 v 1.160156 h 3.150879 z m 5.167969,-6.499511 v 2.557617 h -2.425781 v -2.557617 z m -3.770508,17.12548791 q 0.51416,-0.15820313 0.725098,-0.27685547 0.224121,-0.11865234 0.36914,-0.32958984 0.158203,-0.2109375 0.237305,-0.6459961 0.09228,-0.4350586 0.09228,-1.3579102 v -5.7480468 q 0,-0.84375 -0.02637,-1.3579105 -0.02637,-0.51416 -0.18457,-0.817383 -0.158204,-0.316406 -0.487793,-0.461425 -0.316407,-0.158203 -0.909668,-0.263672 v -0.698731 l 3.071777,-0.118652 h 0.804199 v 9.4262696 q 0,1.133789 0.105469,1.5820312 0.105469,0.4350586 0.395508,0.6723633 0.303222,0.22412109 0.975586,0.39550781 V 0 H 30.796875 Z M 48.120117,-12.300293 v 2.7553711 h -1.674316 q -0.224121,-0.8569331 -0.553711,-1.3447261 -0.32959,-0.500977 -0.764649,-0.698731 -0.435058,-0.197754 -1.081054,-0.197754 -0.922852,0 -1.634766,0.593262 -0.711914,0.593262 -1.133789,1.8061522 -0.408691,1.2128907 -0.408691,2.9663086 0,1.1206055 0.158203,2.0566407 0.158203,0.9228515 0.540527,1.5820312 0.382324,0.6591797 1.015137,1.0283203 0.632812,0.3691407 1.568847,0.3691407 0.909668,0 1.6875,-0.3559571 0.791016,-0.355957 1.634766,-1.2524414 l 0.751465,0.8701172 q -0.672363,0.7382813 -1.186524,1.14697266 -0.51416,0.39550782 -1.107421,0.67236328 -0.580079,0.26367188 -1.160157,0.38232422 -0.566894,0.13183594 -1.239257,0.13183594 -2.4917,0 -3.810059,-1.6479492 -1.318359,-1.6611328 -1.318359,-4.7856445 0,-1.9511719 0.738281,-3.4541016 0.738281,-1.5161132 2.069824,-2.3334962 1.331543,-0.817383 3.071777,-0.817383 1.081055,0 1.990723,0.131836 0.922852,0.118653 1.845703,0.395508 z m 5.853516,-5.471191 v 2.557617 h -2.425781 v -2.557617 z m -3.770508,17.12548791 q 0.51416,-0.15820313 0.725098,-0.27685547 0.224121,-0.11865234 0.36914,-0.32958984 0.158203,-0.2109375 0.237305,-0.6459961 0.09228,-0.4350586 0.09228,-1.3579102 v -5.7480468 q 0,-0.84375 -0.02637,-1.3579105 -0.02637,-0.51416 -0.18457,-0.817383 -0.158204,-0.316406 -0.487793,-0.461425 -0.316407,-0.158203 -0.909668,-0.263672 v -0.698731 l 3.071777,-0.118652 h 0.804199 v 9.4262696 q 0,1.133789 0.105469,1.5820312 0.105469,0.4350586 0.395508,0.6723633 0.303222,0.22412109 0.975586,0.39550781 V 0 H 50.203125 Z M 68.238281,-2.2412109 q -0.84375,0.8833007 -1.555664,1.38427731 -0.69873,0.50097656 -1.54248,0.79101562 -0.84375,0.27685547 -1.858887,0.27685547 -2.71582,0 -4.100098,-1.621582 -1.384277,-1.6347657 -1.384277,-4.8120117 0,-1.9643555 0.69873,-3.4672852 0.711915,-1.5029296 2.01709,-2.3203126 1.305176,-0.817383 3.00586,-0.817383 1.331543,0 2.267578,0.421875 0.936035,0.421875 1.489746,1.160157 0.566894,0.725097 0.870117,1.8457027 0.316406,1.1074218 0.355957,2.9003906 h -8.305664 v 0.2373047 q 0,1.555664 0.342773,2.6235351 0.355958,1.0546875 1.146973,1.6611328 0.804199,0.5932618 2.083008,0.5932618 1.081055,0 1.937988,-0.3955079 0.870117,-0.4086914 1.727051,-1.3183593 z M 66.023437,-7.59375 q -0.0791,-1.4238281 -0.355957,-2.3203125 -0.276855,-0.9096675 -0.830566,-1.3842775 -0.553711,-0.487793 -1.450195,-0.487793 -1.35791,0 -2.175293,1.094238 -0.804199,1.0810552 -0.949219,3.098145 z M 83.71582,0 h -5.194336 v -0.64599609 q 0.514161,-0.15820313 0.738282,-0.27685547 0.224121,-0.11865234 0.36914,-0.32958984 0.158203,-0.2109375 0.237305,-0.6459961 0.09228,-0.4482422 0.09228,-1.3447266 v -3.4541015 q 0,-0.9228516 -0.05273,-1.6743164 -0.05273,-0.7514649 -0.184571,-1.2260743 -0.118652,-0.4877927 -0.303222,-0.7514647 -0.171387,-0.276856 -0.421875,-0.461426 -0.237305,-0.197754 -0.553711,-0.303223 -0.316406,-0.118652 -0.830567,-0.118652 -0.51416,0 -0.975586,0.210938 -0.461425,0.197754 -1.015136,0.69873 -0.553711,0.5009767 -0.804199,0.9887696 -0.250489,0.487793 -0.250489,1.1206055 v 4.9174805 q 0,1.133789 0.105469,1.5820312 0.105469,0.4350586 0.395508,0.6723633 0.303222,0.22412109 0.975586,0.39550781 V 0 H 70.875 v -0.64599609 q 0.51416,-0.15820313 0.725098,-0.27685547 0.224121,-0.11865234 0.36914,-0.32958984 0.158203,-0.2109375 0.237305,-0.6459961 0.09229,-0.4350586 0.09229,-1.3579102 v -5.7480468 q 0,-0.84375 -0.02637,-1.3579105 -0.02637,-0.51416 -0.18457,-0.817383 -0.158204,-0.316406 -0.487793,-0.461425 -0.316407,-0.158203 -0.909668,-0.263672 v -0.698731 l 3.084961,-0.118652 h 0.804199 l -0.14502,2.148926 0.184571,0.05273 q 0.975586,-0.988769 1.568847,-1.410644 0.606446,-0.421875 1.212891,-0.645996 0.619629,-0.237305 1.305176,-0.237305 0.711914,0 1.265625,0.171387 0.566894,0.158203 0.988769,0.500976 0.435059,0.342774 0.711914,0.856934 0.276856,0.500976 0.408692,1.21289 0.145019,0.7119144 0.145019,1.8061527 v 4.9702149 q 0,0.9096679 0.05273,1.3183593 0.05273,0.4086914 0.18457,0.6328125 0.131836,0.2241211 0.382324,0.38232426 0.250488,0.14501953 0.870117,0.31640625 z m 1.437012,-11.944336 q 0.65918,-0.105469 1.067871,-0.369141 0.408692,-0.263671 0.632813,-0.672363 0.237304,-0.421875 0.36914,-1.041504 0.131836,-0.632812 0.276856,-1.832519 h 1.87207 v 3.256347 h 4.258301 v 1.331543 h -4.258301 v 5.8666996 q 0,1.2788086 0.105469,2.043457 0.105469,0.7514648 0.395508,1.1865234 0.290039,0.421875 0.659179,0.6064453 0.369141,0.1845704 0.949219,0.1845704 0.527344,0 0.98877,-0.2109375 0.461425,-0.2241211 0.909668,-0.6328125 l 0.593261,0.711914 q -0.936035,0.90966799 -1.779785,1.31835939 -0.830566,0.40869141 -1.727051,0.40869141 -1.700683,0 -2.53125,-1.00195312 -0.830566,-1.01513668 -0.830566,-3.16406248 v -7.3168949 h -1.951172 z"
       id="text48"
       style="font-size:27px;font-family:Cambria, Cambria_MSFontService, sans-serif"
       transform="translate(17.6236 223)"
       aria-label="efficient" />
    <path
       d="m 5.6030273,-1.2128906 h 3.4541016 q 0.5668945,0 0.9492191,-0.065918 0.382324,-0.065918 0.645996,-0.1977539 0.276855,-0.1450195 0.487793,-0.3823242 0.224121,-0.2504883 0.421875,-0.6459961 0.197754,-0.3955078 0.36914,-0.9887695 0.184571,-0.6064454 0.448243,-1.8061524 h 1.331543 L 13.447266,0 H 1.5952148 v -0.64599609 q 0.8173829,-0.2109375 1.0942383,-0.46142581 0.2768555,-0.2636718 0.3559571,-0.7382812 0.092285,-0.4746094 0.092285,-1.4501953 V -14.699707 q 0,-0.909668 -0.065918,-1.318359 -0.065918,-0.421875 -0.224121,-0.645996 -0.1450196,-0.237305 -0.3955079,-0.369141 -0.2504882,-0.14502 -0.8569336,-0.316406 v -0.645996 h 5.550293 v 0.645996 q -0.5800781,0.158203 -0.8305664,0.290039 -0.2373047,0.118652 -0.3955078,0.32959 -0.1582031,0.210937 -0.2373047,0.645996 -0.079102,0.435058 -0.079102,1.384277 z M 26.30127,-2.2412109 q -0.84375,0.8833007 -1.555665,1.38427731 -0.69873,0.50097656 -1.54248,0.79101562 -0.84375,0.27685547 -1.858887,0.27685547 -2.71582,0 -4.100097,-1.621582 -1.384278,-1.6347657 -1.384278,-4.8120117 0,-1.9643555 0.698731,-3.4672852 0.711914,-1.5029296 2.01709,-2.3203126 1.305175,-0.817383 3.005859,-0.817383 1.331543,0 2.267578,0.421875 0.936035,0.421875 1.489746,1.160157 0.566895,0.725097 0.870117,1.8457027 0.316407,1.1074218 0.355957,2.9003906 h -8.305664 v 0.2373047 q 0,1.555664 0.342774,2.6235351 0.355957,1.0546875 1.146972,1.6611328 0.8042,0.5932618 2.083008,0.5932618 1.081055,0 1.937989,-0.3955079 0.870117,-0.4086914 1.72705,-1.3183593 z M 24.086426,-7.59375 q -0.0791,-1.4238281 -0.355957,-2.3203125 -0.276856,-0.9096675 -0.830567,-1.3842775 -0.553711,-0.487793 -1.450195,-0.487793 -1.35791,0 -2.175293,1.094238 -0.804199,1.0810552 -0.949219,3.098145 z m 13.68457,-2.1225586 h -1.265625 q -0.290039,-0.7910154 -0.685547,-1.2392574 -0.395508,-0.461426 -0.896484,-0.645997 -0.500977,-0.18457 -1.226074,-0.18457 -1.054688,0 -1.6875,0.500977 -0.619629,0.487793 -0.619629,1.3447263 0,0.6064453 0.250488,1.0019531 0.250488,0.3955078 0.777832,0.7382813 0.527344,0.3427734 1.858887,0.909668 1.344726,0.5800781 2.069824,1.0678711 0.738281,0.4877929 1.146973,1.133789 0.421875,0.6459961 0.421875,1.5424805 0,1.0415039 -0.355957,1.753418 -0.355957,0.711914 -1.001954,1.1601562 -0.645996,0.44824219 -1.54248,0.64599609 -0.883301,0.19775391 -1.937988,0.19775391 -1.107422,0 -2.148926,-0.17138672 -1.041504,-0.15820312 -2.030274,-0.421875 V -3.1376953 h 1.291993 q 0.355957,1.2128906 1.054687,1.7666016 0.698731,0.54052729 1.924805,0.54052729 0.474609,0 0.922851,-0.0922852 0.461426,-0.10546874 0.817383,-0.32958984 0.355957,-0.2373047 0.566895,-0.6328125 0.210937,-0.3955078 0.210937,-0.9887695 0,-0.6723633 -0.263672,-1.0942383 -0.263671,-0.421875 -0.817382,-0.7646485 -0.553711,-0.355957 -1.951172,-0.9492187 -1.199707,-0.5009766 -1.924805,-0.9755859 -0.725098,-0.4746094 -1.146973,-1.1206055 -0.408691,-0.6459961 -0.408691,-1.5292969 0,-1.0810548 0.580078,-1.8720708 0.593262,-0.804199 1.700684,-1.226074 1.107422,-0.421875 2.597168,-0.421875 0.870117,0 1.674316,0.09228 0.817383,0.0791 2.043457,0.32959 z m 11.601563,0 h -1.265625 q -0.290039,-0.7910154 -0.685547,-1.2392574 -0.395508,-0.461426 -0.896485,-0.645997 -0.500976,-0.18457 -1.226074,-0.18457 -1.054687,0 -1.6875,0.500977 -0.619629,0.487793 -0.619629,1.3447263 0,0.6064453 0.250488,1.0019531 0.250489,0.3955078 0.777833,0.7382813 0.527343,0.3427734 1.858886,0.909668 1.344727,0.5800781 2.069824,1.0678711 0.738282,0.4877929 1.146973,1.133789 0.421875,0.6459961 0.421875,1.5424805 0,1.0415039 -0.355957,1.753418 -0.355957,0.711914 -1.001953,1.1601562 -0.645996,0.44824219 -1.542481,0.64599609 -0.8833,0.19775391 -1.937988,0.19775391 -1.107422,0 -2.148926,-0.17138672 Q 41.48877,-0.11865234 40.5,-0.38232422 V -3.1376953 h 1.291992 q 0.355957,1.2128906 1.054688,1.7666016 0.69873,0.54052729 1.924804,0.54052729 0.47461,0 0.922852,-0.0922852 0.461426,-0.10546874 0.817383,-0.32958984 0.355957,-0.2373047 0.566894,-0.6328125 0.210938,-0.3955078 0.210938,-0.9887695 0,-0.6723633 -0.263672,-1.0942383 -0.263672,-0.421875 -0.817383,-0.7646485 -0.553711,-0.355957 -1.951172,-0.9492187 -1.199707,-0.5009766 -1.924804,-0.9755859 -0.725098,-0.4746094 -1.146973,-1.1206055 -0.408692,-0.6459961 -0.408692,-1.5292969 0,-1.0810548 0.580079,-1.8720708 0.593261,-0.804199 1.700683,-1.226074 1.107422,-0.421875 2.597168,-0.421875 0.870117,0 1.674317,0.09228 0.817382,0.0791 2.043457,0.32959 z"
       id="text49"
       style="font-size:27px;font-family:Cambria, Cambria_MSFontService, sans-serif"
       transform="translate(543.043 191)"
       aria-label="Less" />
    <path
       d="m 11.8125,-2.2412109 q -0.84375,0.8833007 -1.555664,1.38427731 -0.6987305,0.50097656 -1.5424805,0.79101562 -0.84375,0.27685547 -1.8588868,0.27685547 -2.7158203,0 -4.1000976,-1.621582 -1.3842774,-1.6347657 -1.3842774,-4.8120117 0,-1.9643555 0.6987305,-3.4672852 0.7119141,-1.5029296 2.0170899,-2.3203126 1.3051757,-0.817383 3.0058593,-0.817383 1.331543,0 2.2675782,0.421875 0.9360354,0.421875 1.4897464,1.160157 0.566894,0.725097 0.870117,1.8457027 0.316406,1.1074218 0.355957,2.9003906 H 3.7705078 v 0.2373047 q 0,1.555664 0.3427734,2.6235351 0.3559571,1.0546875 1.1469727,1.6611328 0.8041992,0.5932618 2.0830078,0.5932618 1.0810547,0 1.9379883,-0.3955079 0.870117,-0.4086914 1.727051,-1.3183593 z M 9.5976563,-7.59375 Q 9.5185547,-9.0175781 9.2416992,-9.9140625 8.9648438,-10.82373 8.4111328,-11.29834 q -0.5537109,-0.487793 -1.4501953,-0.487793 -1.3579102,0 -2.175293,1.094238 -0.8041992,1.0810552 -0.9492187,3.098145 z m 11.6279297,-3.678223 h -3.150879 v 7.9760746 q 0,0.8833007 0.0791,1.3315429 0.09229,0.4482422 0.250488,0.6855469 0.171387,0.2241211 0.435058,0.36914063 0.276856,0.13183594 0.870118,0.26367188 V 0 h -5.39209 v -0.64599609 q 0.580078,-0.15820313 0.830566,-0.30322266 0.250489,-0.14501955 0.382324,-0.36914065 0.14502,-0.2241211 0.210938,-0.6459961 0.06592,-0.421875 0.06592,-1.3315429 v -7.9760746 h -1.595215 v -0.672363 q 0.500977,-0.0791 0.65918,-0.118652 0.171386,-0.05273 0.316406,-0.14502 0.158203,-0.09229 0.263672,-0.263672 0.118652,-0.171386 0.197754,-0.500976 0.09229,-0.342774 0.145019,-0.949219 0.118653,-1.437012 0.51416,-2.333496 0.408692,-0.896484 1.17334,-1.529297 0.777832,-0.632812 1.64795,-0.883301 0.8833,-0.263672 2.069824,-0.263672 1.041504,0 1.766601,0.14502 v 2.38623 h -1.305175 q -0.250489,-0.777832 -0.593262,-1.094238 -0.32959,-0.32959 -0.936035,-0.32959 -0.435059,0 -0.738282,0.118653 -0.290039,0.118652 -0.540527,0.36914 -0.250488,0.250489 -0.435059,0.672364 -0.171386,0.421875 -0.263671,1.054687 -0.0791,0.619629 -0.0791,1.621582 v 1.384277 h 3.150879 z m 8.173828,0 h -3.150879 v 7.9760746 q 0,0.8833007 0.0791,1.3315429 0.09229,0.4482422 0.250488,0.6855469 0.171387,0.2241211 0.435059,0.36914063 0.276855,0.13183594 0.870117,0.26367188 V 0 h -5.39209 v -0.64599609 q 0.580078,-0.15820313 0.830566,-0.30322266 0.250489,-0.14501955 0.382325,-0.36914065 0.145019,-0.2241211 0.210937,-0.6459961 0.06592,-0.421875 0.06592,-1.3315429 v -7.9760746 h -1.595215 v -0.672363 q 0.711914,-0.0791 0.98877,-0.276855 0.290039,-0.210938 0.421875,-0.606446 0.131836,-0.395508 0.171386,-1.094238 0.09229,-1.621582 0.738282,-2.755371 0.659179,-1.133789 1.753418,-1.6875 1.094238,-0.566895 2.544433,-0.566895 0.751465,0 1.423828,0.118653 v 2.412597 H 29.34668 q -0.14502,-0.725097 -0.435059,-1.041504 -0.276855,-0.329589 -0.804199,-0.329589 -0.487793,0 -0.84375,0.224121 -0.342774,0.224121 -0.593262,0.711914 -0.237305,0.474609 -0.32959,1.239258 -0.09229,0.764648 -0.09229,1.832519 v 1.160156 h 3.150879 z m 5.167969,-6.499511 v 2.557617 h -2.425781 v -2.557617 z m -3.770508,17.12548791 q 0.51416,-0.15820313 0.725098,-0.27685547 0.224121,-0.11865234 0.36914,-0.32958984 0.158203,-0.2109375 0.237305,-0.6459961 0.09228,-0.4350586 0.09228,-1.3579102 v -5.7480468 q 0,-0.84375 -0.02637,-1.3579105 -0.02637,-0.51416 -0.18457,-0.817383 -0.158204,-0.316406 -0.487793,-0.461425 -0.316407,-0.158203 -0.909668,-0.263672 v -0.698731 l 3.071777,-0.118652 h 0.804199 v 9.4262696 q 0,1.133789 0.105469,1.5820312 0.105469,0.4350586 0.395508,0.6723633 0.303222,0.22412109 0.975586,0.39550781 V 0 H 30.796875 Z M 48.120117,-12.300293 v 2.7553711 h -1.674316 q -0.224121,-0.8569331 -0.553711,-1.3447261 -0.32959,-0.500977 -0.764649,-0.698731 -0.435058,-0.197754 -1.081054,-0.197754 -0.922852,0 -1.634766,0.593262 -0.711914,0.593262 -1.133789,1.8061522 -0.408691,1.2128907 -0.408691,2.9663086 0,1.1206055 0.158203,2.0566407 0.158203,0.9228515 0.540527,1.5820312 0.382324,0.6591797 1.015137,1.0283203 0.632812,0.3691407 1.568847,0.3691407 0.909668,0 1.6875,-0.3559571 0.791016,-0.355957 1.634766,-1.2524414 l 0.751465,0.8701172 q -0.672363,0.7382813 -1.186524,1.14697266 -0.51416,0.39550782 -1.107421,0.67236328 -0.580079,0.26367188 -1.160157,0.38232422 -0.566894,0.13183594 -1.239257,0.13183594 -2.4917,0 -3.810059,-1.6479492 -1.318359,-1.6611328 -1.318359,-4.7856445 0,-1.9511719 0.738281,-3.4541016 0.738281,-1.5161132 2.069824,-2.3334962 1.331543,-0.817383 3.071777,-0.817383 1.081055,0 1.990723,0.131836 0.922852,0.118653 1.845703,0.395508 z m 5.853516,-5.471191 v 2.557617 h -2.425781 v -2.557617 z m -3.770508,17.12548791 q 0.51416,-0.15820313 0.725098,-0.27685547 0.224121,-0.11865234 0.36914,-0.32958984 0.158203,-0.2109375 0.237305,-0.6459961 0.09228,-0.4350586 0.09228,-1.3579102 v -5.7480468 q 0,-0.84375 -0.02637,-1.3579105 -0.02637,-0.51416 -0.18457,-0.817383 -0.158204,-0.316406 -0.487793,-0.461425 -0.316407,-0.158203 -0.909668,-0.263672 v -0.698731 l 3.071777,-0.118652 h 0.804199 v 9.4262696 q 0,1.133789 0.105469,1.5820312 0.105469,0.4350586 0.395508,0.6723633 0.303222,0.22412109 0.975586,0.39550781 V 0 H 50.203125 Z M 68.238281,-2.2412109 q -0.84375,0.8833007 -1.555664,1.38427731 -0.69873,0.50097656 -1.54248,0.79101562 -0.84375,0.27685547 -1.858887,0.27685547 -2.71582,0 -4.100098,-1.621582 -1.384277,-1.6347657 -1.384277,-4.8120117 0,-1.9643555 0.69873,-3.4672852 0.711915,-1.5029296 2.01709,-2.3203126 1.305176,-0.817383 3.00586,-0.817383 1.331543,0 2.267578,0.421875 0.936035,0.421875 1.489746,1.160157 0.566894,0.725097 0.870117,1.8457027 0.316406,1.1074218 0.355957,2.9003906 h -8.305664 v 0.2373047 q 0,1.555664 0.342773,2.6235351 0.355958,1.0546875 1.146973,1.6611328 0.804199,0.5932618 2.083008,0.5932618 1.081055,0 1.937988,-0.3955079 0.870117,-0.4086914 1.727051,-1.3183593 z M 66.023437,-7.59375 q -0.0791,-1.4238281 -0.355957,-2.3203125 -0.276855,-0.9096675 -0.830566,-1.3842775 -0.553711,-0.487793 -1.450195,-0.487793 -1.35791,0 -2.175293,1.094238 -0.804199,1.0810552 -0.949219,3.098145 z M 83.71582,0 h -5.194336 v -0.64599609 q 0.514161,-0.15820313 0.738282,-0.27685547 0.224121,-0.11865234 0.36914,-0.32958984 0.158203,-0.2109375 0.237305,-0.6459961 0.09228,-0.4482422 0.09228,-1.3447266 v -3.4541015 q 0,-0.9228516 -0.05273,-1.6743164 -0.05273,-0.7514649 -0.184571,-1.2260743 -0.118652,-0.4877927 -0.303222,-0.7514647 -0.171387,-0.276856 -0.421875,-0.461426 -0.237305,-0.197754 -0.553711,-0.303223 -0.316406,-0.118652 -0.830567,-0.118652 -0.51416,0 -0.975586,0.210938 -0.461425,0.197754 -1.015136,0.69873 -0.553711,0.5009767 -0.804199,0.9887696 -0.250489,0.487793 -0.250489,1.1206055 v 4.9174805 q 0,1.133789 0.105469,1.5820312 0.105469,0.4350586 0.395508,0.6723633 0.303222,0.22412109 0.975586,0.39550781 V 0 H 70.875 v -0.64599609 q 0.51416,-0.15820313 0.725098,-0.27685547 0.224121,-0.11865234 0.36914,-0.32958984 0.158203,-0.2109375 0.237305,-0.6459961 0.09229,-0.4350586 0.09229,-1.3579102 v -5.7480468 q 0,-0.84375 -0.02637,-1.3579105 -0.02637,-0.51416 -0.18457,-0.817383 -0.158204,-0.316406 -0.487793,-0.461425 -0.316407,-0.158203 -0.909668,-0.263672 v -0.698731 l 3.084961,-0.118652 h 0.804199 l -0.14502,2.148926 0.184571,0.05273 q 0.975586,-0.988769 1.568847,-1.410644 0.606446,-0.421875 1.212891,-0.645996 0.619629,-0.237305 1.305176,-0.237305 0.711914,0 1.265625,0.171387 0.566894,0.158203 0.988769,0.500976 0.435059,0.342774 0.711914,0.856934 0.276856,0.500976 0.408692,1.21289 0.145019,0.7119144 0.145019,1.8061527 v 4.9702149 q 0,0.9096679 0.05273,1.3183593 0.05273,0.4086914 0.18457,0.6328125 0.131836,0.2241211 0.382324,0.38232426 0.250488,0.14501953 0.870117,0.31640625 z m 1.437012,-11.944336 q 0.65918,-0.105469 1.067871,-0.369141 0.408692,-0.263671 0.632813,-0.672363 0.237304,-0.421875 0.36914,-1.041504 0.131836,-0.632812 0.276856,-1.832519 h 1.87207 v 3.256347 h 4.258301 v 1.331543 h -4.258301 v 5.8666996 q 0,1.2788086 0.105469,2.043457 0.105469,0.7514648 0.395508,1.1865234 0.290039,0.421875 0.659179,0.6064453 0.369141,0.1845704 0.949219,0.1845704 0.527344,0 0.98877,-0.2109375 0.461425,-0.2241211 0.909668,-0.6328125 l 0.593261,0.711914 q -0.936035,0.90966799 -1.779785,1.31835939 -0.830566,0.40869141 -1.727051,0.40869141 -1.700683,0 -2.53125,-1.00195312 -0.830566,-1.01513668 -0.830566,-3.16406248 v -7.3168949 h -1.951172 z"
       id="text50"
       style="font-size:27px;font-family:Cambria, Cambria_MSFontService, sans-serif"
       transform="translate(522.043 223)"
       aria-label="efficient" />
  </g>
</svg>
