<?xml version="1.0" encoding="UTF-8"?>
<svg width="385" height="129" version="1.1" viewBox="0 0 385 129" xmlns="http://www.w3.org/2000/svg">
 <g fill="none" stroke-linecap="round" stroke-linejoin="round">
  <g stroke="#ccc" stroke-width="1px">
   <path d="m267.5 77.5 50-32"/>
   <path d="m235.5 77.5 50-32"/>
   <path d="m267.5 45.5 50-32"/>
   <path d="m235.5 45.5 50-32"/>
  </g>
  <path d="m40.5 53.5h32" stroke="#d60022" stroke-width="1px"/>
  <g stroke="#000">
   <rect x=".50001" y=".49999" width="384" height="128"/>
   <g stroke-width="1px">
    <path d="m352.5 0.5v128"/>
    <path d="m224.5 128.5v-128"/>
    <path d="m144.5 0.5v128"/>
    <path d="m80.5 128.5v-128"/>
    <path d="m32.5 0.5v128"/>
    <path d="m0.5 112.5h384"/>
   </g>
  </g>
 </g>
 <path d="m39.5 62.5v1h32v-1z" color="#000000" fill="#d60022" stroke-linecap="round" stroke-linejoin="round" style="text-decoration-line:none;text-indent:0;text-transform:none"/>
 <path d="m68.5 63-2 2 7-2-7-2z" fill="#d60022" fill-rule="evenodd" stroke-linecap="round" stroke-linejoin="round"/>
 <g fill="none" stroke-linecap="round" stroke-linejoin="round" stroke-width="1px">
  <path d="m100.5 40.5h32" stroke="#d60022"/>
  <path d="m100.5 72.5h32" stroke="#d60022"/>
  <path d="m100.5 72.5v-32" stroke="#00c947"/>
 </g>
 <g stroke-linecap="round" stroke-linejoin="round">
  <circle cx="16.5" cy="53.5" r="3"/>
  <circle cx="40.5" cy="53.5" r="3"/>
  <circle cx="72.5" cy="53.5" r="3"/>
  <path d="m132.5 72.5v-32" fill="none" stroke="#00c947" stroke-width="1px"/>
  <circle cx="100.5" cy="40.5" r="3"/>
  <circle cx="132.5" cy="40.5" r="3"/>
  <circle cx="132.5" cy="72.5" r="3"/>
  <circle cx="100.5" cy="72.5" r="3"/>
  <path d="m90.5 74.5h-1v-32h1z" color="#000000" fill="#00c947" style="text-decoration-line:none;text-indent:0;text-transform:none"/>
  <path d="m90 45.5-2 2 2-7 2 7z" fill="#00c947" fill-rule="evenodd"/>
 </g>
 <g fill="none" stroke-linecap="round" stroke-linejoin="round" stroke-width="1px">
  <path d="m165.5 35.5h32" stroke="#d60022"/>
  <path d="m165.5 67.5h32" stroke="#d60022"/>
  <path d="m165.5 67.5v-32" stroke="#00c947"/>
  <path d="m197.5 67.5v-32" stroke="#00c947"/>
 </g>
 <g stroke-linecap="round" stroke-linejoin="round">
  <circle cx="165.5" cy="35.5" r="3"/>
  <circle cx="197.5" cy="35.5" r="3"/>
  <circle cx="197.5" cy="67.5" r="3"/>
  <circle cx="165.5" cy="67.5" r="3"/>
 </g>
 <g fill="none" stroke-linecap="round" stroke-linejoin="round" stroke-width="1px">
  <g stroke="#0075ff">
   <path d="m165.5 35.5 15 15"/>
   <path d="m197.5 35.5 15 15"/>
   <path d="m197.5 67.5 15 15"/>
   <path d="m165.5 67.5 15 15"/>
  </g>
  <path d="m180.5 50.5h32" stroke="#d60022"/>
  <path d="m180.5 82.5h32" stroke="#d60022"/>
  <path d="m180.5 82.5v-32" stroke="#00c947"/>
  <path d="m212.5 82.5v-32" stroke="#00c947"/>
 </g>
 <g stroke-linecap="round" stroke-linejoin="round">
  <circle cx="180.5" cy="50.5" r="3"/>
  <circle cx="212.5" cy="50.5" r="3"/>
  <circle cx="212.5" cy="82.5" r="3"/>
  <circle cx="180.5" cy="82.5" r="3"/>
 </g>
 <g fill-rule="evenodd" stroke-linecap="round" stroke-linejoin="round">
  <path d="m155.5 70.506-0.6875 0.6875 16 16 0.6875-0.6875z" color="#000000" fill="#0075ff" style="text-decoration-line:none;text-indent:0;text-transform:none"/>
  <path d="m169.48 85.171h-2.8284l6.364 3.5355-3.5355-6.364z" fill="#0075ff"/>
  <path d="m244.53 29.318 0.48613 0.84201 19.596-11.314-0.48613-0.84201z" color="#000000" fill="#ccc" style="text-decoration-line:none;text-indent:0;text-transform:none"/>
  <path d="m262.31 19.61-0.73204 2.732 5.0622-5.2321-7.0622 1.7679z" fill="#ccc"/>
 </g>
 <g fill="none" stroke-linecap="round" stroke-linejoin="round" stroke-width="1px">
  <path d="m235.5 45.5h32" stroke="#d60022"/>
  <path d="m235.5 77.5h32" stroke="#d60022"/>
  <path d="m235.5 77.5v-32" stroke="#00c947"/>
  <path d="m267.5 77.5v-32" stroke="#00c947"/>
 </g>
 <g stroke-linecap="round" stroke-linejoin="round">
  <circle cx="235.5" cy="45.5" r="3"/>
  <circle cx="267.5" cy="45.5" r="3"/>
  <circle cx="267.5" cy="77.5" r="3"/>
  <circle cx="235.5" cy="77.5" r="3"/>
 </g>
 <g fill="none" stroke-linecap="round" stroke-linejoin="round" stroke-width="1px">
  <g stroke="#0075ff">
   <path d="m235.5 45.5 15 15"/>
   <path d="m267.5 45.5 15 15"/>
   <path d="m267.5 77.5 15 15"/>
   <path d="m235.5 77.5 15 15"/>
  </g>
  <path d="m250.5 60.5h32" stroke="#d60022"/>
  <path d="m250.5 92.5h32" stroke="#d60022"/>
  <path d="m250.5 92.5v-32" stroke="#00c947"/>
  <path d="m282.5 92.5v-32" stroke="#00c947"/>
 </g>
 <g stroke-linecap="round" stroke-linejoin="round">
  <circle cx="250.5" cy="60.5" r="3"/>
  <circle cx="282.5" cy="60.5" r="3"/>
  <circle cx="282.5" cy="92.5" r="3"/>
  <circle cx="250.5" cy="92.5" r="3"/>
 </g>
 <g fill="none" stroke-linecap="round" stroke-linejoin="round" stroke-width="1px">
  <path d="m285.5 13.5h32" stroke="#d60022"/>
  <path d="m285.5 45.5h32" stroke="#d60022"/>
  <path d="m285.5 45.5v-32" stroke="#00c947"/>
  <path d="m317.5 45.5v-32" stroke="#00c947"/>
 </g>
 <g stroke-linecap="round" stroke-linejoin="round">
  <circle cx="285.5" cy="13.5" r="3"/>
  <circle cx="317.5" cy="13.5" r="3"/>
  <circle cx="317.5" cy="45.5" r="3"/>
  <circle cx="285.5" cy="45.5" r="3"/>
 </g>
 <g fill="none" stroke-linecap="round" stroke-linejoin="round" stroke-width="1px">
  <g stroke="#0075ff">
   <path d="m285.5 13.5 15 15"/>
   <path d="m317.5 13.5 15 15"/>
   <path d="m317.5 45.5 15 15"/>
   <path d="m285.5 45.5 15 15"/>
  </g>
  <path d="m300.5 28.5h32" stroke="#d60022"/>
  <path d="m300.5 60.5h32" stroke="#d60022"/>
  <path d="m300.5 60.5v-32" stroke="#00c947"/>
  <path d="m332.5 60.5v-32" stroke="#00c947"/>
 </g>
 <g stroke-linecap="round" stroke-linejoin="round">
  <circle cx="300.5" cy="28.5" r="3"/>
  <circle cx="332.5" cy="28.5" r="3"/>
  <circle cx="332.5" cy="60.5" r="3"/>
  <circle cx="300.5" cy="60.5" r="3"/>
 </g>
 <g fill="none" stroke-linecap="round" stroke-linejoin="round" stroke-width="1px">
  <g stroke="#ccc">
   <path d="m250.5 92.5 50-32"/>
   <path d="m282.5 92.5 50-32"/>
   <path d="m282.5 60.5 50-32"/>
   <path d="m250.5 60.5 50-32"/>
  </g>
  <path d="m360.69 94.84v-16" stroke="#00c947"/>
  <path d="m376.69 94.84h-16" stroke="#d60022"/>
  <path d="m372 106.15-11.314-11.314" stroke="#0075ff"/>
  <path d="m374.55 86.84-13.856 8" stroke="#ccc"/>
 </g>
 <g stroke-linecap="round" stroke-linejoin="round">
  <path d="m368.61 13.588c0.064-0.10666 0.14933-0.24533 0.256-0.416 0.11733-0.18133 0.23466-0.36266 0.352-0.544 0.11733-0.18132 0.22399-0.34666 0.32-0.496 0.096-0.15999 0.17066-0.27732 0.224-0.352l1.744-2.608h1.824l-3.76 5.344 4.208 5.824h-2.032l-2.016-2.912c-0.20267-0.288-0.42134-0.61333-0.656-0.976-0.22401-0.36266-0.41601-0.67733-0.576-0.944-0.17067 0.26667-0.37867 0.58667-0.624 0.96-0.23467 0.36267-0.44267 0.68267-0.624 0.96l-1.968 2.912h-1.92l4.192-5.824-3.888-5.344h1.936l1.824 2.608c0.0533 0.08534 0.13333 0.20801 0.24 0.368 0.10666 0.14934 0.21866 0.31468 0.336 0.496 0.11733 0.17067 0.22933 0.34667 0.336 0.528 0.11733 0.17067 0.20799 0.30934 0.272 0.416" fill="#d60022"/>
  <path d="m372.88 45.16c-0.91734 1.312-1.7173 2.4533-2.4 3.424-0.67201 0.97067-1.2427 1.792-1.712 2.464-0.46934 0.672-0.848 1.2053-1.136 1.6-0.27734 0.384-0.48 0.656-0.608 0.816h6v1.376h-7.776v-1.36c0.77867-1.1307 1.504-2.1813 2.176-3.152 0.68266-0.98133 1.28-1.84 1.792-2.576 0.52266-0.74666 0.94933-1.3547 1.28-1.824 0.34133-0.46932 0.56533-0.76799 0.672-0.896h-5.76v-1.36h7.472v1.488" fill="#0075ff"/>
  <path d="m365.79 27.672 1.472 2.256c0.11733 0.18134 0.256 0.40534 0.416 0.672 0.17066 0.26668 0.34133 0.53867 0.512 0.816 0.18133 0.26667 0.34666 0.52801 0.496 0.784 0.15999 0.24534 0.28266 0.43734 0.368 0.576h0.032c0.0853-0.13866 0.20266-0.33066 0.352-0.576 0.15999-0.25599 0.32533-0.52266 0.496-0.8 0.17066-0.27733 0.33599-0.54932 0.496-0.816 0.17066-0.26666 0.31466-0.48532 0.432-0.656l1.44-2.256h1.92l-4.368 6.448v4.72h-1.616v-4.688l-4.416-6.48h1.968" fill="#00c947"/>
  <path d="m369.35 62.744c-0.032-0.11732-0.0693-0.25599-0.112-0.416-0.032-0.15999-0.0693-0.32532-0.112-0.496-0.0427-0.18132-0.0853-0.35732-0.128-0.528-0.0427-0.17066-0.0747-0.31999-0.096-0.448h-0.032c-0.0533 0.26668-0.12267 0.58668-0.208 0.96-0.0747 0.36268-0.14401 0.67201-0.208 0.928l-2.08 8.096h-2.064l-3.392-11.168h1.744l2.096 7.488c0.0213 0.08534 0.0587 0.22934 0.112 0.432 0.0533 0.20267 0.10666 0.42667 0.16 0.672 0.064 0.23467 0.12266 0.47467 0.176 0.72 0.0533 0.24534 0.096 0.448 0.128 0.608h0.032c0.032-0.16 0.0747-0.35733 0.128-0.592 0.0533-0.24533 0.10666-0.48533 0.16-0.72 0.064-0.24533 0.12266-0.46933 0.176-0.672 0.0533-0.20266 0.0907-0.352 0.112-0.448l1.856-7.488h2.304l1.904 7.488c0.0213 0.096 0.0533 0.24534 0.096 0.448 0.0533 0.20267 0.10666 0.42667 0.16 0.672 0.064 0.23467 0.12265 0.47467 0.176 0.72 0.0533 0.23467 0.096 0.432 0.128 0.592h0.032c0.032-0.16 0.0747-0.35733 0.128-0.592 0.064-0.23466 0.12265-0.46933 0.176-0.704 0.064-0.24533 0.11732-0.46933 0.16-0.672 0.0533-0.20266 0.096-0.35733 0.128-0.464l2.08-7.488h1.68l-3.456 11.168h-2.032l-2.112-8.096" fill="#ccc"/>
  <path d="m356.71 125.35 0.36-1.98h-0.94v-0.72h1.08l0.27-1.51h-0.94v-0.71h1.07l0.37-2.01h0.84l-0.37 2.01h1.15l0.37-2.01h0.83l-0.37 2.01h0.95v0.71h-1.08l-0.27 1.51h0.94v0.72h-1.07l-0.37 1.98h-0.84l0.37-1.98h-1.15l-0.37 1.98h-0.83m2.76-4.21h-1.15l-0.29 1.51h1.16l0.28-1.51"/>
  <path d="m364.14 118.37c0.58666 1e-5 1.1367 0.0633 1.65 0.19 0.51333 0.12001 0.96 0.32001 1.34 0.6 0.38 0.28001 0.67666 0.64334 0.89 1.09 0.21999 0.44667 0.32999 0.99334 0.33 1.64-1e-5 0.61334-0.11334 1.14-0.34 1.58-0.22 0.43333-0.52 0.79-0.9 1.07s-0.82667 0.48667-1.34 0.62c-0.50667 0.12667-1.05 0.19-1.63 0.19h-1.52v-6.98h1.52m-0.5 6.12h0.38c0.47333 0 0.91-0.0433 1.31-0.13s0.74666-0.23333 1.04-0.44c0.29333-0.20667 0.52-0.47666 0.68-0.81 0.16666-0.33333 0.25-0.75 0.25-1.25 0-0.52666-0.0833-0.96-0.25-1.3-0.16-0.33999-0.38667-0.60999-0.68-0.81-0.29334-0.19999-0.64-0.33666-1.04-0.41-0.4-0.08-0.83667-0.11999-1.31-0.12h-0.38v5.27"/>
  <path d="m370.81 119.33h-1.06v-1.05h1.06v1.05m-0.05 6.02h-0.96001v-5.1h0.96001v5.1"/>
  <path d="m373.4 121.07c0.15333-0.28 0.36666-0.50666 0.64-0.68 0.28-0.17333 0.60333-0.25999 0.97-0.26 0.38 1e-5 0.69 0.0933 0.93 0.28 0.24666 0.18667 0.42666 0.44334 0.54 0.77 0.17333-0.33333 0.39999-0.59 0.68-0.77 0.28666-0.18666 0.62333-0.27999 1.01-0.28 1.12 1e-5 1.68 0.69334 1.68 2.08v3.14h-0.95v-3.14c-1e-5 -0.42-0.08-0.74-0.24-0.96-0.16001-0.22-0.39667-0.33-0.71-0.33-0.21334 0-0.41667 0.06-0.61 0.18-0.18667 0.12-0.33667 0.28334-0.45 0.49-0.0733 0.14-0.13334 0.32-0.18 0.54-0.04 0.21334-0.06 0.47-0.06 0.77v2.45h-0.95v-2.97c0-0.53333-0.07-0.91-0.21-1.13-0.13334-0.22-0.36334-0.33-0.69-0.33-0.23334 0-0.45334 0.0733-0.66 0.22-0.20667 0.14-0.36667 0.33-0.48 0.57-0.14667 0.3-0.22 0.71334-0.22 1.24v2.4h-0.95v-3.59c0-0.27333-3e-3 -0.54-0.01-0.8s-0.02-0.49666-0.04-0.71h0.91c0.0133 0.11334 0.02 0.24667 0.02 0.4 7e-3 0.14667 0.01 0.28667 0.01 0.42h0.02"/>
  <path d="m15.376 116.83c0.92 1e-5 1.616 0.37601 2.088 1.128 0.47199 0.75201 0.70799 1.844 0.708 3.276-6e-6 0.576-0.05201 1.124-0.156 1.644-0.09601 0.52-0.25601 0.976-0.48 1.368-0.224 0.384-0.52 0.692-0.888 0.924-0.36 0.224-0.8 0.336-1.32 0.336-0.528 0-0.972-0.112-1.332-0.336-0.36-0.232-0.652-0.544-0.876-0.936-0.216-0.4-0.376-0.864-0.48-1.392-0.096-0.536-0.144-1.108-0.144-1.716-1e-6 -1.376 0.24-2.436 0.72-3.18 0.48-0.74399 1.2-1.116 2.16-1.116m-0.036 0.984c-0.52 1e-5 -0.92 0.28401-1.2 0.852-0.28 0.56801-0.42 1.392-0.42 2.472-2e-6 1.12 0.14 1.964 0.42 2.532 0.288 0.568 0.696 0.852 1.224 0.852 0.52 0 0.912-0.284 1.176-0.852 0.272-0.568 0.408-1.408 0.408-2.52-5e-6 -1.088-0.14-1.916-0.42-2.484-0.28-0.56799-0.676-0.85199-1.188-0.852"/>
  <path d="m56.408 125.35h-1.2v-4.8c-3e-6 -0.176-3e-6 -0.37199 0-0.588 8e-3 -0.21599 0.012-0.42799 0.012-0.636 8e-3 -0.20799 0.016-0.40399 0.024-0.588 8e-3 -0.18399 0.016-0.33199 0.024-0.444h-0.024c-0.096 0.096-0.216 0.21201-0.36 0.348-0.136 0.12801-0.308 0.28401-0.516 0.468l-0.432 0.372-0.66-0.792 2.052-1.716h1.08v8.376"/>
  <path d="m108.83 117.32c0.328-0.15999 0.676-0.27999 1.044-0.36 0.376-0.088 0.78-0.13199 1.212-0.132 0.4 1e-5 0.764 0.052 1.092 0.156 0.336 0.10401 0.624 0.25601 0.864 0.456 0.23999 0.20001 0.42399 0.44401 0.552 0.732 0.13599 0.28801 0.20399 0.61601 0.204 0.984-1e-5 0.26401-0.04 0.52801-0.12 0.792-0.08 0.26401-0.20801 0.544-0.384 0.84-0.17601 0.288-0.40401 0.6-0.684 0.936-0.28 0.328-0.624 0.696-1.032 1.104-0.344 0.344-0.672 0.644-0.984 0.9-0.312 0.248-0.6 0.464-0.864 0.648v0.024c0.184-8e-3 0.384-0.012 0.6-0.012 0.224-8e-3 0.448-0.012 0.672-0.012 0.224-8e-3 0.44-0.012 0.648-0.012h2.328v0.984h-5.352v-1.2c0.704-0.608 1.304-1.148 1.8-1.62s0.9-0.9 1.212-1.284c0.32-0.384 0.552-0.736 0.696-1.056 0.144-0.31999 0.216-0.63599 0.216-0.948 0-0.24799-0.044-0.45999-0.132-0.636-0.088-0.18399-0.208-0.33599-0.36-0.456-0.144-0.11999-0.32-0.20799-0.528-0.264-0.2-0.056-0.42-0.084-0.66-0.084-0.6 1e-5 -1.236 0.19201-1.908 0.576l-0.132-1.056"/>
  <path d="m182.09 121.47h-0.168c-0.056 0-0.116 4e-3 -0.18 0.012v-0.96c0.064 8e-3 0.12 0.012 0.168 0.012h0.156c0.784 0 1.4-0.12 1.848-0.36 0.456-0.23999 0.684-0.59999 0.684-1.08 0-0.21599-0.044-0.40799-0.132-0.576-0.088-0.16799-0.212-0.30799-0.372-0.42-0.152-0.11199-0.336-0.19599-0.552-0.252-0.208-0.056-0.436-0.084-0.684-0.084-0.312 1e-5 -0.616 0.036-0.912 0.108-0.296 0.064-0.624 0.17601-0.984 0.336l-0.072-1.02c0.328-0.12799 0.664-0.21999 1.008-0.276 0.344-0.056 0.688-0.084 1.032-0.084 0.88 1e-5 1.572 0.19201 2.076 0.576 0.50399 0.38401 0.75599 0.92801 0.756 1.632-1e-5 0.27201-0.056 0.52001-0.168 0.744-0.10401 0.22401-0.25201 0.42001-0.444 0.588-0.18401 0.16-0.408 0.292-0.672 0.396-0.256 0.104-0.536 0.168-0.84 0.192v0.036c0.312 0.024 0.6 0.092 0.864 0.204 0.272 0.104 0.50799 0.248 0.708 0.432 0.19999 0.176 0.35599 0.392 0.468 0.648 0.11199 0.248 0.16799 0.52 0.168 0.816-1e-5 0.36-0.072 0.688-0.216 0.984-0.13601 0.288-0.34001 0.54-0.612 0.756-0.264 0.208-0.588 0.372-0.972 0.492-0.376 0.112-0.804 0.168-1.284 0.168-0.728 0-1.44-0.116-2.136-0.348l0.06-1.068c0.392 0.168 0.744 0.292 1.056 0.372 0.32 0.072 0.648 0.108 0.984 0.108 0.264 0 0.512-0.032 0.744-0.096s0.432-0.16 0.6-0.288c0.176-0.128 0.312-0.288 0.408-0.48 0.104-0.192 0.156-0.42 0.156-0.684 0-0.504-0.216-0.884-0.648-1.14-0.432-0.264-1.064-0.396-1.896-0.396"/>
  <path d="m289.33 122.53h1.116v0.984h-1.116v1.836h-1.128v-1.836h-3.96v-0.984l3.444-5.556h1.644v5.556m-1.128-2.352c0-0.35999 4e-3 -0.75199 0.012-1.176 8e-3 -0.42399 0.02-0.85199 0.036-1.284h-0.024c-0.096 0.20801-0.236 0.48001-0.42 0.816-0.176 0.33601-0.356 0.65201-0.54 0.948l-1.836 3.048h2.772v-2.352"/>
 </g>
</svg>
