<svg id="Layer_1" data-name="Layer 1" xmlns="http://www.w3.org/2000/svg" viewBox="0 0 214.4 189.9"><defs><style>.cls-1{fill:#131312;}.cls-2,.cls-3,.cls-4,.cls-5,.cls-6{fill:none;}.cls-2,.cls-7{stroke:#000;}.cls-2,.cls-3{stroke-width:0.25px;}.cls-3{stroke:#131312;stroke-dasharray:1 1;}.cls-4{stroke:#069;stroke-linecap:round;stroke-width:2px;}.cls-5{stroke:#299951;}.cls-6{stroke:#f90618;}.cls-7{fill:#48a0b5;stroke-width:0.5px;}</style></defs><g id="_Layer_" data-name="&lt;Layer&gt;"><path class="cls-1" d="M62.1,162.2"/><path d="M207.6,144.8l2.7-3.2-1.6-3.1h1.2l.5,1.1a6.12,6.12,0,0,1,.5,1.2l1.8-2.3H214l-2.6,3.1,1.6,3.1h-1.2l-.6-1.3a9.25,9.25,0,0,0-.5-1l-1.9,2.3h-1.2Z"/><path d="M50.9,9,51,8a1.27,1.27,0,0,0,.6.1.75.75,0,0,0,.5-.1,2.17,2.17,0,0,0,.6-.7l.3-.6L52,.5h1l.5,3.1a11.08,11.08,0,0,1,.2,1.9l2.8-5h1.1l-4,7a6.38,6.38,0,0,1-1,1.4,1.21,1.21,0,0,1-1,.3A6.37,6.37,0,0,0,50.9,9Z"/><line class="cls-2" y1="135.2" x2="208.2" y2="135.2"/><path d="M206.9,135.2l-1.6-2.7.1-.1,4.4,1.8c1.5.3,3.1.7,4.6,1-1.5.3-3.1.7-4.6,1l-4.4,1.8h-.1Z"/><line class="cls-2" x1="62" y1="189.9" x2="62" y2="6.1"/><path d="M62,7.4,59.3,9l-.1-.1L61,4.6c.3-1.5.7-3.1,1-4.6.3,1.5.7,3.1,1,4.6L64.8,9v.1Z"/><line class="cls-3" x1="155.3" y1="76.3" x2="155.3" y2="135.1"/><line class="cls-3" x1="155.2" y1="76.3" x2="62.3" y2="76.3"/><path class="cls-4" d="M22.7,162.2C93,144.9,152.3,120.6,173,24.2"/><line class="cls-5" x1="184" y1="21.9" x2="123.8" y2="135.3"/><line class="cls-6" x1="187" y1="43.8" x2="110.1" y2="135.1"/><line class="cls-3" x1="124.2" y1="116.5" x2="61.8" y2="116.5"/><line class="cls-3" x1="124" y1="116.2" x2="124" y2="135.1"/><line class="cls-3" x1="110.1" y1="127.4" x2="110.1" y2="135.4"/><line class="cls-3" x1="110.5" y1="127.5" x2="61.8" y2="127.5"/><circle class="cls-7" cx="155.2" cy="76.2" r="1.9"/><circle class="cls-7" cx="124" cy="116.4" r="1.9"/><circle class="cls-7" cx="110" cy="127.9" r="1.9"/><path d="M151.8,144.6l2.7-3.2-1.6-3.1h1.2l.5,1.1a6.12,6.12,0,0,1,.5,1.2l1.8-2.3h1.3l-2.6,3.1,1.6,3.1H156l-.6-1.3a9.25,9.25,0,0,0-.5-1l-1.9,2.3h-1.2Z"/><path d="M158.2,145a6.27,6.27,0,0,1,.2-1.6,2.07,2.07,0,0,1,.6-1,1.21,1.21,0,0,1,1-.3,1.88,1.88,0,0,1,.8.2,2.65,2.65,0,0,1,.6.5,1.88,1.88,0,0,1,.4.9,5.72,5.72,0,0,1,.1,1.4,6.27,6.27,0,0,1-.2,1.6,2.07,2.07,0,0,1-.6,1,1.21,1.21,0,0,1-1,.3,1.49,1.49,0,0,1-1.3-.6A3.84,3.84,0,0,1,158.2,145Zm.8,0a4.09,4.09,0,0,0,.3,1.9.89.89,0,0,0,1.6,0,3.82,3.82,0,0,0,.3-1.9,4.09,4.09,0,0,0-.3-1.9,1,1,0,0,0-.8-.5.91.91,0,0,0-.8.4A4.92,4.92,0,0,0,159,145Z"/><path d="M40.7,79.3l1.1-5.4h-.9l.2-.8H42l.2-.9a6.21,6.21,0,0,1,.3-1,1.21,1.21,0,0,1,.5-.5,2,2,0,0,1,.9-.2,7.38,7.38,0,0,1,1.2.2l-.2.9a3.44,3.44,0,0,0-.9-.1.76.76,0,0,0-.5.2,1.54,1.54,0,0,0-.3.7l-.1.7h1.2l-.2.8H42.9l-1.1,5.4Z"/><path d="M46.3,81.9a9.34,9.34,0,0,1-1.5-2.6,8.15,8.15,0,0,1-.6-3.1,8.57,8.57,0,0,1,.5-2.7,14.59,14.59,0,0,1,1.6-3h.8a9.72,9.72,0,0,0-.9,1.7c-.2.5-.4,1.1-.6,1.7a8.33,8.33,0,0,0-.3,2.2,10,10,0,0,0,1.8,5.6h-.8Z"/><path d="M47.5,79.3l2.7-3.2L48.6,73h1.2l.5,1.1a6.12,6.12,0,0,1,.5,1.2L52.6,73h1.3l-2.6,3.3,1.6,3.1H51.7l-.6-1.3a9.25,9.25,0,0,0-.5-1l-1.8,2.2Z"/><path d="M58.3,81.9h-.8a10.55,10.55,0,0,0,1.8-5.6,8.33,8.33,0,0,0-.3-2.2,5.78,5.78,0,0,0-.6-1.7c-.2-.4-.5-.9-.9-1.8h.8a11,11,0,0,1,1.6,3,7.93,7.93,0,0,1-.1,5.8A10.37,10.37,0,0,1,58.3,81.9Z"/><path d="M53.6,79a6.27,6.27,0,0,1,.2-1.6,2.07,2.07,0,0,1,.6-1,1.21,1.21,0,0,1,1-.3,1.88,1.88,0,0,1,.8.2,2.65,2.65,0,0,1,.6.5,1.88,1.88,0,0,1,.4.9,5.72,5.72,0,0,1,.1,1.4,6.27,6.27,0,0,1-.2,1.6,2.07,2.07,0,0,1-.6,1,1.21,1.21,0,0,1-1,.3,1.49,1.49,0,0,1-1.3-.6A3.84,3.84,0,0,1,53.6,79Zm.7,0a4.09,4.09,0,0,0,.3,1.9.89.89,0,0,0,1.6,0,3.82,3.82,0,0,0,.3-1.9,4.09,4.09,0,0,0-.3-1.9,1,1,0,0,0-.8-.5.91.91,0,0,0-.8.4A7.66,7.66,0,0,0,54.3,79Z"/><path d="M40.7,117.8l1.1-5.4h-.9l.2-.8H42l.2-.9a6.21,6.21,0,0,1,.3-1,1.21,1.21,0,0,1,.5-.5,2,2,0,0,1,.9-.2,7.38,7.38,0,0,1,1.2.2l-.2.9a3.44,3.44,0,0,0-.9-.1.76.76,0,0,0-.5.2,1.54,1.54,0,0,0-.3.7l-.1.7h1.2l-.2.8H42.9l-1.1,5.4Z"/><path d="M46.3,120.4a9.34,9.34,0,0,1-1.5-2.6,8.15,8.15,0,0,1-.6-3.1,8.57,8.57,0,0,1,.5-2.7,14.59,14.59,0,0,1,1.6-3h.8a9.72,9.72,0,0,0-.9,1.7c-.2.5-.4,1.1-.6,1.7a8.33,8.33,0,0,0-.3,2.2,10,10,0,0,0,1.8,5.6h-.8Z"/><path d="M47.5,117.8l2.7-3.2-1.6-3.1h1.2l.5,1.1a6.12,6.12,0,0,1,.5,1.2l1.8-2.3h1.3l-2.6,3.1,1.6,3.1H51.7l-.6-1.3a9.25,9.25,0,0,0-.5-1l-1.9,2.3H47.5Z"/><path d="M58.3,120.4h-.8a10.55,10.55,0,0,0,1.8-5.6,8.33,8.33,0,0,0-.3-2.2,5.78,5.78,0,0,0-.6-1.7c-.2-.4-.5-.9-.9-1.8h.8a11,11,0,0,1,1.6,3,7.93,7.93,0,0,1-.1,5.8A10.37,10.37,0,0,1,58.3,120.4Z"/><path d="M56,120.5h-.7V116a4.23,4.23,0,0,1-.7.5,5.74,5.74,0,0,1-.7.4v-.7a3.59,3.59,0,0,0,1-.7,2.1,2.1,0,0,0,.6-.8H56Z"/><path d="M120.6,144.6l2.7-3.2-1.6-3.1h1.2l.5,1.1a6.12,6.12,0,0,1,.5,1.2l1.8-2.3H127l-2.6,3.1,1.6,3.1h-1.2l-.6-1.3a9.25,9.25,0,0,0-.5-1l-1.9,2.3h-1.2Z"/><path d="M129.3,147.8h-.7v-4.5a4.23,4.23,0,0,1-.7.5,5.74,5.74,0,0,1-.7.4v-.7a3.59,3.59,0,0,0,1-.7,2.1,2.1,0,0,0,.6-.8h.5v5.8Z"/><path d="M106.5,144.6l2.7-3.2-1.6-3.1h1.2l.5,1.1a6.12,6.12,0,0,1,.5,1.2l1.8-2.3h1.3l-2.6,3.1,1.6,3.1h-1.2l-.6-1.3a9.25,9.25,0,0,0-.5-1l-1.9,2.3h-1.2Z"/><path d="M116.9,147.2v.7h-3.8a.9.9,0,0,1,.1-.5,3.51,3.51,0,0,1,.5-.8,7.53,7.53,0,0,1,.9-.9c.6-.5,1-.9,1.3-1.2a1,1,0,0,0,.3-.8.91.91,0,0,0-.3-.7,1.1,1.1,0,0,0-1.9.8l-.7-.1a1.43,1.43,0,0,1,.6-1.2,2,2,0,0,1,1.3-.4,1.9,1.9,0,0,1,1.3.5,1.61,1.61,0,0,1,.5,1.1,1.7,1.7,0,0,1-.1.7,1.53,1.53,0,0,1-.5.7c-.3.2-.6.6-1.1,1s-.7.6-.8.7-.2.3-.3.4Z"/><path d="M40.7,131.5l1.1-5.4h-.9l.2-.8H42l.2-.9a6.21,6.21,0,0,1,.3-1,1.21,1.21,0,0,1,.5-.5,2,2,0,0,1,.9-.2,7.38,7.38,0,0,1,1.2.2l-.2.9a3.44,3.44,0,0,0-.9-.1.76.76,0,0,0-.5.2,1.54,1.54,0,0,0-.3.7l-.1.7h1.2l-.2.8H42.9l-1.1,5.4Z"/><path d="M46.3,134a9.34,9.34,0,0,1-1.5-2.6,8.15,8.15,0,0,1-.6-3.1,8.57,8.57,0,0,1,.5-2.7,14.59,14.59,0,0,1,1.6-3h.8a9.72,9.72,0,0,0-.9,1.7c-.2.5-.4,1.1-.6,1.7a8.33,8.33,0,0,0-.3,2.2,10,10,0,0,0,1.8,5.6h-.8Z"/><path d="M47.5,131.5l2.7-3.2-1.6-3.1h1.2l.5,1.1a6.12,6.12,0,0,1,.5,1.2l1.8-2.3h1.3l-2.6,3.1,1.6,3.1H51.7l-.6-1.3a9.25,9.25,0,0,0-.5-1l-1.9,2.3H47.5Z"/><path d="M58.3,134h-.8a10.55,10.55,0,0,0,1.8-5.6,8.33,8.33,0,0,0-.3-2.2,5.78,5.78,0,0,0-.6-1.7c-.2-.4-.5-.9-.9-1.8h.8a11,11,0,0,1,1.6,3,7.93,7.93,0,0,1-.1,5.8A8.74,8.74,0,0,1,58.3,134Z"/><path d="M57.2,133.8v.7H53.4a.9.9,0,0,1,.1-.5,3.51,3.51,0,0,1,.5-.8,7.53,7.53,0,0,1,.9-.9c.6-.5,1-.9,1.3-1.2a1,1,0,0,0,.3-.8.91.91,0,0,0-.3-.7,1.1,1.1,0,0,0-1.9.8l-.7-.1a1.43,1.43,0,0,1,.6-1.2,2,2,0,0,1,1.3-.4,1.9,1.9,0,0,1,1.3.5,1.61,1.61,0,0,1,.5,1.1,1.7,1.7,0,0,1-.1.7,1.53,1.53,0,0,1-.5.7c-.3.2-.6.6-1.1,1s-.7.6-.8.7-.2.3-.3.4Z"/><path d="M98.9,142.8l1.1.1a3,3,0,0,1-2.8,2.3,1.86,1.86,0,0,1-1.6-.7,2.61,2.61,0,0,1-.6-1.8,4.77,4.77,0,0,1,.4-2,3.09,3.09,0,0,1,1.2-1.5,3.37,3.37,0,0,1,1.7-.5,2.11,2.11,0,0,1,1.6.6,2,2,0,0,1,.6,1.5l-1,.1a1.06,1.06,0,0,0-1.2-1.2,1.5,1.5,0,0,0-1.1.4,2.4,2.4,0,0,0-.7,1.2,9,9,0,0,0-.3,1.6,1.59,1.59,0,0,0,.4,1.2,1.09,1.09,0,0,0,.9.4,1.28,1.28,0,0,0,1-.4C98.8,143.8,98.7,143.4,98.9,142.8Z"/><circle class="cls-7" cx="97.8" cy="135.4" r="1.9"/></g></svg>