<?xml version="1.0" encoding="UTF-8" standalone="no"?>
<!-- Created with Inkscape (http://www.inkscape.org/) -->
<svg
   xmlns:svg="http://www.w3.org/2000/svg"
   xmlns="http://www.w3.org/2000/svg"
   version="1.0"
   width="300"
   height="400"
   id="svg2">
  <defs
     id="defs4" />
  <g
     id="layer1">
    <rect
       width="92"
       height="346"
       x="5"
       y="42"
       style="fill:#c8c8c8;fill-opacity:1;stroke:none;stroke-width:1;stroke-miterlimit:4;stroke-dasharray:none;stroke-opacity:1"
       id="rect3884" />
    <path
       d="M 96,42 L 96,388.05882"
       style="fill:none;fill-rule:evenodd;stroke:#000000;stroke-width:3;stroke-linecap:butt;stroke-linejoin:miter;stroke-miterlimit:4;stroke-dasharray:none;stroke-opacity:1"
       id="path2164" />
    <path
       d="M 5.5362296,42 L 5.5362296,388.05882"
       style="fill:none;fill-rule:evenodd;stroke:#000000;stroke-width:3;stroke-linecap:butt;stroke-linejoin:miter;stroke-miterlimit:4;stroke-dasharray:none;stroke-opacity:1"
       id="path3136" />
    <path
       d="M 50.768115,42 L 50.768115,388.05882"
       style="fill:none;fill-rule:evenodd;stroke:#000000;stroke-width:2;stroke-linecap:butt;stroke-linejoin:miter;stroke-miterlimit:4;stroke-dasharray:6, 6;stroke-dashoffset:0;stroke-opacity:1"
       id="path3149" />
    <g
       transform="translate(96,0)"
       id="g4135">
      <rect
         width="92"
         height="346"
         x="9"
         y="42"
         style="opacity:1;fill:#c8c8c8;fill-opacity:1;stroke:none;stroke-width:1;stroke-miterlimit:4;stroke-dasharray:none;stroke-opacity:1"
         id="rect4137" />
      <path
         d="M 100,42 L 100,388.05882"
         style="fill:none;fill-rule:evenodd;stroke:#000000;stroke-width:3;stroke-linecap:butt;stroke-linejoin:miter;stroke-miterlimit:4;stroke-dasharray:none;stroke-opacity:1"
         id="path4139" />
      <path
         d="M 9.5362296,42 L 9.5362296,388.05882"
         style="fill:none;fill-rule:evenodd;stroke:#000000;stroke-width:3;stroke-linecap:butt;stroke-linejoin:miter;stroke-miterlimit:4;stroke-dasharray:none;stroke-opacity:1"
         id="path4141" />
    </g>
    <path
       d="M 150.76812,42 L 150.76812,388.05882"
       style="fill:none;fill-rule:evenodd;stroke:#000000;stroke-width:2;stroke-linecap:butt;stroke-linejoin:miter;stroke-miterlimit:4;stroke-dasharray:6, 6;stroke-dashoffset:0;stroke-opacity:1"
       id="path4147" />
    <g
       transform="translate(196,0)"
       id="g4159">
      <rect
         width="92"
         height="346"
         x="9"
         y="42"
         style="opacity:1;fill:#c8c8c8;fill-opacity:1;stroke:none;stroke-width:1;stroke-miterlimit:4;stroke-dasharray:none;stroke-opacity:1"
         id="rect4161" />
      <path
         d="M 100,42 L 100,388.05882"
         style="fill:none;fill-rule:evenodd;stroke:#000000;stroke-width:3;stroke-linecap:butt;stroke-linejoin:miter;stroke-miterlimit:4;stroke-dasharray:none;stroke-opacity:1"
         id="path4163" />
      <path
         d="M 9.5362296,42 L 9.5362296,388.05882"
         style="fill:none;fill-rule:evenodd;stroke:#000000;stroke-width:3;stroke-linecap:butt;stroke-linejoin:miter;stroke-miterlimit:4;stroke-dasharray:none;stroke-opacity:1"
         id="path4165" />
    </g>
    <path
       d="M 250.76812,42 L 250.76812,388.05882"
       style="fill:none;fill-rule:evenodd;stroke:#000000;stroke-width:2;stroke-linecap:butt;stroke-linejoin:miter;stroke-miterlimit:4;stroke-dasharray:6, 6;stroke-dashoffset:0;stroke-opacity:1"
       id="path4171" />
    <path
       d="M 250.20272,43.235676 C 254.25348,47.74652 258.303,52.257104 262.33919,57.003902 C 265.64547,60.892299 268.95103,64.950873 272.22087,69.400384 C 275.48924,73.852237 278.74771,78.562226 281.86559,84.591152 C 283.75447,88.243594 285.63819,92.289627 287.19744,98.003738 C 288.10015,101.31185 288.89005,105.29894 289.01027,110.1462 C 289.114,114.32881 288.6979,117.81732 288.09793,120.8661 C 287.10889,125.89198 285.80866,129.42321 284.47227,132.60212 C 281.88036,138.76758 279.10561,143.29931 276.30862,147.53886 C 272.87096,152.74951 269.3793,157.23375 265.87005,161.51031 C 261.61871,166.69123 257.34445,171.50521 253.0677,176.29464 C 248.93926,180.91796 244.80702,185.50264 240.68513,190.26608 C 236.22381,195.42179 231.77978,200.70541 227.38727,206.80064 C 224.37576,210.97955 221.38276,215.4287 218.5101,221.02205 C 216.61748,224.70717 214.72599,228.80142 213.167,234.58146 C 212.2767,237.88229 211.50939,241.81717 211.39529,246.66144 C 211.2955,250.89789 211.72257,254.39057 212.33499,257.4682 C 213.29423,262.28874 214.54956,265.72619 215.83387,268.8354 C 217.93598,273.92441 220.17122,277.84691 222.43268,281.47727 C 225.98771,287.18417 229.61365,291.96334 233.26226,296.51461 C 237.96509,302.38247 242.70467,307.74964 247.44437,313.08117 C 252.05865,318.27162 256.67944,323.39168 261.28466,328.78101 C 265.44889,333.65428 269.60627,338.70098 273.70194,344.48085 C 276.77827,348.8222 279.84309,353.46712 282.75423,359.46739 C 284.38774,362.83424 286.0091,366.60432 287.35147,371.75157 C 288.13059,374.73865 288.78397,378.24676 288.97472,382.35414"
       style="fill:none;stroke:#ff0000;stroke-width:1.99999964;stroke-miterlimit:4;stroke-dasharray:none;stroke-opacity:1"
       id="path4600" />
    <path
       d="M 4.4096305,386.65825 L 96.585525,386.56496"
       style="fill:none;fill-rule:evenodd;stroke:#000000;stroke-width:3;stroke-linecap:butt;stroke-linejoin:miter;stroke-miterlimit:4;stroke-dasharray:none;stroke-opacity:1"
       id="path4605" />
    <path
       d="M 104.40963,386.65825 L 196.58553,386.56496"
       style="fill:none;fill-rule:evenodd;stroke:#000000;stroke-width:3;stroke-linecap:butt;stroke-linejoin:miter;stroke-miterlimit:4;stroke-dasharray:none;stroke-opacity:1"
       id="path4607" />
    <path
       d="M 204.40963,386.65825 L 296.58553,386.56496"
       style="fill:none;fill-rule:evenodd;stroke:#000000;stroke-width:3;stroke-linecap:butt;stroke-linejoin:miter;stroke-miterlimit:4;stroke-dasharray:none;stroke-opacity:1"
       id="path4609" />
    <path
       d="M 150.9308,39.715658 C 154.59988,47.354748 158.26784,54.9934 161.92371,63.032078 C 164.91846,69.61706 167.91256,76.490234 170.8743,84.025458 C 173.8347,91.564656 176.78614,99.540989 179.61024,109.75096 C 181.32114,115.93634 183.02736,122.78828 184.4397,132.46509 C 185.25735,138.06737 185.97282,144.81948 186.08171,153.0283 C 186.17567,160.11153 185.79878,166.01929 185.25534,171.18239 C 184.35949,179.69369 183.18178,185.67381 181.97131,191.05728 C 179.62362,201.49846 177.11032,209.17291 174.57688,216.35258 C 171.46313,225.17679 168.30047,232.77082 165.12188,240.01315 C 161.27112,248.78702 157.39961,256.93946 153.52583,265.05034 C 149.78639,272.87992 146.04351,280.64404 142.31001,288.71091 C 138.26906,297.44207 134.24376,306.38987 130.26514,316.71211 C 127.53738,323.78906 124.8264,331.32367 122.22442,340.79599 C 120.51013,347.03673 118.79687,353.9703 117.38477,363.75879 C 116.57836,369.34872 115.88335,376.01244 115.78,384.21615"
       style="fill:none;stroke:#ff0000;stroke-width:2.00000024;stroke-miterlimit:4;stroke-dasharray:none;stroke-opacity:1"
       id="path4615" />
    <path
       d="M 50.212598,45.937997 C 54.496173,68.736022 58.839226,91.874417 63.046595,115.52328 C 66.603697,135.51711 70.040098,155.68741 73.49622,178.17571 C 76.954083,200.67534 80.44288,224.89327 83.695259,254.95061 C 85.737401,273.82335 87.700067,294.12863 89.333545,322.73848 C 90.303526,339.72738 91.114538,359.62803 91.250564,384.10707"
       style="fill:none;stroke:#ff0000;stroke-width:2;stroke-miterlimit:4;stroke-dasharray:none;stroke-opacity:1"
       id="path4621" />
    <g
       transform="matrix(0,2.2309756,-2.2309756,0,73.086552,3.9290947)"
       id="g5893">
      <path
         d="M 0.1445738,5.3374837 L 5.3671196,5.3374837 L 11.286006,0.281579 L 11.286006,19.726203 L 5.3671196,14.6707 L 0.1445738,14.6707 L 0.1445738,5.3374837 z "
         style="fill:#000000;fill-opacity:1;stroke:#000000;stroke-width:0;stroke-linecap:butt;stroke-linejoin:miter;stroke-miterlimit:4;stroke-dashoffset:1009.13382508;stroke-opacity:0"
         id="path1339" />
      <path
         d="M 13.875369,2.2356528 C 16.393175,2.2398312 19.077205,5.6145732 19.076305,10.00902 C 19.075405,14.403465 16.420605,17.965361 13.902798,17.966425"
         style="opacity:1;fill:#000000;fill-opacity:0;stroke:#000000;stroke-width:1.13;stroke-linecap:butt;stroke-linejoin:miter;stroke-miterlimit:4;stroke-dasharray:none;stroke-dashoffset:1009.13382508;stroke-opacity:1"
         id="path1341" />
      <path
         d="M 13.24173,5.5941314 C 14.455764,5.5965039 15.76579,7.5713146 15.765356,10.006085 C 15.764923,12.440788 14.454193,14.414241 13.240156,14.414852"
         style="opacity:1;fill:#000000;fill-opacity:0;stroke:#000000;stroke-width:0.935;stroke-linecap:butt;stroke-linejoin:miter;stroke-miterlimit:4;stroke-dasharray:none;stroke-dashoffset:1009.13382508;stroke-opacity:1"
         id="path1343" />
    </g>
    <g
       transform="matrix(0,2.2309756,-2.2309756,0,173.08655,3.9290947)"
       id="g4149">
      <path
         d="M 0.1445738,5.3374837 L 5.3671196,5.3374837 L 11.286006,0.281579 L 11.286006,19.726203 L 5.3671196,14.6707 L 0.1445738,14.6707 L 0.1445738,5.3374837 z "
         style="fill:#000000;fill-opacity:1;stroke:#000000;stroke-width:0;stroke-linecap:butt;stroke-linejoin:miter;stroke-miterlimit:4;stroke-dashoffset:1009.13382508;stroke-opacity:0"
         id="path4151" />
      <path
         d="M 13.875369,2.2356528 C 16.393175,2.2398312 19.077205,5.6145732 19.076305,10.00902 C 19.075405,14.403465 16.420605,17.965361 13.902798,17.966425"
         style="opacity:1;fill:#000000;fill-opacity:0;stroke:#000000;stroke-width:1.13;stroke-linecap:butt;stroke-linejoin:miter;stroke-miterlimit:4;stroke-dasharray:none;stroke-dashoffset:1009.13382508;stroke-opacity:1"
         id="path4153" />
      <path
         d="M 13.24173,5.5941314 C 14.455764,5.5965039 15.76579,7.5713146 15.765356,10.006085 C 15.764923,12.440788 14.454193,14.414241 13.240156,14.414852"
         style="opacity:1;fill:#000000;fill-opacity:0;stroke:#000000;stroke-width:0.935;stroke-linecap:butt;stroke-linejoin:miter;stroke-miterlimit:4;stroke-dasharray:none;stroke-dashoffset:1009.13382508;stroke-opacity:1"
         id="path4155" />
    </g>
    <g
       transform="matrix(0,2.2309756,-2.2309756,0,273.08655,3.9290947)"
       id="g4173">
      <path
         d="M 0.1445738,5.3374837 L 5.3671196,5.3374837 L 11.286006,0.281579 L 11.286006,19.726203 L 5.3671196,14.6707 L 0.1445738,14.6707 L 0.1445738,5.3374837 z "
         style="fill:#000000;fill-opacity:1;stroke:#000000;stroke-width:0;stroke-linecap:butt;stroke-linejoin:miter;stroke-miterlimit:4;stroke-dashoffset:1009.13382508;stroke-opacity:0"
         id="path4175" />
      <path
         d="M 13.875369,2.2356528 C 16.393175,2.2398312 19.077205,5.6145732 19.076305,10.00902 C 19.075405,14.403465 16.420605,17.965361 13.902798,17.966425"
         style="opacity:1;fill:#000000;fill-opacity:0;stroke:#000000;stroke-width:1.13;stroke-linecap:butt;stroke-linejoin:miter;stroke-miterlimit:4;stroke-dasharray:none;stroke-dashoffset:1009.13382508;stroke-opacity:1"
         id="path4177" />
      <path
         d="M 13.24173,5.5941314 C 14.455764,5.5965039 15.76579,7.5713146 15.765356,10.006085 C 15.764923,12.440788 14.454193,14.414241 13.240156,14.414852"
         style="opacity:1;fill:#000000;fill-opacity:0;stroke:#000000;stroke-width:0.935;stroke-linecap:butt;stroke-linejoin:miter;stroke-miterlimit:4;stroke-dasharray:none;stroke-dashoffset:1009.13382508;stroke-opacity:1"
         id="path4179" />
    </g>
  </g>
</svg>
