<?xml version="1.0" encoding="UTF-8"?>
<!DOCTYPE svg PUBLIC "-//W3C//DTD SVG 1.1//EN" "http://www.w3.org/Graphics/SVG/1.1/DTD/svg11.dtd"><svg version="1.1" viewBox="0 0 29700 21000" preserveAspectRatio="xMidYMid" fill-rule="evenodd" xmlns="http://www.w3.org/2000/svg" xmlns:xlink="http://www.w3.org/1999/xlink"><g visibility="visible" id="Default"><desc>Master slide</desc><g style="stroke:none;fill:none"><rect x="986" y="986" width="27730" height="19030"/></g></g><g visibility="visible" id="page1"><desc>Slide</desc><g><desc>Drawing</desc><g><g style="stroke:none;fill:rgb(0,0,0)"><path d="M 500,7783 L 5141,7783 5141,7833 5141,7883 500,7883 500,7833 500,7783 Z"/><path d="M 5681,7833 L 5006,7608 5006,8058 5681,7833 Z"/></g><g/></g></g><g><desc>Drawing</desc><g><g style="stroke:none;fill:rgb(0,0,0)"><path d="M 500,9079 L 5141,9079 5141,9129 5141,9179 500,9179 500,9129 500,9079 Z"/><path d="M 5681,9129 L 5006,8904 5006,9354 5681,9129 Z"/></g><g/></g></g><g><desc>Drawing</desc><g><g style="stroke:none;fill:rgb(0,0,0)"><path d="M 500,10374 L 5141,10374 5141,10424 5141,10474 500,10474 500,10424 500,10374 Z"/><path d="M 5681,10424 L 5006,10199 5006,10649 5681,10424 Z"/></g><g/></g></g><g><desc>Drawing</desc><g><g style="stroke:none;fill:rgb(0,0,0)"><path d="M 500,11669 L 5141,11669 5141,11719 5141,11769 500,11769 500,11719 500,11669 Z"/><path d="M 5681,11719 L 5006,11494 5006,11944 5681,11719 Z"/></g><g/></g></g><g><desc>Drawing</desc><g><g style="stroke:none;fill:rgb(0,0,0)"><path d="M 500,12965 L 5141,12965 5141,13015 5141,13065 500,13065 500,13015 500,12965 Z"/><path d="M 5681,13015 L 5006,12790 5006,13240 5681,13015 Z"/></g><g/></g></g><g><desc>Drawing</desc><g><g style="stroke:none;fill:rgb(255,255,255)"><path d="M 17966,10398 L 23873,5368 23873,15427 17966,10398 Z M 17966,15427 L 17966,15427 Z M 23874,5368 L 23874,5368 Z"/></g><g style="stroke:none;fill:rgb(0,0,0)"><path d="M 17934,10436 C 17923,10427 17916,10413 17916,10398 17916,10383 17923,10369 17934,10360 L 17966,10398 17934,10436 Z"/><path d="M 17934,10360 L 23841,5330 23873,5368 23905,5406 17998,10436 17966,10398 17934,10360 Z"/><path d="M 23841,5330 C 23849,5322 23861,5318 23873,5318 23901,5318 23923,5340 23923,5368 L 23873,5368 23841,5330 Z"/><path d="M 23923,5368 L 23923,15427 23873,15427 23823,15427 23823,5368 23873,5368 23923,5368 Z"/><path d="M 23923,15427 C 23923,15455 23901,15477 23873,15477 23861,15477 23849,15473 23841,15465 L 23873,15427 23923,15427 Z"/><path d="M 23841,15465 L 17934,10436 17966,10398 17998,10360 23905,15389 23873,15427 23841,15465 Z"/><path d="M 17966,15427 L 17966,15427 17966,15427 17966,15427 17966,15427 17966,15427 17966,15427 Z"/><path d="M 23874,5368 L 23874,5368 23874,5368 23874,5368 23874,5368 23874,5368 23874,5368 Z"/></g><g/></g></g><g><desc>Drawing</desc><g><g style="stroke:none;fill:rgb(0,0,0)"><path d="M 10864,10170 L 16729,10170 16729,10420 16729,10670 10864,10670 10864,10420 10864,10170 Z"/><path d="M 17989,10420 L 16414,9895 16414,10945 17989,10420 Z"/></g><g/></g></g><g><desc>Drawing</desc><g><g style="stroke:none;fill:rgb(255,255,255)"><path d="M 11716,10366 L 5811,15395 5811,5338 11716,10366 Z M 11716,5338 L 11716,5338 Z M 5811,15396 L 5811,15396 Z"/></g><g style="stroke:none;fill:rgb(0,0,0)"><path d="M 11748,10328 C 11759,10337 11766,10351 11766,10366 11766,10381 11759,10395 11748,10404 L 11716,10366 11748,10328 Z"/><path d="M 11748,10404 L 5843,15433 5811,15395 5779,15357 11684,10328 11716,10366 11748,10404 Z"/><path d="M 5843,15433 C 5835,15441 5823,15445 5811,15445 5783,15445 5761,15423 5761,15395 L 5811,15395 5843,15433 Z"/><path d="M 5761,15395 L 5761,5338 5811,5338 5861,5338 5861,15395 5811,15395 5761,15395 Z"/><path d="M 5761,5338 C 5761,5310 5783,5288 5811,5288 5823,5288 5835,5292 5843,5300 L 5811,5338 5761,5338 Z"/><path d="M 5843,5300 L 11748,10328 11716,10366 11684,10404 5779,5376 5811,5338 5843,5300 Z"/><path d="M 11716,5338 L 11716,5338 11716,5338 11716,5338 11716,5338 11716,5338 11716,5338 Z"/><path d="M 5811,15396 L 5811,15396 5811,15396 5811,15396 5811,15396 5811,15396 5811,15396 Z"/></g><g/></g></g><g><desc>Drawing</desc><g><g style="stroke:none;fill:rgb(0,0,0)"><path d="M 23819,7779 L 28460,7779 28460,7829 28460,7879 23819,7879 23819,7829 23819,7779 Z"/><path d="M 29000,7829 L 28325,7604 28325,8054 29000,7829 Z"/></g><g/></g></g><g><desc>Drawing</desc><g><g style="stroke:none;fill:rgb(0,0,0)"><path d="M 23819,9075 L 28460,9075 28460,9125 28460,9175 23819,9175 23819,9125 23819,9075 Z"/><path d="M 29000,9125 L 28325,8900 28325,9350 29000,9125 Z"/></g><g/></g></g><g><desc>Drawing</desc><g><g style="stroke:none;fill:rgb(0,0,0)"><path d="M 23819,10370 L 28460,10370 28460,10420 28460,10470 23819,10470 23819,10420 23819,10370 Z"/><path d="M 29000,10420 L 28325,10195 28325,10645 29000,10420 Z"/></g><g/></g></g><g><desc>Drawing</desc><g><g style="stroke:none;fill:rgb(0,0,0)"><path d="M 23819,11666 L 28460,11666 28460,11716 28460,11766 23819,11766 23819,11716 23819,11666 Z"/><path d="M 29000,11716 L 28325,11491 28325,11941 29000,11716 Z"/></g><g/></g></g><g><desc>Drawing</desc><g><g style="stroke:none;fill:rgb(0,0,0)"><path d="M 23819,12961 L 28460,12961 28460,13011 28460,13061 23819,13061 23819,13011 23819,12961 Z"/><path d="M 29000,13011 L 28325,12786 28325,13236 29000,13011 Z"/></g><g/></g></g></g></svg>