<svg width="156mm" height="238mm" version="1.1" viewBox="0 0 156 238" xmlns="http://www.w3.org/2000/svg"><rect width="156" height="238" fill="#fff"/><path d="m70 185c5.452 18-19 38-26 22-4-9-11-11-18-19-17-20 12-27 25-22 10 4 16 9 19 19z" fill="#fa0"/><path d="m48 74 69-70.4 2.6 100" fill="none" stroke="#12d"/><path d="m46 186h6v-6h-6z" fill="#a80"/><path d="m46 180 2-2h6l-2 2" fill="#fd2"/><path d="m52 186 2-2v-6l-2 2" fill="#d85"/>
 <g stroke-width="3"><path d="m53 185 70 48" stroke="#0f0"/><path d="m53 185 47 32" stroke="#f70"/><path d="m54 182 87-24" stroke="#080"/><path d="m54 180 57-68" stroke="#00f"/><path d="m54 180 26-31" stroke="#f0f"/><path d="m51 179 64-169" stroke="#70d"/><path d="m48 87v92" stroke="#000"/></g>
 <path d="m120 104-16 8 7 0 1 7" fill="#00f"/><path d="m104 220-12-15 1 8-7 4" fill="#f70"/><path d="m154 154-19-1 6 5-3 7" fill="#080"/><path d="m87 141-16 9 7 1 2 7" fill="#f0f"/><path d="m117 4-11 14 7-3 4 6" fill="#70d"/><path d="m48 74-6 17 6-4 6 4"/><path d="m129 236-12-14v7l-6 4" fill="#0f0"/><path d="m89 174c4 12 4 21-4 32" fill="none" stroke="#000"/><path d="m86 204.5-1-2.8-1 5.1 5-1.8zm3.297-28.9 3 .4-4-3.4-.8 5.2z"/><path d="m13 217 36-34" fill="#0f0" stroke="#000"/>
 <g font-family="Times" font-size="20px"><text x="6" y="93"><tspan font-weight="bold">J×B</tspan></text>
 <g font-weight="bold"><text x="103" y="216" fill="#0f0">J =<tspan font-style="italic" font-weight="normal"> ρ</tspan>v</text><text x="87" y="159" fill="#f0f">E</text><text x="94" y="208" fill="#f70">v</text><text x="135" y="151" fill="#080">B</text><text x="123" y="21" fill="#70d">f</text><text x="29" y="20" fill="#70d"><tspan font-weight="normal">d</tspan>F = f<tspan font-weight="normal">d<tspan font-style="italic">V</tspan></tspan></text></g>
 <g font-style="italic"><text x="118" y="119" fill="#12d">ρ<tspan font-style="normal" font-weight="bold">E</tspan></text><text x="78" y="197">θ</text><text x="40" y="203" fill="#d50">+ρ</text><text x="2" y="230" fill="#d50"><tspan font-style="normal">d</tspan>q = ρ<tspan font-style="normal">d</tspan>V</text></g></g></svg>