<svg width="185mm" height="224mm" version="1.1" viewBox="0 0 185 224" xmlns="http://www.w3.org/2000/svg"><rect width="185" height="224" fill="#fff"/><circle cx="74" cy="184" r="19" fill="#fa0"/><path d="m74 73 70-71m2.2 100.8-2.2-100.8" fill="none" stroke="#12d"/>
 <g stroke-width="3"><path d="m86.6 192.6 38.8 22.8" stroke="#f70"/><path d="m90 177 77-20" stroke="#080"/><path d="m84 172 53-60" stroke="#00f"/><path d="m84 172 20-23" stroke="#f0f"/><path d="m80 171 62-162" stroke="#70d"/><path d="m74 86v81" stroke="#000"/></g>
 <path d="m146.2 102.8-16.3 7.8 7.1 1.4 1.4 7" fill="#00f"/><path d="m136.7 221.9-11.7-13.7.5 7.2-6.5 3.3" fill="#f70"/><path d="m179 153.6-18-1.4 5.4 4.8-2.3 6.8" fill="#080"/><path d="m112 141-16.3 7.8 7 1.4 1.4 7" fill="#f0f"/><path d="m143.4 2.6-11 14.2 7-2 4.4 5.7" fill="#70d"/><path d="m74 73-6.3 17 6-4 6 4"/><path d="m115.8 174c3.2 12 3.2 20-4 30.3" fill="none" stroke="#000"/><path d="m111.7 204.2-1-2.8-1 5.1 5-1.8zm4-30.3 3 .4-4-3.4-.8 5.2z"/>
 <g font-family="Times" font-size="24px"><text y="92"><tspan font-style="italic">q</tspan>(<tspan font-weight="bold">v×B</tspan><tspan font-weight="normal">)</tspan></text>
 <g font-weight="bold"><text x="113" y="158" fill="#f0f">E</text><text x="135" y="221" fill="#f70">v</text><text x="161" y="150" fill="#080">B</text><text x="149" y="20" fill="#70d">F</text></g>
 <g font-style="italic"><text x="146" y="117" fill="#12d">q<tspan font-style="normal" font-weight="bold">E</tspan></text><text x="119" y="197">θ</text><text x="60" y="189">+q</text></g></g></svg>