<?xml version="1.0" encoding="UTF-8"?>
<svg xmlns="http://www.w3.org/2000/svg" xmlns:xlink="http://www.w3.org/1999/xlink" width="163mm" height="82mm" version="1.1" viewBox="0 0 163 82">
 <defs>
 <linearGradient id="w" x1="28.1" x2="41.9" y1="65.8" y2="70.7" gradientUnits="userSpaceOnUse"><stop stop-color="#3bd3fe" offset="0"/><stop stop-color="#2e72e8" offset=".5"/><stop stop-color="#1a71d2" offset="1"/></linearGradient>
 <linearGradient id="v" x1="41.6" x2="45.3" y1="71.2" y2="80.1" gradientUnits="userSpaceOnUse"><stop stop-color="#1a71d2" offset="0"/><stop stop-color="#2e6fe8" offset=".3"/><stop stop-color="#3bc3fe" offset="1"/></linearGradient>
 <linearGradient id="u" x1="41.6" x2="50.4" y1="63.9" y2="56.37" gradientUnits="userSpaceOnUse"><stop stop-color="#1a71d2" offset="0"/><stop stop-color="#2e67e8" offset=".3"/><stop stop-color="#3bc3fe" offset="1"/> </linearGradient><radialGradient id="n" cx="27.4" cy="66.2" r="25.3" gradientTransform="matrix(1.25 .013-.01 1-6.1-.4)" gradientUnits="userSpaceOnUse"><stop stop-color="#dff" offset="0"/><stop stop-color="#1f99e0" offset="1"/> </radialGradient>
 <radialGradient id="m" cx="45.1" cy="67.7" r="9.9" gradientTransform="matrix(1-.1 .069 .7-4.5 23.8)" gradientUnits="userSpaceOnUse"><stop stop-color="#fff" offset="0"/><stop stop-color="#fff" offset=".8"/><stop stop-color="#a4e4f7" offset="1"/></radialGradient>
 <radialGradient id="l" cx="38.8" cy="71" r="25.3" gradientTransform="matrix(1.273 .027-.027 1.27-5.9-20.1)" gradientUnits="userSpaceOnUse"><stop stop-color="#fff" offset="0"/><stop stop-color="#88d4f2" offset=".8"/><stop stop-color="#fff" stop-opacity="0" offset=".85"/><stop stop-color="#1ff8e0" offset="1"/></radialGradient>
 <radialGradient id="k" cx="38.8" cy="71" r="25.3" gradientTransform="matrix(1.273 .027-.027 1.27 55.7-15.3)" gradientUnits="userSpaceOnUse"><stop stop-color="#fff" offset="0"/><stop stop-color="#fed258" offset=".77"/><stop stop-color="#fff" stop-opacity="0" offset=".88"/><stop stop-color="#1ff8e0" offset="1"/></radialGradient>
 <radialGradient id="j" cx="27.38" cy="66.24" r="25.31" gradientTransform="matrix(1.248 .013-.011 1 55.5 4.5)" gradientUnits="userSpaceOnUse"><stop stop-color="#feff99" offset="0"/><stop stop-color="#ff7f28" offset="1"/> </radialGradient>
 <linearGradient id="t" x1="41.6" x2="45.3" y1="71.2" y2="80.05" gradientTransform="translate(61.6 4.9)" gradientUnits="userSpaceOnUse"><stop stop-color="#ff8628" offset="0"/><stop stop-color="#ff9527" offset=".34"/><stop stop-color="#ff2" offset="1"/></linearGradient>
 <linearGradient id="s" x1="28.1" x2="41.9" y1="65.8" y2="70.66" gradientTransform="translate(61.6 4.9)" gradientUnits="userSpaceOnUse"><stop stop-color="#ff2" offset="0"/><stop stop-color="#ffb725" offset=".45"/><stop stop-color="#ff7f28" offset="1"/></linearGradient>
 <linearGradient id="r" x1="41.6" x2="50.4" y1="63.9" y2="56.4" gradientTransform="translate(61.6 4.9)" gradientUnits="userSpaceOnUse"><stop stop-color="#ff7f28" offset="0"/><stop stop-color="#ff7f28" offset=".34"/><stop stop-color="#ff2" offset="1"/></linearGradient>
 <radialGradient id="i" cx="45.1" cy="67.7" r="10" gradientTransform="matrix(.995-.097 .069 .713 57.1 28.7)" gradientUnits="userSpaceOnUse"><stop stop-color="#fff" offset="0"/><stop stop-color="#ff2" offset=".8"/><stop stop-color="#fee9ad" offset="1"/></radialGradient>
 <radialGradient id="h" cx="38.8" cy="71" r="25.3" gradientTransform="matrix(1.273 .027-.027 1.271 55.7-15.3)" gradientUnits="userSpaceOnUse"><stop stop-color="#fff" offset="0"/><stop stop-color="#ff2a2a" offset=".8"/><stop stop-color="#fff" stop-opacity="0" offset=".85"/><stop stop-color="#1ff8e0" offset="1"/></radialGradient>
 <radialGradient id="g" cx="27.4" cy="66.2" r="25.3" gradientTransform="matrix(1.143 .038-.026 .77 59.4 19.1)" gradientUnits="userSpaceOnUse"><stop stop-color="#faa" offset="0"/><stop stop-color="#ff2728" offset="1"/> </radialGradient>
 <linearGradient id="q" x1="41.6" x2="45.3" y1="71.2" y2="80.1" gradientTransform="translate(61.6 4.9)" gradientUnits="userSpaceOnUse"><stop stop-color="#f00" offset="0"/><stop stop-color="#ff631f" offset=".34"/><stop stop-color="#ff7f28" offset="1"/></linearGradient>
 <linearGradient id="p" x1="28.1" x2="41.9" y1="65.8" y2="70.7" gradientTransform="translate(61.6 4.9)" gradientUnits="userSpaceOnUse"><stop stop-color="#ff7f28" offset="0"/><stop stop-color="#ff581c" offset=".45"/><stop stop-color="#f00" offset="1"/></linearGradient>
 <linearGradient id="o" x1="41.6" x2="54.8" y1="63.9" y2="52" gradientTransform="translate(61.6 4.9)" gradientUnits="userSpaceOnUse"><stop stop-color="#f00" offset="0"/><stop stop-color="#ff7f28" offset=".7"/><stop stop-color="#ff7e29" offset="1"/></linearGradient>
 </defs>
 <rect width="163" height="82" fill="#fff"/>
<g transform="translate(-18-45.5)">
 <g transform="translate(5.8 24.8)">
 <circle cx="41.6" cy="71.2" r="27.5" fill="url(#l)" stroke-width="0"/>
 <circle cx="41.6" cy="71.2" r="25.1" fill="url(#n)"/>
 <path d="m41.6 71.2v-23.2" fill="none" stroke="#000" stroke-width=".3"/>
 <path d="m65 71.2-23.4 0-12.3 9.2c12.1 .1 27.6 .9 35.7-9.2" fill="url(#v)"/>
 <path d="m41.6 71.2v-23.2c-13.2 6.6-12.4 21.7-12.3 32.4z" fill="url(#w)"/>
 <path d="m41.6 71.2h23.4c-3.6-10.1-7.5-18.6-23.4-23.2z" fill="url(#u)"/>
 <path d="m55 71.2c-2-5.6-7.4-11.3-13.4-12.3-4.8 4.9-5.8 10.2-5.2 16.2 6.4 .2 12.1 .8 18.6-3.9z" fill="url(#m)"/>
 <path d="m53.5 71.2c-.6-4.1-7.3-10.8-11.9-11.2-3.2 3.1-4.9 10.1-4.3 14.4 4.3 .5 11.9-.1 16.2-3.2z" fill="#fff" stroke="#f00" stroke-width=".4"/>
 <g id="e" transform="matrix(1.251-.127 .17 .933-20.5 8.2)">
 <path d="m41.7 67.3c-.9 0-1.2-5.3 0-5.3 1.1 .1 1.1 5.4 0 5.3z" fill="none" stroke="#f00" stroke-width=".3"/>
 <path d="m40.3 65.3 .6-1.4 .6 1.3-.6-.3zm2.7-1.1-.6 1.3-.6-1.4 .6 .3z" fill="#f00"/></g>
 <use transform="matrix(.479-.643 .561 .549-15.7 60.1)" xlink:href="#e"/><use transform="matrix(.498 .606-.606 .498 64 8.4)" xlink:href="#e"/><use transform="matrix(.878-.117 .173 .614-3.1 38.1)" xlink:href="#e"/><use transform="matrix(.385-.989 .767 .346-15.4 90.3)" xlink:href="#e"/><use transform="matrix(.484 .695-.695 .484 63.6 11.8)" xlink:href="#e"/></g>
 <g transform="matrix(.894 0 0 .894 16 26)">
 <circle cx="103.2" cy="76" r="27.53" fill="url(#k)" stroke-width="0"/>
 <circle cx="103.2" cy="76" r="25" fill="url(#j)"/>
 <path d="m103.2 76v-23.2" fill="none" stroke="#000" stroke-width=".3"/>
 <path d="m126.6 76h-23.4l-12.3 9.2c12.1 .1 27.6 .9 35.7-9.2" fill="url(#t)"/>
 <path d="m103.2 76v-23.2c-13.2 6.6-12.4 21.7-12.3 32.4z" fill="url(#s)"/>
 <path d="m103.2 76h23.4c-3.6-10.1-7.5-18.6-23.4-23.2z" fill="url(#r)"/>
 <path d="m116.6 76c-2-5.6-7.4-11.3-13.4-12.3-4.8 4.9-5.8 10.2-5.2 16.2 6.4 .2 12.1 .8 18.6-3.9z" fill="url(#i)"/>
 <path d="m115.1 76c-.6-4.1-7.3-10.8-11.9-11.2-3.2 3.1-4.9 10.1-4.3 14.4 4.3 .5 11.9-.1 16.2-3.2z" fill="#fff" stroke="#f00" stroke-width=".4"/></g>
 <g id="a" transform="matrix(1.126-.305 .296 .828 38.7 39.2)">
 <path d="m41.7 67.3c-.9 0-1.2-5.3 0-5.3 1.1 .1 1.1 5.4 0 5.3z" fill="none" stroke="#f00" stroke-width=".3"/>
 <path d="m40.3 65.3 .6-1.4 .6 1.3-.6-.3zm2.7-1.1-.6 1.3-.6-1.4 .6 .3z" fill="#f00"/>
 </g>
 <g style="font-family:'Times New Roman';-inkscape-font-specification:'Times New Roman'">
 <switch><text font-size="12px" text-anchor="middle" id="trsvg9-uk" systemLanguage="uk"><tspan x="100" y="55" id="trsvg1-uk">Теплообмін в зорях</tspan></text><text font-size="12px" text-anchor="middle" id="trsvg9-fr" systemLanguage="fr"><tspan x="100" y="55" id="trsvg1-fr">Transfert de chaleur des étoiles</tspan></text><text font-size="12px" text-anchor="middle" id="trsvg9"><tspan x="100" y="55" id="trsvg1">Heat Transfer of Stars</tspan></text></switch>
 <switch><text font-size="8px" text-anchor="end" id="trsvg10"><tspan x="57" y="67" id="trsvg2">&gt; 1,5 M</tspan><tspan x="168.8" y="67.5" id="trsvg3">&lt; 0,5 M</tspan><tspan x="123" y="67.5" id="trsvg4">0,5-1,5 M</tspan></text></switch>
 <switch><text font-size="6px" id="trsvg11-uk" systemLanguage="uk"><tspan x="138" y="110" id="trsvg5-uk">Зона</tspan><tspan x="138" y="115" id="trsvg6-uk">конвекції</tspan><tspan x="138" y="121" id="trsvg7-uk">Зона променис-</tspan><tspan x="138" y="126" id="trsvg8-uk">того переносу</tspan></text><text font-size="6px" id="trsvg11-fr" systemLanguage="fr"><tspan x="138" y="110" id="trsvg5-fr">zone de</tspan><tspan x="138" y="115" id="trsvg6-fr">convection</tspan><tspan x="138" y="121" id="trsvg7-fr">zone</tspan><tspan x="138" y="126" id="trsvg8-fr">radiative</tspan></text><text font-size="6px" id="trsvg11"><tspan x="138" y="110" id="trsvg5">Convection</tspan><tspan x="138" y="115" id="trsvg6">Zone</tspan><tspan x="138" y="121" id="trsvg7">Radiative</tspan><tspan x="138" y="126" id="trsvg8">Zone</tspan></text></switch> </g>
 <use transform="translate(66)" xlink:href="#f"/><use transform="translate(112)" xlink:href="#f"/>
 <use transform="rotate(30 111 92)" xlink:href="#a"/>
 <use transform="rotate(60 110 91)" xlink:href="#a"/>
 <use transform="rotate(90 110 91)" xlink:href="#a"/>
 <use transform="rotate(120 111 91)" xlink:href="#a"/>
 <use transform="matrix(-.732 .423-.423-.732 232.2 111.1)" xlink:href="#a"/>
 <use transform="matrix(-.854 0 0-.854 206 167)" xlink:href="#a"/>
 <use transform="matrix(-.787-.424 .455-.735 157 203)" xlink:href="#a"/>
 <use transform="matrix(-.447-.774 .774-.447 90 217)" xlink:href="#a"/>
 <use transform="rotate(-90 111.4 91)" xlink:href="#a"/>
 <use transform="rotate(-60 112.5 89.7)" xlink:href="#a"/>
 <use transform="rotate(-30 114.2 88.9)" xlink:href="#a"/>
 <g transform="matrix(.666 0 0 .666 90.3 37.8)">
 <circle cx="103.2" cy="76" r="27" fill="url(#h)" stroke-width="0"/>
 <circle cx="103.2" cy="76" r="25.1" fill="url(#g)"/>
 <path d="m103.2 76v-23.2" fill="none" stroke="#000" stroke-width=".3"/>
 <path d="m126.6 76h-23.4l-12.3 9.2c12.1 .1 27.6 .9 35.7-9.2" fill="url(#q)"/>
 <path d="m103.2 76v-23.2c-13.2 6.6-12.4 21.7-12.3 32.4z" fill="url(#p)"/>
 <path d="m103.2 76h23.4c-3.6-10.1-7.5-18.6-23.4-23.2z" fill="url(#o)"/></g>
 <g id="d" transform="matrix(1.85-.292 .41 1.14 55.8 17.8)">
 <path d="m41.7 67.3c-.9 0-1.2-5.3 0-5.3 1.1 .1 1.1 5.4 0 5.3z" fill="none" stroke="#fff" stroke-width=".3"/>
 <path d="m40.3 65.3 .6-1.4 .6 1.3-.6-.3zm2.7-1.1-.6 1.3-.6-1.4 .6 .3z" fill="#fff"/></g>
 <use transform="rotate(60 159.9 86)" xlink:href="#d"/><use transform="rotate(120 160.9 86.4)" xlink:href="#d"/><use transform="matrix(-.821 0 0-.821 293 156)" xlink:href="#d"/><use transform="matrix(-.441-.767 .767-.441 165 247)" xlink:href="#d"/><use transform="matrix(.411-.866 .712 .5 33 182)" xlink:href="#d"/>
 <g id="b" transform="matrix(0-.651 1 0 11.3 85.1)">
 <path d="m5 36.1h2.2c3.1-6.5 1.7 6.6 4.1 0l2.5 0" fill="none" stroke="#f00" stroke-width=".4"/>
 <path d="m12.3 37.7 .7-1.6-.7-1.6 2.8 1.6z" fill="#f00"/></g>
 <use transform="rotate(60 47.5 92)" xlink:href="#b"/><use transform="rotate(120 49.4 92.9)" xlink:href="#b"/><use transform="matrix(-1 0 0-.704 98.3 157.7)" xlink:href="#b"/><use transform="rotate(240 50.2 92.9)" xlink:href="#b"/><use transform="rotate(-60 52 89.8)" xlink:href="#b"/>
 <g transform="matrix(.297-2 1.524 .104 20.4 185.4)">
 <path d="m41.7 67.3c-.9 0-1.2-5.3 0-5.3 1.1 .1 1.1 5.4 0 5.3z" fill="none" stroke="#f00" stroke-width=".3"/>
 <path d="m40.3 65.3 .6-1.4 .6 1.3-.6-.3zm2.7-1.1-.6 1.3-.6-1.4 .6 .3z" fill="#f00"/></g> 
 <g transform="matrix(.82-.026 .04 1.26 121.6 74.5)">
 <path d="m5 36.1h2.2c3.1-6.6 1.7 6.6 4.1 0l2.5 0" fill="none" stroke="#f00" stroke-width=".4"/>
 <path d="m12.3 37.7 .7-1.6-.7-1.6 2.8 1.6z" fill="#f00"/></g>
 <g id="f" transform="translate(2.6)">
 <circle cx="56.6" cy="67.6" r="2" fill="none" stroke="#000" stroke-width=".4"/><circle cx="56.6" cy="67.6" r=".5"/></g>

  <g transform="matrix(-.402-.046 .061-.535 109.4 110.5)">
   <path d="m6.2 40.6 .7 1.6c9.2 0.1-7.8 3.4 1.3 2.9l.8 1.8" fill="none" stroke="#f00" stroke-width=".4"/>
   <path d="m6.6 46.3 2.2 0 1.8-1-1.1 2.5z" fill="#f00"/>
   <path d="m.7 36.8-1.4 1.2c4.5 6-7.7-3.4-2.7 2.3l-1.6 1.4" fill="none" stroke="#f00" stroke-width=".4"/>
   <path d="m-5.7 39.9 1.1 1.4 2.1 .7-3.4 .5z" fill="#f00"/>
   <path d="m-6.3 34.4-2.2-.3c-4.7 5.9 0-6.7-4-.6l-2.5-.4" fill="none" stroke="#f00" stroke-width=".4"/>
   <path d="m-13 31.8-1.1 1.5 .3 1.7-2.3-2z" fill="#f00"/>
   <path d="m2.6 34.1-1.2-1.4c-8.9 1.6 6.4-4.7-2.2-2.6l-1.4-1.6" fill="none" stroke="#f00" stroke-width=".4"/>
   <path d="m.4 28.7-2.2 .4-1.4 1.3 .3-2.6z" fill="#f00"/>
   <path d="m7.9 31.1 1.4-1.2c-4.5-6 7.7 3.4 2.7-2.3l1.6-1.4" fill="none" stroke="#f00" stroke-width=".4"/>
   <path d="m14.3 28-1.1-1.4-2.1-.7 3.4-.5z" fill="#f00"/>
   <path d="m5 36.1h2.2c3.1-6.5 1.7 6.6 4.1 0h2.5" fill="none" stroke="#f00" stroke-width=".4"/>
   <path d="m12.3 37.7 0.7-1.6-0.7-1.6 2.8 1.6z" fill="#f00"/>
  </g>

</g></svg>