<?xml version="1.0" encoding="UTF-8" standalone="no"?>
<!-- Created with Inkscape (http://www.inkscape.org/) -->

<svg
   xmlns:svg="http://www.w3.org/2000/svg"
   xmlns="http://www.w3.org/2000/svg"
   version="1.1"
   width="600"
   height="600"
   viewBox="0 0 600 600"
   id="Layer_1"
   xml:space="preserve"><defs
   id="defs586" />
<g
   id="Layer_1_1_"
   style="display:none">
	<line
   style="fill:none;stroke:#000000;stroke-width:0.5;display:inline"
   x1="25"
   y1="299.99799"
   x2="575"
   y2="299.99799"
   id="line4" />
	<line
   style="fill:none;stroke:#000000;stroke-width:0.5;display:inline"
   x1="25.042"
   y1="304.797"
   x2="574.95898"
   y2="295.19699"
   id="line6" />
	<line
   style="fill:none;stroke:#000000;stroke-width:0.5;display:inline"
   x1="25.167999"
   y1="309.59601"
   x2="574.83398"
   y2="290.39999"
   id="line8" />
	<line
   style="fill:none;stroke:#000000;stroke-width:0.5;display:inline"
   x1="25.377001"
   y1="314.39099"
   x2="574.625"
   y2="285.60501"
   id="line10" />
	<line
   style="fill:none;stroke:#000000;stroke-width:0.5;display:inline"
   x1="25.67"
   y1="319.18201"
   x2="574.33197"
   y2="280.814"
   id="line12" />
	<line
   style="fill:none;stroke:#000000;stroke-width:0.5;display:inline"
   x1="26.047001"
   y1="323.96701"
   x2="573.95502"
   y2="276.02899"
   id="line14" />
	<line
   style="fill:none;stroke:#000000;stroke-width:0.5;display:inline"
   x1="26.507999"
   y1="328.74399"
   x2="573.49402"
   y2="271.25201"
   id="line16" />
	<line
   style="fill:none;stroke:#000000;stroke-width:0.5;display:inline"
   x1="27.051001"
   y1="333.51401"
   x2="572.95099"
   y2="266.48199"
   id="line18" />
	<line
   style="fill:none;stroke:#000000;stroke-width:0.5;display:inline"
   x1="27.677999"
   y1="338.271"
   x2="572.32397"
   y2="261.72501"
   id="line20" />
	<line
   style="fill:none;stroke:#000000;stroke-width:0.5;display:inline"
   x1="28.386999"
   y1="343.01999"
   x2="571.61499"
   y2="256.97699"
   id="line22" />
	<line
   style="fill:none;stroke:#000000;stroke-width:0.5;display:inline"
   x1="29.18"
   y1="347.75201"
   x2="570.82202"
   y2="252.244"
   id="line24" />
	<line
   style="fill:none;stroke:#000000;stroke-width:0.5;display:inline"
   x1="30.055"
   y1="352.47101"
   x2="569.94702"
   y2="247.52499"
   id="line26" />
	<line
   style="fill:none;stroke:#000000;stroke-width:0.5;display:inline"
   x1="31.011999"
   y1="357.17401"
   x2="568.98999"
   y2="242.823"
   id="line28" />
	<line
   style="fill:none;stroke:#000000;stroke-width:0.5;display:inline"
   x1="32.050999"
   y1="361.85901"
   x2="567.95099"
   y2="238.13499"
   id="line30" />
	<line
   style="fill:none;stroke:#000000;stroke-width:0.5;display:inline"
   x1="33.172001"
   y1="366.52499"
   x2="566.83002"
   y2="233.46899"
   id="line32" />
	<line
   style="fill:none;stroke:#000000;stroke-width:0.5;display:inline"
   x1="34.373001"
   y1="371.172"
   x2="565.62903"
   y2="228.82201"
   id="line34" />
	<line
   style="fill:none;stroke:#000000;stroke-width:0.5;display:inline"
   x1="35.655998"
   y1="375.797"
   x2="564.34601"
   y2="224.19701"
   id="line36" />
	<line
   style="fill:none;stroke:#000000;stroke-width:0.5;display:inline"
   x1="37.02"
   y1="380.39801"
   x2="562.98199"
   y2="219.59599"
   id="line38" />
	<line
   style="fill:none;stroke:#000000;stroke-width:0.5;display:inline"
   x1="38.463001"
   y1="384.97699"
   x2="561.539"
   y2="215.01801"
   id="line40" />
	<line
   style="fill:none;stroke:#000000;stroke-width:0.5;display:inline"
   x1="39.986"
   y1="389.52701"
   x2="560.01599"
   y2="210.467"
   id="line42" />
	<line
   style="fill:none;stroke:#000000;stroke-width:0.5;display:inline"
   x1="41.588001"
   y1="394.05099"
   x2="558.414"
   y2="205.94099"
   id="line44" />
	<line
   style="fill:none;stroke:#000000;stroke-width:0.5;display:inline"
   x1="43.27"
   y1="398.547"
   x2="556.73199"
   y2="201.44501"
   id="line46" />
	<line
   style="fill:none;stroke:#000000;stroke-width:0.5;display:inline"
   x1="45.028999"
   y1="403.01199"
   x2="554.97302"
   y2="196.98"
   id="line48" />
	<line
   style="fill:none;stroke:#000000;stroke-width:0.5;display:inline"
   x1="46.865002"
   y1="407.44699"
   x2="553.13702"
   y2="192.545"
   id="line50" />
	<line
   style="fill:none;stroke:#000000;stroke-width:0.5;display:inline"
   x1="48.778999"
   y1="411.85001"
   x2="551.22302"
   y2="188.145"
   id="line52" />
	<line
   style="fill:none;stroke:#000000;stroke-width:0.5;display:inline"
   x1="50.77"
   y1="416.21701"
   x2="549.23199"
   y2="183.77699"
   id="line54" />
	<line
   style="fill:none;stroke:#000000;stroke-width:0.5;display:inline"
   x1="52.835999"
   y1="420.54901"
   x2="547.16602"
   y2="179.44501"
   id="line56" />
	<line
   style="fill:none;stroke:#000000;stroke-width:0.5;display:inline"
   x1="54.977001"
   y1="424.84399"
   x2="545.02502"
   y2="175.14999"
   id="line58" />
	<line
   style="fill:none;stroke:#000000;stroke-width:0.5;display:inline"
   x1="57.193001"
   y1="429.10199"
   x2="542.80902"
   y2="170.89301"
   id="line60" />
	<line
   style="fill:none;stroke:#000000;stroke-width:0.5;display:inline"
   x1="59.484001"
   y1="433.32001"
   x2="540.51801"
   y2="166.67599"
   id="line62" />
	<line
   style="fill:none;stroke:#000000;stroke-width:0.5;display:inline"
   x1="61.848"
   y1="437.49799"
   x2="538.15399"
   y2="162.498"
   id="line64" />
	<line
   style="fill:none;stroke:#000000;stroke-width:0.5;display:inline"
   x1="64.282997"
   y1="441.633"
   x2="535.71899"
   y2="158.36099"
   id="line66" />
	<line
   style="fill:none;stroke:#000000;stroke-width:0.5;display:inline"
   x1="66.791"
   y1="445.72501"
   x2="533.211"
   y2="154.27"
   id="line68" />
	<line
   style="fill:none;stroke:#000000;stroke-width:0.5;display:inline"
   x1="69.369003"
   y1="449.77301"
   x2="530.633"
   y2="150.22301"
   id="line70" />
	<line
   style="fill:none;stroke:#000000;stroke-width:0.5;display:inline"
   x1="72.017998"
   y1="453.77499"
   x2="527.98401"
   y2="146.22099"
   id="line72" />
	<line
   style="fill:none;stroke:#000000;stroke-width:0.5;display:inline"
   x1="74.736"
   y1="457.73001"
   x2="525.26599"
   y2="142.26601"
   id="line74" />
	<line
   style="fill:none;stroke:#000000;stroke-width:0.5;display:inline"
   x1="77.523003"
   y1="461.63901"
   x2="522.479"
   y2="138.35699"
   id="line76" />
	<line
   style="fill:none;stroke:#000000;stroke-width:0.5;display:inline"
   x1="80.378998"
   y1="465.496"
   x2="519.62299"
   y2="134.5"
   id="line78" />
	<line
   style="fill:none;stroke:#000000;stroke-width:0.5;display:inline"
   x1="83.301003"
   y1="469.30499"
   x2="516.70099"
   y2="130.69099"
   id="line80" />
	<line
   style="fill:none;stroke:#000000;stroke-width:0.5;display:inline"
   x1="86.289001"
   y1="473.061"
   x2="513.71301"
   y2="126.936"
   id="line82" />
	<line
   style="fill:none;stroke:#000000;stroke-width:0.5;display:inline"
   x1="89.342003"
   y1="476.76401"
   x2="510.66"
   y2="123.232"
   id="line84" />
	<line
   style="fill:none;stroke:#000000;stroke-width:0.5;display:inline"
   x1="92.459"
   y1="480.414"
   x2="507.543"
   y2="119.582"
   id="line86" />
	<line
   style="fill:none;stroke:#000000;stroke-width:0.5;display:inline"
   x1="95.639"
   y1="484.008"
   x2="504.36301"
   y2="115.988"
   id="line88" />
	<line
   style="fill:none;stroke:#000000;stroke-width:0.5;display:inline"
   x1="98.880997"
   y1="487.547"
   x2="501.121"
   y2="112.449"
   id="line90" />
	<line
   style="fill:none;stroke:#000000;stroke-width:0.5;display:inline"
   x1="102.186"
   y1="491.02899"
   x2="497.81601"
   y2="108.967"
   id="line92" />
	<line
   style="fill:none;stroke:#000000;stroke-width:0.5;display:inline"
   x1="105.549"
   y1="494.453"
   x2="494.453"
   y2="105.545"
   id="line94" />
	<line
   style="fill:none;stroke:#000000;stroke-width:0.5;display:inline"
   x1="108.973"
   y1="497.81601"
   x2="491.02899"
   y2="102.18"
   id="line96" />
	<line
   style="fill:none;stroke:#000000;stroke-width:0.5;display:inline"
   x1="112.453"
   y1="501.121"
   x2="487.547"
   y2="98.876999"
   id="line98" />
	<line
   style="fill:none;stroke:#000000;stroke-width:0.5;display:inline"
   x1="115.992"
   y1="504.36301"
   x2="484.00699"
   y2="95.635002"
   id="line100" />
	<line
   style="fill:none;stroke:#000000;stroke-width:0.5;display:inline"
   x1="119.586"
   y1="507.543"
   x2="480.414"
   y2="92.454002"
   id="line102" />
	<line
   style="fill:none;stroke:#000000;stroke-width:0.5;display:inline"
   x1="123.236"
   y1="510.66"
   x2="476.76401"
   y2="89.335999"
   id="line104" />
	<line
   style="fill:none;stroke:#000000;stroke-width:0.5;display:inline"
   x1="126.939"
   y1="513.71301"
   x2="473.061"
   y2="86.282997"
   id="line106" />
	<line
   style="fill:none;stroke:#000000;stroke-width:0.5;display:inline"
   x1="130.69501"
   y1="516.70099"
   x2="469.30499"
   y2="83.296997"
   id="line108" />
	<line
   style="fill:none;stroke:#000000;stroke-width:0.5;display:inline"
   x1="134.504"
   y1="519.62299"
   x2="465.496"
   y2="80.375"
   id="line110" />
	<line
   style="fill:none;stroke:#000000;stroke-width:0.5;display:inline"
   x1="138.36099"
   y1="522.479"
   x2="461.63901"
   y2="77.519997"
   id="line112" />
	<line
   style="fill:none;stroke:#000000;stroke-width:0.5;display:inline"
   x1="142.27"
   y1="525.26599"
   x2="457.73001"
   y2="74.732002"
   id="line114" />
	<line
   style="fill:none;stroke:#000000;stroke-width:0.5;display:inline"
   x1="146.22501"
   y1="527.98401"
   x2="453.77499"
   y2="72.014"
   id="line116" />
	<line
   style="fill:none;stroke:#000000;stroke-width:0.5;display:inline"
   x1="150.22701"
   y1="530.633"
   x2="449.77301"
   y2="69.364998"
   id="line118" />
	<line
   style="fill:none;stroke:#000000;stroke-width:0.5;display:inline"
   x1="154.27499"
   y1="533.211"
   x2="445.72501"
   y2="66.785004"
   id="line120" />
	<line
   style="fill:none;stroke:#000000;stroke-width:0.5;display:inline"
   x1="158.367"
   y1="535.71899"
   x2="441.633"
   y2="64.277"
   id="line122" />
	<line
   style="fill:none;stroke:#000000;stroke-width:0.5;display:inline"
   x1="162.502"
   y1="538.15399"
   x2="437.49799"
   y2="61.841999"
   id="line124" />
	<line
   style="fill:none;stroke:#000000;stroke-width:0.5;display:inline"
   x1="166.67999"
   y1="540.51801"
   x2="433.32001"
   y2="59.479"
   id="line126" />
	<line
   style="fill:none;stroke:#000000;stroke-width:0.5;display:inline"
   x1="170.89799"
   y1="542.80902"
   x2="429.10199"
   y2="57.188999"
   id="line128" />
	<line
   style="fill:none;stroke:#000000;stroke-width:0.5;display:inline"
   x1="175.15601"
   y1="545.02502"
   x2="424.84399"
   y2="54.973"
   id="line130" />
	<line
   style="fill:none;stroke:#000000;stroke-width:0.5;display:inline"
   x1="179.451"
   y1="547.16602"
   x2="420.54901"
   y2="52.832001"
   id="line132" />
	<line
   style="fill:none;stroke:#000000;stroke-width:0.5;display:inline"
   x1="183.783"
   y1="549.23199"
   x2="416.21701"
   y2="50.765999"
   id="line134" />
	<line
   style="fill:none;stroke:#000000;stroke-width:0.5;display:inline"
   x1="188.14999"
   y1="551.22302"
   x2="411.85001"
   y2="48.776001"
   id="line136" />
	<line
   style="fill:none;stroke:#000000;stroke-width:0.5;display:inline"
   x1="192.55299"
   y1="553.13702"
   x2="407.44699"
   y2="46.861"
   id="line138" />
	<line
   style="fill:none;stroke:#000000;stroke-width:0.5;display:inline"
   x1="196.98599"
   y1="554.97302"
   x2="403.01401"
   y2="45.022999"
   id="line140" />
	<line
   style="fill:none;stroke:#000000;stroke-width:0.5;display:inline"
   x1="201.451"
   y1="556.73199"
   x2="398.54901"
   y2="43.265999"
   id="line142" />
	<line
   style="fill:none;stroke:#000000;stroke-width:0.5;display:inline"
   x1="205.94701"
   y1="558.414"
   x2="394.052"
   y2="41.584"
   id="line144" />
	<line
   style="fill:none;stroke:#000000;stroke-width:0.5;display:inline"
   x1="210.47099"
   y1="560.01599"
   x2="389.52899"
   y2="39.981998"
   id="line146" />
	<line
   style="fill:none;stroke:#000000;stroke-width:0.5;display:inline"
   x1="215.021"
   y1="561.539"
   x2="384.979"
   y2="38.459"
   id="line148" />
	<line
   style="fill:none;stroke:#000000;stroke-width:0.5;display:inline"
   x1="219.60001"
   y1="562.98199"
   x2="380.39999"
   y2="37.015999"
   id="line150" />
	<line
   style="fill:none;stroke:#000000;stroke-width:0.5;display:inline"
   x1="224.201"
   y1="564.34601"
   x2="375.79901"
   y2="35.652"
   id="line152" />
	<line
   style="fill:none;stroke:#000000;stroke-width:0.5;display:inline"
   x1="228.826"
   y1="565.62903"
   x2="371.17401"
   y2="34.370998"
   id="line154" />
	<line
   style="fill:none;stroke:#000000;stroke-width:0.5;display:inline"
   x1="233.47301"
   y1="566.83002"
   x2="366.52701"
   y2="33.169998"
   id="line156" />
	<line
   style="fill:none;stroke:#000000;stroke-width:0.5;display:inline"
   x1="238.13901"
   y1="567.95099"
   x2="361.86099"
   y2="32.049"
   id="line158" />
	<line
   style="fill:none;stroke:#000000;stroke-width:0.5;display:inline"
   x1="242.82401"
   y1="568.98901"
   x2="357.17599"
   y2="31.01"
   id="line160" />
	<line
   style="fill:none;stroke:#000000;stroke-width:0.5;display:inline"
   x1="247.52699"
   y1="569.94702"
   x2="352.47299"
   y2="30.052999"
   id="line162" />
	<line
   style="fill:none;stroke:#000000;stroke-width:0.5;display:inline"
   x1="252.246"
   y1="570.82202"
   x2="347.75299"
   y2="29.177999"
   id="line164" />
	<line
   style="fill:none;stroke:#000000;stroke-width:0.5;display:inline"
   x1="256.98001"
   y1="571.61499"
   x2="343.01999"
   y2="28.386999"
   id="line166" />
	<line
   style="fill:none;stroke:#000000;stroke-width:0.5;display:inline"
   x1="261.72699"
   y1="572.32397"
   x2="338.27301"
   y2="27.677999"
   id="line168" />
	<line
   style="fill:none;stroke:#000000;stroke-width:0.5;display:inline"
   x1="266.48401"
   y1="572.95099"
   x2="333.51599"
   y2="27.051001"
   id="line170" />
	<line
   style="fill:none;stroke:#000000;stroke-width:0.5;display:inline"
   x1="271.254"
   y1="573.49402"
   x2="328.746"
   y2="26.507999"
   id="line172" />
	<line
   style="fill:none;stroke:#000000;stroke-width:0.5;display:inline"
   x1="276.03101"
   y1="573.95502"
   x2="323.96899"
   y2="26.047001"
   id="line174" />
	<line
   style="fill:none;stroke:#000000;stroke-width:0.5;display:inline"
   x1="280.81601"
   y1="574.33197"
   x2="319.18399"
   y2="25.67"
   id="line176" />
	<line
   style="fill:none;stroke:#000000;stroke-width:0.5;display:inline"
   x1="285.60699"
   y1="574.625"
   x2="314.39301"
   y2="25.377001"
   id="line178" />
	<line
   style="fill:none;stroke:#000000;stroke-width:0.5;display:inline"
   x1="290.40201"
   y1="574.83301"
   x2="309.59698"
   y2="25.167999"
   id="line180" />
	<line
   style="fill:none;stroke:#000000;stroke-width:0.5;display:inline"
   x1="295.20099"
   y1="574.95898"
   x2="304.79901"
   y2="25.042999"
   id="line182" />
	<line
   style="fill:none;stroke:#000000;stroke-width:0.5;display:inline"
   x1="300"
   y1="575"
   x2="300"
   y2="25"
   id="line184" />
	<line
   style="fill:none;stroke:#000000;stroke-width:0.5;display:inline"
   x1="304.79901"
   y1="574.95898"
   x2="295.20099"
   y2="25.042999"
   id="line186" />
	<line
   style="fill:none;stroke:#000000;stroke-width:0.5;display:inline"
   x1="309.59698"
   y1="574.83301"
   x2="290.40201"
   y2="25.167999"
   id="line188" />
	<line
   style="fill:none;stroke:#000000;stroke-width:0.5;display:inline"
   x1="314.39301"
   y1="574.625"
   x2="285.60699"
   y2="25.377001"
   id="line190" />
	<line
   style="fill:none;stroke:#000000;stroke-width:0.5;display:inline"
   x1="319.18399"
   y1="574.33197"
   x2="280.81601"
   y2="25.67"
   id="line192" />
	<line
   style="fill:none;stroke:#000000;stroke-width:0.5;display:inline"
   x1="323.96899"
   y1="573.95502"
   x2="276.03101"
   y2="26.047001"
   id="line194" />
	<line
   style="fill:none;stroke:#000000;stroke-width:0.5;display:inline"
   x1="328.746"
   y1="573.49402"
   x2="271.254"
   y2="26.507999"
   id="line196" />
	<line
   style="fill:none;stroke:#000000;stroke-width:0.5;display:inline"
   x1="333.51599"
   y1="572.95099"
   x2="266.48401"
   y2="27.051001"
   id="line198" />
	<line
   style="fill:none;stroke:#000000;stroke-width:0.5;display:inline"
   x1="338.27301"
   y1="572.32397"
   x2="261.72699"
   y2="27.677999"
   id="line200" />
	<line
   style="fill:none;stroke:#000000;stroke-width:0.5;display:inline"
   x1="343.01999"
   y1="571.61499"
   x2="256.98001"
   y2="28.386999"
   id="line202" />
	<line
   style="fill:none;stroke:#000000;stroke-width:0.5;display:inline"
   x1="347.75299"
   y1="570.82202"
   x2="252.246"
   y2="29.177999"
   id="line204" />
	<line
   style="fill:none;stroke:#000000;stroke-width:0.5;display:inline"
   x1="352.47299"
   y1="569.94702"
   x2="247.52699"
   y2="30.052999"
   id="line206" />
	<line
   style="fill:none;stroke:#000000;stroke-width:0.5;display:inline"
   x1="357.17599"
   y1="568.98901"
   x2="242.82401"
   y2="31.01"
   id="line208" />
	<line
   style="fill:none;stroke:#000000;stroke-width:0.5;display:inline"
   x1="361.86099"
   y1="567.95099"
   x2="238.13901"
   y2="32.049"
   id="line210" />
	<line
   style="fill:none;stroke:#000000;stroke-width:0.5;display:inline"
   x1="366.52701"
   y1="566.83002"
   x2="233.47301"
   y2="33.169998"
   id="line212" />
	<line
   style="fill:none;stroke:#000000;stroke-width:0.5;display:inline"
   x1="371.17401"
   y1="565.62903"
   x2="228.826"
   y2="34.370998"
   id="line214" />
	<line
   style="fill:none;stroke:#000000;stroke-width:0.5;display:inline"
   x1="375.79901"
   y1="564.34601"
   x2="224.201"
   y2="35.653999"
   id="line216" />
	<line
   style="fill:none;stroke:#000000;stroke-width:0.5;display:inline"
   x1="380.39999"
   y1="562.98199"
   x2="219.60001"
   y2="37.018002"
   id="line218" />
	<line
   style="fill:none;stroke:#000000;stroke-width:0.5;display:inline"
   x1="384.979"
   y1="561.539"
   x2="215.021"
   y2="38.460999"
   id="line220" />
	<line
   style="fill:none;stroke:#000000;stroke-width:0.5;display:inline"
   x1="389.52899"
   y1="560.01599"
   x2="210.47099"
   y2="39.984001"
   id="line222" />
	<line
   style="fill:none;stroke:#000000;stroke-width:0.5;display:inline"
   x1="394.052"
   y1="558.414"
   x2="205.94701"
   y2="41.585999"
   id="line224" />
	<line
   style="fill:none;stroke:#000000;stroke-width:0.5;display:inline"
   x1="398.54901"
   y1="556.73199"
   x2="201.451"
   y2="43.268002"
   id="line226" />
	<line
   style="fill:none;stroke:#000000;stroke-width:0.5;display:inline"
   x1="403.01401"
   y1="554.97302"
   x2="196.98599"
   y2="45.025002"
   id="line228" />
	<line
   style="fill:none;stroke:#000000;stroke-width:0.5;display:inline"
   x1="407.44699"
   y1="553.13702"
   x2="192.55299"
   y2="46.863998"
   id="line230" />
	<line
   style="fill:none;stroke:#000000;stroke-width:0.5;display:inline"
   x1="411.85001"
   y1="551.22302"
   x2="188.14999"
   y2="48.777"
   id="line232" />
	<line
   style="fill:none;stroke:#000000;stroke-width:0.5;display:inline"
   x1="416.21701"
   y1="549.23199"
   x2="183.783"
   y2="50.768002"
   id="line234" />
	<line
   style="fill:none;stroke:#000000;stroke-width:0.5;display:inline"
   x1="420.54901"
   y1="547.16602"
   x2="179.451"
   y2="52.834"
   id="line236" />
	<line
   style="fill:none;stroke:#000000;stroke-width:0.5;display:inline"
   x1="424.84399"
   y1="545.02502"
   x2="175.15601"
   y2="54.974998"
   id="line238" />
	<line
   style="fill:none;stroke:#000000;stroke-width:0.5;display:inline"
   x1="429.10199"
   y1="542.80902"
   x2="170.89799"
   y2="57.191002"
   id="line240" />
	<line
   style="fill:none;stroke:#000000;stroke-width:0.5;display:inline"
   x1="433.32001"
   y1="540.51801"
   x2="166.67999"
   y2="59.48"
   id="line242" />
	<line
   style="fill:none;stroke:#000000;stroke-width:0.5;display:inline"
   x1="437.49799"
   y1="538.15399"
   x2="162.502"
   y2="61.844002"
   id="line244" />
	<line
   style="fill:none;stroke:#000000;stroke-width:0.5;display:inline"
   x1="441.633"
   y1="535.71899"
   x2="158.367"
   y2="64.278999"
   id="line246" />
	<line
   style="fill:none;stroke:#000000;stroke-width:0.5;display:inline"
   x1="445.72501"
   y1="533.211"
   x2="154.27499"
   y2="66.787003"
   id="line248" />
	<line
   style="fill:none;stroke:#000000;stroke-width:0.5;display:inline"
   x1="449.77301"
   y1="530.633"
   x2="150.22701"
   y2="69.366997"
   id="line250" />
	<line
   style="fill:none;stroke:#000000;stroke-width:0.5;display:inline"
   x1="453.77499"
   y1="527.98401"
   x2="146.22501"
   y2="72.015999"
   id="line252" />
	<line
   style="fill:none;stroke:#000000;stroke-width:0.5;display:inline"
   x1="457.73001"
   y1="525.26599"
   x2="142.27"
   y2="74.734001"
   id="line254" />
	<line
   style="fill:none;stroke:#000000;stroke-width:0.5;display:inline"
   x1="461.63901"
   y1="522.479"
   x2="138.36099"
   y2="77.522003"
   id="line256" />
	<line
   style="fill:none;stroke:#000000;stroke-width:0.5;display:inline"
   x1="465.496"
   y1="519.62299"
   x2="134.504"
   y2="80.376999"
   id="line258" />
	<line
   style="fill:none;stroke:#000000;stroke-width:0.5;display:inline"
   x1="469.30499"
   y1="516.70099"
   x2="130.69501"
   y2="83.299004"
   id="line260" />
	<line
   style="fill:none;stroke:#000000;stroke-width:0.5;display:inline"
   x1="473.061"
   y1="513.71301"
   x2="126.939"
   y2="86.288002"
   id="line262" />
	<line
   style="fill:none;stroke:#000000;stroke-width:0.5;display:inline"
   x1="476.76401"
   y1="510.66"
   x2="123.236"
   y2="89.339996"
   id="line264" />
	<line
   style="fill:none;stroke:#000000;stroke-width:0.5;display:inline"
   x1="480.414"
   y1="507.543"
   x2="119.586"
   y2="92.457001"
   id="line266" />
	<line
   style="fill:none;stroke:#000000;stroke-width:0.5;display:inline"
   x1="484.00699"
   y1="504.36301"
   x2="115.992"
   y2="95.637001"
   id="line268" />
	<line
   style="fill:none;stroke:#000000;stroke-width:0.5;display:inline"
   x1="487.547"
   y1="501.121"
   x2="112.453"
   y2="98.878998"
   id="line270" />
	<line
   style="fill:none;stroke:#000000;stroke-width:0.5;display:inline"
   x1="491.02701"
   y1="497.81601"
   x2="108.973"
   y2="102.184"
   id="line272" />
	<line
   style="fill:none;stroke:#000000;stroke-width:0.5;display:inline"
   x1="494.45099"
   y1="494.453"
   x2="105.549"
   y2="105.547"
   id="line274" />
	<line
   style="fill:none;stroke:#000000;stroke-width:0.5;display:inline"
   x1="497.814"
   y1="491.02899"
   x2="102.186"
   y2="108.971"
   id="line276" />
	<line
   style="fill:none;stroke:#000000;stroke-width:0.5;display:inline"
   x1="501.11899"
   y1="487.54901"
   x2="98.880997"
   y2="112.451"
   id="line278" />
	<line
   style="fill:none;stroke:#000000;stroke-width:0.5;display:inline"
   x1="504.36099"
   y1="484.01001"
   x2="95.639"
   y2="115.99"
   id="line280" />
	<line
   style="fill:none;stroke:#000000;stroke-width:0.5;display:inline"
   x1="507.54099"
   y1="480.41599"
   x2="92.459"
   y2="119.584"
   id="line282" />
	<line
   style="fill:none;stroke:#000000;stroke-width:0.5;display:inline"
   x1="510.65799"
   y1="476.76599"
   x2="89.342003"
   y2="123.234"
   id="line284" />
	<line
   style="fill:none;stroke:#000000;stroke-width:0.5;display:inline"
   x1="513.711"
   y1="473.06299"
   x2="86.289001"
   y2="126.938"
   id="line286" />
	<line
   style="fill:none;stroke:#000000;stroke-width:0.5;display:inline"
   x1="516.69897"
   y1="469.30701"
   x2="83.301003"
   y2="130.69299"
   id="line288" />
	<line
   style="fill:none;stroke:#000000;stroke-width:0.5;display:inline"
   x1="519.62097"
   y1="465.49799"
   x2="80.378998"
   y2="134.502"
   id="line290" />
	<line
   style="fill:none;stroke:#000000;stroke-width:0.5;display:inline"
   x1="522.47699"
   y1="461.64099"
   x2="77.523003"
   y2="138.35899"
   id="line292" />
	<line
   style="fill:none;stroke:#000000;stroke-width:0.5;display:inline"
   x1="525.26398"
   y1="457.73199"
   x2="74.736"
   y2="142.26801"
   id="line294" />
	<line
   style="fill:none;stroke:#000000;stroke-width:0.5;display:inline"
   x1="527.98199"
   y1="453.77701"
   x2="72.017998"
   y2="146.22301"
   id="line296" />
	<line
   style="fill:none;stroke:#000000;stroke-width:0.5;display:inline"
   x1="530.63098"
   y1="449.77499"
   x2="69.369003"
   y2="150.22501"
   id="line298" />
	<line
   style="fill:none;stroke:#000000;stroke-width:0.5;display:inline"
   x1="533.20898"
   y1="445.72699"
   x2="66.791"
   y2="154.271"
   id="line300" />
	<line
   style="fill:none;stroke:#000000;stroke-width:0.5;display:inline"
   x1="535.71698"
   y1="441.63501"
   x2="64.282997"
   y2="158.36301"
   id="line302" />
	<line
   style="fill:none;stroke:#000000;stroke-width:0.5;display:inline"
   x1="538.15198"
   y1="437.5"
   x2="61.848"
   y2="162.5"
   id="line304" />
	<line
   style="fill:none;stroke:#000000;stroke-width:0.5;display:inline"
   x1="540.51599"
   y1="433.32199"
   x2="59.484001"
   y2="166.67799"
   id="line306" />
	<line
   style="fill:none;stroke:#000000;stroke-width:0.5;display:inline"
   x1="542.80701"
   y1="429.104"
   x2="57.193001"
   y2="170.895"
   id="line308" />
	<line
   style="fill:none;stroke:#000000;stroke-width:0.5;display:inline"
   x1="545.021"
   y1="424.84601"
   x2="54.977001"
   y2="175.15199"
   id="line310" />
	<line
   style="fill:none;stroke:#000000;stroke-width:0.5;display:inline"
   x1="547.164"
   y1="420.55099"
   x2="52.835999"
   y2="179.44701"
   id="line312" />
	<line
   style="fill:none;stroke:#000000;stroke-width:0.5;display:inline"
   x1="549.22998"
   y1="416.21899"
   x2="50.77"
   y2="183.77901"
   id="line314" />
	<line
   style="fill:none;stroke:#000000;stroke-width:0.5;display:inline"
   x1="551.22101"
   y1="411.85199"
   x2="48.778999"
   y2="188.146"
   id="line316" />
	<line
   style="fill:none;stroke:#000000;stroke-width:0.5;display:inline"
   x1="553.13501"
   y1="407.44699"
   x2="46.865002"
   y2="192.547"
   id="line318" />
	<line
   style="fill:none;stroke:#000000;stroke-width:0.5;display:inline"
   x1="554.97101"
   y1="403.01401"
   x2="45.028999"
   y2="196.98199"
   id="line320" />
	<line
   style="fill:none;stroke:#000000;stroke-width:0.5;display:inline"
   x1="556.72998"
   y1="398.54901"
   x2="43.27"
   y2="201.44701"
   id="line322" />
	<line
   style="fill:none;stroke:#000000;stroke-width:0.5;display:inline"
   x1="558.41199"
   y1="394.05301"
   x2="41.588001"
   y2="205.94299"
   id="line324" />
	<line
   style="fill:none;stroke:#000000;stroke-width:0.5;display:inline"
   x1="560.01398"
   y1="389.52899"
   x2="39.986"
   y2="210.46899"
   id="line326" />
	<line
   style="fill:none;stroke:#000000;stroke-width:0.5;display:inline"
   x1="561.53699"
   y1="384.979"
   x2="38.463001"
   y2="215.02"
   id="line328" />
	<line
   style="fill:none;stroke:#000000;stroke-width:0.5;display:inline"
   x1="562.97998"
   y1="380.39999"
   x2="37.02"
   y2="219.59801"
   id="line330" />
	<line
   style="fill:none;stroke:#000000;stroke-width:0.5;display:inline"
   x1="564.34399"
   y1="375.79901"
   x2="35.655998"
   y2="224.19901"
   id="line332" />
	<line
   style="fill:none;stroke:#000000;stroke-width:0.5;display:inline"
   x1="565.62701"
   y1="371.17401"
   x2="34.373001"
   y2="228.82401"
   id="line334" />
	<line
   style="fill:none;stroke:#000000;stroke-width:0.5;display:inline"
   x1="566.828"
   y1="366.52701"
   x2="33.172001"
   y2="233.47099"
   id="line336" />
	<line
   style="fill:none;stroke:#000000;stroke-width:0.5;display:inline"
   x1="567.94897"
   y1="361.86099"
   x2="32.050999"
   y2="238.13699"
   id="line338" />
	<line
   style="fill:none;stroke:#000000;stroke-width:0.5;display:inline"
   x1="568.98798"
   y1="357.17599"
   x2="31.011999"
   y2="242.82401"
   id="line340" />
	<line
   style="fill:none;stroke:#000000;stroke-width:0.5;display:inline"
   x1="569.94501"
   y1="352.47299"
   x2="30.055"
   y2="247.528"
   id="line342" />
	<line
   style="fill:none;stroke:#000000;stroke-width:0.5;display:inline"
   x1="570.82001"
   y1="347.754"
   x2="29.18"
   y2="252.246"
   id="line344" />
	<line
   style="fill:none;stroke:#000000;stroke-width:0.5;display:inline"
   x1="571.61298"
   y1="343.01999"
   x2="28.386999"
   y2="256.979"
   id="line346" />
	<line
   style="fill:none;stroke:#000000;stroke-width:0.5;display:inline"
   x1="572.32202"
   y1="338.27301"
   x2="27.677999"
   y2="261.72699"
   id="line348" />
	<line
   style="fill:none;stroke:#000000;stroke-width:0.5;display:inline"
   x1="572.94897"
   y1="333.51599"
   x2="27.051001"
   y2="266.48401"
   id="line350" />
	<line
   style="fill:none;stroke:#000000;stroke-width:0.5;display:inline"
   x1="573.492"
   y1="328.746"
   x2="26.507999"
   y2="271.254"
   id="line352" />
	<line
   style="fill:none;stroke:#000000;stroke-width:0.5;display:inline"
   x1="573.953"
   y1="323.96899"
   x2="26.047001"
   y2="276.03101"
   id="line354" />
	<line
   style="fill:none;stroke:#000000;stroke-width:0.5;display:inline"
   x1="574.33002"
   y1="319.18399"
   x2="25.67"
   y2="280.81601"
   id="line356" />
	<line
   style="fill:none;stroke:#000000;stroke-width:0.5;display:inline"
   x1="574.62299"
   y1="314.39301"
   x2="25.377001"
   y2="285.60699"
   id="line358" />
	<line
   style="fill:none;stroke:#000000;stroke-width:0.5;display:inline"
   x1="574.83197"
   y1="309.59799"
   x2="25.167999"
   y2="290.40201"
   id="line360" />
	<line
   style="fill:none;stroke:#000000;stroke-width:0.5;display:inline"
   x1="574.95697"
   y1="304.79901"
   x2="25.042"
   y2="295.19901"
   id="line362" />
</g>
<g
   id="Layer_2">
	<circle
   cx="300.521"
   cy="300"
   r="262.52301"
   id="circle365"
   style="fill:#deffd6" />
	<path
   d="M 541.832,310.081 C 536.267,443.344 423.705,546.878 290.441,541.31 157.176,535.743 53.645,423.183 59.212,289.92 64.779,156.656 177.338,53.124 310.604,58.69 443.866,64.256 547.399,176.817 541.832,310.081 z"
   id="path367"
   style="fill:none" />
	
	
	
	
</g>
<g
   id="Layer_2_copy">
	<polyline
   style="fill:#f0001e"
   points="563.004,295.419 300.521,300 563.045,300  "
   id="polyline386" />
	<g
   id="g388"
   style="enable-background:new">
		<path
   d="m 578.336,309.818 h -4.666 v -17.582 c -1.704,1.594 -3.713,2.772 -6.026,3.536 v -4.233 c 1.218,-0.398 2.54,-1.154 3.968,-2.267 1.428,-1.113 2.408,-2.409 2.939,-3.893 h 3.785 v 24.439 z"
   id="path390"
   style="fill:#f0001e" />
		<path
   d="m 585.292,290.36 c 0,-1.472 0.518,-2.723 1.552,-3.752 1.035,-1.029 2.283,-1.544 3.744,-1.544 1.461,0 2.709,0.518 3.744,1.552 1.035,1.035 1.553,2.283 1.553,3.744 0,1.461 -0.518,2.709 -1.553,3.744 -1.035,1.035 -2.283,1.552 -3.744,1.552 -1.461,0 -2.709,-0.517 -3.744,-1.552 -1.034,-1.035 -1.552,-2.283 -1.552,-3.744 z m 2.756,0 c 0,0.697 0.249,1.295 0.747,1.793 0.498,0.498 1.096,0.747 1.793,0.747 0.697,0 1.295,-0.249 1.793,-0.747 0.498,-0.498 0.748,-1.096 0.748,-1.793 0,-0.697 -0.25,-1.295 -0.748,-1.793 -0.498,-0.498 -1.096,-0.747 -1.793,-0.747 -0.697,0 -1.295,0.249 -1.793,0.747 -0.498,0.498 -0.747,1.096 -0.747,1.793 z"
   id="path392"
   style="fill:#f0001e" />
	</g>
</g>
<g
   id="Layer_1_copy">
	<line
   style="fill:none;stroke:#0070f0;stroke-width:0.5"
   x1="563.00403"
   y1="295.41901"
   x2="300.521"
   y2="300"
   id="line395" />
	<line
   style="fill:none;stroke:#0070f0;stroke-width:0.5"
   x1="562.88501"
   y1="290.83801"
   x2="300.521"
   y2="300"
   id="line397" />
	<line
   style="fill:none;stroke:#0070f0;stroke-width:0.5"
   x1="562.68597"
   y1="286.26099"
   x2="300.521"
   y2="300"
   id="line399" />
	<line
   style="fill:none;stroke:#0070f0;stroke-width:0.5"
   x1="562.40503"
   y1="281.68799"
   x2="300.521"
   y2="300"
   id="line401" />
	<line
   style="fill:none;stroke:#0070f0;stroke-width:0.5"
   x1="562.04602"
   y1="277.12"
   x2="300.521"
   y2="300"
   id="line403" />
	<line
   style="fill:none;stroke:#0070f0;stroke-width:0.5"
   x1="561.60498"
   y1="272.55801"
   x2="300.521"
   y2="300"
   id="line405" />
	<line
   style="fill:none;stroke:#0070f0;stroke-width:0.5"
   x1="561.08698"
   y1="268.005"
   x2="300.521"
   y2="300"
   id="line407" />
	<line
   style="fill:none;stroke:#0070f0;stroke-width:0.5"
   x1="560.48901"
   y1="263.46399"
   x2="300.521"
   y2="300"
   id="line409" />
	<line
   style="fill:none;stroke:#0070f0;stroke-width:0.5"
   x1="559.81299"
   y1="258.93301"
   x2="300.521"
   y2="300"
   id="line411" />
	<line
   style="fill:none;stroke:#0070f0;stroke-width:0.5"
   x1="559.05701"
   y1="254.414"
   x2="300.521"
   y2="300"
   id="line413" />
	<line
   style="fill:none;stroke:#0070f0;stroke-width:0.5"
   x1="558.22198"
   y1="249.909"
   x2="300.521"
   y2="300"
   id="line415" />
	<line
   style="fill:none;stroke:#0070f0;stroke-width:0.5"
   x1="557.30798"
   y1="245.41901"
   x2="300.521"
   y2="300"
   id="line417" />
	<line
   style="fill:none;stroke:#0070f0;stroke-width:0.5"
   x1="556.31598"
   y1="240.946"
   x2="300.521"
   y2="300"
   id="line419" />
	<line
   style="fill:none;stroke:#0070f0;stroke-width:0.5"
   x1="555.24597"
   y1="236.492"
   x2="300.521"
   y2="300"
   id="line421" />
	<line
   style="fill:none;stroke:#0070f0;stroke-width:0.5"
   x1="554.09998"
   y1="232.05701"
   x2="300.521"
   y2="300"
   id="line423" />
	<line
   style="fill:none;stroke:#0070f0;stroke-width:0.5"
   x1="552.87402"
   y1="227.64101"
   x2="300.521"
   y2="300"
   id="line425" />
	<line
   style="fill:none;stroke:#0070f0;stroke-width:0.5"
   x1="551.57202"
   y1="223.248"
   x2="300.521"
   y2="300"
   id="line427" />
	<line
   style="fill:none;stroke:#0070f0;stroke-width:0.5"
   x1="550.19501"
   y1="218.877"
   x2="300.521"
   y2="300"
   id="line429" />
	<line
   style="fill:none;stroke:#0070f0;stroke-width:0.5"
   x1="548.73999"
   y1="214.533"
   x2="300.521"
   y2="300"
   id="line431" />
	<line
   style="fill:none;stroke:#0070f0;stroke-width:0.5"
   x1="547.21198"
   y1="210.216"
   x2="300.521"
   y2="300"
   id="line433" />
	<line
   style="fill:none;stroke:#0070f0;stroke-width:0.5"
   x1="545.60602"
   y1="205.923"
   x2="300.521"
   y2="300"
   id="line435" />
	<line
   style="fill:none;stroke:#0070f0;stroke-width:0.5"
   x1="543.927"
   y1="201.661"
   x2="300.521"
   y2="300"
   id="line437" />
	<line
   style="fill:none;stroke:#0070f0;stroke-width:0.5"
   x1="542.17401"
   y1="197.42799"
   x2="300.521"
   y2="300"
   id="line439" />
	<line
   style="fill:none;stroke:#0070f0;stroke-width:0.5"
   x1="540.34698"
   y1="193.226"
   x2="300.521"
   y2="300"
   id="line441" />
	<line
   style="fill:none;stroke:#0070f0;stroke-width:0.5"
   x1="538.44598"
   y1="189.05701"
   x2="300.521"
   y2="300"
   id="line443" />
	<line
   style="fill:none;stroke:#0070f0;stroke-width:0.5"
   x1="536.474"
   y1="184.922"
   x2="300.521"
   y2="300"
   id="line445" />
	<line
   style="fill:none;stroke:#0070f0;stroke-width:0.5"
   x1="534.43103"
   y1="180.82201"
   x2="300.521"
   y2="300"
   id="line447" />
	<line
   style="fill:none;stroke:#0070f0;stroke-width:0.5"
   x1="532.31403"
   y1="176.757"
   x2="300.521"
   y2="300"
   id="line449" />
	<line
   style="fill:none;stroke:#0070f0;stroke-width:0.5"
   x1="530.12701"
   y1="172.729"
   x2="300.521"
   y2="300"
   id="line451" />
	<line
   style="fill:none;stroke:#0070f0;stroke-width:0.5"
   x1="527.87097"
   y1="168.741"
   x2="300.521"
   y2="300"
   id="line453" />
	<line
   style="fill:none;stroke:#0070f0;stroke-width:0.5"
   x1="525.54602"
   y1="164.79401"
   x2="300.521"
   y2="300"
   id="line455" />
	<line
   style="fill:none;stroke:#0070f0;stroke-width:0.5"
   x1="523.15198"
   y1="160.888"
   x2="300.521"
   y2="300"
   id="line457" />
	<line
   style="fill:none;stroke:#0070f0;stroke-width:0.5"
   x1="520.69098"
   y1="157.022"
   x2="300.521"
   y2="300"
   id="line459" />
	<line
   style="fill:none;stroke:#0070f0;stroke-width:0.5"
   x1="518.16302"
   y1="153.202"
   x2="300.521"
   y2="300"
   id="line461" />
	<line
   style="fill:none;stroke:#0070f0;stroke-width:0.5"
   x1="515.56702"
   y1="149.427"
   x2="300.521"
   y2="300"
   id="line463" />
	<line
   style="fill:none;stroke:#0070f0;stroke-width:0.5"
   x1="512.90601"
   y1="145.696"
   x2="300.521"
   y2="300"
   id="line465" />
	<line
   style="fill:none;stroke:#0070f0;stroke-width:0.5"
   x1="510.181"
   y1="142.013"
   x2="300.521"
   y2="300"
   id="line467" />
	<line
   style="fill:none;stroke:#0070f0;stroke-width:0.5"
   x1="507.392"
   y1="138.377"
   x2="300.521"
   y2="300"
   id="line469" />
	<line
   style="fill:none;stroke:#0070f0;stroke-width:0.5"
   x1="504.539"
   y1="134.79201"
   x2="300.521"
   y2="300"
   id="line471" />
	<line
   style="fill:none;stroke:#0070f0;stroke-width:0.5"
   x1="501.625"
   y1="131.257"
   x2="300.521"
   y2="300"
   id="line473" />
	<line
   style="fill:none;stroke:#0070f0;stroke-width:0.5"
   x1="498.64801"
   y1="127.772"
   x2="300.521"
   y2="300"
   id="line475" />
	<line
   style="fill:none;stroke:#0070f0;stroke-width:0.5"
   x1="495.61301"
   y1="124.342"
   x2="300.521"
   y2="300"
   id="line477" />
	<line
   style="fill:none;stroke:#0070f0;stroke-width:0.5"
   x1="492.51901"
   y1="120.963"
   x2="300.521"
   y2="300"
   id="line479" />
	<line
   style="fill:none;stroke:#0070f0;stroke-width:0.5"
   x1="489.36301"
   y1="117.641"
   x2="300.521"
   y2="300"
   id="line481" />
	<line
   style="fill:none;stroke:#0070f0;stroke-width:0.5"
   x1="486.15201"
   y1="114.372"
   x2="300.521"
   y2="300"
   id="line483" />
	<line
   style="fill:none;stroke:#0070f0;stroke-width:0.5"
   x1="482.88501"
   y1="111.161"
   x2="300.521"
   y2="300"
   id="line485" />
	<line
   style="fill:none;stroke:#0070f0;stroke-width:0.5"
   x1="479.56299"
   y1="108.006"
   x2="300.521"
   y2="300"
   id="line487" />
	<line
   style="fill:none;stroke:#0070f0;stroke-width:0.5"
   x1="476.18399"
   y1="104.912"
   x2="300.521"
   y2="300"
   id="line489" />
	<line
   style="fill:none;stroke:#0070f0;stroke-width:0.5"
   x1="472.75299"
   y1="101.875"
   x2="300.521"
   y2="300"
   id="line491" />
	<line
   style="fill:none;stroke:#0070f0;stroke-width:0.5"
   x1="469.26801"
   y1="98.900002"
   x2="300.521"
   y2="300"
   id="line493" />
	<line
   style="fill:none;stroke:#0070f0;stroke-width:0.5"
   x1="465.73199"
   y1="95.987"
   x2="300.521"
   y2="300"
   id="line495" />
	<line
   style="fill:none;stroke:#0070f0;stroke-width:0.5"
   x1="462.147"
   y1="93.133003"
   x2="300.521"
   y2="300"
   id="line497" />
	<line
   style="fill:none;stroke:#0070f0;stroke-width:0.5"
   x1="458.51199"
   y1="90.344002"
   x2="300.521"
   y2="300"
   id="line499" />
	<line
   style="fill:none;stroke:#0070f0;stroke-width:0.5"
   x1="454.82901"
   y1="87.617996"
   x2="300.521"
   y2="300"
   id="line501" />
	<line
   style="fill:none;stroke:#0070f0;stroke-width:0.5"
   x1="451.099"
   y1="84.958"
   x2="300.521"
   y2="300"
   id="line503" />
	<line
   style="fill:none;stroke:#0070f0;stroke-width:0.5"
   x1="447.32199"
   y1="82.362"
   x2="300.521"
   y2="300"
   id="line505" />
	<line
   style="fill:none;stroke:#0070f0;stroke-width:0.5"
   x1="443.50201"
   y1="79.834"
   x2="300.521"
   y2="300"
   id="line507" />
	<line
   style="fill:none;stroke:#0070f0;stroke-width:0.5"
   x1="439.63699"
   y1="77.373001"
   x2="300.521"
   y2="300"
   id="line509" />
	<line
   style="fill:none;stroke:#0070f0;stroke-width:0.5"
   x1="435.73099"
   y1="74.978996"
   x2="300.521"
   y2="300"
   id="line511" />
	<line
   style="fill:none;stroke:#0070f0;stroke-width:0.5"
   x1="431.784"
   y1="72.653999"
   x2="300.521"
   y2="300"
   id="line513" />
	<line
   style="fill:none;stroke:#0070f0;stroke-width:0.5"
   x1="427.79599"
   y1="70.397003"
   x2="300.521"
   y2="300"
   id="line515" />
	<line
   style="fill:none;stroke:#0070f0;stroke-width:0.5"
   x1="423.76901"
   y1="68.209999"
   x2="300.521"
   y2="300"
   id="line517" />
	<line
   style="fill:none;stroke:#0070f0;stroke-width:0.5"
   x1="419.70401"
   y1="66.095001"
   x2="300.521"
   y2="300"
   id="line519" />
	<line
   style="fill:none;stroke:#0070f0;stroke-width:0.5"
   x1="415.604"
   y1="64.050003"
   x2="300.521"
   y2="300"
   id="line521" />
	<line
   style="fill:none;stroke:#0070f0;stroke-width:0.5"
   x1="411.46799"
   y1="62.077999"
   x2="300.521"
   y2="300"
   id="line523" />
	<line
   style="fill:none;stroke:#0070f0;stroke-width:0.5"
   x1="407.29901"
   y1="60.179001"
   x2="300.521"
   y2="300"
   id="line525" />
	<line
   style="fill:none;stroke:#0070f0;stroke-width:0.5"
   x1="403.09698"
   y1="58.352001"
   x2="300.521"
   y2="300"
   id="line527" />
	<line
   style="fill:none;stroke:#0070f0;stroke-width:0.5"
   x1="398.86401"
   y1="56.598999"
   x2="300.521"
   y2="300"
   id="line529" />
	<line
   style="fill:none;stroke:#0070f0;stroke-width:0.5"
   x1="394.60199"
   y1="54.917999"
   x2="300.521"
   y2="300"
   id="line531" />
	<line
   style="fill:none;stroke:#0070f0;stroke-width:0.5"
   x1="390.31"
   y1="53.313"
   x2="300.521"
   y2="300"
   id="line533" />
	<line
   style="fill:none;stroke:#0070f0;stroke-width:0.5"
   x1="385.98901"
   y1="51.784"
   x2="300.521"
   y2="300"
   id="line535" />
	<line
   style="fill:none;stroke:#0070f0;stroke-width:0.5"
   x1="381.646"
   y1="50.330002"
   x2="300.521"
   y2="300"
   id="line537" />
	<line
   style="fill:none;stroke:#0070f0;stroke-width:0.5"
   x1="377.27499"
   y1="48.952"
   x2="300.521"
   y2="300"
   id="line539" />
	<line
   style="fill:none;stroke:#0070f0;stroke-width:0.5"
   x1="372.88199"
   y1="47.651001"
   x2="300.521"
   y2="300"
   id="line541" />
	<line
   style="fill:none;stroke:#0070f0;stroke-width:0.5"
   x1="368.46701"
   y1="46.425999"
   x2="300.521"
   y2="300"
   id="line543" />
	<line
   style="fill:none;stroke:#0070f0;stroke-width:0.5"
   x1="364.03101"
   y1="45.278"
   x2="300.521"
   y2="300"
   id="line545" />
	<line
   style="fill:none;stroke:#0070f0;stroke-width:0.5"
   x1="359.577"
   y1="44.208"
   x2="300.521"
   y2="300"
   id="line547" />
	<line
   style="fill:none;stroke:#0070f0;stroke-width:0.5"
   x1="355.104"
   y1="43.216999"
   x2="300.521"
   y2="300"
   id="line549" />
	<line
   style="fill:none;stroke:#0070f0;stroke-width:0.5"
   x1="350.61401"
   y1="42.303001"
   x2="300.521"
   y2="300"
   id="line551" />
	<line
   style="fill:none;stroke:#0070f0;stroke-width:0.5"
   x1="346.10901"
   y1="41.467999"
   x2="300.521"
   y2="300"
   id="line553" />
	<line
   style="fill:none;stroke:#0070f0;stroke-width:0.5"
   x1="341.59"
   y1="40.710999"
   x2="300.521"
   y2="300"
   id="line555" />
	<line
   style="fill:none;stroke:#0070f0;stroke-width:0.5"
   x1="337.06"
   y1="40.034"
   x2="300.521"
   y2="300"
   id="line557" />
	<line
   style="fill:none;stroke:#0070f0;stroke-width:0.5"
   x1="332.51801"
   y1="39.435001"
   x2="300.521"
   y2="300"
   id="line559" />
	<line
   style="fill:none;stroke:#0070f0;stroke-width:0.5"
   x1="327.965"
   y1="38.917"
   x2="300.521"
   y2="300"
   id="line561" />
	<line
   style="fill:none;stroke:#0070f0;stroke-width:0.5"
   x1="323.40302"
   y1="38.477001"
   x2="300.521"
   y2="300"
   id="line563" />
	<line
   style="fill:none;stroke:#0070f0;stroke-width:0.5"
   x1="318.836"
   y1="38.117001"
   x2="300.521"
   y2="300"
   id="line565" />
	<line
   style="fill:none;stroke:#0070f0;stroke-width:0.5"
   x1="314.26199"
   y1="37.837002"
   x2="300.521"
   y2="300"
   id="line567" />
	<line
   style="fill:none;stroke:#0070f0;stroke-width:0.5"
   x1="309.685"
   y1="37.638"
   x2="300.521"
   y2="300"
   id="line569" />
	<line
   style="fill:none;stroke:#0070f0;stroke-width:0.5"
   x1="305.104"
   y1="37.519001"
   x2="300.521"
   y2="300"
   id="line571" />
	<line
   style="fill:none;stroke:#000000;stroke-width:0.5"
   x1="300.521"
   y1="37.478001"
   x2="300.521"
   y2="300"
   id="line573" />
	<line
   style="fill:none;stroke:#000000;stroke-width:0.5"
   x1="563.04498"
   y1="300"
   x2="300.521"
   y2="300"
   id="line575" />
</g>
<g
   id="Layer_5">
</g>
<g
   id="Layer_2_copy_2">
	<circle
   cx="300.521"
   cy="300"
   r="262.522"
   id="circle579"
   style="fill:none;stroke:#000000;stroke-width:2" />
</g>
<g
   id="Layer_7">
	<polygon
   points="331.069,269.452 300.521,269.452 300.521,271.362 329.16,271.362 329.16,300 331.07,300 331.07,269.453 331.069,269.453 "
   id="polygon582" />
</g>
</svg>