<?xml version="1.0" encoding="UTF-8"?>

<svg version="1.2" baseProfile="tiny" width="254mm" height="254mm" viewBox="-270 -270 25400 25400" preserveAspectRatio="xMidYMid" fill-rule="evenodd" stroke-width="28.222" stroke-linejoin="round" xmlns="http://www.w3.org/2000/svg" xmlns:xlink="http://www.w3.org/1999/xlink" xml:space="preserve">
 <g visibility="visible" id="Slide_1">
  <g>
   <path fill="rgb(207,231,245)" stroke="none" d="M 12430,12240 C 12538,12240 12621,12322 12621,12430 12621,12538 12538,12621 12430,12621 12322,12621 12240,12538 12240,12430 12240,12322 12322,12240 12430,12240 Z"/>
   <path fill="none" stroke="rgb(0,0,0)" id="Drawing_1_0" stroke-width="203" stroke-linejoin="round" d="M 12430,12240 C 12538,12240 12621,12322 12621,12430 12621,12538 12538,12621 12430,12621 12322,12621 12240,12538 12240,12430 12240,12322 12322,12240 12430,12240 Z"/>
   <rect fill="none" stroke="none" x="12240" y="12240" width="383" height="383"/>
  </g>
  <g>
   <path fill="none" stroke="rgb(0,69,134)" id="Drawing_2_0" stroke-width="203" stroke-linejoin="round" d="M 12430,1000 C 18911,1000 23860,5949 23860,12430 23860,18911 18911,23860 12430,23860 5949,23860 1000,18911 1000,12430 1000,5949 5949,1000 12430,1000 Z"/>
   <rect fill="none" stroke="none" x="1000" y="1000" width="22861" height="22861"/>
  </g>
  <g>
   <path fill="none" stroke="rgb(87,157,28)" id="Drawing_3_0" stroke-width="203" stroke-linejoin="round" d="M 18145,2524 L 23861,12431 12430,12431 18145,2524 Z"/>
   <rect fill="none" stroke="none" x="12430" y="2524" width="11431" height="9907"/>
  </g>
  <g>
   <path fill="none" stroke="rgb(197,0,11)" id="Drawing_4_0" stroke-width="203" stroke-linejoin="round" d="M 18145,2532 L 23860,12431"/>
  </g>
  <g>
   <rect fill="none" stroke="none" x="-270" y="-270" width="25401" height="25401"/>
   <rect fill="none" stroke="none" x="-270" y="-270" width="25401" height="25401"/>
  </g>
 </g>
</svg>