<?xml version='1.0' encoding='UTF-8'?>
<!DOCTYPE svg PUBLIC "-//W3C//DTD SVG 1.1//EN" "http://www.w3.org/Graphics/SVG/1.1/DTD/svg11.dtd">
<!-- Created with matplotlib (http://matplotlib.org/) -->
<svg xmlns="http://www.w3.org/2000/svg" xmlns:xlink="http://www.w3.org/1999/xlink" height="400px" version="1.1" viewBox="0 0 600 400" width="600px">
  <title>mplwp_resonance_zeta_envelope.svg</title>
  <desc>http://commons.wikimedia.org/wiki/File:mplwp_resonance_zeta_envelope.svg
Plot created with mplwp, the Matplotlib extension for Wikipedia plots.</desc>
  <defs>
    <style type="text/css">
*{stroke-linecap:butt;stroke-linejoin:round;}
  </style>
  </defs>
  <defs>
    <clipPath id="pa82c4e93f3">
      <rect height="355.0" width="515.0" x="42.5" y="18.5"/>
    </clipPath>
  </defs>
  <g id="figure_1">
    <g id="patch_1">
      <path d="
M 0 400
L 600 400
L 600 0
L 0 0
z 
" style="fill:#ffffff;"/>
    </g>
    <g id="axes_1">
      <g id="patch_2">
        <path d="
M 42.5 373.5
L 557.5 373.5
L 557.5 18.5
L 42.5 18.5
z 
" style="fill:#ffffff;"/>
      </g>
      <g id="line2d_1">
        <path clip-path="url(#pa82c4e93f3)" d="
M 42.5 314.333
L 84.9017 314.223
L 100.18 313.953
L 111.767 313.533
L 121.381 312.969
L 129.621 312.268
L 136.831 311.436
L 143.268 310.474
L 149.019 309.391
L 154.169 308.199
L 158.804 306.903
L 163.01 305.503
L 166.873 303.987
L 170.392 302.372
L 173.653 300.632
L 176.657 298.779
L 179.404 296.828
L 181.979 294.73
L 184.382 292.486
L 186.614 290.102
L 188.76 287.476
L 190.734 284.709
L 192.623 281.673
L 194.425 278.337
L 196.056 274.86
L 197.601 271.067
L 199.146 266.66
L 200.605 261.783
L 201.978 256.369
L 203.266 250.347
L 204.468 243.63
L 205.583 236.123
L 206.613 227.718
L 207.558 218.299
L 208.502 206.557
L 209.36 192.945
L 210.132 177.082
L 210.819 158.523
L 211.42 136.796
L 212.021 106.404
L 212.536 67.8094
L 212.965 18.0492
L 213.084 -1
L 213.084 -1" style="fill:none;stroke:#808080;stroke-dasharray:3.000000,3.000000;stroke-dashoffset:0.0;stroke-width:2.4;"/>
      </g>
      <g id="line2d_2">
        <path clip-path="url(#pa82c4e93f3)" d="
M 42.5 314.333
L 49.9675 314.221
L 57.3492 313.887
L 64.5592 313.34
L 71.5975 312.583
L 78.3783 311.631
L 84.8158 310.506
L 90.9958 309.202
L 96.8325 307.747
L 102.412 306.127
L 107.647 304.378
L 112.626 302.482
L 117.347 300.446
L 121.81 298.278
L 126.016 295.988
L 129.964 293.589
L 133.741 291.039
L 137.346 288.337
L 140.779 285.486
L 144.041 282.492
L 147.217 279.271
L 150.221 275.904
L 153.139 272.295
L 155.886 268.546
L 158.547 264.542
L 161.122 260.266
L 163.611 255.701
L 166.014 250.829
L 168.332 245.63
L 170.563 240.087
L 172.795 233.929
L 174.941 227.333
L 177.001 220.269
L 178.975 212.71
L 180.949 204.239
L 182.838 195.123
L 184.64 185.32
L 186.442 174.23
L 188.159 162.227
L 189.79 149.245
L 191.421 134.388
L 192.966 118.194
L 194.425 100.56
L 195.884 80.0986
L 197.257 57.6037
L 198.545 32.9117
L 199.832 3.77246
L 200.023 -1
M 227.23 -1
L 228.501 33.4074
L 229.788 62.5564
L 231.162 88.7725
L 232.621 112.343
L 234.08 132.452
L 235.625 150.755
L 237.256 167.409
L 238.887 181.858
L 240.603 195.135
L 242.406 207.33
L 244.208 218.054
L 246.097 227.983
L 248.071 237.173
L 250.131 245.68
L 252.191 253.258
L 254.337 260.318
L 256.568 266.895
L 258.886 273.023
L 261.289 278.735
L 263.692 283.885
L 266.182 288.711
L 268.757 293.233
L 271.418 297.472
L 274.25 301.565
L 277.168 305.39
L 280.173 308.967
L 283.348 312.403
L 286.696 315.692
L 290.129 318.757
L 293.734 321.683
L 297.597 324.529
L 301.631 327.225
L 305.922 329.825
L 310.472 332.318
L 315.278 334.7
L 320.428 337.004
L 325.922 339.216
L 331.844 341.36
L 338.196 343.42
L 345.062 345.411
L 352.444 347.318
L 360.512 349.169
L 369.267 350.946
L 378.795 352.65
L 389.267 354.293
L 400.768 355.868
L 413.472 357.378
L 427.463 358.814
L 443.084 360.19
L 460.508 361.497
L 480.078 362.737
L 502.223 363.913
L 527.372 365.021
L 556.127 366.06
L 557.5 366.104
L 557.5 366.104" style="fill:none;stroke:#808080;stroke-dasharray:10.000000,5.000000;stroke-dashoffset:0.0;stroke-width:2.4;"/>
      </g>
      <g id="line2d_3">
        <path clip-path="url(#pa82c4e93f3)" d="
M 42.5 314.333
L 49.9675 314.445
L 57.5208 314.783
L 65.2458 315.354
L 73.2283 316.17
L 81.64 317.257
L 90.6525 318.649
L 100.609 320.416
L 112.197 322.706
L 126.96 325.864
L 182.752 338.018
L 198.545 341.103
L 213.652 343.828
L 228.672 346.311
L 243.865 348.597
L 259.572 350.734
L 275.881 352.727
L 293.048 354.598
L 311.244 356.354
L 330.642 358.001
L 351.5 359.546
L 374.16 360.998
L 398.966 362.361
L 426.261 363.635
L 456.56 364.822
L 490.55 365.926
L 529.003 366.949
L 557.5 367.583
L 557.5 367.583" style="fill:none;stroke:#00bbcc;stroke-linecap:square;stroke-width:2.4;"/>
      </g>
      <g id="line2d_4">
        <path clip-path="url(#pa82c4e93f3)" d="
M 42.5 314.333
L 53.0575 314.222
L 63.615 313.888
L 74.3442 313.325
L 85.4167 312.52
L 97.1758 311.437
L 110.737 309.956
L 144.556 306.138
L 152.624 305.534
L 159.491 305.238
L 165.671 305.19
L 171.422 305.366
L 176.915 305.755
L 182.237 306.353
L 187.558 307.176
L 192.966 308.239
L 198.545 309.567
L 204.468 311.211
L 210.905 313.232
L 218.372 315.816
L 228.243 319.486
L 256.654 330.183
L 266.611 333.614
L 275.967 336.603
L 285.151 339.306
L 294.421 341.803
L 303.948 344.139
L 313.819 346.329
L 324.205 348.405
L 335.192 350.371
L 346.865 352.231
L 359.397 353.998
L 372.873 355.672
L 387.464 357.257
L 403.429 358.764
L 420.939 360.189
L 440.252 361.535
L 461.796 362.808
L 485.915 364.007
L 513.124 365.13
L 544.024 366.179
L 557.5 366.575
L 557.5 366.575" style="fill:none;stroke:#00bb00;stroke-linecap:square;stroke-width:2.4;"/>
      </g>
      <g id="line2d_5">
        <path clip-path="url(#pa82c4e93f3)" d="
M 42.5 314.333
L 50.74 314.221
L 58.8942 313.888
L 66.9625 313.336
L 74.8592 312.571
L 82.4983 311.609
L 89.88 310.459
L 97.09 309.112
L 104.042 307.586
L 110.737 305.89
L 117.261 304.009
L 123.612 301.944
L 129.793 299.703
L 135.887 297.259
L 142.067 294.539
L 148.418 291.497
L 155.371 287.913
L 164.555 282.902
L 174.855 277.326
L 179.833 274.889
L 183.782 273.197
L 187.215 271.964
L 190.305 271.091
L 193.137 270.52
L 195.798 270.208
L 198.373 270.131
L 200.862 270.279
L 203.352 270.654
L 205.841 271.258
L 208.33 272.09
L 210.905 273.184
L 213.652 274.597
L 216.57 276.355
L 219.746 278.531
L 223.351 281.279
L 227.642 284.841
L 233.565 290.073
L 248.5 303.381
L 254.422 308.289
L 259.83 312.484
L 265.066 316.269
L 270.302 319.778
L 275.537 323.019
L 280.859 326.054
L 286.352 328.931
L 292.017 331.648
L 297.94 334.24
L 304.12 336.702
L 310.643 339.061
L 317.51 341.306
L 324.806 343.457
L 332.617 345.525
L 340.942 347.499
L 349.955 349.403
L 359.654 351.221
L 370.126 352.955
L 381.542 354.617
L 393.987 356.202
L 407.721 357.723
L 422.827 359.168
L 439.565 360.542
L 458.191 361.844
L 479.134 363.08
L 502.738 364.246
L 529.518 365.34
L 557.5 366.285
L 557.5 366.285" style="fill:none;stroke:#999900;stroke-linecap:square;stroke-width:2.4;"/>
      </g>
      <g id="line2d_6">
        <path clip-path="url(#pa82c4e93f3)" d="
M 42.5 314.333
L 50.225 314.223
L 57.95 313.889
L 65.5033 313.341
L 72.885 312.582
L 80.0092 311.627
L 86.8758 310.482
L 93.3992 309.172
L 99.665 307.689
L 105.588 306.062
L 111.252 304.279
L 116.66 302.346
L 121.81 300.272
L 126.703 298.066
L 131.423 295.695
L 135.972 293.161
L 140.35 290.466
L 144.556 287.616
L 148.676 284.551
L 152.624 281.338
L 156.487 277.913
L 160.349 274.19
L 164.212 270.152
L 168.074 265.791
L 172.108 260.895
L 176.4 255.331
L 181.636 248.156
L 191.335 234.784
L 194.425 230.964
L 196.828 228.324
L 198.888 226.369
L 200.777 224.88
L 202.407 223.86
L 203.952 223.147
L 205.412 222.718
L 206.785 222.542
L 208.158 222.595
L 209.532 222.883
L 210.905 223.407
L 212.278 224.166
L 213.738 225.224
L 215.282 226.616
L 216.999 228.469
L 218.888 230.849
L 221.033 233.932
L 223.522 237.924
L 226.612 243.335
L 231.076 251.655
L 239.831 268.027
L 244.123 275.526
L 247.985 281.829
L 251.676 287.428
L 255.281 292.495
L 258.886 297.178
L 262.491 301.497
L 266.182 305.568
L 269.873 309.312
L 273.735 312.91
L 277.683 316.282
L 281.717 319.438
L 285.923 322.45
L 290.301 325.315
L 294.936 328.082
L 299.828 330.739
L 304.978 333.278
L 310.386 335.694
L 316.137 338.019
L 322.231 340.241
L 328.754 342.382
L 335.793 344.454
L 343.346 346.442
L 351.5 348.353
L 360.255 350.175
L 369.782 351.929
L 380.168 353.612
L 391.584 355.233
L 404.116 356.782
L 417.935 358.262
L 433.213 359.67
L 450.208 361.009
L 469.263 362.283
L 490.722 363.489
L 515.013 364.626
L 542.651 365.693
L 557.5 366.186
L 557.5 366.186" style="fill:none;stroke:#dd00aa;stroke-linecap:square;stroke-width:2.4;"/>
      </g>
      <g id="line2d_7">
        <path clip-path="url(#pa82c4e93f3)" d="
M 42.5 314.333
L 49.9675 314.223
L 57.435 313.891
L 64.7308 313.345
L 71.855 312.589
L 78.7217 311.637
L 85.245 310.511
L 91.5108 309.207
L 97.4333 307.75
L 103.098 306.13
L 108.42 304.38
L 113.484 302.483
L 118.291 300.446
L 122.84 298.278
L 127.132 295.99
L 131.252 293.542
L 135.114 290.992
L 138.805 288.295
L 142.324 285.454
L 145.757 282.395
L 149.019 279.192
L 152.195 275.756
L 155.199 272.18
L 158.118 268.363
L 160.95 264.29
L 163.697 259.949
L 166.358 255.328
L 168.933 250.414
L 171.507 245.008
L 173.997 239.252
L 176.4 233.138
L 178.803 226.406
L 181.121 219.258
L 183.438 211.391
L 185.756 202.725
L 188.073 193.183
L 190.391 182.697
L 192.794 170.777
L 195.369 156.836
L 198.287 139.759
L 205.498 96.8945
L 207.042 89.3434
L 208.33 84.0868
L 209.36 80.7254
L 210.218 78.5823
L 210.991 77.2126
L 211.592 76.5344
L 212.107 76.2321
L 212.622 76.1926
L 213.137 76.4184
L 213.652 76.9103
L 214.252 77.8182
L 214.939 79.2884
L 215.712 81.4752
L 216.656 84.8706
L 217.772 89.8139
L 219.059 96.5929
L 220.69 106.472
L 222.922 121.5
L 230.647 174.654
L 233.222 190.278
L 235.625 203.535
L 237.942 215.128
L 240.26 225.621
L 242.577 235.107
L 244.895 243.685
L 247.298 251.725
L 249.702 258.993
L 252.191 265.801
L 254.68 271.966
L 257.255 277.749
L 259.83 283
L 262.491 287.937
L 265.238 292.573
L 268.07 296.925
L 270.988 301.009
L 273.993 304.841
L 277.168 308.531
L 280.43 311.984
L 283.863 315.294
L 287.468 318.457
L 291.245 321.469
L 295.193 324.332
L 299.313 327.046
L 303.691 329.664
L 308.326 332.175
L 313.218 334.575
L 318.454 336.895
L 324.033 339.124
L 330.042 341.282
L 336.479 343.356
L 343.432 345.358
L 350.899 347.276
L 359.053 349.137
L 367.894 350.921
L 377.507 352.632
L 388.065 354.281
L 399.653 355.861
L 412.356 357.366
L 426.432 358.807
L 442.14 360.186
L 459.65 361.496
L 479.306 362.739
L 501.537 363.916
L 526.772 365.024
L 555.612 366.064
L 557.5 366.125
L 557.5 366.125" style="fill:none;stroke:#0000cc;stroke-linecap:square;stroke-width:2.4;"/>
      </g>
      <g id="matplotlib.axis_1">
        <g id="xtick_1">
          <g id="line2d_8">
            <path clip-path="url(#pa82c4e93f3)" d="
M 42.5 373.5
L 42.5 18.5" style="fill:none;stroke:#000000;stroke-dasharray:3.000000,1.000000;stroke-dashoffset:0.0;stroke-width:0.5;"/>
          </g>
          <g id="line2d_9">
            <defs>
              <path d="
M 0 0
L 0 -4" id="m56cb9a4f4c" style="stroke:#000000;stroke-width:1.25;"/>
            </defs>
            <g>
              <use style="stroke:#000000;stroke-width:1.25;" x="42.5" xlink:href="#m56cb9a4f4c" y="373.5"/>
            </g>
          </g>
          <g id="line2d_10">
            <defs>
              <path d="
M 0 0
L 0 4" id="m01134c304f" style="stroke:#000000;stroke-width:1.25;"/>
            </defs>
            <g>
              <use style="stroke:#000000;stroke-width:1.25;" x="42.5" xlink:href="#m01134c304f" y="18.5"/>
            </g>
          </g>
          <g id="text_1">
            <!-- 0.0 -->
            <defs>
              <path d="
M 31.7812 66.4062
Q 24.1719 66.4062 20.3281 58.9062
Q 16.5 51.4219 16.5 36.375
Q 16.5 21.3906 20.3281 13.8906
Q 24.1719 6.39062 31.7812 6.39062
Q 39.4531 6.39062 43.2812 13.8906
Q 47.125 21.3906 47.125 36.375
Q 47.125 51.4219 43.2812 58.9062
Q 39.4531 66.4062 31.7812 66.4062
M 31.7812 74.2188
Q 44.0469 74.2188 50.5156 64.5156
Q 56.9844 54.8281 56.9844 36.375
Q 56.9844 17.9688 50.5156 8.26562
Q 44.0469 -1.42188 31.7812 -1.42188
Q 19.5312 -1.42188 13.0625 8.26562
Q 6.59375 17.9688 6.59375 36.375
Q 6.59375 54.8281 13.0625 64.5156
Q 19.5312 74.2188 31.7812 74.2188" id="DejaVuSans-30"/>
              <path d="
M 10.6875 12.4062
L 21 12.4062
L 21 0
L 10.6875 0
z 
" id="DejaVuSans-2e"/>
            </defs>
            <g transform="translate(30.83625 392.6575)scale(0.16 -0.16)">
              <use xlink:href="#DejaVuSans-30"/>
              <use x="63.623046875" xlink:href="#DejaVuSans-2e"/>
              <use x="95.41015625" xlink:href="#DejaVuSans-30"/>
            </g>
          </g>
        </g>
        <g id="xtick_2">
          <g id="line2d_11">
            <path clip-path="url(#pa82c4e93f3)" d="
M 128.333 373.5
L 128.333 18.5" style="fill:none;stroke:#000000;stroke-dasharray:1.000000,3.000000;stroke-dashoffset:0.0;stroke-width:0.5;"/>
          </g>
          <g id="line2d_12">
            <g>
              <use style="stroke:#000000;stroke-width:1.25;" x="128.333333333" xlink:href="#m56cb9a4f4c" y="373.5"/>
            </g>
          </g>
          <g id="line2d_13">
            <g>
              <use style="stroke:#000000;stroke-width:1.25;" x="128.333333333" xlink:href="#m01134c304f" y="18.5"/>
            </g>
          </g>
          <g id="text_2">
            <!-- 0.5 -->
            <defs>
              <path d="
M 10.7969 72.9062
L 49.5156 72.9062
L 49.5156 64.5938
L 19.8281 64.5938
L 19.8281 46.7344
Q 21.9688 47.4688 24.1094 47.8281
Q 26.2656 48.1875 28.4219 48.1875
Q 40.625 48.1875 47.75 41.5
Q 54.8906 34.8125 54.8906 23.3906
Q 54.8906 11.625 47.5625 5.09375
Q 40.2344 -1.42188 26.9062 -1.42188
Q 22.3125 -1.42188 17.5469 -0.640625
Q 12.7969 0.140625 7.71875 1.70312
L 7.71875 11.625
Q 12.1094 9.23438 16.7969 8.0625
Q 21.4844 6.89062 26.7031 6.89062
Q 35.1562 6.89062 40.0781 11.3281
Q 45.0156 15.7656 45.0156 23.3906
Q 45.0156 31 40.0781 35.4375
Q 35.1562 39.8906 26.7031 39.8906
Q 22.75 39.8906 18.8125 39.0156
Q 14.8906 38.1406 10.7969 36.2812
z 
" id="DejaVuSans-35"/>
            </defs>
            <g transform="translate(116.837083333 392.6575)scale(0.16 -0.16)">
              <use xlink:href="#DejaVuSans-30"/>
              <use x="63.623046875" xlink:href="#DejaVuSans-2e"/>
              <use x="95.41015625" xlink:href="#DejaVuSans-35"/>
            </g>
          </g>
        </g>
        <g id="xtick_3">
          <g id="line2d_14">
            <path clip-path="url(#pa82c4e93f3)" d="
M 214.167 373.5
L 214.167 18.5" style="fill:none;stroke:#000000;stroke-dasharray:1.000000,3.000000;stroke-dashoffset:0.0;stroke-width:0.5;"/>
          </g>
          <g id="line2d_15">
            <g>
              <use style="stroke:#000000;stroke-width:1.25;" x="214.166666667" xlink:href="#m56cb9a4f4c" y="373.5"/>
            </g>
          </g>
          <g id="line2d_16">
            <g>
              <use style="stroke:#000000;stroke-width:1.25;" x="214.166666667" xlink:href="#m01134c304f" y="18.5"/>
            </g>
          </g>
          <g id="text_3">
            <!-- 1.0 -->
            <defs>
              <path d="
M 12.4062 8.29688
L 28.5156 8.29688
L 28.5156 63.9219
L 10.9844 60.4062
L 10.9844 69.3906
L 28.4219 72.9062
L 38.2812 72.9062
L 38.2812 8.29688
L 54.3906 8.29688
L 54.3906 0
L 12.4062 0
z 
" id="DejaVuSans-31"/>
            </defs>
            <g transform="translate(202.854166667 392.6575)scale(0.16 -0.16)">
              <use xlink:href="#DejaVuSans-31"/>
              <use x="63.623046875" xlink:href="#DejaVuSans-2e"/>
              <use x="95.41015625" xlink:href="#DejaVuSans-30"/>
            </g>
          </g>
        </g>
        <g id="xtick_4">
          <g id="line2d_17">
            <path clip-path="url(#pa82c4e93f3)" d="
M 300 373.5
L 300 18.5" style="fill:none;stroke:#000000;stroke-dasharray:1.000000,3.000000;stroke-dashoffset:0.0;stroke-width:0.5;"/>
          </g>
          <g id="line2d_18">
            <g>
              <use style="stroke:#000000;stroke-width:1.25;" x="300.0" xlink:href="#m56cb9a4f4c" y="373.5"/>
            </g>
          </g>
          <g id="line2d_19">
            <g>
              <use style="stroke:#000000;stroke-width:1.25;" x="300.0" xlink:href="#m01134c304f" y="18.5"/>
            </g>
          </g>
          <g id="text_4">
            <!-- 1.5 -->
            <g transform="translate(288.855 392.6575)scale(0.16 -0.16)">
              <use xlink:href="#DejaVuSans-31"/>
              <use x="63.623046875" xlink:href="#DejaVuSans-2e"/>
              <use x="95.41015625" xlink:href="#DejaVuSans-35"/>
            </g>
          </g>
        </g>
        <g id="xtick_5">
          <g id="line2d_20">
            <path clip-path="url(#pa82c4e93f3)" d="
M 385.833 373.5
L 385.833 18.5" style="fill:none;stroke:#000000;stroke-dasharray:1.000000,3.000000;stroke-dashoffset:0.0;stroke-width:0.5;"/>
          </g>
          <g id="line2d_21">
            <g>
              <use style="stroke:#000000;stroke-width:1.25;" x="385.833333333" xlink:href="#m56cb9a4f4c" y="373.5"/>
            </g>
          </g>
          <g id="line2d_22">
            <g>
              <use style="stroke:#000000;stroke-width:1.25;" x="385.833333333" xlink:href="#m01134c304f" y="18.5"/>
            </g>
          </g>
          <g id="text_5">
            <!-- 2.0 -->
            <defs>
              <path d="
M 19.1875 8.29688
L 53.6094 8.29688
L 53.6094 0
L 7.32812 0
L 7.32812 8.29688
Q 12.9375 14.1094 22.625 23.8906
Q 32.3281 33.6875 34.8125 36.5312
Q 39.5469 41.8438 41.4219 45.5312
Q 43.3125 49.2188 43.3125 52.7812
Q 43.3125 58.5938 39.2344 62.25
Q 35.1562 65.9219 28.6094 65.9219
Q 23.9688 65.9219 18.8125 64.3125
Q 13.6719 62.7031 7.8125 59.4219
L 7.8125 69.3906
Q 13.7656 71.7812 18.9375 73
Q 24.125 74.2188 28.4219 74.2188
Q 39.75 74.2188 46.4844 68.5469
Q 53.2188 62.8906 53.2188 53.4219
Q 53.2188 48.9219 51.5312 44.8906
Q 49.8594 40.875 45.4062 35.4062
Q 44.1875 33.9844 37.6406 27.2188
Q 31.1094 20.4531 19.1875 8.29688" id="DejaVuSans-32"/>
            </defs>
            <g transform="translate(374.228333333 392.6575)scale(0.16 -0.16)">
              <use xlink:href="#DejaVuSans-32"/>
              <use x="63.623046875" xlink:href="#DejaVuSans-2e"/>
              <use x="95.41015625" xlink:href="#DejaVuSans-30"/>
            </g>
          </g>
        </g>
        <g id="xtick_6">
          <g id="line2d_23">
            <path clip-path="url(#pa82c4e93f3)" d="
M 471.667 373.5
L 471.667 18.5" style="fill:none;stroke:#000000;stroke-dasharray:1.000000,3.000000;stroke-dashoffset:0.0;stroke-width:0.5;"/>
          </g>
          <g id="line2d_24">
            <g>
              <use style="stroke:#000000;stroke-width:1.25;" x="471.666666667" xlink:href="#m56cb9a4f4c" y="373.5"/>
            </g>
          </g>
          <g id="line2d_25">
            <g>
              <use style="stroke:#000000;stroke-width:1.25;" x="471.666666667" xlink:href="#m01134c304f" y="18.5"/>
            </g>
          </g>
          <g id="text_6">
            <!-- 2.5 -->
            <g transform="translate(460.229166667 392.6575)scale(0.16 -0.16)">
              <use xlink:href="#DejaVuSans-32"/>
              <use x="63.623046875" xlink:href="#DejaVuSans-2e"/>
              <use x="95.41015625" xlink:href="#DejaVuSans-35"/>
            </g>
          </g>
        </g>
        <g id="xtick_7">
          <g id="line2d_26">
            <path clip-path="url(#pa82c4e93f3)" d="
M 557.5 373.5
L 557.5 18.5" style="fill:none;stroke:#000000;stroke-dasharray:1.000000,3.000000;stroke-dashoffset:0.0;stroke-width:0.5;"/>
          </g>
          <g id="line2d_27">
            <g>
              <use style="stroke:#000000;stroke-width:1.25;" x="557.5" xlink:href="#m56cb9a4f4c" y="373.5"/>
            </g>
          </g>
          <g id="line2d_28">
            <g>
              <use style="stroke:#000000;stroke-width:1.25;" x="557.5" xlink:href="#m01134c304f" y="18.5"/>
            </g>
          </g>
          <g id="text_7">
            <!-- 3.0 -->
            <defs>
              <path d="
M 40.5781 39.3125
Q 47.6562 37.7969 51.625 33
Q 55.6094 28.2188 55.6094 21.1875
Q 55.6094 10.4062 48.1875 4.48438
Q 40.7656 -1.42188 27.0938 -1.42188
Q 22.5156 -1.42188 17.6562 -0.515625
Q 12.7969 0.390625 7.625 2.20312
L 7.625 11.7188
Q 11.7188 9.32812 16.5938 8.10938
Q 21.4844 6.89062 26.8125 6.89062
Q 36.0781 6.89062 40.9375 10.5469
Q 45.7969 14.2031 45.7969 21.1875
Q 45.7969 27.6406 41.2812 31.2656
Q 36.7656 34.9062 28.7188 34.9062
L 20.2188 34.9062
L 20.2188 43.0156
L 29.1094 43.0156
Q 36.375 43.0156 40.2344 45.9219
Q 44.0938 48.8281 44.0938 54.2969
Q 44.0938 59.9062 40.1094 62.9062
Q 36.1406 65.9219 28.7188 65.9219
Q 24.6562 65.9219 20.0156 65.0312
Q 15.375 64.1562 9.8125 62.3125
L 9.8125 71.0938
Q 15.4375 72.6562 20.3438 73.4375
Q 25.25 74.2188 29.5938 74.2188
Q 40.8281 74.2188 47.3594 69.1094
Q 53.9062 64.0156 53.9062 55.3281
Q 53.9062 49.2656 50.4375 45.0938
Q 46.9688 40.9219 40.5781 39.3125" id="DejaVuSans-33"/>
            </defs>
            <g transform="translate(545.91875 392.6575)scale(0.16 -0.16)">
              <use xlink:href="#DejaVuSans-33"/>
              <use x="63.623046875" xlink:href="#DejaVuSans-2e"/>
              <use x="95.41015625" xlink:href="#DejaVuSans-30"/>
            </g>
          </g>
        </g>
      </g>
      <g id="matplotlib.axis_2">
        <g id="ytick_1">
          <g id="line2d_29">
            <path clip-path="url(#pa82c4e93f3)" d="
M 42.5 373.5
L 557.5 373.5" style="fill:none;stroke:#000000;stroke-dasharray:3.000000,1.000000;stroke-dashoffset:0.0;stroke-width:0.5;"/>
          </g>
          <g id="line2d_30">
            <defs>
              <path d="
M 0 0
L 4 0" id="m86ea02120d" style="stroke:#000000;stroke-width:1.25;"/>
            </defs>
            <g>
              <use style="stroke:#000000;stroke-width:1.25;" x="42.5" xlink:href="#m86ea02120d" y="373.5"/>
            </g>
          </g>
          <g id="line2d_31">
            <defs>
              <path d="
M 0 0
L -4 0" id="m08e0baaaa9" style="stroke:#000000;stroke-width:1.25;"/>
            </defs>
            <g>
              <use style="stroke:#000000;stroke-width:1.25;" x="557.5" xlink:href="#m08e0baaaa9" y="373.5"/>
            </g>
          </g>
          <g id="text_8">
            <!-- 0 -->
            <g transform="translate(27.4375 377.915)scale(0.16 -0.16)">
              <use xlink:href="#DejaVuSans-30"/>
            </g>
          </g>
        </g>
        <g id="ytick_2">
          <g id="line2d_32">
            <path clip-path="url(#pa82c4e93f3)" d="
M 42.5 314.333
L 557.5 314.333" style="fill:none;stroke:#000000;stroke-dasharray:1.000000,3.000000;stroke-dashoffset:0.0;stroke-width:0.5;"/>
          </g>
          <g id="line2d_33">
            <g>
              <use style="stroke:#000000;stroke-width:1.25;" x="42.5" xlink:href="#m86ea02120d" y="314.333333333"/>
            </g>
          </g>
          <g id="line2d_34">
            <g>
              <use style="stroke:#000000;stroke-width:1.25;" x="557.5" xlink:href="#m08e0baaaa9" y="314.333333333"/>
            </g>
          </g>
          <g id="text_9">
            <!-- 1 -->
            <g transform="translate(28.555 318.748333333)scale(0.16 -0.16)">
              <use xlink:href="#DejaVuSans-31"/>
            </g>
          </g>
        </g>
        <g id="ytick_3">
          <g id="line2d_35">
            <path clip-path="url(#pa82c4e93f3)" d="
M 42.5 255.167
L 557.5 255.167" style="fill:none;stroke:#000000;stroke-dasharray:1.000000,3.000000;stroke-dashoffset:0.0;stroke-width:0.5;"/>
          </g>
          <g id="line2d_36">
            <g>
              <use style="stroke:#000000;stroke-width:1.25;" x="42.5" xlink:href="#m86ea02120d" y="255.166666667"/>
            </g>
          </g>
          <g id="line2d_37">
            <g>
              <use style="stroke:#000000;stroke-width:1.25;" x="557.5" xlink:href="#m08e0baaaa9" y="255.166666667"/>
            </g>
          </g>
          <g id="text_10">
            <!-- 2 -->
            <g transform="translate(28.095 259.581666667)scale(0.16 -0.16)">
              <use xlink:href="#DejaVuSans-32"/>
            </g>
          </g>
        </g>
        <g id="ytick_4">
          <g id="line2d_38">
            <path clip-path="url(#pa82c4e93f3)" d="
M 42.5 196
L 557.5 196" style="fill:none;stroke:#000000;stroke-dasharray:1.000000,3.000000;stroke-dashoffset:0.0;stroke-width:0.5;"/>
          </g>
          <g id="line2d_39">
            <g>
              <use style="stroke:#000000;stroke-width:1.25;" x="42.5" xlink:href="#m86ea02120d" y="196.0"/>
            </g>
          </g>
          <g id="line2d_40">
            <g>
              <use style="stroke:#000000;stroke-width:1.25;" x="557.5" xlink:href="#m08e0baaaa9" y="196.0"/>
            </g>
          </g>
          <g id="text_11">
            <!-- 3 -->
            <g transform="translate(27.8225 200.415)scale(0.16 -0.16)">
              <use xlink:href="#DejaVuSans-33"/>
            </g>
          </g>
        </g>
        <g id="ytick_5">
          <g id="line2d_41">
            <path clip-path="url(#pa82c4e93f3)" d="
M 42.5 136.833
L 557.5 136.833" style="fill:none;stroke:#000000;stroke-dasharray:1.000000,3.000000;stroke-dashoffset:0.0;stroke-width:0.5;"/>
          </g>
          <g id="line2d_42">
            <g>
              <use style="stroke:#000000;stroke-width:1.25;" x="42.5" xlink:href="#m86ea02120d" y="136.833333333"/>
            </g>
          </g>
          <g id="line2d_43">
            <g>
              <use style="stroke:#000000;stroke-width:1.25;" x="557.5" xlink:href="#m08e0baaaa9" y="136.833333333"/>
            </g>
          </g>
          <g id="text_12">
            <!-- 4 -->
            <defs>
              <path d="
M 37.7969 64.3125
L 12.8906 25.3906
L 37.7969 25.3906
z 

M 35.2031 72.9062
L 47.6094 72.9062
L 47.6094 25.3906
L 58.0156 25.3906
L 58.0156 17.1875
L 47.6094 17.1875
L 47.6094 0
L 37.7969 0
L 37.7969 17.1875
L 4.89062 17.1875
L 4.89062 26.7031
z 
" id="DejaVuSans-34"/>
            </defs>
            <g transform="translate(27.0 141.248333333)scale(0.16 -0.16)">
              <use xlink:href="#DejaVuSans-34"/>
            </g>
          </g>
        </g>
        <g id="ytick_6">
          <g id="line2d_44">
            <path clip-path="url(#pa82c4e93f3)" d="
M 42.5 77.6667
L 557.5 77.6667" style="fill:none;stroke:#000000;stroke-dasharray:1.000000,3.000000;stroke-dashoffset:0.0;stroke-width:0.5;"/>
          </g>
          <g id="line2d_45">
            <g>
              <use style="stroke:#000000;stroke-width:1.25;" x="42.5" xlink:href="#m86ea02120d" y="77.6666666667"/>
            </g>
          </g>
          <g id="line2d_46">
            <g>
              <use style="stroke:#000000;stroke-width:1.25;" x="557.5" xlink:href="#m08e0baaaa9" y="77.6666666667"/>
            </g>
          </g>
          <g id="text_13">
            <!-- 5 -->
            <g transform="translate(27.9525 82.0816666667)scale(0.16 -0.16)">
              <use xlink:href="#DejaVuSans-35"/>
            </g>
          </g>
        </g>
        <g id="ytick_7">
          <g id="line2d_47">
            <path clip-path="url(#pa82c4e93f3)" d="
M 42.5 18.5
L 557.5 18.5" style="fill:none;stroke:#000000;stroke-dasharray:1.000000,3.000000;stroke-dashoffset:0.0;stroke-width:0.5;"/>
          </g>
          <g id="line2d_48">
            <g>
              <use style="stroke:#000000;stroke-width:1.25;" x="42.5" xlink:href="#m86ea02120d" y="18.5"/>
            </g>
          </g>
          <g id="line2d_49">
            <g>
              <use style="stroke:#000000;stroke-width:1.25;" x="557.5" xlink:href="#m08e0baaaa9" y="18.5"/>
            </g>
          </g>
          <g id="text_14">
            <!-- 6 -->
            <defs>
              <path d="
M 33.0156 40.375
Q 26.375 40.375 22.4844 35.8281
Q 18.6094 31.2969 18.6094 23.3906
Q 18.6094 15.5312 22.4844 10.9531
Q 26.375 6.39062 33.0156 6.39062
Q 39.6562 6.39062 43.5312 10.9531
Q 47.4062 15.5312 47.4062 23.3906
Q 47.4062 31.2969 43.5312 35.8281
Q 39.6562 40.375 33.0156 40.375
M 52.5938 71.2969
L 52.5938 62.3125
Q 48.875 64.0625 45.0938 64.9844
Q 41.3125 65.9219 37.5938 65.9219
Q 27.8281 65.9219 22.6719 59.3281
Q 17.5312 52.7344 16.7969 39.4062
Q 19.6719 43.6562 24.0156 45.9219
Q 28.375 48.1875 33.5938 48.1875
Q 44.5781 48.1875 50.9531 41.5156
Q 57.3281 34.8594 57.3281 23.3906
Q 57.3281 12.1562 50.6875 5.35938
Q 44.0469 -1.42188 33.0156 -1.42188
Q 20.3594 -1.42188 13.6719 8.26562
Q 6.98438 17.9688 6.98438 36.375
Q 6.98438 53.6562 15.1875 63.9375
Q 23.3906 74.2188 37.2031 74.2188
Q 40.9219 74.2188 44.7031 73.4844
Q 48.4844 72.75 52.5938 71.2969" id="DejaVuSans-36"/>
            </defs>
            <g transform="translate(27.445 22.915)scale(0.16 -0.16)">
              <use xlink:href="#DejaVuSans-36"/>
            </g>
          </g>
        </g>
      </g>
      <g id="patch_3">
        <path d="
M 42.5 18.5
L 557.5 18.5" style="fill:none;stroke:#000000;stroke-width:1.25;"/>
      </g>
      <g id="patch_4">
        <path d="
M 557.5 373.5
L 557.5 18.5" style="fill:none;stroke:#000000;stroke-width:1.25;"/>
      </g>
      <g id="patch_5">
        <path d="
M 42.5 373.5
L 557.5 373.5" style="fill:none;stroke:#000000;stroke-width:1.25;"/>
      </g>
      <g id="patch_6">
        <path d="
M 42.5 373.5
L 42.5 18.5" style="fill:none;stroke:#000000;stroke-width:1.25;"/>
      </g>
      <g id="legend_1">
        <g id="patch_7">
          <path d="
M 385.432 250.586
L 528.7 250.586
L 528.7 47.3
L 385.432 47.3
L 385.432 250.586
z 
" style="fill:#ffffff;opacity:0.9;stroke:#000000;"/>
        </g>
        <g id="line2d_50">
          <path d="
M 398.872 62.849
L 425.752 62.849" style="fill:none;stroke:#808080;stroke-dasharray:3.000000,3.000000;stroke-dashoffset:0.0;stroke-width:2.4;"/>
        </g>
        <g id="line2d_51"/>
        <g id="text_15">
          <!-- maxima -->
          <defs>
            <path d="
M 52 44.1875
Q 55.375 50.25 60.0625 53.125
Q 64.75 56 71.0938 56
Q 79.6406 56 84.2812 50.0156
Q 88.9219 44.0469 88.9219 33.0156
L 88.9219 0
L 79.8906 0
L 79.8906 32.7188
Q 79.8906 40.5781 77.0938 44.375
Q 74.3125 48.1875 68.6094 48.1875
Q 61.625 48.1875 57.5625 43.5469
Q 53.5156 38.9219 53.5156 30.9062
L 53.5156 0
L 44.4844 0
L 44.4844 32.7188
Q 44.4844 40.625 41.7031 44.4062
Q 38.9219 48.1875 33.1094 48.1875
Q 26.2188 48.1875 22.1562 43.5312
Q 18.1094 38.875 18.1094 30.9062
L 18.1094 0
L 9.07812 0
L 9.07812 54.6875
L 18.1094 54.6875
L 18.1094 46.1875
Q 21.1875 51.2188 25.4844 53.6094
Q 29.7812 56 35.6875 56
Q 41.6562 56 45.8281 52.9688
Q 50 49.9531 52 44.1875" id="DejaVuSans-6d"/>
            <path d="
M 9.42188 54.6875
L 18.4062 54.6875
L 18.4062 0
L 9.42188 0
z 

M 9.42188 75.9844
L 18.4062 75.9844
L 18.4062 64.5938
L 9.42188 64.5938
z 
" id="DejaVuSans-69"/>
            <path d="
M 54.8906 54.6875
L 35.1094 28.0781
L 55.9062 0
L 45.3125 0
L 29.3906 21.4844
L 13.4844 0
L 2.875 0
L 24.125 28.6094
L 4.6875 54.6875
L 15.2812 54.6875
L 29.7812 35.2031
L 44.2812 54.6875
z 
" id="DejaVuSans-78"/>
            <path d="
M 34.2812 27.4844
Q 23.3906 27.4844 19.1875 25
Q 14.9844 22.5156 14.9844 16.5
Q 14.9844 11.7188 18.1406 8.90625
Q 21.2969 6.10938 26.7031 6.10938
Q 34.1875 6.10938 38.7031 11.4062
Q 43.2188 16.7031 43.2188 25.4844
L 43.2188 27.4844
z 

M 52.2031 31.2031
L 52.2031 0
L 43.2188 0
L 43.2188 8.29688
Q 40.1406 3.32812 35.5469 0.953125
Q 30.9531 -1.42188 24.3125 -1.42188
Q 15.9219 -1.42188 10.9531 3.29688
Q 6 8.01562 6 15.9219
Q 6 25.1406 12.1719 29.8281
Q 18.3594 34.5156 30.6094 34.5156
L 43.2188 34.5156
L 43.2188 35.4062
Q 43.2188 41.6094 39.1406 45
Q 35.0625 48.3906 27.6875 48.3906
Q 23 48.3906 18.5469 47.2656
Q 14.1094 46.1406 10.0156 43.8906
L 10.0156 52.2031
Q 14.9375 54.1094 19.5781 55.0469
Q 24.2188 56 28.6094 56
Q 40.4844 56 46.3438 49.8438
Q 52.2031 43.7031 52.2031 31.2031" id="DejaVuSans-61"/>
          </defs>
          <g transform="translate(446.872 69.569)scale(0.192 -0.192)">
            <use xlink:href="#DejaVuSans-6d"/>
            <use x="97.412109375" xlink:href="#DejaVuSans-61"/>
            <use x="158.69140625" xlink:href="#DejaVuSans-78"/>
            <use x="217.87109375" xlink:href="#DejaVuSans-69"/>
            <use x="245.654296875" xlink:href="#DejaVuSans-6d"/>
            <use x="343.06640625" xlink:href="#DejaVuSans-61"/>
          </g>
        </g>
        <g id="line2d_52">
          <path d="
M 398.872 91.034
L 425.752 91.034" style="fill:none;stroke:#808080;stroke-dasharray:10.000000,5.000000;stroke-dashoffset:0.0;stroke-width:2.4;"/>
        </g>
        <g id="line2d_53"/>
        <g id="text_16">
          <!-- $\zeta=0.0$ -->
          <defs>
            <path d="
M 34.8594 6.20312
Q 41.3125 6.15625 45.1719 2.48438
Q 49.2656 -1.375 49.2656 -7.23438
Q 49.2656 -12.8438 45.6562 -16.75
Q 41.75 -21 33.7969 -21
Q 33.7969 -17.3281 33.7969 -13.625
Q 37.1562 -13.875 39.2031 -11.7188
Q 40.7656 -10.0156 40.7656 -8.20312
Q 40.7656 -5.60938 39.2031 -3.46875
Q 37.7031 -1.42188 34.8594 -1.42188
Q 5.28125 -1.42188 5.21875 26.0781
Q 5.21875 50.0938 33.1094 66.9375
L 7.125 66.9375
L 7.125 75.9844
L 49.6094 75.9844
L 49.6094 66.9375
Q 14.2656 49.1719 14.2656 26.0781
Q 14.2656 6.20312 34.8594 6.20312" id="DejaVuSans-3b6"/>
            <path d="
M 10.5938 45.4062
L 73.1875 45.4062
L 73.1875 37.2031
L 10.5938 37.2031
z 

M 10.5938 25.4844
L 73.1875 25.4844
L 73.1875 17.1875
L 10.5938 17.1875
z 
" id="DejaVuSans-3d"/>
          </defs>
          <g transform="translate(446.872 97.754)scale(0.192 -0.192)">
            <use transform="translate(0.0 0.015625)" xlink:href="#DejaVuSans-3b6"/>
            <use transform="translate(73.876953125 0.015625)" xlink:href="#DejaVuSans-3d"/>
            <use transform="translate(155.953125 0.015625)" xlink:href="#DejaVuSans-30"/>
            <use transform="translate(219.576171875 0.015625)" xlink:href="#DejaVuSans-2e"/>
            <use transform="translate(249.35546875 0.015625)" xlink:href="#DejaVuSans-30"/>
          </g>
        </g>
        <g id="line2d_54">
          <path d="
M 398.872 119.258
L 425.752 119.258" style="fill:none;stroke:#0000cc;stroke-linecap:square;stroke-width:2.4;"/>
        </g>
        <g id="line2d_55"/>
        <g id="text_17">
          <!-- $\zeta=0.1$ -->
          <g transform="translate(446.872 125.978)scale(0.192 -0.192)">
            <use transform="translate(0.0 0.015625)" xlink:href="#DejaVuSans-3b6"/>
            <use transform="translate(73.876953125 0.015625)" xlink:href="#DejaVuSans-3d"/>
            <use transform="translate(155.953125 0.015625)" xlink:href="#DejaVuSans-30"/>
            <use transform="translate(219.576171875 0.015625)" xlink:href="#DejaVuSans-2e"/>
            <use transform="translate(249.35546875 0.015625)" xlink:href="#DejaVuSans-31"/>
          </g>
        </g>
        <g id="line2d_56">
          <path d="
M 398.872 147.482
L 425.752 147.482" style="fill:none;stroke:#dd00aa;stroke-linecap:square;stroke-width:2.4;"/>
        </g>
        <g id="line2d_57"/>
        <g id="text_18">
          <!-- $\zeta=0.2$ -->
          <g transform="translate(446.872 154.202)scale(0.192 -0.192)">
            <use transform="translate(0.0 0.015625)" xlink:href="#DejaVuSans-3b6"/>
            <use transform="translate(73.876953125 0.015625)" xlink:href="#DejaVuSans-3d"/>
            <use transform="translate(155.953125 0.015625)" xlink:href="#DejaVuSans-30"/>
            <use transform="translate(219.576171875 0.015625)" xlink:href="#DejaVuSans-2e"/>
            <use transform="translate(249.35546875 0.015625)" xlink:href="#DejaVuSans-32"/>
          </g>
        </g>
        <g id="line2d_58">
          <path d="
M 398.872 175.706
L 425.752 175.706" style="fill:none;stroke:#999900;stroke-linecap:square;stroke-width:2.4;"/>
        </g>
        <g id="line2d_59"/>
        <g id="text_19">
          <!-- $\zeta=0.3$ -->
          <g transform="translate(446.872 182.426)scale(0.192 -0.192)">
            <use transform="translate(0.0 0.015625)" xlink:href="#DejaVuSans-3b6"/>
            <use transform="translate(73.876953125 0.015625)" xlink:href="#DejaVuSans-3d"/>
            <use transform="translate(155.953125 0.015625)" xlink:href="#DejaVuSans-30"/>
            <use transform="translate(219.576171875 0.015625)" xlink:href="#DejaVuSans-2e"/>
            <use transform="translate(249.35546875 0.015625)" xlink:href="#DejaVuSans-33"/>
          </g>
        </g>
        <g id="line2d_60">
          <path d="
M 398.872 203.93
L 425.752 203.93" style="fill:none;stroke:#00bb00;stroke-linecap:square;stroke-width:2.4;"/>
        </g>
        <g id="line2d_61"/>
        <g id="text_20">
          <!-- $\zeta=0.5$ -->
          <g transform="translate(446.872 210.65)scale(0.192 -0.192)">
            <use transform="translate(0.0 0.015625)" xlink:href="#DejaVuSans-3b6"/>
            <use transform="translate(73.876953125 0.015625)" xlink:href="#DejaVuSans-3d"/>
            <use transform="translate(155.953125 0.015625)" xlink:href="#DejaVuSans-30"/>
            <use transform="translate(219.576171875 0.015625)" xlink:href="#DejaVuSans-2e"/>
            <use transform="translate(249.35546875 0.015625)" xlink:href="#DejaVuSans-35"/>
          </g>
        </g>
        <g id="line2d_62">
          <path d="
M 398.872 232.154
L 425.752 232.154" style="fill:none;stroke:#00bbcc;stroke-linecap:square;stroke-width:2.4;"/>
        </g>
        <g id="line2d_63"/>
        <g id="text_21">
          <!-- $\zeta=1.0$ -->
          <g transform="translate(446.872 238.874)scale(0.192 -0.192)">
            <use transform="translate(0.0 0.015625)" xlink:href="#DejaVuSans-3b6"/>
            <use transform="translate(73.876953125 0.015625)" xlink:href="#DejaVuSans-3d"/>
            <use transform="translate(155.953125 0.015625)" xlink:href="#DejaVuSans-31"/>
            <use transform="translate(219.576171875 0.015625)" xlink:href="#DejaVuSans-2e"/>
            <use transform="translate(249.35546875 0.015625)" xlink:href="#DejaVuSans-30"/>
          </g>
        </g>
      </g>
    </g>
  </g>
</svg>
