<svg xmlns="http://www.w3.org/2000/svg" xmlns:xlink="http://www.w3.org/1999/xlink" version="1.1" width="175.562pt" height="168.972pt" viewBox="0 0 175.562 168.972">
<defs>
<path id="font_0_3" d="M.72099307 .3387909C.72099307 .5429535 .56999209 .7050781 .3880005 .7050781 .20899964 .7050781 .055999757 .5449524 .055999757 .3387909 .055999757 .13363648 .20999146-.022460938 .3880005-.022460938 .56999209-.022460938 .72099307 .13664246 .72099307 .3387909M.3889923 .0035247803C.29299928 .0035247803 .15899658 .09159851 .15899658 .35281373 .15899658 .6120148 .30499269 .68006899 .3880005 .68006899 .47499085 .68006899 .6179962 .6090088 .6179962 .35281373 .6179962 .08760071 .48098756 .0035247803 .3889923 .0035247803Z"/>
<path id="font_1_1" d="M.33399964 .30233766C.33999635 .32835389 .36299134 .42037965 .43299867 .42037965 .43798829 .42037965 .46199037 .42037965 .48298646 .40734864 .45498658 .402359 .43499757 .37734986 .43499757 .35334779 .43499757 .33735658 .44599916 .31835938 .47299195 .31835938 .49499513 .31835938 .5269928 .3363495 .5269928 .37635804 .5269928 .42837525 .46798707 .4423828 .43399049 .4423828 .37599183 .4423828 .34098817 .38935853 .32899476 .36634828 .3039856 .43237306 .25 .4423828 .22099304 .4423828 .116989139 .4423828 .05999756 .3133545 .05999756 .28834535 .05999756 .27833558 .069992069 .27833558 .07199097 .27833558 .07998657 .27833558 .08299255 .28033448 .084991458 .28933717 .11898804 .39535523 .18499756 .42037965 .21899414 .42037965 .23799134 .42037965 .272995 .4113617 .272995 .35334779 .272995 .32235719 .2559967 .25532533 .21899414 .11528015 .20298767 .053268434 .16799927 .011245728 .12399292 .011245728 .117996219 .011245728 .09498596 .011245728 .07398987 .024276734 .09899902 .029266358 .12098694 .05027771 .12098694 .07827759 .12098694 .105270389 .09899902 .11328125 .083999637 .11328125 .053985597 .11328125 .0289917 .08728027 .0289917 .055267335 .0289917 .009246826 .07899475-.0107421879 .12298584-.0107421879 .18899536-.0107421879 .22499085 .059280397 .22799683 .0652771 .23999024 .028274537 .27598573-.0107421879 .33599855-.0107421879 .43899537-.0107421879 .49598695 .118270877 .49598695 .14328003 .49598695 .1532898 .4869995 .1532898 .48399354 .1532898 .47499085 .1532898 .47299195 .14929199 .47099305 .14228821 .43798829 .03527832 .36999513 .011245728 .33799745 .011245728 .29899598 .011245728 .2829895 .043273927 .2829895 .07727051 .2829895 .09927368 .2889862 .121276859 .2999878 .16529846L.33399964 .30233766Z"/>
<path id="font_1_2" d="M.48599244 .38136292C.48999024 .39537049 .48999024 .39736939 .48999024 .40437318 .48999024 .42237855 .47599793 .43138124 .46099855 .43138124 .45098878 .43138124 .43499757 .42536927 .42599488 .41036988 .42399598 .405365 .41600038 .37435914 .4119873 .35635377 .40499879 .33035279 .397995 .30334474 .3919983 .27633668L.34700013 .09628296C.34298707 .08126831 .2999878 .011245728 .23399353 .011245728 .18299866 .011245728 .17199707 .055267335 .17199707 .0922699 .17199707 .1382904 .18899536 .20030213 .22299195 .28833009 .23899842 .3293457 .24299622 .3403473 .24299622 .36035157 .24299622 .405365 .21099854 .4423828 .16099549 .4423828 .06599426 .4423828 .0289917 .29733277 .0289917 .28833009 .0289917 .27833558 .038986207 .27833558 .040985109 .27833558 .050994874 .27833558 .051986696 .28033448 .056991579 .29634095 .083999637 .3903656 .12399292 .42037965 .1579895 .42037965 .1659851 .42037965 .18299866 .42037965 .18299866 .3883667 .18299866 .36335755 .17298889 .3373413 .1659851 .31834413 .12599182 .21231079 .10798645 .1552887 .10798645 .10827637 .10798645 .019256592 .17098999-.0107421879 .22999573-.0107421879 .2689972-.0107421879 .30299378 .0062561037 .33099366 .03425598 .31799317-.017745972 .30599977-.06674194 .2659912-.11973572 .23999024-.15385437 .20199585-.18309021 .1559906-.18309021 .14199829-.18309021 .09700012-.18005371 .07998657-.14074707 .09599304-.14074707 .10899353-.14074707 .12298584-.1287384 .1329956-.11973572 .14299011-.10673523 .14299011-.08773804 .14299011-.056747438 .115997318-.052734376 .10598755-.052734376 .08299255-.052734376 .049987794-.068740848 .049987794-.11773682 .049987794-.16796875 .09399414-.20507813 .1559906-.20507813 .25898744-.20507813 .3619995-.11373901 .3899994-.00074768069L.48599244 .38136292Z"/>
<path id="font_0_2" d="M.68699648 .32714845C.70199587 .32714845 .72099307 .32714845 .72099307 .34713746 .72099307 .36714173 .70199587 .36714173 .6879883 .36714173H.08898926C.07499695 .36714173 .055999757 .36714173 .055999757 .34713746 .055999757 .32714845 .07499695 .32714845 .08999634 .32714845H.68699648M.6879883 .13284302C.70199587 .13284302 .72099307 .13284302 .72099307 .15284729 .72099307 .17285156 .70199587 .17285156 .68699648 .17285156H.08999634C.07499695 .17285156 .055999757 .17285156 .055999757 .15284729 .055999757 .13284302 .07499695 .13284302 .08898926 .13284302H.6879883Z"/>
<path id="font_2_1" d="M.3889923-.8549652 .21299744-.4659729C.20599365-.44996644 .20098877-.44996644 .19799805-.44996644 .19699097-.44996644 .19198609-.44996644 .18099976-.45796205L.085998538-.52996829C.07299805-.53996279 .07299805-.54296877 .07299805-.54597476 .07299805-.55096438 .07598877-.55696108 .08299255-.55696108 .08898926-.55696108 .10598755-.54296877 .116989139-.53497317 .12298584-.52996829 .13798523-.5189667 .14898682-.51097109L.34599305-.9439697C.35299684-.95996096 .35798646-.95996096 .36698915-.95996096 .38198854-.95996096 .3849945-.95396426 .3919983-.9399719L.84599307 .000030517579C.8529968 .014038086 .8529968 .018035889 .8529968 .02003479 .8529968 .030029297 .8450012 .040039064 .83299258 .040039064 .82499697 .040039064 .81799319 .03503418 .80999758 .01902771L.3889923-.8549652Z"/>
<path id="font_0_1" d="M.2939911 .64004519C.2939911 .66400149 .2939911 .6660156 .2709961 .6660156 .20899964 .60227969 .12098694 .60227969 .08898926 .60227969V.57128909C.10899353 .57128909 .16799927 .57128909 .21998596 .5972748V.07902527C.21998596 .042999269 .21699524 .0309906 .1269989 .0309906H.09498596V0C.12998963 .0029907227 .21699524 .0029907227 .25698854 .0029907227 .29699708 .0029907227 .38398744 .0029907227 .4189911 0V.0309906H.3869934C.29699708 .0309906 .2939911 .041992189 .2939911 .07902527V.64004519Z"/>
</defs>
<path transform="matrix(1,0,0,-1,21.359,147.613)" d="M113.38724 0V113.38724H90.71008V0" fill="#fff200"/>
<path transform="matrix(1,0,0,-1,21.359,147.613)" stroke-width=".19925" stroke-linecap="butt" stroke-miterlimit="10" stroke-linejoin="miter" fill="none" stroke="#000000" d="M113.38724 0V113.38724H90.71008V0"/>
<path transform="matrix(1,0,0,-1,21.359,147.613)" d="M90.71008 0V101.41628H68.03297V0" fill="#fff200"/>
<path transform="matrix(1,0,0,-1,21.359,147.613)" stroke-width=".19925" stroke-linecap="butt" stroke-miterlimit="10" stroke-linejoin="miter" fill="none" stroke="#000000" d="M90.71008 0V101.41628H68.03297V0"/>
<path transform="matrix(1,0,0,-1,21.359,147.613)" d="M68.03297 0V87.82942H45.35588V0" fill="#fff200"/>
<path transform="matrix(1,0,0,-1,21.359,147.613)" stroke-width=".19925" stroke-linecap="butt" stroke-miterlimit="10" stroke-linejoin="miter" fill="none" stroke="#000000" d="M68.03297 0V87.82942H45.35588V0"/>
<path transform="matrix(1,0,0,-1,21.359,147.613)" d="M45.35588 0V71.71301H22.67879V0" fill="#fff200"/>
<path transform="matrix(1,0,0,-1,21.359,147.613)" stroke-width=".19925" stroke-linecap="butt" stroke-miterlimit="10" stroke-linejoin="miter" fill="none" stroke="#000000" d="M45.35588 0V71.71301H22.67879V0"/>
<path transform="matrix(1,0,0,-1,21.359,147.613)" d="M22.67879 0V50.70898H.0017V0" fill="#fff200"/>
<path transform="matrix(1,0,0,-1,21.359,147.613)" stroke-width=".19925" stroke-linecap="butt" stroke-miterlimit="10" stroke-linejoin="miter" fill="none" stroke="#000000" d="M22.67879 0V50.70898H.0017V0"/>
<path transform="matrix(1,0,0,-1,21.359,147.613)" d="M0 0V0H11.33939" fill="#008080"/>
<path transform="matrix(1,0,0,-1,21.359,147.613)" stroke-width=".19925" stroke-linecap="butt" stroke-miterlimit="10" stroke-linejoin="miter" fill="none" stroke="#000000" d="M0 0V0H11.33939"/>
<path transform="matrix(1,0,0,-1,21.359,147.613)" d="M11.33939 0V35.85562H22.67879V0" fill="#008080"/>
<path transform="matrix(1,0,0,-1,21.359,147.613)" stroke-width=".19925" stroke-linecap="butt" stroke-miterlimit="10" stroke-linejoin="miter" fill="none" stroke="#000000" d="M11.33939 0V35.85562H22.67879V0"/>
<path transform="matrix(1,0,0,-1,21.359,147.613)" d="M22.67879 0V50.70898H34.01819V0" fill="#008080"/>
<path transform="matrix(1,0,0,-1,21.359,147.613)" stroke-width=".19925" stroke-linecap="butt" stroke-miterlimit="10" stroke-linejoin="miter" fill="none" stroke="#000000" d="M22.67879 0V50.70898H34.01819V0"/>
<path transform="matrix(1,0,0,-1,21.359,147.613)" d="M34.01819 0V62.10725H45.35765V0" fill="#008080"/>
<path transform="matrix(1,0,0,-1,21.359,147.613)" stroke-width=".19925" stroke-linecap="butt" stroke-miterlimit="10" stroke-linejoin="miter" fill="none" stroke="#000000" d="M34.01819 0V62.10725H45.35765V0"/>
<path transform="matrix(1,0,0,-1,21.359,147.613)" d="M45.35765 0V71.71478H56.69705V0" fill="#008080"/>
<path transform="matrix(1,0,0,-1,21.359,147.613)" stroke-width=".19925" stroke-linecap="butt" stroke-miterlimit="10" stroke-linejoin="miter" fill="none" stroke="#000000" d="M45.35765 0V71.71478H56.69705V0"/>
<path transform="matrix(1,0,0,-1,21.359,147.613)" d="M56.69705 0V80.1787H68.03645V0" fill="#008080"/>
<path transform="matrix(1,0,0,-1,21.359,147.613)" stroke-width=".19925" stroke-linecap="butt" stroke-miterlimit="10" stroke-linejoin="miter" fill="none" stroke="#000000" d="M56.69705 0V80.1787H68.03645V0"/>
<path transform="matrix(1,0,0,-1,21.359,147.613)" d="M68.03645 0V87.83113H79.37584V0" fill="#008080"/>
<path transform="matrix(1,0,0,-1,21.359,147.613)" stroke-width=".19925" stroke-linecap="butt" stroke-miterlimit="10" stroke-linejoin="miter" fill="none" stroke="#000000" d="M68.03645 0V87.83113H79.37584V0"/>
<path transform="matrix(1,0,0,-1,21.359,147.613)" d="M79.37584 0V94.8694H90.7153V0" fill="#008080"/>
<path transform="matrix(1,0,0,-1,21.359,147.613)" stroke-width=".19925" stroke-linecap="butt" stroke-miterlimit="10" stroke-linejoin="miter" fill="none" stroke="#000000" d="M79.37584 0V94.8694H90.7153V0"/>
<path transform="matrix(1,0,0,-1,21.359,147.613)" d="M90.7153 0V101.41975H102.0547V0" fill="#008080"/>
<path transform="matrix(1,0,0,-1,21.359,147.613)" stroke-width=".19925" stroke-linecap="butt" stroke-miterlimit="10" stroke-linejoin="miter" fill="none" stroke="#000000" d="M90.7153 0V101.41975H102.0547V0"/>
<path transform="matrix(1,0,0,-1,21.359,147.613)" d="M102.0547 0V107.5704H113.3941V0" fill="#008080"/>
<path transform="matrix(1,0,0,-1,21.359,147.613)" stroke-width=".19925" stroke-linecap="butt" stroke-miterlimit="10" stroke-linejoin="miter" fill="none" stroke="#000000" d="M102.0547 0V107.5704H113.3941V0"/>
<path transform="matrix(1,0,0,-1,21.359,147.613)" stroke-width=".3985" stroke-linecap="butt" stroke-miterlimit="10" stroke-linejoin="miter" fill="none" stroke="#000000" d="M0 0"/>
<use data-text="O" xlink:href="#font_0_3" transform="matrix(9.96264,0,0,-9.96264,10.091,157.94)"/>
<path transform="matrix(1,0,0,-1,21.359,147.613)" stroke-width=".19925" stroke-linecap="butt" stroke-miterlimit="10" stroke-linejoin="miter" fill="none" stroke="#000000" d="M-21.26009 0H132.95368"/>
<path transform="matrix(1,0,0,-1,154.31267,147.613)" d="M1.69365 0-1.01619 1.35492 0 0-1.01619-1.35492"/>
<use data-text="x" xlink:href="#font_1_1" transform="matrix(9.96264,0,0,-9.96264,159.42499,149.757)"/>
<path transform="matrix(1,0,0,-1,21.359,147.613)" stroke-width=".19925" stroke-linecap="butt" stroke-miterlimit="10" stroke-linejoin="miter" fill="none" stroke="#000000" d="M0-21.26009V132.95368"/>
<path transform="matrix(0,-1,-1,-0,21.359,14.659332)" d="M1.69365 0-1.01619 1.35492 0 0-1.01619-1.35492"/>
<use data-text="y" xlink:href="#font_1_2" transform="matrix(9.96264,0,0,-9.96264,18.737999,7.6100008)"/>
<path transform="matrix(1,0,0,-1,21.359,147.613)" stroke-width=".19925" stroke-linecap="butt" stroke-miterlimit="10" stroke-linejoin="miter" fill="none" stroke="#000000" d="M0 0 .26816 5.51917 .53632 7.79776 .80447 9.5539 1.07265 11.02794 1.3408 12.3325 1.60902 13.50725 1.8772 14.5903 2.14536 15.59558 2.41351 16.5437 2.68169 17.43642 2.94984 18.28937 3.21806 19.10085 3.48624 19.88284 3.7544 20.63199 4.02255 21.35695 4.29073 22.05594 4.55888 22.73242 4.8271 23.39334 5.09528 24.03694 5.36343 24.65979 5.63159 25.26884 5.89977 25.86403 6.16798 26.44536 6.43614 27.01282 6.70432 27.57164 6.97247 28.11836 7.24063 28.65298 7.5088 29.17728 7.77702 29.69456 8.04518 30.20152 8.31334 30.70148 8.58151 31.19116 8.84967 31.67732 9.11783 32.15138 9.38606 32.62198 9.65422 33.08394 9.92238 33.54243 10.19055 33.99052 10.45871 34.4369 10.72693 34.8746 10.9951 35.3089 11.26326 35.7345 11.53142 36.15839 11.79959 36.5771 12.06775 36.9906 12.33597 37.39893 12.60414 37.80379 12.8723 38.20518 13.14046 38.59964 13.40863 38.9924 13.67679 39.37993 13.945 39.76405 14.21318 40.14294 14.48134 40.52184 14.7495 40.89386 15.01765 41.26582 15.28583 41.63086 15.55405 41.99594 15.8222 42.3558 16.09038 42.7122 16.35854 43.0669 16.6267 43.41988 16.89493 43.76764 17.16309 44.11365 17.43124 44.45624 17.69942 44.79877 17.96758 45.13618 18.23573 45.47185 18.50397 45.80574 18.77213 46.13617 19.04028 46.4632 19.30846 46.79016 19.57661 47.11372 19.84477 47.43552 20.113 47.7539 20.38116 48.07224 20.64932 48.3871 20.9175 48.70026 21.18565 49.00995 21.45387 49.32141 21.72205 49.62764 21.9902 49.93387 22.25836 50.23663 22.52652 50.53946 22.7947 50.83875 23.06291 51.13635 23.33107 51.43217 23.59924 51.72807 23.8674 52.0222 24.13556 52.31285 24.40373 52.60176 24.67195 52.89072 24.94011 53.17792 25.20828 53.46164 25.47644 53.74713 25.7446 54.0274 26.01277 54.30942 26.28099 54.58798 26.54915 54.86655 26.81732 55.14165 27.08548 55.41844 27.35364 55.69183 27.62187 55.9617 27.89003 56.23509 28.15819 56.50502 28.42636 56.77142 28.69452 57.04134 28.96268 57.30605 29.23091 57.5708 29.49907 57.83372 29.76723 58.09673 30.03539 58.35802 30.30356 58.61748 30.57172 58.8753 30.83994 59.13307 31.10811 59.38913 31.37627 59.64696 31.64442 59.89955 31.9126 60.15385 32.18082 60.40475 32.44897 60.65564 32.71715 60.90648 32.9853 61.15567 33.25346 61.40303 33.52164 61.65047 33.78986 61.89612 34.05801 62.14355 34.32619 62.3858 34.59435 62.62971 34.8625 62.87196 35.13068 63.11417 35.3989 63.35466 35.66705 63.59346 35.93523 63.83218 36.20338 64.06921 36.47154 64.30801 36.73976 64.54158 37.00793 64.7786 37.2761 65.01216 37.54425 65.24573 37.81242 65.47758 38.08058 65.70938 38.3488 65.93948 38.61697 66.17134 38.88513 66.40144 39.15329 66.62813 39.42146 66.85648 39.68962 67.08487 39.95784 67.3098 40.22601 67.53642 40.49417 67.75964 40.76233 67.98457 41.0305 68.20775 41.29866 68.43091 41.56688 68.65237 41.83505 68.87383 42.10321 69.0936 42.37137 69.3133 42.63954 69.53128 42.90776 69.74928 43.17592 69.96729 43.44409 70.18527 43.71225 70.40157 43.98041 70.61786 44.24857 70.8324 44.5168 71.04692 44.78496 71.25975 45.05312 71.47252 45.32129 71.68535 45.58945 71.89641 45.8576 72.10748 46.12584 72.3186 46.394 72.52797 46.66216 72.73726 46.93033 72.9484 47.19849 73.15599 47.4667 73.36188 47.73488 73.56947 48.00304 73.77708 48.2712 73.98128 48.53937 74.18716 48.80753 74.3913 49.07574 74.59549 49.34392 74.79962 49.61208 75.00206 49.88023 75.20448 50.1484 75.4069 50.41656 75.60757 50.68478 75.8083 50.95296 76.00897 51.22112 76.20793 51.48927 76.40697 51.75743 76.60593 52.0256 76.80313 52.29382 77.00209 52.56198 77.19934 52.83015 77.3966 53.09831 77.5921 53.36647 77.7876 53.6347 77.98311 53.90286 78.1786 54.17102 78.37239 54.4392 78.5662 54.70735 78.75822 54.97551 78.95201 55.24374 79.14404 55.5119 79.33607 55.78006 79.5281 56.04823 79.71844 56.31639 79.90877 56.58455 80.09909 56.85278 80.28766 57.12094 80.47798 57.3891 80.66655 57.65727 80.85518 57.92543 81.04198 58.19365 81.2306 58.46182 81.41747 58.72998 81.60434 58.99814 81.78943 59.2663 81.9763 59.53447 82.1597 59.80269 82.34479 60.07085 82.52995 60.33902 82.71335 60.60718 82.89674 60.87534 83.08185 61.14351 83.26353 61.41173 83.44693 61.67989 83.62686 61.94806 83.8085 62.21622 83.99019 62.48438 84.17183 62.75261 84.35182 63.02077 84.53175 63.28893 84.71169 63.5571 84.88985 63.82526 85.06978 64.09341 85.248 64.36165 85.42624 64.6298 85.6044 64.89796 85.78262 65.16614 85.95909 65.4343 86.13556 65.70245 86.31209 65.97067 86.48854 66.23885 86.66325 66.507 86.83801 66.77516 87.01277 67.04333 87.18753 67.3115 87.36223 67.57971 87.5353 67.84789 87.70999 68.11604 87.88306 68.3842 88.05606 68.65237 88.22736 68.9206 88.40034 69.18875 88.57164 69.45692 88.74294 69.72508 88.91417 69.99324 89.08546 70.26141 89.25676 70.52963 89.4263 70.79779 89.59589 71.06596 89.76543 71.33412 89.93501 71.60228 90.10278 71.87045 90.27238 72.13867 90.44022 72.40683 90.60805 72.675 90.77586 72.94316 90.9437 73.21132 91.11147 73.47954 91.27583 73.74771 91.44366 74.01587 91.60979 74.28403 91.77586 74.5522 91.94199 74.82036 92.10635 75.08858 92.2707 75.35675 92.43678 75.62491 92.59944 75.89307 92.76381 76.16124 92.92816 76.4294 93.09253 76.69762 93.25343 76.96579 93.41779 77.23395 93.5804 77.5021 93.74306 77.77028 93.90395 78.03844 94.0666 78.30666 94.22751 78.57483 94.38841 78.84299 94.55101 79.11115 94.71196 79.37932 94.8711 79.64754 95.03029 79.9157 95.1912 80.18387 95.35039 80.45203 95.50952 80.72018 95.66872 80.98834 95.82616 81.25658 95.98705 81.52473 96.14449 81.7929 96.30197 82.06107 96.4594 82.32922 96.61684 82.59738 96.77426 82.86562 96.9317 83.13377 97.08743 83.40193 97.24486 83.6701 97.40236 83.93826 97.55801 84.20648 97.71375 84.47466 97.86772 84.74281 98.0252 85.01097 98.17917 85.27914 98.33315 85.5473 98.48886 85.81552 98.64284 86.0837 98.79686 86.35185 98.94907 86.62001 99.10309 86.88818 99.25705 87.15634 99.40932 87.42456 99.56328 87.69273 99.71555 87.96089 99.86781 88.22905 100.02007 88.49721 100.17227 88.76544 100.32283 89.0336 100.4751 89.30176 100.6256 89.56993 100.77786 89.83809 100.92665 90.10625 101.07716 90.37448 101.22942 90.64264 101.37822 90.9108 101.52872 91.17897 101.6775 91.44713 101.82808 91.71529 101.97687 91.98352 102.12567 92.25168 102.27446 92.51984 102.4232 92.78801 102.57199 93.05617 102.71909 93.32433 102.86789 93.59256 103.01492 93.86072 103.16202 94.12888 103.30905 94.39705 103.45615 94.6652 103.60318 94.93343 103.75027 95.2016 103.89731 95.46976 104.04263 95.73792 104.18973 96.00607 104.33507 96.27425 104.4804 96.54247 104.62572 96.81062 104.77106 97.0788 104.91638 97.34695 105.06172 97.61511 105.20528 97.88329 105.35068 98.1515 105.49425 98.41966 105.63788 98.68784 105.7832 98.956 105.92677 99.22415 106.06863 99.49239 106.21227 99.76054 106.35413 100.0287 106.49776 100.29688 106.64133 100.56503 106.78319 100.83319 106.92511 101.10143 107.06868 101.36958 107.21054 101.63774 107.35242 101.90591 107.49257 102.17407 107.63445 102.44223 107.7763 102.71045 107.91646 102.97862 108.05663 103.24678 108.19673 103.51494 108.3386 103.78311 108.47876 104.05127 108.61891 104.31949 108.75902 104.58766 108.89748 104.85582 109.03758 105.12398 109.17775 105.39215 109.31615 105.66037 109.45454 105.92853 109.5947 106.1967 109.73311 106.46486 109.87157 106.73302 110.00996 107.00119 110.14836 107.26941 110.28505 107.53757 110.42345 107.80574 110.56015 108.0739 110.6968 108.34206 110.83525 108.61023 110.97188 108.87845 111.10858 109.1466 111.24698 109.41478 111.38197 109.68294 111.51866 109.9511 111.6553 110.21931 111.79199 110.48749 111.9287 110.75565 112.06363 111.0238 112.19856 111.29198 112.33356 111.56013 112.47025 111.82835 112.60518 112.09653 112.74011 112.36469 112.87334 112.63284 113.00827 112.90102 113.14326 113.16917 113.2765 113.4374 113.41144 113.70557 113.54466 113.97372 113.6796 114.24188 113.81282 114.51006 113.94606 114.77827 114.07928 115.04643 114.21246 115.3146 114.34569 115.58276 114.47891 115.85092 114.61215 116.1191 114.7436 116.38731 114.87685 116.65547 115.00838 116.92365 115.1416 117.1918 115.27307 117.45996 115.4063 117.72812 115.53777 117.99635 115.6693 118.26451 115.79906 118.53267 115.93053 118.80084 116.062 119.069 116.19176 119.33716 116.32329 119.6054 116.45474 119.87355 116.58452 120.14171 116.71428 120.40988 116.84581 120.67804 116.97551 120.94626 117.10527 121.21443 117.23503 121.48259 117.36479 121.75075 117.49457 122.01892 117.62262 122.28708 117.7524 122.5553 117.88216 122.82347 118.01015 123.09163 118.13992 123.35979 118.26797 123.62796 118.39598 123.89612 118.52405 124.16434 118.65204 124.43251 118.7818 124.70067 118.90987 124.96883 119.03616 125.23698 119.16417 125.50522 119.29047 125.77338 119.42023 126.04153 119.54652 126.30971 119.67282 126.57787 119.80089 126.84602 119.92719 127.11426 120.05519 127.38242 120.17978 127.65057 120.30779 127.91875 120.43237 128.1869 120.55867 128.45507 120.68674 128.7233 120.81126 128.99146 120.93756 129.25962 121.06216 129.52779 121.18846 129.79595 121.31476 130.0641 121.43936 130.33234 121.56389 130.6005 121.69019 130.86865 121.81479 131.13683 121.93932 131.40499 122.06392 131.6732 122.1885 131.94136 122.31305 132.20954 122.43588 132.47769 122.56218 132.74585 122.68506 133.01403 122.80789 133.28224 122.93243 133.5504 123.05527 133.81858 123.17986 134.08673 123.30269 134.35489 123.42729 134.62306 123.54836"/>
<use data-text="y" xlink:href="#font_1_2" transform="matrix(9.96264,0,0,-9.96264,139.72,18.257004)"/>
<use data-text="=" xlink:href="#font_0_2" transform="matrix(9.96264,0,0,-9.96264,147.729,18.257004)"/>
<use data-text="&#x221a;" xlink:href="#font_2_1" transform="matrix(9.96264,0,0,-9.96264,158.245,11.080994)"/>
<path transform="matrix(1,0,0,-1,166.548,10.882004)" stroke-width=".398" stroke-linecap="butt" stroke-miterlimit="10" stroke-linejoin="miter" fill="none" stroke="#000000" d="M0 0H5.694"/>
<use data-text="x" xlink:href="#font_1_1" transform="matrix(9.96264,0,0,-9.96264,166.548,18.257004)"/>
<path transform="matrix(1,0,0,-1,21.359,147.613)" stroke-width=".3985" stroke-linecap="butt" stroke-miterlimit="10" stroke-linejoin="miter" fill="none" stroke="#000000" d="M113.38724 0"/>
<use data-text="1" xlink:href="#font_0_1" transform="matrix(9.96264,0,0,-9.96264,132.255,157.55301)"/>
</svg>
