<?xml version="1.0" encoding="UTF-8"?>
<svg width="133pt" xmlns:xlink="http://www.w3.org/1999/xlink" xmlns="http://www.w3.org/2000/svg" height="107pt" viewBox="0 0 133 107" >
 <g transform="translate(8, 77.5535)" style="fill:#000000; fill-rule:evenodd; stroke:none; stroke-width:0.0105942; stroke-linecap:butt; stroke-linejoin:miter; stroke-dasharray:none;" >
  <path d="M13.1455 11.0174 C13.1455 11.0174 13.1455 20.2303 13.1455 20.2303 C13.1455 20.2303 15.7585 20.2303 15.7585 20.2303 C15.7585 20.2303 15.7585 0 15.7585 0 C15.7585 0 13.1455 0 13.1455 0 C13.1455 0 13.1455 8.74215 13.1455 8.74215 C13.1455 8.74215 2.61168 8.74215 2.61168 8.74215 C2.61168 8.74215 2.61168 0 2.61168 0 C2.61168 0 0 0 0 0 C0 0 0 20.2303 0 20.2303 C0 20.2303 2.64024 20.2303 2.64024 20.2303 C2.64024 20.2303 2.64024 11.0174 2.64024 11.0174 C2.64024 11.0174 13.1455 11.0174 13.1455 11.0174 Z" />
 </g>
 <g transform="translate(47.104, 54.673)" style="fill:#000000; fill-rule:evenodd; stroke:none; stroke-width:0.0105942; stroke-linecap:butt; stroke-linejoin:miter; stroke-dasharray:none;" >
  <path d="M17.2467 6.60454 C16.4329 2.16467 13.8486 0 9.35321 0 C6.60084 0 4.3823 0.860502 2.86438 2.526 C1.01043 4.52347 0 7.40966 0 10.6843 C0 14.0142 1.03899 16.8722 2.97756 18.8426 C4.55026 20.4528 6.57228 21.2015 9.2412 21.2015 C14.2417 21.2015 17.05 18.5377 17.6684 13.182 C17.6684 13.182 14.9721 13.182 14.9721 13.182 C14.747 14.5698 14.4657 15.5126 14.0451 16.3177 C13.2016 17.9822 11.4608 18.9262 9.26976 18.9262 C5.1961 18.9262 2.6118 15.7069 2.6118 10.656 C2.6118 5.46746 5.08409 2.27532 9.04457 2.27532 C10.7019 2.27532 12.2472 2.77553 13.0896 3.55243 C13.8486 4.24573 14.2692 5.10612 14.5789 6.60454 C14.5789 6.60454 17.2467 6.60454 17.2467 6.60454 Z" />
 </g>
 <g transform="translate(27.0868, 70.1483)" style="fill:#000000; fill-rule:nonzero; stroke:none; stroke-width:1.97767; stroke-linecap:butt; stroke-linejoin:miter; stroke-dasharray:none;" >
  <path d="M17.7324 0 C17.7324 0 18.7268 1.73442 18.7268 1.73442 C18.7268 1.73442 0.995562 11.8518 0.995562 11.8518 C0.995562 11.8518 0 10.1174 0 10.1174 C0 10.1174 17.7324 0 17.7324 0 Z" />
 </g>
 <g transform="translate(86.032, 77.7985)" style="fill:#000000; fill-rule:evenodd; stroke:none; stroke-width:1.97767; stroke-linecap:butt; stroke-linejoin:miter; stroke-dasharray:none;" >
  <path d="M9.85942 0 C3.98904 0 0 4.27395 0 10.6008 C0 16.9286 3.98904 21.2015 9.88809 21.2015 C12.3592 21.2015 14.5789 20.4528 16.2362 19.065 C18.4548 17.2053 19.7754 14.0696 19.7754 10.7678 C19.7754 4.24573 15.8705 0 9.85942 0 Z M9.85942 2.27532 C14.2977 2.27532 17.1632 5.60644 17.1632 10.7126 C17.1632 15.5962 14.2132 18.9262 9.88809 18.9262 C5.53318 18.9262 2.6118 15.5962 2.6118 10.6008 C2.6118 5.60644 5.53318 2.27532 9.85942 2.27532 Z" />
 </g>
 <g transform="translate(109.241, 78.1316)" style="fill:#000000; fill-rule:evenodd; stroke:none; stroke-width:1.97767; stroke-linecap:butt; stroke-linejoin:miter; stroke-dasharray:none;" >
  <path d="M13.1462 11.0174 C13.1462 11.0174 13.1462 20.2303 13.1462 20.2303 C13.1462 20.2303 15.7586 20.2303 15.7586 20.2303 C15.7586 20.2303 15.7586 0 15.7586 0 C15.7586 0 13.1462 0 13.1462 0 C13.1462 0 13.1462 8.74215 13.1462 8.74215 C13.1462 8.74215 2.61239 8.74215 2.61239 8.74215 C2.61239 8.74215 2.61239 0 2.61239 0 C2.61239 0 0 0 0 0 C0 0 0 20.2303 0 20.2303 C0 20.2303 2.64048 20.2303 2.64048 20.2303 C2.64048 20.2303 2.64048 11.0174 2.64048 11.0174 C2.64048 11.0174 13.1462 11.0174 13.1462 11.0174 Z" />
 </g>
 <g transform="translate(66.5303, 70.5537)" style="fill:#000000; fill-rule:nonzero; stroke:none; stroke-width:1.97767; stroke-linecap:butt; stroke-linejoin:miter; stroke-dasharray:none;" >
  <path d="M19.136 10.3489 C19.136 10.3489 18.1416 12.0246 18.1416 12.0246 C18.1416 12.0246 0 1.67683 0 1.67683 C0 1.67683 0.994392 0 0.994392 0 C0.994392 0 19.136 10.3489 19.136 10.3489 Z" />
 </g>
 <g transform="translate(45.945, 9)" style="fill:#000000; fill-rule:evenodd; stroke:none; stroke-width:1.97767; stroke-linecap:butt; stroke-linejoin:miter; stroke-dasharray:none;" >
  <path d="M9.85942 0 C3.98904 0 0 4.27395 0 10.6008 C0 16.9286 3.98904 21.2015 9.88809 21.2015 C12.3592 21.2015 14.5789 20.4528 16.2362 19.065 C18.4548 17.2053 19.7749 14.0696 19.7749 10.7678 C19.7749 4.24573 15.8705 0 9.85942 0 Z M9.85942 2.27532 C14.2977 2.27532 17.1632 5.60644 17.1632 10.7126 C17.1632 15.5962 14.2132 18.9262 9.88809 18.9262 C5.53318 18.9262 2.6118 15.5962 2.6118 10.6008 C2.6118 5.60644 5.53318 2.27532 9.85942 2.27532 Z" />
 </g>
 <g transform="translate(51.3731, 32.3966)" style="fill:#000000; fill-rule:nonzero; stroke:none; stroke-width:1.97767; stroke-linecap:butt; stroke-linejoin:miter; stroke-dasharray:none;" >
  <path d="M0 0 C0 0 1.98995 0 1.98995 0 C1.98995 0 1.98995 20.0609 1.98995 20.0609 C1.98995 20.0609 0 20.0609 0 20.0609 C0 20.0609 0 0 0 0 Z" />
 </g>
 <g transform="translate(58.3373, 32.3966)" style="fill:#000000; fill-rule:nonzero; stroke:none; stroke-width:1.97767; stroke-linecap:butt; stroke-linejoin:miter; stroke-dasharray:none;" >
  <path d="M0 0 C0 0 1.98995 0 1.98995 0 C1.98995 0 1.98995 20.0609 1.98995 20.0609 C1.98995 20.0609 0 20.0609 0 20.0609 C0 20.0609 0 0 0 0 Z" />
 </g>
</svg>
