<svg xmlns="http://www.w3.org/2000/svg" height="938" version="1.0" viewBox="333 142 170 145" width="1100">
<g style="stroke-linecap:butt;stroke-width:2.3;stroke:#000">
<path d="M394.1 237l-8.8 13M393.3 205.5l2.1 -0.9M389.6 199.1 393 197.6M385.9 192.8l4.8 -2.2M382.1 186.4l6.2 -2.8M466.8 210.7l8.1 -14M416 224h25" />
<path d="M388.5 217.6l-23.1 -9.7 3.2 -6 20.9 13.7z" style="fill:#000;stroke-width:1" />
</g><g style="fill:#000"><path
d="M408.2 226.8l2.8 0.7q-0.9 3.5 -3.2 5.3 -2.3 1.8 -5.7 1.8 -3.5 0 -5.7 -1.4 -2.2 -1.4 -3.3 -4.1 -1.1 -2.7 -1.1 -5.8 0 -3.4 1.3 -5.8 1.3 -2.5 3.6 -3.8 2.4 -1.3 5.2 -1.3 3.2 0 5.4 1.6 2.2 1.6 3.1 4.6l-2.8 0.7q-0.7 -2.3 -2.2 -3.4 -1.4 -1.1 -3.6 -1.1 -2.5 0 -4.1 1.2 -1.7 1.2 -2.3 3.2 -0.7 2 -0.7 4.1 0 2.7 0.8 4.8 0.8 2 2.5 3 1.7 1 3.6 1 2.4 0 4 -1.4 1.7 -1.4 2.2 -4.1z"/>
<path d="M443.8 223.3q0 -5.3 2.9 -8.4 2.9 -3 7.4 -3 3 0 5.4 1.4 2.4 1.4 3.6 4 1.3 2.5 1.3 5.8 0 3.3 -1.3 5.8 -1.3 2.6 -3.7 3.9 -2.4 1.3 -5.2 1.3 -3 0 -5.4 -1.5 -2.4 -1.5 -3.7 -4 -1.2 -2.5 -1.3 -5.4zm2.9 0q0 3.9 2.1 6.1 2.1 2.2 5.2 2.2 3.2 0 5.3 -2.3 2.1 -2.3 2.1 -6.4 0 -2.6 -0.9 -4.6 -0.9 -2 -2.6 -3 -1.7 -1.1 -3.8 -1.1 -3 0 -5.2 2.1 -2.2 2.1 -2.2 6.9z
M473.5 191.2v-21.5h2.8v8.8h11.2v-8.8h2.8V191.2h-2.8V181.1H476.3V191.2L473.5 191.2
M371.5 178.2v-21.5h2.8v8.8h11.2v-8.8h2.8V178.2h-2.8V168.1H374.3V178.2L371.5 178.2
M343.5 208.2v-21.5h2.8v8.8h11.2v-8.8h2.8V208.2h-2.8V198.1H346.3V208.2L343.5 208.2
M364.5 272.2v-21.5h2.8v8.8h11.2v-8.8h2.8V272.2h-2.8V262.1H367.3V272.2L364.5 272.2"/></g></svg>
