<?xml version="1.0" encoding="UTF-8"?>
<svg width="600" height="600" version="1.1" xmlns="http://www.w3.org/2000/svg">
	<g fill="#9d9dff" fill-rule="evenodd" stroke-linecap="round" stroke-width="2.5">
		<path d="m300 500v-400" stroke="#000"/>
		<path d="m100 300h400" stroke="#000"/>
		<g stroke="#9d9dff">
			<path d="m126.8 400 346.41-200"/>
			<path d="m200 473.2 200-346.41"/>
			<path d="m126.8 200 346.41 200"/>
			<path d="m200 126.79 200 346.41"/>
		</g>
	</g>
	<circle cx="300" cy="300" r="7.5"/>
	<g fill="none" stroke="#ff7e7e" stroke-width="2.5">
		<circle cx="300" cy="300" r="180"/>
		<circle cx="300" cy="300" r="60"/>
		<circle cx="300" cy="300" r="120"/>
	</g>
	<g font-family="FreeSans" font-size="28" text-anchor="middle">
		<text x="301" y="74">90°</text>
		<text x="420" y="105">60°</text>
		<text x="507" y="190">30°</text>
		<text x="536" y="309">0°</text>
		<text x="510" y="430">330°</text>
		<text x="424" y="514">300°</text>
		<text x="301" y="545">270°</text>
		<text x="185" y="520">240°</text>
		<text x="100" y="431">210°</text>
		<text x="65" y="309">180°</text>
		<text x="95" y="195">150°</text>
		<text x="182" y="107">120°</text>
	</g>
</svg>
