<svg width="300px" height="300px" version="1.1" viewBox="-102 -102 204 204"
	xmlns="http://www.w3.org/2000/svg" xmlns:xlink="http://www.w3.org/1999/xlink">
<title>Ellipse showing semi-latus rectum</title>
<defs>
	<marker id="a1" viewBox="0 0 10 10" refX="10" refY="5"
		markerUnits="strokeWidth" orient="auto" markerWidth="8" markerHeight="7">
		<path d="M0,0L10,5L0,10A2,5 0 0,0 0,0" fill="black"/>
	</marker>
	<marker id="a2" viewBox="0 0 10 10" refX="10" refY="5"
		markerUnits="strokeWidth" orient="auto" markerWidth="8" markerHeight="7">
		<path d="M0,0L10,5L0,10A2,5 0 0,0 0,0" fill="magenta"/>
	</marker>
</defs>
<g fill="none" stroke="black">
	<ellipse rx="60" ry="50" transform="translate(-40)" fill="cyan"/>
	<circle r="100"/><circle r="20"/><circle id="pt" r="3" fill="#f00"/><use xlink:href="#pt" x="-79"/>
	<circle cx="-40" r="3" fill="#55f"/><circle cx="-20" cy="-48" r="3" fill="magenta"/>
	<g marker-end="url(#a1)">
		<path d="M0,0H100" transform="rotate(30)"/><path d="M0,0H20" transform="rotate(120)"/>
		<path d="M-40,-10V-50"/><path d="M-40,-10V0"/><path d="M-79,0H-100"/><path d="M-79,0H-40"/>
		<path d="M-79,-20V0"/><path d="M-79,-20V-38"/>
	</g>
	<g stroke="magenta">
		<path d="M0,0H100" stroke-dasharray="4,3,2"/>
		<g marker-end="url(#a2)"><path d="M0,0L-20,-48"/><path d="M10,0 A10,10 0 0,0 -3.8,-9.3"/></g>
	</g>
</g>
<g font-style="italic" font-family="New Century Schoolbook" font-size="10" fill="black">
	<text x="50" y="25">r<tspan dy="3" font-size="8" font-style="normal">max</tspan></text>
	<text x="-20" y="25">r<tspan dy="3" font-size="8" font-style="normal">min</tspan></text>
	<text x="-15" y="-20" fill="magenta">r</text><text x="8" y="-7" fill="magenta">θ</text>
	<text x="-80" y="8">a</text><text x="-38" y="-20">b</text><text x="-76" y="-18">p</text>
</g>
</svg>
