<?xml version="1.0" encoding="UTF-8" standalone="no"?>
<!-- Created with Inkscape (http://www.inkscape.org/) -->
<svg
   xmlns:dc="http://purl.org/dc/elements/1.1/"
   xmlns:cc="http://web.resource.org/cc/"
   xmlns:rdf="http://www.w3.org/1999/02/22-rdf-syntax-ns#"
   xmlns:svg="http://www.w3.org/2000/svg"
   xmlns="http://www.w3.org/2000/svg"
   xmlns:xlink="http://www.w3.org/1999/xlink"
   xmlns:sodipodi="http://sodipodi.sourceforge.net/DTD/sodipodi-0.dtd"
   xmlns:inkscape="http://www.inkscape.org/namespaces/inkscape"
   width="950"
   height="500"
   id="svg2806"
   sodipodi:version="0.32"
   inkscape:version="0.45"
   version="1.0"
   sodipodi:docbase="/tmp"
   sodipodi:docname="VenusTransitVermeer_%28fr%29.svg"
   inkscape:output_extension="org.inkscape.output.svg.inkscape"
   sodipodi:modified="true">
  <defs
     id="defs2808">
    <linearGradient
       id="linearGradient3430">
      <stop
         style="stop-color:#e6a968;stop-opacity:1;"
         offset="0"
         id="stop3432" />
      <stop
         id="stop3438"
         offset="0.4453125"
         style="stop-color:#e9c372;stop-opacity:1;" />
      <stop
         style="stop-color:#fffc00;stop-opacity:1;"
         offset="1"
         id="stop3434" />
    </linearGradient>
    <marker
       inkscape:stockid="Arrow1Lstart"
       orient="auto"
       refY="0"
       refX="0"
       id="Arrow1Lstart"
       style="overflow:visible">
      <path
         id="path3249"
         d="M 0,0 L 5,-5 L -12.5,0 L 5,5 L 0,0 z "
         style="fill-rule:evenodd;stroke:black;stroke-width:1pt;marker-start:none"
         transform="matrix(0.8,0,0,0.8,10,0)" />
    </marker>
    <marker
       inkscape:stockid="Arrow2Lend"
       orient="auto"
       refY="0"
       refX="0"
       id="Arrow2Lend"
       style="overflow:visible">
      <path
         id="path3228"
         style="font-size:12px;fill-rule:evenodd;stroke-width:0.625;stroke-linejoin:round"
         d="M 8.7185878,4.0337352 L -2.2072895,0.016013256 L 8.7185884,-4.0017078 C 6.97309,-1.6296469 6.9831476,1.6157441 8.7185878,4.0337352 z "
         transform="matrix(-1.1,0,0,-1.1,-1.1,0)" />
    </marker>
    <radialGradient
       inkscape:collect="always"
       xlink:href="#linearGradient3430"
       id="radialGradient3436"
       cx="229.28572"
       cy="337.66592"
       fx="229.28572"
       fy="337.66592"
       r="83.571426"
       gradientUnits="userSpaceOnUse" />
    <radialGradient
       inkscape:collect="always"
       xlink:href="#linearGradient3430"
       id="radialGradient3656"
       gradientUnits="userSpaceOnUse"
       cx="229.28572"
       cy="337.66592"
       fx="229.28572"
       fy="337.66592"
       r="83.571426" />
  </defs>
  <sodipodi:namedview
     id="base"
     pagecolor="#ffffff"
     bordercolor="#666666"
     borderopacity="1.0"
     inkscape:pageopacity="0.0"
     inkscape:pageshadow="2"
     inkscape:zoom="0.9899495"
     inkscape:cx="447.08702"
     inkscape:cy="278.43022"
     inkscape:document-units="px"
     inkscape:current-layer="layer1"
     width="950px"
     height="500px"
     inkscape:window-width="1280"
     inkscape:window-height="960"
     inkscape:window-x="114"
     inkscape:window-y="63" />
  <metadata
     id="metadata2811">
    <rdf:RDF>
      <cc:Work
         rdf:about="">
        <dc:format>image/svg+xml</dc:format>
        <dc:type
           rdf:resource="http://purl.org/dc/dcmitype/StillImage" />
      </cc:Work>
    </rdf:RDF>
  </metadata>
  <g
     inkscape:label="Calque 1"
     inkscape:groupmode="layer"
     id="layer1"
     transform="translate(-98.59375,-86.96567)">
    <path
       sodipodi:type="arc"
       style="color:black;fill:url(#radialGradient3656);fill-opacity:1;fill-rule:nonzero;stroke:none;stroke-width:2.5;stroke-linecap:round;stroke-linejoin:miter;marker:none;marker-start:none;marker-mid:none;marker-end:none;stroke-miterlimit:4;stroke-dasharray:none;stroke-dashoffset:0;stroke-opacity:1;visibility:visible;display:inline;overflow:visible"
       id="path3068"
       sodipodi:cx="229.28572"
       sodipodi:cy="337.66592"
       sodipodi:rx="83.571426"
       sodipodi:ry="83.571426"
       d="M 312.85715 337.66592 A 83.571426 83.571426 0 1 1  145.71429,337.66592 A 83.571426 83.571426 0 1 1  312.85715 337.66592 z"
       transform="translate(25.47528,18.4368)" />
    <g
       id="g3518"
       transform="translate(25.47528,18.4368)">
      <path
         style="fill:black;fill-opacity:1;fill-rule:evenodd;stroke:none;stroke-width:1px;stroke-linecap:butt;stroke-linejoin:miter;stroke-opacity:1"
         d="M 378.90625,353.625 L 98.96875,362.9375 L 99,363.9375 L 378.9375,354.625 L 378.90625,353.625 z "
         id="path3072" />
      <path
         d="M 368.09765,350.04573 L 380.25646,354.06306 L 368.39163,358.87983 C 370.22383,356.20814 370.09404,352.64056 368.09765,350.04573 z "
         style="font-size:12px;fill-rule:evenodd;stroke-width:0.625;stroke-linejoin:round"
         id="path3524" />
    </g>
    <g
       id="g3526"
       transform="translate(25.47528,18.4368)">
      <path
         style="fill:black;fill-opacity:1;fill-rule:evenodd;stroke:none;stroke-width:1px;stroke-linecap:butt;stroke-linejoin:miter;stroke-opacity:1"
         d="M 378.53125,381.09375 L 98.59375,390.40625 L 98.625,391.40625 L 378.5625,382.09375 L 378.53125,381.09375 z "
         id="path3074" />
      <path
         d="M 367.70672,377.50051 L 379.86553,381.51784 L 368.0007,386.33461 C 369.8329,383.66292 369.70311,380.09534 367.70672,377.50051 z "
         style="font-size:12px;fill-rule:evenodd;stroke-width:0.625;stroke-linejoin:round"
         id="path3532" />
    </g>
    <g
       id="g3285"
       transform="translate(25.47528,18.4368)">
      <path
         transform="translate(-167.8571,50.89286)"
         d="M 341.07143 337.48734 A 4.4642859 4.4642859 0 1 1  332.14286,337.48734 A 4.4642859 4.4642859 0 1 1  341.07143 337.48734 z"
         sodipodi:ry="4.4642859"
         sodipodi:rx="4.4642859"
         sodipodi:cy="337.48734"
         sodipodi:cx="336.60715"
         id="path3258"
         style="color:black;fill:black;fill-opacity:1;fill-rule:nonzero;stroke:none;stroke-width:2.5;stroke-linecap:round;stroke-linejoin:miter;marker:none;marker-start:none;marker-mid:none;marker-end:none;stroke-miterlimit:4;stroke-dasharray:none;stroke-dashoffset:0;stroke-opacity:1;visibility:visible;display:inline;overflow:visible"
         sodipodi:type="arc" />
      <path
         transform="translate(-43.57143,46.78572)"
         d="M 341.07143 337.48734 A 4.4642859 4.4642859 0 1 1  332.14286,337.48734 A 4.4642859 4.4642859 0 1 1  341.07143 337.48734 z"
         sodipodi:ry="4.4642859"
         sodipodi:rx="4.4642859"
         sodipodi:cy="337.48734"
         sodipodi:cx="336.60715"
         id="path3262"
         style="color:black;fill:black;fill-opacity:1;fill-rule:nonzero;stroke:none;stroke-width:2.5;stroke-linecap:round;stroke-linejoin:miter;marker:none;marker-start:none;marker-mid:none;marker-end:none;stroke-miterlimit:4;stroke-dasharray:none;stroke-dashoffset:0;stroke-opacity:1;visibility:visible;display:inline;overflow:visible"
         sodipodi:type="arc" />
      <path
         transform="translate(-105.7143,48.83929)"
         d="M 341.07143 337.48734 A 4.4642859 4.4642859 0 1 1  332.14286,337.48734 A 4.4642859 4.4642859 0 1 1  341.07143 337.48734 z"
         sodipodi:ry="4.4642859"
         sodipodi:rx="4.4642859"
         sodipodi:cy="337.48734"
         sodipodi:cx="336.60715"
         id="path3272"
         style="opacity:1;color:black;fill:black;fill-opacity:1;fill-rule:nonzero;stroke:none;stroke-width:2.5;stroke-linecap:round;stroke-linejoin:miter;marker:none;marker-start:none;marker-mid:none;marker-end:none;stroke-miterlimit:4;stroke-dasharray:none;stroke-dashoffset:0;stroke-opacity:1;visibility:visible;display:inline;overflow:visible"
         sodipodi:type="arc" />
    </g>
    <g
       id="g3278"
       transform="translate(25.47528,18.4368)">
      <path
         transform="translate(-182.6786,24.10715)"
         d="M 341.07143 337.48734 A 4.4642859 4.4642859 0 1 1  332.14286,337.48734 A 4.4642859 4.4642859 0 1 1  341.07143 337.48734 z"
         sodipodi:ry="4.4642859"
         sodipodi:rx="4.4642859"
         sodipodi:cy="337.48734"
         sodipodi:cx="336.60715"
         id="path3256"
         style="color:black;fill:black;fill-opacity:1;fill-rule:nonzero;stroke:none;stroke-width:2.5;stroke-linecap:round;stroke-linejoin:miter;marker:none;marker-start:none;marker-mid:none;marker-end:none;stroke-miterlimit:4;stroke-dasharray:none;stroke-dashoffset:0;stroke-opacity:1;visibility:visible;display:inline;overflow:visible"
         sodipodi:type="arc" />
      <path
         transform="translate(-30.71429,18.92858)"
         d="M 341.07143 337.48734 A 4.4642859 4.4642859 0 1 1  332.14286,337.48734 A 4.4642859 4.4642859 0 1 1  341.07143 337.48734 z"
         sodipodi:ry="4.4642859"
         sodipodi:rx="4.4642859"
         sodipodi:cy="337.48734"
         sodipodi:cx="336.60715"
         id="path3260"
         style="color:black;fill:black;fill-opacity:1;fill-rule:nonzero;stroke:none;stroke-width:2.5;stroke-linecap:round;stroke-linejoin:miter;marker:none;marker-start:none;marker-mid:none;marker-end:none;stroke-miterlimit:4;stroke-dasharray:none;stroke-dashoffset:0;stroke-opacity:1;visibility:visible;display:inline;overflow:visible"
         sodipodi:type="arc" />
      <path
         transform="translate(-106.6964,21.51787)"
         d="M 341.07143 337.48734 A 4.4642859 4.4642859 0 1 1  332.14286,337.48734 A 4.4642859 4.4642859 0 1 1  341.07143 337.48734 z"
         sodipodi:ry="4.4642859"
         sodipodi:rx="4.4642859"
         sodipodi:cy="337.48734"
         sodipodi:cx="336.60715"
         id="path3274"
         style="opacity:1;color:black;fill:black;fill-opacity:1;fill-rule:nonzero;stroke:none;stroke-width:2.5;stroke-linecap:round;stroke-linejoin:miter;marker:none;marker-start:none;marker-mid:none;marker-end:none;stroke-miterlimit:4;stroke-dasharray:none;stroke-dashoffset:0;stroke-opacity:1;visibility:visible;display:inline;overflow:visible"
         sodipodi:type="arc" />
    </g>
    <path
       sodipodi:type="arc"
       style="color:black;fill:black;fill-opacity:1;fill-rule:nonzero;stroke:none;stroke-width:2.5;stroke-linecap:round;stroke-linejoin:miter;marker:none;marker-start:none;marker-mid:none;marker-end:none;stroke-miterlimit:4;stroke-dasharray:none;stroke-dashoffset:0;stroke-opacity:1;visibility:visible;display:inline;overflow:visible"
       id="path3290"
       sodipodi:cx="336.60715"
       sodipodi:cy="337.48734"
       sodipodi:rx="4.4642859"
       sodipodi:ry="4.4642859"
       d="M 341.07143 337.48734 A 4.4642859 4.4642859 0 1 1  332.14286,337.48734 A 4.4642859 4.4642859 0 1 1  341.07143 337.48734 z"
       transform="translate(313.8682,120.7582)" />
    <g
       id="g3414"
       transform="translate(-81.18172,-74.79236)">
      <path
         id="path4190"
         d="M 941.12483,604.96443 C 958.15755,611.58836 977.32542,603.24764 983.89771,586.34771 C 990.47001,569.44777 981.97303,550.34945 964.94032,543.72552 C 947.90761,537.10159 928.74107,545.44172 922.16878,562.34165 C 915.59648,579.24158 924.09211,598.34049 941.12483,604.96443 z "
         style="fill:#6fb8fc;fill-opacity:1;fill-rule:nonzero;stroke:black;stroke-width:1.60000002;stroke-linecap:round;stroke-linejoin:round;stroke-miterlimit:4;stroke-dasharray:none;stroke-dashoffset:0;stroke-opacity:1" />
      <g
         style="fill:#34b941;fill-opacity:1"
         id="g3410">
        <path
           style="fill:#34b941;fill-opacity:1;fill-rule:evenodd;stroke:black;stroke-width:0.60000002;stroke-linecap:butt;stroke-linejoin:miter;stroke-miterlimit:4;stroke-dasharray:none;stroke-opacity:1"
           d="M 951.83764,604.19544 C 952.53548,604.42798 953.35034,604.80227 954.8344,603.93222 C 955.85476,603.33401 955.68052,603.34285 956.39501,602.92495 C 957.10951,602.50704 957.20128,602.53346 957.69239,602.2606 C 958.18349,601.98774 958.05053,602.27 958.35943,601.83352 C 958.66833,601.39703 959.00109,600.78416 958.92709,600.42154 C 958.81911,599.89238 957.69083,600.5113 957.05132,600.71253 C 956.41181,600.91375 956.84024,600.96904 956.36906,601.22646 C 955.77323,601.55196 955.17779,601.15281 954.41807,601.37687 C 953.65836,601.60093 953.65612,601.78559 953.33021,602.12269 C 953.0043,602.45979 953.46362,602.47144 953.11443,602.72527 C 952.76524,602.9791 951.98841,603.01554 951.93345,603.13802 C 951.90513,603.20113 951.66583,604.13818 951.83764,604.19544 z "
           id="path4208"
           sodipodi:nodetypes="cssssssssssss" />
        <path
           style="fill:#34b941;fill-opacity:1;fill-rule:evenodd;stroke:black;stroke-width:0.60000002;stroke-linecap:butt;stroke-linejoin:miter;stroke-miterlimit:4;stroke-dasharray:none;stroke-opacity:1"
           d="M 940.13881,602.93872 C 940.15774,602.94631 940.17673,602.9531 940.19632,602.95998 C 940.32696,603.00584 940.46857,603.03508 940.57654,603.04875 C 940.76928,603.07315 940.95528,603.163 941.14808,603.1874 C 941.33799,603.21144 941.52591,603.3404 941.70628,603.36323 C 941.89171,603.3867 942.12119,603.46418 942.34286,603.44356 C 942.5341,603.42577 942.71866,603.43423 942.92075,603.45981 C 943.17232,603.49166 943.32665,603.36932 943.50536,603.35269 C 943.68737,603.33576 943.87877,603.32401 944.01061,603.3407 C 944.22756,603.36816 944.43309,603.3546 944.63924,603.33543 C 944.87074,603.3139 945.02984,603.33885 945.17946,603.12743 C 945.28864,602.97317 945.36863,602.74708 945.42696,602.59711 C 945.50343,602.40046 945.84707,602.60575 945.94076,602.67206 C 946.09561,602.78164 946.36714,602.8406 946.53479,602.86182 C 946.75604,602.88983 946.9913,602.70649 947.08895,602.61799 C 947.24176,602.47951 947.24493,602.22773 947.22798,602.04549 C 947.21215,601.87526 947.4316,601.53004 947.51862,601.40707 C 947.67996,601.1791 947.83228,601.20886 948.00015,601.135 C 948.0997,601.0912 948.47927,601.19646 948.62242,601.25213 C 948.80736,601.32405 949.05696,601.29898 949.23614,601.28231 C 949.48735,601.25895 949.71604,601.24504 949.94315,601.18155 C 950.12211,601.13152 950.36266,601.14299 950.55026,601.12554 C 950.78952,601.10329 950.9778,601.08629 951.1707,601.03236 C 951.39392,600.96996 951.64556,600.91333 951.83333,600.83071 C 952.06688,600.72795 952.15596,600.7503 952.35166,600.57295 C 952.50657,600.43256 952.62279,600.22711 952.64892,600.02073 C 952.67653,599.80255 952.84456,599.51707 952.95349,599.34648 C 953.12043,599.08506 953.15653,599.05629 953.04238,598.79684 C 952.92396,598.52771 953.00924,598.24999 952.98417,597.9804 C 952.96634,597.78871 953.1032,597.56538 953.17296,597.386 C 953.25051,597.18658 953.17379,597.11511 953.45053,596.99335 C 953.69985,596.88365 953.73631,596.75257 953.65681,596.57187 C 953.55849,596.34842 953.59919,596.14815 953.57756,595.91559 C 953.56417,595.77169 953.94043,595.58612 954.02901,595.50584 C 954.17872,595.37016 954.42168,595.33875 954.56128,595.21224 C 954.71967,595.0687 955.03208,594.97539 955.23025,594.88819 C 955.42443,594.80276 955.6928,594.64628 955.81266,594.57173 C 956.02493,594.43971 956.26384,594.25281 956.47308,594.16074 C 956.68655,594.06682 956.88651,593.99742 957.05549,593.84428 C 957.21846,593.69659 957.45519,593.66756 957.63117,593.65119 C 957.79194,593.63624 958.03197,593.50275 958.18533,593.40736 C 958.41183,593.2665 958.42061,593.12205 958.40458,592.94967 C 958.40391,592.94245 958.40279,592.93571 958.40167,592.92847 C 958.58359,592.87335 958.83218,592.85224 959.01706,592.77089 C 959.20609,592.68772 959.40132,592.66514 959.56584,592.64984 C 959.71851,592.63564 959.87785,592.54306 960.00481,592.4872 C 960.18661,592.40721 960.33992,592.36865 960.54407,592.27883 C 960.76049,592.18361 960.96209,592.0347 961.12648,591.96237 C 961.29815,591.88683 961.58968,591.69916 961.75962,591.62438 C 961.92959,591.5496 962.05556,591.40323 962.18246,591.28823 C 962.35771,591.12941 962.54589,591.00549 962.78456,590.81219 C 962.94997,590.67822 963.08703,590.54156 963.24957,590.36758 C 963.36796,590.24085 963.52241,590.06691 963.68671,589.99462 C 963.84941,589.92304 963.93529,589.79318 964.05978,589.68037 C 964.2126,589.54188 964.26824,589.46904 964.41853,589.40291 C 964.59538,589.3251 964.69283,589.22647 964.79063,589.08828 C 964.89588,588.93955 965.09378,588.80737 965.22018,588.62876 C 965.32567,588.4797 965.55665,588.32384 965.67126,588.21998 C 965.83393,588.07256 965.89907,588.01194 966.03577,587.81878 C 966.1368,587.67602 966.18367,587.43847 966.24743,587.27452 C 966.34058,587.03498 966.35738,586.95134 966.33631,586.72488 C 966.32645,586.61883 965.81081,586.58148 965.76381,586.58585 C 965.55364,586.6054 965.35258,586.6575 965.12184,586.6283 C 964.91247,586.60179 964.63786,586.63831 964.44308,586.65643 C 964.24553,586.67481 964.02399,586.66872 963.78583,586.7353 C 963.6155,586.78292 963.28683,586.7486 963.121,586.7276 C 962.86131,586.69473 962.59354,586.7412 962.35567,586.76332 C 962.14362,586.78305 961.93826,586.72586 961.73339,586.64619 C 961.56181,586.57947 961.35597,585.94847 961.21932,585.82082 C 961.15364,585.75946 961.3965,585.39844 961.40273,585.34919 C 961.42403,585.18099 961.34,584.86545 961.32386,584.69194 C 961.30733,584.51423 961.0729,584.23301 960.93574,584.08167 C 960.7919,583.92295 960.74962,583.86482 960.67125,583.6867 C 960.51727,583.33675 960.33004,583.06489 960.14959,582.77476 C 959.99446,582.52533 959.87379,582.33013 959.73898,582.11337 C 959.55711,581.82094 959.47787,581.47094 959.51323,581.19163 C 959.54068,580.97479 959.55017,580.89583 959.57327,580.71328 C 959.59653,580.52959 959.57873,580.36713 959.59711,580.22196 C 959.62676,579.98773 959.4347,579.68014 959.287,579.51715 C 959.12709,579.34069 959.06585,579.21887 959.00099,579.07145 C 958.91765,578.88204 959.04467,578.35113 959.07153,578.13896 C 959.09575,577.9476 959.08547,577.7527 959.03801,577.58297 C 958.96904,577.33625 959.07027,577.09536 959.09548,576.89624 C 959.11535,576.73927 959.09166,576.61366 958.99772,576.50257 C 959.00013,576.49684 959.00323,576.49127 959.00547,576.48552 C 959.07308,576.31167 958.85752,576.08175 958.79747,575.94529 C 958.69144,575.70429 958.62961,575.45523 958.61014,575.24586 C 958.59373,575.06943 958.60059,574.87178 958.62639,574.66798 C 958.64968,574.48402 958.65459,574.21357 958.63506,574.00352 C 958.61078,573.74258 958.57662,573.62159 958.50604,573.36914 C 958.45473,573.18559 958.53551,572.93331 958.51412,572.70334 C 958.49194,572.46493 958.47431,572.41779 958.50212,572.19809 C 958.5267,572.0039 958.66377,571.79384 958.78604,571.68304 C 958.88791,571.59072 959.22149,571.64279 959.3643,571.69832 C 959.5512,571.77101 959.60365,571.90115 959.67855,572.07139 C 959.75114,572.23636 959.71093,572.42448 959.72638,572.59058 C 959.74878,572.83137 959.78603,573.00538 959.8335,573.17519 C 959.90295,573.42361 959.96587,573.5347 960.17821,573.68497 C 960.27414,573.75286 960.29214,574.06119 960.27677,574.18264 C 960.25353,574.3662 960.25824,574.54775 960.23765,574.71038 C 960.20776,574.94653 960.34176,575.03753 960.48821,575.14117 C 960.69211,575.28548 960.77504,575.41016 960.79611,575.63664 C 960.8151,575.84074 960.7734,576.07408 960.81666,576.22884 C 960.86583,576.40472 960.78272,576.64444 960.75027,576.82959 C 960.71934,577.00602 960.666,577.15234 960.58875,577.35098 C 960.54739,577.45734 960.75685,577.76883 960.81068,577.85538 C 960.8937,577.98886 960.92405,578.24986 960.98188,578.38129 C 961.05561,578.54888 961.1119,578.8119 961.2108,578.97091 C 961.30026,579.11474 961.33905,579.38855 961.31792,579.55552 C 961.30135,579.68637 961.5096,580.0605 961.56933,580.19625 C 961.66281,580.40871 961.67187,580.61861 961.73514,580.84494 C 961.7947,581.05796 961.80663,581.24213 961.82736,581.46501 C 961.84796,581.68653 961.94962,581.84118 961.97031,582.06356 C 961.98623,582.23471 961.94039,582.48448 961.95502,582.64182 C 961.96903,582.79238 961.82035,583.0942 961.76526,583.23585 C 961.68853,583.43315 961.71201,583.57828 961.69031,583.74966 C 961.66777,583.92776 961.71672,584.07284 961.68897,584.29209 C 961.66657,584.46901 961.66994,584.65934 961.73679,584.81128 C 961.81928,584.99876 961.94998,585.06142 962.15193,585.13996 C 962.40581,585.23869 962.56423,585.18841 962.76699,585.16955 C 962.91146,585.15611 963.19767,585.00901 963.39244,584.95456 C 963.52007,584.91888 963.83777,585.01814 963.95736,585.00702 C 964.24977,584.97982 964.41734,584.82376 964.70693,584.79682 C 964.89297,584.77951 964.99238,584.68079 965.24043,584.71219 C 965.46658,584.74082 965.66106,584.70773 965.8605,584.61998 C 966.03742,584.54214 966.25458,584.47744 966.43753,584.42629 C 966.6156,584.37651 966.8775,584.43449 967.05125,584.45648 C 967.24489,584.48099 967.51333,584.24275 967.61934,584.17682 C 967.85008,584.03331 967.93701,584.00503 968.03459,583.7541 C 968.09326,583.60322 968.4576,583.53748 968.55195,583.49596 C 968.73377,583.41596 969.05542,583.36943 969.25896,583.39519 C 969.45376,583.41985 969.63799,583.34791 969.85213,583.37502 C 970.10623,583.40719 970.19467,583.23465 970.31079,583.0528 C 970.46028,582.81871 970.49531,582.79101 970.69817,582.70175 C 970.91008,582.60851 971.07751,582.65525 971.2456,582.58129 C 971.42576,582.50202 971.49844,582.2406 971.60253,582.09352 C 971.65296,582.02226 972.07473,581.8456 972.18494,581.77706 C 972.30738,581.70091 972.4119,581.40847 972.46885,581.26202 C 972.53446,581.09331 972.77246,580.96241 972.8692,580.87475 C 973.01834,580.73959 973.06625,580.64914 973.21939,580.51035 C 973.36262,580.38056 973.44675,580.24969 973.52655,580.04448 C 973.60926,579.8318 973.50374,579.61361 973.48411,579.40252 C 973.46801,579.22949 973.48532,579.0641 973.42138,578.91878 C 973.3582,578.77521 972.99365,578.66883 972.8337,578.60662 C 972.57553,578.50622 972.41134,578.46769 972.30913,578.23538 C 972.20733,578.00403 972.33459,577.81525 972.25275,577.62925 C 972.17995,577.4638 972.21851,577.29972 972.24075,577.124 C 972.27308,576.86865 972.29272,576.7696 972.03593,576.79349 C 971.94653,576.80181 971.64457,577.21517 971.59244,577.28884 C 971.43079,577.51726 971.23775,577.56451 970.96785,577.71377 C 970.71152,577.85552 970.4924,577.863 970.23259,577.88717 C 969.9971,577.90907 969.76615,577.71947 969.5938,577.59749 C 969.33417,577.41375 969.38191,577.34716 969.33604,577.07916 C 969.29614,576.84605 969.38185,576.64029 969.45317,576.45689 C 969.60102,576.07671 969.25228,576.24631 969.12008,576.45334 C 968.89102,576.81205 968.97606,576.26285 968.84801,575.97181 C 968.76883,575.79187 968.65007,575.58179 968.60418,575.41765 C 968.54584,575.20897 968.51198,575.07127 968.43298,574.89173 C 968.3563,574.71745 968.12419,574.48339 968.05244,574.36802 C 967.94244,574.19115 967.98693,574.10646 968.07666,573.87573 C 968.1491,573.68947 968.19953,573.45372 968.28036,573.24588 C 968.36311,573.03308 968.60519,573.12792 968.79234,573.11051 C 968.99793,573.09139 969.15966,573.02611 969.22577,572.87325 C 969.27793,572.96569 969.31135,573.06229 969.37781,573.21333 C 969.45086,573.37935 969.51781,573.68465 969.49251,573.88451 C 969.47034,574.05965 969.63555,574.19352 969.757,574.27947 C 969.92058,574.39524 969.81932,574.677 969.79148,574.83584 C 969.75122,575.06557 969.892,575.12467 970.10515,575.20756 C 970.33429,575.29667 970.41252,575.49483 970.52884,575.62318 C 970.70075,575.81288 970.7593,575.87891 970.92907,575.98732 C 971.09003,576.0901 971.34569,576.15488 971.52406,576.17745 C 971.76429,576.20786 971.86977,576.26595 972.05121,576.21523 C 972.35203,576.13113 972.60709,576.05381 972.87524,576.24358 C 973.02673,576.35079 972.94313,576.61238 972.92404,576.76315 C 972.88948,577.03615 972.71793,577.14233 973.0226,577.26082 C 973.3289,577.37994 973.64553,577.3782 973.97124,577.50487 C 974.2871,577.62771 974.61229,577.75417 974.95033,577.88563 C 975.12693,577.95431 975.32387,577.93159 975.50669,577.85115 C 975.68566,577.7724 976.01547,577.84052 976.19304,577.90958 C 976.33954,577.96655 976.72032,577.87827 976.83598,577.86751 C 977.3721,577.81764 977.3365,578.11944 977.52356,578.67675 C 977.55274,578.76369 977.59692,578.8453 977.63385,578.92924 C 977.71082,579.10416 977.84563,579.27373 977.92783,579.46054 C 978.05112,579.74076 978.07215,579.9947 978.19538,580.27478 C 978.34991,580.62599 978.5368,581.04892 978.68341,581.38213 C 978.76359,581.56437 978.84572,581.75102 978.90534,581.88653 C 978.99128,582.08183 978.90363,582.42277 978.86843,582.62361 C 978.821,582.89425 978.85317,583.06951 978.81097,583.31034 C 978.77717,583.50315 978.82058,583.68187 978.79434,583.8892 C 978.76573,584.11517 978.82449,584.32328 978.79998,584.51685 C 978.77174,584.73996 978.82605,584.97994 978.82812,585.19562 C 978.83079,585.47356 978.79808,585.74407 978.80073,586.02003 C 978.80313,586.26922 978.80313,586.52082 978.77775,586.72128 C 978.74616,586.97085 978.8165,587.1211 978.77006,587.38611 C 978.72969,587.61643 978.79944,587.90455 978.76994,588.13751 C 978.74198,588.35841 978.77961,588.51064 978.75369,588.7154 C 978.71967,588.98416 978.71258,589.06729 978.86657,589.17627 C 978.92886,589.22035 979.27214,588.83178 979.31765,588.76748 C 979.53621,588.45864 979.49329,588.74585 979.40642,588.96924 C 979.33989,589.1403 979.36209,589.29824 979.2817,589.50494 C 979.2646,589.54892 979.82782,589.28179 979.6242,589.80538 C 979.57961,589.92005 979.6212,590.05186 979.60575,590.17392 C 979.57726,590.39899 979.97566,589.90893 980.14377,589.75658 C 980.2818,589.63149 980.32542,589.38237 980.35505,589.21329 C 980.38294,589.05417 980.30114,588.74778 980.24891,588.62905 C 980.19948,588.51673 980.38169,588.18007 980.40187,588.02071 C 980.41965,587.88023 980.33221,587.64817 980.31724,587.48721 C 980.29964,587.29796 980.38944,586.97761 980.46165,586.79193 C 980.55271,586.55776 980.62882,586.30611 980.65814,586.07454 C 980.68777,585.84048 980.85435,585.56999 980.94022,585.34918 C 981.02484,585.13161 981.10945,584.91403 981.19406,584.69646 C 981.27137,584.49767 981.2983,584.30442 981.40535,584.15316 C 981.5155,583.99751 981.6004,583.75769 981.66715,583.58604 C 981.73872,583.402 981.88598,583.22405 982.0237,583.09924 C 982.19212,582.94661 982.25192,582.80991 982.36631,582.64827 C 982.48276,582.48373 982.57237,582.30737 982.68644,582.1462 C 982.83929,581.93021 982.87448,581.68831 982.91741,581.44333 C 982.95644,581.22064 982.99983,581.01925 983.08565,580.79857 C 983.15616,580.61726 983.2268,580.43561 983.29731,580.25431 C 983.37252,580.06091 983.4477,579.86761 983.52291,579.67421 C 983.61695,579.4324 983.78951,579.4068 983.94574,579.33806 C 984.01869,579.30596 984.06906,579.28258 984.10548,579.25413 L 984.30035,579.39235 L 984.4065,579.97659 L 984.46912,581.21172 L 984.90615,581.59016 C 984.90615,581.59016 990.49162,560.94787 971.86816,548.13221 L 971.95682,549.08536 L 971.77045,549.95163 C 971.52967,549.96526 971.29424,549.97959 971.20214,549.98816 C 971.19062,549.98923 970.95248,549.55163 970.93776,549.52411 C 970.87973,549.41566 970.74162,549.36987 970.63647,549.29545 C 970.4862,549.18911 970.37176,549.21205 970.22719,549.27565 C 970.08433,549.33851 969.89475,549.41065 969.75142,549.42398 C 969.60464,549.43764 969.5073,549.37427 969.36098,549.35576 C 969.23006,549.33919 969.08661,549.37844 968.94229,549.36017 C 968.7718,549.33858 968.613,549.41413 968.47018,549.42742 C 968.32371,549.44104 968.21121,549.43937 968.04246,549.45507 C 967.90872,549.46751 967.76102,549.39958 967.64163,549.41068 C 967.50236,549.42364 967.34985,549.39162 967.19873,549.40567 C 967.04332,549.42013 966.91442,549.41036 966.78446,549.46755 C 966.63277,549.53429 966.555,549.55873 966.49393,549.71579 C 966.43947,549.85582 966.32389,549.83598 966.15228,549.8059 C 966.00858,549.78072 965.98463,549.76858 965.82909,549.70809 C 965.70657,549.66044 965.67373,549.84277 965.47266,549.76458 C 965.27126,549.68626 965.20611,549.325 965.11584,549.17986 C 965.02614,549.03562 965.39754,548.96645 965.4548,548.95045 C 965.60227,548.90922 965.76257,548.9132 965.90808,548.93162 C 966.05855,548.95067 966.1884,548.98675 966.30794,548.97563 C 966.47073,548.96049 966.32546,548.67167 966.30928,548.61381 C 966.27817,548.50252 966.02402,548.35471 965.93999,548.2762 C 965.81286,548.15744 965.69562,548.03418 965.55627,547.904 C 965.53022,547.87966 965.49795,547.86271 965.46885,547.84213 C 965.28172,547.7097 965.08012,547.52811 964.89144,547.3946 C 964.73288,547.28238 964.60658,547.12904 964.44952,547.02874 C 964.33761,546.95729 964.19079,546.90025 964.07156,546.85388 C 963.82415,546.75767 963.64879,546.66669 963.36638,546.66326 C 963.14095,546.66053 962.91078,546.57739 962.69116,546.53892 C 962.54745,546.51373 962.41763,546.4883 962.28593,546.43707 C 962.09189,546.36161 961.91992,546.3421 961.75022,546.31236 C 961.60264,546.28649 961.41808,546.30271 961.26331,546.34598 C 961.13881,546.38079 960.96584,546.34034 960.85404,546.32618 C 960.72898,546.31035 960.54232,546.33137 960.45994,546.33904 C 960.31675,546.35236 960.16278,546.35222 960.01608,546.33365 C 959.85824,546.31367 959.71483,546.3466 959.60277,546.3959 C 959.48049,546.4497 959.40189,546.42408 959.26113,546.48602 C 959.14551,546.53689 959.01295,546.54914 958.91986,546.57517 C 958.80242,546.60799 958.66825,546.64615 958.54556,546.68045 C 958.42032,546.71547 958.28119,546.71049 958.15011,546.6939 C 957.97161,546.67131 957.91268,546.72156 957.79099,546.83185 C 957.77092,546.85004 957.7601,546.8787 957.75763,546.91476 C 957.71054,546.90581 957.66361,546.89807 957.61575,546.88968 C 957.41947,546.85528 957.24479,546.87029 957.02931,546.78649 C 956.77168,546.6863 956.54515,546.69675 956.28329,546.6636 C 956.05472,546.63466 955.8837,546.67419 955.74441,546.87101 C 955.57149,547.11535 955.35078,547.19431 955.06871,547.31842 C 954.93907,547.37546 954.80417,547.53193 954.77683,547.74787 C 954.74768,547.97816 954.85298,548.23306 955.15737,548.27157 C 955.36456,548.29781 955.57593,548.37218 955.79396,548.35191 C 955.93214,548.33905 956.20319,548.2488 956.37184,548.36816 C 956.55237,548.49592 956.47891,548.63182 956.38481,548.87379 C 956.31166,549.06189 956.21323,549.20605 956.13635,549.40374 C 956.03317,549.66904 955.96002,549.55968 955.73418,549.58069 C 955.59289,549.59383 955.29891,549.50542 955.17781,549.61517 C 955.17413,549.61851 954.79516,550.05057 954.8352,550.06614 C 954.99512,550.12833 955.2398,550.20305 955.3709,550.19086 C 955.4667,550.18194 955.81857,549.98922 955.93362,550.03397 C 956.10002,550.09868 956.2598,550.16044 956.43252,550.14438 C 956.5851,550.13018 956.83492,550.1784 957.02531,550.12517 C 957.28948,550.05132 957.50122,550.13225 957.74029,550.11 C 957.95721,550.08982 958.04774,550.11663 958.19357,549.91056 C 958.2285,549.86121 958.43131,549.47553 958.48604,549.48246 C 958.65362,549.50367 958.88299,549.42835 958.99129,549.47047 C 959.15198,549.53295 959.41842,549.55679 959.39384,549.29255 C 959.37133,549.05053 959.29798,548.82395 959.27914,548.62136 C 959.2713,548.53713 959.26716,548.47183 959.26886,548.41557 C 959.28678,548.41103 959.30523,548.40714 959.32315,548.40212 C 959.44283,548.36866 959.55849,548.17896 959.6819,548.12467 C 959.82736,548.06067 959.91535,548.06748 960.071,548.053 C 960.20806,548.04026 960.41429,548.14066 960.55828,548.15889 C 960.74692,548.18276 960.88593,548.16047 961.02464,548.03477 C 961.15032,547.92087 961.28127,547.89627 961.39856,547.78997 C 961.49587,547.70179 961.60338,547.65053 961.72444,547.66585 C 961.86406,547.68352 961.98912,547.74091 962.12123,547.79229 C 962.26686,547.84892 962.31022,548.02018 962.24939,548.1766 C 962.14999,548.43218 961.94961,548.36808 961.7033,548.43694 C 961.54901,548.48008 961.37032,548.4229 961.2406,548.47998 C 961.10775,548.53843 960.98067,548.65455 960.84381,548.71477 C 960.70225,548.77706 960.63966,548.80969 960.57614,548.97302 C 960.51827,549.12184 960.54377,549.21873 960.59901,549.34425 C 960.66934,549.50411 960.70661,549.59557 960.78537,549.72221 C 960.85002,549.82615 961.08307,549.89373 961.20234,549.94011 C 961.38257,550.01021 961.59203,549.97013 961.76629,549.9922 C 961.92532,550.01233 962.08281,550.08742 962.21053,550.13709 C 962.37476,550.20096 962.49333,550.32618 962.56562,550.44242 C 962.61804,550.52668 962.23914,550.59302 962.19573,550.60517 C 962.09866,550.6323 961.90489,550.46418 961.81875,550.43068 C 961.68631,550.37918 961.53553,550.34036 961.40313,550.35267 C 961.28215,550.36392 961.15408,550.31337 961.03727,550.29289 C 960.87802,550.26498 960.70419,550.32728 960.60954,550.46102 C 960.52678,550.57797 960.3779,550.72268 960.26559,550.7721 C 960.08137,550.85316 959.89471,550.90041 959.70836,550.91774 C 959.54576,550.93287 959.44647,551.00745 959.30619,551.09469 C 959.18743,551.16855 959.07861,551.25389 958.9901,551.33411 C 958.88424,551.43005 958.79187,551.52881 958.67977,551.6304 C 958.57848,551.72219 958.39657,551.65962 958.2705,551.6106 C 958.12587,551.55435 957.97926,551.52521 957.82529,551.46533 C 957.69269,551.41376 957.57401,551.38933 957.44426,551.37289 C 957.44246,551.37267 957.44159,551.37243 957.44001,551.37236 C 957.38626,551.30366 957.33367,551.23367 957.28114,551.18459 C 957.14699,551.05927 956.95442,551.04771 956.75974,551.02307 C 956.54173,550.99547 956.38874,551.04603 956.15899,550.95668 C 955.97956,550.8869 955.89691,550.76967 955.8089,550.56968 C 955.75935,550.45704 955.24842,550.535 955.19384,550.54008 C 954.98206,550.55978 954.86049,550.50926 954.72221,550.35667 C 954.62244,550.24657 954.59002,550.05623 954.52277,549.90339 C 954.47322,549.79077 954.7603,549.74262 954.75912,549.61958 C 954.7576,549.46128 955.03678,549.4614 955.15408,549.35509 C 955.28743,549.23425 955.44621,549.35065 955.63561,549.08302 C 955.81601,548.82812 955.57692,548.79997 955.37968,548.775 C 955.14805,548.74568 955.01017,548.75664 954.83762,548.77269 C 954.66297,548.78893 954.59599,549.05151 954.50895,549.18782 C 954.39673,549.36356 954.29708,549.56733 954.13809,549.71142 C 953.98365,549.85137 953.66407,549.86097 953.48939,549.87724 C 953.29566,549.89525 953.09776,549.7987 952.90295,549.77404 C 952.70705,549.74924 952.46428,549.78031 952.31075,549.79459 C 952.18595,549.8062 951.96328,549.93192 951.74901,549.95185 C 951.47574,549.97727 951.30302,549.91419 951.02585,549.8791 C 950.78057,549.84805 950.53691,549.90637 950.29635,549.92876 C 949.87107,549.96832 950.31227,549.53108 950.34306,549.48759 C 950.47837,549.29639 950.60621,549.24093 950.6996,549.00079 C 950.77329,548.81132 950.85067,548.63017 950.87446,548.44221 C 950.90152,548.22851 950.97681,548.07295 951.06423,547.84819 C 951.14042,547.65227 951.28679,547.50603 951.40684,547.39722 C 951.52284,547.29209 951.77441,547.29662 951.94706,547.18922 C 952.12541,547.07831 952.17096,546.84328 952.19418,546.65987 C 952.21635,546.48474 951.85185,546.40075 951.72928,546.35309 C 951.53731,546.27843 951.3096,546.26803 951.15102,546.3378 C 950.95703,546.42316 950.7253,546.3437 950.52998,546.42964 C 950.34578,546.51069 950.28636,546.85635 950.18161,547.00435 C 950.06234,547.17288 949.78666,547.13446 949.59737,547.1105 C 949.32812,547.07642 949.13468,546.98528 948.85233,546.98799 C 948.55789,546.99082 948.41374,547.07745 948.17576,547.22547 C 948.03617,547.31229 947.81104,547.36785 947.64312,547.52003 C 947.46428,547.68211 947.17016,547.66793 946.96656,547.75751 C 946.83029,547.81747 946.53466,547.66984 946.77336,547.93323 C 946.95243,548.13083 947.08565,548.20113 947.3252,548.23145 C 947.44912,548.24714 947.77022,548.13723 948.00214,547.99301 C 948.2347,547.84837 948.59388,547.76234 948.84366,547.65245 C 949.05709,547.55853 949.16815,547.52778 949.40002,547.61796 C 949.65224,547.71605 949.86212,547.70141 949.69238,547.94126 C 949.61349,548.05274 949.22104,548.08059 949.0799,548.12004 C 948.84334,548.18617 948.76921,548.3069 948.62027,548.44188 C 948.44829,548.59774 948.35348,548.5414 948.21137,548.7422 C 948.07947,548.92858 947.96337,548.87237 947.7137,548.84076 C 947.45602,548.80814 947.2887,548.96749 947.20393,549.18547 C 947.15073,549.32226 947.77736,549.34168 947.81227,549.33843 C 948.06697,549.31474 948.23821,549.33796 948.48528,549.43404 C 948.75598,549.53932 948.90164,549.72083 949.16845,549.8246 C 949.45199,549.93486 949.46937,549.97521 949.30161,550.12723 C 949.20845,550.21166 948.57201,550.10117 948.44078,550.08456 C 948.19003,550.05282 947.88659,549.9476 947.71004,549.92525 C 947.46891,549.89473 947.2923,549.77999 947.13974,549.99557 C 947.01671,550.1694 946.86229,550.11167 946.68425,549.98566 C 946.41992,549.7986 946.4412,550.25522 946.44251,550.39225 C 946.44467,550.61558 946.43667,550.81973 946.41292,551.00731 C 946.38622,551.21827 946.29114,551.42654 946.20922,551.63717 C 946.13049,551.83963 945.82888,552.01145 945.70165,552.19122 C 945.57201,552.3744 945.41382,552.55867 945.28603,552.61491 C 944.97647,552.75111 944.71084,552.58393 944.52484,552.31888 C 944.28612,551.9787 944.17733,551.89163 943.78969,551.74089 C 943.47324,551.61782 943.14082,551.53896 942.81281,551.56947 C 942.499,551.59867 942.30323,551.58257 942.05507,551.69176 C 941.88605,551.76612 941.79216,552.10846 941.56143,552.20997 C 941.27042,552.33802 941.00024,552.5468 940.71356,552.67294 C 940.52172,552.75734 940.17107,553.01457 940.06073,553.17049 C 939.91067,553.38253 939.75576,553.56364 939.61148,553.78959 C 939.49084,553.97851 939.41735,554.17982 939.33514,554.3912 C 939.24762,554.61626 939.33391,554.87597 939.44985,555.06238 C 939.59931,555.3027 939.7532,555.14241 939.59952,555.53756 C 939.50679,555.77603 939.96383,555.74913 940.09267,555.77171 C 940.21626,555.79337 940.5355,555.67962 940.64049,555.65028 C 940.84916,555.59194 941.10247,555.92686 941.20088,556.03545 C 941.33755,556.18626 941.61189,556.15563 941.71469,556.1104 C 941.95572,556.00435 942.16575,555.88395 942.34724,555.77108 C 942.54684,555.64694 942.78773,555.54756 943.01622,555.44703 C 943.2269,555.35433 943.46442,555.27953 943.60621,555.21714 C 943.71859,555.16769 943.84207,554.79205 943.92596,554.71603 C 944.05284,554.60105 944.40491,554.6908 944.55496,554.70979 C 944.78129,554.73844 945.02987,554.66515 945.24804,554.64485 C 945.42176,554.6287 945.64058,554.62824 945.79009,554.64717 C 946.01912,554.67616 946.19959,554.64969 946.37433,554.54102 C 946.57229,554.4179 946.67261,554.31013 946.76708,554.06719 C 946.89249,553.74472 947.27737,554.01479 947.50455,554.10313 C 947.62309,554.14924 947.79164,554.38689 947.90575,554.46765 C 948.08581,554.59508 948.38113,554.59844 948.52802,554.58477 C 948.79107,554.56031 948.93406,554.57634 949.18392,554.5065 C 949.41788,554.44109 949.62327,554.4723 949.79323,554.65984 C 949.97671,554.8623 949.8855,555.10801 949.96566,555.39472 C 950.03103,555.62855 949.94933,555.96673 949.9741,556.23306 C 949.99659,556.47479 950.16464,556.7336 950.24838,556.92393 C 950.28531,557.00787 950.32212,557.09152 950.35905,557.17546 C 950.44443,557.36951 950.6281,557.56284 950.79032,557.67765 C 950.91287,557.76437 950.98791,558.19604 951.06364,558.36814 C 951.19166,558.65911 951.16115,558.84446 951.18727,559.1253 C 951.2114,559.3847 950.8344,559.47268 950.71333,559.48394 C 950.52696,559.50127 950.31782,559.41375 950.14179,559.34529 C 950.0141,559.29563 949.83335,559.14172 949.66161,559.07493 C 949.49627,559.01063 949.22489,559.11697 949.12811,559.15956 C 948.96714,559.23038 949.31245,559.66176 949.3361,559.69979 C 949.48135,559.93332 949.51294,559.97704 949.77313,560.07823 C 949.98788,560.16175 950.16919,560.25187 950.38109,560.23216 C 950.65981,560.20624 950.78952,560.31501 950.94284,560.0749 C 951.04437,559.91591 951.18211,559.93993 951.36029,559.86153 C 951.56995,559.76928 951.66177,559.65327 951.688,559.44601 C 951.71527,559.23059 952.01272,559.1762 952.12611,559.07344 C 952.2041,559.00276 952.19272,558.60131 952.20009,558.55925 C 952.21989,558.44628 952.5913,559.03787 952.61743,559.09727 C 952.74285,559.38233 952.86116,559.4557 953.03036,559.21661 C 953.08065,559.14555 952.70737,558.41503 952.66731,558.32398 C 952.60258,558.17687 952.3737,557.87092 952.22845,557.73522 C 951.96,557.48443 951.67646,556.80278 951.58757,556.48481 C 951.52616,556.26515 951.40165,555.92466 951.42848,555.71275 C 951.45915,555.47043 951.36828,555.3527 951.4089,555.12093 C 951.45136,554.87868 951.58034,554.89543 951.83932,554.87134 C 952.02095,554.85445 952.38756,555.36389 952.43813,555.47882 C 952.53864,555.70726 952.67002,556.10105 952.74248,556.30737 C 952.82376,556.53881 952.82915,556.69517 953.02214,556.87547 C 953.2588,557.09656 953.55887,557.54801 953.66717,557.79414 C 953.77115,558.03047 953.7764,558.21586 953.79618,558.42852 C 953.81491,558.62979 953.74304,558.84235 953.71489,559.06473 C 953.68486,559.30193 953.81271,559.42578 953.78617,559.63541 C 953.75771,559.86021 953.86942,560.02933 953.84255,560.24154 C 953.81587,560.45234 953.74752,560.56284 953.57219,560.72172 C 953.49614,560.79065 953.72092,561.12725 953.7577,561.21084 C 953.8024,561.31242 954.01422,561.5202 954.07196,561.5839 C 954.1994,561.72454 954.45068,561.77435 954.61525,561.79519 C 954.92833,561.83482 955.23028,561.75082 955.27664,561.38457 C 955.29484,561.24078 955.20661,561.03471 955.22822,560.86404 C 955.26449,560.57754 955.27423,560.57327 955.50579,560.47139 C 955.66397,560.40179 955.88007,560.3143 956.0317,560.3002 C 956.25871,560.27908 956.39673,560.31728 956.65397,560.41733 C 956.9145,560.51864 956.99945,560.57461 957.24838,560.60612 C 957.45484,560.63226 957.61402,560.6647 957.85768,560.75946 C 958.04817,560.83354 958.28519,560.8421 958.50185,560.92636 C 958.76069,561.02702 958.74152,561.38228 958.69457,561.50301 C 958.6879,561.52017 958.17833,561.38586 958.12303,561.36436 C 957.9363,561.29174 957.68704,561.31815 957.48682,561.28306 C 957.26465,561.24412 957.04114,561.35883 956.87396,561.46281 C 956.83107,561.48949 957.01056,561.84077 957.03757,561.90216 C 957.10044,562.04504 957.05906,562.15424 957.0479,562.27409 C 956.92869,562.36875 957.12149,562.47338 957.07819,562.81544 C 957.06207,562.94276 956.85163,563.60365 957.0543,563.68246 C 957.42669,563.82728 957.53165,563.93724 957.78595,564.21785 C 957.94662,564.39515 958.12691,564.50335 958.47181,564.54701 C 958.87837,564.59848 958.88833,564.33327 959.25146,564.47449 C 959.45744,564.5546 959.56812,564.57177 959.67606,564.56381 C 959.71237,564.69885 959.73486,564.8215 959.77592,564.91481 C 959.84383,565.06917 959.92489,565.11838 959.98074,565.24532 C 960.03188,565.36155 960.28985,565.35639 960.37753,565.37175 C 960.51457,565.39577 960.70879,565.26533 960.79487,565.22746 C 960.90115,565.1807 961.00726,565.13658 961.12134,565.10469 C 961.12333,565.10413 961.12565,565.10322 961.12769,565.10269 C 961.15719,565.18429 961.21022,565.26297 961.28985,565.35083 C 961.3924,565.46399 961.67207,565.35468 961.83191,565.35315 C 961.99762,565.35156 961.95209,565.75626 961.94478,565.81402 C 961.91976,566.01163 961.74711,566.13744 961.76895,566.37221 C 961.78749,566.57148 961.71823,566.71003 961.68104,566.92223 C 961.64495,567.12813 961.5915,567.27735 961.48369,567.42969 C 961.47581,567.44082 961.46839,567.45227 961.46163,567.46347 C 961.46127,567.46407 961.46123,567.46482 961.46088,567.46541 C 961.44347,567.48641 961.42468,567.50574 961.40471,567.52384 C 961.24918,567.66479 961.15007,567.88365 961.03347,568.04841 C 960.9083,568.22528 960.78862,568.36645 960.6335,568.4347 C 960.38135,568.54565 960.17196,568.63047 959.96415,568.75972 C 959.78033,568.87404 959.63533,568.82199 959.40816,568.79323 C 959.23466,568.77127 959.02883,568.64571 958.86487,568.58195 C 958.67147,568.50674 958.47721,568.43119 958.28381,568.35598 C 958.07833,568.27607 957.87337,568.19636 957.66789,568.11645 C 957.47757,568.04244 957.27234,568.16189 957.07569,568.137 C 956.86345,568.11013 956.66883,568.13274 956.461,568.10644 C 956.27262,568.08259 956.03118,567.9415 955.89484,567.84501 C 955.68318,567.69521 955.51741,567.66173 955.33444,567.45984 C 955.20417,567.31608 954.96917,567.23739 954.84765,567.10329 C 954.69072,566.93013 954.58796,566.81516 954.38813,566.67373 C 954.16249,566.51405 953.94728,566.36206 953.7332,566.21055 C 953.52587,566.06382 953.46818,565.9707 953.3101,565.79627 C 953.13523,565.60331 952.97989,565.43607 952.82013,565.23 C 952.68979,565.06189 952.46149,564.96454 952.24676,564.88104 C 952.04207,564.80143 951.87586,564.74099 951.71106,564.75632 C 951.56001,564.77037 951.25682,564.96517 951.14296,565.03598 C 950.98997,565.13113 950.87931,565.38997 950.80756,565.57449 C 950.74714,565.72985 950.47066,565.74139 950.35427,565.77393 C 950.19833,565.81752 949.85949,565.66401 949.71048,565.60606 C 949.49012,565.52036 949.40628,565.34114 949.38826,565.1474 C 949.37093,564.96105 949.12092,564.87762 948.98706,564.78289 C 948.77995,564.63632 948.63811,564.63035 948.48536,564.4618 C 948.37911,564.34455 948.36362,564.0271 948.3281,563.90005 C 948.26458,563.67285 948.20644,563.53639 948.02019,563.40458 C 947.81435,563.25891 947.77985,563.16534 947.58316,563.02614 C 947.41485,562.90703 947.29702,562.75323 947.10933,562.63338 C 946.88198,562.48819 946.77091,562.31116 946.56959,562.08901 C 946.44627,561.95293 946.4911,561.62647 946.47641,561.46857 C 946.45421,561.22988 946.4598,560.92564 946.49083,560.68037 C 946.52345,560.42272 946.43817,560.19301 946.73036,560.06444 C 946.96169,559.96266 947.02029,559.83495 947.13167,559.67756 C 947.27899,559.4694 947.23214,559.25741 947.212,559.04097 C 947.19518,558.86007 946.8155,558.7619 946.67409,558.70691 C 946.42527,558.61015 946.21703,558.59495 945.96525,558.59737 C 945.79709,558.59898 945.62225,558.50634 945.44348,558.43682 C 945.21382,558.34751 944.9836,558.25798 944.75396,558.16867 C 944.5243,558.07935 944.29506,557.9902 944.0654,557.90089 C 943.88222,557.82966 943.62755,557.69476 943.47772,557.58873 C 943.33498,557.48771 943.09742,557.44083 942.93346,557.37707 C 942.69549,557.28452 942.59456,557.30521 942.34702,557.27387 C 942.1546,557.24951 942.01513,557.17496 941.81131,557.14916 C 941.61621,557.12446 941.46147,557.12418 941.24736,557.09708 C 941.12754,557.08191 941.03941,557.06417 940.96727,557.06619 C 940.95935,557.05019 940.95118,557.03422 940.9429,557.01992 C 940.89191,556.93193 940.57488,556.81845 940.49914,556.76484 C 940.33019,556.64528 940.21808,556.53074 940.08498,556.43654 C 939.92041,556.32008 939.90256,556.05335 939.70347,555.91246 C 939.46711,555.74518 939.3493,555.82827 939.16238,555.91052 C 938.80272,556.06876 938.55089,556.09871 938.26975,556.27357 C 938.13885,556.35498 937.82159,556.26408 937.65506,556.243 C 937.38426,556.20872 937.28716,556.16406 937.01213,556.28507 C 936.78411,556.3854 936.6431,556.43199 936.48083,556.57905 C 936.37051,556.67903 936.29046,556.92963 936.22479,557.02243 C 936.10356,557.19373 935.84707,557.27852 935.72932,557.33033 C 935.5541,557.40743 935.46127,557.57158 935.43745,557.75978 C 935.37716,558.23605 934.68238,558.37187 934.36716,558.47071 C 934.13449,558.54367 933.93279,558.52932 933.71088,558.54996 C 933.4795,558.57148 933.24221,558.54082 932.99532,558.56378 C 932.72267,558.58914 932.51808,558.67729 932.31875,558.80126 C 932.09864,558.93816 931.86169,559.07061 931.71569,559.27692 C 931.62273,559.40827 931.23724,559.54764 931.08351,559.61528 C 930.90796,559.69252 930.70043,559.79876 930.5379,559.94605 C 930.36579,560.10203 930.13989,560.21108 929.94156,560.29834 C 929.81343,560.35472 929.59411,560.54455 929.50442,560.6713 C 929.37966,560.84758 929.23391,560.9702 929.11107,561.14378 C 928.97957,561.32959 928.89164,561.67917 928.86578,561.88345 C 928.83206,562.14985 928.57194,562.38492 928.4026,562.53838 C 928.23326,562.69184 928.1384,562.89379 928.05363,563.11175 C 927.98429,563.29007 927.8665,563.48687 927.79183,563.67887 C 927.78025,563.70865 927.7715,563.73643 927.76466,563.76307 C 927.73241,563.80082 927.70036,563.83954 927.67067,563.88149 C 927.4894,564.13763 927.28396,564.16232 927.06857,564.35753 C 926.98342,564.43469 926.65099,564.59824 926.68157,564.70761 C 926.73156,564.88644 926.71554,565.15922 926.63804,565.35851 C 926.56753,565.53982 926.49689,565.72146 926.42638,565.90277 C 926.363,566.06574 926.0672,566.33411 926.05552,566.42637 C 926.03487,566.58949 925.96867,566.75577 925.894,566.94776 C 925.79535,567.20144 925.79533,567.35604 925.76353,567.60721 C 925.73354,567.84411 925.84915,568.11725 925.92203,568.37793 C 925.98373,568.59863 925.93098,568.73944 926.00725,568.91277 C 926.06699,569.04856 926.17915,569.20432 926.15595,569.38758 C 926.128,569.60837 926.20756,569.85431 926.06131,570.06096 C 925.96729,570.19382 925.84502,570.40854 925.81323,570.58994 C 925.78116,570.77294 925.81366,570.90718 925.88451,571.16062 C 925.92815,571.31672 925.92813,571.59946 926.02746,571.75917 C 926.12809,571.92096 926.24335,572.09916 926.30712,572.32726 C 926.34389,572.45879 926.3873,572.76507 926.46438,572.88901 C 926.51914,572.97706 926.63133,573.37422 926.62164,573.45076 C 926.5928,573.67857 926.65082,573.82499 926.74172,573.99916 C 926.98469,574.46463 926.94262,574.53663 927.34872,574.69456 C 927.58175,574.78518 927.88785,574.75223 928.10232,574.90401 C 928.28102,575.03047 928.51042,575.08909 928.69,575.21617 C 928.87734,575.34876 928.98253,575.40122 929.07726,575.61652 C 929.15111,575.78435 929.30858,575.87097 929.45022,576.05366 C 929.61986,576.27248 929.78418,576.38197 930.06038,576.41693 C 930.34921,576.45349 930.68259,576.44931 930.96501,576.55914 C 931.1584,576.63435 931.3517,576.70952 931.5451,576.78473 C 931.81102,576.88815 932.07717,576.99165 932.34309,577.09506 C 932.57975,577.1871 932.78695,577.27698 932.91645,577.44403 C 933.11074,577.69464 933.14893,577.88117 933.36424,578.11876 C 933.38365,578.14017 933.40189,578.16359 933.42009,578.1873 C 933.29724,578.36612 933.38758,578.55544 933.39873,578.67513 C 933.41846,578.88728 933.41473,579.05112 933.46904,579.24543 C 933.52893,579.45963 933.55706,579.51298 933.65455,579.73454 C 933.70589,579.85123 934.1587,580.0505 934.28661,580.14758 C 934.57394,580.36564 934.95956,580.44934 935.19527,580.70944 C 935.5354,581.08476 935.60306,581.09404 935.54977,581.51513 C 935.52576,581.70486 935.41287,581.97612 935.34666,582.14633 C 935.27376,582.3338 935.19429,582.52127 935.17121,582.70356 C 935.16027,582.79002 935.1243,582.8856 935.0826,582.98016 C 934.99845,582.97956 934.91532,582.99676 934.83495,583.03213 C 934.66074,583.10878 934.46927,583.33968 934.33276,583.4634 C 934.11753,583.65844 934.11816,583.97104 934.13762,584.1802 C 934.15709,584.38958 934.11231,584.58213 934.17969,584.82314 C 934.23384,585.01684 934.25214,585.19214 934.35944,585.436 C 934.45875,585.66172 934.53066,585.75764 934.6391,586.00409 C 934.71704,586.18124 934.73597,586.43548 934.78242,586.60167 C 934.83267,586.78139 934.8794,586.97637 934.91778,587.11365 C 934.97145,587.30561 935.0633,587.55411 935.08263,587.76197 C 935.09953,587.94359 935.17764,588.13724 935.15295,588.33227 C 935.12724,588.53541 935.25256,588.67111 935.22327,588.90257 C 935.20019,589.08483 935.3262,589.25154 935.34469,589.45038 C 935.3614,589.62999 935.41242,589.80716 935.42894,589.98485 C 935.44484,590.15575 935.16388,590.2364 935.10064,590.39902 C 934.98774,590.68933 935.19812,590.69437 935.22169,590.9478 C 935.24175,591.16344 935.26912,591.31958 935.24128,591.53962 C 935.21671,591.73361 935.13945,591.91038 935.06641,592.09819 C 935.02488,592.20499 934.53107,592.31123 934.41175,592.38544 C 934.30955,592.449 934.17839,592.87942 934.13601,592.98839 C 934.05339,593.20084 933.8993,593.38207 933.80954,593.61287 C 933.71992,593.84332 933.74181,593.99537 933.72066,594.16251 C 933.69669,594.35189 933.79166,594.59756 933.8855,594.81083 C 933.98858,595.0451 934.03181,595.21268 934.11502,595.40179 C 934.19803,595.59046 934.3318,595.82515 934.39565,595.97026 C 934.47962,596.16112 934.58695,596.26823 934.66772,596.45179 C 934.75612,596.65271 934.73855,596.81709 934.84688,597.06331 C 934.91261,597.21271 934.82699,597.42517 934.88136,597.61967 C 934.96986,597.93622 935.26528,598.17976 935.29418,598.49041 C 935.3186,598.75296 935.56567,599.06721 935.64868,599.29609 C 935.71385,599.47578 935.80669,599.62615 935.95658,599.79156 C 936.17596,600.03363 936.34569,600.35101 936.53436,600.55921 C 936.67322,600.71243 936.8064,600.8587 936.94411,601.01066 C 937.04659,601.12373 937.21127,601.25355 937.30851,601.36086 C 937.49247,601.56385 937.66607,601.75541 937.83432,601.94106 C 937.9344,602.0515 937.94294,602.02196 938.12388,602.05367 C 938.22826,602.06689 938.54373,602.30057 938.74836,602.38015 C 938.98859,602.47357 939.15123,602.49446 939.37956,602.58325 C 939.59482,602.66696 939.79899,602.743 939.98214,602.85996 C 940.02845,602.88953 940.08202,602.91597 940.13881,602.93872 z M 970.68404,568.46122 C 970.32226,568.32053 970.34299,568.27779 970.14392,567.91782 C 970.05807,567.76258 970.03899,567.6165 969.94448,567.46454 C 969.89193,567.38005 969.54095,567.2887 969.42987,567.22539 C 969.43998,567.1913 969.45171,567.15774 969.46478,567.12413 C 969.50729,567.01483 969.591,566.8776 969.60564,566.76194 C 969.62207,566.63211 969.68061,566.49749 969.73208,566.36515 C 969.77458,566.25584 969.85829,566.11862 969.87293,566.00295 C 969.88655,565.89538 969.98503,565.70793 969.97478,565.59772 C 969.96,565.43884 969.98965,565.32286 969.94654,565.16865 C 969.89819,564.99573 969.88529,564.96354 969.78341,564.79973 C 969.70852,564.67931 969.69384,564.54873 969.63105,564.406 C 969.5768,564.28273 969.45369,564.12995 969.43871,563.96886 C 969.42558,563.82773 969.29763,563.70153 969.28596,563.5761 C 969.27622,563.47136 969.2547,563.277 969.19988,563.15241 C 969.13495,563.00484 969.09245,562.88049 969.0798,562.74449 C 969.06958,562.63468 969.06739,562.4209 969.10094,562.33462 C 969.15734,562.18961 969.16285,562.0321 969.21221,561.90518 C 969.26863,561.7601 969.3249,561.6154 969.38131,561.47035 C 969.4633,561.25952 969.5737,561.20545 969.76503,561.34085 C 969.88237,561.4239 970.04386,561.61211 970.11608,561.72822 C 970.20426,561.87004 970.26269,561.9758 970.3845,562.11022 C 970.50068,562.23842 970.57773,562.36878 970.65792,562.55102 C 970.72746,562.70907 970.77087,562.85151 970.84122,563.01141 C 970.90899,563.16543 971.02865,563.25677 971.09984,563.41858 C 971.1637,563.56371 971.19744,563.73162 971.25856,563.87052 C 971.32058,564.01148 971.38655,564.12261 971.40188,564.28749 C 971.41462,564.42444 971.39176,564.55498 971.40592,564.70714 C 971.42092,564.86841 971.3986,564.94879 971.44395,565.11103 C 971.47314,565.21542 971.55788,565.41506 971.54886,565.4863 C 971.53018,565.63391 971.57946,565.74029 971.56172,565.8804 C 971.54796,565.9891 971.51843,566.19067 971.56613,566.29909 C 971.65058,566.49103 971.72971,566.67789 971.7504,566.90033 C 971.76469,567.05391 971.79888,567.19028 971.83589,567.32267 C 971.87844,567.47488 971.88298,567.57803 971.89776,567.73695 C 971.90933,567.86133 971.89528,567.95834 971.83895,568.10318 C 971.7754,568.2666 971.66102,568.30188 971.51345,568.36681 C 971.42589,568.40533 971.24764,568.4844 971.13011,568.49534 C 971.06543,568.50135 970.99049,568.51573 970.92152,568.53574 C 970.84848,568.51906 970.77231,568.49555 970.68404,568.46122 z M 965.16005,563.55806 C 964.91615,563.46321 964.71909,563.30296 964.49877,563.21728 C 964.28259,563.1332 964.19129,563.06883 964.01956,562.94729 C 963.82326,562.80838 963.66594,562.6482 963.43726,562.51236 C 963.25465,562.40387 963.03078,562.14579 962.85497,562.07742 C 962.64646,561.99633 962.44255,561.88929 962.26729,561.76526 C 962.09593,561.64398 961.87521,561.57041 961.66471,561.48855 C 961.42758,561.39633 961.32812,561.34097 961.11469,561.40063 C 960.92102,561.45478 960.74565,561.53403 960.53045,561.50678 C 960.32873,561.48125 959.9883,561.3196 959.86342,561.28974 C 959.61723,561.194 959.71885,561.12939 959.52092,560.98931 C 959.3804,560.88987 959.28418,560.78688 959.10578,560.66063 C 958.93929,560.5428 958.79658,560.48772 958.66875,560.28219 C 958.57649,560.13385 958.56338,559.90859 958.75763,559.73255 C 958.90867,559.59567 959.22767,559.25441 959.38798,559.18388 C 959.70155,559.04591 959.84421,558.90992 960.09914,558.75137 C 960.31421,558.6176 960.68378,558.55078 960.86899,558.38293 C 960.97036,558.29107 961.30897,557.8851 961.49396,557.95704 C 961.80807,558.0792 961.79978,558.1066 961.91668,558.37229 C 962.00192,558.56601 961.88648,558.85098 961.95875,559.01522 C 962.06553,559.25792 962.01541,559.44473 962.16039,559.67785 C 962.29351,559.89187 962.49027,560.04498 962.64633,559.82446 C 962.72872,559.70805 962.83991,559.4979 963.05485,559.52511 C 963.29055,559.55494 963.48881,559.69387 963.70758,559.77895 C 963.9284,559.86482 964.16155,559.93783 964.34637,560.06862 C 964.50702,560.18232 964.67152,560.30854 964.74084,560.5565 C 964.78778,560.72439 964.84551,561.13772 964.96438,561.26889 C 965.09905,561.41749 965.2532,561.53638 965.3871,561.68414 C 965.50096,561.80977 965.59242,561.88205 965.70136,562.0572 C 965.81205,562.23517 965.84475,562.50374 965.81644,562.72741 C 965.79271,562.91483 965.73106,563.05952 965.61909,563.23487 C 965.49023,563.43667 965.46585,563.67698 965.16005,563.55806 z "
           id="path7165" />
      </g>
    </g>
    <path
       style="fill:none;fill-rule:evenodd;stroke:black;stroke-width:1;stroke-linecap:butt;stroke-linejoin:miter;stroke-miterlimit:4;stroke-dasharray:3, 3;stroke-dashoffset:0;stroke-opacity:1"
       d="M 255.64213,377.36729 L 870.31485,503.3405"
       id="path3292"
       sodipodi:nodetypes="cc" />
    <path
       style="fill:none;fill-rule:evenodd;stroke:black;stroke-width:1;stroke-linecap:butt;stroke-linejoin:miter;stroke-miterlimit:4;stroke-dasharray:3, 3;stroke-dashoffset:0;stroke-opacity:1"
       d="M 256.2578,404.83312 L 893.07338,490.80633"
       id="path3295"
       sodipodi:nodetypes="cc" />
    <g
       id="g3422"
       style="stroke:black;stroke-width:5;stroke-miterlimit:4;stroke-dasharray:none;stroke-opacity:1"
       transform="translate(25.47528,18.4368)">
      <g
         id="g3536">
        <path
           style="opacity:1;color:black;fill:black;fill-opacity:1;fill-rule:nonzero;stroke:none;stroke-width:1;stroke-linecap:round;stroke-linejoin:miter;marker:none;stroke-miterlimit:4;stroke-dasharray:none;stroke-dashoffset:0;stroke-opacity:1;visibility:visible;display:inline;overflow:visible"
           d="M 447.48113,176.53506 C 447.20774,176.53893 446.98815,176.76165 446.98815,177.03506 C 446.98815,177.30847 447.20774,177.53119 447.48113,177.53506 C 564.18604,201.59171 644.5141,241.64203 679.98113,286.75381 C 697.71464,309.3097 704.26058,333.09204 698.63738,356.84756 C 693.01418,380.60308 675.18773,404.39943 644.01238,426.84756 C 641.64118,428.55496 639.57768,429.98045 637.07488,431.66006 C 636.89745,431.74603 636.7871,431.92824 636.79311,432.12532 C 636.79912,432.32239 636.92037,432.49753 637.10272,432.57253 C 637.28506,432.64753 637.49445,432.60837 637.63738,432.47256 C 640.14767,430.78793 642.1959,429.37306 644.57488,427.66006 C 675.87537,405.12183 693.90833,381.13701 699.60613,357.06631 C 705.30393,332.99561 698.63343,308.85964 680.76238,286.12881 C 645.02027,240.66714 564.53074,200.61768 447.69988,176.53506 C 447.62786,176.51892 447.55315,176.51892 447.48113,176.53506 z "
           id="path3062" />
        <path
           style="fill-rule:evenodd;stroke:black;stroke-width:0.8pt;marker-start:none"
           d="M 457.37922,179.05828 L 462.10441,175.9482 L 447.58513,177.0394 L 460.4893,183.78347 L 457.37922,179.05828 z "
           id="path3542" />
      </g>
      <g
         id="g3544">
        <path
           style="opacity:1;color:black;fill:black;fill-opacity:1;fill-rule:nonzero;stroke:none;stroke-width:1;stroke-linecap:round;stroke-linejoin:miter;marker:none;stroke-miterlimit:4;stroke-dasharray:none;stroke-dashoffset:0;stroke-opacity:1;visibility:visible;display:inline;overflow:visible"
           d="M 661.53448,87.912038 C 661.31594,87.978165 661.16995,88.183926 661.17971,88.412043 C 661.18948,88.640161 661.35252,88.832692 661.57591,88.879902 C 830.66915,125.55843 939.46693,184.64434 979.41399,251.46658 C 999.38752,284.8777 1002.2118,320.21208 986.82074,355.80778 C 971.42969,391.40347 937.78382,427.25136 884.7498,461.55115 C 884.5143,461.69943 884.44359,462.01055 884.59187,462.24604 C 884.74015,462.48154 885.05126,462.55225 885.28676,462.40397 C 938.42572,428.0363 972.23896,392.03314 987.74354,356.1749 C 1003.2481,320.31665 1000.38,284.60335 980.26814,250.96084 C 940.04443,183.67582 831.00916,124.63936 661.78559,87.932567 C 661.70501,87.904404 661.61857,87.897337 661.53448,87.912038 z "
           id="path3066" />
        <path
           style="fill-rule:evenodd;stroke:black;stroke-width:0.8pt;marker-start:none"
           d="M 671.45206,90.526834 L 676.20909,87.465674 L 661.67933,88.407002 L 674.51322,95.28386 L 671.45206,90.526834 z "
           id="path3550" />
      </g>
      <g
         id="g3552">
        <path
           style="opacity:1;color:black;fill:black;fill-opacity:1;fill-rule:nonzero;stroke:none;stroke-width:1;stroke-linecap:round;stroke-linejoin:miter;marker:none;stroke-miterlimit:4;stroke-dasharray:none;stroke-dashoffset:0;stroke-opacity:1;visibility:visible;display:inline;overflow:visible"
           d="M 611.63738,446.94131 C 611.59299,446.95619 611.55092,446.97723 611.51238,447.00381 C 573.3646,467.5896 532.01429,482.60114 476.38738,496.06631 C 476.19564,496.08633 476.03248,496.21479 475.96803,496.39649 C 475.90358,496.57818 475.94932,496.78074 476.08559,496.91711 C 476.22186,497.05348 476.42439,497.09937 476.60613,497.03506 C 532.28818,483.55655 573.74643,468.51151 611.98113,447.87881 C 612.22472,447.77369 612.34381,447.49663 612.25248,447.24754 C 612.16115,446.99846 611.89119,446.86405 611.63738,446.94131 L 611.63738,446.94131 z "
           id="path3297" />
        <path
           style="fill-rule:evenodd;stroke:black;stroke-width:0.8pt;marker-start:none"
           d="M 602.9354,452.19398 L 601.31484,457.61374 L 611.7358,447.44499 L 597.51564,450.57342 L 602.9354,452.19398 z "
           id="path3558" />
      </g>
      <g
         id="g3560">
        <path
           style="opacity:1;color:black;fill:black;fill-opacity:1;fill-rule:nonzero;stroke:none;stroke-width:1;stroke-linecap:round;stroke-linejoin:miter;marker:none;stroke-miterlimit:4;stroke-dasharray:none;stroke-dashoffset:0;stroke-opacity:1;visibility:visible;display:inline;overflow:visible"
           d="M 810.32947,502.27123 C 810.26385,502.28219 810.20107,502.30615 810.14482,502.34169 C 771.76258,520.26937 735.12176,534.27939 687.97071,549.10963 C 687.70677,549.19867 687.56497,549.48482 687.65401,549.74876 C 687.74304,550.01271 688.02919,550.1545 688.29314,550.06547 C 735.47498,535.22554 772.1362,521.17734 810.55823,503.23107 C 810.78385,503.1363 810.90774,502.89216 810.851,502.65411 C 810.79427,502.41606 810.57359,502.25405 810.32947,502.27123 z "
           id="path3420" />
        <path
           style="fill-rule:evenodd;stroke:black;stroke-width:0.8pt;marker-start:none"
           d="M 801.30042,507.01777 L 799.36904,512.3347 L 810.36081,502.78582 L 795.98349,505.08639 L 801.30042,507.01777 z "
           id="path3566" />
      </g>
    </g>
    <text
       xml:space="preserve"
       x="843.33179"
       y="138.02898"
       id="text3456"
       style="font-size:20px;font-style:normal;font-variant:normal;font-weight:normal;font-stretch:normal;text-align:start;line-height:125%;writing-mode:lr-tb;text-anchor:start;font-family:Arial"
       sodipodi:linespacing="125%"><tspan
         sodipodi:role="line"
         id="tspan3458"
         x="843.33179"
         y="138.02898">Earth orbit</tspan></text>
    <text
       xml:space="preserve"
       x="649.38495"
       y="248.6851"
       id="text3460"
       style="font-size:20px;font-style:normal;font-variant:normal;font-weight:normal;font-stretch:normal;text-align:start;line-height:125%;writing-mode:lr-tb;text-anchor:start;font-family:Arial"
       sodipodi:linespacing="125%"><tspan
         sodipodi:role="line"
         id="tspan3462"
         x="649.38495"
         y="248.6851">Venus orbit</tspan></text>
    <path
       style="fill:none;fill-rule:evenodd;stroke:black;stroke-width:1px;stroke-linecap:butt;stroke-linejoin:miter;stroke-opacity:1"
       d="M 193.66568,414.02866 L 193.66568,434.50655"
       id="path3464"
       sodipodi:nodetypes="cc" />
    <path
       style="fill:none;fill-rule:evenodd;stroke:black;stroke-width:1px;stroke-linecap:butt;stroke-linejoin:miter;stroke-opacity:1"
       d="M 319.04671,409.79234 L 319.04671,430.27023"
       id="path3466"
       sodipodi:nodetypes="cc" />
    <g
       id="g3578"
       transform="translate(25.47528,18.4368)">
      <path
         style="fill:black;fill-opacity:1;fill-rule:evenodd;stroke:none;stroke-width:0.69999999;stroke-linecap:butt;stroke-linejoin:miter;stroke-miterlimit:4;stroke-dasharray:2.8, 2.8;stroke-dashoffset:0;stroke-opacity:1"
         d="M 287.0625,406.75 L 287.0625,407.4375 L 289.875,407.34375 L 289.84375,406.65625 L 287.0625,406.75 z M 281.4375,406.90625 L 281.46875,407.625 L 284.28125,407.53125 L 284.25,406.84375 L 281.4375,406.90625 z M 275.84375,407.09375 L 275.875,407.78125 L 278.6875,407.6875 L 278.65625,407 L 275.84375,407.09375 z M 270.25,407.25 L 270.28125,407.96875 L 273.0625,407.875 L 273.0625,407.1875 L 270.25,407.25 z M 264.65625,407.4375 L 264.6875,408.125 L 267.46875,408.03125 L 267.46875,407.34375 L 264.65625,407.4375 z M 259.0625,407.59375 L 259.09375,408.3125 L 261.875,408.21875 L 261.875,407.53125 L 259.0625,407.59375 z M 253.46875,407.78125 L 253.5,408.46875 L 256.28125,408.375 L 256.25,407.6875 L 253.46875,407.78125 z M 247.875,407.9375 L 247.875,408.65625 L 250.6875,408.5625 L 250.65625,407.875 L 247.875,407.9375 z M 242.28125,408.125 L 242.28125,408.8125 L 245.09375,408.75 L 245.0625,408.03125 L 242.28125,408.125 z M 236.6875,408.28125 L 236.6875,409 L 239.5,408.90625 L 239.46875,408.21875 L 236.6875,408.28125 z M 231.0625,408.46875 L 231.09375,409.15625 L 233.90625,409.09375 L 233.875,408.375 L 231.0625,408.46875 z M 225.46875,408.625 L 225.5,409.34375 L 228.3125,409.25 L 228.28125,408.5625 L 225.46875,408.625 z M 219.875,408.8125 L 219.90625,409.5 L 222.6875,409.4375 L 222.6875,408.71875 L 219.875,408.8125 z M 214.28125,408.96875 L 214.3125,409.6875 L 217.09375,409.59375 L 217.09375,408.90625 L 214.28125,408.96875 z M 208.6875,409.15625 L 208.71875,409.84375 L 211.5,409.78125 L 211.46875,409.0625 L 208.6875,409.15625 z M 203.09375,409.3125 L 203.125,410.03125 L 205.90625,409.9375 L 205.875,409.25 L 203.09375,409.3125 z M 197.5,409.5 L 197.5,410.1875 L 200.3125,410.125 L 200.28125,409.40625 L 197.5,409.5 z M 191.90625,409.65625 L 191.90625,410.375 L 194.71875,410.28125 L 194.6875,409.59375 L 191.90625,409.65625 z M 186.28125,409.84375 L 186.3125,410.53125 L 189.125,410.46875 L 189.09375,409.75 L 186.28125,409.84375 z M 180.6875,410 L 180.71875,410.71875 L 183.53125,410.625 L 183.5,409.9375 L 180.6875,410 z M 175.09375,410.1875 L 175.125,410.875 L 177.90625,410.8125 L 177.90625,410.09375 L 175.09375,410.1875 z M 169.5,410.34375 L 169.53125,411.0625 L 172.3125,410.96875 L 172.3125,410.28125 L 169.5,410.34375 z "
         id="path3468" />
      <path
         style="fill-rule:evenodd;stroke:black;stroke-width:0.8pt;marker-start:none"
         d="M 176.51134,410.49256 L 179.22399,407.60785 L 169.51465,410.70765 L 179.39606,413.2052 L 176.51134,410.49256 z "
         id="path3584" />
      <path
         d="M 284.47883,404.06602 L 292.98285,406.8997 L 284.66895,410.25039 C 285.95623,408.38347 285.8717,405.88593 284.47883,404.06602 z "
         style="font-size:12px;fill-rule:evenodd;stroke-width:0.625;stroke-linejoin:round"
         id="path3586" />
    </g>
    <path
       style="fill:none;fill-rule:evenodd;stroke:black;stroke-width:1px;stroke-linecap:butt;stroke-linejoin:miter;stroke-opacity:1"
       d="M 179.71502,354.39009 L 179.71502,374.86798"
       id="path3470"
       sodipodi:nodetypes="cc" />
    <path
       style="fill:none;fill-rule:evenodd;stroke:black;stroke-width:1px;stroke-linecap:butt;stroke-linejoin:miter;stroke-opacity:1"
       d="M 331.36002,348.63854 L 331.36002,369.11643"
       id="path3472"
       sodipodi:nodetypes="cc" />
    <g
       id="g3568"
       transform="translate(25.47528,18.4368)">
      <path
         style="fill:black;fill-opacity:1;fill-rule:evenodd;stroke:none;stroke-width:0.69999999;stroke-linecap:butt;stroke-linejoin:miter;stroke-miterlimit:4;stroke-dasharray:2.8, 2.8;stroke-dashoffset:0;stroke-opacity:1"
         d="M 302.03125,334.9375 L 302.0625,335.625 L 304.625,335.53125 L 304.59375,334.84375 L 302.03125,334.9375 z M 296.4375,335.15625 L 296.46875,335.875 L 299.28125,335.75 L 299.25,335.0625 L 296.4375,335.15625 z M 290.84375,335.40625 L 290.875,336.09375 L 293.6875,335.96875 L 293.65625,335.28125 L 290.84375,335.40625 z M 285.25,335.625 L 285.28125,336.3125 L 288.09375,336.21875 L 288.0625,335.5 L 285.25,335.625 z M 279.65625,335.84375 L 279.6875,336.5625 L 282.46875,336.4375 L 282.46875,335.71875 L 279.65625,335.84375 z M 274.0625,336.0625 L 274.09375,336.78125 L 276.875,336.65625 L 276.875,335.96875 L 274.0625,336.0625 z M 268.46875,336.3125 L 268.5,337 L 271.28125,336.875 L 271.25,336.1875 L 268.46875,336.3125 z M 262.875,336.53125 L 262.90625,337.21875 L 265.6875,337.125 L 265.65625,336.40625 L 262.875,336.53125 z M 257.28125,336.75 L 257.3125,337.46875 L 260.09375,337.34375 L 260.0625,336.65625 L 257.28125,336.75 z M 251.6875,337 L 251.71875,337.6875 L 254.5,337.5625 L 254.46875,336.875 L 251.6875,337 z M 246.09375,337.21875 L 246.125,337.90625 L 248.90625,337.8125 L 248.875,337.09375 L 246.09375,337.21875 z M 240.5,337.4375 L 240.53125,338.15625 L 243.3125,338.03125 L 243.28125,337.34375 L 240.5,337.4375 z M 234.90625,337.6875 L 234.9375,338.375 L 237.71875,338.25 L 237.6875,337.5625 L 234.90625,337.6875 z M 229.3125,337.90625 L 229.3125,338.59375 L 232.125,338.5 L 232.09375,337.78125 L 229.3125,337.90625 z M 223.71875,338.125 L 223.71875,338.84375 L 226.53125,338.71875 L 226.5,338.03125 L 223.71875,338.125 z M 218.09375,338.34375 L 218.125,339.0625 L 220.9375,338.9375 L 220.90625,338.25 L 218.09375,338.34375 z M 212.5,338.59375 L 212.53125,339.28125 L 215.34375,339.1875 L 215.3125,338.46875 L 212.5,338.59375 z M 206.90625,338.8125 L 206.9375,339.5 L 209.75,339.40625 L 209.71875,338.6875 L 206.90625,338.8125 z M 201.3125,339.03125 L 201.34375,339.75 L 204.15625,339.625 L 204.125,338.9375 L 201.3125,339.03125 z M 195.71875,339.28125 L 195.75,339.96875 L 198.5625,339.84375 L 198.53125,339.15625 L 195.71875,339.28125 z M 190.125,339.5 L 190.15625,340.1875 L 192.96875,340.09375 L 192.9375,339.375 L 190.125,339.5 z M 184.53125,339.71875 L 184.5625,340.4375 L 187.375,340.3125 L 187.34375,339.625 L 184.53125,339.71875 z M 178.9375,339.96875 L 178.96875,340.65625 L 181.78125,340.53125 L 181.75,339.84375 L 178.9375,339.96875 z M 173.34375,340.1875 L 173.375,340.875 L 176.1875,340.78125 L 176.15625,340.0625 L 173.34375,340.1875 z M 167.75,340.40625 L 167.78125,341.125 L 170.5625,341 L 170.5625,340.3125 L 167.75,340.40625 z M 162.15625,340.65625 L 162.1875,341.34375 L 164.96875,341.21875 L 164.9375,340.53125 L 162.15625,340.65625 z M 156.5625,340.875 L 156.59375,341.5625 L 159.375,341.46875 L 159.34375,340.75 L 156.5625,340.875 z "
         id="path3474" />
      <path
         style="fill-rule:evenodd;stroke:black;stroke-width:0.8pt;marker-start:none"
         d="M 163.56832,340.93474 L 166.25186,338.02293 L 156.57414,341.22009 L 166.48013,343.61828 L 163.56832,340.93474 z "
         id="path3574" />
      <path
         d="M 297.01619,332.38184 L 305.54823,335.12998 L 297.2684,338.56399 C 298.53686,336.68423 298.42726,334.18768 297.01619,332.38184 z "
         style="font-size:12px;fill-rule:evenodd;stroke-width:0.625;stroke-linejoin:round"
         id="path3576" />
    </g>
    <g
       id="g3492"
       transform="translate(-135.239,42.00823)">
      <text
         sodipodi:linespacing="125%"
         style="font-size:20px;font-style:normal;font-variant:normal;font-weight:normal;font-stretch:normal;text-align:start;line-height:125%;writing-mode:lr-tb;text-anchor:start;font-family:Arial"
         id="text3476"
         y="308.39554"
         x="377.09735"
         xml:space="preserve"><tspan
           y="308.39554"
           x="377.09735"
           id="tspan3478"
           sodipodi:role="line"></tspan></text>
      <text
         sodipodi:linespacing="125%"
         style="font-size:20px;font-style:italic;font-variant:normal;font-weight:normal;font-stretch:normal;text-align:start;line-height:125%;writing-mode:lr-tb;text-anchor:start;font-family:Arial"
         id="text3480"
         y="308.21976"
         x="392.46863"
         xml:space="preserve"><tspan
           y="308.21976"
           x="392.46863"
           id="tspan3488"
           sodipodi:role="line">t</tspan></text>
      <text
         sodipodi:linespacing="125%"
         style="font-size:12px;font-style:normal;font-variant:normal;font-weight:normal;font-stretch:normal;text-align:start;line-height:125%;writing-mode:lr-tb;text-anchor:start;font-family:Arial"
         id="text3484"
         y="311.25269"
         x="399.39175"
         xml:space="preserve"><tspan
           y="311.25269"
           x="399.39175"
           id="tspan3490"
           sodipodi:role="line">1</tspan></text>
    </g>
    <g
       id="g3500"
       transform="translate(-132.852,139.1511)">
      <text
         sodipodi:linespacing="125%"
         style="font-size:20px;font-style:normal;font-variant:normal;font-weight:normal;font-stretch:normal;text-align:start;line-height:125%;writing-mode:lr-tb;text-anchor:start;font-family:Arial"
         id="text3502"
         y="308.39554"
         x="377.09735"
         xml:space="preserve"><tspan
           y="308.39554"
           x="377.09735"
           id="tspan3504"
           sodipodi:role="line"></tspan></text>
      <text
         sodipodi:linespacing="125%"
         style="font-size:20px;font-style:italic;font-variant:normal;font-weight:normal;font-stretch:normal;text-align:start;line-height:125%;writing-mode:lr-tb;text-anchor:start;font-family:Arial"
         id="text3506"
         y="308.21976"
         x="392.46863"
         xml:space="preserve"><tspan
           y="308.21976"
           x="392.46863"
           id="tspan3508"
           sodipodi:role="line">t</tspan></text>
      <text
         sodipodi:linespacing="125%"
         style="font-size:12px;font-style:normal;font-variant:normal;font-weight:normal;font-stretch:normal;text-align:start;line-height:125%;writing-mode:lr-tb;text-anchor:start;font-family:Arial"
         id="text3510"
         y="311.25269"
         x="399.39175"
         xml:space="preserve"><tspan
           sodipodi:role="line"
           id="tspan3514"
           x="399.39175"
           y="311.25269">2</tspan></text>
    </g>
  </g>
</svg>
