<?xml version="1.0" encoding="UTF-8" standalone="no"?>
<!-- Created with Inkscape (http://www.inkscape.org/) -->
<svg
   xmlns:svg="http://www.w3.org/2000/svg"
   xmlns="http://www.w3.org/2000/svg"
   version="1.0"
   width="800"
   height="800"
   id="parabola">
  <defs
     id="defs10">
    <marker
       refX="0"
       refY="0"
       orient="auto"
       id="ArrowLargeStart"
       style="overflow:visible">
      <path
         d="M 0,0 L 3.4,1.7 L 2.125,0 L 3.4,-1.7 L 0,0 z"
         id="path4074"
         style="fill:none;stroke:#000000;stroke-width:1;stroke-linejoin:miter;marker-start:none;stroke-miterlimit:5" />
    </marker>
    <marker
       refX="0"
       refY="0"
       orient="auto"
       id="ArrowLargeEnd"
       style="overflow:visible">
      <path
         d="M 0,0 L -3.4,1.7 L -2.125,0 L -3.4,-1.7 L 0,0 z"
         id="path4077"
         style="fill:none;stroke:#000000;stroke-width:1;stroke-linejoin:miter;marker-start:none;stroke-miterlimit:5" />
    </marker>
  </defs>
  <desc
     id="desc3">Parabola</desc>
  <g
     transform="translate(0,-200)"
     id="g3231"
     style="stroke:#808080;stroke-opacity:1">
    <rect
       width="800"
       height="800"
       x="0"
       y="200"
       id="rect11282"
       style="fill:#ffffff;fill-opacity:1;fill-rule:evenodd;stroke:#808080;stroke-width:2;stroke-linecap:square;stroke-linejoin:miter;stroke-miterlimit:4;stroke-dasharray:none;stroke-dashoffset:0;stroke-opacity:1" />
    <path
       d="M 0.30074337,750.00001 L 799.70103,749.9991"
       id="path3814"
       style="fill:none;fill-rule:evenodd;stroke:#808080;stroke-width:0.40000001;stroke-linecap:square;stroke-linejoin:miter;stroke-miterlimit:0;stroke-dasharray:none;stroke-opacity:1" />
    <path
       d="M 0.30045395,250.00001 L 799.70074,249.9991"
       id="path4711"
       style="fill:none;fill-rule:evenodd;stroke:#808080;stroke-width:0.40000001;stroke-linecap:square;stroke-linejoin:miter;stroke-miterlimit:0;stroke-dasharray:none;stroke-opacity:1" />
    <path
       d="M 0.30045412,300.00001 L 799.70074,299.9991"
       id="path4713"
       style="fill:none;fill-rule:evenodd;stroke:#808080;stroke-width:0.40000001;stroke-linecap:square;stroke-linejoin:miter;stroke-miterlimit:0;stroke-dasharray:none;stroke-opacity:1" />
    <path
       d="M 0.30045395,350.00001 L 799.70074,349.9991"
       id="path4715"
       style="fill:none;fill-rule:evenodd;stroke:#808080;stroke-width:0.40000001;stroke-linecap:square;stroke-linejoin:miter;stroke-miterlimit:0;stroke-dasharray:none;stroke-opacity:1" />
    <path
       d="M 0.30045395,400.00001 L 799.70074,399.9991"
       id="path4717"
       style="fill:none;fill-rule:evenodd;stroke:#808080;stroke-width:0.40000001;stroke-linecap:square;stroke-linejoin:miter;stroke-miterlimit:0;stroke-dasharray:none;stroke-opacity:1" />
    <path
       d="M 0.30074341,950.00001 L 799.70103,949.9991"
       id="path4721"
       style="fill:none;fill-rule:evenodd;stroke:#808080;stroke-width:0.40000001;stroke-linecap:square;stroke-linejoin:miter;stroke-miterlimit:0;stroke-dasharray:none;stroke-opacity:1" />
    <path
       d="M 0.30074341,900.00001 L 799.70103,899.9991"
       id="path4723"
       style="fill:none;fill-rule:evenodd;stroke:#808080;stroke-width:0.40000001;stroke-linecap:square;stroke-linejoin:miter;stroke-miterlimit:0;stroke-dasharray:none;stroke-opacity:1" />
    <path
       d="M 0.30074341,850.00001 L 799.70103,849.9991"
       id="path4725"
       style="fill:none;fill-rule:evenodd;stroke:#808080;stroke-width:0.40000001;stroke-linecap:square;stroke-linejoin:miter;stroke-miterlimit:0;stroke-dasharray:none;stroke-opacity:1" />
    <path
       d="M 0.30074341,800.00001 L 799.70103,799.9991"
       id="path4727"
       style="fill:none;fill-rule:evenodd;stroke:#808080;stroke-width:0.40000001;stroke-linecap:square;stroke-linejoin:miter;stroke-miterlimit:0;stroke-dasharray:none;stroke-opacity:1" />
    <path
       d="M 0.30074341,700.00001 L 799.70103,699.9991"
       id="path4729"
       style="fill:none;fill-rule:evenodd;stroke:#808080;stroke-width:0.40000001;stroke-linecap:square;stroke-linejoin:miter;stroke-miterlimit:0;stroke-dasharray:none;stroke-opacity:1" />
    <path
       d="M 0.30045412,450.00001 L 799.70074,449.9991"
       id="path4731"
       style="fill:none;fill-rule:evenodd;stroke:#808080;stroke-width:0.40000001;stroke-linecap:square;stroke-linejoin:miter;stroke-miterlimit:0;stroke-dasharray:none;stroke-opacity:1" />
    <path
       d="M 0.30045412,500.00001 L 799.70074,499.9991"
       id="path4733"
       style="fill:none;fill-rule:evenodd;stroke:#808080;stroke-width:0.40000001;stroke-linecap:square;stroke-linejoin:miter;stroke-miterlimit:0;stroke-dasharray:none;stroke-opacity:1" />
    <path
       d="M 0.30045395,550.00001 L 799.70074,549.9991"
       id="path4735"
       style="fill:none;fill-rule:evenodd;stroke:#808080;stroke-width:0.40000001;stroke-linecap:square;stroke-linejoin:miter;stroke-miterlimit:0;stroke-dasharray:none;stroke-opacity:1" />
    <path
       d="M 0.30045395,600.00001 L 799.70074,599.9991"
       id="path4737"
       style="fill:none;fill-rule:evenodd;stroke:#808080;stroke-width:0.40000001;stroke-linecap:square;stroke-linejoin:miter;stroke-miterlimit:0;stroke-dasharray:none;stroke-opacity:1" />
    <path
       d="M 0.30045395,650.00001 L 799.70074,649.9991"
       id="path4739"
       style="fill:none;fill-rule:evenodd;stroke:#808080;stroke-width:0.40000001;stroke-linecap:square;stroke-linejoin:miter;stroke-miterlimit:0;stroke-dasharray:none;stroke-opacity:1" />
    <path
       d="M 50.000023,200.10003 L 50.00093,999.6999"
       id="path4741"
       style="fill:none;fill-rule:evenodd;stroke:#808080;stroke-width:0.40000001;stroke-linecap:square;stroke-linejoin:miter;stroke-miterlimit:0;stroke-dasharray:none;stroke-opacity:1" />
    <path
       d="M 750.00045,200.10003 L 750.00136,999.6999"
       id="path4745"
       style="fill:none;fill-rule:evenodd;stroke:#808080;stroke-width:0.40000001;stroke-linecap:square;stroke-linejoin:miter;stroke-miterlimit:0;stroke-dasharray:none;stroke-opacity:1" />
    <path
       d="M 700.00045,200.10003 L 700.00136,999.6999"
       id="path4747"
       style="fill:none;fill-rule:evenodd;stroke:#808080;stroke-width:0.40000001;stroke-linecap:square;stroke-linejoin:miter;stroke-miterlimit:0;stroke-dasharray:none;stroke-opacity:1" />
    <path
       d="M 650.00045,200.10003 L 650.00136,999.6999"
       id="path4749"
       style="fill:none;fill-rule:evenodd;stroke:#808080;stroke-width:0.40000001;stroke-linecap:square;stroke-linejoin:miter;stroke-miterlimit:0;stroke-dasharray:none;stroke-opacity:1" />
    <path
       d="M 600.00045,200.10003 L 600.00136,999.6999"
       id="path4751"
       style="fill:none;fill-rule:evenodd;stroke:#808080;stroke-width:0.40000001;stroke-linecap:square;stroke-linejoin:miter;stroke-miterlimit:0;stroke-dasharray:none;stroke-opacity:1" />
    <path
       d="M 550.00045,200.10003 L 550.00136,999.6999"
       id="path4753"
       style="fill:none;fill-rule:evenodd;stroke:#808080;stroke-width:0.40000001;stroke-linecap:square;stroke-linejoin:miter;stroke-miterlimit:0;stroke-dasharray:none;stroke-opacity:1" />
    <path
       d="M 500.00045,200.10003 L 500.00136,999.6999"
       id="path4755"
       style="fill:none;fill-rule:evenodd;stroke:#808080;stroke-width:0.40000001;stroke-linecap:square;stroke-linejoin:miter;stroke-miterlimit:0;stroke-dasharray:none;stroke-opacity:1" />
    <path
       d="M 100.00001,200.10015 L 100.00092,999.69998"
       id="path4759"
       style="fill:none;fill-rule:evenodd;stroke:#808080;stroke-width:0.40000001;stroke-linecap:square;stroke-linejoin:miter;stroke-miterlimit:0;stroke-dasharray:none;stroke-opacity:1" />
    <path
       d="M 450.00045,200.10003 L 450.00136,999.6999"
       id="path4761"
       style="fill:none;fill-rule:evenodd;stroke:#808080;stroke-width:0.40000001;stroke-linecap:square;stroke-linejoin:miter;stroke-miterlimit:0;stroke-dasharray:none;stroke-opacity:1" />
    <path
       d="M 150.00001,200.10015 L 150.00092,999.69998"
       id="path4763"
       style="fill:none;fill-rule:evenodd;stroke:#808080;stroke-width:0.40000001;stroke-linecap:square;stroke-linejoin:miter;stroke-miterlimit:0;stroke-dasharray:none;stroke-opacity:1" />
    <path
       d="M 200.00002,200.10015 L 200.00093,999.69998"
       id="path4765"
       style="fill:none;fill-rule:evenodd;stroke:#808080;stroke-width:0.40000001;stroke-linecap:square;stroke-linejoin:miter;stroke-miterlimit:0;stroke-dasharray:none;stroke-opacity:1" />
    <path
       d="M 250.00045,200.10015 L 250.00145,999.69998"
       id="path4767"
       style="fill:none;fill-rule:evenodd;stroke:#808080;stroke-width:0.40000001;stroke-linecap:square;stroke-linejoin:miter;stroke-miterlimit:0;stroke-dasharray:none;stroke-opacity:1" />
    <path
       d="M 300.00045,200.10015 L 300.00136,999.69998"
       id="path4769"
       style="fill:none;fill-rule:evenodd;stroke:#808080;stroke-width:0.40000001;stroke-linecap:square;stroke-linejoin:miter;stroke-miterlimit:0;stroke-dasharray:none;stroke-opacity:1" />
    <path
       d="M 350.00045,200.10015 L 350.00136,999.69998"
       id="path4771"
       style="fill:none;fill-rule:evenodd;stroke:#808080;stroke-width:0.40000001;stroke-linecap:square;stroke-linejoin:miter;stroke-miterlimit:0;stroke-dasharray:none;stroke-opacity:1" />
    <path
       d="M 400.00045,200.10015 L 400.00136,999.69998"
       id="path4773"
       style="fill:none;fill-rule:evenodd;stroke:#808080;stroke-width:0.40000001;stroke-linecap:square;stroke-linejoin:miter;stroke-miterlimit:0;stroke-dasharray:none;stroke-opacity:1" />
  </g>
  <path
     d="M 399.97092,0.99999952 L 399.97092,799.46183"
     id="path2305"
     style="fill:none;fill-rule:evenodd;stroke:#000000;stroke-width:4;stroke-linecap:butt;stroke-linejoin:miter;marker-start:url(#ArrowLargeStart);stroke-miterlimit:4;stroke-dasharray:none;stroke-opacity:1" />
  <path
     d="M 0.93336505,449.99997 L 799,449.99997"
     id="path2312"
     style="fill:none;fill-rule:evenodd;stroke:#000000;stroke-width:4;stroke-linecap:butt;stroke-linejoin:miter;marker-end:url(#ArrowLargeEnd);stroke-miterlimit:4;stroke-dasharray:none;stroke-opacity:1" />
  <path
     d="M 1,549 L 799.8724,149.32641"
     id="path2330"
     style="fill:none;fill-rule:evenodd;stroke:#ff0000;stroke-width:4;stroke-linecap:butt;stroke-linejoin:miter;stroke-miterlimit:4;stroke-dasharray:none;stroke-opacity:1" />
  <path
     d="M 200.99992,1.9376892 L 798.99966,599.00014"
     id="path7174"
     style="fill:none;fill-rule:evenodd;stroke:#0000ff;stroke-width:4;stroke-linecap:butt;stroke-linejoin:miter;stroke-miterlimit:4;stroke-dasharray:none;stroke-opacity:1" />
  <g
     transform="matrix(2.6832828,-1.3416384,-1.3416384,-2.6832828,815.0934,2297.9068)"
     id="g3050"
     xml:space="preserve"
     style="font-style:normal;font-variant:normal;font-weight:normal;font-stretch:normal;letter-spacing:normal;word-spacing:normal;text-anchor:start;fill:#000000;fill-opacity:1;fill-rule:evenodd;stroke:#808080;stroke-width:0.66666669;stroke-linecap:butt;stroke-linejoin:miter;stroke-miterlimit:10.43299961;stroke-dasharray:none;stroke-dashoffset:0;stroke-opacity:1">
<path
   d="M 227.96,651.46 L 227.87,651.34 L 227.78,651.22 L 227.68,651.11 L 227.57,650.99 L 227.52,650.94 L 227.46,650.89 L 227.41,650.83 L 227.35,650.78 L 227.29,650.74 L 227.23,650.69 L 227.17,650.64 L 227.11,650.6 L 227.05,650.56 L 226.99,650.52 L 226.92,650.48 L 226.85,650.44 L 226.79,650.41 L 226.72,650.38 L 226.65,650.35 L 226.58,650.33 L 226.51,650.3 L 226.44,650.28 L 226.36,650.27 L 226.29,650.25 L 226.21,650.24 L 226.14,650.23 L 226.06,650.23 L 225.98,650.22 C 225.77,650.22 224.95,650.26 224.69,651.05 C 224.74,651.03 224.83,651.03 224.86,651.03 C 225.38,651.03 225.72,651.48 225.72,651.88 C 225.72,652.27 225.4,652.41 225.14,652.41 C 224.86,652.41 224.26,652.21 224.26,651.36 C 224.26,650.48 225,649.88 225.98,649.88 C 227.7,649.88 229.44,651.46 229.92,653.38 L 231.61,660.09 C 231.63,660.17 231.66,660.28 231.66,660.38 C 231.66,660.64 231.46,660.81 231.2,660.81 C 231.04,660.81 230.68,660.74 230.54,660.23 L 229.27,655.17 C 229.18,654.86 229.18,654.82 229.04,654.63 C 228.7,654.15 228.13,653.57 227.31,653.57 C 226.34,653.57 226.26,654.51 226.26,654.98 C 226.26,655.96 226.72,657.28 227.18,658.52 C 227.38,659.02 227.48,659.26 227.48,659.61 C 227.48,660.33 226.96,660.98 226.12,660.98 C 224.53,660.98 223.9,658.49 223.9,658.35 C 223.9,658.28 223.97,658.2 224.09,658.2 C 224.24,658.2 224.26,658.26 224.33,658.51 C 224.74,659.95 225.4,660.64 226.07,660.64 C 226.22,660.64 226.51,660.64 226.51,660.07 C 226.51,659.62 226.32,659.13 226.07,658.47 C 225.22,656.22 225.22,655.65 225.22,655.23 C 225.22,653.6 226.39,653.22 227.25,653.22 C 227.75,653.22 228.37,653.38 228.98,654.01 L 228.99,653.99 C 228.74,652.98 228.56,652.31 227.96,651.46 z"
   id="path3052"
   style="fill:#000000;fill-opacity:1;stroke:#808080;stroke-width:0;stroke-opacity:1" />
<path
   d="M 248.12,658.92 L 248.17,658.92 L 248.22,658.92 L 248.27,658.92 L 248.29,658.92 L 248.31,658.92 L 248.33,658.93 L 248.36,658.93 L 248.38,658.93 L 248.4,658.93 L 248.42,658.94 L 248.44,658.94 L 248.46,658.95 L 248.48,658.96 L 248.49,658.96 L 248.51,658.97 L 248.53,658.98 L 248.54,658.99 L 248.56,659 L 248.57,659.01 L 248.58,659.03 L 248.59,659.04 L 248.6,659.05 L 248.6,659.06 L 248.61,659.07 L 248.61,659.08 L 248.62,659.08 L 248.62,659.09 L 248.62,659.1 L 248.63,659.11 L 248.63,659.13 L 248.63,659.14 L 248.63,659.15 L 248.64,659.16 L 248.64,659.17 L 248.64,659.18 L 248.64,659.2 L 248.64,659.21 C 248.64,659.52 248.35,659.52 248.05,659.52 L 238.43,659.52 C 238.14,659.52 237.84,659.52 237.84,659.21 C 237.84,658.92 238.1,658.92 238.36,658.92 L 248.12,658.92 z"
   id="path3054"
   style="fill:#000000;fill-opacity:1;stroke:#808080;stroke-width:0;stroke-opacity:1" />
<path
   d="M 248.05,655.85 L 248.11,655.85 L 248.16,655.85 L 248.22,655.86 L 248.24,655.86 L 248.27,655.86 L 248.29,655.86 L 248.32,655.86 L 248.34,655.87 L 248.37,655.87 L 248.39,655.87 L 248.41,655.88 L 248.43,655.89 L 248.46,655.89 L 248.48,655.9 L 248.49,655.91 L 248.51,655.92 L 248.53,655.93 L 248.55,655.94 L 248.56,655.95 L 248.58,655.97 L 248.59,655.98 L 248.6,656 L 248.6,656.01 L 248.61,656.02 L 248.61,656.03 L 248.62,656.04 L 248.62,656.05 L 248.62,656.06 L 248.63,656.07 L 248.63,656.08 L 248.63,656.1 L 248.63,656.11 L 248.64,656.12 L 248.64,656.14 L 248.64,656.15 L 248.64,656.16 C 248.64,656.46 248.38,656.46 248.12,656.46 L 238.36,656.46 C 238.1,656.46 237.84,656.46 237.84,656.16 C 237.84,655.85 238.14,655.85 238.43,655.85 L 248.05,655.85 z"
   id="path3056"
   style="fill:#000000;fill-opacity:1;stroke:#808080;stroke-width:0;stroke-opacity:1" />
<path
   d="M 258.63,667.15 L 258.63,667.16 L 258.63,667.17 L 258.63,667.18 L 258.63,667.19 L 258.63,667.2 L 258.63,667.21 L 258.63,667.22 L 258.63,667.23 L 258.63,667.24 L 258.63,667.25 L 258.63,667.26 L 258.63,667.27 L 258.62,667.28 L 258.62,667.29 L 258.62,667.29 L 258.62,667.3 L 258.62,667.31 L 258.62,667.32 L 258.62,667.33 L 258.62,667.34 L 258.61,667.35 L 258.61,667.36 L 258.61,667.37 L 258.6,667.38 L 258.6,667.39 L 258.59,667.39 L 258.58,667.4 L 258.57,667.4 L 258.57,667.41 L 258.56,667.41 L 258.55,667.42 L 258.55,667.42 L 258.54,667.42 L 258.53,667.42 L 258.53,667.42 L 258.52,667.42 L 258.51,667.42 L 258.51,667.42 L 258.5,667.43 L 258.49,667.43 L 258.48,667.43 L 258.48,667.43 L 258.47,667.43 L 258.46,667.43 L 258.45,667.43 L 258.44,667.43 L 258.43,667.43 L 258.42,667.43 L 258.41,667.43 L 258.4,667.43 L 258.39,667.43 L 258.38,667.43 C 257.7,666.73 256.74,666.73 256.39,666.73 L 256.39,666.39 C 256.61,666.39 257.25,666.39 257.82,666.68 L 257.82,661.03 C 257.82,660.63 257.79,660.5 256.8,660.5 L 256.46,660.5 L 256.46,660.16 C 256.84,660.2 257.79,660.2 258.22,660.2 C 258.66,660.2 259.61,660.2 259.99,660.16 L 259.99,660.5 L 259.64,660.5 C 258.66,660.5 258.63,660.62 258.63,661.03 L 258.63,667.15 z"
   id="path3058"
   style="fill:#000000;fill-opacity:1;stroke:#808080;stroke-width:0;stroke-opacity:1" />
<line
   style="fill:#000000;fill-opacity:1;stroke:#000000;stroke-width:0.33333334;stroke-miterlimit:10.43299961;stroke-dasharray:none;stroke-opacity:1"
   x1="255.42"
   y1="657.69"
   x2="260.88"
   y2="657.69"
   id="line3060" />
<path
   d="M 260.32,649.35 L 260.05,649.35 C 259.99,649.02 259.92,648.54 259.8,648.38 C 259.73,648.29 259.01,648.29 258.77,648.29 L 256.8,648.29 L 257.96,649.42 C 259.66,650.92 260.32,651.51 260.32,652.6 C 260.32,653.84 259.34,654.72 258.01,654.72 C 256.77,654.72 255.96,653.71 255.96,652.74 C 255.96,652.13 256.51,652.13 256.54,652.13 C 256.73,652.13 257.11,652.26 257.11,652.71 C 257.11,652.99 256.92,653.28 256.53,653.28 C 256.45,653.28 256.42,653.28 256.39,653.27 C 256.64,653.98 257.23,654.38 257.86,654.38 C 258.86,654.38 259.33,653.5 259.33,652.6 C 259.33,651.73 258.78,650.87 258.18,650.19 L 256.08,647.86 C 255.96,647.74 255.96,647.71 255.96,647.45 L 260.01,647.45 L 260.32,649.35 z"
   id="path3062"
   style="fill:#000000;fill-opacity:1;stroke:#808080;stroke-width:0;stroke-opacity:1" />
<path
   d="M 270.23,660.42 L 270.18,660.41 L 270.13,660.39 L 270.09,660.38 L 270.04,660.36 L 270,660.35 L 269.96,660.33 L 269.92,660.31 L 269.88,660.29 L 269.85,660.26 L 269.81,660.24 L 269.78,660.22 L 269.75,660.19 L 269.72,660.16 L 269.7,660.14 L 269.67,660.11 L 269.65,660.08 L 269.63,660.05 L 269.61,660.02 L 269.59,659.99 L 269.57,659.96 L 269.55,659.92 L 269.54,659.89 L 269.53,659.86 L 269.52,659.83 L 269.51,659.8 L 269.5,659.76 L 269.49,659.73 L 269.48,659.7 L 269.48,659.67 L 269.48,659.64 L 269.48,659.6 L 269.48,659.57 C 269.48,659.16 269.8,659.02 270.04,659.02 C 270.56,659.02 270.92,659.47 270.92,659.93 C 270.92,660.66 270.1,660.98 269.37,660.98 C 268.32,660.98 267.74,659.95 267.58,659.62 C 267.18,660.92 266.12,660.98 265.81,660.98 C 264.05,660.98 263.12,658.73 263.12,658.35 C 263.12,658.28 263.19,658.2 263.31,658.2 C 263.45,658.2 263.48,658.3 263.52,658.37 C 264.1,660.28 265.26,660.64 265.76,660.64 C 266.53,660.64 266.69,659.92 266.69,659.5 C 266.69,659.13 266.58,658.73 266.38,657.9 C 266.1,656.8 266.03,656.54 265.79,655.54 C 265.53,654.51 265.03,653.57 264.12,653.57 C 264.04,653.57 263.61,653.57 263.24,653.79 C 263.86,653.91 264,654.42 264,654.63 C 264,654.98 263.74,655.18 263.42,655.18 C 263,655.18 262.55,654.82 262.55,654.27 C 262.55,653.55 263.36,653.22 264.1,653.22 C 264.93,653.22 265.52,653.88 265.88,654.58 C 266.15,653.57 267.01,653.22 267.65,653.22 C 269.41,653.22 270.34,655.48 270.34,655.85 C 270.34,655.94 270.27,656.01 270.16,656.01 C 270.01,656.01 269.99,655.92 269.94,655.78 C 269.48,654.27 268.48,653.57 267.7,653.57 C 267.1,653.57 266.77,654.01 266.77,654.72 C 266.77,655.1 266.84,655.37 267.12,656.51 C 267.32,657.3 267.55,658.21 267.72,658.85 C 267.98,659.88 268.56,660.64 269.36,660.64 C 269.39,660.64 269.87,660.64 270.23,660.42 z"
   id="path3064"
   style="fill:#000000;fill-opacity:1;stroke:#808080;stroke-width:0;stroke-opacity:1" />
<path
   d="M 281.96,657.39 L 286.53,657.39 C 286.77,657.39 287.06,657.39 287.06,657.68 C 287.06,657.99 286.79,657.99 286.53,657.99 L 281.96,657.99 L 281.96,662.55 C 281.96,662.79 281.96,663.09 281.67,663.09 C 281.36,663.09 281.36,662.81 281.36,662.55 L 281.36,657.99 L 276.8,657.99 C 276.56,657.99 276.27,657.99 276.27,657.7 C 276.27,657.39 276.54,657.39 276.8,657.39 L 281.36,657.39 L 281.36,652.82 C 281.36,652.58 281.36,652.29 281.65,652.29 C 281.96,652.29 281.96,652.57 281.96,652.82 L 281.96,657.39 z"
   id="path3066"
   style="fill:#000000;fill-opacity:1;stroke:#808080;stroke-width:0;stroke-opacity:1" />
<path
   d="M 298.87,656.06 L 298.56,656.06 C 298.39,654.84 298.25,654.63 298.18,654.53 C 298.09,654.39 296.86,654.39 296.61,654.39 L 293.31,654.39 C 293.93,655.06 295.13,656.28 296.6,657.7 C 297.65,658.7 298.87,659.86 298.87,661.57 C 298.87,663.6 297.25,664.77 295.44,664.77 C 293.55,664.77 292.4,663.1 292.4,661.55 C 292.4,660.88 292.89,660.79 293.1,660.79 C 293.27,660.79 293.79,660.9 293.79,661.5 C 293.79,662.03 293.34,662.19 293.1,662.19 C 293,662.19 292.89,662.17 292.83,662.14 C 293.15,663.6 294.15,664.32 295.2,664.32 C 296.7,664.32 297.68,663.14 297.68,661.57 C 297.68,660.07 296.8,658.78 295.82,657.66 L 292.4,653.79 L 292.4,653.39 L 298.46,653.39 L 298.87,656.06 z"
   id="path3068"
   style="fill:#000000;fill-opacity:1;stroke:#808080;stroke-width:0;stroke-opacity:1" />
</g>  <g
     transform="matrix(2.1213204,2.1213204,2.1213204,-2.1213204,-1688.2137,970.25104)"
     id="content"
     xml:space="preserve"
     style="font-style:normal;font-variant:normal;font-weight:normal;font-stretch:normal;letter-spacing:normal;word-spacing:normal;text-anchor:start;fill:#000000;fill-opacity:1;fill-rule:evenodd;stroke:none;stroke-linecap:butt;stroke-linejoin:miter;stroke-miterlimit:10.43299961;stroke-dasharray:none;stroke-dashoffset:0;stroke-opacity:1">
<path
   d="M 227.96,654.17 L 227.87,654.05 L 227.78,653.93 L 227.68,653.81 L 227.57,653.7 L 227.52,653.65 L 227.46,653.59 L 227.41,653.54 L 227.35,653.49 L 227.29,653.44 L 227.23,653.4 L 227.17,653.35 L 227.11,653.31 L 227.05,653.26 L 226.99,653.23 L 226.92,653.19 L 226.85,653.15 L 226.79,653.12 L 226.72,653.09 L 226.65,653.06 L 226.58,653.03 L 226.51,653.01 L 226.44,652.99 L 226.36,652.97 L 226.29,652.96 L 226.21,652.95 L 226.14,652.94 L 226.06,652.93 L 225.98,652.93 C 225.77,652.93 224.95,652.97 224.69,653.76 C 224.74,653.74 224.83,653.74 224.86,653.74 C 225.38,653.74 225.72,654.19 225.72,654.59 C 225.72,654.98 225.4,655.12 225.14,655.12 C 224.86,655.12 224.26,654.91 224.26,654.07 C 224.26,653.19 225,652.59 225.98,652.59 C 227.7,652.59 229.44,654.17 229.92,656.08 L 231.61,662.8 C 231.63,662.88 231.66,662.99 231.66,663.09 C 231.66,663.35 231.46,663.52 231.2,663.52 C 231.04,663.52 230.68,663.45 230.54,662.93 L 229.27,657.87 C 229.18,657.56 229.18,657.53 229.04,657.34 C 228.7,656.86 228.13,656.27 227.31,656.27 C 226.34,656.27 226.26,657.22 226.26,657.68 C 226.26,658.66 226.72,659.99 227.18,661.23 C 227.38,661.73 227.48,661.97 227.48,662.32 C 227.48,663.04 226.96,663.69 226.12,663.69 C 224.53,663.69 223.9,661.2 223.9,661.06 C 223.9,660.99 223.97,660.9 224.09,660.9 C 224.24,660.9 224.26,660.97 224.33,661.21 C 224.74,662.66 225.4,663.35 226.07,663.35 C 226.22,663.35 226.51,663.35 226.51,662.78 C 226.51,662.33 226.32,661.83 226.07,661.18 C 225.22,658.92 225.22,658.35 225.22,657.94 C 225.22,656.31 226.39,655.93 227.25,655.93 C 227.75,655.93 228.37,656.08 228.98,656.72 L 228.99,656.7 C 228.74,655.69 228.56,655.02 227.96,654.17 z"
   id="path2914"
   style="fill:#000000;fill-opacity:1;stroke-width:0" />
<path
   d="M 248.12,661.63 L 248.17,661.63 L 248.22,661.63 L 248.27,661.63 L 248.29,661.63 L 248.31,661.63 L 248.33,661.63 L 248.36,661.63 L 248.38,661.64 L 248.4,661.64 L 248.42,661.65 L 248.44,661.65 L 248.46,661.66 L 248.48,661.66 L 248.49,661.67 L 248.51,661.68 L 248.53,661.69 L 248.54,661.7 L 248.56,661.71 L 248.57,661.72 L 248.58,661.73 L 248.59,661.75 L 248.6,661.76 L 248.6,661.77 L 248.61,661.77 L 248.61,661.78 L 248.62,661.79 L 248.62,661.8 L 248.62,661.81 L 248.63,661.82 L 248.63,661.83 L 248.63,661.84 L 248.63,661.86 L 248.64,661.87 L 248.64,661.88 L 248.64,661.89 L 248.64,661.91 L 248.64,661.92 C 248.64,662.23 248.35,662.23 248.05,662.23 L 238.43,662.23 C 238.14,662.23 237.84,662.23 237.84,661.92 C 237.84,661.63 238.1,661.63 238.36,661.63 L 248.12,661.63 z"
   id="path2916"
   style="fill:#000000;fill-opacity:1;stroke-width:0" />
<path
   d="M 248.05,658.56 L 248.11,658.56 L 248.16,658.56 L 248.22,658.56 L 248.24,658.57 L 248.27,658.57 L 248.29,658.57 L 248.32,658.57 L 248.34,658.57 L 248.37,658.58 L 248.39,658.58 L 248.41,658.59 L 248.43,658.59 L 248.46,658.6 L 248.48,658.61 L 248.49,658.62 L 248.51,658.63 L 248.53,658.64 L 248.55,658.65 L 248.56,658.66 L 248.58,658.68 L 248.59,658.69 L 248.6,658.71 L 248.6,658.72 L 248.61,658.73 L 248.61,658.74 L 248.62,658.75 L 248.62,658.76 L 248.62,658.77 L 248.63,658.78 L 248.63,658.79 L 248.63,658.8 L 248.63,658.82 L 248.64,658.83 L 248.64,658.84 L 248.64,658.86 L 248.64,658.87 C 248.64,659.16 248.38,659.16 248.12,659.16 L 238.36,659.16 C 238.1,659.16 237.84,659.16 237.84,658.87 C 237.84,658.56 238.14,658.56 238.43,658.56 L 248.05,658.56 z"
   id="path2918"
   style="fill:#000000;fill-opacity:1;stroke-width:0" />
<path
   d="M 265.61,660.06 L 265.63,660.06 L 265.65,660.06 L 265.7,660.06 L 265.75,660.06 L 265.77,660.06 L 265.8,660.07 L 265.82,660.07 L 265.85,660.07 L 265.87,660.07 L 265.89,660.08 L 265.92,660.08 L 265.94,660.09 L 265.96,660.1 L 265.98,660.1 L 266,660.11 L 266.02,660.12 L 266.04,660.13 L 266.06,660.14 L 266.08,660.16 L 266.09,660.17 L 266.11,660.19 L 266.11,660.2 L 266.12,660.21 L 266.13,660.21 L 266.13,660.22 L 266.14,660.23 L 266.14,660.24 L 266.15,660.26 L 266.15,660.27 L 266.16,660.28 L 266.16,660.29 L 266.16,660.3 L 266.17,660.32 L 266.17,660.33 L 266.17,660.34 L 266.17,660.36 L 266.17,660.37 L 266.17,660.39 L 266.17,660.4 C 266.17,660.75 265.85,660.75 265.61,660.75 L 256.22,660.75 C 255.98,660.75 255.66,660.75 255.66,660.4 C 255.66,660.06 255.98,660.06 256.22,660.06 L 265.61,660.06 z"
   id="path2920"
   style="fill:#000000;fill-opacity:1;stroke-width:0" />
<path
   d="M 275.77,663.12 L 275.72,663.11 L 275.68,663.1 L 275.63,663.09 L 275.58,663.07 L 275.54,663.05 L 275.5,663.04 L 275.46,663.02 L 275.42,662.99 L 275.39,662.97 L 275.36,662.95 L 275.32,662.92 L 275.29,662.9 L 275.26,662.87 L 275.24,662.84 L 275.21,662.82 L 275.19,662.79 L 275.17,662.76 L 275.15,662.73 L 275.13,662.69 L 275.11,662.66 L 275.1,662.63 L 275.08,662.6 L 275.07,662.57 L 275.06,662.54 L 275.05,662.5 L 275.04,662.47 L 275.03,662.44 L 275.03,662.41 L 275.02,662.37 L 275.02,662.34 L 275.02,662.31 L 275.02,662.28 C 275.02,661.87 275.35,661.73 275.59,661.73 C 276.1,661.73 276.46,662.18 276.46,662.64 C 276.46,663.36 275.64,663.69 274.91,663.69 C 273.86,663.69 273.28,662.66 273.12,662.33 C 272.73,663.62 271.66,663.69 271.35,663.69 C 269.6,663.69 268.67,661.44 268.67,661.06 C 268.67,660.99 268.73,660.9 268.86,660.9 C 268.99,660.9 269.03,661.01 269.06,661.08 C 269.65,662.99 270.8,663.35 271.3,663.35 C 272.07,663.35 272.23,662.63 272.23,662.21 C 272.23,661.83 272.13,661.44 271.92,660.61 C 271.64,659.51 271.58,659.25 271.33,658.25 C 271.08,657.22 270.58,656.27 269.66,656.27 C 269.58,656.27 269.15,656.27 268.79,656.5 C 269.4,656.62 269.54,657.13 269.54,657.34 C 269.54,657.68 269.29,657.89 268.96,657.89 C 268.55,657.89 268.1,657.53 268.1,656.98 C 268.1,656.26 268.91,655.93 269.65,655.93 C 270.47,655.93 271.06,656.58 271.42,657.29 C 271.7,656.27 272.56,655.93 273.19,655.93 C 274.95,655.93 275.88,658.18 275.88,658.56 C 275.88,658.65 275.81,658.72 275.71,658.72 C 275.55,658.72 275.53,658.63 275.48,658.49 C 275.02,656.98 274.02,656.27 273.24,656.27 C 272.64,656.27 272.32,656.72 272.32,657.43 C 272.32,657.8 272.38,658.08 272.66,659.22 C 272.87,660.01 273.09,660.92 273.26,661.56 C 273.52,662.59 274.11,663.35 274.9,663.35 C 274.93,663.35 275.41,663.35 275.77,663.12 z"
   id="path2922"
   style="fill:#000000;fill-opacity:1;stroke-width:0" />
<path
   d="M 287.51,660.09 L 292.07,660.09 C 292.31,660.09 292.6,660.09 292.6,660.39 C 292.6,660.7 292.33,660.7 292.07,660.7 L 287.51,660.7 L 287.51,665.26 C 287.51,665.5 287.51,665.79 287.21,665.79 C 286.9,665.79 286.9,665.52 286.9,665.26 L 286.9,660.7 L 282.34,660.7 C 282.1,660.7 281.81,660.7 281.81,660.4 C 281.81,660.09 282.08,660.09 282.34,660.09 L 286.9,660.09 L 286.9,655.53 C 286.9,655.29 286.9,655 287.2,655 C 287.51,655 287.51,655.27 287.51,655.53 L 287.51,660.09 z"
   id="path2924"
   style="fill:#000000;fill-opacity:1;stroke-width:0" />
<path
   d="M 299.2,666.17 L 299.21,666.16 L 299.23,666.16 L 299.26,666.15 L 299.28,666.14 L 299.31,666.13 L 299.34,666.12 L 299.38,666.11 L 299.42,666.1 L 299.46,666.08 L 299.5,666.07 L 299.54,666.06 L 299.59,666.05 L 299.63,666.04 L 299.68,666.02 L 299.74,666.01 L 299.79,666 L 299.84,665.99 L 299.9,665.97 L 299.96,665.96 L 300.02,665.95 L 300.08,665.94 L 300.14,665.93 L 300.27,665.91 L 300.39,665.9 L 300.53,665.89 L 300.66,665.88 L 300.73,665.88 L 300.8,665.88 C 302.4,665.88 303.27,666.74 303.77,667.24 C 303.77,667.38 303.77,667.46 303.67,667.46 C 303.65,667.46 303.62,667.46 303.48,667.39 C 302.88,667.14 302.17,666.93 301.31,666.93 C 300.8,666.93 300.02,667 299.18,667.38 C 298.99,667.46 298.95,667.46 298.94,667.46 C 298.85,667.46 298.83,667.45 298.83,667.1 L 298.83,662.11 C 298.83,661.8 298.83,661.71 299.01,661.71 C 299.09,661.71 299.13,661.75 299.21,661.87 C 299.76,662.64 300.52,662.97 301.38,662.97 C 301.98,662.97 303.27,662.59 303.27,659.65 C 303.27,659.09 303.27,658.1 302.76,657.3 C 302.33,656.6 301.66,656.24 300.92,656.24 C 299.78,656.24 298.63,657.03 298.32,658.35 C 298.39,658.34 298.52,658.3 298.59,658.3 C 298.82,658.3 299.25,658.42 299.25,658.96 C 299.25,659.42 298.92,659.61 298.59,659.61 C 298.2,659.61 297.94,659.37 297.94,658.89 C 297.94,657.39 299.13,655.83 300.95,655.83 C 302.72,655.83 304.41,657.36 304.41,659.58 C 304.41,661.64 303.07,663.24 301.4,663.24 C 300.52,663.24 299.78,662.92 299.2,662.3 L 299.2,666.17 z"
   id="path2926"
   style="fill:#000000;fill-opacity:1;stroke-width:0" />
</g>  <g
     transform="matrix(2,0,0,-2,326.26,1798.7816)"
     id="g3820"
     xml:space="preserve"
     style="font-style:normal;font-variant:normal;font-weight:normal;font-stretch:normal;letter-spacing:normal;word-spacing:normal;text-anchor:start;fill:#000000;fill-opacity:1;fill-rule:evenodd;stroke:none;stroke-linecap:butt;stroke-linejoin:miter;stroke-miterlimit:10.43299961;stroke-dasharray:none;stroke-dashoffset:0;stroke-opacity:1">
<path
   d="M 231.59,664.26 L 231.54,664.25 L 231.49,664.23 L 231.45,664.22 L 231.4,664.2 L 231.36,664.19 L 231.32,664.17 L 231.28,664.15 L 231.24,664.13 L 231.21,664.1 L 231.17,664.08 L 231.14,664.06 L 231.11,664.03 L 231.08,664 L 231.06,663.98 L 231.03,663.95 L 231.01,663.92 L 230.99,663.89 L 230.97,663.86 L 230.95,663.83 L 230.93,663.8 L 230.91,663.76 L 230.9,663.73 L 230.89,663.7 L 230.88,663.67 L 230.87,663.64 L 230.86,663.6 L 230.85,663.57 L 230.84,663.54 L 230.84,663.51 L 230.84,663.48 L 230.84,663.44 L 230.84,663.41 C 230.84,663 231.16,662.86 231.4,662.86 C 231.92,662.86 232.28,663.31 232.28,663.77 C 232.28,664.5 231.46,664.82 230.73,664.82 C 229.68,664.82 229.1,663.79 228.94,663.46 C 228.54,664.76 227.48,664.82 227.17,664.82 C 225.41,664.82 224.48,662.57 224.48,662.19 C 224.48,662.12 224.55,662.04 224.67,662.04 C 224.81,662.04 224.84,662.14 224.88,662.21 C 225.46,664.12 226.62,664.48 227.12,664.48 C 227.89,664.48 228.05,663.76 228.05,663.34 C 228.05,662.97 227.94,662.57 227.74,661.74 C 227.46,660.64 227.39,660.38 227.15,659.38 C 226.89,658.35 226.39,657.41 225.48,657.41 C 225.4,657.41 224.96,657.41 224.6,657.63 C 225.22,657.75 225.36,658.27 225.36,658.47 C 225.36,658.82 225.1,659.02 224.77,659.02 C 224.36,659.02 223.91,658.66 223.91,658.11 C 223.91,657.39 224.72,657.06 225.46,657.06 C 226.29,657.06 226.88,657.72 227.24,658.42 C 227.51,657.41 228.37,657.06 229.01,657.06 C 230.77,657.06 231.7,659.32 231.7,659.69 C 231.7,659.78 231.63,659.85 231.52,659.85 C 231.37,659.85 231.35,659.76 231.3,659.63 C 230.84,658.11 229.84,657.41 229.06,657.41 C 228.46,657.41 228.13,657.85 228.13,658.56 C 228.13,658.94 228.2,659.21 228.48,660.35 C 228.68,661.14 228.91,662.05 229.08,662.69 C 229.34,663.72 229.92,664.48 230.71,664.48 C 230.75,664.48 231.23,664.48 231.59,664.26 z"
   id="path3822"
   style="fill:#000000;stroke-width:0" />
</g>  <g
     transform="matrix(2,0,0,-2,-85.620523,1342.54)"
     id="g3965"
     xml:space="preserve"
     style="font-style:normal;font-variant:normal;font-weight:normal;font-stretch:normal;letter-spacing:normal;word-spacing:normal;text-anchor:start;fill:#000000;fill-opacity:1;fill-rule:evenodd;stroke:none;stroke-linecap:butt;stroke-linejoin:miter;stroke-miterlimit:10.43299961;stroke-dasharray:none;stroke-dashoffset:0;stroke-opacity:1">
<path
   d="M 227.96,655.3 L 227.87,655.18 L 227.78,655.06 L 227.68,654.95 L 227.57,654.83 L 227.52,654.78 L 227.46,654.73 L 227.41,654.67 L 227.35,654.62 L 227.29,654.58 L 227.23,654.53 L 227.17,654.48 L 227.11,654.44 L 227.05,654.4 L 226.99,654.36 L 226.92,654.32 L 226.85,654.28 L 226.79,654.25 L 226.72,654.22 L 226.65,654.19 L 226.58,654.17 L 226.51,654.14 L 226.44,654.12 L 226.36,654.11 L 226.29,654.09 L 226.21,654.08 L 226.14,654.07 L 226.06,654.07 L 225.98,654.07 C 225.77,654.07 224.95,654.1 224.69,654.89 C 224.74,654.87 224.83,654.87 224.86,654.87 C 225.38,654.87 225.72,655.32 225.72,655.72 C 225.72,656.11 225.4,656.25 225.14,656.25 C 224.86,656.25 224.26,656.04 224.26,655.2 C 224.26,654.32 225,653.72 225.98,653.72 C 227.7,653.72 229.44,655.3 229.92,657.22 L 231.61,663.93 C 231.63,664.02 231.66,664.12 231.66,664.22 C 231.66,664.48 231.46,664.65 231.2,664.65 C 231.04,664.65 230.68,664.58 230.54,664.07 L 229.27,659.01 C 229.18,658.7 229.18,658.66 229.04,658.47 C 228.7,657.99 228.13,657.41 227.31,657.41 C 226.34,657.41 226.26,658.35 226.26,658.82 C 226.26,659.8 226.72,661.12 227.18,662.36 C 227.38,662.86 227.48,663.1 227.48,663.45 C 227.48,664.17 226.96,664.82 226.12,664.82 C 224.53,664.82 223.9,662.33 223.9,662.19 C 223.9,662.12 223.97,662.04 224.09,662.04 C 224.24,662.04 224.26,662.1 224.33,662.34 C 224.74,663.79 225.4,664.48 226.07,664.48 C 226.22,664.48 226.51,664.48 226.51,663.91 C 226.51,663.46 226.32,662.97 226.07,662.31 C 225.22,660.06 225.22,659.49 225.22,659.08 C 225.22,657.44 226.39,657.06 227.25,657.06 C 227.75,657.06 228.37,657.22 228.98,657.85 L 228.99,657.84 C 228.74,656.82 228.56,656.15 227.96,655.3 z"
   id="path3967"
   style="fill:#000000;stroke-width:0" />
</g></svg>
