<?xml version="1.0" encoding="UTF-8"?>
<svg version="1.1" xmlns="http://www.w3.org/2000/svg" xmlns:xlink="http://www.w3.org/1999/xlink" width="100%" height="100%" viewBox="-273 -666 646 969">
 <title>Quadratic function graph complex roots</title>
 <desc>Visualisation of the complex roots of ''y'' = ''ax''&#178; + ''bx'' + ''c'' where ''a'' is positive and the discriminant, ''b''&#178; - 4''ac'' is negative, by CMG Lee. The parabola is rotated 180&#176; about its vertex (yellow). Its roots are rotated 90&#176; around their mid-point, and the plane is interpreted as the complex plane (green). The example shown has ''a'' = 1, ''b'' = -2 and ''c'' = 5.</desc>
 <defs>
  <filter id="filter_glow">
   <feGaussianBlur in="SourceAlpha" stdDeviation="4" result="blur"/>
   <feColorMatrix in="blur" type="matrix" values="0,0,0,0,1 0,0,0,0,1 0,0,0,0,1 0,0,0,20,0" result="white"/>
   <feBlend in="SourceGraphic" in2="white"/>
  </filter>
  <path id="arrowhead" d="M -10,20 L 0,0 L 10,20"/>
 </defs>
 <g font-family="Helvetica,Arial,sans-serif" font-size="40" text-anchor="middle" stroke="none" fill="none">
  <circle cx="0" cy="0" r="99999"  fill="#ffffff"/>
  <path d="M 100,0 H 0 L 100,-200" fill="#ccff99"/>
  <path d="M 100,0 H 0 L 100, 200" fill="#99ffcc"/>
  <path d="M -200,-1300 Q 100,500 400,-1300" stroke="#000000" stroke-width="2"/>
  <path d="M  100,  500 V -660" stroke="#6699ff" stroke-width="2" stroke-dasharray="55,15,10,15"/>
  <g stroke="#999999">
   <path d="M 0,500 V -660 M -300,0 H 370"/>
   <use xlink:href="#arrowhead" transform="translate(0,-660)"/>
   <use xlink:href="#arrowhead" transform="translate(370,0) rotate(90)"/>
  </g>
  <g stroke="#ff9900">
   <path d="M -200,  500 Q 100,-1300 400,  500" stroke-width="2"/>
  </g>
  <g stroke="#009900">
   <circle cx="100" cy="0" r="200" stroke-width="2" stroke-dasharray="27,10"/>
   <path d="M 100,-200 L 0,0" stroke-width="2"/>
   <path d="M 100, 200 L 0,0" stroke-width="2" stroke-dasharray="50,10"/>
   <use xlink:href="#arrowhead" transform="translate(220,-160) rotate(310)"/>
   <use xlink:href="#arrowhead" transform="translate(-20, 160) rotate(130)"/>
  </g>
  <g filter="url(#filter_glow)">
   <g fill="#999999">
    <text transform="translate( -25,-635)" x="0" y="0"><tspan font-style="italic">y</tspan></text>
    <text transform="translate( -20,  40)" x="0" y="0"><tspan>0</tspan></text>
    <text transform="translate( 355,  40)" x="0" y="0"><tspan font-style="italic">x</tspan></text>
   </g>
   <g fill="#000000">
    <text transform="translate(-160,-580)" x="0" y="0"><tspan font-style="italic">y</tspan
     ><tspan dx="0.2ex">=</tspan><tspan font-style="italic" dx="0.1ex">ax</tspan
     ><tspan dx="0.1ex">&#178;+</tspan><tspan font-style="italic">bx</tspan
     ><tspan>+</tspan><tspan font-style="italic">c</tspan></text>
   </g>
   <g fill="#6699ff">
    <circle cx="100"  cy="-400" r="8"/>
    <circle cx="100"  cy="0"    r="8"/>
    <g transform="translate(15,-360)">
     <text transform="translate(  70, 0)" x="0" y="0"
      ><tspan font-style="italic">b</tspan><tspan x="-0.7ex">_&#8201;__</tspan
      ><tspan x="-10" dy="1em">2</tspan><tspan x="10" font-style="italic">a</tspan></text>
     <text transform="translate( 210, 0)" x="0" y="0"
      ><tspan font-style="italic">b</tspan><tspan dx="0.1ex">&#178;&#8722;4</tspan
      ><tspan font-style="italic">ac</tspan><tspan x="-0.7ex">_&#8201;______</tspan
      ><tspan x="0" dy="1em"><tspan>4</tspan><tspan font-style="italic">a</tspan></tspan></text>
     <text transform="translate(   0,25) scale(1,1.6)" x="0" y="0"
      ><tspan x="10">(</tspan><tspan x="290">)</tspan><tspan x="100" dy="0.3ex">,</tspan></text>
    </g>
    <g transform="translate(105,40)">
     <text transform="translate(  70, 0)" x="0" y="0"
      ><tspan font-style="italic">b</tspan><tspan x="-0.7ex">_&#8201;__</tspan
      ><tspan x="-10" dy="1em">2</tspan><tspan x="10" font-style="italic">a</tspan
      ><tspan x="50" dy="-0.4em">0</tspan></text>
     <text transform="translate(   0,25) scale(1,1.6)" x="0" y="0"
      ><tspan x="10">(</tspan><tspan x="140">)</tspan><tspan x="100" dy="0.3ex">,</tspan></text>
    </g>
   </g>
   <g fill="#ff9900">
    <circle cx="-100" cy="0"    r="8"/>
    <circle cx="300"  cy="0"    r="8"/>
    <g transform="translate(-150,-246)">
     <text transform="translate(0,0)" x="0" y="0"><tspan font-style="italic">y</tspan
      ><tspan dx="0.2ex">=&#8722;</tspan><tspan font-style="italic" dx="0.1ex">ax</tspan
      ><tspan dx="0.1ex">&#178;&#8722;</tspan><tspan font-style="italic">bx</tspan
      ><tspan>&#8722;</tspan><tspan font-style="italic">c</tspan
      ><tspan x="-60" dy="1.5em">&#8722;</tspan></text>
     <text transform="translate(25,40)" x="0" y="0"
      ><tspan font-style="italic">b</tspan><tspan dx="0.1ex">&#178;&#8722;4</tspan
      ><tspan font-style="italic">ac</tspan><tspan x="0">______</tspan
      ><tspan x="0" dy="1em"><tspan>2</tspan><tspan font-style="italic">a</tspan></tspan></text>
    </g>
    <text transform="translate(-140, -50)" x="0" y="0"
     ><tspan>&#8722;</tspan><tspan font-style="italic">b</tspan><tspan dx="0.2ex">&#8722;&#8730;&#8722;(</tspan
     ><tspan font-style="italic">b</tspan><tspan dx="0.1ex">&#178;&#8722;4</tspan
     ><tspan font-style="italic">ac</tspan><tspan>)</tspan><tspan x="0.1ex">____________</tspan
     ><tspan x="2.3ex" dy="-1em">________</tspan
     ><tspan x="0" dy="2em">2</tspan><tspan font-style="italic">a</tspan></text>
    <text transform="translate( 237, -50)" x="0" y="0"
     ><tspan>&#8722;</tspan><tspan font-style="italic">b</tspan><tspan dx="0.2ex">+&#8730;&#8722;(</tspan
     ><tspan font-style="italic">b</tspan><tspan dx="0.1ex">&#178;&#8722;4</tspan
     ><tspan font-style="italic">ac</tspan><tspan>)</tspan><tspan x="0.2ex">____________</tspan
     ><tspan x="2.3ex" dy="-1em">________</tspan
     ><tspan x="0" dy="2em">2</tspan><tspan font-style="italic">a</tspan></text>
   </g>
   <g fill="#009900">
    <circle cx="100"  cy="-200" r="8"/>
    <circle cx="100"  cy="200"  r="8"/>
    <text transform="translate( 150, 250)" x="0" y="0"
     ><tspan>&#8722;</tspan><tspan font-style="italic">b</tspan><tspan dx="0.2ex">&#8722;</tspan
     ><tspan font-style="italic">i</tspan><tspan dx="0.2ex">&#8730;&#8722;(</tspan
     ><tspan font-style="italic">b</tspan><tspan dx="0.1ex">&#178;&#8722;4</tspan
     ><tspan font-style="italic">ac</tspan><tspan>)</tspan><tspan x="0">_____________</tspan
     ><tspan x="2.6ex" dy="-1em">________</tspan
     ><tspan x="0" dy="2em"><tspan>2</tspan><tspan font-style="italic">a</tspan></tspan></text>
    <text transform="translate( 150,-246)" x="0" y="0"
     ><tspan>&#8722;</tspan><tspan font-style="italic">b</tspan><tspan dx="0.2ex">+</tspan
     ><tspan font-style="italic">i</tspan><tspan dx="0.2ex">&#8730;&#8722;(</tspan
     ><tspan font-style="italic">b</tspan><tspan dx="0.1ex">&#178;&#8722;4</tspan
     ><tspan font-style="italic">ac</tspan><tspan>)</tspan><tspan x="0">_____________</tspan
     ><tspan x="2.6ex" dy="-1em">________</tspan
     ><tspan x="0" dy="2em"><tspan>2</tspan><tspan font-style="italic">a</tspan></tspan></text>
   </g>
  </g>
 </g>
</svg>
