<?xml version="1.0" encoding="utf-8" standalone="yes"?>
<svg xmlns="http://www.w3.org/2000/svg" version="1.1" viewBox="-8 -91 110 100">
<title>Graph of ''x''^th root of ''x''</title>
<defs>
	<pattern id="grid" width="20" height="30" patternUnits="userSpaceOnUse">
		<path d="M0,30v-30h20v30h-20" fill="none" stroke="#555" stroke-width=".25"/>
	</pattern>
</defs>
<rect y="-90" width="100" height="90" fill="url(#grid)"/>
<g font-size="5.5" fill="black" text-anchor="left" font-family="New Century Schoolbook">
	<text y="5"><tspan x="-3">0</tspan><tspan x="19">1</tspan><tspan x="39">2</tspan>
	<tspan x="59">3</tspan><tspan x="79">4</tspan><tspan x="97">5</tspan>
	<tspan x="52" dy="2" font-size="12" font-style="italic" fill="red">e</tspan>
	<tspan x="-8" y="-28">0.5</tspan>
	<tspan x="-8" y="-58">1.0</tspan>
	<tspan x="-8" y="-85">1.5</tspan>
	</text>
</g>
<g fill="none">
	<path d="M0,-90v90h100" stroke="black"/>
	<path d="M0,0 H2 Q 2.479,6.726e-05 2.958,-0.0001461 3.665,0.01734 4.373,-0.05741 5.42,-0.02816 6.467,-1.828 8.015,-4.929 9.564,-12.83 11.85,-24.85 14.14,-36.75 17.53,-53.54 20.91,-62.62 25.92,-75.5 30.92,-79.54 38.33,-85.65 45.73,-86.15 56.68,-87.22 67.62,-86.03 83.81,-84.51 100,-82.78" stroke="blue"/>
	<path d="M54.4,-86.7V0" stroke="red" stroke-dasharray="3,3"/>
</g>
</svg>