<svg xmlns="http://www.w3.org/2000/svg" xmlns:xlink="http://www.w3.org/1999/xlink" version="1.1" width="295.999pt" height="112.279pt" viewBox="0 0 295.999 112.279">
<defs>
<path id="font_0_3" d="M.72099307 .3387909C.72099307 .5429535 .56999209 .7050781 .3880005 .7050781 .20899964 .7050781 .055999757 .5449524 .055999757 .3387909 .055999757 .13363648 .20999146-.022460938 .3880005-.022460938 .56999209-.022460938 .72099307 .13664246 .72099307 .3387909M.3889923 .0035247803C.29299928 .0035247803 .15899658 .09159851 .15899658 .35281373 .15899658 .6120148 .30499269 .68006899 .3880005 .68006899 .47499085 .68006899 .6179962 .6090088 .6179962 .35281373 .6179962 .08760071 .48098756 .0035247803 .3889923 .0035247803Z"/>
<path id="font_1_3" d="M.33399964 .30233766C.33999635 .32835389 .36299134 .42037965 .43299867 .42037965 .43798829 .42037965 .46199037 .42037965 .48298646 .40734864 .45498658 .402359 .43499757 .37734986 .43499757 .35334779 .43499757 .33735658 .44599916 .31835938 .47299195 .31835938 .49499513 .31835938 .5269928 .3363495 .5269928 .37635804 .5269928 .42837525 .46798707 .4423828 .43399049 .4423828 .37599183 .4423828 .34098817 .38935853 .32899476 .36634828 .3039856 .43237306 .25 .4423828 .22099304 .4423828 .116989139 .4423828 .05999756 .3133545 .05999756 .28834535 .05999756 .27833558 .069992069 .27833558 .07199097 .27833558 .07998657 .27833558 .08299255 .28033448 .084991458 .28933717 .11898804 .39535523 .18499756 .42037965 .21899414 .42037965 .23799134 .42037965 .272995 .4113617 .272995 .35334779 .272995 .32235719 .2559967 .25532533 .21899414 .11528015 .20298767 .053268434 .16799927 .011245728 .12399292 .011245728 .117996219 .011245728 .09498596 .011245728 .07398987 .024276734 .09899902 .029266358 .12098694 .05027771 .12098694 .07827759 .12098694 .105270389 .09899902 .11328125 .083999637 .11328125 .053985597 .11328125 .0289917 .08728027 .0289917 .055267335 .0289917 .009246826 .07899475-.0107421879 .12298584-.0107421879 .18899536-.0107421879 .22499085 .059280397 .22799683 .0652771 .23999024 .028274537 .27598573-.0107421879 .33599855-.0107421879 .43899537-.0107421879 .49598695 .118270877 .49598695 .14328003 .49598695 .1532898 .4869995 .1532898 .48399354 .1532898 .47499085 .1532898 .47299195 .14929199 .47099305 .14228821 .43798829 .03527832 .36999513 .011245728 .33799745 .011245728 .29899598 .011245728 .2829895 .043273927 .2829895 .07727051 .2829895 .09927368 .2889862 .121276859 .2999878 .16529846L.33399964 .30233766Z"/>
<path id="font_1_4" d="M.48599244 .38136292C.48999024 .39537049 .48999024 .39736939 .48999024 .40437318 .48999024 .42237855 .47599793 .43138124 .46099855 .43138124 .45098878 .43138124 .43499757 .42536927 .42599488 .41036988 .42399598 .405365 .41600038 .37435914 .4119873 .35635377 .40499879 .33035279 .397995 .30334474 .3919983 .27633668L.34700013 .09628296C.34298707 .08126831 .2999878 .011245728 .23399353 .011245728 .18299866 .011245728 .17199707 .055267335 .17199707 .0922699 .17199707 .1382904 .18899536 .20030213 .22299195 .28833009 .23899842 .3293457 .24299622 .3403473 .24299622 .36035157 .24299622 .405365 .21099854 .4423828 .16099549 .4423828 .06599426 .4423828 .0289917 .29733277 .0289917 .28833009 .0289917 .27833558 .038986207 .27833558 .040985109 .27833558 .050994874 .27833558 .051986696 .28033448 .056991579 .29634095 .083999637 .3903656 .12399292 .42037965 .1579895 .42037965 .1659851 .42037965 .18299866 .42037965 .18299866 .3883667 .18299866 .36335755 .17298889 .3373413 .1659851 .31834413 .12599182 .21231079 .10798645 .1552887 .10798645 .10827637 .10798645 .019256592 .17098999-.0107421879 .22999573-.0107421879 .2689972-.0107421879 .30299378 .0062561037 .33099366 .03425598 .31799317-.017745972 .30599977-.06674194 .2659912-.11973572 .23999024-.15385437 .20199585-.18309021 .1559906-.18309021 .14199829-.18309021 .09700012-.18005371 .07998657-.14074707 .09599304-.14074707 .10899353-.14074707 .12298584-.1287384 .1329956-.11973572 .14299011-.10673523 .14299011-.08773804 .14299011-.056747438 .115997318-.052734376 .10598755-.052734376 .08299255-.052734376 .049987794-.068740848 .049987794-.11773682 .049987794-.16796875 .09399414-.20507813 .1559906-.20507813 .25898744-.20507813 .3619995-.11373901 .3899994-.00074768069L.48599244 .38136292Z"/>
<path id="font_0_1" d="M.2939911 .64004519C.2939911 .66400149 .2939911 .6660156 .2709961 .6660156 .20899964 .60227969 .12098694 .60227969 .08898926 .60227969V.57128909C.10899353 .57128909 .16799927 .57128909 .21998596 .5972748V.07902527C.21998596 .042999269 .21699524 .0309906 .1269989 .0309906H.09498596V0C.12998963 .0029907227 .21699524 .0029907227 .25698854 .0029907227 .29699708 .0029907227 .38398744 .0029907227 .4189911 0V.0309906H.3869934C.29699708 .0309906 .2939911 .041992189 .2939911 .07902527V.64004519Z"/>
<path id="font_2_1" d="M.10398865-2.177124C.13598633-2.1751099 .15299988-2.1531068 .15299988-2.1281129 .15299988-2.095108 .12799073-2.0791016 .10499573-2.0791016 .08099365-2.0791016 .055999757-2.0941163 .055999757-2.1291047 .055999757-2.18013 .10598755-2.2221986 .16699219-2.2221986 .31900025-2.2221986 .37599183-1.9880982 .44699098-1.6980591 .5239868-1.382019 .58898928-1.062973 .6429901-.7419281 .6799927-.52890017 .71699526-.32887269 .7509918-.19985962 .7630005-.15084839 .7969971-.022003174 .83599856-.022003174 .86698916-.022003174 .8919983-.040893556 .8959961-.0448761 .86299136-.04685974 .84599307-.068862918 .84599307-.09385681 .84599307-.12686157 .87098696-.14285279 .8939972-.14285279 .91799929-.14285279 .94299319-.1278534 .94299319-.09286499 .94299319-.038909913 .8889923 0 .83399966 0 .7579956 0 .70199587-.1088562 .6469879-.3128662 .6439972-.3238678 .5079956-.825943 .397995-1.4800263 .37199403-1.6330414 .34298707-1.8000641 .30999757-1.9390869 .2919922-2.0121003 .24598694-2.2001954 .16499329-2.2001954 .1289978-2.2001954 .10499573-2.177124 .10398865-2.177124Z"/>
<path id="font_3_1" d="M.46299745 .2263794H.7689972C.7819977 .2263794 .80599978 .2263794 .80599978 .25038148 .80599978 .27539063 .7829895 .27539063 .7689972 .27539063H.46299745V.5821533C.46299745 .59513857 .46299745 .6191406 .43899537 .6191406 .4139862 .6191406 .4139862 .5961304 .4139862 .5821533V.27539063H.10699463C.09399414 .27539063 .069992069 .27539063 .069992069 .25138856 .069992069 .2263794 .09298706 .2263794 .10699463 .2263794H.4139862V-.08114624C.4139862-.09416199 .4139862-.11816406 .43798829-.11816406 .46299745-.11816406 .46299745-.09516907 .46299745-.08114624V.2263794Z"/>
<path id="font_4_2" d="M.5779877 .27427674C.5249939 .3363037 .5089874 .353302 .47099305 .38031007 .4099884 .4243164 .34599305 .4413147 .29100038 .4413147 .16699219 .4413147 .07699585 .33529664 .07699585 .215271 .07699585 .098236087 .16299439-.009765625 .28799439-.009765625 .4269867-.009765625 .5239868 .10424805 .55999758 .15725708 .61299136 .09524536 .6289978 .07823181 .6669922 .051239015 .7279968 .007232666 .7919922-.009765625 .8470001-.009765625 .97099307-.009765625 1.0609894 .09623718 1.0609894 .21626282 1.0609894 .33329774 .97499087 .4413147 .84999087 .4413147 .71099856 .4413147 .6139984 .32730104 .5779877 .27427674M.6100006 .23727417C.6499939 .30229188 .7369995 .4033203 .85899356 .4033203 .96199038 .4033203 1.0329895 .31228639 1.0329895 .21626282 1.0329895 .12025452 .95500186 .04522705 .86299136 .04522705 .769989 .04522705 .70599368 .12124634 .6100006 .23727417M.5279999 .19425965C.48799134 .1292572 .40098573 .02822876 .2789917 .02822876 .17599488 .02822876 .10499573 .11924744 .10499573 .215271 .10499573 .31129457 .18299866 .38630677 .2749939 .38630677 .36799623 .38630677 .43199159 .31028749 .5279999 .19425965Z"/>
<path id="font_4_1" d="M.74398806 .2263794C.7599945 .2263794 .7839966 .2263794 .7839966 .25038148 .7839966 .27539063 .7609863 .27539063 .74398806 .27539063H.147995C.13198853 .27539063 .10798645 .27539063 .10798645 .25138856 .10798645 .2263794 .1309967 .2263794 .147995 .2263794H.74398806Z"/>
<path id="font_1_2" d="M.18699646 .23144531C.21598816 .23144531 .2899933 .23344422 .33999635 .2544403 .4099884 .28442384 .4149933 .34339906 .4149933 .35740663 .4149933 .40138246 .3769989 .4423828 .30799867 .4423828 .19699097 .4423828 .04598999 .34539796 .04598999 .17037964 .04598999 .06829834 .10499573-.0107421879 .20298767-.0107421879 .34599305-.0107421879 .42999269 .095321658 .42999269 .10733032 .42999269 .113342288 .42399598 .12034607 .41799928 .12034607 .41299439 .12034607 .41099549 .11834717 .40499879 .1103363 .32598878 .011245728 .21699524 .011245728 .20498657 .011245728 .1269989 .011245728 .117996219 .095321658 .117996219 .12734986 .117996219 .13935852 .11898804 .17037964 .13398743 .23144531H.18699646M.13999939 .25343324C.1789856 .40538026 .28199769 .42037965 .30799867 .42037965 .35499574 .42037965 .38198854 .39138795 .38198854 .35740663 .38198854 .25343324 .22200012 .25343324 .18099976 .25343324H.13999939Z"/>
<path id="font_5_1" d="M.24899292 .10601807C.23899842 .072021488 .20599365 .018234253 .15499878 .018234253 .1519928 .018234253 .12199402 .018234253 .100997928 .03215027 .14199829 .04508972 .14498902 .08100891 .14498902 .087020877 .14498902 .10900879 .12799073 .12402344 .10499573 .12402344 .07699585 .12402344 .04798889 .10002136 .04798889 .0630188 .04798889 .01322937 .10398865-.009765625 .15299988-.009765625 .19898987-.009765625 .23999024 .019226075 .2649994 .061019899 .2889862 .008224487 .34399415-.009765625 .38398744-.009765625 .49899293-.009765625 .55999758 .11502075 .55999758 .14305115 .55999758 .15608216 .5469971 .15608216 .5439911 .15608216 .5299988 .15608216 .5289917 .15107727 .5249939 .13905335 .5039978 .07002258 .44400025 .018234253 .3880005 .018234253 .34799195 .018234253 .32699586 .04508972 .32699586 .08302307 .32699586 .10900879 .35099793 .20018006 .3789978 .31140138 .39898683 .38841249 .44400025 .4133911 .47698976 .4133911 .47898866 .4133911 .5099945 .4133911 .5309906 .39941407 .49899293 .39041139 .4869995 .3624115 .4869995 .34440614 .4869995 .32240296 .5039978 .30740357 .5269928 .30740357 .5499878 .30740357 .58299258 .32640077 .58299258 .3684082 .58299258 .4243927 .5189972 .44140626 .47898866 .44140626 .42900086 .44140626 .3889923 .4084015 .36698915 .3704071 .34899903 .4113922 .30299378 .44140626 .24699402 .44140626 .1349945 .44140626 .070999149 .31840516 .070999149 .2883606 .070999149 .27534486 .084991458 .27534486 .08799744 .27534486 .100997928 .27534486 .101989749 .27934266 .10699463 .29237367 .13198853 .3704071 .19499207 .4133911 .24398804 .4133911 .2769928 .4133911 .3039856 .395401 .3039856 .3474121 .3039856 .32740785 .2919922 .27734376 .2829895 .24327088L.24899292 .10601807Z"/>
<path id="font_6_1" d="M.58898928 .19296265H.5469971C.5439911 .17396546 .5339966 .11198425 .5179901 .101989749 .5099945 .09599304 .42599488 .09599304 .41099549 .09599304H.21499634C.2809906 .14497376 .35499574 .20095825 .4149933 .24093628 .5049896 .30291749 .58898928 .36090089 .58898928 .46687318 .58898928 .59495547 .46798707 .6660156 .32499696 .6660156 .18998719 .6660156 .09098816 .58795168 .09098816 .48986817 .09098816 .4378662 .1349945 .42886354 .14898682 .42886354 .17599488 .42886354 .20799256 .4468689 .20799256 .48786927 .20799256 .52386477 .18199158 .543869 .15098572 .546875 .1789856 .59194949 .23699951 .6220093 .3039856 .6220093 .40098573 .6220093 .48199464 .5639038 .48199464 .4658661 .48199464 .3818817 .42399598 .31791688 .34700013 .2529297L.102996829 .04598999C.09298706 .036987306 .09199524 .036987306 .09098816 .02999878V0H.55599978L.58898928 .19296265Z"/>
<path id="font_0_4" d="M.37998963 .055252077V-.0107421879L.5269928 .00024414063V.03125C.45700074 .03125 .44898988 .038253786 .44898988 .087265018V.69433596L.30499269 .68333438V.6523285C.375 .6523285 .3829956 .6453247 .3829956 .596344V.38035584C.35398866 .41636659 .31098939 .4423828 .25698854 .4423828 .13899231 .4423828 .033996583 .3443451 .033996583 .21531677 .033996583 .088272098 .13198853-.0107421879 .24598694-.0107421879 .30999757-.0107421879 .35499574 .023254395 .37998963 .055252077M.37998963 .323349V.118270877C.37998963 .1002655 .37998963 .0982666 .36898805 .08126831 .33898927 .0332489 .2939911 .011245728 .25099183 .011245728 .20599365 .011245728 .16999817 .037246705 .1459961 .07527161 .11999512 .11627197 .116989139 .17329407 .116989139 .21430969 .116989139 .25131227 .11898804 .31134034 .147995 .35635377 .16899109 .38735963 .20698548 .42037965 .26098634 .42037965 .29599 .42037965 .33799745 .405365 .36898805 .36035157 .37998963 .34335328 .37998963 .34135438 .37998963 .323349Z"/>
<path id="font_0_2" d="M.68699648 .32714845C.70199587 .32714845 .72099307 .32714845 .72099307 .34713746 .72099307 .36714173 .70199587 .36714173 .6879883 .36714173H.08898926C.07499695 .36714173 .055999757 .36714173 .055999757 .34713746 .055999757 .32714845 .07499695 .32714845 .08999634 .32714845H.68699648M.6879883 .13284302C.70199587 .13284302 .72099307 .13284302 .72099307 .15284729 .72099307 .17285156 .70199587 .17285156 .68699648 .17285156H.08999634C.07499695 .17285156 .055999757 .17285156 .055999757 .15284729 .055999757 .13284302 .07499695 .13284302 .08898926 .13284302H.6879883Z"/>
<path id="font_7_1" d="M.3889923-.8549652 .21299744-.4659729C.20599365-.44996644 .20098877-.44996644 .19799805-.44996644 .19699097-.44996644 .19198609-.44996644 .18099976-.45796205L.085998538-.52996829C.07299805-.53996279 .07299805-.54296877 .07299805-.54597476 .07299805-.55096438 .07598877-.55696108 .08299255-.55696108 .08898926-.55696108 .10598755-.54296877 .116989139-.53497317 .12298584-.52996829 .13798523-.5189667 .14898682-.51097109L.34599305-.9439697C.35299684-.95996096 .35798646-.95996096 .36698915-.95996096 .38198854-.95996096 .3849945-.95396426 .3919983-.9399719L.84599307 .000030517579C.8529968 .014038086 .8529968 .018035889 .8529968 .02003479 .8529968 .030029297 .8450012 .040039064 .83299258 .040039064 .82499697 .040039064 .81799319 .03503418 .80999758 .01902771L.3889923-.8549652Z"/>
<path id="font_1_1" d="M.2649994 .37265016H.37799073C.34498597 .22489929 .33599855 .18196106 .33599855 .11508179 .33599855 .100097659 .33599855 .073150638 .34399415 .03919983 .35398866-.0047454836 .36499024-.0107421879 .37998963-.0107421879 .3999939-.0107421879 .42099 .007247925 .42099 .02722168 .42099 .033218385 .42099 .035202028 .4149933 .049179079 .38598634 .12106323 .38598634 .18595886 .38598634 .21391297 .38598634 .26683045 .3929901 .32073976 .4039917 .37265016H.5179901C.5309906 .37265016 .5669861 .37265016 .5669861 .406662 .5669861 .43066407 .54599 .43066407 .5269928 .43066407H.19198609C.16999817 .43066407 .13198853 .43066407 .08799744 .38365174 .052993776 .34469605 .026992798 .29878236 .026992798 .29379273 .026992798 .29278565 .026992798 .28379823 .038986207 .28379823 .04699707 .28379823 .04899597 .28779603 .054992677 .29577638 .10398865 .37265016 .1619873 .37265016 .18199158 .37265016H.23899842C.20698548 .25186158 .15299988 .13105774 .11099243 .04020691 .102996829 .025222779 .102996829 .023223877 .102996829 .016235352 .102996829-.002746582 .11898804-.0107421879 .13198853-.0107421879 .1619873-.0107421879 .16999817 .017242432 .18199158 .05418396 .19599915 .100097659 .19599915 .10209656 .20899964 .15202332L.2649994 .37265016Z"/>
</defs>
<path transform="matrix(1,0,0,-1,141.832,90.92)" d="M0 56.69362 .71194 56.69533 1.4239 56.66765 2.13585 56.62787 2.84781 56.56557 3.55978 56.47993 4.27173 56.3839 4.98369 56.27058 5.69565 56.13391 6.4076 55.98685 7.11957 55.8164 7.83151 55.63562 8.54347 55.43146 9.25543 55.2152 9.96739 54.9773 10.67935 54.72815 11.39131 54.4617 12.10326 54.17796 12.81522 53.88298 13.52719 53.56549 14.23914 53.23676 14.9511 52.89592 15.66304 52.53864 16.375 52.16493 17.08698 51.7791 17.79892 51.38203 18.51088 50.97371 19.22284 50.54811 19.9348 50.1121 20.64676 49.664 21.3587 49.20465 22.07066 48.73404 22.78262 48.2522 23.49458 47.75824 24.20654 47.25908 24.9185 46.7435 25.63045 46.22186 26.3424 45.69415 27.05438 45.15521 27.76633 44.6111 28.47829 44.0609 29.19023 43.49947 29.9022 42.93285 30.61417 42.36536 31.32611 41.78748 32.03807 41.20355 32.75003 40.61876 33.46199 40.02359 34.17395 39.42842 34.88591 38.83238 35.59785 38.23203 36.30983 37.62474 37.02177 37.01831 37.73373 36.41103 38.4457 35.80463 39.15764 35.19215 39.86961 34.57968 40.58157 33.97325 41.29352 33.36078 42.00548 32.7483 42.71742 32.14102 43.4294 31.53459 44.14136 30.92732 44.8533 30.32695 45.56526 29.72572 46.27724 29.12451 46.98918 28.52933 47.70114 27.93935 48.4131 27.34935 49.12505 26.76543 49.83702 26.1815 50.54897 25.60884 51.26093 25.03615 51.97289 24.46866 52.68483 23.90723 53.3968 23.35184 54.10876 22.80165 54.82071 22.26271 55.53267 21.72377 56.24464 21.19089 56.95659 20.66924 57.66855 20.1476 58.3805 19.6372 59.09245 19.13287 59.80443 18.63373 60.51637 18.14581 61.22833 17.66397 61.94029 17.18732 62.65224 16.7167 63.36421 16.25735 64.07616 15.80406 64.78812 15.36113 65.50008 14.92514 66.21204 14.49434 66.924 14.07391 67.63596 13.6604 68.3479 13.25813 69.05986 12.85501 69.77184 12.4692 70.48378 12.08943 71.19574 11.71571 71.90768 11.34633 72.61966 10.98904 73.33162 10.63782 74.04356 10.29784 74.75552 9.96306 75.46748 9.63953 76.17944 9.32204 76.8914 9.01062 77.60336 8.70439 78.3153 8.4094 79.02727 8.11958 79.73923 7.8419 80.45119 7.57025 81.16315 7.30383 81.87509 7.04257 82.58707 6.79343 83.29903 6.54343 84.01097 6.30553 84.72293 6.07281 85.43488 5.85135 86.14685 5.63075 86.85881 5.42055 87.57076 5.2164 88.28271 5.01828 88.99467 4.81932 89.70663 4.63246 90.4186 4.45079 91.13055 4.27518 91.8425 4.11082 92.55447 3.9404 93.26642 3.78209 93.97838 3.62898 94.69034 3.48105 95.40228 3.33919 96.11426 3.19817 96.82622 3.06754 97.53816 2.93692 98.25012 2.81235 98.9621 2.69296 99.67404 2.57358 100.386 2.46027 101.09795 2.35298 101.8099 2.25092 102.52188 2.15402 103.23383 2.058 103.94579 1.96198 104.65775 1.87634 105.36969 1.79156 106.08167 1.70677 106.79361 1.6272 107.50557 1.55367 108.21753 1.47926 108.92949 1.41179 109.64145 1.34344 110.35341 1.28117 111.06535 1.21887 111.77731 1.16179 112.48929 1.10556 113.20123 1.04846 113.9132 .99742 114.62514 .94638 115.3371 .9014 116.04907 .85555 116.76102 .81056 117.47298 .77077 118.18494 .73097 118.8969 .69724 119.60886 .65744 120.32082 .6237 121.03276 .5891 121.74472 .56055 122.45668 .53374 123.16864 .50519 123.8806 .47836 124.59254 .45242 125.3045 .4282 126.01648 .40483 126.72842 .38322 127.44038 .36159 128.15233 .34169 128.8643 .32265 129.57627 .30536 130.28821 .28806 131.00017 .27162 131.71213 .25606 132.42409 .24133 133.13605 .22751 133.848 .21452 134.55995 .20241 135.27193 .1903 135.98387 .17906 136.69583 .16867 137.40779 .15916 138.11974 .14964 138.83171 .14012 139.54367 .13234 140.25562 .12456 140.96758 .11678 141.67954 .10985 141.73404 0H0-141.73404V.109L-140.30277 .12369-138.87149 .14012-137.44023 .1583-136.00896 .17906-134.5777 .20241-133.14643 .22751-131.71517 .25606-130.28388 .28806-128.85262 .32352-127.42136 .36246-125.99008 .4057-124.55882 .45415-123.12755 .50691-121.69629 .56055-120.26501 .62889-118.83374 .69724-117.40247 .77682-115.9712 .86159-114.53993 .95242-113.10867 1.0545-111.6774 1.16783-110.24614 1.28635-108.81487 1.42303-107.38359 1.56491-105.95233 1.7232-104.52106 1.89365-103.0898 2.0753-101.65852 2.2734-100.22726 2.48882-98.79599 2.71545-97.36473 2.96547-95.93344 3.2319-94.50218 3.52084-93.0709 3.82707-91.63965 4.1558-90.20837 4.50789-88.77711 4.8816-87.34584 5.27869-85.91457 5.70428-84.4833 6.1524-83.05203 6.62819-81.62077 7.13339-80.1895 7.66629-78.75824 8.22772-77.32697 8.8229-75.8957 9.44661-74.46442 10.09888-73.03316 10.78488-71.60188 11.5055-70.17062 12.25378-68.73935 13.03668-67.30809 13.84726-65.87682 14.6985-64.44556 15.57741-63.01428 16.48401-61.58301 17.42609-60.15175 18.39496-58.72047 19.39326-57.28922 20.4253-55.85794 21.4807-54.42668 22.56375-52.9954 23.66934-51.56413 24.79738-50.13286 25.94362-48.7016 27.11147-47.27032 28.29662-45.83907 29.49301-44.4078 30.70067-42.97653 31.92043-41.54527 33.14537-40.11398 34.37032-38.68272 35.60046-37.25145 36.82541-35.82019 38.0443-34.38892 39.2528-32.95766 40.44315-31.52638 41.62312-30.09511 42.77972-28.66383 43.91383-27.23257 45.01941-25.8013 46.09729-24.37004 47.14056-22.93878 48.14406-21.5075 49.10257-20.07625 50.02127-18.64496 50.89413-17.2137 51.71077-15.78242 52.47635-14.35117 53.18573-12.91989 53.83713-11.48863 54.42192-10.05736 54.94875-8.6261 55.4081-7.19481 55.79997-5.76355 56.12265-4.33228 56.37785-2.90102 56.55951-1.46976 56.66765-.03848 56.69362" fill="#0000ff" fill-opacity=".2"/>
<path transform="matrix(1,0,0,-1,141.832,90.92)" stroke-width=".3985" stroke-linecap="butt" stroke-miterlimit="10" stroke-linejoin="miter" fill="none" stroke="#000000" d="M0 0"/>
<use data-text="O" xlink:href="#font_0_3" transform="matrix(9.96264,0,0,-9.96264,130.563,101.246997)"/>
<path transform="matrix(1,0,0,-1,141.832,90.92)" stroke-width=".19925" stroke-linecap="butt" stroke-miterlimit="10" stroke-linejoin="miter" fill="none" stroke="#000000" d="M-141.73404 0H140.04039"/>
<path transform="matrix(1,0,0,-1,281.87239,90.92)" d="M1.69365 0-1.01619 1.35492 0 0-1.01619-1.35492"/>
<use data-text="x" xlink:href="#font_1_3" transform="matrix(9.96264,0,0,-9.96264,286.984,93.063999)"/>
<path transform="matrix(1,0,0,-1,141.832,90.92)" stroke-width=".19925" stroke-linecap="butt" stroke-miterlimit="10" stroke-linejoin="miter" fill="none" stroke="#000000" d="M0-21.2601V76.26007"/>
<path transform="matrix(0,-1,-1,-0,141.832,14.659927)" d="M1.69365 0-1.01619 1.35492 0 0-1.01619-1.35492"/>
<use data-text="y" xlink:href="#font_1_4" transform="matrix(9.96264,0,0,-9.96264,139.211,7.6100008)"/>
<path transform="matrix(1,0,0,-1,141.832,90.92)" stroke-width=".3985" stroke-linecap="butt" stroke-miterlimit="10" stroke-linejoin="miter" fill="none" stroke="#000000" d="M0 56.69362"/>
<use data-text="1" xlink:href="#font_0_1" transform="matrix(9.96264,0,0,-9.96264,133.331,30.706994)"/>
<path transform="matrix(1,0,0,-1,141.832,90.92)" stroke-width=".19925" stroke-linecap="butt" stroke-miterlimit="10" stroke-linejoin="miter" fill="none" stroke="#000000" d="M-141.73404 .109-140.31142 .12369-138.8888 .14012-137.46617 .1583-136.04357 .17819-134.62094 .20154-133.19834 .22664-131.77571 .25519-130.35309 .28632-128.93048 .32092-127.50786 .35985-126.08525 .4031-124.66263 .44981-123.24002 .5026-121.81738 .55968-120.39476 .6237-118.97215 .69118-117.54953 .76471-116.12692 .85036-114.7043 .9412-113.28168 1.04327-111.85907 1.15054-110.43645 1.26991-109.01384 1.40053-107.59122 1.54155-106.16861 1.69466-104.74599 1.8651-103.32336 2.04675-101.90074 2.23967-100.47812 2.44902-99.05551 2.67566-97.63289 2.91962-96.21027 3.18086-94.78766 3.46461-93.36504 3.76479-91.94243 4.08228-90.5198 4.42831-89.0972 4.79683-87.67458 5.18785-86.25195 5.6022-84.82935 6.03908-83.40671 6.50967-81.9841 7.00276-80.56148 7.52441-79.13885 8.0746-77.71625 8.65854-76.29362 9.27101-74.87102 9.91203-73.4484 10.58073-72.02579 11.29008-70.60316 12.02107-69.18054 12.79272-67.75793 13.59207-66.33531 14.41994-64.9127 15.28242-63.49007 16.17776-62.06744 17.10254-60.64484 18.055-59.22221 19.04204-57.7996 20.05676-56.37698 21.09486-54.95438 22.16063-53.53175 23.24976-52.10913 24.36139-50.68652 25.4955-49.2639 26.65211-47.8413 27.81996-46.41867 29.00513-44.99605 30.20152-43.57343 31.41003-42.1508 32.62373-40.7282 33.84781-39.30557 35.06757-37.88297 36.28647-36.46034 37.50015-35.03772 38.70262-33.61511 39.89902-32.19249 41.07813-30.76988 42.2356-29.34726 43.3749-27.92464 44.49258-26.50203 45.57564-25.07939 46.63017-23.65678 47.64491-22.23416 48.62071-20.81155 49.55586-19.38893 50.44603-17.96631 51.28601-16.5437 52.0793-15.12108 52.81114-13.69847 53.49196-12.27585 54.10962-10.85323 54.66586-9.43062 55.15895-8.008 55.58458-6.58539 55.94704-5.16275 56.23598-3.74013 56.45743-2.31752 56.61057-.8949 56.69014 .52768 56.7014 1.9503 56.6391 3.37291 56.50848 4.79553 56.30432 6.21815 56.02663 7.64076 55.68666 9.06339 55.27747 10.486 54.80168 11.90862 54.25755 13.33125 53.65631 14.75386 52.99281 16.17648 52.2722 17.59909 51.49536 19.02171 50.66748 20.44432 49.79462 21.86694 48.86986 23.28957 47.9001 24.71217 46.89662 26.1348 45.84729 27.5574 44.77545 28.98003 43.66383 30.40265 42.53577 31.82526 41.37917 33.2479 40.20526 34.6705 39.01404 36.09312 37.81158 37.51573 36.59875 38.93835 35.379 40.36098 34.1601 41.78358 32.94122 43.2062 31.72147 44.62881 30.51381 46.05144 29.31136 47.47406 28.1262 48.89667 26.9523 50.31929 25.79568 51.7419 24.65552 53.16454 23.53351 54.58714 22.43832 56.00977 21.3665 57.43239 20.31802 58.855 19.30243 60.27762 18.31018 61.70023 17.34648 63.12285 16.41653 64.54547 15.51427 65.96808 14.6414 67.3907 13.80228 68.81331 12.99689 70.23593 12.22005 71.65855 11.47696 73.08118 10.7624 74.5038 10.08244 75.9264 9.43018 77.34903 8.81165 78.77164 8.22166 80.19426 7.66629 81.61688 7.13339 83.03949 6.63426 84.46211 6.1576 85.88472 5.71036 87.30734 5.28993 88.72995 4.89372 90.15257 4.51915 91.57521 4.17311 92.99782 3.84438 94.42044 3.53815 95.84305 3.24922 97.26567 2.98277 98.6883 2.73882 100.1109 2.50612 101.53352 2.2907 102.95613 2.09174 104.37875 1.91093 105.80136 1.74051 107.22398 1.58134 108.6466 1.44034 110.06923 1.30365 111.49185 1.18427 112.91446 1.07094 114.33708 .96887 115.7597 .87285 117.18231 .78806 118.60493 .70848 120.02754 .64015 121.45016 .57266 122.87277 .51643 124.2954 .4628 125.71802 .41435 127.14063 .37024 128.56325 .3313 129.98587 .29497 131.4085 .26297 132.83112 .23355 134.25373 .20761 135.67635 .18423 137.09896 .16348 138.52158 .14445 139.9442 .12715 141.3668 .11244"/>
<path transform="matrix(1,0,0,-1,141.832,90.92)" stroke-width=".19925" stroke-linecap="butt" stroke-miterlimit="10" stroke-linejoin="miter" fill="none" stroke="#929292" d="M21.2601 28.3468 49.6069 49.6069"/>
<path transform="matrix(1,0,0,-1,141.832,90.92)" stroke-width=".3985" stroke-linecap="butt" stroke-miterlimit="10" stroke-linejoin="miter" fill="none" stroke="#ff0000" d="M49.6069 49.6069"/>
<use data-text="&#xfffd;" xlink:href="#font_2_1" transform="matrix(9.96264,0,0,-9.96264,194.95801,30.50599)" fill="#ff0000"/>
<use data-text="+" xlink:href="#font_3_1" transform="matrix(6.97385,0,0,-6.97385,204.92102,32.968996)" fill="#ff0000"/>
<use data-text="&#x221e;" xlink:href="#font_4_2" transform="matrix(6.97385,0,0,-6.97385,211.03702,32.968996)" fill="#ff0000"/>
<use data-text="&#x2212;" xlink:href="#font_4_1" transform="matrix(6.97385,0,0,-6.97385,200.49301,53.143995)" fill="#ff0000"/>
<use data-text="&#x221e;" xlink:href="#font_4_2" transform="matrix(6.97385,0,0,-6.97385,206.72066,53.143995)" fill="#ff0000"/>
<use data-text="e" xlink:href="#font_1_2" transform="matrix(9.96264,0,0,-9.96264,221.13802,44.066995)" fill="#ff0000"/>
<use data-text="&#x2212;" xlink:href="#font_4_1" transform="matrix(6.97385,0,0,-6.97385,225.77602,39.952997)" fill="#ff0000"/>
<use data-text="x" xlink:href="#font_5_1" transform="matrix(6.97385,0,0,-6.97385,232.00302,39.952997)" fill="#ff0000"/>
<use data-text="2" xlink:href="#font_6_1" transform="matrix(4.98132,0,0,-4.98132,236.52101,36.94699)" fill="#ff0000"/>
<use data-text="d" xlink:href="#font_0_4" transform="matrix(9.96264,0,0,-9.96264,242.56801,44.066995)" fill="#ff0000"/>
<use data-text="x" xlink:href="#font_1_3" transform="matrix(9.96264,0,0,-9.96264,248.10202,44.066995)" fill="#ff0000"/>
<use data-text="=" xlink:href="#font_0_2" transform="matrix(9.96264,0,0,-9.96264,256.56404,44.066995)" fill="#ff0000"/>
<use data-text="&#x221a;" xlink:href="#font_7_1" transform="matrix(9.96264,0,0,-9.96264,267.08003,36.40499)" fill="#ff0000"/>
<path transform="matrix(1,0,0,-1,275.38203,36.204996)" stroke-width=".398" stroke-linecap="butt" stroke-miterlimit="10" stroke-linejoin="miter" fill="none" stroke="#ff0000" d="M0 0H6.036"/>
<use data-text="&#x03c0;" xlink:href="#font_1_1" transform="matrix(9.96264,0,0,-9.96264,275.38203,44.066995)" fill="#ff0000"/>
</svg>
