<?xml version="1.0" encoding="UTF-8" standalone="no"?>
<svg
   width="600"
   height="480"
   viewBox="0 0 600 480"
   id="svg3244"
   version="1.1"
   inkscape:version="1.3.2 (091e20e, 2023-11-25, custom)"
   sodipodi:docname="E.svg"
   xmlns:inkscape="http://www.inkscape.org/namespaces/inkscape"
   xmlns:sodipodi="http://sodipodi.sourceforge.net/DTD/sodipodi-0.dtd"
   xmlns:xlink="http://www.w3.org/1999/xlink"
   xmlns="http://www.w3.org/2000/svg"
   xmlns:svg="http://www.w3.org/2000/svg"
   xmlns:rdf="http://www.w3.org/1999/02/22-rdf-syntax-ns#"
   xmlns:cc="http://creativecommons.org/ns#"
   xmlns:dc="http://purl.org/dc/elements/1.1/"
   xmlns:ns7="http://www.iki.fi/pav/software/textext/">
  <sodipodi:namedview
     pagecolor="#ffffff"
     bordercolor="#666666"
     borderopacity="1"
     objecttolerance="10"
     gridtolerance="10"
     guidetolerance="10"
     inkscape:pageopacity="0"
     inkscape:pageshadow="2"
     inkscape:window-width="1920"
     inkscape:window-height="1009"
     id="namedview3386"
     showgrid="false"
     inkscape:zoom="1.0783378"
     inkscape:cx="150.23121"
     inkscape:cy="285.1611"
     inkscape:window-x="1912"
     inkscape:window-y="-8"
     inkscape:window-maximized="1"
     inkscape:current-layer="svg3244"
     inkscape:showpageshadow="2"
     inkscape:pagecheckerboard="0"
     inkscape:deskcolor="#d1d1d1" />
  <metadata
     id="metadata3388">
    <rdf:RDF>
      <cc:Work
         rdf:about="">
        <dc:format>image/svg+xml</dc:format>
        <dc:type
           rdf:resource="http://purl.org/dc/dcmitype/StillImage" />
      </cc:Work>
    </rdf:RDF>
  </metadata>
  <desc
     id="desc3246">Produced by GNUPLOT 4.2 patchlevel 5  </desc>
  <defs
     id="defs3248">
    <inkscape:perspective
       sodipodi:type="inkscape:persp3d"
       inkscape:vp_x="0 : 240 : 1"
       inkscape:vp_y="0 : 1000 : 0"
       inkscape:vp_z="600 : 240 : 1"
       inkscape:persp3d-origin="300 : 160 : 1"
       id="perspective3390" />
    <circle
       id="gpDot"
       r="0.5"
       stroke-width="0.5" />
    <path
       id="gpPt0"
       stroke-width="0.222"
       stroke="currentColor"
       d="M-1,0 h2 M0,-1 v2" />
    <path
       id="gpPt1"
       stroke-width="0.222"
       stroke="currentColor"
       d="M-1,-1 L1,1 M1,-1 L-1,1" />
    <path
       id="gpPt2"
       stroke-width="0.222"
       stroke="currentColor"
       d="M-1,0 L1,0 M0,-1 L0,1 M-1,-1 L1,1 M-1,1 L1,-1" />
    <rect
       id="gpPt3"
       stroke-width="0.222"
       stroke="currentColor"
       x="-1"
       y="-1"
       width="2"
       height="2" />
    <rect
       id="gpPt4"
       stroke-width="0.222"
       stroke="currentColor"
       fill="currentColor"
       x="-1"
       y="-1"
       width="2"
       height="2" />
    <circle
       id="gpPt5"
       stroke-width="0.222"
       stroke="currentColor"
       cx="0"
       cy="0"
       r="1" />
    <use
       xlink:href="#gpPt5"
       id="gpPt6"
       fill="currentColor"
       stroke="none" />
    <path
       id="gpPt7"
       stroke-width="0.222"
       stroke="currentColor"
       d="M0,-1.33 L-1.33,0.67 L1.33,0.67 z" />
    <use
       xlink:href="#gpPt7"
       id="gpPt8"
       fill="currentColor"
       stroke="none" />
    <use
       xlink:href="#gpPt7"
       id="gpPt9"
       stroke="currentColor"
       transform="rotate(180)" />
    <use
       xlink:href="#gpPt9"
       id="gpPt10"
       fill="currentColor"
       stroke="none" />
    <use
       xlink:href="#gpPt3"
       id="gpPt11"
       stroke="currentColor"
       transform="rotate(45)" />
    <use
       xlink:href="#gpPt11"
       id="gpPt12"
       fill="currentColor"
       stroke="none" />
  </defs>
  <g
     style="fill:none; color:white; stroke:currentColor; stroke-width:1.00; stroke-linecap:butt; stroke-linejoin:miter"
     id="g3264" />
  <g
     style="fill:none; color:black; stroke:currentColor; stroke-width:1.00; stroke-linecap:butt; stroke-linejoin:miter"
     id="g3266">
    <path
       d="M70.5,444.0 L79.5,444.0 M579.2,444.0 L570.2,444.0 "
       id="path3268" />
    <g
       transform="translate(62.2,448.5)"
       style="stroke:none; fill:black; font-family:Arial; font-size:12.00pt; text-anchor:end"
       id="g3270">
      <text
         id="text3272"
         style="line-height:0%">-0.5</text>
    </g>
    <path
       d="M70.5,372.8 L79.5,372.8 M579.2,372.8 L570.2,372.8 "
       id="path3274" />
    <g
       transform="translate(62.2,377.3)"
       style="stroke:none; fill:black; font-family:Arial; font-size:12.00pt; text-anchor:end"
       id="g3276">
      <text
         id="text3278"
         style="line-height:0%">0</text>
    </g>
    <path
       d="M70.5,301.5 L79.5,301.5 M579.2,301.5 L570.2,301.5 "
       id="path3280" />
    <g
       transform="translate(62.2,306.0)"
       style="stroke:none; fill:black; font-family:Arial; font-size:12.00pt; text-anchor:end"
       id="g3282">
      <text
         id="text3284"
         style="line-height:0%">0.5</text>
    </g>
    <path
       d="M70.5,230.3 L79.5,230.3 M579.2,230.3 L570.2,230.3 "
       id="path3286" />
    <g
       transform="translate(62.2,234.8)"
       style="stroke:none; fill:black; font-family:Arial; font-size:12.00pt; text-anchor:end"
       id="g3288">
      <text
         id="text3290"
         style="line-height:0%">1</text>
    </g>
    <path
       d="M70.5,159.1 L79.5,159.1 M579.2,159.1 L570.2,159.1 "
       id="path3292" />
    <g
       transform="translate(62.2,163.6)"
       style="stroke:none; fill:black; font-family:Arial; font-size:12.00pt; text-anchor:end"
       id="g3294">
      <text
         id="text3296"
         style="line-height:0%">1.5</text>
    </g>
    <path
       d="M70.5,87.8 L79.5,87.8 M579.2,87.8 L570.2,87.8 "
       id="path3298" />
    <g
       transform="translate(62.2,92.3)"
       style="stroke:none; fill:black; font-family:Arial; font-size:12.00pt; text-anchor:end"
       id="g3300">
      <text
         id="text3302"
         style="line-height:0%">2</text>
    </g>
    <path
       d="M70.5,16.6 L79.5,16.6 M579.2,16.6 L570.2,16.6 "
       id="path3304" />
    <g
       transform="translate(62.2,21.1)"
       style="stroke:none; fill:black; font-family:Arial; font-size:12.00pt; text-anchor:end"
       id="g3306">
      <text
         id="text3308"
         style="line-height:0%">2.5</text>
    </g>
    <path
       d="M121.4,444.0 L121.4,435.0 M121.4,16.6 L121.4,25.6 "
       id="path3310" />
    <g
       transform="translate(121.4,466.5)"
       style="stroke:none; fill:black; font-family:Arial; font-size:12.00pt; text-anchor:middle"
       id="g3312">
      <text
         id="text3314"
         style="line-height:0%">-2</text>
    </g>
    <path
       d="M223.1,444.0 L223.1,435.0 M223.1,16.6 L223.1,25.6 "
       id="path3316" />
    <g
       transform="translate(223.1,466.5)"
       style="stroke:none; fill:black; font-family:Arial; font-size:12.00pt; text-anchor:middle"
       id="g3318">
      <text
         id="text3320"
         style="line-height:0%">-1</text>
    </g>
    <path
       d="M324.9,444.0 L324.9,435.0 M324.9,16.6 L324.9,25.6 "
       id="path3322" />
    <g
       transform="translate(324.9,466.5)"
       style="stroke:none; fill:black; font-family:Arial; font-size:12.00pt; text-anchor:middle"
       id="g3324">
      <text
         id="text3326"
         style="line-height:0%">0</text>
    </g>
    <path
       d="M426.6,444.0 L426.6,435.0 M426.6,16.6 L426.6,25.6 "
       id="path3328" />
    <g
       transform="translate(426.6,466.5)"
       style="stroke:none; fill:black; font-family:Arial; font-size:12.00pt; text-anchor:middle"
       id="g3330">
      <text
         id="text3332"
         style="line-height:0%">1</text>
    </g>
    <path
       d="M528.3,444.0 L528.3,435.0 M528.3,16.6 L528.3,25.6 "
       id="path3334" />
    <g
       transform="translate(528.3,466.5)"
       style="stroke:none; fill:black; font-family:Arial; font-size:12.00pt; text-anchor:middle"
       id="g3336">
      <text
         id="text3338"
         style="line-height:0%">2</text>
    </g>
  </g>
  <g
     style="fill:none; color:gray; stroke:currentColor; stroke-width:1.00; stroke-linecap:butt; stroke-linejoin:miter"
     id="g3340">
    <path
       d="M70.5,372.8 L579.2,372.8 M324.9,444.0 L324.9,16.6 "
       id="path3342" />
  </g>
  <g
     style="fill:none; color:black; stroke:currentColor; stroke-width:1.00; stroke-linecap:butt; stroke-linejoin:miter"
     id="g3344">
    <path
       d="M70.5,16.6 L70.5,444.0 L579.2,444.0 L579.2,16.6 L70.5,16.6 Z "
       id="path3346" />
  </g>
  <g
     style="fill:none; color:red; stroke:currentColor; stroke-width:1.00; stroke-linecap:butt; stroke-linejoin:miter"
     id="g3348" />
  <g
     style="fill:none; color:red; stroke:currentColor; stroke-width:1.00; stroke-linecap:butt; stroke-linejoin:miter"
     id="g3356">
    <g
       style="stroke:none;shape-rendering:crispEdges"
       id="g3358">
      <polygon
         fill="currentColor"
         points="562.6,30.1 520.4,30.1 520.4,39.1 562.6,39.1 "
         id="polygon3360"
         transform="translate(0,4)" />
    </g>
    <path
       d="m 520.4,43.1 h 42.2 v -9 h -42.2 z"
       id="path3362" />
    <g
       style="stroke:none; shape-rendering:crispEdges"
       id="g3364">
      <polygon
         fill="currentColor"
         points="70.5,372.5 70.5,372.5 75.6,372.4 80.8,372.3 85.9,372.2 91.1,372.0 96.2,371.9 101.3,371.6 106.5,371.3 111.6,371.0 116.7,370.6 121.9,370.1 127.0,369.5 132.2,368.8 137.3,368.0 142.4,367.0 147.6,365.9 152.7,364.6 157.9,363.1 163.0,361.4 168.1,359.5 173.3,357.3 178.4,354.8 183.5,352.1 188.7,349.0 193.8,345.6 199.0,341.9 204.1,337.9 209.2,333.6 214.4,328.9 219.5,324.0 224.7,318.8 229.8,313.3 234.9,307.5 240.1,301.6 245.2,295.6 250.3,289.4 255.5,283.3 260.6,277.1 265.8,271.1 270.9,265.2 276.0,259.6 281.2,254.3 286.3,249.3 291.5,244.9 296.6,240.9 301.7,237.5 306.9,234.7 312.0,232.6 317.1,231.1 322.3,230.4 327.4,230.4 332.6,231.1 337.7,232.6 342.8,234.7 348.0,237.5 353.1,240.9 358.2,244.9 363.4,249.3 368.5,254.3 373.7,259.6 378.8,265.2 383.9,271.1 389.1,277.1 394.2,283.3 399.4,289.4 404.5,295.6 409.6,301.6 414.8,307.5 419.9,313.3 425.0,318.8 430.2,324.0 435.3,328.9 440.5,333.6 445.6,337.9 450.7,341.9 455.9,345.6 461.0,349.0 466.2,352.1 471.3,354.8 476.4,357.3 481.6,359.5 486.7,361.4 491.8,363.1 497.0,364.6 502.1,365.9 507.3,367.0 512.4,368.0 517.5,368.8 522.7,369.5 527.8,370.1 533.0,370.6 538.1,371.0 543.2,371.3 548.4,371.6 553.5,371.9 558.6,372.0 563.8,372.2 568.9,372.3 574.1,372.4 579.2,372.5 "
         id="polygon3366" />
    </g>
    <path
       d="M70.5,372.5 L75.6,372.4 L80.8,372.3 L85.9,372.2 L91.1,372.0 L96.2,371.9 L101.3,371.6 L106.5,371.3    L111.6,371.0 L116.7,370.6 L121.9,370.1 L127.0,369.5 L132.2,368.8 L137.3,368.0 L142.4,367.0 L147.6,365.9    L152.7,364.6 L157.9,363.1 L163.0,361.4 L168.1,359.5 L173.3,357.3 L178.4,354.8 L183.5,352.1 L188.7,349.0    L193.8,345.6 L199.0,341.9 L204.1,337.9 L209.2,333.6 L214.4,328.9 L219.5,324.0 L224.7,318.8 L229.8,313.3    L234.9,307.5 L240.1,301.6 L245.2,295.6 L250.3,289.4 L255.5,283.3 L260.6,277.1 L265.8,271.1 L270.9,265.2    L276.0,259.6 L281.2,254.3 L286.3,249.3 L291.5,244.9 L296.6,240.9 L301.7,237.5 L306.9,234.7 L312.0,232.6    L317.1,231.1 L322.3,230.4 L327.4,230.4 L332.6,231.1 L337.7,232.6 L342.8,234.7 L348.0,237.5 L353.1,240.9    L358.2,244.9 L363.4,249.3 L368.5,254.3 L373.7,259.6 L378.8,265.2 L383.9,271.1 L389.1,277.1 L394.2,283.3    L399.4,289.4 L404.5,295.6 L409.6,301.6 L414.8,307.5 L419.9,313.3 L425.0,318.8 L430.2,324.0 L435.3,328.9    L440.5,333.6 L445.6,337.9 L450.7,341.9 L455.9,345.6 L461.0,349.0 L466.2,352.1 L471.3,354.8 L476.4,357.3    L481.6,359.5 L486.7,361.4 L491.8,363.1 L497.0,364.6 L502.1,365.9 L507.3,367.0 L512.4,368.0 L517.5,368.8    L522.7,369.5 L527.8,370.1 L533.0,370.6 L538.1,371.0 L543.2,371.3 L548.4,371.6 L553.5,371.9 L558.6,372.0    L563.8,372.2 L568.9,372.3 L574.1,372.4 L579.2,372.5 "
       id="path3368" />
  </g>
  <g
     style="fill:none; color:green; stroke:currentColor; stroke-width:1.00; stroke-linecap:butt; stroke-linejoin:miter"
     id="g3370" />
  <g
     style="fill:none; color:green; stroke:currentColor; stroke-width:1.00; stroke-linecap:butt; stroke-linejoin:miter"
     id="g3378">
    <path
       d="m 520.4,64.6 h 42.2 m -492.1,307.9 5.1,-0.1 5.2,-0.1 5.1,-0.1 5.2,-0.2 5.1,-0.1 5.1,-0.3 5.2,-0.3 5.1,-0.3 5.1,-0.4 5.2,-0.5 5.1,-0.6 5.2,-0.7 5.1,-0.8 5.1,-1 5.2,-1.1 5.1,-1.3 5.2,-1.5 5.1,-1.7 5.1,-1.9 5.2,-2.2 5.1,-2.5 5.1,-2.7 5.2,-3.1 5.1,-3.4 5.2,-3.7 5.1,-4 5.1,-4.3 5.2,-4.7 5.1,-4.9 5.2,-5.2 5.1,-5.5 5.1,-5.8 5.2,-5.9 5.1,-6 5.1,-6.2 5.2,-6.1 5.1,-6.2 5.2,-6 5.1,-5.9 5.1,-5.6 5.2,-5.3 5.1,-5 5.2,-4.4 5.1,-4 5.1,-3.4 5.2,-2.8 5.1,-2.1 5.1,-1.5 5.2,-0.7 h 5.1 l 5.2,0.7 5.1,1.5 5.1,2.1 5.2,2.8 5.1,3.4 5.1,4 5.2,4.4 5.1,5 5.2,5.3 5.1,5.6 5.1,5.9 5.2,6 5.1,6.2 5.2,6.1 5.1,6.2 5.1,6 5.2,5.9 5.1,5.8 5.1,5.5 5.2,5.2 5.1,4.9 5.2,4.7 5.1,4.3 5.1,4 5.2,3.7 5.1,3.4 5.2,3.1 5.1,2.7 5.1,2.5 5.2,2.2 5.1,1.9 5.1,1.7 5.2,1.5 5.1,1.3 5.2,1.1 5.1,1 5.1,0.8 5.2,0.7 5.1,0.6 5.2,0.5 5.1,0.4 5.1,0.3 5.2,0.3 5.1,0.3 5.1,0.1 5.2,0.2 5.1,0.1 5.2,0.1 5.1,0.1"
       id="path3380"
       style="stroke:#350aff;stroke-width:5;stroke-miterlimit:4;stroke-dasharray:none;stroke-opacity:1"
       sodipodi:nodetypes="cccccccccccccccccccccccccccccccccccccccccccccccccccccccccccccccccccccccccccccccccccccccccccccccccccccc" />
  </g>
  <g
     style="fill:none; color:black; stroke:currentColor; stroke-width:1.00; stroke-linecap:butt; stroke-linejoin:miter"
     id="g3382">
    <path
       d="M70.5,16.6 L70.5,444.0 L579.2,444.0 L579.2,16.6 L70.5,16.6 Z "
       id="path3384" />
  </g>
  <g
     transform="matrix(1.66666,0,0,1.66666,481.98014,53.8867)"
     ns7:version="1.10.2"
     ns7:texconverter="pdflatex"
     ns7:pdfconverter="inkscape"
     ns7:text="$$e^{-x^2}$$"
     ns7:preamble="C:\Users\vinicius.webber.ACRILYS\AppData\Roaming\inkscape\extensions\textext\default_packages.tex"
     ns7:scale="1.25"
     ns7:alignment="middle center"
     ns7:stroke-to-path="0"
     ns7:inkscapeversion="0.47"
     id="g6716"
     ns7:jacobian_sqrt="1.66666">
    <defs
       id="id-bf92a1a7-25c1-4a24-8fcf-9fd1c356c319">
      <g
         id="id-710e7346-56a8-4983-afc3-3e370daea8e9">
        <g
           id="id-887215e4-aeeb-4289-b132-307b0b24f25d">
          <path
             d="m 1.859375,-2.296875 c 0.296875,0 1.03125,-0.03125 1.53125,-0.234375 0.703125,-0.296875 0.75,-0.890625 0.75,-1.03125 0,-0.4375 -0.375,-0.84375 -1.0625,-0.84375 -1.109375,0 -2.625,0.96875 -2.625,2.71875 0,1.015625 0.59375,1.796875 1.578125,1.796875 1.421875,0 2.25,-1.0625 2.25,-1.171875 0,-0.0625 -0.046875,-0.140625 -0.109375,-0.140625 -0.0625,0 -0.078125,0.03125 -0.140625,0.109375 -0.78125,0.984375 -1.875,0.984375 -1.984375,0.984375 -0.78125,0 -0.875,-0.84375 -0.875,-1.15625 0,-0.125 0.015625,-0.421875 0.15625,-1.03125 z m -0.46875,-0.21875 C 1.78125,-4.03125 2.8125,-4.1875 3.078125,-4.1875 c 0.453125,0 0.734375,0.296875 0.734375,0.625 0,1.046875 -1.59375,1.046875 -2.015625,1.046875 z m 0,0"
             id="id-38a6a055-14d5-4a7c-abea-ea4fc8173384" />
        </g>
        <g
           id="id-06fea869-ecb3-4307-ba39-b8de3e5a4518">
          <path
             d="m 5.1875,-1.578125 c 0.109375,0 0.28125,0 0.28125,-0.15625 0,-0.1875 -0.171875,-0.1875 -0.28125,-0.1875 H 1.03125 c -0.109375,0 -0.28125,0 -0.28125,0.171875 0,0.171875 0.15625,0.171875 0.28125,0.171875 z m 0,0"
             id="id-0ecb603f-2299-4c50-8c7b-06019f0f41a9" />
        </g>
        <g
           id="id-f914bd3c-bacf-4f50-8b40-e0322aca92bb">
          <path
             d="M 1.734375,-0.734375 C 1.671875,-0.5 1.4375,-0.125 1.078125,-0.125 c -0.015625,0 -0.234375,0 -0.375,-0.09375 0.28125,-0.09375 0.3125,-0.34375 0.3125,-0.390625 0,-0.15625 -0.125,-0.25 -0.28125,-0.25 -0.203125,0 -0.40625,0.15625 -0.40625,0.421875 0,0.34375 0.390625,0.5 0.734375,0.5 0.328125,0 0.609375,-0.1875 0.78125,-0.484375 C 2.015625,-0.0625 2.390625,0.0625 2.671875,0.0625 c 0.8125,0 1.234375,-0.859375 1.234375,-1.0625 0,-0.09375 -0.09375,-0.09375 -0.109375,-0.09375 -0.109375,0 -0.109375,0.046875 -0.140625,0.125 -0.140625,0.484375 -0.5625,0.84375 -0.953125,0.84375 -0.28125,0 -0.421875,-0.1875 -0.421875,-0.453125 0,-0.1875 0.171875,-0.8125 0.359375,-1.59375 C 2.78125,-2.703125 3.09375,-2.875 3.328125,-2.875 c 0.015625,0 0.21875,0 0.375,0.09375 -0.21875,0.0625 -0.3125,0.265625 -0.3125,0.390625 0,0.140625 0.125,0.25 0.28125,0.25 0.15625,0 0.390625,-0.125 0.390625,-0.421875 0,-0.390625 -0.453125,-0.515625 -0.71875,-0.515625 -0.359375,0 -0.640625,0.234375 -0.78125,0.5 -0.125,-0.28125 -0.453125,-0.5 -0.84375,-0.5 C 0.9375,-3.078125 0.5,-2.21875 0.5,-2 c 0,0.078125 0.09375,0.078125 0.109375,0.078125 0.09375,0 0.09375,-0.015625 0.140625,-0.109375 C 0.921875,-2.578125 1.359375,-2.875 1.703125,-2.875 1.9375,-2.875 2.125,-2.75 2.125,-2.421875 2.125,-2.28125 2.03125,-1.9375 1.96875,-1.6875 Z m 0,0"
             id="id-920654bc-4df2-4d21-8d3f-ab6a1e80da45" />
        </g>
        <g
           id="id-451005dd-7a3f-4c3b-9d94-03b4dd735f4b">
          <path
             d="M 2.9375,-0.96875 H 2.71875 c 0,0.09375 -0.0625,0.40625 -0.140625,0.453125 -0.03125,0.03125 -0.453125,0.03125 -0.53125,0.03125 H 1.078125 C 1.40625,-0.71875 1.765625,-1 2.0625,-1.203125 c 0.453125,-0.3125 0.875,-0.59375 0.875,-1.125 0,-0.640625 -0.609375,-0.984375 -1.3125,-0.984375 -0.671875,0 -1.171875,0.375 -1.171875,0.875 0,0.25 0.21875,0.296875 0.296875,0.296875 0.125,0 0.28125,-0.09375 0.28125,-0.296875 0,-0.171875 -0.125,-0.28125 -0.28125,-0.28125 0.140625,-0.234375 0.4375,-0.375 0.765625,-0.375 0.484375,0 0.890625,0.28125 0.890625,0.765625 0,0.421875 -0.296875,0.75 -0.671875,1.0625 l -1.21875,1.03125 C 0.46875,-0.1875 0.453125,-0.1875 0.453125,-0.15625 V 0 h 2.3125 z m 0,0"
             id="id-d6f59a8b-e943-43ea-8f7c-726a12fb8137" />
        </g>
      </g>
    </defs>
    <g
       fill="#000000"
       fill-opacity="1"
       id="id-df923aeb-1a30-4ecd-9c24-433d1994bec4"
       transform="translate(-296.192,-136.288)">
      <g
         transform="translate(295.739,146.72)"
         id="g5544">
        <path
           d="m 1.859375,-2.296875 c 0.296875,0 1.03125,-0.03125 1.53125,-0.234375 0.703125,-0.296875 0.75,-0.890625 0.75,-1.03125 0,-0.4375 -0.375,-0.84375 -1.0625,-0.84375 -1.109375,0 -2.625,0.96875 -2.625,2.71875 0,1.015625 0.59375,1.796875 1.578125,1.796875 1.421875,0 2.25,-1.0625 2.25,-1.171875 0,-0.0625 -0.046875,-0.140625 -0.109375,-0.140625 -0.0625,0 -0.078125,0.03125 -0.140625,0.109375 -0.78125,0.984375 -1.875,0.984375 -1.984375,0.984375 -0.78125,0 -0.875,-0.84375 -0.875,-1.15625 0,-0.125 0.015625,-0.421875 0.15625,-1.03125 z m -0.46875,-0.21875 C 1.78125,-4.03125 2.8125,-4.1875 3.078125,-4.1875 c 0.453125,0 0.734375,0.296875 0.734375,0.625 0,1.046875 -1.59375,1.046875 -2.015625,1.046875 z m 0,0"
           id="id-20ecdf3a-49c9-4d44-a181-38a9cb685a10" />
      </g>
    </g>
    <g
       fill="#000000"
       fill-opacity="1"
       id="id-d8d06afa-2e37-4ee0-b3b0-0ba346b4bc50"
       transform="translate(-296.192,-136.288)">
      <g
         transform="translate(300.378,142.606)"
         id="g7513">
        <path
           d="m 5.1875,-1.578125 c 0.109375,0 0.28125,0 0.28125,-0.15625 0,-0.1875 -0.171875,-0.1875 -0.28125,-0.1875 H 1.03125 c -0.109375,0 -0.28125,0 -0.28125,0.171875 0,0.171875 0.15625,0.171875 0.28125,0.171875 z m 0,0"
           id="id-c86c7737-0da5-4a3d-b4b5-c420850b3b57" />
      </g>
    </g>
    <g
       fill="#000000"
       fill-opacity="1"
       id="id-a0485f9c-16d9-4bc7-b6f9-29d21a966801"
       transform="translate(-296.192,-136.288)">
      <g
         transform="translate(306.605,142.606)"
         id="g9659">
        <path
           d="M 1.734375,-0.734375 C 1.671875,-0.5 1.4375,-0.125 1.078125,-0.125 c -0.015625,0 -0.234375,0 -0.375,-0.09375 0.28125,-0.09375 0.3125,-0.34375 0.3125,-0.390625 0,-0.15625 -0.125,-0.25 -0.28125,-0.25 -0.203125,0 -0.40625,0.15625 -0.40625,0.421875 0,0.34375 0.390625,0.5 0.734375,0.5 0.328125,0 0.609375,-0.1875 0.78125,-0.484375 C 2.015625,-0.0625 2.390625,0.0625 2.671875,0.0625 c 0.8125,0 1.234375,-0.859375 1.234375,-1.0625 0,-0.09375 -0.09375,-0.09375 -0.109375,-0.09375 -0.109375,0 -0.109375,0.046875 -0.140625,0.125 -0.140625,0.484375 -0.5625,0.84375 -0.953125,0.84375 -0.28125,0 -0.421875,-0.1875 -0.421875,-0.453125 0,-0.1875 0.171875,-0.8125 0.359375,-1.59375 C 2.78125,-2.703125 3.09375,-2.875 3.328125,-2.875 c 0.015625,0 0.21875,0 0.375,0.09375 -0.21875,0.0625 -0.3125,0.265625 -0.3125,0.390625 0,0.140625 0.125,0.25 0.28125,0.25 0.15625,0 0.390625,-0.125 0.390625,-0.421875 0,-0.390625 -0.453125,-0.515625 -0.71875,-0.515625 -0.359375,0 -0.640625,0.234375 -0.78125,0.5 -0.125,-0.28125 -0.453125,-0.5 -0.84375,-0.5 C 0.9375,-3.078125 0.5,-2.21875 0.5,-2 c 0,0.078125 0.09375,0.078125 0.109375,0.078125 0.09375,0 0.09375,-0.015625 0.140625,-0.109375 C 0.921875,-2.578125 1.359375,-2.875 1.703125,-2.875 1.9375,-2.875 2.125,-2.75 2.125,-2.421875 2.125,-2.28125 2.03125,-1.9375 1.96875,-1.6875 Z m 0,0"
           id="id-2b00cba5-a561-433d-ab98-922fdfd71a65" />
      </g>
    </g>
    <g
       fill="#000000"
       fill-opacity="1"
       id="id-a4cc9fc2-e3c9-49fb-8187-5bbca54d0571"
       transform="translate(-296.192,-136.288)">
      <g
         transform="translate(311.122,139.6)"
         id="g8533">
        <path
           d="M 2.9375,-0.96875 H 2.71875 c 0,0.09375 -0.0625,0.40625 -0.140625,0.453125 -0.03125,0.03125 -0.453125,0.03125 -0.53125,0.03125 H 1.078125 C 1.40625,-0.71875 1.765625,-1 2.0625,-1.203125 c 0.453125,-0.3125 0.875,-0.59375 0.875,-1.125 0,-0.640625 -0.609375,-0.984375 -1.3125,-0.984375 -0.671875,0 -1.171875,0.375 -1.171875,0.875 0,0.25 0.21875,0.296875 0.296875,0.296875 0.125,0 0.28125,-0.09375 0.28125,-0.296875 0,-0.171875 -0.125,-0.28125 -0.28125,-0.28125 0.140625,-0.234375 0.4375,-0.375 0.765625,-0.375 0.484375,0 0.890625,0.28125 0.890625,0.765625 0,0.421875 -0.296875,0.75 -0.671875,1.0625 l -1.21875,1.03125 C 0.46875,-0.1875 0.453125,-0.1875 0.453125,-0.15625 V 0 h 2.3125 z m 0,0"
           id="id-40a63c13-df3e-4a42-ac02-743125d9e85d" />
      </g>
    </g>
  </g>
  <g
     transform="matrix(1.66666 0 0 1.66666 429.385 30.2928)"
     ns7:version="1.10.2"
     ns7:texconverter="pdflatex"
     ns7:pdfconverter="inkscape"
     ns7:text="$Area = \\sqrt{\\pi}$"
     ns7:preamble="C:\Users\vinicius.webber.ACRILYS\AppData\Roaming\inkscape\extensions\textext\default_packages.tex"
     ns7:scale="1.25"
     ns7:alignment="middle center"
     ns7:stroke-to-path="0"
     ns7:inkscapeversion="0.47"
     id="g4414"
     ns7:jacobian_sqrt="1.66666">
    <defs
       id="id-fbf621bb-682f-4084-ac54-295b64a3b68c">
      <g
         id="id-00849918-1ecd-46df-8485-df136a21c2c6">
        <g
           id="id-7cf7d669-94e0-415b-8347-97ebe778e61f">
          <path
             d="M 1.78125,-1.140625 C 1.390625,-0.484375 1,-0.34375 0.5625,-0.3125 0.4375,-0.296875 0.34375,-0.296875 0.34375,-0.109375 0.34375,-0.046875 0.40625,0 0.484375,0 0.75,0 1.0625,-0.03125 1.328125,-0.03125 c 0.34375,0 0.6875,0.03125 1,0.03125 0.0625,0 0.1875,0 0.1875,-0.1875 0,-0.109375 -0.078125,-0.125 -0.15625,-0.125 -0.21875,-0.015625 -0.46875,-0.09375 -0.46875,-0.34375 0,-0.125 0.0625,-0.234375 0.140625,-0.375 l 0.765625,-1.265625 h 2.5 c 0.015625,0.203125 0.15625,1.5625 0.15625,1.65625 0,0.296875 -0.515625,0.328125 -0.71875,0.328125 C 4.59375,-0.3125 4.5,-0.3125 4.5,-0.109375 4.5,0 4.609375,0 4.640625,0 5.046875,0 5.46875,-0.03125 5.875,-0.03125 6.125,-0.03125 6.765625,0 7.015625,0 7.0625,0 7.1875,0 7.1875,-0.203125 7.1875,-0.3125 7.09375,-0.3125 6.953125,-0.3125 6.34375,-0.3125 6.34375,-0.375 6.3125,-0.671875 l -0.609375,-6.21875 c -0.015625,-0.203125 -0.015625,-0.25 -0.1875,-0.25 -0.15625,0 -0.203125,0.078125 -0.265625,0.171875 z M 2.984375,-2.609375 4.9375,-5.90625 5.265625,-2.609375 Z m 0,0"
             id="id-5d425ddc-4ea7-47d8-a763-e6ca1e0bcb53" />
        </g>
        <g
           id="id-a1d6001a-2b20-4f48-a835-dba84104d116">
          <path
             d="m 0.875,-0.59375 c -0.03125,0.15625 -0.09375,0.390625 -0.09375,0.4375 0,0.171875 0.140625,0.265625 0.296875,0.265625 0.125,0 0.296875,-0.078125 0.375,-0.28125 C 1.46875,-0.203125 1.796875,-1.5625 1.84375,-1.75 c 0.078125,-0.328125 0.265625,-1.015625 0.3125,-1.296875 0.046875,-0.125 0.328125,-0.59375 0.5625,-0.8125 0.078125,-0.0625 0.375,-0.328125 0.796875,-0.328125 0.265625,0 0.40625,0.125 0.421875,0.125 -0.296875,0.046875 -0.515625,0.28125 -0.515625,0.546875 0,0.15625 0.109375,0.34375 0.375,0.34375 0.265625,0 0.546875,-0.234375 0.546875,-0.59375 0,-0.34375 -0.3125,-0.640625 -0.828125,-0.640625 C 2.875,-4.40625 2.4375,-3.921875 2.25,-3.640625 2.15625,-4.09375 1.796875,-4.40625 1.328125,-4.40625 0.875,-4.40625 0.6875,-4.015625 0.59375,-3.84375 0.421875,-3.5 0.296875,-2.90625 0.296875,-2.875 c 0,0.109375 0.09375,0.109375 0.109375,0.109375 0.109375,0 0.109375,-0.015625 0.171875,-0.234375 0.171875,-0.703125 0.375,-1.1875 0.734375,-1.1875 0.15625,0 0.296875,0.078125 0.296875,0.453125 0,0.21875 -0.03125,0.328125 -0.15625,0.84375 z m 0,0"
             id="id-aa9370d9-18d3-4dc4-82fd-a86f61587258" />
        </g>
        <g
           id="id-ee833378-7b0b-4db7-ae7b-51bd85d151ff">
          <path
             d="m 1.859375,-2.296875 c 0.296875,0 1.03125,-0.03125 1.53125,-0.234375 0.703125,-0.296875 0.75,-0.890625 0.75,-1.03125 0,-0.4375 -0.375,-0.84375 -1.0625,-0.84375 -1.109375,0 -2.625,0.96875 -2.625,2.71875 0,1.015625 0.59375,1.796875 1.578125,1.796875 1.421875,0 2.25,-1.0625 2.25,-1.171875 0,-0.0625 -0.046875,-0.140625 -0.109375,-0.140625 -0.0625,0 -0.078125,0.03125 -0.140625,0.109375 -0.78125,0.984375 -1.875,0.984375 -1.984375,0.984375 -0.78125,0 -0.875,-0.84375 -0.875,-1.15625 0,-0.125 0.015625,-0.421875 0.15625,-1.03125 z m -0.46875,-0.21875 C 1.78125,-4.03125 2.8125,-4.1875 3.078125,-4.1875 c 0.453125,0 0.734375,0.296875 0.734375,0.625 0,1.046875 -1.59375,1.046875 -2.015625,1.046875 z m 0,0"
             id="id-0304aea8-025d-41cf-a5e3-17eb1344cf80" />
        </g>
        <g
           id="id-75f828b6-0b68-45c8-a0e3-5738d515d191">
          <path
             d="M 3.71875,-3.765625 C 3.53125,-4.140625 3.25,-4.40625 2.796875,-4.40625 c -1.15625,0 -2.390625,1.46875 -2.390625,2.921875 0,0.9375 0.546875,1.59375 1.3125,1.59375 0.203125,0 0.703125,-0.046875 1.296875,-0.75 0.078125,0.421875 0.4375,0.75 0.90625,0.75 0.359375,0 0.578125,-0.234375 0.75,-0.546875 0.15625,-0.359375 0.296875,-0.96875 0.296875,-0.984375 0,-0.109375 -0.09375,-0.109375 -0.125,-0.109375 -0.09375,0 -0.109375,0.046875 -0.140625,0.1875 -0.171875,0.640625 -0.34375,1.234375 -0.75,1.234375 -0.28125,0 -0.296875,-0.265625 -0.296875,-0.453125 0,-0.21875 0.015625,-0.3125 0.125,-0.75 C 3.890625,-1.71875 3.90625,-1.828125 4,-2.203125 L 4.359375,-3.59375 c 0.0625,-0.28125 0.0625,-0.296875 0.0625,-0.34375 0,-0.171875 -0.109375,-0.265625 -0.28125,-0.265625 -0.25,0 -0.390625,0.21875 -0.421875,0.4375 z M 3.078125,-1.1875 C 3.015625,-1 3.015625,-0.984375 2.875,-0.8125 2.4375,-0.265625 2.03125,-0.109375 1.75,-0.109375 c -0.5,0 -0.640625,-0.546875 -0.640625,-0.9375 0,-0.5 0.3125,-1.71875 0.546875,-2.1875 0.3125,-0.578125 0.75,-0.953125 1.15625,-0.953125 0.640625,0 0.78125,0.8125 0.78125,0.875 0,0.0625 -0.015625,0.125 -0.03125,0.171875 z m 0,0"
             id="id-16db7a93-4174-48ef-8c5d-0b8701b89812" />
        </g>
        <g
           id="id-f190a216-c75c-4350-bf02-7a4e9012326a">
          <path
             d="m 2.640625,-3.71875 h 1.125 C 3.4375,-2.25 3.34375,-1.8125 3.34375,-1.140625 c 0,0.140625 0,0.40625 0.078125,0.75 0.109375,0.4375 0.21875,0.5 0.359375,0.5 0.203125,0 0.421875,-0.171875 0.421875,-0.375 0,-0.0625 0,-0.078125 -0.0625,-0.21875 -0.296875,-0.71875 -0.296875,-1.375 -0.296875,-1.65625 0,-0.515625 0.078125,-1.0625 0.1875,-1.578125 h 1.125 c 0.140625,0 0.5,0 0.5,-0.34375 0,-0.234375 -0.21875,-0.234375 -0.40625,-0.234375 H 1.90625 c -0.21875,0 -0.59375,0 -1.03125,0.46875 -0.34375,0.390625 -0.609375,0.84375 -0.609375,0.890625 0,0.015625 0,0.109375 0.125,0.109375 0.078125,0 0.09375,-0.046875 0.15625,-0.125 C 1.03125,-3.71875 1.609375,-3.71875 1.8125,-3.71875 H 2.375 C 2.0625,-2.515625 1.53125,-1.3125 1.109375,-0.40625 1.03125,-0.25 1.03125,-0.234375 1.03125,-0.15625 c 0,0.1875 0.15625,0.265625 0.28125,0.265625 0.296875,0 0.375,-0.28125 0.5,-0.640625 C 1.953125,-1 1.953125,-1.015625 2.078125,-1.515625 Z m 0,0"
             id="id-bf19a17b-c2cb-4b15-8cf7-7aad4074a28e" />
        </g>
        <g
           id="id-7a21ae83-cdb5-4d45-a1e8-cd15d1c286b7">
          <path
             d="m 6.84375,-3.265625 c 0.15625,0 0.34375,0 0.34375,-0.1875 C 7.1875,-3.65625 7,-3.65625 6.859375,-3.65625 h -5.96875 c -0.140625,0 -0.328125,0 -0.328125,0.203125 0,0.1875 0.1875,0.1875 0.328125,0.1875 z m 0.015625,1.9375 c 0.140625,0 0.328125,0 0.328125,-0.203125 0,-0.1875 -0.1875,-0.1875 -0.34375,-0.1875 H 0.890625 c -0.140625,0 -0.328125,0 -0.328125,0.1875 0,0.203125 0.1875,0.203125 0.328125,0.203125 z m 0,0"
             id="id-c3546aa3-a2d8-45b5-bc5f-6d9b19471513" />
        </g>
        <g
           id="id-d5ca7f18-45a9-4c7c-acbd-d3713a092cfa">
          <path
             d="m 3.875,8.515625 -1.75,-3.875 C 2.046875,4.484375 2,4.484375 1.96875,4.484375 c 0,0 -0.0625,0 -0.171875,0.078125 l -0.9375,0.71875 c -0.125,0.109375 -0.125,0.125 -0.125,0.15625 0,0.0625 0.015625,0.109375 0.09375,0.109375 0.0625,0 0.234375,-0.140625 0.34375,-0.21875 C 1.21875,5.28125 1.375,5.171875 1.484375,5.09375 l 1.96875,4.3125 C 3.515625,9.5625 3.5625,9.5625 3.65625,9.5625 c 0.15625,0 0.1875,-0.046875 0.25,-0.1875 L 8.4375,0 C 8.5,-0.140625 8.5,-0.171875 8.5,-0.203125 8.5,-0.296875 8.421875,-0.40625 8.296875,-0.40625 c -0.078125,0 -0.140625,0.0625 -0.21875,0.21875 z m 0,0"
             id="id-fe6e7d45-0369-43fc-973b-38e720da1c6f" />
        </g>
      </g>
    </defs>
    <g
       fill="#000000"
       fill-opacity="1"
       id="id-d9409954-d2e6-4939-863b-3bdc9b048897"
       transform="translate(-149.056,-127.183)">
      <g
         transform="translate(148.712,134.765)"
         id="g5049">
        <path
           d="M 1.78125,-1.140625 C 1.390625,-0.484375 1,-0.34375 0.5625,-0.3125 0.4375,-0.296875 0.34375,-0.296875 0.34375,-0.109375 0.34375,-0.046875 0.40625,0 0.484375,0 0.75,0 1.0625,-0.03125 1.328125,-0.03125 c 0.34375,0 0.6875,0.03125 1,0.03125 0.0625,0 0.1875,0 0.1875,-0.1875 0,-0.109375 -0.078125,-0.125 -0.15625,-0.125 -0.21875,-0.015625 -0.46875,-0.09375 -0.46875,-0.34375 0,-0.125 0.0625,-0.234375 0.140625,-0.375 l 0.765625,-1.265625 h 2.5 c 0.015625,0.203125 0.15625,1.5625 0.15625,1.65625 0,0.296875 -0.515625,0.328125 -0.71875,0.328125 C 4.59375,-0.3125 4.5,-0.3125 4.5,-0.109375 4.5,0 4.609375,0 4.640625,0 5.046875,0 5.46875,-0.03125 5.875,-0.03125 6.125,-0.03125 6.765625,0 7.015625,0 7.0625,0 7.1875,0 7.1875,-0.203125 7.1875,-0.3125 7.09375,-0.3125 6.953125,-0.3125 6.34375,-0.3125 6.34375,-0.375 6.3125,-0.671875 l -0.609375,-6.21875 c -0.015625,-0.203125 -0.015625,-0.25 -0.1875,-0.25 -0.15625,0 -0.203125,0.078125 -0.265625,0.171875 z M 2.984375,-2.609375 4.9375,-5.90625 5.265625,-2.609375 Z m 0,0"
           id="id-4219d336-82bf-4536-9477-c0ef4debd3e7" />
      </g>
      <g
         transform="translate(156.184,134.765)"
         id="g4446">
        <path
           d="m 0.875,-0.59375 c -0.03125,0.15625 -0.09375,0.390625 -0.09375,0.4375 0,0.171875 0.140625,0.265625 0.296875,0.265625 0.125,0 0.296875,-0.078125 0.375,-0.28125 C 1.46875,-0.203125 1.796875,-1.5625 1.84375,-1.75 c 0.078125,-0.328125 0.265625,-1.015625 0.3125,-1.296875 0.046875,-0.125 0.328125,-0.59375 0.5625,-0.8125 0.078125,-0.0625 0.375,-0.328125 0.796875,-0.328125 0.265625,0 0.40625,0.125 0.421875,0.125 -0.296875,0.046875 -0.515625,0.28125 -0.515625,0.546875 0,0.15625 0.109375,0.34375 0.375,0.34375 0.265625,0 0.546875,-0.234375 0.546875,-0.59375 0,-0.34375 -0.3125,-0.640625 -0.828125,-0.640625 C 2.875,-4.40625 2.4375,-3.921875 2.25,-3.640625 2.15625,-4.09375 1.796875,-4.40625 1.328125,-4.40625 0.875,-4.40625 0.6875,-4.015625 0.59375,-3.84375 0.421875,-3.5 0.296875,-2.90625 0.296875,-2.875 c 0,0.109375 0.09375,0.109375 0.109375,0.109375 0.109375,0 0.109375,-0.015625 0.171875,-0.234375 0.171875,-0.703125 0.375,-1.1875 0.734375,-1.1875 0.15625,0 0.296875,0.078125 0.296875,0.453125 0,0.21875 -0.03125,0.328125 -0.15625,0.84375 z m 0,0"
           id="id-14b8b07f-33d7-4d8b-a5c1-8d14ca48c1a1" />
      </g>
    </g>
    <g
       fill="#000000"
       fill-opacity="1"
       id="id-c4d1a050-65a2-45cb-81a8-9f92544f67f8"
       transform="translate(-149.056,-127.183)">
      <g
         transform="translate(160.958,134.765)"
         id="g2731">
        <path
           d="m 1.859375,-2.296875 c 0.296875,0 1.03125,-0.03125 1.53125,-0.234375 0.703125,-0.296875 0.75,-0.890625 0.75,-1.03125 0,-0.4375 -0.375,-0.84375 -1.0625,-0.84375 -1.109375,0 -2.625,0.96875 -2.625,2.71875 0,1.015625 0.59375,1.796875 1.578125,1.796875 1.421875,0 2.25,-1.0625 2.25,-1.171875 0,-0.0625 -0.046875,-0.140625 -0.109375,-0.140625 -0.0625,0 -0.078125,0.03125 -0.140625,0.109375 -0.78125,0.984375 -1.875,0.984375 -1.984375,0.984375 -0.78125,0 -0.875,-0.84375 -0.875,-1.15625 0,-0.125 0.015625,-0.421875 0.15625,-1.03125 z m -0.46875,-0.21875 C 1.78125,-4.03125 2.8125,-4.1875 3.078125,-4.1875 c 0.453125,0 0.734375,0.296875 0.734375,0.625 0,1.046875 -1.59375,1.046875 -2.015625,1.046875 z m 0,0"
           id="id-ef263cc0-7fac-4b1f-a036-348e9bf4b72f" />
      </g>
      <g
         transform="translate(165.597,134.765)"
         id="g5975">
        <path
           d="M 3.71875,-3.765625 C 3.53125,-4.140625 3.25,-4.40625 2.796875,-4.40625 c -1.15625,0 -2.390625,1.46875 -2.390625,2.921875 0,0.9375 0.546875,1.59375 1.3125,1.59375 0.203125,0 0.703125,-0.046875 1.296875,-0.75 0.078125,0.421875 0.4375,0.75 0.90625,0.75 0.359375,0 0.578125,-0.234375 0.75,-0.546875 0.15625,-0.359375 0.296875,-0.96875 0.296875,-0.984375 0,-0.109375 -0.09375,-0.109375 -0.125,-0.109375 -0.09375,0 -0.109375,0.046875 -0.140625,0.1875 -0.171875,0.640625 -0.34375,1.234375 -0.75,1.234375 -0.28125,0 -0.296875,-0.265625 -0.296875,-0.453125 0,-0.21875 0.015625,-0.3125 0.125,-0.75 C 3.890625,-1.71875 3.90625,-1.828125 4,-2.203125 L 4.359375,-3.59375 c 0.0625,-0.28125 0.0625,-0.296875 0.0625,-0.34375 0,-0.171875 -0.109375,-0.265625 -0.28125,-0.265625 -0.25,0 -0.390625,0.21875 -0.421875,0.4375 z M 3.078125,-1.1875 C 3.015625,-1 3.015625,-0.984375 2.875,-0.8125 2.4375,-0.265625 2.03125,-0.109375 1.75,-0.109375 c -0.5,0 -0.640625,-0.546875 -0.640625,-0.9375 0,-0.5 0.3125,-1.71875 0.546875,-2.1875 0.3125,-0.578125 0.75,-0.953125 1.15625,-0.953125 0.640625,0 0.78125,0.8125 0.78125,0.875 0,0.0625 -0.015625,0.125 -0.03125,0.171875 z m 0,0"
           id="id-06fced58-b47d-454b-827b-66e4ba8237b6" />
      </g>
    </g>
    <g
       fill="#000000"
       fill-opacity="1"
       id="id-1ac89f2c-9cbb-4c1a-9047-2680ae09fce0"
       transform="translate(-149.056,-127.183)">
      <g
         transform="translate(173.628,134.765)"
         id="g1338">
        <path
           d="m 6.84375,-3.265625 c 0.15625,0 0.34375,0 0.34375,-0.1875 C 7.1875,-3.65625 7,-3.65625 6.859375,-3.65625 h -5.96875 c -0.140625,0 -0.328125,0 -0.328125,0.203125 0,0.1875 0.1875,0.1875 0.328125,0.1875 z m 0.015625,1.9375 c 0.140625,0 0.328125,0 0.328125,-0.203125 0,-0.1875 -0.1875,-0.1875 -0.34375,-0.1875 H 0.890625 c -0.140625,0 -0.328125,0 -0.328125,0.1875 0,0.203125 0.1875,0.203125 0.328125,0.203125 z m 0,0"
           id="id-ff1270dd-f3e2-42a3-bd90-5ec1a62a7871" />
      </g>
    </g>
    <g
       fill="#000000"
       fill-opacity="1"
       id="id-8ed19ae5-b324-44eb-abb5-9951b8fd2e54"
       transform="translate(-149.056,-127.183)">
      <g
         transform="translate(184.144,127.589)"
         id="g751">
        <path
           d="m 3.875,8.515625 -1.75,-3.875 C 2.046875,4.484375 2,4.484375 1.96875,4.484375 c 0,0 -0.0625,0 -0.171875,0.078125 l -0.9375,0.71875 c -0.125,0.109375 -0.125,0.125 -0.125,0.15625 0,0.0625 0.015625,0.109375 0.09375,0.109375 0.0625,0 0.234375,-0.140625 0.34375,-0.21875 C 1.21875,5.28125 1.375,5.171875 1.484375,5.09375 l 1.96875,4.3125 C 3.515625,9.5625 3.5625,9.5625 3.65625,9.5625 c 0.15625,0 0.1875,-0.046875 0.25,-0.1875 L 8.4375,0 C 8.5,-0.140625 8.5,-0.171875 8.5,-0.203125 8.5,-0.296875 8.421875,-0.40625 8.296875,-0.40625 c -0.078125,0 -0.140625,0.0625 -0.21875,0.21875 z m 0,0"
           id="id-fe36c089-52d1-4c18-b633-98b6f8a18d07" />
      </g>
    </g>
    <path
       fill="none"
       stroke-width="0.398"
       stroke-linecap="butt"
       stroke-linejoin="miter"
       stroke="#000000"
       stroke-opacity="1"
       stroke-miterlimit="10"
       d="m 43.389557,0.20787811 h 6.035156"
       id="id-74c50cae-c660-4409-b8cf-3432044ea433" />
    <g
       fill="#000000"
       fill-opacity="1"
       id="id-02deca27-f086-4c78-ae6b-d65ff8aca194"
       transform="translate(-149.056,-127.183)">
      <g
         transform="translate(192.446,134.765)"
         id="g3137">
        <path
           d="m 2.640625,-3.71875 h 1.125 C 3.4375,-2.25 3.34375,-1.8125 3.34375,-1.140625 c 0,0.140625 0,0.40625 0.078125,0.75 0.109375,0.4375 0.21875,0.5 0.359375,0.5 0.203125,0 0.421875,-0.171875 0.421875,-0.375 0,-0.0625 0,-0.078125 -0.0625,-0.21875 -0.296875,-0.71875 -0.296875,-1.375 -0.296875,-1.65625 0,-0.515625 0.078125,-1.0625 0.1875,-1.578125 h 1.125 c 0.140625,0 0.5,0 0.5,-0.34375 0,-0.234375 -0.21875,-0.234375 -0.40625,-0.234375 H 1.90625 c -0.21875,0 -0.59375,0 -1.03125,0.46875 -0.34375,0.390625 -0.609375,0.84375 -0.609375,0.890625 0,0.015625 0,0.109375 0.125,0.109375 0.078125,0 0.09375,-0.046875 0.15625,-0.125 C 1.03125,-3.71875 1.609375,-3.71875 1.8125,-3.71875 H 2.375 C 2.0625,-2.515625 1.53125,-1.3125 1.109375,-0.40625 1.03125,-0.25 1.03125,-0.234375 1.03125,-0.15625 c 0,0.1875 0.15625,0.265625 0.28125,0.265625 0.296875,0 0.375,-0.28125 0.5,-0.640625 C 1.953125,-1 1.953125,-1.015625 2.078125,-1.515625 Z m 0,0"
           id="id-30fe0505-9b1a-4ebc-be43-12d661056c7b" />
      </g>
    </g>
  </g>
</svg>
