<?xml version="1.0" encoding="UTF-8" standalone="no"?>
<!-- Created with Inkscape (http://www.inkscape.org/) -->

<svg
   xmlns:dc="http://purl.org/dc/elements/1.1/"
   xmlns:cc="http://creativecommons.org/ns#"
   xmlns:rdf="http://www.w3.org/1999/02/22-rdf-syntax-ns#"
   xmlns:svg="http://www.w3.org/2000/svg"
   xmlns="http://www.w3.org/2000/svg"
   xmlns:sodipodi="http://sodipodi.sourceforge.net/DTD/sodipodi-0.dtd"
   xmlns:inkscape="http://www.inkscape.org/namespaces/inkscape"
   width="914.63794"
   height="868.62952"
   id="svg2"
   sodipodi:version="0.32"
   inkscape:version="0.48.5 r10040"
   sodipodi:docname="Mri_scanner_schematic_labelled.svg"
   version="1.0">
  <defs
     id="defs4" />
  <sodipodi:namedview
     id="base"
     pagecolor="#ffffff"
     bordercolor="#666666"
     borderopacity="1.0"
     inkscape:pageopacity="0.0"
     inkscape:pageshadow="2"
     inkscape:zoom="1.0418718"
     inkscape:cx="499.48611"
     inkscape:cy="474.50938"
     inkscape:document-units="px"
     inkscape:current-layer="layer1"
     showgrid="true"
     inkscape:window-width="1442"
     inkscape:window-height="1080"
     inkscape:window-x="86"
     inkscape:window-y="91"
     gridtolerance="2.4px"
     showguides="true"
     inkscape:guide-bbox="true"
     inkscape:window-maximized="0"
     fit-margin-top="15"
     fit-margin-left="15"
     fit-margin-bottom="15"
     fit-margin-right="15">
    <inkscape:grid
       id="GridFromPre046Settings"
       type="xygrid"
       originx="47.697871mm"
       originy="-58.755317mm"
       spacingx="2.5mm"
       spacingy="2.5mm"
       color="#3f3fff"
       empcolor="#3f3fff"
       opacity="0.15"
       empopacity="0.38"
       empspacing="5"
       units="mm"
       visible="true"
       enabled="true"
       snapvisiblegridlinesonly="true" />
  </sodipodi:namedview>
  <metadata
     id="metadata7">
    <rdf:RDF>
      <cc:Work
         rdf:about="">
        <dc:format>image/svg+xml</dc:format>
        <dc:type
           rdf:resource="http://purl.org/dc/dcmitype/StillImage" />
      </cc:Work>
    </rdf:RDF>
  </metadata>
  <g
     inkscape:label="Layer 1"
     inkscape:groupmode="layer"
     id="layer1"
     transform="translate(169.00821,24.455392)">
    <rect
       style="fill:#99f0c0;fill-opacity:1;stroke:#000000;stroke-width:0.60236222;stroke-miterlimit:4;stroke-opacity:1;stroke-dasharray:none;stroke-dashoffset:0"
       id="rect1400"
       width="338.82874"
       height="22.588581"
       x="165.79134"
       y="737.52966" />
    <rect
       style="fill:#b4f8f8;fill-opacity:1;stroke:#000000;stroke-width:0.60236222;stroke-miterlimit:4;stroke-opacity:1;stroke-dasharray:none;stroke-dashoffset:0"
       id="rect1406"
       width="338.82874"
       height="52.706692"
       x="165.79134"
       y="534.53363" />
    <path
       style="fill:none;stroke:#000000;stroke-width:0.87237155px;stroke-linecap:butt;stroke-linejoin:miter;stroke-opacity:1"
       d="m 119.56127,460.08707 36.82867,0 0,-317.2436 377.84932,0.6331 0,317.2436 36.65781,-0.6331"
       id="path1309"
       sodipodi:nodetypes="cccccc"
       inkscape:connector-curvature="0" />
    <path
       sodipodi:type="arc"
       style="fill:#d5d2d2;fill-opacity:1;stroke:#000000;stroke-width:0.70866144;stroke-miterlimit:4;stroke-opacity:1;stroke-dasharray:none;stroke-dashoffset:0"
       id="path2232"
       sodipodi:cx="442.64883"
       sodipodi:cy="343.13409"
       sodipodi:rx="176.77669"
       sodipodi:ry="176.77669"
       d="m 619.42552,343.13409 c 0,97.63107 -79.14562,176.77669 -176.77669,176.77669 -97.63106,0 -176.77668,-79.14562 -176.77668,-176.77669 0,-97.63106 79.14562,-176.77668 176.77668,-176.77668 97.63107,0 176.77669,79.14562 176.77669,176.77668 z"
       transform="matrix(0.85,0,0,0.85,-31.46514,17.4056)" />
    <path
       sodipodi:type="arc"
       style="fill:#b4f8f8;fill-opacity:1;stroke:#000000;stroke-width:0.70866144;stroke-miterlimit:4;stroke-opacity:1;stroke-dasharray:none;stroke-dashoffset:0"
       id="path2234"
       sodipodi:cx="442.64883"
       sodipodi:cy="343.84119"
       sodipodi:rx="168.29141"
       sodipodi:ry="168.29141"
       d="m 610.94025,343.84119 c 0,92.94478 -75.34664,168.29141 -168.29142,168.29141 -92.94478,0 -168.29141,-75.34663 -168.29141,-168.29141 0,-92.94478 75.34663,-168.29142 168.29141,-168.29142 92.94478,0 168.29142,75.34664 168.29142,168.29142 z"
       transform="matrix(0.85,0,0,0.85,-31.46514,17.4056)" />
    <path
       sodipodi:type="arc"
       style="fill:#d5d2d2;fill-opacity:1;stroke:#000000;stroke-width:0.70866144;stroke-miterlimit:4;stroke-opacity:1;stroke-dasharray:none;stroke-dashoffset:0"
       id="path2238"
       sodipodi:cx="443.35596"
       sodipodi:cy="343.13409"
       sodipodi:rx="106.06602"
       sodipodi:ry="106.06602"
       d="m 549.42197,343.13409 c 0,58.57865 -47.48737,106.06602 -106.06601,106.06602 -58.57865,0 -106.06602,-47.48737 -106.06602,-106.06602 0,-58.57864 47.48737,-106.06601 106.06602,-106.06601 58.57864,0 106.06601,47.48737 106.06601,106.06601 z"
       transform="matrix(0.85,0,0,0.85,-31.46514,17.4056)" />
    <path
       sodipodi:type="arc"
       style="fill:#99f0c0;fill-opacity:1;stroke:#000000;stroke-width:0.70866144;stroke-miterlimit:4;stroke-opacity:1;stroke-dasharray:none;stroke-dashoffset:0"
       id="path2240"
       sodipodi:cx="443.35596"
       sodipodi:cy="343.84119"
       sodipodi:rx="97.580734"
       sodipodi:ry="97.580734"
       d="m 540.93669,343.84119 c 0,53.89235 -43.68838,97.58073 -97.58073,97.58073 -53.89235,0 -97.58074,-43.68838 -97.58074,-97.58073 0,-53.89235 43.68839,-97.58074 97.58074,-97.58074 53.89235,0 97.58073,43.68839 97.58073,97.58074 z"
       transform="matrix(0.85,0,0,0.85,-31.46514,17.4056)" />
    <path
       sodipodi:type="arc"
       style="fill:#e9f099;fill-opacity:1;stroke:#000000;stroke-width:0.70866144;stroke-miterlimit:4;stroke-opacity:1;stroke-dasharray:none;stroke-dashoffset:0"
       id="path2242"
       sodipodi:cx="444.06305"
       sodipodi:cy="343.84119"
       sodipodi:rx="70.710678"
       sodipodi:ry="70.710678"
       d="m 514.77373,343.84119 c 0,39.05243 -31.65825,70.71067 -70.71068,70.71067 -39.05243,0 -70.71068,-31.65824 -70.71068,-70.71067 0,-39.05243 31.65825,-70.71068 70.71068,-70.71068 39.05243,0 70.71068,31.65825 70.71068,70.71068 z"
       transform="matrix(0.85,0,0,0.85,-31.46514,17.4056)" />
    <path
       sodipodi:type="arc"
       style="fill:#ffffff;fill-opacity:1;stroke:#000000;stroke-width:0.70866144;stroke-miterlimit:4;stroke-opacity:1;stroke-dasharray:none;stroke-dashoffset:0"
       id="path2244"
       sodipodi:cx="442.64883"
       sodipodi:cy="343.84119"
       sodipodi:rx="61.518291"
       sodipodi:ry="61.518291"
       d="m 504.16713,343.84119 c 0,33.97561 -27.54268,61.51829 -61.5183,61.51829 -33.97561,0 -61.51829,-27.54268 -61.51829,-61.51829 0,-33.97562 27.54268,-61.51829 61.51829,-61.51829 33.97562,0 61.5183,27.54267 61.5183,61.51829 z"
       transform="matrix(0.85,0,0,0.85,-31.46514,17.4056)" />
    <path
       style="fill:none;stroke:#000000;stroke-width:0.85000002px;stroke-linecap:butt;stroke-linejoin:miter;stroke-opacity:1"
       d="m 217.00927,236.94469 c -135.53149,-77.984 -135.53149,-77.984 -135.53149,-77.984 l 214.02325,79.18608"
       id="path1321"
       inkscape:connector-curvature="0" />
    <path
       d="m 601.74785,343.84122 c 0,87.86796 -71.23106,159.09901 -159.09902,159.09901 -87.86796,0 -159.09901,-71.23105 -159.09901,-159.09901 0,-87.86796 71.23105,-159.09902 159.09901,-159.09902 87.86796,0 159.09902,71.23106 159.09902,159.09902 z"
       sodipodi:ry="159.09901"
       sodipodi:rx="159.09901"
       sodipodi:cy="343.84122"
       sodipodi:cx="442.64883"
       id="path2206"
       style="fill:none;stroke:#000000;stroke-width:0.70866144;stroke-miterlimit:4;stroke-opacity:1;stroke-dasharray:none;stroke-dashoffset:0"
       sodipodi:type="arc"
       transform="matrix(0.8415,0,0,0.8415,-27.70262,20.32828)" />
    <path
       sodipodi:type="arc"
       style="fill:none;stroke:#000000;stroke-width:0.70866144;stroke-miterlimit:4;stroke-opacity:1;stroke-dasharray:none;stroke-dashoffset:0"
       id="path1325"
       sodipodi:cx="442.64883"
       sodipodi:cy="343.84122"
       sodipodi:rx="159.09901"
       sodipodi:ry="159.09901"
       d="m 601.74785,343.84122 c 0,87.86796 -71.23106,159.09901 -159.09902,159.09901 -87.86796,0 -159.09901,-71.23105 -159.09901,-159.09901 0,-87.86796 71.23105,-159.09902 159.09901,-159.09902 87.86796,0 159.09902,71.23106 159.09902,159.09902 z"
       transform="matrix(0.85,0,0,0.85,-31.46514,17.4056)" />
    <path
       d="m 601.74785,343.84122 c 0,87.86796 -71.23106,159.09901 -159.09902,159.09901 -87.86796,0 -159.09901,-71.23105 -159.09901,-159.09901 0,-87.86796 71.23105,-159.09902 159.09901,-159.09902 87.86796,0 159.09902,71.23106 159.09902,159.09902 z"
       sodipodi:ry="159.09901"
       sodipodi:rx="159.09901"
       sodipodi:cy="343.84122"
       sodipodi:cx="442.64883"
       id="path2239"
       style="fill:none;stroke:#000000;stroke-width:0.70866144;stroke-miterlimit:4;stroke-opacity:1;stroke-dasharray:none;stroke-dashoffset:0"
       sodipodi:type="arc"
       transform="matrix(0.833,0,0,0.833,-23.94011,23.25088)" />
    <path
       d="m 601.74785,343.84122 c 0,87.86796 -71.23106,159.09901 -159.09902,159.09901 -87.86796,0 -159.09901,-71.23105 -159.09901,-159.09901 0,-87.86796 71.23105,-159.09902 159.09901,-159.09902 87.86796,0 159.09902,71.23106 159.09902,159.09902 z"
       sodipodi:ry="159.09901"
       sodipodi:rx="159.09901"
       sodipodi:cy="343.84122"
       sodipodi:cx="442.64883"
       id="path2241"
       style="fill:none;stroke:#000000;stroke-width:0.70866144;stroke-miterlimit:4;stroke-opacity:1;stroke-dasharray:none;stroke-dashoffset:0"
       sodipodi:type="arc"
       transform="matrix(0.8245,0,0,0.8245,-20.17759,26.17358)" />
    <path
       d="m 601.74785,343.84122 c 0,87.86796 -71.23106,159.09901 -159.09902,159.09901 -87.86796,0 -159.09901,-71.23105 -159.09901,-159.09901 0,-87.86796 71.23105,-159.09902 159.09901,-159.09902 87.86796,0 159.09902,71.23106 159.09902,159.09902 z"
       sodipodi:ry="159.09901"
       sodipodi:rx="159.09901"
       sodipodi:cy="343.84122"
       sodipodi:cx="442.64883"
       id="path2243"
       style="fill:none;stroke:#000000;stroke-width:0.70866144;stroke-miterlimit:4;stroke-opacity:1;stroke-dasharray:none;stroke-dashoffset:0"
       sodipodi:type="arc"
       transform="matrix(0.816,0,0,0.816,-16.41508,29.09618)" />
    <path
       d="m 601.74785,343.84122 c 0,87.86796 -71.23106,159.09901 -159.09902,159.09901 -87.86796,0 -159.09901,-71.23105 -159.09901,-159.09901 0,-87.86796 71.23105,-159.09902 159.09901,-159.09902 87.86796,0 159.09902,71.23106 159.09902,159.09902 z"
       sodipodi:ry="159.09901"
       sodipodi:rx="159.09901"
       sodipodi:cy="343.84122"
       sodipodi:cx="442.64883"
       id="path2245"
       style="fill:none;stroke:#000000;stroke-width:0.70866144;stroke-miterlimit:4;stroke-opacity:1;stroke-dasharray:none;stroke-dashoffset:0"
       sodipodi:type="arc"
       transform="matrix(0.765,0,0,0.765,6.16001,46.63208)" />
    <path
       sodipodi:type="arc"
       style="fill:none;stroke:#000000;stroke-width:0.70866144;stroke-miterlimit:4;stroke-opacity:1;stroke-dasharray:none;stroke-dashoffset:0"
       id="path2247"
       sodipodi:cx="442.64883"
       sodipodi:cy="343.84122"
       sodipodi:rx="159.09901"
       sodipodi:ry="159.09901"
       d="m 601.74785,343.84122 c 0,87.86796 -71.23106,159.09901 -159.09902,159.09901 -87.86796,0 -159.09901,-71.23105 -159.09901,-159.09901 0,-87.86796 71.23105,-159.09902 159.09901,-159.09902 87.86796,0 159.09902,71.23106 159.09902,159.09902 z"
       transform="matrix(0.7735,0,0,0.7735,2.3975,43.70948)" />
    <path
       d="m 601.74785,343.84122 c 0,87.86796 -71.23106,159.09901 -159.09902,159.09901 -87.86796,0 -159.09901,-71.23105 -159.09901,-159.09901 0,-87.86796 71.23105,-159.09902 159.09901,-159.09902 87.86796,0 159.09902,71.23106 159.09902,159.09902 z"
       sodipodi:ry="159.09901"
       sodipodi:rx="159.09901"
       sodipodi:cy="343.84122"
       sodipodi:cx="442.64883"
       id="path2249"
       style="fill:none;stroke:#000000;stroke-width:0.70866144;stroke-miterlimit:4;stroke-opacity:1;stroke-dasharray:none;stroke-dashoffset:0"
       sodipodi:type="arc"
       transform="matrix(0.782,0,0,0.782,-1.36501,40.78678)" />
    <path
       sodipodi:type="arc"
       style="fill:none;stroke:#000000;stroke-width:0.70866144;stroke-miterlimit:4;stroke-opacity:1;stroke-dasharray:none;stroke-dashoffset:0"
       id="path2251"
       sodipodi:cx="442.64883"
       sodipodi:cy="343.84122"
       sodipodi:rx="159.09901"
       sodipodi:ry="159.09901"
       d="m 601.74785,343.84122 c 0,87.86796 -71.23106,159.09901 -159.09902,159.09901 -87.86796,0 -159.09901,-71.23105 -159.09901,-159.09901 0,-87.86796 71.23105,-159.09902 159.09901,-159.09902 87.86796,0 159.09902,71.23106 159.09902,159.09902 z"
       transform="matrix(0.7905,0,0,0.7905,-5.12753,37.86418)" />
    <path
       d="m 601.74785,343.84122 c 0,87.86796 -71.23106,159.09901 -159.09902,159.09901 -87.86796,0 -159.09901,-71.23105 -159.09901,-159.09901 0,-87.86796 71.23105,-159.09902 159.09901,-159.09902 87.86796,0 159.09902,71.23106 159.09902,159.09902 z"
       sodipodi:ry="159.09901"
       sodipodi:rx="159.09901"
       sodipodi:cy="343.84122"
       sodipodi:cx="442.64883"
       id="path2253"
       style="fill:none;stroke:#000000;stroke-width:0.70866144;stroke-miterlimit:4;stroke-opacity:1;stroke-dasharray:none;stroke-dashoffset:0"
       sodipodi:type="arc"
       transform="matrix(0.799,0,0,0.799,-8.89005,34.94148)" />
    <path
       sodipodi:type="arc"
       style="fill:none;stroke:#000000;stroke-width:0.70866144;stroke-miterlimit:4;stroke-opacity:1;stroke-dasharray:none;stroke-dashoffset:0"
       id="path2255"
       sodipodi:cx="442.64883"
       sodipodi:cy="343.84122"
       sodipodi:rx="159.09901"
       sodipodi:ry="159.09901"
       d="m 601.74785,343.84122 c 0,87.86796 -71.23106,159.09901 -159.09902,159.09901 -87.86796,0 -159.09901,-71.23105 -159.09901,-159.09901 0,-87.86796 71.23105,-159.09902 159.09901,-159.09902 87.86796,0 159.09902,71.23106 159.09902,159.09902 z"
       transform="matrix(0.8075,0,0,0.8075,-12.65256,32.01888)" />
    <path
       d="m 601.74785,343.84122 c 0,87.86796 -71.23106,159.09901 -159.09902,159.09901 -87.86796,0 -159.09901,-71.23105 -159.09901,-159.09901 0,-87.86796 71.23105,-159.09902 159.09901,-159.09902 87.86796,0 159.09902,71.23106 159.09902,159.09902 z"
       sodipodi:ry="159.09901"
       sodipodi:rx="159.09901"
       sodipodi:cy="343.84122"
       sodipodi:cx="442.64883"
       id="path2257"
       style="fill:none;stroke:#000000;stroke-width:0.70866144;stroke-miterlimit:4;stroke-opacity:1;stroke-dasharray:none;stroke-dashoffset:0"
       sodipodi:type="arc"
       transform="matrix(0.68,0,0,0.68,43.78517,75.85858)" />
    <path
       sodipodi:type="arc"
       style="fill:none;stroke:#000000;stroke-width:0.70866144;stroke-miterlimit:4;stroke-opacity:1;stroke-dasharray:none;stroke-dashoffset:0"
       id="path2259"
       sodipodi:cx="442.64883"
       sodipodi:cy="343.84122"
       sodipodi:rx="159.09901"
       sodipodi:ry="159.09901"
       d="m 601.74785,343.84122 c 0,87.86796 -71.23106,159.09901 -159.09902,159.09901 -87.86796,0 -159.09901,-71.23105 -159.09901,-159.09901 0,-87.86796 71.23105,-159.09902 159.09901,-159.09902 87.86796,0 159.09902,71.23106 159.09902,159.09902 z"
       transform="matrix(0.6885,0,0,0.6885,40.02267,72.93598)" />
    <path
       d="m 601.74785,343.84122 c 0,87.86796 -71.23106,159.09901 -159.09902,159.09901 -87.86796,0 -159.09901,-71.23105 -159.09901,-159.09901 0,-87.86796 71.23105,-159.09902 159.09901,-159.09902 87.86796,0 159.09902,71.23106 159.09902,159.09902 z"
       sodipodi:ry="159.09901"
       sodipodi:rx="159.09901"
       sodipodi:cy="343.84122"
       sodipodi:cx="442.64883"
       id="path2261"
       style="fill:none;stroke:#000000;stroke-width:0.70866144;stroke-miterlimit:4;stroke-opacity:1;stroke-dasharray:none;stroke-dashoffset:0"
       sodipodi:type="arc"
       transform="matrix(0.697,0,0,0.697,36.26017,70.01328)" />
    <path
       sodipodi:type="arc"
       style="fill:none;stroke:#000000;stroke-width:0.70866144;stroke-miterlimit:4;stroke-opacity:1;stroke-dasharray:none;stroke-dashoffset:0"
       id="path2263"
       sodipodi:cx="442.64883"
       sodipodi:cy="343.84122"
       sodipodi:rx="159.09901"
       sodipodi:ry="159.09901"
       d="m 601.74785,343.84122 c 0,87.86796 -71.23106,159.09901 -159.09902,159.09901 -87.86796,0 -159.09901,-71.23105 -159.09901,-159.09901 0,-87.86796 71.23105,-159.09902 159.09901,-159.09902 87.86796,0 159.09902,71.23106 159.09902,159.09902 z"
       transform="matrix(0.7055,0,0,0.7055,32.49757,67.09068)" />
    <path
       d="m 601.74785,343.84122 c 0,87.86796 -71.23106,159.09901 -159.09902,159.09901 -87.86796,0 -159.09901,-71.23105 -159.09901,-159.09901 0,-87.86796 71.23105,-159.09902 159.09901,-159.09902 87.86796,0 159.09902,71.23106 159.09902,159.09902 z"
       sodipodi:ry="159.09901"
       sodipodi:rx="159.09901"
       sodipodi:cy="343.84122"
       sodipodi:cx="442.64883"
       id="path2265"
       style="fill:none;stroke:#000000;stroke-width:0.70866144;stroke-miterlimit:4;stroke-opacity:1;stroke-dasharray:none;stroke-dashoffset:0"
       sodipodi:type="arc"
       transform="matrix(0.714,0,0,0.714,28.73507,64.16798)" />
    <path
       sodipodi:type="arc"
       style="fill:none;stroke:#000000;stroke-width:0.70866144;stroke-miterlimit:4;stroke-opacity:1;stroke-dasharray:none;stroke-dashoffset:0"
       id="path2267"
       sodipodi:cx="442.64883"
       sodipodi:cy="343.84122"
       sodipodi:rx="159.09901"
       sodipodi:ry="159.09901"
       d="m 601.74785,343.84122 c 0,87.86796 -71.23106,159.09901 -159.09902,159.09901 -87.86796,0 -159.09901,-71.23105 -159.09901,-159.09901 0,-87.86796 71.23105,-159.09902 159.09901,-159.09902 87.86796,0 159.09902,71.23106 159.09902,159.09902 z"
       transform="matrix(0.7225,0,0,0.7225,24.97259,61.24538)" />
    <path
       d="m 601.74785,343.84122 c 0,87.86796 -71.23106,159.09901 -159.09902,159.09901 -87.86796,0 -159.09901,-71.23105 -159.09901,-159.09901 0,-87.86796 71.23105,-159.09902 159.09901,-159.09902 87.86796,0 159.09902,71.23106 159.09902,159.09902 z"
       sodipodi:ry="159.09901"
       sodipodi:rx="159.09901"
       sodipodi:cy="343.84122"
       sodipodi:cx="442.64883"
       id="path2269"
       style="fill:none;stroke:#000000;stroke-width:0.70866144;stroke-miterlimit:4;stroke-opacity:1;stroke-dasharray:none;stroke-dashoffset:0"
       sodipodi:type="arc"
       transform="matrix(0.7395,0,0,0.7395,17.44756,55.40008)" />
    <path
       sodipodi:type="arc"
       style="fill:none;stroke:#000000;stroke-width:0.70866144;stroke-miterlimit:4;stroke-opacity:1;stroke-dasharray:none;stroke-dashoffset:0"
       id="path2271"
       sodipodi:cx="442.64883"
       sodipodi:cy="343.84122"
       sodipodi:rx="159.09901"
       sodipodi:ry="159.09901"
       d="m 601.74785,343.84122 c 0,87.86796 -71.23106,159.09901 -159.09902,159.09901 -87.86796,0 -159.09901,-71.23105 -159.09901,-159.09901 0,-87.86796 71.23105,-159.09902 159.09901,-159.09902 87.86796,0 159.09902,71.23106 159.09902,159.09902 z"
       transform="matrix(0.731,0,0,0.731,21.21008,58.32268)" />
    <path
       d="m 601.74785,343.84122 c 0,87.86796 -71.23106,159.09901 -159.09902,159.09901 -87.86796,0 -159.09901,-71.23105 -159.09901,-159.09901 0,-87.86796 71.23105,-159.09902 159.09901,-159.09902 87.86796,0 159.09902,71.23106 159.09902,159.09902 z"
       sodipodi:ry="159.09901"
       sodipodi:rx="159.09901"
       sodipodi:cy="343.84122"
       sodipodi:cx="442.64883"
       id="path2273"
       style="fill:none;stroke:#000000;stroke-width:0.70866144;stroke-miterlimit:4;stroke-opacity:1;stroke-dasharray:none;stroke-dashoffset:0"
       sodipodi:type="arc"
       transform="matrix(0.748,0,0,0.748,13.68504,52.47738)" />
    <path
       sodipodi:type="arc"
       style="fill:none;stroke:#000000;stroke-width:0.70866144;stroke-miterlimit:4;stroke-opacity:1;stroke-dasharray:none;stroke-dashoffset:0"
       id="path2275"
       sodipodi:cx="442.64883"
       sodipodi:cy="343.84122"
       sodipodi:rx="159.09901"
       sodipodi:ry="159.09901"
       d="m 601.74785,343.84122 c 0,87.86796 -71.23106,159.09901 -159.09902,159.09901 -87.86796,0 -159.09901,-71.23105 -159.09901,-159.09901 0,-87.86796 71.23105,-159.09902 159.09901,-159.09902 87.86796,0 159.09902,71.23106 159.09902,159.09902 z"
       transform="matrix(0.7565,0,0,0.7565,9.92253,49.55478)" />
    <path
       d="m 601.74785,343.84122 c 0,87.86796 -71.23106,159.09901 -159.09902,159.09901 -87.86796,0 -159.09901,-71.23105 -159.09901,-159.09901 0,-87.86796 71.23105,-159.09902 159.09901,-159.09902 87.86796,0 159.09902,71.23106 159.09902,159.09902 z"
       sodipodi:ry="159.09901"
       sodipodi:rx="159.09901"
       sodipodi:cy="343.84122"
       sodipodi:cx="442.64883"
       id="path2277"
       style="fill:none;stroke:#000000;stroke-width:0.70866144;stroke-miterlimit:4;stroke-opacity:1;stroke-dasharray:none;stroke-dashoffset:0"
       sodipodi:type="arc"
       transform="matrix(0.6375,0,0,0.6375,62.59777,90.47188)" />
    <path
       sodipodi:type="arc"
       style="fill:none;stroke:#000000;stroke-width:0.70866144;stroke-miterlimit:4;stroke-opacity:1;stroke-dasharray:none;stroke-dashoffset:0"
       id="path2279"
       sodipodi:cx="442.64883"
       sodipodi:cy="343.84122"
       sodipodi:rx="159.09901"
       sodipodi:ry="159.09901"
       d="m 601.74785,343.84122 c 0,87.86796 -71.23106,159.09901 -159.09902,159.09901 -87.86796,0 -159.09901,-71.23105 -159.09901,-159.09901 0,-87.86796 71.23105,-159.09902 159.09901,-159.09902 87.86796,0 159.09902,71.23106 159.09902,159.09902 z"
       transform="matrix(0.646,0,0,0.646,58.83517,87.54918)" />
    <path
       d="m 601.74785,343.84122 c 0,87.86796 -71.23106,159.09901 -159.09902,159.09901 -87.86796,0 -159.09901,-71.23105 -159.09901,-159.09901 0,-87.86796 71.23105,-159.09902 159.09901,-159.09902 87.86796,0 159.09902,71.23106 159.09902,159.09902 z"
       sodipodi:ry="159.09901"
       sodipodi:rx="159.09901"
       sodipodi:cy="343.84122"
       sodipodi:cx="442.64883"
       id="path2281"
       style="fill:none;stroke:#000000;stroke-width:0.70866144;stroke-miterlimit:4;stroke-opacity:1;stroke-dasharray:none;stroke-dashoffset:0"
       sodipodi:type="arc"
       transform="matrix(0.6545,0,0,0.6545,55.07267,84.62658)" />
    <path
       sodipodi:type="arc"
       style="fill:none;stroke:#000000;stroke-width:0.70866144;stroke-miterlimit:4;stroke-opacity:1;stroke-dasharray:none;stroke-dashoffset:0"
       id="path2283"
       sodipodi:cx="442.64883"
       sodipodi:cy="343.84122"
       sodipodi:rx="159.09901"
       sodipodi:ry="159.09901"
       d="m 601.74785,343.84122 c 0,87.86796 -71.23106,159.09901 -159.09902,159.09901 -87.86796,0 -159.09901,-71.23105 -159.09901,-159.09901 0,-87.86796 71.23105,-159.09902 159.09901,-159.09902 87.86796,0 159.09902,71.23106 159.09902,159.09902 z"
       transform="matrix(0.663,0,0,0.663,51.31017,81.70388)" />
    <path
       d="m 601.74785,343.84122 c 0,87.86796 -71.23106,159.09901 -159.09902,159.09901 -87.86796,0 -159.09901,-71.23105 -159.09901,-159.09901 0,-87.86796 71.23105,-159.09902 159.09901,-159.09902 87.86796,0 159.09902,71.23106 159.09902,159.09902 z"
       sodipodi:ry="159.09901"
       sodipodi:rx="159.09901"
       sodipodi:cy="343.84122"
       sodipodi:cx="442.64883"
       id="path2285"
       style="fill:none;stroke:#000000;stroke-width:0.70866144;stroke-miterlimit:4;stroke-opacity:1;stroke-dasharray:none;stroke-dashoffset:0"
       sodipodi:type="arc"
       transform="matrix(0.6715,0,0,0.6715,47.54767,78.78128)" />
    <path
       style="fill:none;stroke:#000000;stroke-width:1.16678476px;stroke-linecap:butt;stroke-linejoin:miter;stroke-opacity:1"
       d="M 207.14804,279.43313 C 35.433067,217.1333 35.433067,217.1333 35.433067,217.1333"
       id="path2287"
       inkscape:connector-curvature="0" />
    <path
       style="fill:none;stroke:#000000;stroke-width:1;stroke-linecap:butt;stroke-linejoin:miter;stroke-miterlimit:4;stroke-opacity:1;stroke-dasharray:none"
       d="m 220.13645,334.25485 c -87.26244,-5.81569 -87.26244,-5.81569 -87.26244,-5.81569"
       id="path2289"
       inkscape:connector-curvature="0" />
    <path
       style="fill:none;stroke:#000000;stroke-width:0.96753812px;stroke-linecap:butt;stroke-linejoin:miter;stroke-opacity:1"
       d="M 273.26252,332.13983 C 70.866138,396.85042 70.866138,396.85042 70.866138,396.85042"
       id="path2291"
       inkscape:connector-curvature="0" />
    <path
       style="fill:none;stroke:#000000;stroke-width:1.1841892px;stroke-linecap:butt;stroke-linejoin:miter;stroke-opacity:1"
       d="M 307.36361,351.14243 C 44.291335,470.05363 44.291335,470.05363 44.291335,470.05363"
       id="path2293"
       inkscape:connector-curvature="0" />
    <text
       xml:space="preserve"
       style="font-size:28px;font-style:normal;font-weight:normal;fill:#000000;fill-opacity:1;stroke:none;font-family:Bitstream Vera Sans"
       x="-46.650898"
       y="131.10234"
       id="text2295"><tspan
         sodipodi:role="line"
         id="tspan2297"
         x="-46.650898"
         y="131.10234">Thermal </tspan><tspan
         sodipodi:role="line"
         x="-46.650898"
         y="166.10234"
         id="tspan3083">insulation</tspan></text>
    <text
       xml:space="preserve"
       style="font-size:28px;font-style:normal;font-weight:normal;fill:#000000;fill-opacity:1;stroke:none;font-family:Bitstream Vera Sans"
       x="-153.98987"
       y="210.8268"
       id="text2307"><tspan
         sodipodi:role="line"
         id="tspan2309"
         x="-153.98987"
         y="210.8268">Cryostat filled with </tspan><tspan
         sodipodi:role="line"
         x="-153.98987"
         y="245.8268"
         id="tspan2311">liquid helium</tspan><tspan
         sodipodi:role="line"
         x="-153.98987"
         y="280.82678"
         id="tspan2313" /></text>
    <text
       xml:space="preserve"
       style="font-size:28px;font-style:normal;font-weight:normal;fill:#000000;fill-opacity:1;stroke:none;font-family:Bitstream Vera Sans"
       x="-154.65715"
       y="299.40948"
       id="text2315"><tspan
         sodipodi:role="line"
         id="tspan2317"
         x="-154.65715"
         y="299.40948">Superconducting</tspan><tspan
         sodipodi:role="line"
         x="-154.65715"
         y="334.40948"
         id="tspan2319">primary electromagnet</tspan><tspan
         sodipodi:role="line"
         x="-154.65715"
         y="369.40948"
         id="tspan2321">coil</tspan></text>
    <text
       xml:space="preserve"
       style="font-size:28px;font-style:normal;font-weight:normal;fill:#000000;fill-opacity:1;stroke:none;font-family:Bitstream Vera Sans"
       x="-154.73532"
       y="408.41495"
       id="text2323"><tspan
         sodipodi:role="line"
         id="tspan2325"
         x="-154.73532"
         y="408.41495">Magnetic gradient</tspan><tspan
         sodipodi:role="line"
         x="-154.73532"
         y="443.41495"
         id="tspan2335">coils</tspan><tspan
         sodipodi:role="line"
         x="-154.73532"
         y="478.41495"
         id="tspan2327" /></text>
    <text
       xml:space="preserve"
       style="font-size:28px;font-style:normal;font-weight:normal;fill:#000000;fill-opacity:1;stroke:none;font-family:Bitstream Vera Sans"
       x="-156.20938"
       y="485.43311"
       id="text2329"><tspan
         sodipodi:role="line"
         x="-156.20938"
         y="485.43311"
         id="tspan2333">RF transmit coil</tspan></text>
    <path
       style="fill:none;stroke:#000000;stroke-width:0.85000002px;stroke-linecap:butt;stroke-linejoin:miter;stroke-opacity:1"
       d="M 345.01125,309.55125 C 646.19234,196.60833 646.19234,196.60833 646.19234,196.60833"
       id="path2337"
       inkscape:connector-curvature="0" />
    <text
       xml:space="preserve"
       style="font-size:28px;font-style:normal;font-weight:normal;fill:#000000;fill-opacity:1;stroke:none;font-family:Bitstream Vera Sans"
       x="549.21259"
       y="188.92442"
       id="text2339"><tspan
         sodipodi:role="line"
         x="549.21259"
         y="188.92442"
         id="tspan2343">Scanner bore</tspan></text>
    <path
       style="fill:none;stroke:#000000;stroke-width:0.85000002px;stroke-linecap:butt;stroke-linejoin:miter;stroke-opacity:1"
       d="m 157.96062,511.94503 0,112.94291 7.52952,0"
       id="path1382"
       inkscape:connector-curvature="0" />
    <path
       style="fill:none;stroke:#000000;stroke-width:0.85000002px;stroke-linecap:butt;stroke-linejoin:miter;stroke-opacity:1"
       d="m 165.49014,730.30133 -7.52952,0 0,97.88385 -7.52953,0"
       id="path1384"
       inkscape:connector-curvature="0" />
    <path
       style="fill:none;stroke:#000000;stroke-width:0.85000002px;stroke-linecap:butt;stroke-linejoin:miter;stroke-opacity:1"
       d="m 157.96062,511.94503 -0.76257,0"
       id="path1386"
       sodipodi:nodetypes="cc"
       inkscape:connector-curvature="0" />
    <rect
       style="fill:#d5d2d2;fill-opacity:1;stroke:#000000;stroke-width:0.60236222;stroke-miterlimit:4;stroke-opacity:1;stroke-dasharray:none;stroke-dashoffset:0"
       id="rect1388"
       width="338.82874"
       height="7.5295277"
       x="165.79134"
       y="527.3053" />
    <rect
       style="fill:#d5d2d2;fill-opacity:1;stroke:#000000;stroke-width:0.60236222;stroke-miterlimit:4;stroke-opacity:1;stroke-dasharray:none;stroke-dashoffset:0"
       id="rect1390"
       width="338.82874"
       height="7.5295277"
       x="165.79134"
       y="820.35449" />
    <rect
       style="fill:#d5d2d2;fill-opacity:1;stroke:#000000;stroke-width:0.60236222;stroke-miterlimit:4;stroke-opacity:1;stroke-dasharray:none;stroke-dashoffset:0"
       id="rect1392"
       width="338.82874"
       height="7.5295277"
       x="165.79134"
       y="760.72058" />
    <rect
       style="fill:#d5d2d2;fill-opacity:1;stroke:#000000;stroke-width:0.60236222;stroke-miterlimit:4;stroke-opacity:1;stroke-dasharray:none;stroke-dashoffset:0"
       id="rect1394"
       width="338.82874"
       height="7.5295277"
       x="165.79134"
       y="586.93915" />
    <rect
       style="fill:#99f0c0;fill-opacity:1;stroke:#000000;stroke-width:0.60236222;stroke-miterlimit:4;stroke-opacity:1;stroke-dasharray:none;stroke-dashoffset:0"
       id="rect1398"
       width="338.82874"
       height="22.588581"
       x="165.79134"
       y="594.76984" />
    <rect
       style="fill:#e9f099;fill-opacity:1;stroke:#000000;stroke-width:0.60236222;stroke-miterlimit:4;stroke-opacity:1;stroke-dasharray:none;stroke-dashoffset:0"
       id="rect1402"
       width="338.82874"
       height="7.5295277"
       x="165.79134"
       y="617.65961" />
    <rect
       style="fill:#e9f099;fill-opacity:1;stroke:#000000;stroke-width:0.60236222;stroke-miterlimit:4;stroke-opacity:1;stroke-dasharray:none;stroke-dashoffset:0"
       id="rect1404"
       width="338.82874"
       height="7.5295277"
       x="165.79134"
       y="730.00012" />
    <rect
       style="fill:#b4f8f8;fill-opacity:1;stroke:#000000;stroke-width:0.60236222;stroke-miterlimit:4;stroke-opacity:1;stroke-dasharray:none;stroke-dashoffset:0"
       id="rect1408"
       width="338.82874"
       height="52.706692"
       x="165.79134"
       y="767.94897" />
    <path
       style="fill:none;stroke:#000000;stroke-width:0.85000002px;stroke-linecap:butt;stroke-linejoin:miter;stroke-opacity:1"
       d="m 504.3189,624.88794 7.52947,0 0,-112.94291 -353.88775,0"
       id="path1410"
       inkscape:connector-curvature="0" />
    <path
       style="fill:none;stroke:#000000;stroke-width:0.85000002px;stroke-linecap:butt;stroke-linejoin:miter;stroke-opacity:1"
       d="m 504.3189,730.30133 7.52947,0 0,97.88385 7.52955,0"
       id="path1412"
       inkscape:connector-curvature="0" />
    <path
       style="fill:none;stroke:#000000;stroke-width:0.85000002px;stroke-linecap:butt;stroke-linejoin:miter;stroke-opacity:1"
       d="m 158.35792,722.7718 c 557.18504,0 571.84678,0 571.84678,0 l 0,7.52953 -112.9429,0 0.29478,98.44777 -37.64123,0 -0.30116,-98.44777 -421.25627,0 0,-7.52953 z"
       id="path2288"
       sodipodi:nodetypes="ccccccccc"
       inkscape:connector-curvature="0" />
    <rect
       style="fill:none;stroke:#000000;stroke-width:0.60236222;stroke-miterlimit:4;stroke-opacity:1;stroke-dasharray:none;stroke-dashoffset:0"
       id="rect2294"
       width="82.824806"
       height="45.177162"
       x="231.76712"
       y="676.6911" />
    <path
       style="fill:none;stroke:#000000;stroke-width:0.85000002px;stroke-linecap:butt;stroke-linejoin:miter;stroke-opacity:1"
       d="m 232.06833,684.52179 c 82.8248,0 82.8248,0 82.8248,0"
       id="path3169"
       inkscape:connector-curvature="0" />
    <path
       style="fill:none;stroke:#000000;stroke-width:0.85000002px;stroke-linecap:butt;stroke-linejoin:miter;stroke-opacity:1"
       d="m 232.06833,699.58085 82.8248,0"
       id="path3173"
       inkscape:connector-curvature="0" />
    <path
       style="fill:none;stroke:#000000;stroke-width:0.86011213px;stroke-linecap:butt;stroke-linejoin:miter;stroke-opacity:1"
       d="m 232.0785,714.6399 82.37946,0"
       id="path3177"
       inkscape:connector-curvature="0" />
    <path
       style="fill:none;stroke:#000000;stroke-width:0.85000002px;stroke-linecap:butt;stroke-linejoin:miter;stroke-opacity:1"
       d="m 231.50441,707.11037 c -19.00945,10.46137 -48.18033,1.80978 -76.98701,14.29649 -7.63223,8.91917 -7.51748,23.30556 -7.72818,35.19333 0.23858,13.3005 5.40738,15.09713 9.98383,18.27593"
       id="path3179"
       sodipodi:nodetypes="cccc"
       inkscape:connector-curvature="0" />
    <path
       style="fill:none;stroke:#000000;stroke-width:0.85000002px;stroke-linecap:butt;stroke-linejoin:miter;stroke-opacity:1"
       d="M 232.06833,692.05132 81.47778,651.43664"
       id="path3181"
       inkscape:connector-curvature="0" />
    <text
       xml:space="preserve"
       style="font-size:28px;font-style:normal;font-weight:normal;fill:#000000;fill-opacity:1;stroke:none;font-family:Bitstream Vera Sans"
       x="-79.724411"
       y="641.04266"
       id="text3183"><tspan
         sodipodi:role="line"
         id="tspan3185"
         x="-79.724411"
         y="641.04266">Body part specific</tspan><tspan
         sodipodi:role="line"
         x="-79.724411"
         y="676.04266"
         id="tspan3187">receive coil</tspan><tspan
         sodipodi:role="line"
         x="-79.724411"
         y="711.04266"
         id="tspan3189" /></text>
    <path
       style="fill:none;stroke:#000000;stroke-width:0.85000002px;stroke-linecap:butt;stroke-linejoin:miter;stroke-opacity:1"
       d="m 533.24943,722.16943 c 135.5315,-97.88386 135.5315,-97.88386 135.5315,-97.88386"
       id="path3199"
       inkscape:connector-curvature="0" />
    <text
       xml:space="preserve"
       style="font-size:28px;font-style:normal;font-weight:normal;fill:#000000;fill-opacity:1;stroke:none;font-family:Bitstream Vera Sans"
       x="534.81543"
       y="615.42761"
       id="text3201"><tspan
         sodipodi:role="line"
         id="tspan3203"
         x="534.81543"
         y="615.42761">Scanner table</tspan><tspan
         sodipodi:role="line"
         x="534.81543"
         y="650.42761"
         id="tspan3205" /></text>
    <path
       style="fill:none;stroke:#000000;stroke-width:0.85000002px;stroke-linecap:butt;stroke-linejoin:miter;stroke-opacity:1"
       d="m 307.36361,142.39581 c 0,-82.82481 0,-82.82481 0,-82.82481"
       id="path3207"
       inkscape:connector-curvature="0" />
    <path
       style="fill:none;stroke:#000000;stroke-width:0.85000002px;stroke-linecap:butt;stroke-linejoin:miter;stroke-opacity:1"
       d="m 382.65888,142.39581 0,-82.82481"
       id="path3209"
       inkscape:connector-curvature="0" />
    <path
       style="fill:none;stroke:#000000;stroke-width:0.85000002px;stroke-linecap:butt;stroke-linejoin:miter;stroke-opacity:1"
       d="m 307.36361,59.571 75.29527,0"
       id="path3211"
       inkscape:connector-curvature="0" />
    <path
       style="fill:none;stroke:#000000;stroke-width:0.85000002px;stroke-linecap:butt;stroke-linejoin:miter;stroke-opacity:1"
       d="M 307.36361,115.71875 C 81.47778,89.68911 81.47778,89.68911 81.47778,89.68911 l 0,0"
       id="path3213"
       inkscape:connector-curvature="0" />
    <text
       xml:space="preserve"
       style="font-size:28px;font-style:normal;font-weight:normal;fill:#000000;fill-opacity:1;stroke:none;font-family:Bitstream Vera Sans"
       x="-35.433071"
       y="10.929374"
       id="text3215"><tspan
         sodipodi:role="line"
         id="tspan3217"
         x="-35.433071"
         y="10.929374">Service connections</tspan><tspan
         sodipodi:role="line"
         x="-35.433071"
         y="45.929375"
         id="tspan3219">(including emergency </tspan><tspan
         sodipodi:role="line"
         x="-35.433071"
         y="80.929375"
         id="tspan3081">cryostat vent pipe)</tspan></text>
    <path
       style="fill:none;stroke:#000000;stroke-width:0.85000002px;stroke-linecap:butt;stroke-linejoin:miter;stroke-opacity:1"
       d="m 51.35967,488.75407 c 594.83267,0 594.83267,0 594.83267,0"
       id="path3239"
       inkscape:connector-curvature="0" />
    <text
       xml:space="preserve"
       style="font-size:28px;font-style:normal;font-weight:normal;fill:#000000;fill-opacity:1;stroke:none;font-family:Bitstream Vera Sans"
       x="363.18896"
       y="29.822151"
       id="text3241"><tspan
         sodipodi:role="line"
         id="tspan3243"
         x="363.18896"
         y="29.822151">MRI Scanner cross section</tspan></text>
    <text
       xml:space="preserve"
       style="font-size:28px;font-style:normal;font-weight:normal;fill:#000000;fill-opacity:1;stroke:none;font-family:Bitstream Vera Sans"
       x="534.1402"
       y="514.40564"
       id="text3245"><tspan
         sodipodi:role="line"
         id="tspan3247"
         x="534.1402"
         y="514.40564">Longitudinal </tspan><tspan
         sodipodi:role="line"
         x="534.1402"
         y="549.40564"
         id="tspan3085">section</tspan></text>
  </g>
</svg>
