<?xml version="1.0" encoding="UTF-8" standalone="no"?>
<!DOCTYPE svg PUBLIC "-//W3C//DTD SVG 1.0//EN"
 "http://www.w3.org/TR/2001/REC-SVG-20010904/DTD/svg10.dtd">
<svg width="368pt" height="264pt"
 viewBox = "-1 -1 367 263"
 xmlns="http://www.w3.org/2000/svg">
<g id="graph0" class="graph" style="font-family:Times-Roman;font-size:14.00;">

<g id="node1" class="node">
<ellipse cx="180" cy="22" rx="39" ry="18" style="fill:none;stroke:black;"/>
<text text-anchor="middle" x="180" y="27">Frankfurt</text>
</g>
<g id="node3" class="node">
<ellipse cx="56" cy="94" rx="44" ry="18" style="fill:none;stroke:black;"/>
<text text-anchor="middle" x="56" y="99">Mannheim</text>
</g>
<g id="edge2" class="edge">
<path style="fill:none;stroke:black;" d="M156,36C137,46 111,62 90,74"/>
<polygon style="fill:black;stroke:black;" points="91,77 81,79 88,71 91,77"/>
</g>
<g id="node5" class="node">
<ellipse cx="180" cy="94" rx="42" ry="18" style="fill:none;stroke:black;"/>
<text text-anchor="middle" x="180" y="99">Würzburg</text>
</g>
<g id="edge4" class="edge">
<path style="fill:none;stroke:black;" d="M180,40C180,48 180,57 180,66"/>
<polygon style="fill:black;stroke:black;" points="184,66 180,76 177,66 184,66"/>
</g>
<g id="node7" class="node">
<ellipse cx="311" cy="94" rx="32" ry="18" style="fill:none;stroke:black;"/>
<text text-anchor="middle" x="311" y="99">Kassel</text>
</g>
<g id="edge6" class="edge">
<path style="fill:none;stroke:black;" d="M205,36C226,47 256,64 279,76"/>
<polygon style="fill:black;stroke:black;" points="281,73 288,81 278,79 281,73"/>
</g>
<g id="node9" class="node">
<ellipse cx="46" cy="166" rx="41" ry="18" style="fill:none;stroke:black;"/>
<text text-anchor="middle" x="46" y="171">Karlsruhe</text>
</g>
<g id="edge8" class="edge">
<path style="fill:none;stroke:black;" d="M53,112C52,120 51,129 50,138"/>
<polygon style="fill:black;stroke:black;" points="53,138 49,148 47,138 53,138"/>
</g>
<g id="node11" class="node">
<ellipse cx="145" cy="166" rx="40" ry="18" style="fill:none;stroke:black;"/>
<text text-anchor="middle" x="145" y="171">Nürnberg</text>
</g>
<g id="edge10" class="edge">
<path style="fill:none;stroke:black;" d="M171,112C167,120 163,130 158,139"/>
<polygon style="fill:black;stroke:black;" points="161,140 154,148 155,137 161,140"/>
</g>
<g id="node13" class="node">
<ellipse cx="233" cy="166" rx="30" ry="18" style="fill:none;stroke:black;"/>
<text text-anchor="middle" x="233" y="171">Erfurt</text>
</g>
<g id="edge12" class="edge">
<path style="fill:none;stroke:black;" d="M193,111C200,120 208,131 215,141"/>
<polygon style="fill:black;stroke:black;" points="218,139 221,149 212,143 218,139"/>
</g>
<g id="node15" class="node">
<ellipse cx="321" cy="166" rx="40" ry="18" style="fill:none;stroke:black;"/>
<text text-anchor="middle" x="321" y="171">München</text>
</g>
<g id="edge14" class="edge">
<path style="fill:none;stroke:black;" d="M314,112C315,120 316,129 317,138"/>
<polygon style="fill:black;stroke:black;" points="320,138 318,148 314,138 320,138"/>
</g>
<g id="node17" class="node">
<ellipse cx="46" cy="238" rx="41" ry="18" style="fill:none;stroke:black;"/>
<text text-anchor="middle" x="46" y="243">Augsburg</text>
</g>
<g id="edge16" class="edge">
<path style="fill:none;stroke:black;" d="M46,184C46,192 46,201 46,210"/>
<polygon style="fill:black;stroke:black;" points="50,210 46,220 43,210 50,210"/>
</g>
<g id="node19" class="node">
<ellipse cx="145" cy="238" rx="37" ry="18" style="fill:none;stroke:black;"/>
<text text-anchor="middle" x="145" y="243">Stuttgart</text>
</g>
<g id="edge18" class="edge">
<path style="fill:none;stroke:black;" d="M145,184C145,192 145,201 145,210"/>
<polygon style="fill:black;stroke:black;" points="149,210 145,220 142,210 149,210"/>
</g>
</g>
</svg>
