<?xml version="1.0" encoding="UTF-8" standalone="no"?>
<!-- Created with Inkscape (http://www.inkscape.org/) -->
<svg id="svg1" height="436.9" viewBox="0,0,816.91937,436.90384" width="816.92" xmlns="http://www.w3.org/2000/svg" xmlns:svg="http://www.w3.org/2000/svg">
 <g id="g1">
  <path id="path1" d="m0 0h612.691v327.68h-612.691z" fill="#fff" transform="scale(1.3333333)"/>
  <path id="path2" d="m341.059 45.289v228.191" fill="none" stroke="#252525" stroke-miterlimit="10" stroke-width="2.25" transform="scale(1.3333333)"/>
  <path id="path3" d="m56.285 273.664h488.047" fill="none" stroke="#252525" stroke-miterlimit="10" stroke-width="2.25" transform="scale(1.3333333)"/>
  <path id="path4" d="m105.203 273.664 332.106-176.75" fill="none" stroke="#e66100" stroke-dasharray="9,9" stroke-linejoin="round" stroke-miterlimit="10" stroke-width="2.25" transform="scale(1.3333333)"/>
  <path id="path5" d="m341.059 38.066-4.278 17.122h8.559z" transform="scale(1.3333333)"/>
  <path id="path6" d="m552.895 273.664-17.122-4.281v8.562z" transform="scale(1.3333333)"/>
  <path id="path7" d="m358.562 141.246c0 2.582-2.093 4.68-4.675 4.68s-4.68-2.098-4.68-4.68c0-2.586 2.098-4.676 4.68-4.676s4.675 2.09 4.675 4.676z" fill="#e66100" stroke="#000" stroke-linecap="round" stroke-linejoin="round" stroke-miterlimit="10" stroke-width="1.602" transform="scale(1.3333333)"/>
  <path id="path8" d="m329.625 156.766c0 2.582-2.094 4.679-4.676 4.679s-4.679-2.097-4.679-4.679c0-2.586 2.097-4.676 4.679-4.676s4.676 2.09 4.676 4.676z" fill="#e66100" stroke="#000" stroke-linecap="round" stroke-linejoin="round" stroke-miterlimit="10" stroke-width="1.602" transform="scale(1.3333333)"/>
  <path id="path9" d="m380.625 129.648c0 2.586-2.094 4.68-4.676 4.68s-4.679-2.094-4.679-4.68 2.097-4.675 4.679-4.675 4.676 2.089 4.676 4.675z" fill="#e66100" stroke="#000" stroke-linecap="round" stroke-linejoin="round" stroke-miterlimit="10" stroke-width="1.602" transform="scale(1.3333333)"/>
  <path id="path10" d="m401.625 118.453c0 2.586-2.094 4.68-4.676 4.68s-4.679-2.094-4.679-4.68 2.097-4.676 4.679-4.676 4.676 2.09 4.676 4.676z" fill="#e66100" stroke="#000" stroke-linecap="round" stroke-linejoin="round" stroke-miterlimit="10" stroke-width="1.602" transform="scale(1.3333333)"/>
  <path id="path11" d="m428.285 104.375c0 2.582-2.094 4.676-4.676 4.676s-4.679-2.094-4.679-4.676c0-2.586 2.097-4.68 4.679-4.68s4.676 2.094 4.676 4.68z" fill="#e66100" stroke="#000" stroke-linecap="round" stroke-linejoin="round" stroke-miterlimit="10" stroke-width="1.602" transform="scale(1.3333333)"/>
  <path id="path12" d="m105.203 273.664 357.359-132.648" fill="none" stroke="#3584e4" stroke-dasharray="9,9" stroke-linejoin="round" stroke-miterlimit="10" stroke-width="2.25" transform="scale(1.3333333)"/>
  <path id="path13" d="m105.203 273.664 390.981-75.906" fill="none" stroke="#33d17a" stroke-dasharray="9,9" stroke-linejoin="round" stroke-miterlimit="10" stroke-width="2.25" transform="scale(1.3333333)"/>
  <path id="path14" d="m358.562 181.375c0 2.582-2.093 4.676-4.675 4.676s-4.68-2.094-4.68-4.676c0-2.586 2.098-4.68 4.68-4.68s4.675 2.094 4.675 4.68z" fill="#3584e4" stroke="#000" stroke-linecap="round" stroke-linejoin="round" stroke-miterlimit="10" stroke-width="1.602" transform="scale(1.3333333)"/>
  <path id="path15" d="m333.891 190.453c0 2.582-2.094 4.676-4.68 4.676-2.582 0-4.676-2.094-4.676-4.676 0-2.59 2.094-4.68 4.676-4.68 2.586 0 4.68 2.09 4.68 4.68z" fill="#3584e4" stroke="#000" stroke-linecap="round" stroke-linejoin="round" stroke-miterlimit="10" stroke-width="1.602" transform="scale(1.3333333)"/>
  <path id="path16" d="m391.582 169.316c0 2.586-2.094 4.68-4.676 4.68s-4.679-2.094-4.679-4.68 2.097-4.675 4.679-4.675 4.676 2.089 4.676 4.675z" fill="#3584e4" stroke="#000" stroke-linecap="round" stroke-linejoin="round" stroke-miterlimit="10" stroke-width="1.602" transform="scale(1.3333333)"/>
  <path id="path17" d="m428.285 155.582c0 2.586-2.094 4.68-4.676 4.68s-4.679-2.094-4.679-4.68 2.097-4.676 4.679-4.676 4.676 2.09 4.676 4.676z" fill="#3584e4" stroke="#000" stroke-linecap="round" stroke-linejoin="round" stroke-miterlimit="10" stroke-width="1.602" transform="scale(1.3333333)"/>
  <path id="path18" d="m455.672 145.438c0 2.585-2.094 4.679-4.676 4.679s-4.68-2.094-4.68-4.679c0-2.586 2.098-4.676 4.68-4.676s4.676 2.09 4.676 4.676z" fill="#3584e4" stroke="#000" stroke-linecap="round" stroke-linejoin="round" stroke-miterlimit="10" stroke-width="1.602" transform="scale(1.3333333)"/>
  <path id="path19" d="m366.719 223.352c0 2.582-2.094 4.675-4.676 4.675s-4.68-2.093-4.68-4.675c0-2.586 2.098-4.676 4.68-4.676s4.676 2.09 4.676 4.676z" fill="#33d17a" stroke="#000" stroke-linecap="round" stroke-linejoin="round" stroke-miterlimit="10" stroke-width="1.602" transform="scale(1.3333333)"/>
  <path id="path20" d="m335.105 229.582c0 2.582-2.097 4.676-4.679 4.676s-4.676-2.094-4.676-4.676c0-2.59 2.094-4.68 4.676-4.68s4.679 2.09 4.679 4.68z" fill="#33d17a" stroke="#000" stroke-linecap="round" stroke-linejoin="round" stroke-miterlimit="10" stroke-width="1.602" transform="scale(1.3333333)"/>
  <path id="path21" d="m409.664 215.031c0 2.586-2.094 4.68-4.676 4.68-2.586 0-4.679-2.094-4.679-4.68s2.093-4.676 4.679-4.676c2.582 0 4.676 2.09 4.676 4.676z" fill="#33d17a" stroke="#000" stroke-linecap="round" stroke-linejoin="round" stroke-miterlimit="10" stroke-width="1.602" transform="scale(1.3333333)"/>
  <path id="path22" d="m440.984 209.207c0 2.582-2.093 4.676-4.675 4.676s-4.68-2.094-4.68-4.676c0-2.59 2.098-4.68 4.68-4.68s4.675 2.09 4.675 4.68z" fill="#33d17a" stroke="#000" stroke-linecap="round" stroke-linejoin="round" stroke-miterlimit="10" stroke-width="1.602" transform="scale(1.3333333)"/>
  <path id="path23" d="m463.871 204.438c0 2.582-2.094 4.675-4.676 4.675s-4.679-2.093-4.679-4.675c0-2.586 2.097-4.676 4.679-4.676s4.676 2.09 4.676 4.676z" fill="#33d17a" stroke="#000" stroke-linecap="round" stroke-linejoin="round" stroke-miterlimit="10" stroke-width="1.602" transform="scale(1.3333333)"/>
  <path id="path24" d="m486.762 200.5c0 2.586-2.094 4.68-4.68 4.68-2.582 0-4.676-2.094-4.676-4.68s2.094-4.676 4.676-4.676c2.586 0 4.68 2.09 4.68 4.676z" fill="#33d17a" stroke="#000" stroke-linecap="round" stroke-linejoin="round" stroke-miterlimit="10" stroke-width="1.602" transform="scale(1.3333333)"/>
  <path id="path25" d="m44.535 301.074h18.781v2.492h-18.781zm37.559 10.649h-14.16v-2.188l5.609-5.672c1.062-1.078 1.961-2.039 2.703-2.879.758-.839 1.328-1.66 1.707-2.461.383-.8.57-1.687.57-2.668 0-1.179-.347-2.07-1.046-2.671-.704-.622-1.614-.93-2.731-.93-1.062 0-1.98.18-2.762.539-.781.359-1.578.859-2.398 1.5l-1.41-1.77c.84-.699 1.801-1.289 2.879-1.769 1.101-.5 2.328-.75 3.691-.75 2 0 3.578.512 4.738 1.531 1.161 1.02 1.743 2.41 1.743 4.168 0 1.121-.231 2.172-.692 3.152-.461.981-1.101 1.95-1.922 2.911-.82.957-1.777 1.968-2.879 3.027l-4.468 4.41v.121h10.828zm5.64 0 8.789-19.02h-11.546v-2.398h14.367v2.039l-8.699 19.379zm27.871-16.411c0 1.442-.41 2.59-1.23 3.454-.801.839-1.871 1.398-3.211 1.679v.117c1.699.204 2.969.743 3.809 1.622.863.878 1.293 2.031 1.293 3.449 0 1.262-.293 2.371-.871 3.332-.579.961-1.481 1.711-2.7 2.25-1.199.539-2.75.808-4.652.808-1.117 0-2.16-.089-3.117-.269-.961-.16-1.883-.461-2.762-.899v-2.46c.902.46 1.871.808 2.91 1.05 1.039.239 2.039.36 3 .36 1.922 0 3.301-.371 4.141-1.11.859-.761 1.289-1.8 1.289-3.121 0-1.34-.531-2.301-1.59-2.879-1.039-.601-2.508-.902-4.41-.902h-2.07v-2.25h2.101c1.758 0 3.09-.367 3.988-1.109.922-.739 1.383-1.719 1.383-2.942 0-1.039-.351-1.84-1.051-2.398-.699-.578-1.652-.871-2.851-.871-1.16 0-2.149.172-2.969.511-.82.34-1.629.77-2.43 1.289l-1.32-1.8c.758-.598 1.699-1.118 2.82-1.559 1.141-.441 2.43-.66 3.872-.66 2.238 0 3.898.5 4.976 1.5 1.102 1 1.652 2.269 1.652 3.808zm7.918 12.934.211.328c-.281 1.059-.66 2.219-1.14 3.481-.481 1.281-.961 2.461-1.438 3.539h-1.953c.281-1.141.563-2.391.84-3.75.301-1.36.523-2.559.66-3.598zm13.141 3.477h-2.578v-14.969c0-.859.008-1.551.027-2.07.02-.52.051-1.059.09-1.622-.32.321-.617.59-.898.813-.262.219-.582.5-.961.84l-2.278 1.859-1.382-1.769 5.789-4.5h2.191zm14.762-13.137c2.179 0 3.918.547 5.219 1.648 1.32 1.102 1.98 2.649 1.98 4.649 0 2.222-.711 3.972-2.129 5.25-1.402 1.262-3.363 1.89-5.883 1.89-1.117 0-2.16-.097-3.117-.3-.961-.2-1.773-.489-2.43-.868v-2.492c.719.442 1.59.789 2.61 1.051 1.039.238 2.027.359 2.969.359 1.578 0 2.851-.371 3.808-1.109.981-.762 1.473-1.93 1.473-3.512 0-1.398-.43-2.468-1.293-3.207-.86-.761-2.219-1.14-4.078-1.14-.559 0-1.2.05-1.922.148-.719.102-1.297.199-1.738.301l-1.321-.84.809-10.109h10.742v2.398h-8.492l-.508 6.211c.34-.059.801-.129 1.379-.211.582-.078 1.219-.117 1.922-.117zm21.328.629c-1.438 0-2.598-.422-3.481-1.262-.859-.859-1.289-1.969-1.289-3.328s.422-2.473 1.262-3.332c.859-.859 2.027-1.289 3.508-1.289 1.402 0 2.539.43 3.422 1.289.898.859 1.347 1.973 1.347 3.332s-.449 2.469-1.347 3.328c-.883.84-2.02 1.262-3.422 1.262zm.031-1.77c.961 0 1.66-.261 2.098-.781.461-.519.691-1.199.691-2.039 0-.879-.238-1.582-.719-2.102-.46-.519-1.152-.777-2.07-.777-.98 0-1.699.258-2.16.777-.461.52-.691 1.223-.691 2.102 0 .84.23 1.52.691 2.039.461.52 1.18.781 2.16.781zm18.481-5.07c-2.301 0-4.11.77-5.43 2.309s-1.981 3.652-1.981 6.332c0 2.66.61 4.769 1.829 6.328 1.242 1.539 3.089 2.308 5.55 2.308.922 0 1.801-.078 2.641-.238s1.668-.359 2.488-.602v2.34c-.801.301-1.629.524-2.488.66-.84.141-1.852.211-3.031.211-2.18 0-4-.449-5.461-1.347-1.457-.903-2.559-2.184-3.297-3.84-.723-1.66-1.082-3.613-1.082-5.852 0-2.16.391-4.058 1.172-5.699.797-1.66 1.969-2.949 3.508-3.871 1.539-.941 3.41-1.41 5.609-1.41 2.262 0 4.23.422 5.91 1.262l-1.078 2.277c-.66-.297-1.402-.57-2.219-.809-.801-.238-1.683-.359-2.64-.359z" transform="scale(1.3333333)"/>
  <path id="path26" d="m426.043 264.566v18.196" fill="none" stroke="#252525" stroke-miterlimit="10" stroke-width="2.25" transform="scale(1.3333333)"/>
  <path id="path27" d="m105.203 264.566v18.196" fill="none" stroke="#252525" stroke-miterlimit="10" stroke-width="2.25" transform="scale(1.3333333)"/>
  <path id="path28" d="m400.008 311.754h-2.578v-14.969c0-.859.008-1.551.027-2.07.02-.52.051-1.063.09-1.621-.32.32-.621.59-.899.808-.261.223-.582.5-.96.844l-2.282 1.859-1.379-1.769 5.789-4.5h2.192zm22.199-10.738c0 2.32-.238 4.296-.719 5.937-.48 1.641-1.25 2.902-2.308 3.781-1.043.879-2.41 1.321-4.114 1.321-2.418 0-4.207-.969-5.367-2.91-1.14-1.961-1.711-4.672-1.711-8.129 0-2.321.231-4.301.692-5.942.476-1.64 1.238-2.89 2.277-3.75 1.039-.879 2.41-1.32 4.109-1.32 2.403 0 4.192.969 5.372 2.91 1.179 1.922 1.769 4.621 1.769 8.102zm-11.578 0c0 2.937.328 5.136.988 6.597.68 1.461 1.832 2.192 3.449 2.192 1.602 0 2.743-.719 3.422-2.16.7-1.461 1.051-3.672 1.051-6.629 0-2.922-.351-5.114-1.051-6.571-.679-1.461-1.82-2.191-3.422-2.191-1.617 0-2.769.73-3.449 2.191-.66 1.457-.988 3.649-.988 6.571zm28.738 0c0 2.32-.238 4.296-.719 5.937-.48 1.641-1.25 2.902-2.312 3.781-1.039.879-2.41 1.321-4.109 1.321-2.418 0-4.207-.969-5.368-2.91-1.14-1.961-1.711-4.672-1.711-8.129 0-2.321.231-4.301.688-5.942.48-1.64 1.242-2.89 2.281-3.75 1.039-.879 2.41-1.32 4.11-1.32 2.402 0 4.191.969 5.371 2.91 1.179 1.922 1.769 4.621 1.769 8.102zm-11.578 0c0 2.937.328 5.136.988 6.597.68 1.461 1.832 2.192 3.45 2.192 1.601 0 2.742-.719 3.421-2.16.7-1.461 1.051-3.672 1.051-6.629 0-2.922-.351-5.114-1.051-6.571-.679-1.461-1.82-2.191-3.421-2.191-1.618 0-2.77.73-3.45 2.191-.66 1.457-.988 3.649-.988 6.571zm25.469-1.77c-1.442 0-2.602-.422-3.481-1.262-.859-.859-1.289-1.968-1.289-3.332 0-1.359.418-2.468 1.258-3.328.863-.859 2.031-1.289 3.512-1.289 1.398 0 2.539.43 3.418 1.289.902.86 1.351 1.969 1.351 3.328 0 1.364-.449 2.473-1.351 3.332-.879.84-2.02 1.262-3.418 1.262zm.031-1.773c.957 0 1.66-.258 2.098-.778.461-.519.691-1.199.691-2.043 0-.879-.242-1.578-.719-2.097-.461-.52-1.152-.782-2.07-.782-.98 0-1.703.262-2.16.782-.461.519-.691 1.218-.691 2.097 0 .844.23 1.524.691 2.043.457.52 1.18.778 2.16.778zm18.481-5.071c-2.301 0-4.114.774-5.434 2.313-1.316 1.539-1.977 3.648-1.977 6.328 0 2.66.61 4.769 1.829 6.332 1.238 1.539 3.089 2.309 5.55 2.309.918 0 1.801-.079 2.641-.239s1.668-.363 2.488-.601v2.34c-.801.3-1.629.519-2.488.66-.84.14-1.852.211-3.031.211-2.18 0-4-.45-5.461-1.352-1.461-.898-2.559-2.18-3.301-3.84-.719-1.66-1.078-3.609-1.078-5.847 0-2.161.39-4.063 1.168-5.704.801-1.66 1.972-2.949 3.512-3.867 1.539-.941 3.41-1.41 5.609-1.41 2.262 0 4.23.418 5.91 1.258l-1.078 2.281c-.66-.301-1.402-.57-2.223-.808-.797-.243-1.679-.364-2.636-.364z" transform="scale(1.3333333)"/>
  <path id="path29" d="m568.203 300.684h-2.699v-19.051h-6.692v-2.367h16.051v2.367h-6.66z" transform="scale(1.3333333)"/>
  <path id="path30" d="m325.473 26.277c1.98 0 3.57.688 4.769 2.071 1.219 1.379 1.832 3.457 1.832 6.238 0 2.742-.613 4.82-1.832 6.242-1.199 1.418-2.801 2.129-4.801 2.129-1.238 0-2.269-.23-3.089-.691-.797-.461-1.43-1.008-1.891-1.649h-.18c.024.34.051.77.09 1.289.063.52.094.969.094 1.352v6.597h-2.641v-23.277h2.16l.36 2.188h.121c.476-.7 1.109-1.289 1.887-1.77.781-.48 1.82-.719 3.121-.719zm-.481 2.219c-1.64 0-2.801.461-3.48 1.379-.68.922-1.028 2.32-1.051 4.203v.508c0 1.98.32 3.512.961 4.59.66 1.062 1.871 1.59 3.633 1.59.957 0 1.757-.258 2.398-.778.641-.543 1.109-1.281 1.41-2.222.321-.938.481-2.008.481-3.211 0-1.84-.36-3.309-1.082-4.41-.7-1.098-1.789-1.649-3.27-1.649z" transform="scale(1.3333333)"/>
  <path id="path31" d="m457.223 82c1.961 0 3.41.43 4.351 1.289.938.859 1.41 2.231 1.41 4.109v10.95h-1.922l-.507-2.282h-.121c-.7.883-1.442 1.532-2.219 1.954-.781.418-1.84.628-3.18.628-1.461 0-2.672-.378-3.633-1.14-.957-.781-1.437-1.988-1.437-3.629 0-1.602.629-2.832 1.89-3.691 1.258-.879 3.2-1.36 5.817-1.442l2.73-.09v-.957c0-1.34-.289-2.269-.867-2.793-.582-.519-1.402-.777-2.461-.777-.84 0-1.64.129-2.402.391-.758.238-1.469.519-2.129.839l-.809-1.98c.7-.379 1.532-.699 2.489-.961.961-.281 1.961-.418 3-.418zm3.152 8.488-2.371.09c-2 .078-3.391.399-4.172.961-.758.559-1.137 1.348-1.137 2.367 0 .903.27 1.563.809 1.981.558.422 1.269.633 2.129.633 1.34 0 2.461-.372 3.359-1.114.922-.758 1.383-1.918 1.383-3.476z" fill="#e66100" transform="scale(1.3333333)"/>
  <path id="path32" d="m483.789 122.34v5.547c0 .683-.019 1.32-.059 1.922-.023.578-.05 1.039-.089 1.379h.148c.461-.68 1.09-1.25 1.891-1.711.8-.457 1.828-.688 3.09-.688 2 0 3.597.699 4.8 2.098 1.219 1.383 1.828 3.453 1.828 6.211 0 2.761-.609 4.84-1.828 6.242-1.222 1.398-2.82 2.098-4.8 2.098-1.262 0-2.29-.231-3.09-.688-.801-.461-1.43-1.012-1.891-1.652h-.211l-.539 2.039h-1.891v-22.797zm4.531 8.637c-1.722 0-2.91.492-3.57 1.472-.641.981-.961 2.5-.961 4.559v.121c0 1.98.32 3.5.961 4.559.66 1.039 1.867 1.562 3.629 1.562 1.441 0 2.512-.531 3.211-1.59.719-1.062 1.078-2.59 1.078-4.59 0-4.062-1.449-6.093-4.348-6.093z" fill="#3584e4" transform="scale(1.3333333)"/>
  <path id="path33" d="m512.031 203.363c-1.437 0-2.707-.289-3.808-.871-1.102-.578-1.969-1.48-2.61-2.699-.621-1.219-.929-2.781-.929-4.68 0-1.98.32-3.59.961-4.832.66-1.238 1.558-2.148 2.699-2.726 1.14-.582 2.429-.871 3.867-.871.801 0 1.582.089 2.344.269.777.16 1.406.359 1.886.602l-.808 2.187c-.481-.18-1.039-.347-1.68-.508-.641-.16-1.242-.242-1.801-.242-3.16 0-4.738 2.031-4.738 6.09 0 1.941.379 3.43 1.141 4.473.777 1.019 1.929 1.527 3.449 1.527.859 0 1.629-.09 2.308-.27.68-.179 1.301-.398 1.86-.66v2.34c-.539.281-1.141.492-1.801.633-.637.156-1.418.238-2.34.238z" fill="#33d17a" transform="scale(1.3333333)"/>
 </g>
</svg>
