<?xml version="1.0" encoding="UTF-8"?>
<!-- Converted by misc2svg (http://www.network-science.de/tools/misc2svg/) -->
<svg xmlns="http://www.w3.org/2000/svg" xmlns:xlink="http://www.w3.org/1999/xlink" width="485pt" height="482pt" viewBox="0 0 485 482" version="1.1">
<g id="misc2svg">
<path style="fill:none;stroke-width:4.99962;stroke-linecap:round;stroke-linejoin:round;stroke:rgb(0%,0%,0%);stroke-opacity:1;stroke-miterlimit:10;" d="M 373.25 3611.3375 L 373.25 356.55625 " transform="matrix(0.125, 0, 0, -0.125, 0, 481.987)"/>
<path style=" stroke:none;fill-rule:nonzero;fill:rgb(0%,0%,0%);fill-opacity:1;" d="M 46.65625 21.195312 L 44.140625 30.570312 L 49.164062 30.570312 L 46.65625 21.195312 "/>
<path style="fill:none;stroke-width:4.99962;stroke-linecap:round;stroke-linejoin:round;stroke:rgb(0%,0%,0%);stroke-opacity:1;stroke-miterlimit:10;" d="M 373.25 3686.3375 L 353.125 3611.3375 L 393.3125 3611.3375 L 373.25 3686.3375 Z M 373.25 3686.3375 " transform="matrix(0.125, 0, 0, -0.125, 0, 481.987)"/>
<path style="fill:none;stroke-width:4.99962;stroke-linecap:round;stroke-linejoin:round;stroke:rgb(0%,0%,0%);stroke-opacity:1;stroke-miterlimit:10;" d="M 373.25 356.55625 L 429.90625 356.55625 " transform="matrix(0.125, 0, 0, -0.125, 0, 481.987)"/>
<path style="fill:none;stroke-width:4.99962;stroke-linecap:round;stroke-linejoin:round;stroke:rgb(0%,0%,0%);stroke-opacity:1;stroke-miterlimit:10;" d="M 373.25 973.2125 L 429.90625 973.2125 " transform="matrix(0.125, 0, 0, -0.125, 0, 481.987)"/>
<path style="fill:none;stroke-width:4.99962;stroke-linecap:round;stroke-linejoin:round;stroke:rgb(0%,0%,0%);stroke-opacity:1;stroke-miterlimit:10;" d="M 373.25 1589.80625 L 429.90625 1589.80625 " transform="matrix(0.125, 0, 0, -0.125, 0, 481.987)"/>
<path style="fill:none;stroke-width:4.99962;stroke-linecap:round;stroke-linejoin:round;stroke:rgb(0%,0%,0%);stroke-opacity:1;stroke-miterlimit:10;" d="M 373.25 2206.43125 L 429.90625 2206.43125 " transform="matrix(0.125, 0, 0, -0.125, 0, 481.987)"/>
<path style="fill:none;stroke-width:4.99962;stroke-linecap:round;stroke-linejoin:round;stroke:rgb(0%,0%,0%);stroke-opacity:1;stroke-miterlimit:10;" d="M 373.25 2823.0875 L 429.90625 2823.0875 " transform="matrix(0.125, 0, 0, -0.125, 0, 481.987)"/>
<path style="fill:none;stroke-width:4.99962;stroke-linecap:round;stroke-linejoin:round;stroke:rgb(0%,0%,0%);stroke-opacity:1;stroke-miterlimit:10;" d="M 373.25 3439.68125 L 429.90625 3439.68125 " transform="matrix(0.125, 0, 0, -0.125, 0, 481.987)"/>
<path style="fill:none;stroke-width:4.99962;stroke-linecap:round;stroke-linejoin:round;stroke:rgb(0%,0%,0%);stroke-opacity:1;stroke-miterlimit:10;" d="M 373.25 664.9 L 401.5625 664.9 " transform="matrix(0.125, 0, 0, -0.125, 0, 481.987)"/>
<path style="fill:none;stroke-width:4.99962;stroke-linecap:round;stroke-linejoin:round;stroke:rgb(0%,0%,0%);stroke-opacity:1;stroke-miterlimit:10;" d="M 373.25 1281.525 L 401.5625 1281.525 " transform="matrix(0.125, 0, 0, -0.125, 0, 481.987)"/>
<path style="fill:none;stroke-width:4.99962;stroke-linecap:round;stroke-linejoin:round;stroke:rgb(0%,0%,0%);stroke-opacity:1;stroke-miterlimit:10;" d="M 373.25 1898.11875 L 401.5625 1898.11875 " transform="matrix(0.125, 0, 0, -0.125, 0, 481.987)"/>
<path style="fill:none;stroke-width:4.99962;stroke-linecap:round;stroke-linejoin:round;stroke:rgb(0%,0%,0%);stroke-opacity:1;stroke-miterlimit:10;" d="M 373.25 2514.775 L 401.5625 2514.775 " transform="matrix(0.125, 0, 0, -0.125, 0, 481.987)"/>
<path style="fill:none;stroke-width:4.99962;stroke-linecap:round;stroke-linejoin:round;stroke:rgb(0%,0%,0%);stroke-opacity:1;stroke-miterlimit:10;" d="M 373.25 3131.36875 L 401.5625 3131.36875 " transform="matrix(0.125, 0, 0, -0.125, 0, 481.987)"/>
<path style="fill:none;stroke-width:4.99962;stroke-linecap:round;stroke-linejoin:round;stroke:rgb(0%,0%,0%);stroke-opacity:1;stroke-miterlimit:10;" d="M 3631.3125 356.55625 L 373.25 356.55625 " transform="matrix(0.125, 0, 0, -0.125, 0, 481.987)"/>
<path style=" stroke:none;fill-rule:nonzero;fill:rgb(0%,0%,0%);fill-opacity:1;" d="M 463.289062 437.417969 L 453.914062 434.902344 L 453.914062 439.925781 L 463.289062 437.417969 "/>
<path style="fill:none;stroke-width:4.99962;stroke-linecap:round;stroke-linejoin:round;stroke:rgb(0%,0%,0%);stroke-opacity:1;stroke-miterlimit:10;" d="M 3706.3125 356.55625 L 3631.3125 376.68125 L 3631.3125 336.49375 L 3706.3125 356.55625 Z M 3706.3125 356.55625 " transform="matrix(0.125, 0, 0, -0.125, 0, 481.987)"/>
<path style="fill:none;stroke-width:4.99962;stroke-linecap:round;stroke-linejoin:round;stroke:rgb(0%,0%,0%);stroke-opacity:1;stroke-miterlimit:10;" d="M 1039.84375 356.55625 L 1039.84375 299.9 " transform="matrix(0.125, 0, 0, -0.125, 0, 481.987)"/>
<path style="fill:none;stroke-width:4.99962;stroke-linecap:round;stroke-linejoin:round;stroke:rgb(0%,0%,0%);stroke-opacity:1;stroke-miterlimit:10;" d="M 1706.5 356.55625 L 1706.5 299.9 " transform="matrix(0.125, 0, 0, -0.125, 0, 481.987)"/>
<path style="fill:none;stroke-width:4.99962;stroke-linecap:round;stroke-linejoin:round;stroke:rgb(0%,0%,0%);stroke-opacity:1;stroke-miterlimit:10;" d="M 2373.09375 356.55625 L 2373.09375 299.9 " transform="matrix(0.125, 0, 0, -0.125, 0, 481.987)"/>
<path style="fill:none;stroke-width:4.99962;stroke-linecap:round;stroke-linejoin:round;stroke:rgb(0%,0%,0%);stroke-opacity:1;stroke-miterlimit:10;" d="M 3039.6875 356.55625 L 3039.6875 299.9 " transform="matrix(0.125, 0, 0, -0.125, 0, 481.987)"/>
<path style="fill:none;stroke-width:4.99962;stroke-linecap:round;stroke-linejoin:round;stroke:rgb(0%,0%,0%);stroke-opacity:1;stroke-miterlimit:10;" d="M 539.875 356.55625 L 539.875 328.24375 " transform="matrix(0.125, 0, 0, -0.125, 0, 481.987)"/>
<path style="fill:none;stroke-width:4.99962;stroke-linecap:round;stroke-linejoin:round;stroke:rgb(0%,0%,0%);stroke-opacity:1;stroke-miterlimit:10;" d="M 706.5625 356.55625 L 706.5625 328.24375 " transform="matrix(0.125, 0, 0, -0.125, 0, 481.987)"/>
<path style="fill:none;stroke-width:4.99962;stroke-linecap:round;stroke-linejoin:round;stroke:rgb(0%,0%,0%);stroke-opacity:1;stroke-miterlimit:10;" d="M 873.1875 356.55625 L 873.1875 328.24375 " transform="matrix(0.125, 0, 0, -0.125, 0, 481.987)"/>
<path style="fill:none;stroke-width:4.99962;stroke-linecap:round;stroke-linejoin:round;stroke:rgb(0%,0%,0%);stroke-opacity:1;stroke-miterlimit:10;" d="M 1206.53125 356.55625 L 1206.53125 328.24375 " transform="matrix(0.125, 0, 0, -0.125, 0, 481.987)"/>
<path style="fill:none;stroke-width:4.99962;stroke-linecap:round;stroke-linejoin:round;stroke:rgb(0%,0%,0%);stroke-opacity:1;stroke-miterlimit:10;" d="M 1373.15625 356.55625 L 1373.15625 328.24375 " transform="matrix(0.125, 0, 0, -0.125, 0, 481.987)"/>
<path style="fill:none;stroke-width:4.99962;stroke-linecap:round;stroke-linejoin:round;stroke:rgb(0%,0%,0%);stroke-opacity:1;stroke-miterlimit:10;" d="M 1539.8125 356.55625 L 1539.8125 328.24375 " transform="matrix(0.125, 0, 0, -0.125, 0, 481.987)"/>
<path style="fill:none;stroke-width:4.99962;stroke-linecap:round;stroke-linejoin:round;stroke:rgb(0%,0%,0%);stroke-opacity:1;stroke-miterlimit:10;" d="M 1873.125 356.55625 L 1873.125 328.24375 " transform="matrix(0.125, 0, 0, -0.125, 0, 481.987)"/>
<path style="fill:none;stroke-width:4.99962;stroke-linecap:round;stroke-linejoin:round;stroke:rgb(0%,0%,0%);stroke-opacity:1;stroke-miterlimit:10;" d="M 2039.78125 356.55625 L 2039.78125 328.24375 " transform="matrix(0.125, 0, 0, -0.125, 0, 481.987)"/>
<path style="fill:none;stroke-width:4.99962;stroke-linecap:round;stroke-linejoin:round;stroke:rgb(0%,0%,0%);stroke-opacity:1;stroke-miterlimit:10;" d="M 2206.4375 356.55625 L 2206.4375 328.24375 " transform="matrix(0.125, 0, 0, -0.125, 0, 481.987)"/>
<path style="fill:none;stroke-width:4.99962;stroke-linecap:round;stroke-linejoin:round;stroke:rgb(0%,0%,0%);stroke-opacity:1;stroke-miterlimit:10;" d="M 2539.71875 356.55625 L 2539.71875 328.24375 " transform="matrix(0.125, 0, 0, -0.125, 0, 481.987)"/>
<path style="fill:none;stroke-width:4.99962;stroke-linecap:round;stroke-linejoin:round;stroke:rgb(0%,0%,0%);stroke-opacity:1;stroke-miterlimit:10;" d="M 2706.40625 356.55625 L 2706.40625 328.24375 " transform="matrix(0.125, 0, 0, -0.125, 0, 481.987)"/>
<path style="fill:none;stroke-width:4.99962;stroke-linecap:round;stroke-linejoin:round;stroke:rgb(0%,0%,0%);stroke-opacity:1;stroke-miterlimit:10;" d="M 2873.03125 356.55625 L 2873.03125 328.24375 " transform="matrix(0.125, 0, 0, -0.125, 0, 481.987)"/>
<path style="fill:none;stroke-width:4.99962;stroke-linecap:round;stroke-linejoin:round;stroke:rgb(0%,0%,0%);stroke-opacity:1;stroke-miterlimit:10;" d="M 3206.375 356.55625 L 3206.375 328.24375 " transform="matrix(0.125, 0, 0, -0.125, 0, 481.987)"/>
<path style="fill:none;stroke-width:4.99962;stroke-linecap:round;stroke-linejoin:round;stroke:rgb(0%,0%,0%);stroke-opacity:1;stroke-miterlimit:10;" d="M 3373 356.55625 L 3373 328.24375 " transform="matrix(0.125, 0, 0, -0.125, 0, 481.987)"/>
<path style="fill:none;stroke-width:4.99962;stroke-linecap:round;stroke-linejoin:round;stroke:rgb(0%,0%,0%);stroke-opacity:1;stroke-miterlimit:10;" d="M 3539.65625 356.55625 L 3539.65625 328.24375 " transform="matrix(0.125, 0, 0, -0.125, 0, 481.987)"/>
<path style="fill:none;stroke-width:4.99962;stroke-linecap:round;stroke-linejoin:round;stroke:rgb(0%,0%,0%);stroke-opacity:1;stroke-miterlimit:10;" d="M 373.25 356.55625 L 406.5625 356.55625 L 439.875 356.61875 L 473.25 356.61875 L 506.5625 356.61875 L 539.875 356.61875 L 573.25 356.65 L 606.5625 356.68125 L 639.875 356.7125 L 673.1875 356.80625 L 706.5625 356.93125 L 739.875 357.11875 L 773.1875 357.30625 L 806.53125 357.5875 L 839.875 357.93125 L 873.1875 358.36875 L 906.53125 358.86875 L 939.84375 359.49375 L 973.1875 360.24375 L 1006.53125 361.15 L 1039.84375 362.18125 L 1073.15625 363.4 L 1106.53125 364.775 L 1139.84375 366.36875 L 1173.15625 368.18125 L 1206.53125 370.24375 L 1239.84375 372.5875 L 1273.15625 375.15 L 1306.5 378.0875 L 1339.84375 381.3375 L 1373.15625 384.93125 L 1406.5 388.86875 L 1439.8125 393.24375 L 1473.15625 398.05625 L 1506.5 403.3375 L 1539.8125 409.05625 L 1573.125 415.30625 L 1606.5 422.11875 L 1639.8125 429.49375 L 1673.125 437.4625 L 1706.5 446.0875 L 1739.8125 455.4 L 1773.125 465.4 L 1806.4375 476.15 L 1839.8125 487.61875 L 1873.125 499.9625 L 1906.4375 513.11875 L 1939.8125 527.18125 L 1973.125 542.18125 L 2006.4375 558.15 L 2039.78125 575.11875 L 2073.125 593.11875 L 2106.4375 612.2125 L 2139.75 632.4625 L 2173.09375 653.9 L 2206.4375 676.525 L 2239.75 700.43125 L 2273.09375 725.65 L 2306.4375 752.275 L 2339.75 780.275 L 2373.09375 809.7125 L 2406.40625 840.7125 L 2439.75 873.24375 L 2473.09375 907.4 L 2506.40625 943.2125 L 2539.71875 980.74375 L 2573.09375 1020.025 L 2606.40625 1061.18125 L 2639.71875 1104.18125 L 2673.03125 1149.15 L 2706.40625 1196.0875 L 2739.71875 1245.11875 L 2773.03125 1296.2125 L 2806.40625 1349.525 L 2839.71875 1405.025 L 2873.03125 1462.9 L 2906.375 1523.0875 L 2939.71875 1585.7125 L 2973.03125 1650.8375 L 3006.375 1718.4625 L 3039.6875 1788.74375 L 3073.03125 1861.7125 L 3106.375 1937.43125 L 3139.6875 2015.99375 L 3173.03125 2097.4 L 3206.375 2181.775 L 3239.6875 2269.18125 L 3273 2359.7125 L 3306.375 2453.4 L 3339.6875 2550.36875 L 3373 2650.61875 L 3406.3125 2754.30625 L 3439.6875 2861.43125 L 3473 2972.15 L 3506.3125 3086.43125 L 3539.65625 3204.49375 L 3573 3326.275 L 3606.3125 3451.99375 L 3639.65625 3581.65 L 3673 3715.275 L 3706.3125 3853.0875 " transform="matrix(0.125, 0, 0, -0.125, 0, 481.987)"/>
<path style="fill:none;stroke-width:4.99962;stroke-linecap:round;stroke-linejoin:round;stroke:rgb(50.196078%,50.196078%,100%);stroke-opacity:1;stroke-miterlimit:10;" d="M 373.25 356.55625 L 406.5625 356.55625 L 439.875 356.61875 L 473.25 356.61875 L 506.5625 356.61875 L 539.875 356.61875 L 573.25 356.65 L 606.5625 356.65 L 639.875 356.7125 L 673.1875 356.80625 L 706.5625 356.93125 L 739.875 357.0875 L 773.1875 357.275 L 806.53125 357.49375 L 839.875 357.80625 L 873.1875 358.2125 L 906.53125 358.7125 L 939.84375 359.30625 L 973.1875 359.9625 L 1006.53125 360.775 L 1039.84375 361.775 L 1073.15625 362.86875 L 1106.53125 364.15 L 1139.84375 365.61875 L 1173.15625 367.30625 L 1206.53125 369.2125 L 1239.84375 371.3375 L 1273.15625 373.74375 L 1306.5 376.4625 L 1339.84375 379.43125 L 1373.15625 382.74375 L 1406.5 386.4 L 1439.8125 390.4625 L 1473.15625 394.9 L 1506.5 399.775 L 1539.8125 405.0875 L 1573.125 410.86875 L 1606.5 417.11875 L 1639.8125 423.9625 L 1673.125 431.3375 L 1706.5 439.30625 L 1739.8125 447.86875 L 1773.125 457.11875 L 1806.4375 467.025 L 1839.8125 477.65 L 1873.125 489.05625 L 1906.4375 501.2125 L 1939.8125 514.2125 L 1973.125 528.0875 L 2006.4375 542.80625 L 2039.78125 558.4625 L 2073.125 575.11875 L 2106.4375 592.775 L 2139.75 611.49375 L 2173.09375 631.275 L 2206.4375 652.18125 L 2239.75 674.30625 L 2273.09375 697.5875 L 2306.4375 722.15 L 2339.75 748.05625 L 2373.09375 775.275 L 2406.40625 803.86875 L 2439.75 833.9625 L 2473.09375 865.4625 L 2506.40625 898.5875 L 2539.71875 933.24375 L 2573.09375 969.5875 L 2606.40625 1007.5875 L 2639.71875 1047.30625 L 2673.03125 1088.86875 L 2706.40625 1132.2125 L 2739.71875 1177.49375 L 2773.03125 1224.775 L 2806.40625 1273.99375 L 2839.71875 1325.30625 L 2873.03125 1378.74375 L 2906.375 1434.36875 L 2939.71875 1492.2125 L 2973.03125 1552.4 L 3006.375 1614.9 L 3039.6875 1679.80625 L 3073.03125 1747.2125 L 3106.375 1817.18125 L 3139.6875 1889.74375 L 3173.03125 1964.9625 L 3206.375 2042.93125 L 3239.6875 2123.7125 L 3273 2207.3375 L 3306.375 2293.9 L 3339.6875 2383.4625 L 3373 2476.15 L 3406.3125 2571.9 L 3439.6875 2670.93125 L 3473 2773.2125 L 3506.3125 2878.8375 L 3539.65625 2987.9 L 3573 3100.43125 L 3606.3125 3216.55625 L 3639.65625 3336.3375 L 3673 3459.80625 L 3706.3125 3587.11875 " transform="matrix(0.125, 0, 0, -0.125, 0, 481.987)"/>
<path style=" stroke:none;fill-rule:nonzero;fill:rgb(0%,0%,0%);fill-opacity:1;" d="M 37.390625 433.191406 C 36.570312 433.191406 35.945312 433.445312 35.398438 433.972656 C 34.519531 434.792969 33.953125 436.511719 33.953125 438.269531 C 33.953125 439.890625 34.460938 441.648438 35.164062 442.488281 C 35.710938 443.132812 36.472656 443.503906 37.332031 443.503906 C 38.09375 443.503906 38.738281 443.25 39.285156 442.722656 C 40.144531 441.902344 40.710938 440.164062 40.710938 438.367188 C 40.710938 435.300781 39.363281 433.191406 37.390625 433.191406 Z M 37.351562 433.582031 C 38.601562 433.582031 39.285156 435.261719 39.285156 438.386719 C 39.285156 441.511719 38.621094 443.113281 37.332031 443.113281 C 36.042969 443.113281 35.398438 441.511719 35.398438 438.40625 C 35.398438 435.242188 36.0625 433.582031 37.351562 433.582031 Z M 37.351562 433.582031 "/>
<path style=" stroke:none;fill-rule:nonzero;fill:rgb(0%,0%,0%);fill-opacity:1;" d="M 6.304688 356.238281 L 3.609375 357.585938 L 3.609375 357.800781 C 3.785156 357.722656 3.960938 357.664062 4.019531 357.644531 C 4.273438 357.527344 4.527344 357.46875 4.683594 357.46875 C 4.996094 357.46875 5.132812 357.703125 5.132812 358.171875 L 5.132812 364.949219 C 5.132812 365.4375 5.015625 365.789062 4.78125 365.925781 C 4.546875 366.042969 4.332031 366.101562 3.707031 366.121094 L 3.707031 366.335938 L 7.828125 366.335938 L 7.828125 366.121094 C 6.65625 366.101562 6.421875 365.945312 6.421875 365.222656 L 6.421875 356.257812 L 6.304688 356.238281 Z M 6.304688 356.238281 "/>
<path style=" stroke:none;fill-rule:nonzero;fill:rgb(0%,0%,0%);fill-opacity:1;" d="M 19.023438 365.808594 L 15.683594 362.488281 L 19.023438 359.167969 L 18.417969 358.5625 L 15.097656 361.902344 L 11.777344 358.5625 L 11.191406 359.167969 L 14.511719 362.488281 L 11.191406 365.808594 L 11.777344 366.414062 L 15.097656 363.074219 L 18.417969 366.414062 L 19.023438 365.808594 Z M 19.023438 365.808594 "/>
<path style=" stroke:none;fill-rule:nonzero;fill:rgb(0%,0%,0%);fill-opacity:1;" d="M 25.054688 356.238281 L 22.359375 357.585938 L 22.359375 357.800781 C 22.535156 357.722656 22.710938 357.664062 22.769531 357.644531 C 23.023438 357.527344 23.277344 357.46875 23.433594 357.46875 C 23.746094 357.46875 23.882812 357.703125 23.882812 358.171875 L 23.882812 364.949219 C 23.882812 365.4375 23.765625 365.789062 23.53125 365.925781 C 23.296875 366.042969 23.082031 366.101562 22.457031 366.121094 L 22.457031 366.335938 L 26.578125 366.335938 L 26.578125 366.121094 C 25.40625 366.101562 25.171875 365.945312 25.171875 365.222656 L 25.171875 356.257812 L 25.054688 356.238281 Z M 25.054688 356.238281 "/>
<path style=" stroke:none;fill-rule:nonzero;fill:rgb(0%,0%,0%);fill-opacity:1;" d="M 31.988281 356.238281 C 31.167969 356.238281 30.542969 356.492188 29.996094 357.019531 C 29.117188 357.839844 28.550781 359.558594 28.550781 361.316406 C 28.550781 362.9375 29.058594 364.695312 29.761719 365.535156 C 30.308594 366.179688 31.070312 366.550781 31.929688 366.550781 C 32.691406 366.550781 33.335938 366.296875 33.882812 365.769531 C 34.742188 364.949219 35.308594 363.210938 35.308594 361.414062 C 35.308594 358.347656 33.960938 356.238281 31.988281 356.238281 Z M 31.949219 356.628906 C 33.199219 356.628906 33.882812 358.308594 33.882812 361.433594 C 33.882812 364.558594 33.21875 366.160156 31.929688 366.160156 C 30.640625 366.160156 29.996094 364.558594 29.996094 361.453125 C 29.996094 358.289062 30.660156 356.628906 31.949219 356.628906 Z M 31.949219 356.628906 "/>
<path style=" stroke:none;fill-rule:nonzero;fill:rgb(0%,0%,0%);fill-opacity:1;" d="M 38.589844 357.097656 C 39.566406 356.570312 39.917969 356.140625 39.917969 355.476562 C 39.917969 354.65625 39.214844 354.050781 38.21875 354.050781 C 37.125 354.050781 36.324219 354.714844 36.324219 355.632812 C 36.324219 356.277344 36.5 356.570312 37.554688 357.488281 C 36.480469 358.308594 36.265625 358.601562 36.265625 359.285156 C 36.265625 360.242188 37.046875 360.925781 38.160156 360.925781 C 39.371094 360.925781 40.132812 360.261719 40.132812 359.246094 C 40.132812 358.484375 39.800781 357.996094 38.589844 357.097656 Z M 38.414062 358.113281 C 39.136719 358.640625 39.371094 358.992188 39.371094 359.558594 C 39.371094 360.203125 38.921875 360.652344 38.277344 360.652344 C 37.515625 360.652344 37.007812 360.066406 37.007812 359.207031 C 37.007812 358.5625 37.242188 358.152344 37.808594 357.683594 L 38.414062 358.113281 Z M 38.296875 356.921875 C 37.417969 356.335938 37.046875 355.886719 37.046875 355.320312 C 37.046875 354.734375 37.496094 354.34375 38.121094 354.34375 C 38.804688 354.34375 39.234375 354.773438 39.234375 355.457031 C 39.234375 356.023438 38.960938 356.472656 38.394531 356.863281 C 38.335938 356.882812 38.335938 356.882812 38.296875 356.921875 Z M 38.296875 356.921875 "/>
<path style=" stroke:none;fill-rule:nonzero;fill:rgb(0%,0%,0%);fill-opacity:1;" d="M 9.039062 287.1875 L 8.84375 287.109375 C 8.296875 287.96875 8.101562 288.105469 7.4375 288.105469 L 3.863281 288.105469 L 6.363281 285.46875 C 7.710938 284.082031 8.277344 282.949219 8.277344 281.777344 C 8.277344 280.292969 7.066406 279.140625 5.523438 279.140625 C 4.703125 279.140625 3.921875 279.472656 3.375 280.058594 C 2.886719 280.566406 2.671875 281.054688 2.417969 282.109375 L 2.730469 282.1875 C 3.316406 280.722656 3.863281 280.234375 4.898438 280.234375 C 6.148438 280.234375 7.007812 281.09375 7.007812 282.34375 C 7.007812 283.515625 6.304688 284.902344 5.054688 286.230469 L 2.398438 289.0625 L 2.398438 289.238281 L 8.21875 289.238281 L 9.039062 287.1875 Z M 9.039062 287.1875 "/>
<path style=" stroke:none;fill-rule:nonzero;fill:rgb(0%,0%,0%);fill-opacity:1;" d="M 19.023438 288.710938 L 15.683594 285.390625 L 19.023438 282.070312 L 18.417969 281.464844 L 15.097656 284.804688 L 11.777344 281.464844 L 11.191406 282.070312 L 14.511719 285.390625 L 11.191406 288.710938 L 11.777344 289.316406 L 15.097656 285.976562 L 18.417969 289.316406 L 19.023438 288.710938 Z M 19.023438 288.710938 "/>
<path style=" stroke:none;fill-rule:nonzero;fill:rgb(0%,0%,0%);fill-opacity:1;" d="M 25.054688 279.140625 L 22.359375 280.488281 L 22.359375 280.703125 C 22.535156 280.625 22.710938 280.566406 22.769531 280.546875 C 23.023438 280.429688 23.277344 280.371094 23.433594 280.371094 C 23.746094 280.371094 23.882812 280.605469 23.882812 281.074219 L 23.882812 287.851562 C 23.882812 288.339844 23.765625 288.691406 23.53125 288.828125 C 23.296875 288.945312 23.082031 289.003906 22.457031 289.023438 L 22.457031 289.238281 L 26.578125 289.238281 L 26.578125 289.023438 C 25.40625 289.003906 25.171875 288.847656 25.171875 288.125 L 25.171875 279.160156 L 25.054688 279.140625 Z M 25.054688 279.140625 "/>
<path style=" stroke:none;fill-rule:nonzero;fill:rgb(0%,0%,0%);fill-opacity:1;" d="M 31.988281 279.140625 C 31.167969 279.140625 30.542969 279.394531 29.996094 279.921875 C 29.117188 280.742188 28.550781 282.460938 28.550781 284.21875 C 28.550781 285.839844 29.058594 287.597656 29.761719 288.4375 C 30.308594 289.082031 31.070312 289.453125 31.929688 289.453125 C 32.691406 289.453125 33.335938 289.199219 33.882812 288.671875 C 34.742188 287.851562 35.308594 286.113281 35.308594 284.316406 C 35.308594 281.25 33.960938 279.140625 31.988281 279.140625 Z M 31.949219 279.53125 C 33.199219 279.53125 33.882812 281.210938 33.882812 284.335938 C 33.882812 287.460938 33.21875 289.0625 31.929688 289.0625 C 30.640625 289.0625 29.996094 287.460938 29.996094 284.355469 C 29.996094 281.191406 30.660156 279.53125 31.949219 279.53125 Z M 31.949219 279.53125 "/>
<path style=" stroke:none;fill-rule:nonzero;fill:rgb(0%,0%,0%);fill-opacity:1;" d="M 38.589844 279.996094 C 39.566406 279.46875 39.917969 279.039062 39.917969 278.375 C 39.917969 277.554688 39.214844 276.949219 38.21875 276.949219 C 37.125 276.949219 36.324219 277.613281 36.324219 278.53125 C 36.324219 279.175781 36.5 279.46875 37.554688 280.386719 C 36.480469 281.207031 36.265625 281.5 36.265625 282.183594 C 36.265625 283.140625 37.046875 283.824219 38.160156 283.824219 C 39.371094 283.824219 40.132812 283.160156 40.132812 282.144531 C 40.132812 281.382812 39.800781 280.894531 38.589844 279.996094 Z M 38.414062 281.011719 C 39.136719 281.539062 39.371094 281.890625 39.371094 282.457031 C 39.371094 283.101562 38.921875 283.550781 38.277344 283.550781 C 37.515625 283.550781 37.007812 282.964844 37.007812 282.105469 C 37.007812 281.460938 37.242188 281.050781 37.808594 280.582031 L 38.414062 281.011719 Z M 38.296875 279.820312 C 37.417969 279.234375 37.046875 278.785156 37.046875 278.21875 C 37.046875 277.632812 37.496094 277.242188 38.121094 277.242188 C 38.804688 277.242188 39.234375 277.671875 39.234375 278.355469 C 39.234375 278.921875 38.960938 279.371094 38.394531 279.761719 C 38.335938 279.78125 38.335938 279.78125 38.296875 279.820312 Z M 38.296875 279.820312 "/>
<path style=" stroke:none;fill-rule:nonzero;fill:rgb(0%,0%,0%);fill-opacity:1;" d="M 4.234375 207.214844 C 5.113281 207.214844 5.464844 207.234375 5.816406 207.371094 C 6.753906 207.703125 7.320312 208.542969 7.320312 209.578125 C 7.320312 210.828125 6.480469 211.804688 5.367188 211.804688 C 4.976562 211.804688 4.664062 211.707031 4.117188 211.335938 C 3.667969 211.082031 3.414062 210.964844 3.160156 210.964844 C 2.808594 210.964844 2.59375 211.179688 2.59375 211.492188 C 2.59375 212.019531 3.238281 212.351562 4.273438 212.351562 C 5.425781 212.351562 6.617188 211.960938 7.320312 211.335938 C 8.023438 210.730469 8.394531 209.871094 8.394531 208.855469 C 8.394531 208.09375 8.160156 207.390625 7.730469 206.941406 C 7.4375 206.609375 7.144531 206.433594 6.5 206.140625 C 7.515625 205.4375 7.886719 204.890625 7.886719 204.089844 C 7.886719 202.878906 6.949219 202.039062 5.5625 202.039062 C 4.820312 202.039062 4.15625 202.292969 3.628906 202.761719 C 3.179688 203.171875 2.945312 203.5625 2.613281 204.460938 L 2.847656 204.519531 C 3.453125 203.425781 4.136719 202.9375 5.074219 202.9375 C 6.050781 202.9375 6.714844 203.582031 6.714844 204.539062 C 6.714844 205.066406 6.5 205.613281 6.109375 205.984375 C 5.660156 206.433594 5.25 206.648438 4.234375 207.019531 L 4.234375 207.214844 Z M 4.234375 207.214844 "/>
<path style=" stroke:none;fill-rule:nonzero;fill:rgb(0%,0%,0%);fill-opacity:1;" d="M 19.023438 211.609375 L 15.683594 208.289062 L 19.023438 204.96875 L 18.417969 204.363281 L 15.097656 207.703125 L 11.777344 204.363281 L 11.191406 204.96875 L 14.511719 208.289062 L 11.191406 211.609375 L 11.777344 212.214844 L 15.097656 208.875 L 18.417969 212.214844 L 19.023438 211.609375 Z M 19.023438 211.609375 "/>
<path style=" stroke:none;fill-rule:nonzero;fill:rgb(0%,0%,0%);fill-opacity:1;" d="M 25.054688 202.039062 L 22.359375 203.386719 L 22.359375 203.601562 C 22.535156 203.523438 22.710938 203.464844 22.769531 203.445312 C 23.023438 203.328125 23.277344 203.269531 23.433594 203.269531 C 23.746094 203.269531 23.882812 203.503906 23.882812 203.972656 L 23.882812 210.75 C 23.882812 211.238281 23.765625 211.589844 23.53125 211.726562 C 23.296875 211.84375 23.082031 211.902344 22.457031 211.921875 L 22.457031 212.136719 L 26.578125 212.136719 L 26.578125 211.921875 C 25.40625 211.902344 25.171875 211.746094 25.171875 211.023438 L 25.171875 202.058594 L 25.054688 202.039062 Z M 25.054688 202.039062 "/>
<path style=" stroke:none;fill-rule:nonzero;fill:rgb(0%,0%,0%);fill-opacity:1;" d="M 31.988281 202.039062 C 31.167969 202.039062 30.542969 202.292969 29.996094 202.820312 C 29.117188 203.640625 28.550781 205.359375 28.550781 207.117188 C 28.550781 208.738281 29.058594 210.496094 29.761719 211.335938 C 30.308594 211.980469 31.070312 212.351562 31.929688 212.351562 C 32.691406 212.351562 33.335938 212.097656 33.882812 211.570312 C 34.742188 210.75 35.308594 209.011719 35.308594 207.214844 C 35.308594 204.148438 33.960938 202.039062 31.988281 202.039062 Z M 31.949219 202.429688 C 33.199219 202.429688 33.882812 204.109375 33.882812 207.234375 C 33.882812 210.359375 33.21875 211.960938 31.929688 211.960938 C 30.640625 211.960938 29.996094 210.359375 29.996094 207.253906 C 29.996094 204.089844 30.660156 202.429688 31.949219 202.429688 Z M 31.949219 202.429688 "/>
<path style=" stroke:none;fill-rule:nonzero;fill:rgb(0%,0%,0%);fill-opacity:1;" d="M 38.589844 203.046875 C 39.566406 202.519531 39.917969 202.089844 39.917969 201.425781 C 39.917969 200.605469 39.214844 200 38.21875 200 C 37.125 200 36.324219 200.664062 36.324219 201.582031 C 36.324219 202.226562 36.5 202.519531 37.554688 203.4375 C 36.480469 204.257812 36.265625 204.550781 36.265625 205.234375 C 36.265625 206.191406 37.046875 206.875 38.160156 206.875 C 39.371094 206.875 40.132812 206.210938 40.132812 205.195312 C 40.132812 204.433594 39.800781 203.945312 38.589844 203.046875 Z M 38.414062 204.0625 C 39.136719 204.589844 39.371094 204.941406 39.371094 205.507812 C 39.371094 206.152344 38.921875 206.601562 38.277344 206.601562 C 37.515625 206.601562 37.007812 206.015625 37.007812 205.15625 C 37.007812 204.511719 37.242188 204.101562 37.808594 203.632812 L 38.414062 204.0625 Z M 38.296875 202.871094 C 37.417969 202.285156 37.046875 201.835938 37.046875 201.269531 C 37.046875 200.683594 37.496094 200.292969 38.121094 200.292969 C 38.804688 200.292969 39.234375 200.722656 39.234375 201.40625 C 39.234375 201.972656 38.960938 202.421875 38.394531 202.8125 C 38.335938 202.832031 38.335938 202.832031 38.296875 202.871094 Z M 38.296875 202.871094 "/>
<path style=" stroke:none;fill-rule:nonzero;fill:rgb(0%,0%,0%);fill-opacity:1;" d="M 9 131.582031 L 7.476562 131.582031 L 7.476562 124.941406 L 6.8125 124.941406 L 2.125 131.582031 L 2.125 132.539062 L 6.324219 132.539062 L 6.324219 135.039062 L 7.476562 135.039062 L 7.476562 132.539062 L 9 132.539062 L 9 131.582031 Z M 6.304688 131.582031 L 2.730469 131.582031 L 6.304688 126.464844 L 6.304688 131.582031 Z M 6.304688 131.582031 "/>
<path style=" stroke:none;fill-rule:nonzero;fill:rgb(0%,0%,0%);fill-opacity:1;" d="M 19.023438 134.511719 L 15.683594 131.191406 L 19.023438 127.871094 L 18.417969 127.265625 L 15.097656 130.605469 L 11.777344 127.265625 L 11.191406 127.871094 L 14.511719 131.191406 L 11.191406 134.511719 L 11.777344 135.117188 L 15.097656 131.777344 L 18.417969 135.117188 L 19.023438 134.511719 Z M 19.023438 134.511719 "/>
<path style=" stroke:none;fill-rule:nonzero;fill:rgb(0%,0%,0%);fill-opacity:1;" d="M 25.054688 124.941406 L 22.359375 126.289062 L 22.359375 126.503906 C 22.535156 126.425781 22.710938 126.367188 22.769531 126.347656 C 23.023438 126.230469 23.277344 126.171875 23.433594 126.171875 C 23.746094 126.171875 23.882812 126.40625 23.882812 126.875 L 23.882812 133.652344 C 23.882812 134.140625 23.765625 134.492188 23.53125 134.628906 C 23.296875 134.746094 23.082031 134.804688 22.457031 134.824219 L 22.457031 135.039062 L 26.578125 135.039062 L 26.578125 134.824219 C 25.40625 134.804688 25.171875 134.648438 25.171875 133.925781 L 25.171875 124.960938 L 25.054688 124.941406 Z M 25.054688 124.941406 "/>
<path style=" stroke:none;fill-rule:nonzero;fill:rgb(0%,0%,0%);fill-opacity:1;" d="M 31.988281 124.941406 C 31.167969 124.941406 30.542969 125.195312 29.996094 125.722656 C 29.117188 126.542969 28.550781 128.261719 28.550781 130.019531 C 28.550781 131.640625 29.058594 133.398438 29.761719 134.238281 C 30.308594 134.882812 31.070312 135.253906 31.929688 135.253906 C 32.691406 135.253906 33.335938 135 33.882812 134.472656 C 34.742188 133.652344 35.308594 131.914062 35.308594 130.117188 C 35.308594 127.050781 33.960938 124.941406 31.988281 124.941406 Z M 31.949219 125.332031 C 33.199219 125.332031 33.882812 127.011719 33.882812 130.136719 C 33.882812 133.261719 33.21875 134.863281 31.929688 134.863281 C 30.640625 134.863281 29.996094 133.261719 29.996094 130.15625 C 29.996094 126.992188 30.660156 125.332031 31.949219 125.332031 Z M 31.949219 125.332031 "/>
<path style=" stroke:none;fill-rule:nonzero;fill:rgb(0%,0%,0%);fill-opacity:1;" d="M 38.589844 125.945312 C 39.566406 125.417969 39.917969 124.988281 39.917969 124.324219 C 39.917969 123.503906 39.214844 122.898438 38.21875 122.898438 C 37.125 122.898438 36.324219 123.5625 36.324219 124.480469 C 36.324219 125.125 36.5 125.417969 37.554688 126.335938 C 36.480469 127.15625 36.265625 127.449219 36.265625 128.132812 C 36.265625 129.089844 37.046875 129.773438 38.160156 129.773438 C 39.371094 129.773438 40.132812 129.109375 40.132812 128.09375 C 40.132812 127.332031 39.800781 126.84375 38.589844 125.945312 Z M 38.414062 126.960938 C 39.136719 127.488281 39.371094 127.839844 39.371094 128.40625 C 39.371094 129.050781 38.921875 129.5 38.277344 129.5 C 37.515625 129.5 37.007812 128.914062 37.007812 128.054688 C 37.007812 127.410156 37.242188 127 37.808594 126.53125 L 38.414062 126.960938 Z M 38.296875 125.769531 C 37.417969 125.183594 37.046875 124.734375 37.046875 124.167969 C 37.046875 123.582031 37.496094 123.191406 38.121094 123.191406 C 38.804688 123.191406 39.234375 123.621094 39.234375 124.304688 C 39.234375 124.871094 38.960938 125.320312 38.394531 125.710938 C 38.335938 125.730469 38.335938 125.730469 38.296875 125.769531 Z M 38.296875 125.769531 "/>
<path style=" stroke:none;fill-rule:nonzero;fill:rgb(0%,0%,0%);fill-opacity:1;" d="M 4.644531 49.226562 L 7.574219 49.226562 C 7.828125 49.226562 7.886719 49.1875 7.925781 49.089844 L 8.492188 47.761719 L 8.355469 47.664062 C 8.140625 47.976562 7.984375 48.054688 7.671875 48.054688 L 4.546875 48.054688 L 2.925781 51.589844 C 2.90625 51.609375 2.90625 51.628906 2.90625 51.667969 C 2.90625 51.746094 2.964844 51.785156 3.082031 51.785156 C 3.570312 51.785156 4.15625 51.882812 4.78125 52.078125 C 6.5 52.625 7.28125 53.5625 7.28125 55.046875 C 7.28125 56.472656 6.363281 57.585938 5.210938 57.585938 C 4.898438 57.585938 4.644531 57.488281 4.214844 57.15625 C 3.726562 56.824219 3.375 56.667969 3.0625 56.667969 C 2.632812 56.667969 2.417969 56.84375 2.417969 57.214844 C 2.417969 57.78125 3.121094 58.152344 4.253906 58.152344 C 5.503906 58.152344 6.578125 57.742188 7.320312 56.980469 C 8.023438 56.316406 8.335938 55.457031 8.335938 54.324219 C 8.335938 53.25 8.042969 52.566406 7.300781 51.804688 C 6.636719 51.160156 5.796875 50.808594 4.019531 50.496094 L 4.644531 49.226562 Z M 4.644531 49.226562 "/>
<path style=" stroke:none;fill-rule:nonzero;fill:rgb(0%,0%,0%);fill-opacity:1;" d="M 19.023438 57.410156 L 15.683594 54.089844 L 19.023438 50.769531 L 18.417969 50.164062 L 15.097656 53.503906 L 11.777344 50.164062 L 11.191406 50.769531 L 14.511719 54.089844 L 11.191406 57.410156 L 11.777344 58.015625 L 15.097656 54.675781 L 18.417969 58.015625 L 19.023438 57.410156 Z M 19.023438 57.410156 "/>
<path style=" stroke:none;fill-rule:nonzero;fill:rgb(0%,0%,0%);fill-opacity:1;" d="M 25.054688 47.839844 L 22.359375 49.1875 L 22.359375 49.402344 C 22.535156 49.324219 22.710938 49.265625 22.769531 49.246094 C 23.023438 49.128906 23.277344 49.070312 23.433594 49.070312 C 23.746094 49.070312 23.882812 49.304688 23.882812 49.773438 L 23.882812 56.550781 C 23.882812 57.039062 23.765625 57.390625 23.53125 57.527344 C 23.296875 57.644531 23.082031 57.703125 22.457031 57.722656 L 22.457031 57.9375 L 26.578125 57.9375 L 26.578125 57.722656 C 25.40625 57.703125 25.171875 57.546875 25.171875 56.824219 L 25.171875 47.859375 L 25.054688 47.839844 Z M 25.054688 47.839844 "/>
<path style=" stroke:none;fill-rule:nonzero;fill:rgb(0%,0%,0%);fill-opacity:1;" d="M 31.988281 47.839844 C 31.167969 47.839844 30.542969 48.09375 29.996094 48.621094 C 29.117188 49.441406 28.550781 51.160156 28.550781 52.917969 C 28.550781 54.539062 29.058594 56.296875 29.761719 57.136719 C 30.308594 57.78125 31.070312 58.152344 31.929688 58.152344 C 32.691406 58.152344 33.335938 57.898438 33.882812 57.371094 C 34.742188 56.550781 35.308594 54.8125 35.308594 53.015625 C 35.308594 49.949219 33.960938 47.839844 31.988281 47.839844 Z M 31.949219 48.230469 C 33.199219 48.230469 33.882812 49.910156 33.882812 53.035156 C 33.882812 56.160156 33.21875 57.761719 31.929688 57.761719 C 30.640625 57.761719 29.996094 56.160156 29.996094 53.054688 C 29.996094 49.890625 30.660156 48.230469 31.949219 48.230469 Z M 31.949219 48.230469 "/>
<path style=" stroke:none;fill-rule:nonzero;fill:rgb(0%,0%,0%);fill-opacity:1;" d="M 38.589844 48.847656 C 39.566406 48.320312 39.917969 47.890625 39.917969 47.226562 C 39.917969 46.40625 39.214844 45.800781 38.21875 45.800781 C 37.125 45.800781 36.324219 46.464844 36.324219 47.382812 C 36.324219 48.027344 36.5 48.320312 37.554688 49.238281 C 36.480469 50.058594 36.265625 50.351562 36.265625 51.035156 C 36.265625 51.992188 37.046875 52.675781 38.160156 52.675781 C 39.371094 52.675781 40.132812 52.011719 40.132812 50.996094 C 40.132812 50.234375 39.800781 49.746094 38.589844 48.847656 Z M 38.414062 49.863281 C 39.136719 50.390625 39.371094 50.742188 39.371094 51.308594 C 39.371094 51.953125 38.921875 52.402344 38.277344 52.402344 C 37.515625 52.402344 37.007812 51.816406 37.007812 50.957031 C 37.007812 50.3125 37.242188 49.902344 37.808594 49.433594 L 38.414062 49.863281 Z M 38.296875 48.671875 C 37.417969 48.085938 37.046875 47.636719 37.046875 47.070312 C 37.046875 46.484375 37.496094 46.09375 38.121094 46.09375 C 38.804688 46.09375 39.234375 46.523438 39.234375 47.207031 C 39.234375 47.773438 38.960938 48.222656 38.394531 48.613281 C 38.335938 48.632812 38.335938 48.632812 38.296875 48.671875 Z M 38.296875 48.671875 "/>
<path style=" stroke:none;fill-rule:nonzero;fill:rgb(0%,0%,0%);fill-opacity:1;" d="M 22.121094 16.425781 L 22.082031 16.40625 C 20.753906 16.640625 20.011719 16.757812 19.542969 16.777344 L 19.542969 17.011719 L 19.933594 17.011719 L 20.050781 16.992188 C 20.167969 16.972656 20.460938 17.070312 20.539062 17.128906 C 20.597656 17.1875 20.636719 17.324219 20.636719 17.480469 C 20.636719 17.617188 20.578125 18.027344 20.402344 18.671875 L 19.328125 23.027344 C 18.820312 25.078125 18.488281 25.742188 17.882812 25.742188 C 17.707031 25.742188 17.609375 25.683594 17.609375 25.566406 C 17.609375 25.507812 17.628906 25.488281 17.6875 25.410156 C 17.785156 25.292969 17.804688 25.214844 17.804688 25.097656 C 17.804688 24.785156 17.53125 24.550781 17.199219 24.550781 C 16.847656 24.550781 16.59375 24.804688 16.59375 25.175781 C 16.59375 25.683594 17.082031 26.074219 17.785156 26.074219 C 19.074219 26.074219 19.972656 24.941406 20.578125 22.578125 L 22.121094 16.425781 Z M 21.828125 13.222656 C 21.417969 13.222656 21.125 13.554688 21.125 14.003906 C 21.125 14.492188 21.398438 14.804688 21.847656 14.804688 C 22.238281 14.804688 22.570312 14.453125 22.570312 14.042969 C 22.570312 13.613281 22.238281 13.222656 21.828125 13.222656 Z M 21.828125 13.222656 "/>
<path style=" stroke:none;fill-rule:nonzero;fill:rgb(0%,0%,0%);fill-opacity:1;" d="M 28.316406 12.851562 L 27.535156 12.851562 L 23.570312 25.390625 L 24.351562 25.390625 L 28.316406 12.851562 Z M 28.316406 12.851562 "/>
<path style=" stroke:none;fill-rule:nonzero;fill:rgb(0%,0%,0%);fill-opacity:1;" d="M 43.175781 13.105469 L 40.226562 13.105469 L 40.226562 13.378906 C 40.988281 13.457031 41.242188 13.613281 41.242188 14.023438 C 41.242188 14.335938 41.164062 14.726562 41.007812 15.136719 L 39.132812 20.214844 L 37.160156 15.117188 C 37.140625 15.039062 37.003906 14.707031 36.984375 14.667969 C 36.847656 14.355469 36.769531 14.0625 36.769531 13.90625 C 36.769531 13.554688 37.101562 13.398438 37.921875 13.378906 L 37.921875 13.105469 L 33.917969 13.105469 L 33.917969 13.378906 C 34.777344 13.398438 34.933594 13.535156 35.441406 14.726562 L 35.929688 15.957031 L 34.328125 20.15625 L 32.179688 14.550781 C 32.082031 14.277344 32.023438 14.023438 32.023438 13.867188 C 32.023438 13.535156 32.21875 13.417969 32.980469 13.378906 L 32.980469 13.105469 L 29.328125 13.105469 L 29.328125 13.378906 C 30.089844 13.457031 30.304688 13.730469 30.871094 15.136719 L 33.742188 23.144531 L 33.976562 23.144531 L 36.28125 16.835938 L 38.664062 23.144531 L 38.878906 23.144531 C 40.148438 19.257812 40.304688 18.828125 41.925781 14.433594 C 42.21875 13.671875 42.375 13.535156 43.175781 13.378906 L 43.175781 13.105469 Z M 43.175781 13.105469 "/>
<path style=" stroke:none;fill-rule:nonzero;fill:rgb(0%,0%,0%);fill-opacity:1;" d="M 49.195312 19.140625 C 49.195312 18.691406 48.824219 18.300781 48.375 18.300781 C 47.925781 18.300781 47.554688 18.671875 47.554688 19.140625 C 47.554688 19.707031 48.0625 19.960938 48.375 19.960938 C 48.6875 19.960938 49.195312 19.707031 49.195312 19.140625 Z M 49.195312 19.140625 "/>
<path style=" stroke:none;fill-rule:nonzero;fill:rgb(0%,0%,0%);fill-opacity:1;" d="M 53.992188 17.050781 C 54.167969 16.992188 54.304688 16.972656 54.460938 16.972656 C 54.851562 16.972656 54.988281 17.226562 54.988281 17.929688 L 54.988281 21.71875 C 54.988281 22.519531 54.773438 22.753906 53.933594 22.773438 L 53.933594 22.988281 L 57.253906 22.988281 L 57.253906 22.773438 C 56.472656 22.734375 56.238281 22.578125 56.238281 21.992188 L 56.238281 17.773438 C 56.238281 17.734375 56.355469 17.597656 56.472656 17.480469 C 56.84375 17.148438 57.488281 16.894531 57.996094 16.894531 C 58.660156 16.894531 58.992188 17.421875 58.992188 18.457031 L 58.992188 21.699219 C 58.992188 22.539062 58.816406 22.695312 57.976562 22.773438 L 57.976562 22.988281 L 61.316406 22.988281 L 61.316406 22.773438 C 60.476562 22.753906 60.242188 22.5 60.242188 21.5625 L 60.242188 17.8125 C 60.691406 17.167969 61.179688 16.894531 61.863281 16.894531 C 62.722656 16.894531 62.996094 17.304688 62.996094 18.535156 L 62.996094 21.679688 C 62.996094 22.539062 62.878906 22.65625 62 22.773438 L 62 22.988281 L 65.28125 22.988281 L 65.28125 22.773438 L 64.890625 22.734375 C 64.441406 22.695312 64.246094 22.441406 64.246094 21.855469 L 64.246094 18.769531 C 64.246094 17.011719 63.660156 16.113281 62.507812 16.113281 C 61.648438 16.113281 60.886719 16.503906 60.085938 17.363281 C 59.8125 16.523438 59.304688 16.113281 58.503906 16.113281 C 57.839844 16.113281 57.410156 16.328125 56.179688 17.265625 L 56.179688 16.152344 L 56.082031 16.113281 C 55.320312 16.40625 54.8125 16.5625 53.992188 16.796875 L 53.992188 17.050781 Z M 53.992188 17.050781 "/>
<path style=" stroke:none;fill-rule:nonzero;fill:rgb(0%,0%,0%);fill-opacity:1;" d="M 71.121094 15.300781 L 71.121094 14.753906 L 66.023438 14.753906 L 66.023438 15.300781 L 71.121094 15.300781 Z M 71.121094 15.300781 "/>
<path style=" stroke:none;fill-rule:nonzero;fill:rgb(0%,0%,0%);fill-opacity:1;" d="M 76.425781 16.21875 L 76.308594 16.179688 C 75.9375 16.746094 75.800781 16.824219 75.351562 16.824219 L 72.96875 16.824219 L 74.648438 15.066406 C 75.527344 14.148438 75.917969 13.386719 75.917969 12.625 C 75.917969 11.628906 75.117188 10.847656 74.082031 10.847656 C 73.535156 10.847656 73.007812 11.0625 72.636719 11.472656 C 72.324219 11.804688 72.167969 12.136719 72.011719 12.839844 L 72.226562 12.878906 C 72.617188 11.902344 72.96875 11.589844 73.652344 11.589844 C 74.492188 11.589844 75.058594 12.15625 75.058594 12.996094 C 75.058594 13.777344 74.609375 14.695312 73.769531 15.574219 L 71.992188 17.46875 L 71.992188 17.585938 L 75.878906 17.585938 L 76.425781 16.21875 Z M 76.425781 16.21875 "/>
<path style=" stroke:none;fill-rule:nonzero;fill:rgb(0%,0%,0%);fill-opacity:1;" d="M 122.140625 459.085938 L 121.945312 459.007812 C 121.398438 459.867188 121.203125 460.003906 120.539062 460.003906 L 116.964844 460.003906 L 119.464844 457.367188 C 120.8125 455.980469 121.378906 454.847656 121.378906 453.675781 C 121.378906 452.191406 120.167969 451.039062 118.625 451.039062 C 117.804688 451.039062 117.023438 451.371094 116.476562 451.957031 C 115.988281 452.464844 115.773438 452.953125 115.519531 454.007812 L 115.832031 454.085938 C 116.417969 452.621094 116.964844 452.132812 118 452.132812 C 119.25 452.132812 120.109375 452.992188 120.109375 454.242188 C 120.109375 455.414062 119.40625 456.800781 118.15625 458.128906 L 115.5 460.960938 L 115.5 461.136719 L 121.320312 461.136719 L 122.140625 459.085938 Z M 122.140625 459.085938 "/>
<path style=" stroke:none;fill-rule:nonzero;fill:rgb(0%,0%,0%);fill-opacity:1;" d="M 126.339844 451.039062 C 125.519531 451.039062 124.894531 451.292969 124.347656 451.820312 C 123.46875 452.640625 122.902344 454.359375 122.902344 456.117188 C 122.902344 457.738281 123.410156 459.496094 124.113281 460.335938 C 124.660156 460.980469 125.421875 461.351562 126.28125 461.351562 C 127.042969 461.351562 127.6875 461.097656 128.234375 460.570312 C 129.09375 459.75 129.660156 458.011719 129.660156 456.214844 C 129.660156 453.148438 128.3125 451.039062 126.339844 451.039062 Z M 126.300781 451.429688 C 127.550781 451.429688 128.234375 453.109375 128.234375 456.234375 C 128.234375 459.359375 127.570312 460.960938 126.28125 460.960938 C 124.992188 460.960938 124.347656 459.359375 124.347656 456.253906 C 124.347656 453.089844 125.011719 451.429688 126.300781 451.429688 Z M 126.300781 451.429688 "/>
<path style=" stroke:none;fill-rule:nonzero;fill:rgb(0%,0%,0%);fill-opacity:1;" d="M 133.839844 451.039062 C 133.019531 451.039062 132.394531 451.292969 131.847656 451.820312 C 130.96875 452.640625 130.402344 454.359375 130.402344 456.117188 C 130.402344 457.738281 130.910156 459.496094 131.613281 460.335938 C 132.160156 460.980469 132.921875 461.351562 133.78125 461.351562 C 134.542969 461.351562 135.1875 461.097656 135.734375 460.570312 C 136.59375 459.75 137.160156 458.011719 137.160156 456.214844 C 137.160156 453.148438 135.8125 451.039062 133.839844 451.039062 Z M 133.800781 451.429688 C 135.050781 451.429688 135.734375 453.109375 135.734375 456.234375 C 135.734375 459.359375 135.070312 460.960938 133.78125 460.960938 C 132.492188 460.960938 131.847656 459.359375 131.847656 456.253906 C 131.847656 453.089844 132.511719 451.429688 133.800781 451.429688 Z M 133.800781 451.429688 "/>
<path style=" stroke:none;fill-rule:nonzero;fill:rgb(0%,0%,0%);fill-opacity:1;" d="M 141.339844 451.039062 C 140.519531 451.039062 139.894531 451.292969 139.347656 451.820312 C 138.46875 452.640625 137.902344 454.359375 137.902344 456.117188 C 137.902344 457.738281 138.410156 459.496094 139.113281 460.335938 C 139.660156 460.980469 140.421875 461.351562 141.28125 461.351562 C 142.042969 461.351562 142.6875 461.097656 143.234375 460.570312 C 144.09375 459.75 144.660156 458.011719 144.660156 456.214844 C 144.660156 453.148438 143.3125 451.039062 141.339844 451.039062 Z M 141.300781 451.429688 C 142.550781 451.429688 143.234375 453.109375 143.234375 456.234375 C 143.234375 459.359375 142.570312 460.960938 141.28125 460.960938 C 139.992188 460.960938 139.347656 459.359375 139.347656 456.253906 C 139.347656 453.089844 140.011719 451.429688 141.300781 451.429688 Z M 141.300781 451.429688 "/>
<path style=" stroke:none;fill-rule:nonzero;fill:rgb(0%,0%,0%);fill-opacity:1;" d="M 205.5 457.679688 L 203.976562 457.679688 L 203.976562 451.039062 L 203.3125 451.039062 L 198.625 457.679688 L 198.625 458.636719 L 202.824219 458.636719 L 202.824219 461.136719 L 203.976562 461.136719 L 203.976562 458.636719 L 205.5 458.636719 L 205.5 457.679688 Z M 202.804688 457.679688 L 199.230469 457.679688 L 202.804688 452.5625 L 202.804688 457.679688 Z M 202.804688 457.679688 "/>
<path style=" stroke:none;fill-rule:nonzero;fill:rgb(0%,0%,0%);fill-opacity:1;" d="M 209.738281 451.039062 C 208.917969 451.039062 208.292969 451.292969 207.746094 451.820312 C 206.867188 452.640625 206.300781 454.359375 206.300781 456.117188 C 206.300781 457.738281 206.808594 459.496094 207.511719 460.335938 C 208.058594 460.980469 208.820312 461.351562 209.679688 461.351562 C 210.441406 461.351562 211.085938 461.097656 211.632812 460.570312 C 212.492188 459.75 213.058594 458.011719 213.058594 456.214844 C 213.058594 453.148438 211.710938 451.039062 209.738281 451.039062 Z M 209.699219 451.429688 C 210.949219 451.429688 211.632812 453.109375 211.632812 456.234375 C 211.632812 459.359375 210.96875 460.960938 209.679688 460.960938 C 208.390625 460.960938 207.746094 459.359375 207.746094 456.253906 C 207.746094 453.089844 208.410156 451.429688 209.699219 451.429688 Z M 209.699219 451.429688 "/>
<path style=" stroke:none;fill-rule:nonzero;fill:rgb(0%,0%,0%);fill-opacity:1;" d="M 217.238281 451.039062 C 216.417969 451.039062 215.792969 451.292969 215.246094 451.820312 C 214.367188 452.640625 213.800781 454.359375 213.800781 456.117188 C 213.800781 457.738281 214.308594 459.496094 215.011719 460.335938 C 215.558594 460.980469 216.320312 461.351562 217.179688 461.351562 C 217.941406 461.351562 218.585938 461.097656 219.132812 460.570312 C 219.992188 459.75 220.558594 458.011719 220.558594 456.214844 C 220.558594 453.148438 219.210938 451.039062 217.238281 451.039062 Z M 217.199219 451.429688 C 218.449219 451.429688 219.132812 453.109375 219.132812 456.234375 C 219.132812 459.359375 218.46875 460.960938 217.179688 460.960938 C 215.890625 460.960938 215.246094 459.359375 215.246094 456.253906 C 215.246094 453.089844 215.910156 451.429688 217.199219 451.429688 Z M 217.199219 451.429688 "/>
<path style=" stroke:none;fill-rule:nonzero;fill:rgb(0%,0%,0%);fill-opacity:1;" d="M 224.738281 451.039062 C 223.917969 451.039062 223.292969 451.292969 222.746094 451.820312 C 221.867188 452.640625 221.300781 454.359375 221.300781 456.117188 C 221.300781 457.738281 221.808594 459.496094 222.511719 460.335938 C 223.058594 460.980469 223.820312 461.351562 224.679688 461.351562 C 225.441406 461.351562 226.085938 461.097656 226.632812 460.570312 C 227.492188 459.75 228.058594 458.011719 228.058594 456.214844 C 228.058594 453.148438 226.710938 451.039062 224.738281 451.039062 Z M 224.699219 451.429688 C 225.949219 451.429688 226.632812 453.109375 226.632812 456.234375 C 226.632812 459.359375 225.96875 460.960938 224.679688 460.960938 C 223.390625 460.960938 222.746094 459.359375 222.746094 456.253906 C 222.746094 453.089844 223.410156 451.429688 224.699219 451.429688 Z M 224.699219 451.429688 "/>
<path style=" stroke:none;fill-rule:nonzero;fill:rgb(0%,0%,0%);fill-opacity:1;" d="M 288.359375 450.921875 C 286.660156 451.058594 285.800781 451.351562 284.707031 452.113281 C 283.085938 453.265625 282.207031 454.964844 282.207031 456.976562 C 282.207031 458.265625 282.617188 459.574219 283.261719 460.335938 C 283.828125 460.980469 284.628906 461.351562 285.546875 461.351562 C 287.402344 461.351562 288.691406 459.925781 288.691406 457.855469 C 288.691406 455.960938 287.597656 454.75 285.878906 454.75 C 285.234375 454.75 284.902344 454.847656 283.964844 455.414062 C 284.375 453.148438 286.054688 451.546875 288.398438 451.15625 L 288.359375 450.921875 Z M 285.3125 455.433594 C 286.601562 455.433594 287.34375 456.507812 287.34375 458.363281 C 287.34375 460.023438 286.757812 460.921875 285.722656 460.921875 C 284.394531 460.921875 283.59375 459.515625 283.59375 457.210938 C 283.59375 456.449219 283.710938 456.019531 284.023438 455.804688 C 284.335938 455.570312 284.785156 455.433594 285.3125 455.433594 Z M 285.3125 455.433594 "/>
<path style=" stroke:none;fill-rule:nonzero;fill:rgb(0%,0%,0%);fill-opacity:1;" d="M 292.988281 451.039062 C 292.167969 451.039062 291.542969 451.292969 290.996094 451.820312 C 290.117188 452.640625 289.550781 454.359375 289.550781 456.117188 C 289.550781 457.738281 290.058594 459.496094 290.761719 460.335938 C 291.308594 460.980469 292.070312 461.351562 292.929688 461.351562 C 293.691406 461.351562 294.335938 461.097656 294.882812 460.570312 C 295.742188 459.75 296.308594 458.011719 296.308594 456.214844 C 296.308594 453.148438 294.960938 451.039062 292.988281 451.039062 Z M 292.949219 451.429688 C 294.199219 451.429688 294.882812 453.109375 294.882812 456.234375 C 294.882812 459.359375 294.21875 460.960938 292.929688 460.960938 C 291.640625 460.960938 290.996094 459.359375 290.996094 456.253906 C 290.996094 453.089844 291.660156 451.429688 292.949219 451.429688 Z M 292.949219 451.429688 "/>
<path style=" stroke:none;fill-rule:nonzero;fill:rgb(0%,0%,0%);fill-opacity:1;" d="M 300.488281 451.039062 C 299.667969 451.039062 299.042969 451.292969 298.496094 451.820312 C 297.617188 452.640625 297.050781 454.359375 297.050781 456.117188 C 297.050781 457.738281 297.558594 459.496094 298.261719 460.335938 C 298.808594 460.980469 299.570312 461.351562 300.429688 461.351562 C 301.191406 461.351562 301.835938 461.097656 302.382812 460.570312 C 303.242188 459.75 303.808594 458.011719 303.808594 456.214844 C 303.808594 453.148438 302.460938 451.039062 300.488281 451.039062 Z M 300.449219 451.429688 C 301.699219 451.429688 302.382812 453.109375 302.382812 456.234375 C 302.382812 459.359375 301.71875 460.960938 300.429688 460.960938 C 299.140625 460.960938 298.496094 459.359375 298.496094 456.253906 C 298.496094 453.089844 299.160156 451.429688 300.449219 451.429688 Z M 300.449219 451.429688 "/>
<path style=" stroke:none;fill-rule:nonzero;fill:rgb(0%,0%,0%);fill-opacity:1;" d="M 307.988281 451.039062 C 307.167969 451.039062 306.542969 451.292969 305.996094 451.820312 C 305.117188 452.640625 304.550781 454.359375 304.550781 456.117188 C 304.550781 457.738281 305.058594 459.496094 305.761719 460.335938 C 306.308594 460.980469 307.070312 461.351562 307.929688 461.351562 C 308.691406 461.351562 309.335938 461.097656 309.882812 460.570312 C 310.742188 459.75 311.308594 458.011719 311.308594 456.214844 C 311.308594 453.148438 309.960938 451.039062 307.988281 451.039062 Z M 307.949219 451.429688 C 309.199219 451.429688 309.882812 453.109375 309.882812 456.234375 C 309.882812 459.359375 309.21875 460.960938 307.929688 460.960938 C 306.640625 460.960938 305.996094 459.359375 305.996094 456.253906 C 305.996094 453.089844 306.660156 451.429688 307.949219 451.429688 Z M 307.949219 451.429688 "/>
<path style=" stroke:none;fill-rule:nonzero;fill:rgb(0%,0%,0%);fill-opacity:1;" d="M 369.4375 455.589844 C 370.921875 454.808594 371.429688 454.183594 371.429688 453.148438 C 371.429688 451.9375 370.355469 451.039062 368.871094 451.039062 C 367.230469 451.039062 366.019531 452.035156 366.019531 453.402344 C 366.019531 454.359375 366.3125 454.808594 367.875 456.175781 C 366.273438 457.40625 365.941406 457.855469 365.941406 458.871094 C 365.941406 460.335938 367.113281 461.351562 368.8125 461.351562 C 370.609375 461.351562 371.742188 460.355469 371.742188 458.8125 C 371.742188 457.679688 371.234375 456.9375 369.4375 455.589844 Z M 369.164062 457.132812 C 370.257812 457.914062 370.609375 458.441406 370.609375 459.28125 C 370.609375 460.257812 369.945312 460.921875 368.96875 460.921875 C 367.835938 460.921875 367.074219 460.0625 367.074219 458.753906 C 367.074219 457.796875 367.40625 457.171875 368.265625 456.46875 L 369.164062 457.132812 Z M 369.007812 455.316406 C 367.679688 454.457031 367.132812 453.773438 367.132812 452.933594 C 367.132812 452.074219 367.796875 451.449219 368.753906 451.449219 C 369.769531 451.449219 370.414062 452.113281 370.414062 453.148438 C 370.414062 453.988281 369.984375 454.671875 369.144531 455.238281 C 369.066406 455.277344 369.066406 455.277344 369.007812 455.316406 Z M 369.007812 455.316406 "/>
<path style=" stroke:none;fill-rule:nonzero;fill:rgb(0%,0%,0%);fill-opacity:1;" d="M 376.390625 451.039062 C 375.570312 451.039062 374.945312 451.292969 374.398438 451.820312 C 373.519531 452.640625 372.953125 454.359375 372.953125 456.117188 C 372.953125 457.738281 373.460938 459.496094 374.164062 460.335938 C 374.710938 460.980469 375.472656 461.351562 376.332031 461.351562 C 377.09375 461.351562 377.738281 461.097656 378.285156 460.570312 C 379.144531 459.75 379.710938 458.011719 379.710938 456.214844 C 379.710938 453.148438 378.363281 451.039062 376.390625 451.039062 Z M 376.351562 451.429688 C 377.601562 451.429688 378.285156 453.109375 378.285156 456.234375 C 378.285156 459.359375 377.621094 460.960938 376.332031 460.960938 C 375.042969 460.960938 374.398438 459.359375 374.398438 456.253906 C 374.398438 453.089844 375.0625 451.429688 376.351562 451.429688 Z M 376.351562 451.429688 "/>
<path style=" stroke:none;fill-rule:nonzero;fill:rgb(0%,0%,0%);fill-opacity:1;" d="M 383.890625 451.039062 C 383.070312 451.039062 382.445312 451.292969 381.898438 451.820312 C 381.019531 452.640625 380.453125 454.359375 380.453125 456.117188 C 380.453125 457.738281 380.960938 459.496094 381.664062 460.335938 C 382.210938 460.980469 382.972656 461.351562 383.832031 461.351562 C 384.59375 461.351562 385.238281 461.097656 385.785156 460.570312 C 386.644531 459.75 387.210938 458.011719 387.210938 456.214844 C 387.210938 453.148438 385.863281 451.039062 383.890625 451.039062 Z M 383.851562 451.429688 C 385.101562 451.429688 385.785156 453.109375 385.785156 456.234375 C 385.785156 459.359375 385.121094 460.960938 383.832031 460.960938 C 382.542969 460.960938 381.898438 459.359375 381.898438 456.253906 C 381.898438 453.089844 382.5625 451.429688 383.851562 451.429688 Z M 383.851562 451.429688 "/>
<path style=" stroke:none;fill-rule:nonzero;fill:rgb(0%,0%,0%);fill-opacity:1;" d="M 391.390625 451.039062 C 390.570312 451.039062 389.945312 451.292969 389.398438 451.820312 C 388.519531 452.640625 387.953125 454.359375 387.953125 456.117188 C 387.953125 457.738281 388.460938 459.496094 389.164062 460.335938 C 389.710938 460.980469 390.472656 461.351562 391.332031 461.351562 C 392.09375 461.351562 392.738281 461.097656 393.285156 460.570312 C 394.144531 459.75 394.710938 458.011719 394.710938 456.214844 C 394.710938 453.148438 393.363281 451.039062 391.390625 451.039062 Z M 391.351562 451.429688 C 392.601562 451.429688 393.285156 453.109375 393.285156 456.234375 C 393.285156 459.359375 392.621094 460.960938 391.332031 460.960938 C 390.042969 460.960938 389.398438 459.359375 389.398438 456.253906 C 389.398438 453.089844 390.0625 451.429688 391.351562 451.429688 Z M 391.351562 451.429688 "/>
<path style=" stroke:none;fill-rule:nonzero;fill:rgb(0%,0%,0%);fill-opacity:1;" d="M 448.054688 451.039062 L 445.359375 452.386719 L 445.359375 452.601562 C 445.535156 452.523438 445.710938 452.464844 445.769531 452.445312 C 446.023438 452.328125 446.277344 452.269531 446.433594 452.269531 C 446.746094 452.269531 446.882812 452.503906 446.882812 452.972656 L 446.882812 459.75 C 446.882812 460.238281 446.765625 460.589844 446.53125 460.726562 C 446.296875 460.84375 446.082031 460.902344 445.457031 460.921875 L 445.457031 461.136719 L 449.578125 461.136719 L 449.578125 460.921875 C 448.40625 460.902344 448.171875 460.746094 448.171875 460.023438 L 448.171875 451.058594 L 448.054688 451.039062 Z M 448.054688 451.039062 "/>
<path style=" stroke:none;fill-rule:nonzero;fill:rgb(0%,0%,0%);fill-opacity:1;" d="M 460.773438 460.609375 L 457.433594 457.289062 L 460.773438 453.96875 L 460.167969 453.363281 L 456.847656 456.703125 L 453.527344 453.363281 L 452.941406 453.96875 L 456.261719 457.289062 L 452.941406 460.609375 L 453.527344 461.214844 L 456.847656 457.875 L 460.167969 461.214844 L 460.773438 460.609375 Z M 460.773438 460.609375 "/>
<path style=" stroke:none;fill-rule:nonzero;fill:rgb(0%,0%,0%);fill-opacity:1;" d="M 466.804688 451.039062 L 464.109375 452.386719 L 464.109375 452.601562 C 464.285156 452.523438 464.460938 452.464844 464.519531 452.445312 C 464.773438 452.328125 465.027344 452.269531 465.183594 452.269531 C 465.496094 452.269531 465.632812 452.503906 465.632812 452.972656 L 465.632812 459.75 C 465.632812 460.238281 465.515625 460.589844 465.28125 460.726562 C 465.046875 460.84375 464.832031 460.902344 464.207031 460.921875 L 464.207031 461.136719 L 468.328125 461.136719 L 468.328125 460.921875 C 467.15625 460.902344 466.921875 460.746094 466.921875 460.023438 L 466.921875 451.058594 L 466.804688 451.039062 Z M 466.804688 451.039062 "/>
<path style=" stroke:none;fill-rule:nonzero;fill:rgb(0%,0%,0%);fill-opacity:1;" d="M 473.738281 451.039062 C 472.917969 451.039062 472.292969 451.292969 471.746094 451.820312 C 470.867188 452.640625 470.300781 454.359375 470.300781 456.117188 C 470.300781 457.738281 470.808594 459.496094 471.511719 460.335938 C 472.058594 460.980469 472.820312 461.351562 473.679688 461.351562 C 474.441406 461.351562 475.085938 461.097656 475.632812 460.570312 C 476.492188 459.75 477.058594 458.011719 477.058594 456.214844 C 477.058594 453.148438 475.710938 451.039062 473.738281 451.039062 Z M 473.699219 451.429688 C 474.949219 451.429688 475.632812 453.109375 475.632812 456.234375 C 475.632812 459.359375 474.96875 460.960938 473.679688 460.960938 C 472.390625 460.960938 471.746094 459.359375 471.746094 456.253906 C 471.746094 453.089844 472.410156 451.429688 473.699219 451.429688 Z M 473.699219 451.429688 "/>
<path style=" stroke:none;fill-rule:nonzero;fill:rgb(0%,0%,0%);fill-opacity:1;" d="M 482.15625 453.28125 L 481.140625 453.28125 L 481.140625 448.847656 L 480.691406 448.847656 L 477.566406 453.28125 L 477.566406 453.925781 L 480.359375 453.925781 L 480.359375 455.585938 L 481.140625 455.585938 L 481.140625 453.925781 L 482.15625 453.925781 L 482.15625 453.28125 Z M 480.359375 453.28125 L 477.976562 453.28125 L 480.359375 449.863281 L 480.359375 453.28125 Z M 480.359375 453.28125 "/>
<path style=" stroke:none;fill-rule:nonzero;fill:rgb(0%,0%,0%);fill-opacity:1;" d="M 443.851562 467.871094 L 435.902344 467.871094 L 435.277344 470.175781 L 435.550781 470.234375 C 436.332031 468.632812 436.820312 468.378906 439.105469 468.398438 L 436.957031 476.289062 C 436.722656 477.089844 436.351562 477.324219 435.375 477.402344 L 435.375 477.636719 L 439.710938 477.636719 L 439.710938 477.402344 C 439.457031 477.382812 439.222656 477.34375 439.144531 477.34375 C 438.539062 477.304688 438.363281 477.167969 438.363281 476.71875 C 438.363281 476.523438 438.402344 476.347656 438.539062 475.839844 L 440.609375 468.398438 L 441.429688 468.398438 C 442.503906 468.398438 442.992188 468.769531 442.992188 469.609375 C 442.992188 469.804688 442.972656 470.039062 442.953125 470.292969 L 443.207031 470.3125 L 443.851562 467.871094 Z M 443.851562 467.871094 "/>
<path style=" stroke:none;fill-rule:nonzero;fill:rgb(0%,0%,0%);fill-opacity:1;" d="M 449.664062 467.5 L 448.882812 467.5 L 444.917969 480.039062 L 445.699219 480.039062 L 449.664062 467.5 Z M 449.664062 467.5 "/>
<path style=" stroke:none;fill-rule:nonzero;fill:rgb(0%,0%,0%);fill-opacity:1;" d="M 456.773438 468.027344 C 456.949219 468.046875 457.105469 468.046875 457.164062 468.046875 C 457.613281 468.066406 457.789062 468.203125 457.789062 468.496094 C 457.789062 468.828125 457.4375 469.277344 456.617188 470.039062 L 453.980469 472.441406 L 453.980469 469.375 C 453.980469 468.28125 454.136719 468.125 455.347656 468.027344 L 455.347656 467.753906 L 451.109375 467.753906 L 451.109375 468.027344 C 452.28125 468.125 452.457031 468.320312 452.457031 469.375 L 452.457031 475.839844 C 452.457031 477.089844 452.28125 477.285156 451.109375 477.34375 L 451.109375 477.636719 L 455.328125 477.636719 L 455.328125 477.34375 C 454.15625 477.285156 453.980469 477.089844 453.980469 476.015625 L 453.980469 473.222656 L 454.371094 472.890625 L 455.953125 474.472656 C 457.085938 475.585938 457.886719 476.660156 457.886719 477.011719 C 457.886719 477.226562 457.691406 477.324219 457.261719 477.34375 C 457.183594 477.34375 457.027344 477.34375 456.851562 477.34375 L 456.851562 477.636719 L 461.402344 477.636719 L 461.402344 477.34375 C 460.621094 477.34375 460.425781 477.1875 459.058594 475.742188 L 455.582031 472.011719 L 458.414062 469.199219 C 459.429688 468.222656 459.664062 468.105469 460.679688 468.027344 L 460.679688 467.753906 L 456.773438 467.753906 L 456.773438 468.027344 Z M 456.773438 468.027344 "/>
</g>
</svg>