<svg width="352" height="352" viewBox="-148 -195.65 352 352" version="1.1" xmlns="http://www.w3.org/2000/svg">
<g fill="none" stroke="#000"><path d="M-148 0H165M.73 212.26V-164.28M31.94 0a32 32 0 0 0-8.71-21.63" stroke-width="1.57"/><circle r="124" stroke-width="2.51"/><path d="M0 0L66.16-105.89" stroke-width="2.51"/></g><path d="M7-157.24L.73-174.8-5.55-157.24.73-164.27M157.98 6.27L175.53 0 157.98-6.27 165 0M30.44-21.78L17.27-26.47 24.49-14.5l-1.1-6.97"/><circle cx="66.16" cy="-105.89" r="5.4"/><path d="M46.41-30.15h2.95c.62 0 .94.05.94-.58 0-.34-.32-.36-.88-.36H46.66c1.13-4.44 1.29-5.06 1.29-5.25 0-.53-.38-.73-.91-.73-.1 0-.98.03-1.26 1.01l-1.22 4.97H41.61c-.62 0-.94.02-.94.61 0 .38.25.33.88.33h2.76c-2.26 8.95-2.38 9.48-2.38 10.05 0 1.69 1.19 2.88 2.88 2.88 3.2 0 4.99-4.57 4.99-4.82 0-.32-.26-.32-.38-.32-.28 0-.31.1-.47.44-1.35 3.26-3.01 4.07-4.07 4.07-.66 0-.86-.42-.86-1.5 0-.75.02-.97.07-1.5l2.32-9.3Zm9.27-88.75c0-.1 0-.16-.53-.69-3.92-3.95-4.81-9.87-4.81-14.67 0-5.45 1.17-10.91 4.94-14.83.41-.37.41-.43.41-.53 0-.22-.13-.4-.32-.4-.31 0-3.13 2.16-4.98 6.2-1.6 3.45-1.94 6.93-1.94 9.56 0 2.45.34 6.24 2.03 9.78 1.88 3.85 4.58 5.92 4.89 5.92.19 0 .32-.1.32-.34h-.01Zm13.15-19.62c-1.28.09-1.5 1.03-1.5 1.44 0 .81.58 1.53 1.47 1.53.81 0 1.36-.57 1.36-1.57 0-2.13-2.34-3.37-4.71-3.37-3.92 0-6.62 3.4-6.62 7.29 0 4.01 3.02 7.12 6.55 7.12 4.2 0 5.21-3.76 5.21-4.08 0-.31-.32-.31-.41-.31-.29 0-.35.13-.41.31-.91 2.92-2.95 3.45-4.11 3.45-1.66 0-4.31-1.38-4.31-6.55 0-5.11 2.51-6.6 4.13-6.6.28 0 2.25.04 3.35 1.34Zm17.38 5.39c0-4.01-3.15-7.35-6.95-7.35-3.92 0-6.9 3.42-6.9 7.35 0 4.04 3.23 7.05 6.87 7.05 3.79 0 6.98-3.07 6.98-7.05Zm-6.95 6.42c-1.35 0-2.73-.7-3.58-2.25-.78-1.38-.8-3.29-.8-4.42 0-1.22.02-2.92.77-4.3.85-1.44 2.32-2.18 3.58-2.18 1.37 0 2.72.72 3.54 2.12.81 1.35.92 3.16.92 4.36 0 1.13-.1 2.82-.8 4.2-.68 1.41-2.07 2.47-3.63 2.47v0Zm14.73-5.8c.68.13 3.23.63 3.23 2.89 0 1.6-1.09 2.91-3.51 2.91-2.64 0-3.77-1.81-4.36-4.51-.1-.41-.13-.53-.44-.53-.41 0-.5.22-.5.78v4.14c0 .53.09.75.44.75.15 0 .19-.03.78-.62.06-.07.06-.13.63-.72 1.37 1.31 2.79 1.34 3.45 1.34 3.6 0 5.08-2.1 5.08-4.36 0-1.66-.97-2.6-1.36-2.97-1.03-1.01-2.25-1.26-3.57-1.5-1.76-.35-3.88-.75-3.88-2.57 0-1.1.82-2.37 3.54-2.37 3.44 0 3.6 2.81 3.67 3.78.02.28.31.28.37.28.41 0 .29-.16.29-.75v-3.17c0-.53.12-.77-.23-.77-.15 0-.21.02-.62.4-.09.12-.41.41-.54.5-1.18-.88-2.47-.9-2.94-.9-3.82 0-5.1 2.11-5.1 3.88 0 1.1.53 1.97 1.43 2.66 1.01.82 1.89 1.01 4.14 1.44v-.01Zm17.24-6.5h2.94c.63 0 .94.05.94-.58 0-.34-.31-.36-.88-.36h-2.75c1.13-4.44 1.28-5.06 1.28-5.25 0-.53-.38-.73-.91-.73-.09 0-.97.03-1.26 1.01l-1.22 4.97h-2.94c-.63 0-.94.02-.94.61 0 .38.25.33.87.33h2.76c-2.25 8.95-2.38 9.48-2.38 10.05 0 1.69 1.19 2.88 2.89 2.88 3.19 0 4.98-4.58 4.98-4.82 0-.32-.25-.32-.38-.32-.28 0-.31.1-.46.44-1.35 3.26-3.01 4.07-4.08 4.07-.66 0-.86-.43-.86-1.5 0-.75.02-.97.08-1.5l2.32-9.3Zm11.16 12.55c0-2.07-.75-3.42-1.93-3.42-1.04 0-1.67.84-1.67 1.79 0 .85.63 1.67 1.67 1.67.37 0 .78-.13 1.09-.41.1-.07.13-.1.16-.1.03 0 .05.03.05.47 0 2.32-1.09 4.2-2.12 5.24-.34.34-.34.41-.34.5 0 .22.15.27.31.27.35 0 2.78-2.38 2.78-6.01v0Zm14.07-6.05c.69.13 3.23.63 3.23 2.89 0 1.6-1.08 2.91-3.51 2.91-2.63 0-3.76-1.81-4.36-4.51-.09-.41-.12-.53-.43-.53-.41 0-.5.22-.5.78v4.14c0 .53.09.75.43.75.16 0 .19-.03.79-.62.06-.07.06-.13.62-.72 1.38 1.31 2.79 1.34 3.45 1.34 3.61 0 5.09-2.1 5.09-4.36 0-1.66-.97-2.6-1.36-2.97-1.04-1.01-2.26-1.26-3.58-1.5-1.75-.35-3.87-.75-3.87-2.57 0-1.1.82-2.37 3.53-2.37 3.45 0 3.61 2.81 3.67 3.78.03.28.31.28.37.28.41 0 .29-.16.29-.75v-3.17c0-.53.12-.77-.22-.77-.16 0-.22.02-.63.4-.09.12-.4.41-.53.5-1.19-.88-2.47-.9-2.94-.9-3.82 0-5.11 2.11-5.11 3.88 0 1.1.54 1.97 1.44 2.66 1 .82 1.88 1.01 4.14 1.44l-.01-.01Zm11.73-7.77l-4.5.35v.89c2.04 0 2.3.2 2.3 1.8v8.43c0 1.41-.35 1.44-2.43 1.44v.94c1.01-.03 2.7-.09 3.45-.09 1.1 0 2.19.06 3.26.09v-.94c-2.07 0-2.08-.16-2.08-1.4v-11.51Zm0-5.46c0-1.01-.78-1.46-1.65-1.46-.97 0-1.81.74-1.81 1.46 0 .84.75 2 1.81 2 .88 0 1.65-.79 1.65-2Zm6.29 8.53v8.4c0 1.41-.34 1.44-2.45 1.44v.95c1.09-.04 2.69-.1 3.54-.1.81 0 2.44.06 3.51.1v-.95c-2.1 0-2.39-.03-2.39-1.44v-5.76c0-3.26 2.2-5.1 4.18-5.1 1.97 0 2.43 1.73 2.43 3.56v7.3c0 1.41-.36 1.44-2.56 1.44v.95c1.1-.04 2.7-.1 3.54-.1.82 0 2.45.06 3.51.1v-.95c-1.62 0-2.41-.03-2.44-.97l.15-5.98c0-2.7-.15-3.67-1.12-4.8-.44-.53-1.47-1.18-3.29-1.18-2.33 0-3.82 1.36-4.71 3.31v-3.29l-4.35.35v.89c2.19 0 2.47.23 2.47 1.83h-.02Zm25.65-1.8h2.95c.62 0 .93.05.93-.58 0-.34-.31-.36-.87-.36h-2.76c1.13-4.44 1.28-5.06 1.28-5.25 0-.53-.37-.73-.91-.73-.09 0-.97.03-1.25 1.01l-1.22 4.97h-2.95c-.63 0-.94.02-.94.61 0 .38.25.33.88.33h2.76c-2.26 8.95-2.39 9.48-2.39 10.05 0 1.69 1.2 2.88 2.89 2.88 3.2 0 4.98-4.58 4.98-4.82 0-.32-.25-.32-.37-.32-.28 0-.32.1-.47.44-1.35 3.26-3.01 4.07-4.07 4.07-.66 0-.87-.43-.87-1.5 0-.75.03-.97.08-1.5l2.32-9.3Zm14 4.75c0-2.45-.36-6.24-2.14-9.78-1.88-3.85-4.57-5.98-4.89-5.98-.19 0-.31.16-.31.4 0 .1 0 .16.59.72 3.07 3.1 4.86 8.09 4.86 14.64 0 5.36-1.16 10.88-5.05 14.83-.4.37-.4.43-.4.53 0 .18.12.34.31.34.32 0 3.13-2.14 4.98-6.14 1.6-3.45 2.04-6.93 2.04-9.56h.01ZM32.85-167c.13-.44.13-.5.13-.72 0-.56-.44-.86-.91-.86-.32 0-.82.19-1.1.67-.06.16-.31 1.13-.44 1.69-.22.82-.43 1.67-.62 2.51l-1.41 5.64c-.13.47-1.47 2.73-3.54 2.73-1.6 0-1.99-1.41-1.99-2.6 0-1.44.55-3.39 1.64-6.15.5-1.28.56-1.63.56-2.25 0-1.41-.97-2.59-2.5-2.59-2.98 0-4.14 4.56-4.14 4.84 0 .32.31.32.38.32.31 0 .34-.06.5-.56.84-2.95 2.1-3.97 3.16-3.97.26 0 .71.08.71 1.08 0 .78-.27 1.6-.45 2.19-1.26 3.33-1.75 5.11-1.75 6.59 0 2.79 1.94 3.72 3.75 3.72 1.22 0 2.29-.53 3.16-1.41-.4 1.63-.78 3.17-2.03 4.83-.82 1.07-2.01 1.93-3.45 1.93-.44 0-1.85-.09-2.38-1.29.5 0 .9.02 1.34-.36.32-.28.59-.69.59-1.28 0-.97-.82-1.19-1.12-1.19-.72 0-1.76.52-1.76 2.13 0 1.57 1.38 2.62 3.33 2.62 3.23 0 6.45-2.8 7.33-6.29L32.85-167ZM156.14 19.22c.19-.81.91-3.78 3.11-3.78.15 0 .9.08 1.56.49-.87.16-1.61.94-1.61 1.69 0 .5.37 1 1.3 1 .68 0 1.53-.53 1.53-1.72 0-1.63-1.75-2.09-2.76-2.09-1.81 0-2.91 1.68-3.29 2.41-.78-2.08-2.47-2.41-3.38-2.41-3.26 0-5.01 4.06-5.01 4.85 0 .31.28.31.34.31.25 0 .34-.06.4-.34 1.07-3.32 3.14-4.19 4.21-4.19.59 0 1.69.3 1.69 2.18 0 .98-.53 3.07-1.69 7.46-.51 1.95-1.6 3.32-2.98 3.32-.19 0-.91-.06-1.57-.47.79-.15 1.46-.81 1.46-1.69 0-.84-.68-1.01-1.14-1.01-.94 0-1.69.77-1.69 1.73 0 1.44 1.55 2.07 2.91 2.07 2.07 0 3.2-2.19 3.29-2.38.38 1.16 1.5 2.38 3.39 2.38 3.22 0 4.85-4.04 4.85-4.82 0-.32-.16-.32-.21-.32-.29 0-.35.13-.41.35-1.04 3.35-3.17 4.16-4.17 4.16-1.22 0-1.72-1.03-1.72-2.13 0-.69.18-1.37.53-2.76l1.06-4.29ZM18.25-78.21c0-.75.09-.7-.63-.7-1.95 1.89-4.7 1.88-5.71 1.88v.95c.63 0 2.5.03 4.13-.78v16.24c0 1.12-.09 1.53-2.94 1.53h-1v.94c1.1-.09 3.82-.09 5.08-.09 1.25 0 3.98 0 5.08.09v-.94H21.25c-2.82 0-3.01-.36-3.01-1.53l.01-17.59Z" stroke-width="3.15"/></svg>