<svg id="Layer_1" data-name="Layer 1" xmlns="http://www.w3.org/2000/svg" xmlns:xlink="http://www.w3.org/1999/xlink" viewBox="0 0 622 483">
  <defs>
    <style>
      .cls-1, .cls-4 {
        fill: none;
      }

      .cls-2 {
        fill: #fff;
      }

      .cls-3 {
        clip-path: url(#clip-path);
      }

      .cls-4 {
        stroke: #000;
        stroke-linecap: round;
        stroke-linejoin: round;
        stroke-width: 0.75px;
      }

      .cls-5, .cls-6, .cls-8, .cls-9 {
        font-size: 12px;
      }

      .cls-5, .cls-8, .cls-9 {
        font-family: Helvetica;
      }

      .cls-5 {
        letter-spacing: 7.715em;
      }

      .cls-12, .cls-6 {
        font-family: LiberationSans, Liberation Sans;
      }

      .cls-7 {
        clip-path: url(#clip-path-2);
      }

      .cls-8 {
        letter-spacing: 6.968em;
      }

      .cls-10, .cls-11, .cls-12 {
        font-size: 15px;
      }

      .cls-11 {
        letter-spacing: 0em;
      }

      .cls-13 {
        letter-spacing: -0.018em;
      }
    </style>
    <clipPath id="clip-path" transform="translate(0.375)">
      <rect class="cls-1" x="59.04" y="59.04" width="533.22" height="109.02"/>
    </clipPath>
    <clipPath id="clip-path-2" transform="translate(0.375)">
      <rect class="cls-1" x="59.04" y="300.54" width="533.22" height="109.02"/>
    </clipPath>
  </defs>
  <rect class="cls-2" x="0.375" width="622" height="483"/>
  <g class="cls-3">
    <path class="cls-4" d="M0,78.91l.1-1.15.19-2.13.2-2.04.19-1.93.19-1.79.2-1.62.19-1.43.19-1.22.19-1,.2-.75.19-.5.19-.25.2.02.19.27.19.53.19.78.2,1,.19,1.23.19,1.42.2,1.6.19,1.75.19,1.87.19,1.97.2,2.04.19,2.08.19,2.07.2,2.06.19,1.99.19,1.91.19,1.79.2,1.65.19,1.49.19,1.29L6.47,95l.19.86.19.63.19.39.2.14.19-.12.19-.36.2-.6.19-.83.19-1.05.19-1.25.2-1.43.19-1.58.19-1.72.2-1.82.19-1.89.19-1.94.19-1.95.2-1.93.19-1.89.19-1.81.2-1.69.19-1.56.19-1.4.19-1.22.2-1,.19-.79.19-.54.2-.3.19-.04.19.22.19.48.2.73.19.98.19,1.22.2,1.43.19,1.64.19,1.81.2,1.97.19,2.1.19,2.2.19,2.28.2,2.31.19,2.33.19,2.3.2,2.25.19,2.17.19,2.06.19,1.92.2,1.75.19,1.57.19,1.37.2,1.14.19.91.19.66.19.42.2.16.19-.08.19-.33.2-.56.19-.79.19-.99.19-1.18.2-1.33.19-1.48L19,98.36l.2-1.67.19-1.72.19-1.74.19-1.74.2-1.69.19-1.62.19-1.52.2-1.39.19-1.23.19-1.06.19-.86.2-.63.19-.41.19-.16.2.1.19.35.19.61.19.86.2,1.11.19,1.34.19,1.56.2,1.77.19,1.94.19,2.11.19,2.24.2,2.34.19,2.42.19,2.46.2,2.48.19,2.46.19,2.41.19,2.33.2,2.22.19,2.08.19,1.93.2,1.74.19,1.54.19,1.31.19,1.08.2.83.19.59.19.33.2.07.19-.17.19-.41.19-.64.2-.85.19-1.04.19-1.22.2-1.35.19-1.48.19-1.57.19-1.63.2-1.66.19-1.66.19-1.63.2-1.56.19-1.48.19-1.35.19-1.2.2-1.04.19-.84.19-.62.2-.4.19-.16.19.08.19.35.2.59.19.85.19,1.09.2,1.33.19,1.54.19,1.75.19,1.94.2,2.09.19,2.23.19,2.33.2,2.41.19,2.46.19,2.48.19,2.46.2,2.42.19,2.34.19,2.23.2,2.1.19,1.94.19,1.75.19,1.55.2,1.34.19,1.09.19.85.2.6.19.33.19.08.19-.17.2-.41.19-.65.19-.87.2-1.06.19-1.25.19-1.4.19-1.52.2-1.63.19-1.69.19-1.73.2-1.75.19-1.72.19-1.66.19-1.59.2-1.47.19-1.33.19-1.16.2-.98.19-.78.19-.55.19-.32.2-.07.19.17.19.43.2.68.19.92.19,1.16.19,1.37.2,1.58.19,1.77.19,1.92.2,2.07.19,2.17.19,2.25.19,2.31.2,2.32.19,2.32.19,2.27.2,2.2.19,2.09.19,1.96.19,1.81.2,1.63.19,1.42.19,1.2.2.97.19.72.19.47.19.2.2-.05.19-.31.19-.56.2-.79.19-1.02.19-1.22.19-1.41.2-1.57.19-1.7.19-1.81.2-1.89.19-1.94.19-1.95.19-1.94.2-1.89.19-1.81.19-1.71.2-1.58.19-1.42.19-1.24.19-1.03.2-.83.19-.59.19-.34.2-.1.19.15.19.39.19.64.2.88.19,1.1.19,1.31.2,1.49.19,1.66.19,1.79.19,1.92.2,2,.19,2.05.19,2.08.2,2.07.19,2.04.19,1.97.19,1.86.2,1.75.19,1.59.19,1.41.2,1.21.19,1,.19.76.19.52.2.26h.19l.19-.26.2-.51.19-.77.19-1,.19-1.23.2-1.44.19-1.63.19-1.8.2-1.93.19-2.05.19-2.14.19-2.18.2-2.21.19-2.2.19-2.16.2-2.09.19-1.99.19-1.86.19-1.71.2-1.53.19-1.34.19-1.12.2-.89.19-.65.19-.4.19-.16.2.1.19.34.19.58.2.81.19,1.01.19,1.21.19,1.38.2,1.52.19,1.65.19,1.73.2,1.8.19,1.83.19,1.84.19,1.8.2,1.74.19,1.65.19,1.53.2,1.38.19,1.21.19,1.02.19.8.2.58.19.33.19.08.2-.18.19-.43.19-.69.19-.95.2-1.18.19-1.41.19-1.62.2-1.82.19-1.98.19-2.13.19-2.24.2-2.33.19-2.39.19-2.41.2-2.41.19-2.38.19-2.31.19-2.21.2-2.09.19-1.93.19-1.77.2-1.57.19-1.35.19-1.12.19-.89.2-.64.19-.38.19-.13.2.11.19.36.19.59.19.81.2,1,.19,1.18L73,117.1l.2,1.47.19,1.56.19,1.63.19,1.68.2,1.68.19,1.66.19,1.61.2,1.53.19,1.41.19,1.28.19,1.11.2.93.19.71.19.5.2.25.19.01.19-.24.19-.5.2-.76.19-1,.19-1.25.2-1.47.19-1.68.19-1.88.19-2.05.2-2.19.19-2.31.19-2.41.2-2.46.19-2.49.19-2.5.19-2.46.2-2.39.19-2.3.19-2.18.2-2.03.19-1.86.19-1.67.19-1.45.2-1.22.19-.98.19-.73.2-.47.19-.22.19.03.19.28.2.52.19.74.19.94.2,1.13.19,1.29.19,1.43.19,1.53.2,1.62.19,1.67.19,1.68.2,1.67.19,1.63.19,1.55.19,1.46.2,1.32.19,1.16.19.98.2.79.19.56.19.34.19.09.2-.16.19-.41.19-.66.2-.91.19-1.15.19-1.37.19-1.59.2-1.78.19-1.95.19-2.11.2-2.22.19-2.32.19-2.37.19-2.42.2-2.41.19-2.39.19-2.32.2-2.23.19-2.12.19-1.96.19-1.8.2-1.6.19-1.39.19-1.16.2-.92.19-.66.19-.41.19-.15.2.1.19.36.19.6.2.82.19,1.04.19,1.23.19,1.4.2,1.54.19,1.66.19,1.75.2,1.81.19,1.83.19,1.83.19,1.79.2,1.73.19,1.64.19,1.51.2,1.36.19,1.19.19.99.19.79.2.55.19.32.19.07.2-.18.19-.43.19-.67.19-.91.2-1.15.19-1.35.19-1.55.2-1.73.19-1.87.19-2,.19-2.1.2-2.17.19-2.2.19-2.21.2-2.18.19-2.12.19-2.04.19-1.93.2-1.78.19-1.61.19-1.42.2-1.21.19-.98.19-.74.19-.49.2-.23.19.03.19.28.2.55.19.78.19,1.02.19,1.23.2,1.43.19,1.61.19,1.76.2,1.88.19,1.97.19,2.04.19,2.08.2,2.08.19,2.05.19,1.99.2,1.9.19,1.79.19,1.64.2,1.47.19,1.29.19,1.08.19.85.2.62.19.37.19.13.2-.13.19-.37.19-.62.19-.84.2-1.06.19-1.26.19-1.43.2-1.59.19-1.73.19-1.82.19-1.9.2-1.94.19-1.95.19-1.93.2-1.88.19-1.8.19-1.69.19-1.56.2-1.39.19-1.2.19-1,.2-.77.19-.53.19-.29.19-.02.2.23.19.49.19.75.2.99.19,1.22.19,1.45.19,1.64.2,1.83.19,1.97.19,2.11.2,2.21.19,2.27.19,2.32.19,2.32.2,2.3.19,2.25.19,2.17.2,2.05.19,1.91.19,1.75.19,1.56.2,1.35.19,1.13.19.9.2.65.19.4.19.16.19-.1.2-.34.19-.58.19-.79.2-1,.19-1.19.19-1.34.19-1.49.2-1.59.19-1.67.19-1.73.2-1.74.19-1.73.19-1.69.19-1.62.2-1.51.19-1.38.19-1.23.2-1.05.19-.84.19-.63.19-.39.2-.15.19.11.19.36.2.62.19.88.19,1.12.19,1.35.2,1.57.19,1.78.19,1.96.2,2.11.19,2.24.19,2.35.19,2.42.2,2.47.19,2.47.19,2.46.2,2.41.19,2.32.19,2.22.19,2.07.2,1.92.19,1.73.19,1.53.2,1.3.19,1.07.19.82.19.57.2.32.19.06.19-.18.2-.43.19-.65.19-.86.19-1.05.2-1.22.19-1.37.19-1.48.2-1.57.19-1.63.19-1.66.19-1.66.2-1.63.19-1.56.19-1.47.2-1.34.19-1.2.19-1.02.19-.83.2-.62.19-.39.19-.15.2.11.19.35.19.61.19.86.2,1.1.19,1.34.19,1.56.2,1.76.19,1.94.19,2.1.19,2.23.2,2.34.19,2.42.19,2.46.2,2.47.19,2.46.19,2.42.19,2.33.2,2.23.19,2.09.19,1.93.2,1.75.19,1.54.19,1.32.19,1.08.2.84.19.58.19.32.2.07.19-.18.19-.43.19-.66.2-.88.19-1.07.19-1.25.2-1.41.19-1.53.19-1.63.19-1.7.2-1.73.19-1.74.19-1.72.2-1.67.19-1.57.19-1.47.19-1.32.2-1.16.19-.97.19-.76.2-.54.19-.31.19-.06.19.19.2.44.19.69.19.93.2,1.17.19,1.39.19,1.59.19,1.77.2,1.93.19,2.07.19,2.18.2,2.26.19,2.3.19,2.33.19,2.31.2,2.27.19,2.19.19,2.09.2,1.96.19,1.8.19,1.61.19,1.42.2,1.19.19.95.19.71.2.45.19.2.19-.07.19-.32.2-.57.19-.81.19-1.03.2-1.23.19-1.42.19-1.57.19-1.71.2-1.82.19-1.89.19-1.93.2-1.96.19-1.93.19-1.89.19-1.81.2-1.7.19-1.57.19-1.41.2-1.23.19-1.03.19-.81.19-.58.2-.33.19-.09.19.16.2.41.19.65.19.89.19,1.11.2,1.32.19,1.5.19,1.66.2,1.81.19,1.92.19,2,.19,2.05.2,2.08.19,2.08.19,2.03.2,1.96.19,1.86.19,1.74.19,1.58.2,1.4.19,1.21.19.98.2.75.19.51.19.24.19-.01.2-.27.19-.52.19-.78.2-1.02.19-1.24.19-1.45.19-1.64.2-1.8.19-1.94.19-2.06.2-2.13.19-2.19.19-2.21.19-2.2.2-2.16.19-2.08.19-1.99.2-1.85.19-1.7.19-1.52.19-1.33.2-1.11.19-.88.19-.63.2-.4.19-.14.19.11.19.36.2.59.19.81.19,1.03.2,1.21.19,1.39.19,1.53.19,1.65.2,1.74.19,1.8.19,1.84.2,1.83.19,1.8.19,1.73.19,1.65.2,1.52.19,1.37.19,1.21.2,1,.19.8.19.56.19.32.2.07.19-.19.19-.45.2-.7.19-.96.19-1.19.19-1.43.2-1.63.19-1.82.19-1.99.2-2.14.19-2.24.19-2.34.19-2.39.2-2.41.19-2.41.19-2.38.2-2.3.19-2.21.19-2.08.19-1.93.2-1.75.19-1.56.19-1.34.2-1.11.19-.88.19-.62.19-.37.2-.12.19.13.19.37.2.6.19.81.19,1.01.19,1.19.2,1.34.19,1.47.19,1.57.2,1.64.19,1.67.19,1.69.19,1.66.2,1.6.19,1.52.19,1.41.2,1.27.19,1.1.19.92.19.7.2.48.19.25.19-.01.2-.25.19-.52.19-.76.19-1.02.2-1.26.19-1.48.19-1.69.2-1.89.19-2.06.19-2.2.19-2.31.2-2.41.19-2.47.19-2.49.2-2.49.19-2.46.19-2.39.19-2.29.2-2.18.19-2.02.19-1.85.2-1.65.19-1.44.19-1.21.19-.97.2-.72.19-.46.19-.21.2.05.19.29.19.53.19.75.2.95.19,1.14.19,1.3.2,1.43.19,1.54.19,1.62.19,1.67.2,1.68.19,1.67.19,1.63.2,1.55.19,1.44.19,1.32.19,1.15.2.98.19.77.19.56.2.32.19.08.19-.17.19-.42.2-.68.19-.92.19-1.16.2-1.39.19-1.59.19-1.79.19-1.97.2-2.1.19-2.23.19-2.32.2-2.39.19-2.41.19-2.41.19-2.38.2-2.32.19-2.23.19-2.11.2-1.96.19-1.78.19-1.59.19-1.38.2-1.15.19-.91.19-.65.2-.4.19-.13.19.12.19.36.2.61.19.84.19,1.05.2,1.24.19,1.4.19,1.55.19,1.67.2,1.75.19,1.81.19,1.83.2,1.83m0,0,.19,1.79.19,1.73.19,1.63.2,1.5.19,1.35.19,1.18.2.99.19.77.19.55.19.3.2.06.19-.19.19-.44.2-.69.19-.93.19-1.15.19-1.37.2-1.56.19-1.73.19-1.88.2-2.01.19-2.1.19-2.17.2-2.2.19-2.21.19-2.18.19-2.12.2-2.03.19-1.92.19-1.77.2-1.6.19-1.42.19-1.19.19-.97.2-.73.19-.48.19-.22.2.04.19.31.19.55.19.8.2,1.03.19,1.24.19,1.44.2,1.62.19,1.76.19,1.88.19,1.98.2,2.05.19,2.07.19,2.08.2,2.05.19,1.99.19,1.89.19,1.78.2,1.64.19,1.46.19,1.28.2,1.07.19.84.19.6.19.36.2.12.19-.14.19-.39.2-.62.19-.86.19-1.07.19-1.26.2-1.45.19-1.6.19-1.72.2-1.83.19-1.9.19-1.94.19-1.96.2-1.93.19-1.87.19-1.8.2-1.69.19-1.54.19-1.38.19-1.2.2-.98.19-.76.19-.52.2-.27.19-.02.19.25.19.5.2.76.19,1,.19,1.24.2,1.45.19,1.66.19,1.83.19,1.99.2,2.11.19,2.21.19,2.28.2,2.32.19,2.32.19,2.3.19,2.24.2,2.16.19,2.05.19,1.9.2,1.74.19,1.55.19,1.34.19,1.12.2.89.19.64.19.39.2.14.19-.11.19-.36.19-.58.2-.81.19-1.01.19-1.19.2-1.36.19-1.48.19-1.6.19-1.68.2-1.72.19-1.75.19-1.73.2-1.68.19-1.61.19-1.51.19-1.38.2-1.22.19-1.03.19-.84.2-.61.19-.38.19-.14.19.12.2.38.19.63.19.89.2,1.13.19,1.36.19,1.59.19,1.78.2,1.97.19,2.12.19,2.25.2,2.35.19,2.43.19,2.46.19,2.48.2,2.45.19,2.4.19,2.32.2,2.21.19,2.07.19,1.91.19,1.72.2,1.52.19,1.29.19,1.05.2.81.19.56.19.31.19.05.2-.2.19-.44.19-.66.2-.87.19-1.06.19-1.23.19-1.37.2-1.49.19-1.57.19-1.64.2-1.66.19-1.66.19-1.62.19-1.56.2-1.46.19-1.34.19-1.18.2-1.02.19-.82.19-.6.19-.38.2-.14.19.12.19.36.2.62.19.88.19,1.11.19,1.35.2,1.57.19,1.77.19,1.95.2,2.11.19,2.24.19,2.34.19,2.42.2,2.46.19,2.48.19,2.46.2,2.41.19,2.32.19,2.22.19,2.09.2,1.92.19,1.74.19,1.53.2,1.31.19,1.07.19.82.19.57.2.31.19.06.19-.2.2-.44.19-.67.19-.89.19-1.08.2-1.26.19-1.41.19-1.54.2-1.63.19-1.7.19-1.74.19-1.74.2-1.72.19-1.66.19-1.57.2-1.46.19-1.31.19-1.15.19-.96.2-.75.19-.53.19-.3.2-.05.19.21.19.45.19.7.2.95.19,1.17.19,1.4.2,1.6.19,1.78.19,1.94.19,2.08.2,2.18.19,2.26.19,2.31.2,2.33.19,2.31.19,2.26.19,2.19.2,2.08.19,1.95.19,1.79.2,1.61.19,1.4.19,1.18.19.94.2.7.19.44.19.18.2-.08.19-.33.19-.59.19-.81.2-1.04.19-1.25.19-1.42.2-1.58.19-1.72.19-1.82.19-1.89.2-1.94.19-1.95.19-1.94.2-1.88.19-1.81.19-1.7.19-1.56.2-1.4.19-1.22.19-1.02.2-.8.19-.56.19-.32.19-.08.2.17.19.43.19.66.2.9.19,1.12.19,1.33.19,1.51.2,1.67.19,1.81.19,1.92.2,2.01.19,2.06.19,2.08.19,2.07.2,2.03.19,1.96.19,1.85.2,1.73.19,1.58.19,1.39.19,1.19.2.98.19.73.19.49.2.24.19-.02.19-.29.19-.54.2-.79.19-1.02.19-1.26.2-1.46.19-1.65.19-1.81.19-1.95.2-2.05.19-2.14.19-2.19.2-2.21.19-2.2.19-2.15.19-2.08.2-1.98.19-1.85.19-1.69.2-1.51.19-1.32.19-1.1.19-.86.2-.63.19-.38.19-.13.2.12.19.37.19.6.19.83.2,1.03.19,1.23.19,1.39.2,1.54.19,1.66.19,1.74.19,1.8.2,1.84.19,1.83.19,1.8.2,1.73.19,1.64.19,1.51.19,1.37.2,1.19.19,1,.19.78.2.55.19.31.19.05.19-.2.2-.46.19-.72.19-.96.2-1.21.19-1.43.19-1.65.19-1.83.2-2,.19-2.14.19-2.25.2-2.34.19-2.39.19-2.42.19-2.4.2-2.37.19-2.3.19-2.2.2-2.08.19-1.92.19-1.74.19-1.55.2-1.33.19-1.1.19-.86.2-.62.19-.36.19-.1.19.14.2.38.19.61.19.83.2,1.02.19,1.2.19,1.35.19,1.47.2,1.57.19,1.64.19,1.68.2,1.68.19,1.66.19,1.6.19,1.52.2,1.4.19,1.26.19,1.09.2.91.19.69.19.47.19.23.2-.01.19-.27.19-.53.2-.78.19-1.03.19-1.27.19-1.49.2-1.7.19-1.9.19-2.06.2-2.21.19-2.32.19-2.41.19-2.47.2-2.49.19-2.49.19-2.46.2-2.39.19-2.29.19-2.16.19-2.02.2-1.84.19-1.64.19-1.43.2-1.2.19-.95.19-.71.19-.45.2-.19.19.06.19.3.2.54.19.76.19.97.19,1.14.2,1.31.19,1.44.19,1.54.2,1.63.19,1.66.19,1.69.19,1.67.2,1.62.19,1.54.19,1.44.2,1.31.19,1.15.19.96.19.76.2.55.19.31.19.07.2-.19.19-.43.19-.69.19-.93.2-1.17.19-1.4.19-1.61.2-1.8.19-1.97.19-2.11.19-2.24.2-2.32.19-2.39.19-2.41.2-2.41.19-2.38.19-2.32.19-2.22.2-2.1.19-1.95.19-1.78.2-1.58.19-1.37.19-1.13.2-.89.19-.65.19-.38.19-.12.2.13.19.38.19.62.2.85.19,1.06.19,1.24.19,1.42.2,1.55.19,1.67.19,1.76.2,1.81.19,1.83.19,1.83.19,1.79.2,1.72.19,1.63.19,1.49.2,1.35.19,1.17.19.97.19.76.2.54.19.29.19.05.2-.21.19-.45.19-.7.19-.94.2-1.16.19-1.38.19-1.57.2-1.74.19-1.89.19-2.01.19-2.11.2-2.17.19-2.2.19-2.21.2-2.17.19-2.12.19-2.03.19-1.91.2-1.77.19-1.59.19-1.4.2-1.19.19-.96.19-.71.19-.47.2-.2.19.05.19.32.2.56.19.81.19,1.04.19,1.26.2,1.45L300,70.2l.19,1.77.2,1.89.19,1.99.19,2.04.19,2.08.2,2.07.19,2.05.19,1.98.2,1.9.19,1.77.19,1.63.19,1.45.2,1.27.19,1.05.19.83.2.6.19.35.19.09.19-.15.2-.39.19-.64.19-.87.2-1.08.19-1.27.19-1.45.19-1.61.2-1.73.19-1.84.19-1.9.2-1.94.19-1.95.19-1.93.19-1.88.2-1.79.19-1.68.19-1.53.2-1.38.19-1.18.19-.97.19-.75.2-.51.19-.26h.19l.2.26.19.51.19.77.19,1.02.2,1.25.19,1.46.19,1.67.2,1.84.19,1.99.19,2.12.19,2.21.2,2.28.19,2.32.19,2.33.2,2.29.19,2.24.19,2.16.19,2.03.2,1.9.19,1.73.19,1.54.2,1.33.19,1.11.19.88.19.62.2.38.19.13.19-.13.2-.36.19-.6.19-.82.19-1.02.2-1.2.19-1.36.19-1.49.2-1.6.19-1.68.19-1.73.19-1.74.2-1.73.19-1.69.19-1.6.2-1.5.19-1.37.19-1.21.19-1.03.2-.83.19-.6.19-.37.2-.12.19.13.19.39.19.65.2.9.19,1.14.19,1.38.2,1.59.19,1.8.19,1.97.19,2.13.2,2.25.19,2.36.19,2.43.2,2.46.19,2.48.19,2.45.19,2.4.2,2.32.19,2.2.19,2.06.2,1.9.19,1.71.19,1.51.19,1.28.2,1.04.19.8.19.54.2.29.19.04.19-.21.19-.44.2-.67.19-.89.19-1.06.2-1.24.19-1.38.19-1.49.19-1.58.2-1.64.19-1.66.19-1.66.2-1.62.19-1.55.19-1.46.19-1.33.2-1.18.19-1.01.19-.8.2-.6.19-.36.19-.13.19.13.2.38.19.63.19.89.2,1.12.19,1.37.19,1.57.19,1.78.2,1.96.19,2.12.19,2.24.2,2.35.19,2.42.19,2.47.19,2.47.2,2.46.19,2.4.19,2.33.2,2.21.19,2.08.19,1.91.19,1.73.2,1.52.19,1.3.19,1.05.2.82.19.55.19.3.19.04.2-.2.19-.46.19-.68.2-.9.19-1.09.19-1.27.19-1.42.2-1.54.19-1.64.19-1.7.2-1.74.19-1.74.19-1.71.19-1.66.2-1.56.19-1.46.19-1.3.2-1.14.19-.95.19-.75.19-.51.2-.29.19-.03.19.21.2.47.19.71.19.96.19,1.19.2,1.41.19,1.61.19,1.79.2,1.94.19,2.09.19,2.18.19,2.27.2,2.31.19,2.32.19,2.31.2,2.26.19,2.19.19,2.07.19,1.95.2,1.78.19,1.59.19,1.4.2,1.16.19.93.19.69.19.42.2.17.19-.09.19-.35.2-.59.19-.83.19-1.05.19-1.25.2-1.44.19-1.59.19-1.72.2-1.82.19-1.9.19-1.94.19-1.95.2-1.93.19-1.88.19-1.81.2-1.69.19-1.55.19-1.4.19-1.21.2-1,.19-.79.19-.55.2-.31.19-.07.19.19.19.43.2.68.19.91.19,1.13.2,1.34.19,1.52.19,1.68.19,1.81.2,1.93.19,2.01.19,2.06.2,2.08.19,2.07.19,2.03.19,1.95.2,1.85.19,1.73.19,1.56.2,1.38.19,1.19.19.96.19.72.2.48.19.23.19-.04.2-.3.19-.55.19-.8.19-1.04.2-1.27.19-1.47.19-1.65.2-1.82.19-1.96.19-2.06.19-2.14.2-2.19.19-2.21.19-2.2.2-2.15.19-2.08.19-1.97.19-1.84.2-1.68.19-1.51.19-1.3.2-1.09.19-.85.19-.62.19-.36.2-.12.19.14.19.37.2.62.19.84.19,1.04.19,1.23.2,1.41.19,1.54.19,1.66.2,1.75.19,1.81.19,1.83.19,1.83.2,1.79.19,1.73.19,1.64.2,1.5.19,1.36.19,1.19.19.98.2.77.19.54.19.3.2.04.19-.22.19-.47.19-.73.2-.98.19-1.22.19-1.44.2-1.65.19-1.84.19-2.01.19-2.15.2-2.25.19-2.35.19-2.39.2-2.42.19-2.4.19-2.37.19-2.3.2-2.19.19-2.07.19-1.91.2-1.74.19-1.53.19-1.32.19-1.09.2-.85.19-.6.19-.35.2-.09.19.15.19.4.19.62.2.83.19,1.04.19,1.2.2,1.36.19,1.48.19,1.57.19,1.64.2,1.68.19,1.68.19,1.66.2,1.6.19,1.51.19,1.4.19,1.25.2,1.08.19.9.19.68.2.46.19.22.19-.03.19-.28.2-.54.19-.79.19-1.04.2-1.28.19-1.51.19-1.71.19-1.91.2-2.07.19-2.21.19-2.33.2-2.41.19-2.47.19-2.5.19-2.49.2-2.45.19-2.38.19-2.29.2-2.16.19-2,.19-1.84.19-1.63.2-1.41.19-1.19.19-.94.2-.69.19-.44.19-.18.19.07.2.32.19.55.19.77.2.97.19,1.16.19,1.31.2,1.44.19,1.55.19,1.63.19,1.67.2,1.68.19,1.67.19,1.62.2,1.54.19,1.43.19,1.3.19,1.14.2.95.19.76.19.53.2.3.19.05.19-.19.19-.45.2-.7.19-.94.19-1.19.2-1.41.19-1.61.19-1.81.19-1.98.2-2.12.19-2.24.19-2.33.2-2.39.19-2.41.19-2.41.19-2.38.2-2.31m0,0,.19-2.22.19-2.09.2-1.94.19-1.77.19-1.57.19-1.36.2-1.12.19-.88.19-.63.2-.37.19-.11.19.14.19.4.2.63.19.86.19,1.06.2,1.26.19,1.42.19,1.56.19,1.68.2,1.76.19,1.81.19,1.84.2,1.82.19,1.79.19,1.72.19,1.61.2,1.49.19,1.34.19,1.16.2.97.19.75.19.52.19.28.2.03.19-.21.19-.47.2-.71.19-.95.19-1.18.19-1.38.2-1.58.19-1.75.19-1.9.2-2.01.19-2.11.19-2.18.19-2.2.2-2.21.19-2.17.19-2.12.2-2.02.19-1.9.19-1.76.19-1.59.2-1.39.19-1.17.19-.95.2-.7.19-.45.19-.19.19.06.2.33.19.58.19.82.2,1.05.19,1.27.19,1.46.19,1.63.2,1.77.19,1.9.19,1.99.2,2.04.19,2.08.19,2.08.19,2.04.2,1.98.19,1.89.19,1.76.2,1.62.19,1.45.19,1.26.19,1.04.2.82.19.58.19.34.2.08.19-.16.19-.41.19-.65.2-.87.19-1.09.19-1.29.2-1.46.19-1.61.19-1.74.19-1.84.2-1.91.19-1.94.19-1.95.2-1.93.19-1.87.19-1.78.19-1.68.2-1.53.19-1.36.19-1.17.2-.97.19-.73.19-.5.19-.25.2.02.19.27.19.53.2.78.19,1.03.19,1.26.19,1.47.2,1.67.19,1.85.19,2,.2,2.13.19,2.21.19,2.29.19,2.32.2,2.32.19,2.3.19,2.23.2,2.15.19,2.03.19,1.89.19,1.72.2,1.53.19,1.32.19,1.1.2.86.19.62.19.36.19.12.2-.14.19-.38.19-.6.2-.83.19-1.03.19-1.21.19-1.37.2-1.5.19-1.61.19-1.68.2-1.73.19-1.74.19-1.73.19-1.68.2-1.6.19-1.5.19-1.36.2-1.2.19-1.02.19-.81.19-.59.2-.36.19-.11.19.15.2.4.19.66.19.91.19,1.16.2,1.38.19,1.61.19,1.8.2,1.98.19,2.14.19,2.26.19,2.36.2,2.43.19,2.47.19,2.47.2,2.45.19,2.4.19,2.31.19,2.2.2,2.05.19,1.89.19,1.7.2,1.5.19,1.27.19,1.03.19.78.2.53.19.28.19.03.2-.22.19-.46.19-.68.19-.89.2-1.08.19-1.25.19-1.38.2-1.5.19-1.58.19-1.64.19-1.66.2-1.66.19-1.62.19-1.55.2-1.45.19-1.32.19-1.17.19-1,.2-.8.19-.58.19-.36.2-.11.19.14.19.39.19.65.2.9.19,1.14.19,1.37.2,1.59.19,1.79.19,1.96.19,2.13.2,2.25.19,2.35.19,2.42.2,2.47.19,2.48.19,2.45.19,2.4.2,2.32.19,2.21.19,2.07.2,1.9.19,1.72.19,1.51.19,1.28.2,1.05.19.8.19.54.2.29.19.03.19-.22.19-.47.2-.69.19-.91.19-1.1.2-1.28.19-1.42.19-1.55.19-1.64.2-1.71.19-1.73.19-1.74.2-1.72.19-1.65.19-1.56.19-1.44.2-1.3.19-1.14.19-.94.2-.73.19-.5.19-.27.19-.03.2.23.19.48.19.73.2.96.19,1.2.19,1.42.19,1.62.2,1.8.19,1.96.19,2.08.2,2.19.19,2.27.19,2.31.19,2.33.2,2.31.19,2.25.19,2.18.2,2.07.19,1.94.19,1.77.19,1.59.2,1.38.19,1.16.19.91.2.67.19.42.19.15.19-.1.2-.36.19-.61.19-.84.2-1.06.19-1.26.19-1.44.19-1.6.2-1.73.19-1.83.19-1.9.2-1.94.19-1.95.19-1.93.19-1.88.2-1.79.19-1.69.19-1.55.2-1.38.19-1.2.19-1,.19-.77.2-.54.19-.3.19-.05.2.19.19.45.19.69.19.92.2,1.14.19,1.35.19,1.53.2,1.68.19,1.83.19,1.93.19,2.01.2,2.06.19,2.09.19,2.06.2,2.03.19,1.95.19,1.84.19,1.72.2,1.55.19,1.38.19,1.17.2.95.19.71.19.47.19.21.2-.05.19-.31.19-.56.2-.82.19-1.05.19-1.27.19-1.48.2-1.67.19-1.83.19-1.96.2-2.06.19-2.15.19-2.19.19-2.21.2-2.2.19-2.15.19-2.07.2-1.96.19-1.84.19-1.67.19-1.5.2-1.29.19-1.07.19-.85.2-.6.19-.35.19-.11.19.15.2.39.19.62.19.85.2,1.06.19,1.24.19,1.41.19,1.55.2,1.67.19,1.75.19,1.81.2,1.83.19,1.83.19,1.79.19,1.73.2,1.62.19,1.51.19,1.35.2,1.17.19.98.19.76.19.52.2.29.19.03.19-.23.2-.49.19-.74.19-.99.19-1.23.2-1.46.19-1.66.19-1.85.2-2.01.19-2.16.19-2.26.19-2.34.2-2.4.19-2.42.19-2.4.2-2.37.19-2.29.19-2.19.19-2.06.2-1.9.19-1.73.19-1.52.2-1.31.19-1.08.19-.84.19-.58.2-.34.19-.08.19.17.2.4.19.64.19.84.19,1.04.2,1.22.19,1.36.19,1.48.2,1.58.19,1.65.19,1.68.19,1.68.2,1.65.19,1.6.19,1.5.2,1.39.19,1.25.19,1.07.19.89.2.67.19.45.19.2.2-.04.19-.29.19-.55.2-.81.19-1.05.19-1.29.19-1.52.2-1.73.19-1.91.19-2.08.2-2.22.19-2.33.19-2.42.19-2.47.2-2.49.19-2.49.19-2.45.2-2.38.19-2.28.19-2.15.19-2,.2-1.82.19-1.62.19-1.41.2-1.17.19-.93.19-.68.19-.43.2-.16.19.08.19.33.2.56.19.78.19.98.19,1.17.2,1.32.19,1.45.19,1.55.2,1.63.19,1.67.19,1.69.19,1.66.2,1.62.19,1.53.19,1.43.2,1.29.19,1.13.19.95.19.74.2.52.19.29.19.04.2-.21.19-.46.19-.71.19-.96.2-1.19.19-1.42.19-1.63.2-1.82.19-1.98.19-2.13.19-2.25.2-2.33.19-2.39.19-2.41.2-2.41.19-2.38.19-2.3.19-2.22.2-2.08.19-1.94.19-1.75.2-1.57.19-1.34.19-1.11.19-.87.2-.62.19-.35.19-.1.2.15.19.41.19.65.19.87.2,1.07.19,1.27.19,1.43.2,1.57.19,1.68.19,1.76.19,1.81.2,1.84.19,1.82.19,1.79.2,1.71.19,1.61.19,1.48.19,1.33.2,1.15.19.96.19.74.2.51.19.27.19.02.19-.23.2-.48.19-.72.19-.97.2-1.18.19-1.4.19-1.58.19-1.76.2-1.91.19-2.02.19-2.11.2-2.18.19-2.2.19-2.21.19-2.17.2-2.11.19-2.02.19-1.9.2-1.74.19-1.58.19-1.38.19-1.16.2-.94.19-.69.19-.44.2-.18.19.08.19.34.19.59.2.84.19,1.06.19,1.27.2,1.47.19,1.64.19,1.78.19,1.91.2,1.99.19,2.05.19,2.08.2,2.07.19,2.04.19,1.98.19,1.88.2,1.76.19,1.61.19,1.44.2,1.24.19,1.04.19.8.19.57.2.33.19.07.19-.17.2-.43.19-.66.19-.88.19-1.1.2-1.3.19-1.47.19-1.62.2-1.74.19-1.84.19-1.91.19-1.95.2-1.95.19-1.92.19-1.87.2-1.78.19-1.67.19-1.52.19-1.35.2-1.17.19-.95.19-.73.2-.48.19-.23.19.02.19.29.2.54.19.79.19,1.04.2,1.27.19,1.49.19,1.68.19,1.86.2,2.01.19,2.12.19,2.23.2,2.28.19,2.32.19,2.33.19,2.29.2,2.23.19,2.15.19,2.02.2,1.88.19,1.71.19,1.52.19,1.31.2,1.09.19.85.19.6.2.35.19.11.19-.15.19-.39.2-.62.19-.84.19-1.04.2-1.22.19-1.37.19-1.51.19-1.61.2-1.68.19-1.73.19-1.75.2-1.72.19-1.68.19-1.6.19-1.49.2-1.35.19-1.19.19-1.01.2-.81.19-.58.19-.34.19-.1.2.16.19.42.19.67.2.92.19,1.17.19,1.4.19,1.61.2,1.82.19,1.99.19,2.14.2,2.27.19,2.36.19,2.43.19,2.47.2,2.48.19,2.45.19,2.39.2,2.3.19,2.19.19,2.05.19,1.88.2,1.69.19,1.49.19,1.25.2,1.02.19.77.19.52.19.27.2.01.19-.23.19-.47.2-.69.19-.9.19-1.09.19-1.25.2-1.39.19-1.51.19-1.58.2-1.64.19-1.67.19-1.65.19-1.62.2-1.54.19-1.45.19-1.31.2-1.17.19-.99.19-.78.19-.58.2-.34.19-.1.19.16.2.4.19.66.19.91.19,1.15.2,1.38.19,1.6.19,1.8.2,1.98.19,2.13.19,2.25.19,2.36.2,2.43.19,2.46.19,2.48.2,2.45.19,2.4.19,2.32.19,2.2.2,2.06.19,1.89.19,1.71.2,1.5.19,1.27.19,1.04.19.78.2.53.19.28.19.01.2-.23.19-.47.19-.71.19-.92.2-1.11.19-1.28.19-1.44.2-1.55.19-1.64.19-1.71.19-1.74.2-1.74.19-1.71.19-1.65.2-1.56.19-1.43.19-1.29.19-1.13.2-.93.19-.72.19-.49.2-.26.19-.01.19.24.19.49.2.74.19.98.19,1.21.2,1.43.19,1.63.19,1.8.19,1.97.2,2.09.19,2.2.19,2.27.2,2.31.19,2.32.19,2.31.19,2.26.2,2.17.19,2.06.19,1.93.2,1.77.19,1.57.19,1.37.19,1.15.2.9.19.66.19.4.2.14.19-.11.19-.38.19-.61.2-.86.19-1.07.19-1.27.2-1.45.19-1.6.19-1.74.19-1.83.2-1.9.19-1.94.19-1.96.2-1.92.19-1.88.19-1.79.19-1.68.2-1.54.19-1.38.19-1.19.2-.98.19-.77.19-.53.19-.28.2-.04.19.21.19.46.2.7.19.94.19,1.15.19,1.35.2,1.54.19,1.69.19,1.83.2,1.94.19,2.02.19,2.06.19,2.08.2,2.07.19,2.02.19,1.94.2,1.84.19,1.71.19,1.55.19,1.36.2,1.16.19.94.19.7.2.46.19.19.19-.06.19-.32.2-.58.19-.82.19-1.07.2-1.28.19-1.49.19-1.68.19-1.83.2-1.97.19-2.07.19-2.15.2-2.19.19-2.21.19-2.2.19-2.14.2-2.07.19-1.96.19-1.82.2-1.67.19-1.48.19-1.29.19-1.06.2-.83.19-.59.19-.34.2-.1.19.16.19.4.19.64.2.86.19,1.07.19,1.25.2,1.41.19,1.56.19,1.67.19,1.76.2,1.81.19,1.83.19,1.83.2,1.79.19,1.72.19,1.62.19,1.5.2,1.34.19,1.16.19.97.2.75.19.51.19.27.19.02.2-.24.19-.5.19-.76.2-1,.19-1.24.19-1.47.19-1.67.2-1.86.19-2.02.19-2.16.2-2.26.19-2.35.19-2.4.2-2.42.19-2.4.19-2.36.19-2.29.2-2.18.19-2.06.19-1.89.2-1.72.19-1.51.19-1.3.19-1.07.2-.82.19-.58.19-.32.2-.07.19.18.19.42.19.64.2.86.19,1.05.19,1.22.2,1.37.19,1.49.19,1.58.19,1.65.2,1.68.19,1.68.19,1.65.2,1.59.19,1.5.19,1.39.19,1.23.2,1.07.19.87.19.67.2.43.19.2.19-.06.19-.3.2-.57.19-.82.19-1.06.2-1.31.19-1.52.19-1.74.19-1.92.2-2.08.19-2.23.19-2.34.2-2.42.19-2.47.19-2.5.19-2.49.2-2.44.19-2.38.19-2.27.2-2.15.19-1.99.19-1.81.19-1.61.2-1.39.19-1.17.19-.91.2-.67.19-.41.19-.16.19.1.2.34.19.57.19.8.2.99.19,1.17.19,1.33.19,1.45.2,1.56.19,1.63.19,1.68.2,1.68.19,1.66.19,1.62.19,1.53.2,1.42m0,0,.19,1.28.19,1.12.2.94.19.73.19.51.19.28.2.03.19-.22.19-.48.2-.72.19-.97.19-1.21.19-1.43.2-1.64.19-1.82.19-2,.2-2.13.19-2.25.19-2.34.19-2.39.2-2.41.19-2.41.19-2.37.2-2.31.19-2.2.19-2.08.19-1.93.2-1.75.19-1.55.19-1.33.2-1.1.19-.86.19-.6.19-.34.2-.09.19.17.19.42.2.65.19.88.19,1.09.19,1.28.2,1.43.19,1.58.19,1.68.2,1.77.19,1.81.19,1.84.19,1.82.2,1.78.19,1.71.19,1.61.2,1.47.19,1.33.19,1.14.19.94.2.73.19.5.19.25.2.01.19-.24.19-.49.19-.74.2-.97.19-1.2.19-1.4.2-1.6.19-1.76.19-1.91.19-2.03.2-2.12.19-2.18.19-2.2.2-2.21.19-2.17.19-2.1.19-2.02.2-1.89.19-1.74.19-1.56.2-1.37.19-1.16.19-.92.19-.68.2-.42.19-.17.19.09.2.36.19.6.19.84.19,1.08.2,1.28.19,1.48.19,1.65.2,1.79.19,1.9.19,2L597,78.2l.2,2.08.19,2.07.19,2.04.2,1.97.19,1.88.19,1.75.19,1.61.2,1.42.19,1.24.19,1.02.2.8.19.55.19.32.19.06.2-.19.19-.43.19-.68.2-.89.19-1.11.19-1.31.19-1.48.2-1.62.19-1.75.19-1.85.2-1.91.19-1.94.19-1.95.19-1.93.2-1.86.19-1.78.19-1.66.2-1.51.19-1.35.19-1.15.19-.94.2-.72.19-.47.19-.22.2.04.19.3.19.55.19.81.2,1.05.19,1.28.19,1.5.2,1.69.19,1.87.19,2.01.19,2.13.2,2.23.19,2.29.19,2.32.2,2.32.19,2.29.19,2.23.19,2.14.2,2.02.19,1.87.19,1.7.2,1.51.19,1.3.19,1.08.19.84.2.59.19.34.19.08.2-.16.19-.4.19-.63.19-.85.2-1.04.19-1.23.19-1.38.2-1.52.19-1.61.19-1.69.19-1.73.2-1.74.19-1.73.19-1.67.2-1.6.19-1.48.19-1.35.19-1.18.2-1,.19-.79.19-.57.2-.33.19-.08.19.17.19.42.2.69.19.93.19,1.18.2,1.41.19,1.63.19,1.82.19,2,.2,2.15.19,2.27.19,2.37.2,2.44.19,2.47.19,2.47.19,2.45.2,2.39.19,2.3.19,2.18.2,2.04.19,1.87.19,1.68.19,1.47.2,1.25.19,1.01.19.76.2.5.19.26h.19l.19-.25.2-.48.19-.7.19-.91.2-1.1.19-1.26.19-1.4.19-1.5.2-1.59.19-1.65.19-1.66.2-1.65.19-1.62.19-1.54.04-.28" transform="translate(0.375)"/>
  </g>
  <path class="cls-4" d="M78.79,168.06H572.51m-493.72,0v7.2m98.74-7.2v7.2m98.75-7.2v7.2m98.74-7.2v7.2m98.75-7.2v7.2m98.74-7.2v7.2" transform="translate(0.375)"/>
  <polyline class="cls-4" points="59.415 59.04 59.415 168.06 592.635 168.06"/>
  <text class="cls-5" transform="translate(76.086 193.984)">123456</text>
  <g class="cls-7">
    <polyline class="cls-4" points="79.165 405.52 81.405 405.52 83.655 405.52 85.895 405.52 88.145 405.52 90.385 405.52 92.625 405.52 94.875 405.51 97.115 405.51 99.365 405.51 101.605 405.51 103.845 405.51 106.095 405.5 108.335 405.5 110.585 405.49 112.825 405.49 115.075 405.48 117.315 405.46 119.555 405.43 121.805 405.33 124.045 304.58 126.295 405.32 128.535 405.42 130.785 405.45 133.025 405.47 135.265 405.48 137.515 405.49 139.755 405.49 142.005 405.49 144.245 405.5 146.485 405.5 148.735 405.5 150.975 405.5 153.225 405.51 155.465 405.51 157.715 405.51 159.955 405.51 162.195 405.51 164.445 405.51 166.685 405.51 168.935 405.51 171.175 405.51 173.415 405.51 175.665 405.51 177.905 405.51 180.155 405.51 182.395 405.51 184.645 405.51 186.885 405.51 189.125 405.52 191.375 405.52 193.615 405.52 195.865 405.52 198.105 405.52 200.355 405.52 202.595 405.52 204.835 405.52 207.085 405.52 209.325 405.52 211.575 405.52 213.815 405.52 216.055 405.52 218.305 405.52 220.545 405.52 222.795 405.52 225.035 405.52 227.285 405.52 229.525 405.52 231.765 405.52 234.015 405.52 236.255 405.52 238.505 405.52 240.745 405.52 242.985 405.52 245.235 405.52 247.475 405.52 249.725 405.52 251.965 405.52 254.215 405.52 256.455 405.52 258.695 405.52 260.945 405.52 263.185 405.52 265.435 405.52 267.675 405.52 269.925 405.52 272.165 405.52 274.405 405.52 276.655 405.52 278.895 405.52 281.145 405.52 283.385 405.52 285.625 405.52 287.875 405.52 290.115 405.52 292.365 405.52 294.605 405.52 296.855 405.52 299.095 405.52 301.335 405.52 303.585 405.52 305.825 405.52 308.075 405.52 310.315 405.52 312.555 405.52 314.805 405.52 317.045 405.52 319.295 405.52 321.535 405.52 323.785 405.52 326.025 405.52 328.265 405.52 330.515 405.52 332.755 405.52 335.005 405.52 337.245 405.52 339.495 405.52 341.735 405.52 343.975 405.52 346.225 405.52 348.465 405.52 350.715 405.52 352.955 405.52 355.195 405.52 357.445 405.52 359.685 405.52 361.935 405.52 364.175 405.51 366.425 405.51 368.665 405.51 370.905 405.51 373.155 405.51 375.395 405.51 377.645 405.51 379.885 405.51 382.125 405.51 384.375 405.51 386.615 405.51 388.865 405.51 391.105 405.51 393.355 405.51 395.595 405.51 397.835 405.51 400.085 405.51 402.325 405.51 404.575 405.51 406.815 405.51 409.055 405.51 411.305 405.51 413.545 405.51 415.795 405.51 418.035 405.51 420.285 405.51 422.525 405.51 424.765 405.51 427.015 405.51 429.255 405.51 431.505 405.5 433.745 405.5 435.995 405.5 438.235 405.5 440.475 405.5 442.725 405.5 444.965 405.5 447.215 405.5 449.455 405.5 451.695 405.5 453.945 405.5 456.185 405.5 458.435 405.5 460.675 405.49 462.925 405.49 465.165 405.49 467.405 405.49 469.655 405.49 471.895 405.49 474.145 405.49 476.385 405.48 478.625 405.48 480.875 405.48 483.115 405.48 485.365 405.48 487.605 405.47 489.855 405.47 492.095 405.47 494.335 405.46 496.585 405.46 498.825 405.45 501.075 405.44 503.315 405.44 505.565 405.43 507.805 405.42 510.045 405.4 512.295 405.39 514.535 405.36 516.785 405.33 519.025 405.28 521.265 405.2 523.515 405.04 525.755 404.56 528.005 355.08 530.245 404.51 532.495 405.02 534.735 405.19 536.975 405.27 539.225 405.32 541.465 405.35 543.715 405.38 545.955 405.39 548.195 405.41 550.445 405.42 552.685 405.43 554.935 405.44 557.175 405.44 559.425 405.45 561.665 405.45 563.905 405.46 566.155 405.46 568.395 405.46 570.645 405.47 572.885 405.47 575.135 405.47 577.375 405.47 579.615 405.48 581.865 405.48 584.105 405.48 586.355 405.48 588.595 405.48 590.835 405.48 593.085 405.48 595.325 405.49 597.575 405.49 599.815 405.49 602.065 405.49 604.305 405.49 606.545 405.49 608.795 405.49 611.035 405.49 613.285 405.49 615.525 405.49 617.765 405.49 620.015 405.49 622.255 405.49 622.875 405.5"/>
  </g>
  <path class="cls-4" d="M78.79,409.56H527.63m-448.84,0v7.2m89.77-7.2v7.2m89.76-7.2v7.2m89.77-7.2v7.2m89.77-7.2v7.2m89.77-7.2v7.2" transform="translate(0.375)"/>
  <text class="cls-8" transform="translate(76.086 435.477)">02468</text>
  <text class="cls-9" transform="translate(521.852 435.477)">10</text>
  <polyline class="cls-4" points="59.415 300.54 59.415 409.56 592.635 409.56"/>

  <switch class="cls-6" transform="translate(297.237 208.375)">
  <text systemLanguage="de">Zeit in s</text>
  <text systemLanguage="en">Time in s</text>
  <text systemLanguage="it">Tempo in s</text>
  <text systemLanguage="tr">Zaman (s)</text>
  </switch>
  <switch class="cls-6" transform="translate(36.734 120.983) rotate(-90)">
  <text>f(x)</text>
  </switch>
  
  <switch class="cls-6" transform="translate(285.34 449.883)">
  <text systemLanguage="de">Frequenz in Hz</text>
  <text systemLanguage="en">Frequency in Hz</text>
  <text systemLanguage="it">Frequenza in Hz</text>
  <text systemLanguage="tr">Frekans (Hz)</text>
  </switch>
  <switch class="cls-6" transform="translate(36.734 388.661) rotate(-90)">
  <text>| FFT[ f(x) ] |</text>

  </switch>
  <switch class="cls-12" transform="translate(108.371 280.698)">
  <text systemLanguage="de">Mittels FFT fouriertransformiertes Signal (Frequenzspektrum)</text>
  <text systemLanguage="en">Signal that was fourier-transformed via FFT (frequency spectrum)</text>
  <text systemLanguage="it">Il segnale che è transformato di Fourier tramite FFT (spettro di frequenza)</text>
  <text systemLanguage="tr">FFT ile fourier dönüşümü hesaplanan sinyal (frekans tayfı)</text>
  </switch>
  <switch class="cls-12" transform="translate(212.415 39.198)">
  <text>signal f(x) = 2 sin x   +  sin 10x</text>
  </switch>
</svg>
