<?xml version="1.0" encoding="UTF-8" standalone="no"?>
<!DOCTYPE svg PUBLIC "-//W3C//DTD SVG 1.1//EN" "http://www.w3.org/Graphics/SVG/1.1/DTD/svg11.dtd">

<svg xmlns="http://www.w3.org/2000/svg" version="1.1" viewBox="0 0 767.61 577.94">

<g stroke-linejoin="round" stroke="#000000" stroke-linecap="round" stroke-miterlimit="4" stroke-dasharray="none" stroke-width="2.5" >
 <path d="m64.082,513.77,0-450,642.67,450-642.67,0" fill="none"/>
 <path d="M64.082,513.77,275.51,211.81,64.082,63.766v450" fill="#e6f0d2"/>
 <path d="m64.082,513.77,211.43-301.95,431.24,301.95-642.67,0" fill="#bed2e6"/>
 <path d="m64.082,388.77a125,125,0,0,1,71.697,22.606l-71.698,102.39z" stroke-dashoffset="15.5" fill="none"/>
 <path d="m581.75,513.77a125,125,0,0,1,22.606,-71.697l102.39,71.697z" stroke-dashoffset="15.5" fill="none"/>
 <path d="m166.48,135.46a125,125,0,0,1,-102.39,53.303v-125z" stroke-dashoffset="15.5" fill="none"/>
 <path d="m146,121.12a100,100,0,0,1,-81.915,42.642v-100z" stroke-dashoffset="15.5" fill="none"/>
 <path d="m121.44,431.85a100,100,0,0,1,42.642,81.915h-100z" stroke-dashoffset="15.5" fill="none"/>
 <path d="m135.78,411.37a125,125,0,0,1,53.303,102.39h-125z" stroke-dashoffset="15.5" fill="none"/>
</g> 
 <rect stroke-linejoin="round" stroke-dasharray="none" stroke-dashoffset="15.5" height="35" width="35" stroke="#000000" stroke-linecap="round" stroke-miterlimit="4" y="478.77" x="64.082" stroke-width="2.5" fill="none"/>
 <rect stroke-linejoin="round" stroke-dasharray="none" stroke-dashoffset="15.5" transform="matrix(0.57357643,-0.81915205,0.81915205,0.57357643,0,0)" height="35" width="35" stroke="#000000" stroke-linecap="round" stroke-miterlimit="4" y="312.18" x="-50.478" stroke-width="2.5" fill="none"/>
<g font-size="72px" fill="#000000" font-family="Liberation Serif" font-style="italic" >
 <text y="57.53125" x="13.9375" >A</text>
 <text y="567.23242" x="715.21545" >B</text>
 <text y="567.26758" x="7.7324257" >C</text>
 <text y="205.38336" x="278.28436" >H</text>
 <text y="455.7681" x="70.802399" >θ</text>
 <text y="508.18747" x="590.07672" >θ</text>
</g> 
</svg>
