<?xml version="1.0" encoding="UTF-8" standalone="no"?>
<svg
   xmlns:dc="http://purl.org/dc/elements/1.1/"
   xmlns:cc="http://creativecommons.org/ns#"
   xmlns:rdf="http://www.w3.org/1999/02/22-rdf-syntax-ns#"
   xmlns:svg="http://www.w3.org/2000/svg"
   xmlns="http://www.w3.org/2000/svg"
   width="63.299183mm"
   height="64.718971mm"
   viewBox="0 0 63.299183 64.718971"
   version="1.1"
   id="svg8">
  <defs
     id="defs2">
    <marker
       style="overflow:visible"
       id="marker1400"
       refX="0"
       refY="0"
       orient="auto">
      <path
         transform="matrix(0.4,0,0,0.4,4,0)"
         style="fill:#0000ff;fill-opacity:1;fill-rule:evenodd;stroke:#0000ff;stroke-width:1.00000003pt;stroke-opacity:1"
         d="M 0,0 5,-5 -12.5,0 5,5 Z"
         id="path1398" />
    </marker>
    <marker
       style="overflow:visible"
       id="marker1163"
       refX="0"
       refY="0"
       orient="auto">
      <path
         transform="matrix(-0.4,0,0,-0.4,-4,0)"
         style="fill:#0000ff;fill-opacity:1;fill-rule:evenodd;stroke:#0000ff;stroke-width:1.00000003pt;stroke-opacity:1"
         d="M 0,0 5,-5 -12.5,0 5,5 Z"
         id="path1161" />
    </marker>
    <marker
       orient="auto"
       refY="0"
       refX="0"
       id="Arrow1Mstart"
       style="overflow:visible">
      <path
         id="path823"
         d="M 0,0 5,-5 -12.5,0 5,5 Z"
         style="fill:#0000ff;fill-opacity:1;fill-rule:evenodd;stroke:#0000ff;stroke-width:1.00000003pt;stroke-opacity:1"
         transform="matrix(0.4,0,0,0.4,4,0)" />
    </marker>
    <marker
       orient="auto"
       refY="0"
       refX="0"
       id="Arrow1Mend"
       style="overflow:visible">
      <path
         id="path826"
         d="M 0,0 5,-5 -12.5,0 5,5 Z"
         style="fill:#000000;fill-opacity:1;fill-rule:evenodd;stroke:#000000;stroke-width:1.00000003pt;stroke-opacity:1"
         transform="matrix(-0.4,0,0,-0.4,-4,0)" />
    </marker>
    <marker
       style="overflow:visible"
       id="marker1400-3"
       refX="0"
       refY="0"
       orient="auto">
      <path
         transform="matrix(0.4,0,0,0.4,4,0)"
         style="fill:#0000ff;fill-opacity:1;fill-rule:evenodd;stroke:#0000ff;stroke-width:1.00000003pt;stroke-opacity:1"
         d="M 0,0 5,-5 -12.5,0 5,5 Z"
         id="path1398-9" />
    </marker>
  </defs>
  <metadata
     id="metadata5">
    <rdf:RDF>
      <cc:Work
         rdf:about="">
        <dc:format>image/svg+xml</dc:format>
        <dc:type
           rdf:resource="http://purl.org/dc/dcmitype/StillImage" />
        <dc:title></dc:title>
      </cc:Work>
    </rdf:RDF>
  </metadata>
  <path
     id="path1339-9-1"
     d="M 24.235511,36.521042 25.62139,34.953766"
     style="fill:none;stroke:#000000;stroke-width:0.1984375;stroke-linecap:butt;stroke-linejoin:miter;stroke-miterlimit:4;stroke-dasharray:none;stroke-opacity:1" />
  <path
     d="M 16.940071,30.54761 A 28.728256,28.728256 0 0 1 31.440801,43.7331"
     id="path1362-8"
     style="fill:none;fill-opacity:1;stroke:#0000ff;stroke-width:0.13229167;stroke-linecap:butt;stroke-linejoin:miter;stroke-miterlimit:4;stroke-dasharray:none;stroke-dashoffset:0;stroke-opacity:1" />
  <rect
     transform="rotate(41.559644)"
     y="9.9266987"
     x="42.362633"
     height="1.3229166"
     width="1.3229166"
     id="rect1356"
     style="fill:none;fill-opacity:1;stroke:#0000ff;stroke-width:0.1984375;stroke-linecap:butt;stroke-linejoin:miter;stroke-miterlimit:4;stroke-dasharray:none;stroke-dashoffset:0;stroke-opacity:1" />
  <path
     id="path1339-9"
     d="M 6.0225059,57.12053 25.113125,35.53115"
     style="fill:none;stroke:#0000ff;stroke-width:0.1984375;stroke-linecap:butt;stroke-linejoin:miter;stroke-miterlimit:4;stroke-dasharray:none;stroke-opacity:1" />
  <path
     id="path815"
     d="M 6.0225059,4.95982 V 57.12053 H 58.939171"
     style="fill:none;stroke:#000000;stroke-width:0.26499999;stroke-linecap:butt;stroke-linejoin:miter;stroke-miterlimit:4;stroke-dasharray:none;stroke-opacity:1;marker-start:url(#Arrow1Mstart);marker-end:url(#Arrow1Mend)" />
  <text
     id="text1133"
     y="58.032143"
     x="61.447102"
     style="font-style:normal;font-variant:normal;font-weight:normal;font-stretch:normal;font-size:4.23333311px;line-height:1.25;font-family:'Times New Roman';-inkscape-font-specification:'Times New Roman, ';letter-spacing:0px;word-spacing:0px;fill:#000000;fill-opacity:1;stroke:none;stroke-width:0.26458332"
     xml:space="preserve"><tspan
       style="font-style:italic;font-variant:normal;font-weight:normal;font-stretch:normal;font-size:4.23333311px;font-family:'Times New Roman';-inkscape-font-specification:'Times New Roman, ';stroke-width:0.26458332"
       y="58.032143"
       x="61.447102"
       id="tspan1131">x</tspan></text>
  <text
     id="text1133-0"
     y="1.8706899"
     x="5.2628379"
     style="font-style:normal;font-variant:normal;font-weight:normal;font-stretch:normal;font-size:4.23333311px;line-height:1.25;font-family:'Times New Roman';-inkscape-font-specification:'Times New Roman, ';letter-spacing:0px;word-spacing:0px;fill:#000000;fill-opacity:1;stroke:none;stroke-width:0.26458332"
     xml:space="preserve"><tspan
       style="font-style:italic;font-variant:normal;font-weight:normal;font-stretch:normal;font-size:4.23333311px;font-family:'Times New Roman';-inkscape-font-specification:'Times New Roman, ';stroke-width:0.26458332"
       y="1.8706899"
       x="5.2628379"
       id="tspan1131-6">y</tspan></text>
  <path
     id="path1339"
     d="M 0.13144982,13.52183 57.861666,64.57032"
     style="fill:none;stroke:#ff0000;stroke-width:0.39687499;stroke-linecap:butt;stroke-linejoin:miter;stroke-miterlimit:4;stroke-dasharray:none;stroke-opacity:1" />
  <text
     id="text1360"
     y="60.494423"
     x="2.5368755"
     style="font-style:normal;font-variant:normal;font-weight:normal;font-stretch:normal;font-size:4.23333311px;line-height:1.25;font-family:'Times New Roman';-inkscape-font-specification:'Times New Roman, ';letter-spacing:0px;word-spacing:0px;fill:#000000;fill-opacity:1;stroke:none;stroke-width:0.26458332"
     xml:space="preserve"><tspan
       style="font-style:normal;font-variant:normal;font-weight:normal;font-stretch:normal;font-size:4.23333311px;font-family:'Times New Roman';-inkscape-font-specification:'Times New Roman, ';stroke-width:0.26458332"
       y="60.494423"
       x="2.5368755"
       id="tspan1358">O</tspan></text>
  <path
     d="m 14.424238,47.96263 a 12.428033,12.428033 0 0 1 4.024009,8.91919"
     id="path1362"
     style="fill:none;fill-opacity:1;stroke:#0000ff;stroke-width:0.198;stroke-linecap:butt;stroke-linejoin:miter;stroke-miterlimit:4;stroke-dasharray:none;stroke-dashoffset:0;stroke-opacity:1;marker-start:url(#marker1400)" />
  <text
     id="text1440"
     y="53.010902"
     x="18.573048"
     style="font-style:normal;font-variant:normal;font-weight:normal;font-stretch:normal;font-size:4.23333311px;line-height:1.25;font-family:'Times New Roman';-inkscape-font-specification:'Times New Roman, ';letter-spacing:0px;word-spacing:0px;fill:#000000;fill-opacity:1;stroke:none;stroke-width:0.26458332"
     xml:space="preserve"><tspan
       style="font-style:normal;font-variant:normal;font-weight:normal;font-stretch:normal;font-size:4.23333311px;font-family:'Times New Roman';-inkscape-font-specification:'Times New Roman, ';stroke-width:0.26458332"
       y="53.010902"
       x="18.573048"
       id="tspan1438">θ</tspan></text>
  <text
     id="text1444"
     y="42.171669"
     x="15.880781"
     style="font-style:normal;font-variant:normal;font-weight:normal;font-stretch:normal;font-size:4.23333311px;line-height:1.25;font-family:'Times New Roman';-inkscape-font-specification:'Times New Roman, ';letter-spacing:0px;word-spacing:0px;fill:#000000;fill-opacity:1;stroke:none;stroke-width:0.26458332"
     xml:space="preserve"><tspan
       style="font-style:normal;font-variant:normal;font-weight:normal;font-stretch:normal;font-size:4.23333311px;font-family:'Times New Roman';-inkscape-font-specification:'Times New Roman, ';stroke-width:0.26458332"
       y="42.171669"
       x="15.880781"
       id="tspan1442">ρ</tspan></text>
  <g
     id="text1448"
     style="font-style:normal;font-variant:normal;font-weight:normal;font-stretch:normal;font-size:4.23333311px;line-height:1.25;font-family:'Times New Roman';-inkscape-font-specification:'Times New Roman, ';letter-spacing:0px;word-spacing:0px;fill:#000000;fill-opacity:1;stroke:none;stroke-width:0.26458332"
     aria-label="(D) : ρ = x⋅cos(θ) + y⋅sin(θ)">
    <path
       id="path938"
       style="font-style:normal;font-variant:normal;font-weight:normal;font-stretch:normal;font-size:4.23333311px;font-family:'Times New Roman';-inkscape-font-specification:'Times New Roman, ';stroke-width:0.26458332"
       d="m 9.5978181,19.829752 v 0.07648 Q 9.2856925,19.749137 9.0769197,19.538297 8.7792635,19.238574 8.618033,18.831363 8.4568025,18.424153 8.4568025,17.985937 q 0,-0.640788 0.3162598,-1.167887 0.3162597,-0.529167 0.8247558,-0.756543 v 0.08682 q -0.254248,0.14056 -0.4175455,0.384473 -0.1632976,0.243913 -0.2439128,0.61805 -0.080615,0.374137 -0.080615,0.781348 0,0.44235 0.068213,0.804085 0.053743,0.285254 0.1302246,0.456819 0.076481,0.173633 0.2046386,0.332797 0.1302246,0.159163 0.3389974,0.303857 z" />
    <path
       id="path940"
       style="font-style:normal;font-variant:normal;font-weight:normal;font-stretch:normal;font-size:4.23333311px;font-family:'Times New Roman';-inkscape-font-specification:'Times New Roman, ';stroke-width:0.26458332"
       d="m 9.7693839,19.000862 v -0.07648 h 0.1054199 q 0.1777672,0 0.2521812,-0.113688 0.04547,-0.06821 0.04547,-0.305925 v -1.810742 q 0,-0.262516 -0.05788,-0.328662 -0.08061,-0.09095 -0.2397782,-0.09095 H 9.7693839 v -0.07648 h 1.1410151 q 0.628386,0 0.954981,0.142627 0.328662,0.142626 0.527099,0.475423 0.200505,0.332796 0.200505,0.768945 0,0.584977 -0.355534,0.977718 -0.398942,0.438216 -1.215429,0.438216 z m 0.7999511,-0.202571 q 0.262516,0.05788 0.440283,0.05788 0.479557,0 0.795817,-0.33693 0.31626,-0.336931 0.31626,-0.913639 0,-0.580844 -0.31626,-0.915707 -0.31626,-0.334863 -0.812353,-0.334863 -0.186035,0 -0.423747,0.05995 z" />
    <path
       id="path942"
       style="font-style:normal;font-variant:normal;font-weight:normal;font-stretch:normal;font-size:4.23333311px;font-family:'Times New Roman';-inkscape-font-specification:'Times New Roman, ';stroke-width:0.26458332"
       d="m 12.851366,16.148323 v -0.08682 q 0.314193,0.155029 0.522965,0.365869 0.29559,0.30179 0.45682,0.709001 0.161231,0.405143 0.161231,0.845426 0,0.640788 -0.31626,1.167887 -0.314193,0.529167 -0.824756,0.756543 v -0.07648 q 0.254248,-0.142627 0.417546,-0.38654 0.165364,-0.241845 0.243912,-0.615983 0.08062,-0.376204 0.08062,-0.783414 0,-0.440284 -0.06821,-0.804086 -0.05168,-0.285253 -0.130225,-0.456819 -0.07648,-0.171566 -0.204639,-0.330729 -0.128157,-0.159164 -0.338997,-0.303858 z" />
    <path
       id="path944"
       style="font-style:normal;font-variant:normal;font-weight:normal;font-stretch:normal;font-size:4.23333311px;font-family:'Times New Roman';-inkscape-font-specification:'Times New Roman, ';stroke-width:0.26458332"
       d="m 15.825861,17.04956 q 0.09509,0 0.161231,0.06821 0.06821,0.06615 0.06821,0.16123 0,0.09509 -0.06821,0.163298 -0.06615,0.06615 -0.161231,0.06615 -0.09508,0 -0.163297,-0.06615 -0.06615,-0.06821 -0.06615,-0.163298 0,-0.09508 0.06615,-0.16123 0.06821,-0.06821 0.163297,-0.06821 z m -0.0041,1.548226 q 0.09715,0 0.163298,0.06821 0.06821,0.06821 0.06821,0.163297 0,0.09509 -0.06821,0.163298 -0.06821,0.06615 -0.163298,0.06615 -0.09508,0 -0.163297,-0.06615 -0.06615,-0.06821 -0.06615,-0.163298 0,-0.09508 0.06615,-0.163297 0.06821,-0.06821 0.163297,-0.06821 z" />
    <path
       id="path946"
       style="font-style:normal;font-variant:normal;font-weight:normal;font-stretch:normal;font-size:4.23333311px;font-family:'Times New Roman';-inkscape-font-specification:'Times New Roman, ';stroke-width:0.26458332"
       d="m 17.998339,19.906233 h -0.353467 q 0.07648,-0.237711 0.07648,-0.719336 v -1.16582 q 0,-0.494027 0.279053,-0.731738 0.279053,-0.237712 0.615983,-0.237712 0.365869,0 0.589111,0.252181 0.223243,0.250114 0.223243,0.657324 0,0.444418 -0.276986,0.771013 -0.276986,0.326595 -0.63252,0.326595 -0.239778,0 -0.456819,-0.152963 v 0.270785 q 0,0.432015 -0.06408,0.729671 z m 0.06408,-1.480013 q 0,0.250114 0.132291,0.382406 0.132292,0.130224 0.336931,0.130224 0.241845,0 0.403076,-0.206705 0.163297,-0.208773 0.163297,-0.549838 0,-0.432014 -0.221175,-0.684195 -0.221175,-0.252181 -0.491959,-0.252181 -0.183968,0 -0.254248,0.115755 -0.06821,0.113688 -0.06821,0.37207 z" />
    <path
       id="path948"
       style="font-style:normal;font-variant:normal;font-weight:normal;font-stretch:normal;font-size:4.23333311px;font-family:'Times New Roman';-inkscape-font-specification:'Times New Roman, ';stroke-width:0.26458332"
       d="m 20.712384,17.175651 h 2.230355 v 0.169498 h -2.230355 z m 0,0.67386 h 2.230355 v 0.169499 h -2.230355 z" />
    <path
       id="path950"
       style="font-style:italic"
       d="m 24.81756,17.130175 q 0.101286,0.107487 0.152962,0.214974 0.03721,0.07441 0.121956,0.390674 l 0.181901,-0.272851 q 0.07235,-0.09922 0.1757,-0.188103 0.103353,-0.09095 0.181901,-0.124023 0.04961,-0.02067 0.109554,-0.02067 0.08888,0 0.14056,0.04754 0.05374,0.04754 0.05374,0.115755 0,0.07855 -0.03101,0.107487 -0.05788,0.05168 -0.132292,0.05168 -0.04341,0 -0.09302,-0.0186 -0.09715,-0.03307 -0.130225,-0.03307 -0.04961,0 -0.117822,0.05788 -0.128158,0.107487 -0.305925,0.415479 l 0.169499,0.711068 q 0.03927,0.163297 0.06615,0.19637 0.02687,0.03101 0.05374,0.03101 0.04341,0 0.101286,-0.04754 0.113688,-0.09509 0.194304,-0.248047 l 0.07235,0.03721 q -0.130225,0.243913 -0.33073,0.405143 -0.113688,0.09095 -0.192236,0.09095 -0.115755,0 -0.183968,-0.130224 -0.04341,-0.08061 -0.179834,-0.694531 -0.322461,0.560172 -0.516764,0.721403 -0.126091,0.103352 -0.243913,0.103352 -0.08268,0 -0.150895,-0.05994 -0.04961,-0.04547 -0.04961,-0.121957 0,-0.06821 0.04548,-0.113688 0.04547,-0.04547 0.111621,-0.04547 0.06615,0 0.14056,0.06615 0.05374,0.04754 0.08268,0.04754 0.02481,0 0.06408,-0.03307 0.09715,-0.07855 0.264583,-0.338997 0.167432,-0.260449 0.219108,-0.376204 -0.128157,-0.502295 -0.138493,-0.531234 -0.04754,-0.134359 -0.124023,-0.190169 -0.07648,-0.05581 -0.225309,-0.05581 -0.04754,0 -0.109554,0.0041 v -0.07441 z" />
    <path
       id="path952"
       style="font-style:normal;font-variant:normal;font-weight:normal;font-stretch:normal;font-size:4.23333311px;font-family:'Times New Roman';-inkscape-font-specification:'Times New Roman, ';stroke-width:0.26458332"
       d="m 27.134731,17.595263 q -0.04961,0.04961 -0.115755,0.04961 -0.06615,0 -0.115755,-0.04961 -0.04961,-0.04961 -0.04961,-0.115755 0,-0.06615 0.04961,-0.115755 0.04961,-0.04961 0.115755,-0.04961 0.06615,0 0.115755,0.04961 0.04961,0.04961 0.04961,0.115755 0,0.06615 -0.04961,0.115755 z" />
    <path
       id="path954"
       style="font-style:normal;font-variant:normal;font-weight:normal;font-stretch:normal;font-size:4.23333311px;font-family:'Times New Roman';-inkscape-font-specification:'Times New Roman, ';stroke-width:0.26458332"
       d="m 29.817772,18.281526 q -0.07648,0.374138 -0.299724,0.576709 -0.223242,0.200505 -0.494026,0.200505 -0.322461,0 -0.56224,-0.270785 -0.239778,-0.270784 -0.239778,-0.731738 0,-0.446484 0.264583,-0.725537 0.26665,-0.279053 0.638721,-0.279053 0.279052,0 0.458886,0.148828 0.179834,0.146761 0.179834,0.305925 0,0.07855 -0.05168,0.128157 -0.04961,0.04754 -0.14056,0.04754 -0.121956,0 -0.183968,-0.07855 -0.03514,-0.04341 -0.04754,-0.165364 -0.01034,-0.121956 -0.08268,-0.186035 -0.07235,-0.06201 -0.200504,-0.06201 -0.206706,0 -0.332796,0.152962 -0.167432,0.202572 -0.167432,0.535368 0,0.338997 0.165364,0.599447 0.167432,0.258382 0.450619,0.258382 0.202572,0 0.363802,-0.138493 0.113688,-0.09509 0.221175,-0.345199 z" />
    <path
       id="path956"
       style="font-style:normal;font-variant:normal;font-weight:normal;font-stretch:normal;font-size:4.23333311px;font-family:'Times New Roman';-inkscape-font-specification:'Times New Roman, ';stroke-width:0.26458332"
       d="m 31.012531,17.051627 q 0.429948,0 0.690397,0.326595 0.221175,0.279053 0.221175,0.640788 0,0.254248 -0.121956,0.514697 -0.121956,0.260449 -0.33693,0.392741 -0.212907,0.132292 -0.475423,0.132292 -0.427881,0 -0.680062,-0.341065 -0.212907,-0.287321 -0.212907,-0.644922 0,-0.260449 0.128157,-0.516764 0.130225,-0.258382 0.341065,-0.380338 0.21084,-0.124024 0.446484,-0.124024 z m -0.06408,0.134359 q -0.109554,0 -0.221175,0.06615 -0.109554,0.06408 -0.177767,0.227376 -0.06821,0.163298 -0.06821,0.419613 0,0.413411 0.163298,0.713134 0.165365,0.299724 0.434082,0.299724 0.200505,0 0.330729,-0.165365 0.130225,-0.165364 0.130225,-0.568441 0,-0.504362 -0.217041,-0.79375 -0.146761,-0.198437 -0.374138,-0.198437 z" />
    <path
       id="path958"
       style="font-style:normal;font-variant:normal;font-weight:normal;font-stretch:normal;font-size:4.23333311px;font-family:'Times New Roman';-inkscape-font-specification:'Times New Roman, ';stroke-width:0.26458332"
       d="m 33.426852,17.051627 v 0.644922 h -0.06821 q -0.07855,-0.303857 -0.202571,-0.413411 -0.121957,-0.109554 -0.312126,-0.109554 -0.144694,0 -0.233577,0.07648 -0.08888,0.07648 -0.08888,0.169498 0,0.115756 0.06615,0.198438 0.06408,0.08475 0.260449,0.179834 l 0.301791,0.146761 q 0.419612,0.204639 0.419612,0.539502 0,0.258382 -0.19637,0.417545 -0.194304,0.157097 -0.436149,0.157097 -0.173633,0 -0.396875,-0.06201 -0.06821,-0.02067 -0.111621,-0.02067 -0.04754,0 -0.07441,0.05374 h -0.06821 v -0.675928 h 0.06821 q 0.05788,0.289388 0.221175,0.436149 0.163297,0.146761 0.365869,0.146761 0.142627,0 0.23151,-0.08268 0.09095,-0.08475 0.09095,-0.202572 0,-0.142626 -0.101286,-0.239778 -0.09922,-0.09715 -0.398942,-0.24598 -0.299723,-0.148828 -0.392741,-0.268717 -0.09302,-0.117823 -0.09302,-0.297657 0,-0.233577 0.159164,-0.390673 0.16123,-0.157097 0.415478,-0.157097 0.111621,0 0.270785,0.04754 0.10542,0.03101 0.14056,0.03101 0.03307,0 0.05168,-0.01447 0.0186,-0.01447 0.04341,-0.06408 z" />
    <path
       id="path960"
       style="font-style:normal;font-variant:normal;font-weight:normal;font-stretch:normal;font-size:4.23333311px;font-family:'Times New Roman';-inkscape-font-specification:'Times New Roman, ';stroke-width:0.26458332"
       d="m 35.030889,19.829752 v 0.07648 q -0.312125,-0.157096 -0.520898,-0.367936 -0.297656,-0.299723 -0.458887,-0.706934 -0.16123,-0.40721 -0.16123,-0.845426 0,-0.640788 0.316259,-1.167887 0.31626,-0.529167 0.824756,-0.756543 v 0.08682 q -0.254248,0.14056 -0.417545,0.384473 -0.163298,0.243913 -0.243913,0.61805 -0.08062,0.374137 -0.08062,0.781348 0,0.44235 0.06821,0.804085 0.05374,0.285254 0.130224,0.456819 0.07648,0.173633 0.204639,0.332797 0.130224,0.159163 0.338997,0.303857 z" />
    <path
       id="path962"
       style="font-style:normal;font-variant:normal;font-weight:normal;font-stretch:normal;font-size:4.23333311px;font-family:'Times New Roman';-inkscape-font-specification:'Times New Roman, ';stroke-width:0.26458332"
       d="m 36.163637,16.065641 q 0.349333,0 0.589112,0.409277 0.239778,0.407211 0.239778,1.062468 0,0.706933 -0.258382,1.114143 -0.258382,0.407211 -0.597379,0.407211 -0.332797,0 -0.587045,-0.394808 -0.252181,-0.396875 -0.252181,-1.07487 0,-0.680062 0.250114,-1.101741 0.252181,-0.42168 0.615983,-0.42168 z m 0.444418,1.426269 q 0,-1.30638 -0.458887,-1.30638 -0.471289,0 -0.471289,1.30638 z m -0.930176,0.128158 q 0,0.675928 0.12609,0.998389 0.126091,0.320393 0.338998,0.320393 0.460954,0 0.465088,-1.318782 z" />
    <path
       id="path964"
       style="font-style:normal;font-variant:normal;font-weight:normal;font-stretch:normal;font-size:4.23333311px;font-family:'Times New Roman';-inkscape-font-specification:'Times New Roman, ';stroke-width:0.26458332"
       d="m 37.250908,16.148323 v -0.08682 q 0.314193,0.155029 0.522966,0.365869 0.295589,0.30179 0.456819,0.709001 0.161231,0.405143 0.161231,0.845426 0,0.640788 -0.31626,1.167887 -0.314193,0.529167 -0.824756,0.756543 v -0.07648 q 0.254248,-0.142627 0.417546,-0.38654 0.165364,-0.241845 0.243913,-0.615983 0.08061,-0.376204 0.08061,-0.783414 0,-0.440284 -0.06821,-0.804086 -0.05168,-0.285253 -0.130225,-0.456819 -0.07648,-0.171566 -0.204638,-0.330729 -0.128158,-0.159164 -0.338998,-0.303858 z" />
    <path
       id="path966"
       style="font-style:normal;font-variant:normal;font-weight:normal;font-stretch:normal;font-size:4.23333311px;font-family:'Times New Roman';-inkscape-font-specification:'Times New Roman, ';stroke-width:0.26458332"
       d="M 40.7339,18.709407 V 17.677946 H 39.704505 V 17.508447 H 40.7339 v -1.027328 h 0.165364 v 1.027328 h 1.033529 v 0.169499 h -1.033529 v 1.031461 z" />
    <path
       id="path968"
       style="font-style:italic"
       d="m 43.751803,17.130175 q 0.07028,0.11989 0.09715,0.22531 0.02687,0.103352 0.05374,0.409277 l 0.09095,1.016992 q 0.124023,-0.148828 0.359668,-0.471289 0.113688,-0.157096 0.281119,-0.427881 0.101286,-0.165364 0.124024,-0.23151 0.0124,-0.03307 0.0124,-0.06821 0,-0.02274 -0.01447,-0.03721 -0.01447,-0.01447 -0.07648,-0.03307 -0.05994,-0.02067 -0.101286,-0.07235 -0.03927,-0.05374 -0.03927,-0.121956 0,-0.08475 0.04961,-0.136426 0.04961,-0.05168 0.124024,-0.05168 0.09095,0 0.155029,0.07648 0.06408,0.07442 0.06408,0.206706 0,0.163298 -0.111621,0.374138 -0.111622,0.208772 -0.429948,0.642854 -0.318327,0.434082 -0.771013,0.946713 -0.312125,0.353466 -0.46302,0.444417 -0.150896,0.09302 -0.258383,0.09302 -0.06408,0 -0.111621,-0.04961 -0.04961,-0.04754 -0.04961,-0.111621 0,-0.08062 0.06821,-0.146761 0.06615,-0.06615 0.144694,-0.06615 0.04134,0 0.06821,0.0186 0.01654,0.01034 0.03721,0.05788 0.0186,0.04961 0.03514,0.06615 0.01033,0.01033 0.0248,0.01033 0.0124,0 0.04341,-0.02067 0.113688,-0.07028 0.264583,-0.223242 0.198437,-0.202572 0.293522,-0.33073 L 43.600908,17.80817 q -0.02894,-0.324528 -0.08682,-0.394808 -0.05788,-0.07028 -0.194303,-0.07028 -0.04341,0 -0.155029,0.0124 l -0.0186,-0.07648 z" />
    <path
       id="path970"
       style="font-style:normal;font-variant:normal;font-weight:normal;font-stretch:normal;font-size:4.23333311px;font-family:'Times New Roman';-inkscape-font-specification:'Times New Roman, ';stroke-width:0.26458332"
       d="m 46.126852,17.595263 q -0.04961,0.04961 -0.115755,0.04961 -0.06615,0 -0.115755,-0.04961 -0.04961,-0.04961 -0.04961,-0.115755 0,-0.06615 0.04961,-0.115755 0.04961,-0.04961 0.115755,-0.04961 0.06615,0 0.115755,0.04961 0.04961,0.04961 0.04961,0.115755 0,0.06615 -0.04961,0.115755 z" />
    <path
       id="path972"
       style="font-style:normal;font-variant:normal;font-weight:normal;font-stretch:normal;font-size:4.23333311px;font-family:'Times New Roman';-inkscape-font-specification:'Times New Roman, ';stroke-width:0.26458332"
       d="m 48.425422,17.051627 v 0.644922 h -0.06821 q -0.07855,-0.303857 -0.202572,-0.413411 -0.121956,-0.109554 -0.312125,-0.109554 -0.144694,0 -0.233578,0.07648 -0.08888,0.07648 -0.08888,0.169498 0,0.115756 0.06615,0.198438 0.06408,0.08475 0.260449,0.179834 l 0.30179,0.146761 q 0.419613,0.204639 0.419613,0.539502 0,0.258382 -0.196371,0.417545 -0.194303,0.157097 -0.436149,0.157097 -0.173633,0 -0.396875,-0.06201 -0.06821,-0.02067 -0.111621,-0.02067 -0.04754,0 -0.07441,0.05374 h -0.06821 v -0.675928 h 0.06821 q 0.05788,0.289388 0.221175,0.436149 0.163298,0.146761 0.365869,0.146761 0.142627,0 0.231511,-0.08268 0.09095,-0.08475 0.09095,-0.202572 0,-0.142626 -0.101286,-0.239778 -0.09922,-0.09715 -0.398942,-0.24598 -0.299723,-0.148828 -0.39274,-0.268717 -0.09302,-0.117823 -0.09302,-0.297657 0,-0.233577 0.159163,-0.390673 0.161231,-0.157097 0.415479,-0.157097 0.111621,0 0.270784,0.04754 0.10542,0.03101 0.14056,0.03101 0.03307,0 0.05168,-0.01447 0.0186,-0.01447 0.04341,-0.06408 z" />
    <path
       id="path974"
       style="font-style:normal;font-variant:normal;font-weight:normal;font-stretch:normal;font-size:4.23333311px;font-family:'Times New Roman';-inkscape-font-specification:'Times New Roman, ';stroke-width:0.26458332"
       d="m 49.328723,16.061507 q 0.08682,0 0.146761,0.06201 0.06201,0.05994 0.06201,0.146761 0,0.08682 -0.06201,0.148828 -0.05994,0.06201 -0.146761,0.06201 -0.08682,0 -0.148829,-0.06201 -0.06201,-0.06201 -0.06201,-0.148828 0,-0.08682 0.05994,-0.146761 0.06201,-0.06201 0.150896,-0.06201 z m 0.171565,0.99012 v 1.521354 q 0,0.177767 0.02481,0.237712 0.02687,0.05788 0.07648,0.08682 0.05168,0.02894 0.186035,0.02894 v 0.07441 h -0.91984 v -0.07441 q 0.138493,0 0.186035,-0.02687 0.04754,-0.02687 0.07441,-0.08888 0.02894,-0.06201 0.02894,-0.237712 V 17.84331 q 0,-0.307991 -0.0186,-0.398942 -0.01447,-0.06615 -0.04548,-0.09095 -0.03101,-0.02687 -0.08475,-0.02687 -0.05788,0 -0.14056,0.03101 l -0.02894,-0.07441 0.570508,-0.231511 z" />
    <path
       id="path976"
       style="font-style:normal;font-variant:normal;font-weight:normal;font-stretch:normal;font-size:4.23333311px;font-family:'Times New Roman';-inkscape-font-specification:'Times New Roman, ';stroke-width:0.26458332"
       d="m 50.573094,17.452636 q 0.332796,-0.401009 0.634586,-0.401009 0.15503,0 0.266651,0.07855 0.111621,0.07648 0.177767,0.254248 0.04547,0.124024 0.04547,0.380339 v 0.808219 q 0,0.179834 0.02894,0.243913 0.02274,0.05168 0.07235,0.08061 0.05168,0.02894 0.188102,0.02894 v 0.07441 h -0.936377 v -0.07441 h 0.03927 q 0.132292,0 0.183968,-0.03927 0.05374,-0.04134 0.07441,-0.119889 0.0083,-0.03101 0.0083,-0.194304 v -0.775146 q 0,-0.258382 -0.06821,-0.374138 -0.06615,-0.117822 -0.22531,-0.117822 -0.245979,0 -0.489892,0.268718 v 0.998388 q 0,0.192237 0.02274,0.237712 0.02894,0.05994 0.07855,0.08888 0.05168,0.02687 0.206705,0.02687 v 0.07441 h -0.936377 v -0.07441 h 0.04134 q 0.144694,0 0.194303,-0.07235 0.05168,-0.07441 0.05168,-0.28112 v -0.702799 q 0,-0.341065 -0.01654,-0.415479 -0.01447,-0.07441 -0.04754,-0.101285 -0.03101,-0.02687 -0.08475,-0.02687 -0.05788,0 -0.138493,0.03101 l -0.03101,-0.07441 0.570507,-0.231511 h 0.08888 z" />
    <path
       id="path978"
       style="font-style:normal;font-variant:normal;font-weight:normal;font-stretch:normal;font-size:4.23333311px;font-family:'Times New Roman';-inkscape-font-specification:'Times New Roman, ';stroke-width:0.26458332"
       d="m 53.320211,19.829752 v 0.07648 q -0.312125,-0.157096 -0.520898,-0.367936 -0.297656,-0.299723 -0.458887,-0.706934 -0.16123,-0.40721 -0.16123,-0.845426 0,-0.640788 0.316259,-1.167887 0.31626,-0.529167 0.824756,-0.756543 v 0.08682 q -0.254248,0.14056 -0.417545,0.384473 -0.163298,0.243913 -0.243913,0.61805 -0.08061,0.374137 -0.08061,0.781348 0,0.44235 0.06821,0.804085 0.05374,0.285254 0.130224,0.456819 0.07648,0.173633 0.204639,0.332797 0.130224,0.159163 0.338997,0.303857 z" />
    <path
       id="path980"
       style="font-style:normal;font-variant:normal;font-weight:normal;font-stretch:normal;font-size:4.23333311px;font-family:'Times New Roman';-inkscape-font-specification:'Times New Roman, ';stroke-width:0.26458332"
       d="m 54.452959,16.065641 q 0.349333,0 0.589112,0.409277 0.239778,0.407211 0.239778,1.062468 0,0.706933 -0.258382,1.114143 -0.258382,0.407211 -0.597379,0.407211 -0.332797,0 -0.587045,-0.394808 -0.252181,-0.396875 -0.252181,-1.07487 0,-0.680062 0.250114,-1.101741 0.252181,-0.42168 0.615983,-0.42168 z m 0.444418,1.426269 q 0,-1.30638 -0.458887,-1.30638 -0.471289,0 -0.471289,1.30638 z m -0.930176,0.128158 q 0,0.675928 0.12609,0.998389 0.126091,0.320393 0.338998,0.320393 0.460954,0 0.465088,-1.318782 z" />
    <path
       id="path982"
       style="font-style:normal;font-variant:normal;font-weight:normal;font-stretch:normal;font-size:4.23333311px;font-family:'Times New Roman';-inkscape-font-specification:'Times New Roman, ';stroke-width:0.26458332"
       d="m 55.54023,16.148323 v -0.08682 q 0.314193,0.155029 0.522966,0.365869 0.295589,0.30179 0.456819,0.709001 0.161231,0.405143 0.161231,0.845426 0,0.640788 -0.31626,1.167887 -0.314193,0.529167 -0.824756,0.756543 v -0.07648 q 0.254248,-0.142627 0.417546,-0.38654 0.165364,-0.241845 0.243913,-0.615983 0.08062,-0.376204 0.08062,-0.783414 0,-0.440284 -0.06821,-0.804086 -0.05168,-0.285253 -0.130225,-0.456819 -0.07648,-0.171566 -0.204638,-0.330729 -0.128158,-0.159164 -0.338998,-0.303858 z" />
  </g>
  <text
     id="text1440-8"
     y="34.521854"
     x="26.140852"
     style="font-style:normal;font-variant:normal;font-weight:normal;font-stretch:normal;font-size:4.23333311px;line-height:1.25;font-family:'Times New Roman';-inkscape-font-specification:'Times New Roman, ';letter-spacing:0px;word-spacing:0px;fill:#000000;fill-opacity:1;stroke:none;stroke-width:0.26458332"
     xml:space="preserve"><tspan
       style="font-style:normal;font-variant:normal;font-weight:normal;font-stretch:normal;font-size:4.23333311px;font-family:'Times New Roman';-inkscape-font-specification:'Times New Roman, ';stroke-width:0.26458332"
       y="34.521854"
       x="26.140852"
       id="tspan1438-9">H</tspan></text>
</svg>
