<?xml version="1.0" encoding="UTF-8" standalone="no"?>
<svg
   xmlns:dc="http://purl.org/dc/elements/1.1/"
   xmlns:cc="http://creativecommons.org/ns#"
   xmlns:rdf="http://www.w3.org/1999/02/22-rdf-syntax-ns#"
   xmlns:svg="http://www.w3.org/2000/svg"
   xmlns="http://www.w3.org/2000/svg"
   xmlns:xlink="http://www.w3.org/1999/xlink"
   xmlns:sodipodi="http://sodipodi.sourceforge.net/DTD/sodipodi-0.dtd"
   xmlns:inkscape="http://www.inkscape.org/namespaces/inkscape"
   width="852"
   height="690"
   version="1.1"
   id="svg2"
   inkscape:version="0.48.2 r9819"
   sodipodi:docname="Huizhou.svg">
  <metadata
     id="metadata412">
    <rdf:RDF>
      <cc:Work
         rdf:about="">
        <dc:format>image/svg+xml</dc:format>
        <dc:type
           rdf:resource="http://purl.org/dc/dcmitype/StillImage" />
        <dc:title>広東省行政区分地図</dc:title>
      </cc:Work>
    </rdf:RDF>
  </metadata>
  <sodipodi:namedview
     pagecolor="#ffffff"
     bordercolor="#666666"
     borderopacity="1"
     objecttolerance="10"
     gridtolerance="10"
     guidetolerance="10"
     inkscape:pageopacity="0"
     inkscape:pageshadow="2"
     inkscape:window-width="944"
     inkscape:window-height="1001"
     id="namedview410"
     showgrid="false"
     inkscape:zoom="1.9348081"
     inkscape:cx="442.09457"
     inkscape:cy="355.94631"
     inkscape:window-x="960"
     inkscape:window-y="0"
     inkscape:window-maximized="0"
     inkscape:current-layer="svg2" />
  <title
     id="title4">広東省行政区分地図</title>
  <desc
     id="desc6">Author: Lincun</desc>
  <defs
     id="defs8">
    <path
       d="M892 171l-5 1 4-4zM906 163l1-4 5 5-2 8h-16l3-2-2-5zM916-64v214l-7-2-2-11 1 11-9 5-6-1-5 6-6-16-5 10 4 10 4-2-4 10-8-3 5-4-4 2v-9h-5l4 6-6 2 3 5-8-2-17-1 12 11 16-4-4 8 7-3 5 9-12 8-4 5-2-8-4 5 4 2-4 14-10 4-3 10-4-3 6-10-8-1-11 35v-18l-14-4-7 1 10 1 1 9-8 6 12 3-5 4 1 5-6 1 1 7-12 2 10-11-8-1 6-11-3 1h-8v15l-5 3v-9l-4 8-14-9-9-21 1-10-6-10 6-8-5-6-4-16-14-18 3-15-24 8-12-17-5-3 4-4-3-4-14 9-4-7-11 1-20-8-1-10 5-3-7-13 15-16v-18l2-7 1-15 12-8-5-10 20-11 5-9 9-8-2-6h-7v-9l11-15 8 3 3-10-9-10 2-9-1-2z"
       id="350000" />
    <path
       d="M720-64l1 2-2 9 9 10-3 10-8-3-11 15v9h7l2 6-9 8-5 9-20 11 5 10-12 8-1 15-2 7v18l-15 16 7 13-5 3 1 10 2 6-9-3-5 17 8 18-10 4-17-11-9-12-10-1-17 7-27 5-4 11-7-4-7-1-2 8-5-5-22 10-5-8-7-1-12-10 15-9 5-22 14-7 2-7 17-5-5-4 5-12-17-14-11 3-6 7-8-1-2 6-12-4-12 6-2-3-1-12-4-7 3-11-7-18 10-18-1-8 3-11 15-5 2-6-27 2 9-15-1-8 6-3 1-18-23-8v-4z"
       id="360000" />
    <path
       d="M462-64v4l23 8-1 18-6 3 1 8-9 15 27-2-2 6-15 5-3 11 1 8-10 18 7 18-3 11-7 3-7 11-7-3-17 4-3-5-16-3-7-13-14 3-3 8-20 12-6-3 1 9 11-1 4 5-6 6 5 8-4 5 3 7-1 5-21 2-12-25-11 1-9-6-4 4-4-6-7 4-8-5-6 16-4 9 6 6-2 11-5-2-8 10-31-6-6 11-12 5-5-3-4-2 6-12-5-19 3-6-6-11-5 4-7-6-17 12-1 10-9 2-5-13 5-13 11-5-1-8 20-20 4-14-3-10 13-8 2-8 3-2-8-2-7-2-5 5-6-4-1-10 7-13 1-14-27-8-1-4-4-2-3 13h-15l-2-7-12-2-3 3-30 34-8-10-9 4-4-3 3-12-12-3-9 17-7-1 2 13-6 4-10-1 6-11-7-6-11 4-5-3 3-9-5-7 1-9 1-5-12 6-5-4 4-14 8-13-6-10z"
       id="430000" />
    <path
       d="M429 326l2 6 2 6 4 12 3 2v2l-2 5-8-5-8 5-8-4 2-5h-4l-7-9 3-4-5-5v-5l-3-1-3-3 2-4-2-16-2-3-3-2-6 2-2 6-9-25 21-4 2-8 8-4 8-12 23 6 4-16h7l9-9 23-2 1 16-21 11v5l6 12 8 3 2 14-10 1v16l-2 4-2 3-24 2-4 1zM428 359l6 1 4 9-15-9z"
       id="440100" />
    <path
       d="M501 196l8 14h12l10-12 3 5-4 5-15 12-4 15-9-7-22 4-23 2-8-10 4-3 8-6 1-9 6-4-14-25-10 1v-5l-12-4-10 6-15-1-4-5-4 2v-5l-5 8-5-4-6 3-7-8-9-8 7-22 7-4-3-6 1-5-3-7 4-5-5-8 6-6-4-5-11 1-1-9 6 3 20-12 3-8 14-3 7 13 16 3 3 5 17-4 7 3 7-11 7-3 4 7 1 12 2 3 12-6 12 4 2-6 8 1 6-7 11-3 17 14-5 12 5 4-17 5-2 7-14 7-5 22-15 9 12 10-4 5 5 5-8 7 5 8z"
       id="440200" />
    <path
       d="M511 374l-11 6-7-2-12 6-10-3-5 7 1-9-13-20 7-10 9-2 23 21 5-9-4-5 5-3 18 3 2 12h8l9 2-10 9 13 6-10 6-11-17z"
       id="440300" />
    <path
       d="M412 424l-14 19 1-11-10-2-1-13 8-13v-3v-3l-2-5 10 2 6 10 7 9zM417 433l1 4-10 1 3-8h8zM431 423l2 6-9-1 2-5zM404 451l-4-3 3-4 4 2zM420 417l9-7-4-4 1-11 6-3v5l8 1-5 9 2 5-6 7-2-6-3 1 4 5z"
       id="440400" />
    <path
       d="M784 275l1 9-19-3zM749 289l-20-3 6-5 8-3v-14l6 1 3-7 10 2 1 7-5 16zM744 301l-6 9-6-8-6 2h8l-6 13-16 6-15-10 11-23-4-10 7-7 4 4 6-3-2 6 8 2 1 3 2 6 2 2h5h12l2 12-10-8 1 1z"
       id="440500" />
    <path
       d="M364 348l-12 17-5-9-10 6-1 6-5-9-5 3-7 3-1-10 16-6 1-5 16-6 1-7 9-2-2-7-1-7-2-8 4 1 3-12-6-6 6-14-2-4 9-2-2 7 7 4 9 25 2-6 6-2 3 2 2 3 2 16-2 4 3 3 3 1v5l5 5-3 4 7 9h4l-2 5-4 2-1 2-5 1-2-2-7 8-8-4-1-3-2-7-3-1h-6l-4-5z"
       id="440600" />
    <path
       d="M316 445l3 21-11 4 7-17-2-6-12-17-13-8-8 3 4-9-5-6 7-10 7 1 2-6 8-3 1-8 17-16 1 5h8l-4-11 5-3 5 9 1-6 10-6 5 9 12-17 7-2 4 5h6l3 1 2 7 1 3 8 4-1 6 2 7 8 16-10-2 2 5v3v3l-8 13-9 7 2 19-5 8-8 4-7-14-24 23-16-8 3-2-4-7 10-4-11 2-1-13zM336 475l8-6-1 9-12 4zM357 472l-8 1 1-5 5-1 1-5h10l-8 8 1 12-4 2v-5l-4 1z"
       id="440700" />
    <path
       d="M109 582l7-3-1 6 10 5 5 9-14 18-12 7-30-6-6 6 1-13-7-5 5-4 7 11 7-3h-7l4-9-7 1-1-9-2 9-2-6h-7l2-11-10-4 2-6 10-3-10 1v-17l-3 6-6-7 3-15-2-13 6-7 3 5 1-21 20 1-6-4 3-6 3-3h-6l5-2-9 1-1-5-6 5-1-13h-3l2-9 13 2 9-24 26 1 5-4 9 2 1 5-6 1 2 15 4 2 2 13 9 7 17 1 6-16 5 1 6 14 4 8 7 1-22 4-10 13-2 4-20 3v-10l6 3 2-4h-6l2-5-4 4 3-12-4 5-3-4v-7l-6 4 5 3 1 10 1 17-8 7 23 3-3 15-6-8-22 4 11-11-11-6-2 8-4-9h-2l4 3-4 11-6-4 6 6 2 13-6-1 4 1-4 8 10-8 16 8-3 8-2-8-4 3 3 6-5 5 4-3zM130 525l-9-1 4-3 16-1-8 13zM136 550l5 1-7 6zM122 580l2 7-7-7z"
       id="440800" />
    <path
       d="M153 474l-6 16-17-1-9-7-2-13-4-2-2-15 6-1-1-5-2-25-4-5 10-3 7 6 6-5 8 6 4-4-3-5 5-5 9-1-9-20h5l3-12 13-3 19-8 4-1 3 9 16 7-5 6 13-1 1 8 18-12 9 7-31 25-10 27 1 9 13 8-3 12 3 6v10l2 6-17 11-3-4 3 2 2-6-8-4-6 2 7 4-13 2 4-4-11-5-2 9 7-1-11 4-7-1-4-8-6-14z"
       id="440900" />
    <path
       d="M356 307l2 8 1 7 2 7-9 2-1 7-16 6-1 5-16 6-7-2-1-5v-9l-5-1 6-19-7-2-8 5-6-1h-2l-6 1-4-3-7-3h-1l-5-1-16-3-5-2-9-3v-3l3-4-4-4-6 4-10-5 2-9 9-17 1-7 12-1 5-8-5-2 5-10 14 2 5-15 7-2-5-26 6-2 10 5 4-8 9 9 8-7v-12l2-4 12 7 6 6-3 15 6 2 3 15h5l12 6-4 12h5l2 12 5 3-2 5 7 8 2 4-6 14 6 6-3 12z"
       id="441200" />
    <path
       d="M548 353l-19 6 5 3-7 4h-8l-2-12-18-3-1-19h-9v-7l-5-5-7 4-15-7 2-3 2-4v-16l10-1-2-14-8-3-6-12v-5l21-11-1-16 22-4 9 7-1 14 8 6 9 1 9 18 5-5 4 11-6 6h5l10 17 7 9 6-19 6 5 24-10 19 16-26 26h-8l-14 9 11 22-5 2-4-8h-7l10 9-8 15-3-7-11 3v-17l8-6-6-5v6z"
       id="441300" />
    <path
       d="M658 258l-6 14-11-2-7 9-13 10-4-8 2-27-4 1-3-9-5 2 4-5-2-4 10-14-4-9 2-7 9 3-2-10 3 2 5-8-4-11 4-12-9-3 2-15 3-2 17 11 10-4-8-18 5-17 9 3-2-6 20 8 11-1 4 7 14-9 3 4-4 4 5 3 12 17 24-8-3 15 14 18 4 16-15 8-8 15 1 1-19 14-1 13-8-3-5 5-8-3-10 9v6h-6l-13-4-8 5z"
       id="441400" />
    <path
       d="M631 351l-4 5 4 4 5-5-3 11-19-3-4-9 6 2 1-4-18 1 8-13-5 8h-8l1 5-17-4 1 12-11-22 14-9h8l26-26 6-10-1-5 13-10 8 12 8-4 4 6 2 8-10 5 3 5 10 7 7-2 2 16 7 3 3 1 4 1v8l-12 5 1-3-14 10-1-9-11-3-4-3 3-2-6 3zM688 340l9-3-12 11-2-5z"
       id="441500" />
    <path
       d="M607 248l5-2 3 9 4-1-2 27 4 8 1 5-6 10-19-16-24 10-6-5-6 19-7-9-10-17h-5l6-6-4-11-5 5-9-18-9-1-8-6 1-14 4-15 15-12 4-5-3-5-10 12h-12l-8-14 3-9-5-8 8-7-5-5 4-5 7 1 5 8 22-10 5 5 2-8 7 1 7 4 4-11 27-5 17-7 10 1 9 12-3 2-2 15 9 3-4 12 4 11-5 8-3-2 2 10-9-3-2 7 4 9-10 14 2 4z"
       id="441600" />
    <path
       d="M221 454l-13-8-1-9 10-27 31-25 16-21 2 2-4 8 7 2 7-6 3 16 16 9-2 6-7-1-7 10 5 6-4 9 8-3 13 8 12 17 2 6-7 17-11-4 3-12-5 3 3 3h-17l3-10-5 11-5-1 7 3-11 7 2 6 8 1-21 8 4-11h7l-10-5 3-7-6-1-14 2 14 5-5 8 5 3-10 2-4 9-5-6 3 4-15 2-5-8v-10l-3-6z"
       id="441700" />
    <path
       d="M453 221l-4 3 8 10-9 9h-7l-4 16-23-6-8 12-8 4-2 8-21 4-7-4 2-7-9 2-7-8 2-5-5-3-2-12h-5l4-12-12-6h-5l-3-15-6-2 3-15-6-6-12-7-2 4v12l-8 7-9-9-4 8-10-5 13-14-13-29 3-9 6-2 8-10 5 2 2-11-6-6 4-9 6-16 8 5 7-4 4 6 4-4 9 6 11-1 12 25 21-2 3 6-7 4-7 22 9 8 7 8 6-3 5 4 5-8v5l4-2 4 5 15 1 10-6 12 4v5l10-1 14 25-6 4-1 9z"
       id="441800" />
    <path
       d="M454 359l-14-5v-2l-3-2-4-12-2-6-2-6 5-6 4-1 24-2 15 7 7-4 5 5v7h9l1 19-5 3 4 5-5 9-23-21-9 2z"
       id="441900" />
    <path
       d="M420 417l-3-3-7-9-6-10-8-16-2-7 1-6 7-8 2 2 5-1 1-2 4-2 8 4 12 15-2 18-6 3-1 11 4 4z"
       id="442000" />
    <path
       d="M741 220l-1-1 8-15 15-8 5 6-6 8 6 10-1 10 9 21 14 9-10 8-2-8-8-1 1 13-8-5-1-7-10-2-3 7-6-1v14l-8 3-9-8-1-12-17-12 5-5 8 3 1-13z"
       id="445100" />
    <path
       d="M697 313l15 10 16-6 2 9-6 8-20-2-7 5-9 3-6-3-4-1-3-1-7-3-2-16-7 2-10-7-3-5 10-5-2-8-4-6-8 4-8-12 7-9 11 2 6-14 5 4 8-5 13 4h6v-6l10-9 8 3 17 12 1 12 9 8-6 5-1-1-1-3-8-2 2-6-6 3-4-4-7 7 4 10z"
       id="445200" />
    <path
       d="M310 348l1 5 7 2 1 10 7-3 4 11h-8l-1-5-17 16-1 8-8 3-16-9-3-16-7 6-7-2 4-8-2-2-16 21-9-7-18 12-1-8-13 1 5-6-16-7-3-9-4 1-3-4 16-3 16-19-2-3 7-9-5-5v-24l10 5 6-4 4 4-3 4v3l9 3 5 2 16 3 5 1h1l7 3 4 3 6-1h2l6 1 8-5 7 2-6 19 5 1z"
       id="445300" />
    <path
       d="M-64 441l3-4-3 2zM-64 61h1l7-1 10 14v-15l9-6-2-6 4-4 8-1 2 11 12-3 9 5 4-4-3-10 3-8-6-2-9 7v-6l18-8 4 6 4-6 2 8h12l1-10 14-21 5 3 11-4 7 6-6 11 10 1 6-4-2-13 7 1 9-17 12 3-3 12 4 3 9-4 8 10 30-34 3-3 12 2 2 7h15l3-13 4 2 1 4 27 8-1 14-7 13 1 10 6 4 5-5 7 2 8 2-3 2-2 8-13 8 3 10-4 14-20 20 1 8-11 5-5 13 5 13 9-2 1-10 17-12 7 6 5-4 6 11-3 6 5 19-6 12 4 2 5 3 12-5 6-11 31 6-6 2-3 9 13 29-13 14-6 2 5 26-7 2-5 15-14-2-5 10 5 2-5 8-12 1-1 7-9 17-2 9v24l5 5-7 9 2 3-16 19-16 3 3 4-19 8-13 3-3 12h-5l9 20-9 1-5 5 3 5-4 4-8-6-6 5-7-6-10 3 4 5 2 25-9-2-5 4-26-1-9 24-13-2-2 9 2 11-12-3 5-12-9 5 1-8-4 2-2-7 4-8-10 7 2 5-5-1 11 9-4 8-7 4v-4l-4 5-10-3-2 4-7-1 1-4-4 8-15-2 11-9v-6v-6l-2 5-6-6-2 4 1-6-7 5-9-2-5-8 8-7-6 1 1-5-9-5 6 9-2 6-2-5-3 3 8 10-12 3-2-17-3 6-5-4 5-8-5 5-2-3-1 8-4-8 7-10-9-1z"
       id="450000" />
    <path
       d="M-63 754l-1-3v3zM-64 738l5-6-5-2zM-64 754v-32l5-1 1-9 27-12 6-9 20-9 1-6 9 4-3-12-6 7-5-4 10-14 19 4 1 5 10-3-4-2v-4h5l-4-4 13-6 15 8 2-5v8l4-3 8-6 4 7-3 1 5 3 2-7h9l3-5-7 2 10-8 20 5 1-6 16 7 6 14 4-3-2-6-5-13 11-8 9 17 8 3 8-3 10 40-17 13-4-8 8-6-14 2 6 10-15 15-11 25-7 1 5 1-1 5h1l2-6-1 7-2 6z"
       id="460000" />
    <path
       d="M29-64l6 10-8 13-4 14 5 4 12-6-1 5-1 9 5 7-3 9-14 21-1 10h-12l-2-8-4 6-4-6-18 8v6l9-7 6 2-3 8 3 10-4 4-9-5-12 3-2-11-8 1-4 4 2 6-9 6v15l-10-14-7 1h-1v-125z"
       id="520000" />
    <path
       d="M477 409l-1 7-14 1 5-10 15-6zM501 409l2 7-3-4-1 5-10-9zM481 384l12-6 7 2 11 4-18 5 5 4-2 4 13-10 2 5 6-1-1 7-10-3-4 5 5 10-4-7-2 4-4-4-3 3-5-8h-20l-1-4zM490 419l-2-7 5 4z"
       id="810000" />
  </defs>
  <rect
     style="fill:#c0dcf7"
     x="0"
     y="-6.4510897e-014"
     width="852"
     height="690"
     id="rect61" />
  <g
     id="g38">
    <clipPath
       id="clip350000">
      <use
         xlink:href="#350000"
         id="use41" />
    </clipPath>
    <clipPath
       id="clip360000">
      <use
         xlink:href="#360000"
         id="use44" />
    </clipPath>
    <clipPath
       id="clip430000">
      <use
         xlink:href="#430000"
         id="use47" />
    </clipPath>
    <clipPath
       id="clip440100">
      <use
         xlink:href="#440100"
         id="use50" />
    </clipPath>
    <clipPath
       id="clip440200">
      <use
         xlink:href="#440200"
         id="use53" />
    </clipPath>
    <clipPath
       id="clip440300">
      <use
         xlink:href="#440300"
         id="use56" />
    </clipPath>
    <clipPath
       id="clip440400">
      <use
         xlink:href="#440400"
         id="use59" />
    </clipPath>
    <clipPath
       id="clip440500">
      <use
         xlink:href="#440500"
         id="use62" />
    </clipPath>
    <clipPath
       id="clip440600">
      <use
         xlink:href="#440600"
         id="use65" />
    </clipPath>
    <clipPath
       id="clip440700">
      <use
         xlink:href="#440700"
         id="use68" />
    </clipPath>
    <clipPath
       id="clip440800">
      <use
         xlink:href="#440800"
         id="use71" />
    </clipPath>
    <clipPath
       id="clip440900">
      <use
         xlink:href="#440900"
         id="use74" />
    </clipPath>
    <clipPath
       id="clip441200">
      <use
         xlink:href="#441200"
         id="use77" />
    </clipPath>
    <clipPath
       id="clip441300">
      <use
         xlink:href="#441300"
         id="use80" />
    </clipPath>
    <clipPath
       id="clip441400">
      <use
         xlink:href="#441400"
         id="use83" />
    </clipPath>
    <clipPath
       id="clip441500">
      <use
         xlink:href="#441500"
         id="use86" />
    </clipPath>
    <clipPath
       id="clip441600">
      <use
         xlink:href="#441600"
         id="use89" />
    </clipPath>
    <clipPath
       id="clip441700">
      <use
         xlink:href="#441700"
         id="use92" />
    </clipPath>
    <clipPath
       id="clip441800">
      <use
         xlink:href="#441800"
         id="use95" />
    </clipPath>
    <clipPath
       id="clip441900">
      <use
         xlink:href="#441900"
         id="use98" />
    </clipPath>
    <clipPath
       id="clip442000">
      <use
         xlink:href="#442000"
         id="use101" />
    </clipPath>
    <clipPath
       id="clip445100">
      <use
         xlink:href="#445100"
         id="use104" />
    </clipPath>
    <clipPath
       id="clip445200">
      <use
         xlink:href="#445200"
         id="use107" />
    </clipPath>
    <clipPath
       id="clip445300">
      <use
         xlink:href="#445300"
         id="use110" />
    </clipPath>
    <clipPath
       id="clip450000">
      <use
         xlink:href="#450000"
         id="use113" />
    </clipPath>
    <clipPath
       id="clip460000">
      <use
         xlink:href="#460000"
         id="use116" />
    </clipPath>
    <clipPath
       id="clip520000">
      <use
         xlink:href="#520000"
         id="use119" />
    </clipPath>
    <clipPath
       id="clip810000">
      <use
         xlink:href="#810000"
         id="use122" />
    </clipPath>
  </g>
  <g
     id="g124">
    <a
       xlink:href="http://ja.wikipedia.org/wiki/福建省"
       clip-path="url(#clip350000)"
       fill="none"
       stroke-linejoin="round"
       id="a126">
      <use
         xlink:href="#350000"
         fill="#eeeecc"
         stroke="#e6e6c4"
         stroke-width="64"
         id="use128"
         style="stroke:none;fill:#c4fad5;fill-opacity:1" />
      <use
         xlink:href="#350000"
         stroke="#000000"
         stroke-width="0.5"
         id="use142" />
    </a>
    <a
       xlink:href="http://ja.wikipedia.org/wiki/江西省"
       clip-path="url(#clip360000)"
       fill="none"
       stroke-linejoin="round"
       id="a144">
      <use
         xlink:href="#360000"
         fill="#eeeecc"
         stroke="#e6e6c4"
         stroke-width="64"
         id="use146"
         style="stroke:none;fill:#c4fad5;fill-opacity:1" />
      <use
         xlink:href="#360000"
         stroke="#000000"
         stroke-width="0.5"
         id="use160" />
    </a>
    <a
       xlink:href="http://ja.wikipedia.org/wiki/湖南省"
       clip-path="url(#clip430000)"
       fill="none"
       stroke-linejoin="round"
       id="a162">
      <use
         xlink:href="#430000"
         fill="#eeeecc"
         stroke="#e6e6c4"
         stroke-width="64"
         id="use164"
         style="stroke:none;fill:#c4fad5;fill-opacity:1" />
      <use
         xlink:href="#430000"
         stroke="#dedebc"
         stroke-width="33"
         id="use166"
         style="stroke:none" />
      <use
         xlink:href="#430000"
         stroke="#d6d6b4"
         stroke-width="22"
         id="use168"
         style="stroke:none" />
      <use
         xlink:href="#430000"
         stroke="#ceceac"
         stroke-width="14"
         id="use170"
         style="stroke:none" />
      <use
         xlink:href="#430000"
         stroke="#c6c6a4"
         stroke-width="9"
         id="use172"
         style="stroke:none" />
      <use
         xlink:href="#430000"
         stroke="#bebe9c"
         stroke-width="5"
         id="use174"
         style="stroke:none" />
      <use
         xlink:href="#430000"
         stroke="#b6b694"
         stroke-width="2"
         id="use176"
         style="stroke:none" />
      <use
         xlink:href="#430000"
         stroke="#000000"
         stroke-width="0.5"
         id="use178" />
    </a>
    <a
       xlink:href="http://ja.wikipedia.org/wiki/広西壮族自治区"
       clip-path="url(#clip450000)"
       fill="none"
       stroke-linejoin="round"
       id="a180">
      <use
         xlink:href="#450000"
         fill="#eeeecc"
         stroke="#e6e6c4"
         stroke-width="64"
         id="use182"
         style="stroke:none;fill:#c4fad5;fill-opacity:1" />
      <use
         xlink:href="#450000"
         stroke="#d6d6b4"
         stroke-width="22"
         id="use186"
         style="stroke:none" />
      <use
         xlink:href="#450000"
         stroke="#000000"
         stroke-width="0.5"
         id="use196" />
    </a>
    <a
       xlink:href="http://ja.wikipedia.org/wiki/海南省"
       clip-path="url(#clip460000)"
       fill="none"
       stroke-linejoin="round"
       id="a198">
      <use
         xlink:href="#460000"
         fill="#eeeecc"
         stroke="#e6e6c4"
         stroke-width="64"
         id="use200"
         style="stroke:none;fill:#c4fad5;fill-opacity:1" />
      <use
         xlink:href="#460000"
         stroke="#000000"
         stroke-width="0.5"
         id="use214" />
    </a>
    <a
       xlink:href="http://ja.wikipedia.org/wiki/貴州省"
       clip-path="url(#clip520000)"
       fill="none"
       stroke-linejoin="round"
       id="a216">
      <use
         xlink:href="#520000"
         fill="#eeeecc"
         stroke="#e6e6c4"
         stroke-width="64"
         id="use218"
         style="stroke:none;fill:#c4fad5;fill-opacity:1" />
      <use
         xlink:href="#520000"
         stroke="#000000"
         stroke-width="0.5"
         id="use232" />
    </a>
    <a
       xlink:href="http://ja.wikipedia.org/wiki/香港"
       clip-path="url(#clip810000)"
       fill="none"
       stroke-linejoin="round"
       id="a234">
      <use
         xlink:href="#810000"
         fill="#eeeecc"
         stroke="#e6e6c4"
         stroke-width="64"
         id="use236" />
      <use
         xlink:href="#810000"
         stroke="#dedebc"
         stroke-width="33"
         id="use238" />
      <use
         xlink:href="#810000"
         stroke="#d6d6b4"
         stroke-width="22"
         id="use240"
         style="fill:#eeeecc;fill-opacity:1;stroke:none" />
      <use
         xlink:href="#810000"
         stroke="#ceceac"
         stroke-width="14"
         id="use242"
         style="stroke:none;stroke-opacity:1" />
      <use
         xlink:href="#810000"
         stroke="#000000"
         stroke-width="0.5"
         id="use250"
         style="fill:#c4fad5;fill-opacity:1" />
    </a>
  </g>
  <g
     id="g274">
    <a
       xlink:href="http://ja.wikipedia.org/wiki/広州市"
       clip-path="url(#clip440100)"
       fill="none"
       stroke-linejoin="round"
       id="a276">
      <use
         xlink:href="#440100"
         fill="#ff99dd"
         stroke="#f38dd1"
         stroke-width="16"
         id="use278"
         style="stroke:none;fill:#bdb0da;fill-opacity:1" />
      <use
         xlink:href="#440100"
         stroke="#000000"
         stroke-width="0.5"
         id="use280" />
    </a>
    <a
       xlink:href="http://ja.wikipedia.org/wiki/韶関市"
       clip-path="url(#clip440200)"
       fill="none"
       stroke-linejoin="round"
       id="a282">
      <use
         xlink:href="#440200"
         fill="#ff99dd"
         stroke="#f38dd1"
         stroke-width="16"
         id="use284"
         style="stroke:none;fill:#bdb0da;fill-opacity:1" />
      <use
         xlink:href="#440200"
         stroke="#000000"
         stroke-width="0.5"
         id="use286" />
    </a>
    <a
       xlink:href="http://ja.wikipedia.org/wiki/深圳市"
       clip-path="url(#clip440300)"
       fill="none"
       stroke-linejoin="round"
       id="a288">
      <use
         xlink:href="#440300"
         fill="#ff99dd"
         stroke="#f38dd1"
         stroke-width="16"
         id="use290"
         style="stroke:none;fill:#bdb0da;fill-opacity:1" />
      <use
         xlink:href="#440300"
         stroke="#000000"
         stroke-width="0.5"
         id="use292" />
    </a>
    <a
       xlink:href="http://ja.wikipedia.org/wiki/珠海市"
       clip-path="url(#clip440400)"
       fill="none"
       stroke-linejoin="round"
       id="a294">
      <use
         xlink:href="#440400"
         fill="#ff99dd"
         stroke="#f38dd1"
         stroke-width="16"
         id="use296"
         style="stroke:none;fill:#bdb0da;fill-opacity:1" />
      <use
         xlink:href="#440400"
         stroke="#000000"
         stroke-width="0.5"
         id="use298" />
    </a>
    <a
       xlink:href="http://ja.wikipedia.org/wiki/汕頭市"
       clip-path="url(#clip440500)"
       fill="none"
       stroke-linejoin="round"
       id="a300">
      <use
         xlink:href="#440500"
         fill="#ff99dd"
         stroke="#f38dd1"
         stroke-width="16"
         id="use302"
         style="stroke:none;fill:#bdb0da;fill-opacity:1" />
      <use
         xlink:href="#440500"
         stroke="#000000"
         stroke-width="0.5"
         id="use304" />
    </a>
    <a
       xlink:href="http://ja.wikipedia.org/wiki/仏山市"
       clip-path="url(#clip440600)"
       fill="none"
       stroke-linejoin="round"
       id="a306">
      <use
         xlink:href="#440600"
         fill="#ff99dd"
         stroke="#f38dd1"
         stroke-width="16"
         id="use308"
         style="stroke:none;fill:#bdb0da;fill-opacity:1" />
      <use
         xlink:href="#440600"
         stroke="#000000"
         stroke-width="0.5"
         id="use310" />
    </a>
    <a
       xlink:href="http://ja.wikipedia.org/wiki/江門市"
       clip-path="url(#clip440700)"
       fill="none"
       stroke-linejoin="round"
       id="a312">
      <use
         xlink:href="#440700"
         fill="#ff99dd"
         stroke="#f38dd1"
         stroke-width="16"
         id="use314"
         style="stroke:none;fill:#bdb0da;fill-opacity:1" />
      <use
         xlink:href="#440700"
         stroke="#000000"
         stroke-width="0.5"
         id="use316" />
    </a>
    <a
       xlink:href="http://ja.wikipedia.org/wiki/湛江市"
       clip-path="url(#clip440800)"
       fill="none"
       stroke-linejoin="round"
       id="a318">
      <use
         xlink:href="#440800"
         fill="#ff99dd"
         stroke="#f38dd1"
         stroke-width="16"
         id="use320"
         style="stroke:none;fill:#bdb0da;fill-opacity:1" />
      <use
         xlink:href="#440800"
         stroke="#000000"
         stroke-width="0.5"
         id="use322" />
    </a>
    <a
       xlink:href="http://ja.wikipedia.org/wiki/茂名市"
       clip-path="url(#clip440900)"
       fill="none"
       stroke-linejoin="round"
       id="a324">
      <use
         xlink:href="#440900"
         fill="#ff99dd"
         stroke="#f38dd1"
         stroke-width="16"
         id="use326"
         style="stroke:none;fill:#bdb0da;fill-opacity:1" />
      <use
         xlink:href="#440900"
         stroke="#000000"
         stroke-width="0.5"
         id="use328" />
    </a>
    <a
       xlink:href="http://ja.wikipedia.org/wiki/肇慶市"
       clip-path="url(#clip441200)"
       fill="none"
       stroke-linejoin="round"
       id="a330">
      <use
         xlink:href="#441200"
         fill="#ff99dd"
         stroke="#f38dd1"
         stroke-width="16"
         id="use332"
         style="stroke:none;fill:#bdb0da;fill-opacity:1" />
      <use
         xlink:href="#441200"
         stroke="#000000"
         stroke-width="0.5"
         id="use334" />
    </a>
    <a
       xlink:href="http://ja.wikipedia.org/wiki/恵州市"
       clip-path="url(#clip441300)"
       fill="none"
       stroke-linejoin="round"
       id="a336">
      <use
         xlink:href="#441300"
         fill="#ff99dd"
         stroke="#f38dd1"
         stroke-width="16"
         id="use338"
         style="stroke:none;fill:#6526f9;fill-opacity:1" />
      <use
         xlink:href="#441300"
         stroke="#000000"
         stroke-width="0.5"
         id="use340" />
    </a>
    <a
       xlink:href="http://ja.wikipedia.org/wiki/梅州市"
       clip-path="url(#clip441400)"
       fill="none"
       stroke-linejoin="round"
       id="a342">
      <use
         xlink:href="#441400"
         fill="#ff99dd"
         stroke="#f38dd1"
         stroke-width="16"
         id="use344"
         style="stroke:none;fill:#bdb0da;fill-opacity:1" />
      <use
         xlink:href="#441400"
         stroke="#000000"
         stroke-width="0.5"
         id="use346" />
    </a>
    <a
       xlink:href="http://ja.wikipedia.org/wiki/汕尾市"
       clip-path="url(#clip441500)"
       fill="none"
       stroke-linejoin="round"
       id="a348">
      <use
         xlink:href="#441500"
         fill="#ff99dd"
         stroke="#f38dd1"
         stroke-width="16"
         id="use350"
         style="stroke:none;fill:#bdb0da;fill-opacity:1" />
      <use
         xlink:href="#441500"
         stroke="#000000"
         stroke-width="0.5"
         id="use352" />
    </a>
    <a
       xlink:href="http://ja.wikipedia.org/wiki/河源市"
       clip-path="url(#clip441600)"
       fill="none"
       stroke-linejoin="round"
       id="a354">
      <use
         xlink:href="#441600"
         fill="#ff99dd"
         stroke="#f38dd1"
         stroke-width="16"
         id="use356"
         style="stroke:none;fill:#bdb0da;fill-opacity:1" />
      <use
         xlink:href="#441600"
         stroke="#000000"
         stroke-width="0.5"
         id="use358" />
    </a>
    <a
       xlink:href="http://ja.wikipedia.org/wiki/陽江市"
       clip-path="url(#clip441700)"
       fill="none"
       stroke-linejoin="round"
       id="a360">
      <use
         xlink:href="#441700"
         fill="#ff99dd"
         stroke="#f38dd1"
         stroke-width="16"
         id="use362"
         style="stroke:none;fill:#bdb0da;fill-opacity:1" />
      <use
         xlink:href="#441700"
         stroke="#000000"
         stroke-width="0.5"
         id="use364" />
    </a>
    <a
       xlink:href="http://ja.wikipedia.org/wiki/清遠市"
       clip-path="url(#clip441800)"
       fill="none"
       stroke-linejoin="round"
       id="a366">
      <use
         xlink:href="#441800"
         fill="#ff99dd"
         stroke="#f38dd1"
         stroke-width="16"
         id="use368"
         style="stroke:none;fill:#bdb0da;fill-opacity:1" />
      <use
         xlink:href="#441800"
         stroke="#000000"
         stroke-width="0.5"
         id="use370" />
    </a>
    <a
       xlink:href="http://ja.wikipedia.org/wiki/東莞市"
       clip-path="url(#clip441900)"
       fill="none"
       stroke-linejoin="round"
       id="a372">
      <use
         xlink:href="#441900"
         fill="#ff99dd"
         stroke="#f38dd1"
         stroke-width="16"
         id="use374"
         style="stroke:none;fill:#bdb0da;fill-opacity:1" />
      <use
         xlink:href="#441900"
         stroke="#000000"
         stroke-width="0.5"
         id="use376" />
    </a>
    <a
       xlink:href="http://ja.wikipedia.org/wiki/中山市"
       clip-path="url(#clip442000)"
       fill="none"
       stroke-linejoin="round"
       id="a378">
      <use
         xlink:href="#442000"
         fill="#ff99dd"
         stroke="#f38dd1"
         stroke-width="16"
         id="use380"
         style="stroke:none;fill:#bdb0da;fill-opacity:1" />
      <use
         xlink:href="#442000"
         stroke="#000000"
         stroke-width="0.5"
         id="use382" />
    </a>
    <a
       xlink:href="http://ja.wikipedia.org/wiki/潮州市"
       clip-path="url(#clip445100)"
       fill="none"
       stroke-linejoin="round"
       id="a384">
      <use
         xlink:href="#445100"
         fill="#ff99dd"
         stroke="#f38dd1"
         stroke-width="16"
         id="use386"
         style="stroke:none;fill:#bdb0da;fill-opacity:1" />
      <use
         xlink:href="#445100"
         stroke="#000000"
         stroke-width="0.5"
         id="use388" />
    </a>
    <a
       xlink:href="http://ja.wikipedia.org/wiki/掲陽市"
       clip-path="url(#clip445200)"
       fill="none"
       stroke-linejoin="round"
       id="a390">
      <use
         xlink:href="#445200"
         fill="#ff99dd"
         stroke="#f38dd1"
         stroke-width="16"
         id="use392"
         style="stroke:none;fill:#bdb0da;fill-opacity:1" />
      <use
         xlink:href="#445200"
         stroke="#000000"
         stroke-width="0.5"
         id="use394" />
    </a>
    <a
       xlink:href="http://ja.wikipedia.org/wiki/雲浮市"
       clip-path="url(#clip445300)"
       fill="none"
       stroke-linejoin="round"
       id="a396">
      <use
         xlink:href="#445300"
         fill="#ff99dd"
         stroke="#f38dd1"
         stroke-width="16"
         id="use398"
         style="stroke:none;fill:#bdb0da;fill-opacity:1" />
      <use
         xlink:href="#445300"
         stroke="#000000"
         stroke-width="0.5"
         id="use400" />
    </a>
  </g>
  <g
     id="g402">
    <rect
       x="642"
       y="636"
       width="204"
       height="48"
       fill="#dddddd"
       opacity="0.5"
       id="rect404" />
    <rect
       x="648"
       y="666"
       width="192"
       height="12"
       fill="#333333"
       id="rect406" />
    <text
       x="744"
       y="662"
       font-family="Helvetica"
       font-size="28"
       fill="#333333"
       text-anchor="middle"
       id="text408">200km</text>
  </g>
  <circle
     transform="translate(233.32205,-98.506368)"
     style="fill:#ff0000"
     sodipodi:ry="3"
     sodipodi:rx="3"
     sodipodi:cy="415"
     sodipodi:cx="176"
     cx="176"
     cy="415"
     r="3"
     id="circle108" />
  <circle
     id="circle3176"
     r="3"
     cy="415"
     cx="176"
     sodipodi:cx="176"
     sodipodi:cy="415"
     sodipodi:rx="3"
     sodipodi:ry="3"
     style="fill:#ff0000"
     transform="translate(211.39408,-82.425859)" />
  <circle
     transform="translate(208.47035,-39.666324)"
     style="fill:#ff0000"
     sodipodi:ry="3"
     sodipodi:rx="3"
     sodipodi:cy="415"
     sodipodi:cx="176"
     cx="176"
     cy="415"
     r="3"
     id="circle3178" />
  <circle
     id="circle3180"
     r="3"
     cy="415"
     cx="176"
     sodipodi:cx="176"
     sodipodi:cy="415"
     sodipodi:rx="3"
     sodipodi:ry="3"
     style="fill:#ff0000"
     transform="translate(239.53497,-33.818866)" />
  <circle
     transform="translate(256.71188,-3.4851786)"
     style="fill:#ff0000"
     sodipodi:ry="3"
     sodipodi:rx="3"
     sodipodi:cy="415"
     sodipodi:cx="176"
     cx="176"
     cy="415"
     r="3"
     id="circle3182" />
  <circle
     id="circle3184"
     r="3"
     cy="415"
     cx="176"
     sodipodi:cx="176"
     sodipodi:cy="415"
     sodipodi:rx="3"
     sodipodi:ry="3"
     style="fill:#ff0000"
     transform="translate(273.52332,-85.715054)" />
  <circle
     transform="translate(307.87713,-36.742595)"
     style="fill:#ff0000"
     sodipodi:ry="3"
     sodipodi:rx="3"
     sodipodi:cy="415"
     sodipodi:cx="176"
     cx="176"
     cy="415"
     r="3"
     id="circle3186" />
  <circle
     id="circle3188"
     r="3"
     cy="415"
     cx="176"
     sodipodi:cx="176"
     sodipodi:cy="415"
     sodipodi:rx="3"
     sodipodi:ry="3"
     style="fill:#ff0000"
     transform="translate(206.64302,-168.3104)" />
  <circle
     transform="translate(153.28497,-89.004253)"
     style="fill:#ff0000"
     sodipodi:ry="3"
     sodipodi:rx="3"
     sodipodi:cy="415"
     sodipodi:cx="176"
     cx="176"
     cy="415"
     r="3"
     id="circle3190" />
  <circle
     id="circle3192"
     r="3"
     cy="415"
     cx="176"
     sodipodi:cx="176"
     sodipodi:cy="415"
     sodipodi:rx="3"
     sodipodi:ry="3"
     style="fill:#ff0000"
     transform="translate(105.04344,-76.578405)" />
  <circle
     transform="translate(-3.4999956,54.989396)"
     style="fill:#ff0000"
     sodipodi:ry="3"
     sodipodi:rx="3"
     sodipodi:cy="415"
     sodipodi:cx="176"
     cx="176"
     cy="415"
     r="3"
     id="circle3194" />
  <circle
     id="circle3196"
     r="3"
     cy="415"
     cx="176"
     sodipodi:cx="176"
     sodipodi:cy="415"
     sodipodi:rx="3"
     sodipodi:ry="3"
     style="fill:#ff0000"
     transform="translate(97.734118,35.985158)" />
  <circle
     id="circle3198"
     r="3"
     cy="415"
     cx="176"
     sodipodi:cx="176"
     sodipodi:cy="415"
     sodipodi:rx="3"
     sodipodi:ry="3"
     style="fill:#ff0000"
     transform="translate(-62.34004,102.49999)" />
  <circle
     transform="translate(256.34641,-274.66104)"
     style="fill:#ff0000"
     sodipodi:ry="3"
     sodipodi:rx="3"
     sodipodi:cy="415"
     sodipodi:cx="176"
     cx="176"
     cy="415"
     r="3"
     id="circle3200" />
  <circle
     id="circle3202"
     r="3"
     cy="415"
     cx="176"
     sodipodi:cx="176"
     sodipodi:cy="415"
     sodipodi:rx="3"
     sodipodi:ry="3"
     style="fill:#ff0000"
     transform="translate(376.95023,-167.94493)" />
  <circle
     transform="translate(345.88561,-97.775436)"
     style="fill:#ff0000"
     sodipodi:ry="3"
     sodipodi:rx="3"
     sodipodi:cy="415"
     sodipodi:cx="176"
     cx="176"
     cy="415"
     r="3"
     id="circle3204" />
  <circle
     id="circle3206"
     r="3"
     cy="415"
     cx="176"
     sodipodi:cx="176"
     sodipodi:cy="415"
     sodipodi:rx="3"
     sodipodi:ry="3"
     style="fill:#ff0000"
     transform="translate(444.56146,-63.421621)" />
  <circle
     transform="translate(530.08053,-147.11336)"
     style="fill:#ff0000"
     sodipodi:ry="3"
     sodipodi:rx="3"
     sodipodi:cy="415"
     sodipodi:cx="176"
     cx="176"
     cy="415"
     r="3"
     id="circle3208" />
  <circle
     id="circle3210"
     r="3"
     cy="415"
     cx="176"
     sodipodi:cx="176"
     sodipodi:cy="415"
     sodipodi:rx="3"
     sodipodi:ry="3"
     style="fill:#ff0000"
     transform="translate(556.75956,-159.53921)" />
  <circle
     transform="translate(505.5943,-222.39938)"
     style="fill:#ff0000"
     sodipodi:ry="3"
     sodipodi:rx="3"
     sodipodi:cy="415"
     sodipodi:cx="176"
     cx="176"
     cy="415"
     r="3"
     id="circle3212" />
  <circle
     id="circle3214"
     r="3"
     cy="415"
     cx="176"
     sodipodi:cx="176"
     sodipodi:cy="415"
     sodipodi:rx="3"
     sodipodi:ry="3"
     style="fill:#ff0000"
     transform="translate(571.74367,-130.30192)" />
</svg>
