<?xml version="1.0" encoding="UTF-8"?>
<svg version="1.1" xmlns="http://www.w3.org/2000/svg" xmlns:xlink="http://www.w3.org/1999/xlink" viewBox="0 0 162 360">
	<title>Harmonics for two fixed ends</title>
	<defs>
		<style>
			.txt,.url{font-family:Helvetica, Helvetica;}
			.fra,.sym{font-family:Palatino-Roman, Palatino;}
			.var{font-family:Palatino-Italic, Palatino;font-style:italic;}
			.txt,.var,.sym{font-size:12px;}
			.url{font-size:9px;}
			.fra{font-size:7px;}
			.thinn,.thicc{fill:none;stroke:#000;}
			.thinn{stroke-width:0.5px;}
			.thicc{stroke-width:1px;}
		</style>
	</defs>
	<g id="waves">
		<g>
			<path class="thicc" d="M9,18s18-9,72-9,72,9,72,9"/>
			<path class="thicc" d="M9,18s18,9,72,9,72-9,72-9"/>
			<path class="thinn" d="M9,18s18-4.5,72-4.5,72,4.5,72,4.5"/>
			<path class="thinn" d="M9,18s18,4.5,72,4.5,72-4.5,72-4.5"/>
			<line class="thinn" x1="9" y1="18" x2="153" y2="18"/>
		</g>
		<g>
			<path class="thicc" d="M9,90s9-9,36-9,36,9,36,9c0,0,9.001,9,36.001,9s36-9,36-9"/>
			<path class="thicc" d="M9,90s9,9,36,9,36-9,36-9c0,0,9.001-9,36.001-9s36,9,36,9"/>
			<path class="thinn" d="M9,90s9-4.5,36-4.5,36,4.5,36,4.5c0,0,9,4.5,36,4.5s36-4.5,36-4.5"/>
			<path class="thinn" d="M9,90s9,4.5,36,4.5,36-4.5,36-4.5c0,0,9-4.5,36-4.5s36,4.5,36,4.5"/>
			<line class="thinn" x1="9" y1="90" x2="153" y2="90"/>
		</g>
		<g>
			<path class="thicc" d="M9,162s6-9,24-9,24,9,24,9c0,0,6,9,24,9s24-9,24-9c0,0,6-9,24-9s24,9,24,9"/>
			<path class="thicc" d="M9,162s6,9,24,9,24-9,24-9c0,0,6-9,24-9s24,9,24,9c0,0,6,9,24,9s24-9,24-9"/>
			<path class="thinn" d="M9,162s6-4.5,24-4.5,24,4.5,24,4.5c0,0,6,4.5,24,4.5s24-4.5,24-4.5c0,0,6-4.5,24-4.5s24,4.5,24,4.5"/>
			<path class="thinn" d="M9,162s6,4.5,24,4.5,24-4.5,24-4.5c0,0,6-4.5,24-4.5s24,4.5,24,4.5c0,0,6,4.5,24,4.5s24-4.5,24-4.5"/>
			<line class="thinn" x1="9" y1="162" x2="153" y2="162"/>
		</g>
		<g>
			<path class="thicc" d="M9,234s4.5-9,18-9,18,9,18,9c0,0,4.5,9,18,9s18-9,18-9c0,0,4.5-9,18-9s18,9,18,9c0,0,4.5,9,18,9s18-9,18-9"/>
			<path class="thicc" d="M9,234s4.5,9,18,9,18-9,18-9c0,0,4.5-9,18-9s18,9,18,9c0,0,4.5,9,18,9s18-9,18-9c0,0,4.5-9,18-9s18,9,18,9"/>
			<path class="thinn" d="M9,234s4.5-4.5,18-4.5,18,4.5,18,4.5c0,0,4.5,4.5,18,4.5s18-4.5,18-4.5c0,0,4.5-4.5,18-4.5s18,4.5,18,4.5c0,0,4.5,4.5,18,4.5s18-4.5,18-4.5"/>
			<path class="thinn" d="M9,234s4.5,4.5,18,4.5,18-4.5,18-4.5c0,0,4.5-4.5,18-4.5s18,4.5,18,4.5c0,0,4.5,4.5,18,4.5s18-4.5,18-4.5c0,0,4.5-4.5,18-4.5s18,4.5,18,4.5"/>
			<line class="thinn" x1="9" y1="234" x2="153" y2="234"/>
		</g>
		<g>
			<path class="thicc" d="M9,306s3.6-9,14.4-9,14.4,9,14.4,9c0,0,3.6,9,14.4,9s14.4-9,14.4-9c0,0,3.6-9,14.4-9s14.4,9,14.4,9c0,0,3.6,9,14.4,9s14.4-9,14.4-9c0,0,3.6-9,14.4-9s14.4,9,14.4,9"/>
			<path class="thicc" d="M153,306s-3.6,9-14.4,9-14.4-9-14.4-9c0,0-3.6-9-14.4-9s-14.4,9-14.4,9c0,0-3.6,9-14.4,9s-14.4-9-14.4-9c0,0-3.6-9-14.4-9s-14.4,9-14.4,9c0,0-3.6,9-14.4,9s-14.4-9-14.4-9"/>
			<path class="thinn" d="M9,306s3.6-4.5,14.4-4.5,14.4,4.5,14.4,4.5c0,0,3.6,4.5,14.4,4.5s14.4-4.5,14.4-4.5c0,0,3.6-4.5,14.4-4.5s14.4,4.5,14.4,4.5c0,0,3.6,4.5,14.4,4.5s14.4-4.5,14.4-4.5c0,0,3.6-4.5,14.4-4.5s14.4,4.5,14.4,4.5"/>
			<path class="thinn" d="M153,306s-3.6,4.5-14.4,4.5-14.4-4.5-14.4-4.5c0,0-3.6-4.5-14.4-4.5s-14.4,4.5-14.4,4.5c0,0-3.6,4.5-14.4,4.5s-14.4-4.5-14.4-4.5c0,0-3.6-4.5-14.4-4.5s-14.4,4.5-14.4,4.5c0,0-3.6,4.5-14.4,4.5s-14.4-4.5-14.4-4.5"/>
			<line class="thinn" x1="9" y1="306" x2="153" y2="306"/>
		</g>
	</g>
	<g id="equations">
		<g>
			<text class="fra" transform="translate(85.000 045.169)">–</text>
			<text class="fra" transform="translate(85.250 049.931)">2</text>
			<text class="var" transform="translate(63.000 045.157)">L</text>
			<text class="sym" transform="translate(74.000 045.169)">=</text>
			<text class="fra" transform="translate(85.000 040.779)">1</text>
			<text class="sym" transform="translate(92.000 045.169)">λ</text>
			<text class="sym" transform="translate(78 63)">ƒ</text>
		</g>
		<g>
			<text class="fra" transform="translate(85.000 117.169)">–</text>
			<text class="fra" transform="translate(85.250 121.931)">2</text>
			<text class="var" transform="translate(63.000 117.157)">L</text>
			<text class="sym" transform="translate(74.000 117.169)">=</text>
			<text class="fra" transform="translate(85.000 112.779)">2</text>
			<text class="sym" transform="translate(92.000 117.169)">λ</text>
			<text class="sym" transform="translate(75 135)">2ƒ</text>
		</g>
		<g>
			<text class="fra" transform="translate(85.000 189.169)">–</text>
			<text class="fra" transform="translate(85.250 193.931)">2</text>
			<text class="var" transform="translate(63.000 189.157)">L</text>
			<text class="sym" transform="translate(74.000 189.169)">=</text>
			<text class="fra" transform="translate(85.000 184.779)">3</text>
			<text class="sym" transform="translate(92.000 189.169)">λ</text>
			<text class="sym" transform="translate(75 207)">3ƒ</text>
		</g>
		<g>
			<text class="fra" transform="translate(85.000 261.169)">–</text>
			<text class="fra" transform="translate(85.250 265.931)">2</text>
			<text class="var" transform="translate(63.000 261.157)">L</text>
			<text class="sym" transform="translate(74.000 261.169)">=</text>
			<text class="fra" transform="translate(85.000 256.779)">4</text>
			<text class="sym" transform="translate(92.000 261.169)">λ</text>
			<text class="sym" transform="translate(75 279)">4ƒ</text>
		</g>
		<g>
			<text class="fra" transform="translate(85.000 333.169)">–</text>
			<text class="fra" transform="translate(85.250 337.931)">2</text>
			<text class="var" transform="translate(63.000 333.157)">L</text>
			<text class="sym" transform="translate(74.000 333.169)">=</text>
			<text class="fra" transform="translate(85.000 328.779)">5</text>
			<text class="sym" transform="translate(92.000 333.169)">λ</text>
			<text class="sym" transform="translate(75 351)">5ƒ</text>
		</g>
	</g>
	<g id="text" class="txt">
		<text transform="translate(44.654 -18)">harmonics for
			<tspan x="-2.013" y="14">two fixed ends</tspan>
		</text>
		<text transform="translate(33.637 396)">whole numbers of
			<tspan x="2.332" y="14">half-wavelengths</tspan>
		</text>
		<text transform="translate(01.622 432)">overtones are whole multiples
			<tspan x="1.655" y="14">of the fundamental frequency</tspan>
		</text>
		<text transform="translate(78 378)">⋮</text>
	</g>
	<text class="url" transform="translate(57.5 468)">
		<a href="https://physics.info" xlink:title="The Physics Hypertextbook" class="url">physics.info</a>
	</text>
</svg>
