<svg width="1657" height="1005" xmlns="http://www.w3.org/2000/svg" xmlns:xlink="http://www.w3.org/1999/xlink" xml:space="preserve" overflow="hidden"><defs><clipPath id="clip0"><rect x="1483" y="1628" width="1657" height="1005"/></clipPath><clipPath id="clip1"><rect x="1484" y="1629" width="1654" height="1002"/></clipPath><clipPath id="clip2"><rect x="1484" y="1629" width="1654" height="1002"/></clipPath><clipPath id="clip3"><rect x="1660" y="1799" width="1431" height="581"/></clipPath><clipPath id="clip4"><rect x="1660" y="1799" width="1431" height="581"/></clipPath><clipPath id="clip5"><rect x="1660" y="1799" width="1431" height="581"/></clipPath><clipPath id="clip6"><rect x="1660" y="1799" width="1431" height="581"/></clipPath><clipPath id="clip7"><rect x="1660" y="1799" width="1431" height="581"/></clipPath><clipPath id="clip8"><rect x="1660" y="1799" width="1431" height="578"/></clipPath><clipPath id="clip9"><rect x="1660" y="1799" width="1431" height="578"/></clipPath><clipPath id="clip10"><rect x="1660" y="1799" width="1431" height="578"/></clipPath><clipPath id="clip11"><rect x="1660" y="1799" width="1431" height="578"/></clipPath><clipPath id="clip12"><rect x="1660" y="1799" width="1431" height="578"/></clipPath><clipPath id="clip13"><rect x="1484" y="1629" width="1654" height="1002"/></clipPath><clipPath id="clip14"><rect x="1484" y="1629" width="1654" height="1002"/></clipPath><clipPath id="clip15"><rect x="1484" y="1629" width="1654" height="1002"/></clipPath><clipPath id="clip16"><rect x="1484" y="1629" width="1654" height="1002"/></clipPath><clipPath id="clip17"><rect x="1484" y="1629" width="1654" height="1002"/></clipPath><clipPath id="clip18"><rect x="1484" y="1629" width="1654" height="1002"/></clipPath><clipPath id="clip19"><rect x="1484" y="1629" width="1654" height="1002"/></clipPath><clipPath id="clip20"><rect x="1484" y="1629" width="1654" height="1002"/></clipPath><clipPath id="clip21"><rect x="1484" y="1629" width="1654" height="1002"/></clipPath><clipPath id="clip22"><rect x="1484" y="1629" width="1654" height="1002"/></clipPath><clipPath id="clip23"><rect x="1484" y="1629" width="1654" height="1002"/></clipPath><clipPath id="clip24"><rect x="1484" y="1629" width="1654" height="1002"/></clipPath><clipPath id="clip25"><rect x="1484" y="1629" width="1654" height="1002"/></clipPath><clipPath id="clip26"><rect x="1484" y="1629" width="1654" height="1002"/></clipPath><clipPath id="clip27"><rect x="1484" y="1629" width="1654" height="1002"/></clipPath><clipPath id="clip28"><rect x="1484" y="1629" width="1654" height="1002"/></clipPath><clipPath id="clip29"><rect x="1484" y="1629" width="1654" height="1002"/></clipPath><clipPath id="clip30"><rect x="1484" y="1629" width="1654" height="1002"/></clipPath></defs><g clip-path="url(#clip0)" transform="translate(-1483 -1628)"><rect x="1484" y="1629" width="1654" height="1002" fill="#FFFFFF"/><g clip-path="url(#clip1)"><path d="M1660.5 2088.57 3087.5 2088.57M1660.5 1799.5 3087.5 1799.5" stroke="#000000" stroke-width="9.16667" stroke-linejoin="round" stroke-miterlimit="10" fill="none"/></g><g clip-path="url(#clip2)"><rect x="1660.5" y="1799.5" width="1427" height="578" stroke="#000000" stroke-width="9.16667" stroke-linejoin="round" stroke-miterlimit="10" fill="none"/></g><g clip-path="url(#clip3)"><rect x="1758" y="2088" width="90.0001" height="289" stroke="#000000" stroke-width="13.75" stroke-linejoin="round" stroke-miterlimit="10" fill="none"/></g><g clip-path="url(#clip4)"><rect x="2044" y="2042" width="89.0001" height="335" stroke="#FF0000" stroke-width="13.75" stroke-linejoin="round" stroke-miterlimit="10" fill="none"/></g><g clip-path="url(#clip5)"><rect x="2329" y="1984" width="90" height="393" stroke="#FF0000" stroke-width="13.75" stroke-linejoin="round" stroke-miterlimit="10" fill="none"/></g><g clip-path="url(#clip6)"><rect x="2615" y="2016" width="89" height="361" stroke="#0070C0" stroke-width="13.75" stroke-linejoin="round" stroke-miterlimit="10" fill="none"/></g><g clip-path="url(#clip7)"><rect x="2900" y="2161" width="90" height="216" stroke="#0070C0" stroke-width="13.75" stroke-linejoin="round" stroke-miterlimit="10" fill="none"/></g><g clip-path="url(#clip8)"><path d="M1793 2088 1813 2088M1793 2088 1813 2088" stroke="#000000" stroke-width="8.02083" stroke-linejoin="round" stroke-miterlimit="10" fill="none"/></g><g clip-path="url(#clip9)"><path d="M2088.07 2042.07 2088.07 2100M2088.07 2042.07 2088.07 1984M2078 2100 2099 2100M2078 1984 2099 1984" stroke="#000000" stroke-width="8.02083" stroke-linejoin="round" stroke-miterlimit="10" fill="none"/></g><g clip-path="url(#clip10)"><path d="M2374.08 1984.07 2374.08 2100M2374.08 1984.07 2374.08 1869M2364 2100 2384 2100M2364 1869 2384 1869" stroke="#000000" stroke-width="8.02083" stroke-linejoin="round" stroke-miterlimit="10" fill="none"/></g><g clip-path="url(#clip11)"><path d="M2659.09 2016.07 2659.09 2074M2659.09 2016.07 2659.09 1958M2649 2074 2670 2074M2649 1958 2670 1958" stroke="#000000" stroke-width="8.02083" stroke-linejoin="round" stroke-miterlimit="10" fill="none"/></g><g clip-path="url(#clip12)"><path d="M2945.1 2161.07 2945.1 2218M2945.1 2161.07 2945.1 2103M2935 2218 2955 2218M2935 2103 2955 2103" stroke="#000000" stroke-width="8.02083" stroke-linejoin="round" stroke-miterlimit="10" fill="none"/></g><g clip-path="url(#clip13)"><path d="M1660 2377 3088 2377" stroke="#000000" stroke-width="8.02083" stroke-linejoin="round" stroke-miterlimit="10" fill="none" fill-rule="evenodd"/></g><g clip-path="url(#clip14)"><text font-family="Calibri,Calibri_MSFontService,sans-serif" font-weight="400" font-size="41" transform="matrix(1 0 0 1 1737.64 2443)">effect A</text></g><g clip-path="url(#clip15)"><text font-family="Calibri,Calibri_MSFontService,sans-serif" font-weight="400" font-size="41" transform="matrix(1 0 0 1 1964.17 2443)">non-significant</text></g><g clip-path="url(#clip16)"><text font-family="Calibri,Calibri_MSFontService,sans-serif" font-weight="400" font-size="41" transform="matrix(1 0 0 1 2002.77 2493)">difference</text></g><g clip-path="url(#clip17)"><text font-family="Calibri,Calibri_MSFontService,sans-serif" font-weight="400" font-size="41" transform="matrix(1 0 0 1 2249.66 2443)">non-significant</text></g><g clip-path="url(#clip18)"><text font-family="Calibri,Calibri_MSFontService,sans-serif" font-weight="400" font-size="41" transform="matrix(1 0 0 1 2288.27 2493)">difference</text></g><g clip-path="url(#clip19)"><text font-family="Calibri,Calibri_MSFontService,sans-serif" font-weight="400" font-size="41" transform="matrix(1 0 0 1 2574.02 2443)">significant</text></g><g clip-path="url(#clip20)"><text font-family="Calibri,Calibri_MSFontService,sans-serif" font-weight="400" font-size="41" transform="matrix(1 0 0 1 2573.76 2493)">difference</text></g><g clip-path="url(#clip21)"><text font-family="Calibri,Calibri_MSFontService,sans-serif" font-weight="400" font-size="41" transform="matrix(1 0 0 1 2859.52 2443)">significant</text></g><g clip-path="url(#clip22)"><text font-family="Calibri,Calibri_MSFontService,sans-serif" font-weight="400" font-size="41" transform="matrix(1 0 0 1 2859.25 2493)">difference</text></g><g clip-path="url(#clip23)"><text font-family="Calibri,Calibri_MSFontService,sans-serif" font-weight="400" font-size="46" transform="matrix(6.12323e-17 -1 1 6.12323e-17 1585.49 2182)">effect size</text></g><g clip-path="url(#clip24)"><text font-family="Calibri,Calibri_MSFontService,sans-serif" font-weight="400" font-size="46" transform="matrix(6.12323e-17 -1 1 6.12323e-17 1641.49 2200)">with 95%</text></g><g clip-path="url(#clip25)"><text font-family="Calibri,Calibri_MSFontService,sans-serif" font-weight="400" font-size="46" transform="matrix(6.12323e-17 -1 1 6.12323e-17 1641.49 2027)">-</text></g><g clip-path="url(#clip26)"><text font-family="Calibri,Calibri_MSFontService,sans-serif" font-weight="400" font-size="46" transform="matrix(6.12323e-17 -1 1 6.12323e-17 1641.49 2013)">CI</text></g><g clip-path="url(#clip27)"><text font-family="Calibri,Calibri_MSFontService,sans-serif" font-weight="700" font-size="46" transform="matrix(1 0 0 1 1816.54 2562)">comparisons with effect A at the </text></g><g clip-path="url(#clip28)"><text font-family="Calibri,Calibri_MSFontService,sans-serif" font-weight="700" font-size="46" transform="matrix(1 0 0 1 2446.27 2562)">α = 0.05 </text></g><g clip-path="url(#clip29)"><text font-family="Calibri,Calibri_MSFontService,sans-serif" font-weight="700" font-size="46" transform="matrix(1 0 0 1 2609.2 2562)">significance level</text></g><g clip-path="url(#clip30)"><text font-family="Calibri,Calibri_MSFontService,sans-serif" font-weight="700" font-size="64" transform="matrix(1 0 0 1 1941.39 1725)">the 95% confidence interval</text></g><rect x="1484.5" y="1629.5" width="1654" height="1002" stroke="#D9D9D9" stroke-width="3.4375" stroke-linejoin="round" stroke-miterlimit="10" fill="none"/></g></svg>