<?xml version="1.0" encoding="UTF-8" standalone="no"?>
<!-- Created with Inkscape (http://www.inkscape.org/) -->

<svg
   xmlns:dc="http://purl.org/dc/elements/1.1/"
   xmlns:cc="http://creativecommons.org/ns#"
   xmlns:rdf="http://www.w3.org/1999/02/22-rdf-syntax-ns#"
   xmlns:svg="http://www.w3.org/2000/svg"
   xmlns="http://www.w3.org/2000/svg"
   xmlns:xlink="http://www.w3.org/1999/xlink"
   xmlns:sodipodi="http://sodipodi.sourceforge.net/DTD/sodipodi-0.dtd"
   xmlns:inkscape="http://www.inkscape.org/namespaces/inkscape"
   width="113.7052mm"
   height="81.303467mm"
   viewBox="0 0 402.89244 288.08316"
   id="svg2"
   version="1.1"
   inkscape:version="0.91 r13725"
   sodipodi:docname="Mittelwertsatz3.svg">
  <sodipodi:namedview
     id="base"
     pagecolor="#ffffff"
     bordercolor="#666666"
     borderopacity="1.0"
     inkscape:pageopacity="0.0"
     inkscape:pageshadow="2"
     inkscape:zoom="1"
     inkscape:cx="14.447861"
     inkscape:cy="14.818046"
     inkscape:document-units="px"
     inkscape:current-layer="layer1"
     showgrid="false"
     fit-margin-top="5"
     fit-margin-right="5"
     fit-margin-bottom="5"
     fit-margin-left="5"
     inkscape:window-width="1920"
     inkscape:window-height="1030"
     inkscape:window-x="0"
     inkscape:window-y="0"
     inkscape:window-maximized="1" />
  <defs
     id="defs4">
    <linearGradient
       inkscape:collect="always"
       id="linearGradient4379">
      <stop
         style="stop-color:#000080;stop-opacity:1;"
         offset="0"
         id="stop4381" />
      <stop
         style="stop-color:#000080;stop-opacity:0;"
         offset="1"
         id="stop4383" />
    </linearGradient>
    <marker
       inkscape:stockid="Arrow1Mend"
       orient="auto"
       refY="0"
       refX="0"
       id="marker4309"
       style="overflow:visible"
       inkscape:isstock="true">
      <path
         inkscape:connector-curvature="0"
         id="path4311"
         d="M 0,0 5,-5 -12.5,0 5,5 0,0 Z"
         style="fill:#000080;fill-opacity:1;fill-rule:evenodd;stroke:#000080;stroke-width:1pt;stroke-opacity:1"
         transform="matrix(-0.4,0,0,-0.4,-4,0)" />
    </marker>
    <marker
       inkscape:isstock="true"
       style="overflow:visible"
       id="marker4479"
       refX="0"
       refY="0"
       orient="auto"
       inkscape:stockid="Arrow1Mend">
      <path
         transform="matrix(-0.4,0,0,-0.4,-4,0)"
         style="fill:#000080;fill-opacity:1;fill-rule:evenodd;stroke:#000080;stroke-width:1pt;stroke-opacity:1"
         d="M 0,0 5,-5 -12.5,0 5,5 0,0 Z"
         id="path4481"
         inkscape:connector-curvature="0" />
    </marker>
    <linearGradient
       inkscape:collect="always"
       xlink:href="#linearGradient4379"
       id="linearGradient4385"
       x1="23.281637"
       y1="3.3627977"
       x2="358.68277"
       y2="1.1801438"
       gradientUnits="userSpaceOnUse"
       gradientTransform="matrix(-0.38340947,-0.33636459,2.1049464,-0.06126776,235.72496,33.776813)" />
  </defs>
  <metadata
     id="metadata7">
    <rdf:RDF>
      <cc:Work
         rdf:about="">
        <dc:format>image/svg+xml</dc:format>
        <dc:type
           rdf:resource="http://purl.org/dc/dcmitype/StillImage" />
        <dc:title></dc:title>
      </cc:Work>
    </rdf:RDF>
  </metadata>
  <g
     inkscape:label="f(a) and f(b)"
     inkscape:groupmode="layer"
     id="layer1"
     transform="translate(-87.46979,-291.08845)">
    <circle
       style="fill:#000000;fill-opacity:1;stroke:none;stroke-width:1;stroke-linecap:round;stroke-miterlimit:4;stroke-dasharray:none;stroke-opacity:1"
       id="path3346-0"
       cx="457.75336"
       cy="376.11151"
       r="3.8125" />
    <circle
       style="fill:#000000;fill-opacity:1;stroke:none;stroke-width:1;stroke-linecap:round;stroke-miterlimit:4;stroke-dasharray:none;stroke-opacity:1"
       id="path3346"
       inkscape:transform-center-x="0.72755128"
       inkscape:transform-center-y="-10.913269"
       r="4.4445438"
       cy="536.17279"
       cx="130.56978" />
    <g
       id="g6172"
       transform="translate(-259.24352,399.75606)"
       style="stroke-width:0.2;stroke-miterlimit:4;stroke-dasharray:none">
      <g
         id="content"
         transform="matrix(0.36583905,0,0,-0.36583905,-64.021834,283.62461)"
         xml:space="preserve"
         stroke-miterlimit="10.433"
         font-style="normal"
         font-variant="normal"
         font-weight="normal"
         font-stretch="normal"
         font-size-adjust="none"
         letter-spacing="normal"
         word-spacing="normal"
         style="font-style:normal;font-variant:normal;font-weight:normal;font-stretch:normal;letter-spacing:normal;word-spacing:normal;text-anchor:start;fill:none;fill-opacity:1;fill-rule:evenodd;stroke:#000000;stroke-width:0.5466885;stroke-linecap:butt;stroke-linejoin:miter;stroke-miterlimit:4;stroke-dasharray:none;stroke-dashoffset:0;stroke-opacity:1"><path
           d="m 1211.3,365.93 4.3,0 c 1,0 1.5,0 1.5,0.99 0,0.55 -0.5,0.55 -1.4,0.55 l -4.1,0 1,5.68 c 0.2,1.05 0.9,4.58 1.2,5.18 0.5,0.94 1.3,1.69 2.4,1.69 0.2,0 1.5,0 2.4,-0.9 -2.2,-0.19 -2.7,-1.94 -2.7,-2.68 0,-1.15 0.9,-1.75 1.9,-1.75 1.3,0 2.7,1.1 2.7,2.99 0,2.29 -2.3,3.44 -4.3,3.44 -1.7,0 -4.9,-0.9 -6.4,-5.83 -0.3,-1.05 -0.4,-1.54 -1.6,-7.82 l -3.4,0 c -1,0 -1.5,0 -1.5,-0.95 0,-0.59 0.4,-0.59 1.4,-0.59 l 3.2,0 -3.7,-19.68 c -0.9,-4.83 -1.7,-9.37 -4.3,-9.37 -0.2,0 -1.5,0 -2.4,0.9 2.3,0.15 2.7,1.94 2.7,2.69 0,1.15 -0.9,1.74 -1.8,1.74 -1.3,0 -2.8,-1.09 -2.8,-2.98 0,-2.25 2.2,-3.44 4.3,-3.44 2.7,0 4.7,2.94 5.6,4.83 1.6,3.14 2.7,9.17 2.8,9.51 z"
           id="path6175"
           inkscape:connector-curvature="0"
           style="fill:#000000;stroke-width:0.5466885;stroke-miterlimit:4;stroke-dasharray:none" /><path
           d="m 1238.5,334.04 0,0.03 0,0.03 0,0.01 0,0.02 0,0.01 0,0.02 0,0.02 0,0.01 0,0.02 -0.1,0.02 0,0.03 0,0.02 0,0.02 0,0.03 0,0.03 -0.1,0.03 0,0.03 0,0.04 0,0.02 -0.1,0.02 0,0.02 0,0.02 0,0.02 0,0.03 0,0.02 -0.1,0.02 0,0.03 0,0.02 0,0.03 -0.1,0.03 0,0.03 0,0.03 0,0.03 -0.1,0.03 0,0.03 0,0.03 -0.1,0.04 0,0.03 0,0.04 -0.1,0.03 0,0.04 -0.1,0.04 c -6.2,6.28 -7.8,15.69 -7.8,23.31 0,8.67 1.9,17.34 8,23.57 0.7,0.59 0.7,0.69 0.7,0.84 0,0.35 -0.2,0.5 -0.5,0.5 -0.5,0 -5,-3.39 -7.9,-9.72 -2.6,-5.47 -3.2,-11 -3.2,-15.19 0,-3.88 0.6,-9.91 3.3,-15.54 3,-6.12 7.3,-9.36 7.8,-9.36 0.3,0 0.5,0.15 0.5,0.49 z"
           id="path6177"
           inkscape:connector-curvature="0"
           style="fill:#000000;stroke-width:0.5466885;stroke-miterlimit:4;stroke-dasharray:none" /><path
           d="m 1260.6,364.83 -0.1,0.17 -0.1,0.17 -0.1,0.16 -0.1,0.16 -0.1,0.16 -0.1,0.16 -0.1,0.15 -0.1,0.14 -0.1,0.15 -0.1,0.13 -0.2,0.14 -0.1,0.13 -0.1,0.12 -0.1,0.12 -0.2,0.11 -0.1,0.11 -0.2,0.11 -0.1,0.09 -0.1,0.1 -0.2,0.08 -0.2,0.08 -0.1,0.08 -0.2,0.07 -0.2,0.06 -0.1,0.05 -0.2,0.05 -0.2,0.04 -0.2,0.03 -0.2,0.03 -0.2,0.02 -0.2,0.01 -0.2,0.01 0.1,-1.1 c 3.2,0 3.9,-4.08 3.9,-4.38 0,-0.3 -0.1,-0.6 -0.2,-0.85 l -2.5,-9.76 c -0.2,-0.9 -0.2,-1 -1,-1.84 -2.1,-2.75 -4.2,-3.54 -5.6,-3.54 -2.5,0 -3.2,2.74 -3.2,4.68 0,2.49 1.6,8.62 2.8,10.91 1.5,2.94 3.8,4.78 5.8,4.78 l -0.1,1.1 c -5.8,0 -12,-7.32 -12,-14.6 0,-4.68 2.7,-7.97 6.6,-7.97 1,0 3.5,0.2 6.5,3.74 0.4,-2.09 2.1,-3.74 4.5,-3.74 1.8,0 2.9,1.15 3.7,2.74 0.9,1.79 1.5,4.83 1.5,4.93 0,0.5 -0.4,0.5 -0.6,0.5 -0.5,0 -0.5,-0.2 -0.7,-0.89 -0.8,-3.24 -1.7,-6.18 -3.8,-6.18 -1.3,0 -1.5,1.29 -1.5,2.29 0,1.09 0.1,1.49 0.7,3.69 0.5,2.09 0.6,2.59 1.1,4.48 l 1.8,6.97 c 0.3,1.4 0.3,1.5 0.3,1.7 0,0.84 -0.6,1.34 -1.4,1.34 -1.2,0 -2,-1.09 -2.1,-2.19 z"
           id="path6179"
           inkscape:connector-curvature="0"
           style="fill:#000000;stroke-width:0.5466885;stroke-miterlimit:4;stroke-dasharray:none" /><path
           d="m 1282.4,358.45 0,0.37 0,0.39 0,0.39 0,0.41 -0.1,0.84 0,0.88 -0.1,0.92 -0.1,0.94 -0.2,0.98 -0.1,1 -0.2,1.02 -0.2,1.04 -0.3,1.05 -0.3,1.06 -0.4,1.06 -0.4,1.07 -0.2,0.53 -0.2,0.54 -0.2,0.53 -0.3,0.53 c -3,6.12 -7.3,9.36 -7.8,9.36 -0.3,0 -0.5,-0.2 -0.5,-0.5 0,-0.15 0,-0.25 1,-1.15 4.9,-4.92 7.7,-12.85 7.7,-23.26 0,-8.52 -1.8,-17.28 -8,-23.56 -0.7,-0.6 -0.7,-0.69 -0.7,-0.85 0,-0.29 0.2,-0.49 0.5,-0.49 0.5,0 5,3.38 8,9.71 2.5,5.48 3.1,11.01 3.1,15.19 z"
           id="path6181"
           inkscape:connector-curvature="0"
           style="fill:#000000;stroke-width:0.5466885;stroke-miterlimit:4;stroke-dasharray:none" /></g>    </g>
    <g
       id="g6285"
       transform="translate(68.147196,240.57623)"
       style="stroke-width:0.2;stroke-miterlimit:4;stroke-dasharray:none">
      <g
         word-spacing="normal"
         letter-spacing="normal"
         font-size-adjust="none"
         font-stretch="normal"
         font-weight="normal"
         font-variant="normal"
         font-style="normal"
         stroke-miterlimit="10.433"
         xml:space="preserve"
         transform="matrix(0.36583905,0,0,-0.36583905,-64.021834,283.62461)"
         id="g6287"
         style="font-style:normal;font-variant:normal;font-weight:normal;font-stretch:normal;letter-spacing:normal;word-spacing:normal;text-anchor:start;fill:none;fill-opacity:1;fill-rule:evenodd;stroke:#000000;stroke-width:0.5466885;stroke-linecap:butt;stroke-linejoin:miter;stroke-miterlimit:4;stroke-dasharray:none;stroke-dashoffset:0;stroke-opacity:1"><path
           id="path6289"
           d="m 1213.3,365.93 4.3,0 c 1,0 1.5,0 1.5,0.99 0,0.55 -0.5,0.55 -1.4,0.55 l -4.1,0 1,5.68 c 0.2,1.05 0.9,4.58 1.2,5.18 0.5,0.94 1.3,1.69 2.4,1.69 0.2,0 1.5,0 2.4,-0.9 -2.2,-0.19 -2.7,-1.94 -2.7,-2.68 0,-1.15 0.9,-1.75 1.9,-1.75 1.3,0 2.7,1.1 2.7,2.99 0,2.29 -2.3,3.44 -4.3,3.44 -1.7,0 -4.9,-0.9 -6.4,-5.83 -0.3,-1.05 -0.4,-1.54 -1.6,-7.82 l -3.4,0 c -1,0 -1.5,0 -1.5,-0.95 0,-0.59 0.4,-0.59 1.4,-0.59 l 3.2,0 -3.7,-19.68 c -0.9,-4.83 -1.7,-9.37 -4.3,-9.37 -0.2,0 -1.5,0 -2.4,0.9 2.3,0.15 2.7,1.94 2.7,2.69 0,1.15 -0.9,1.74 -1.8,1.74 -1.3,0 -2.8,-1.09 -2.8,-2.98 0,-2.25 2.2,-3.44 4.3,-3.44 2.7,0 4.7,2.94 5.6,4.83 1.6,3.14 2.7,9.17 2.8,9.51 z"
           inkscape:connector-curvature="0"
           style="fill:#000000;stroke-width:0.5466885;stroke-miterlimit:4;stroke-dasharray:none" /><path
           id="path6291"
           d="m 1241.5,334.04 0,0.03 0,0.03 0,0.01 0,0.02 0,0.01 0,0.02 0,0.02 0,0.01 0,0.02 -0.1,0.02 0,0.03 0,0.02 0,0.02 0,0.03 0,0.03 -0.1,0.03 0,0.03 0,0.04 0,0.02 -0.1,0.02 0,0.02 0,0.02 0,0.02 0,0.03 0,0.02 -0.1,0.02 0,0.03 0,0.02 0,0.03 -0.1,0.03 0,0.03 0,0.03 0,0.03 -0.1,0.03 0,0.03 0,0.03 -0.1,0.04 0,0.03 0,0.04 -0.1,0.03 0,0.04 -0.1,0.04 c -6.2,6.28 -7.8,15.69 -7.8,23.31 0,8.67 1.9,17.34 8,23.57 0.7,0.59 0.7,0.69 0.7,0.84 0,0.35 -0.2,0.5 -0.5,0.5 -0.5,0 -5,-3.39 -7.9,-9.72 -2.6,-5.47 -3.2,-11 -3.2,-15.19 0,-3.88 0.6,-9.91 3.3,-15.54 3,-6.12 7.3,-9.36 7.8,-9.36 0.3,0 0.5,0.15 0.5,0.49 z"
           inkscape:connector-curvature="0"
           style="fill:#000000;stroke-width:0.5466885;stroke-miterlimit:4;stroke-dasharray:none" /><path
           id="path6293"
           d="m 1255.9,380.02 0,0.01 0,0 0,0.01 0,0.01 0,0.01 0,0.01 0,0.02 0,0.02 0,0.02 0,0.02 0,0.02 0,0.02 0,0.03 0,0.02 0,0.03 -0.1,0.02 0,0.02 0,0.03 0,0.02 0,0.03 0,0.02 -0.1,0.01 0,0.01 0,0.01 0,0.01 0,0.01 0,0.01 0,0.01 -0.1,0.01 0,0.01 0,0.01 0,0.01 0,0 -0.1,0.01 0,0.01 0,0 0,0.01 0,0 -0.1,0.01 0,0 0,0 -0.1,0.01 0,0 0,0 0,0 c -1.2,0 -4.8,-0.4 -6.1,-0.5 -0.4,-0.05 -1,-0.1 -1,-1 0,-0.59 0.5,-0.59 1.2,-0.59 2.4,0 2.5,-0.35 2.5,-0.85 0,-0.35 -0.4,-2.04 -0.7,-3.09 l -4.1,-16.24 c -0.6,-2.49 -0.8,-3.28 -0.8,-5.03 0,-4.73 2.7,-7.82 6.4,-7.82 l 0,1.1 c -1.7,0 -3.4,1.34 -3.4,5.03 0,0.95 0,1.89 0.8,5.03 l 1.1,4.58 c 0.3,1.1 0.3,1.2 0.8,1.75 2.4,3.24 4.7,3.98 5.9,3.98 1.8,0 3.2,-1.49 3.2,-4.68 0,-2.94 -1.7,-8.67 -2.5,-10.56 -1.7,-3.34 -4,-5.13 -5.9,-5.13 l 0,-1.1 c 5.9,0 12,7.43 12,14.6 0,4.53 -2.7,7.97 -6.6,7.97 -2.3,0 -4.4,-1.45 -5.9,-2.99 z"
           inkscape:connector-curvature="0"
           style="fill:#000000;stroke-width:0.5466885;stroke-miterlimit:4;stroke-dasharray:none" /><path
           id="path6295"
           d="m 1280.4,358.45 0,0.37 0,0.39 0,0.39 0,0.41 -0.1,0.84 0,0.88 -0.1,0.92 -0.1,0.94 -0.2,0.98 -0.1,1 -0.2,1.02 -0.2,1.04 -0.3,1.05 -0.3,1.06 -0.4,1.06 -0.4,1.07 -0.2,0.53 -0.2,0.54 -0.2,0.53 -0.3,0.53 c -3,6.12 -7.3,9.36 -7.8,9.36 -0.3,0 -0.5,-0.2 -0.5,-0.5 0,-0.15 0,-0.25 1,-1.15 4.9,-4.92 7.7,-12.85 7.7,-23.26 0,-8.52 -1.8,-17.28 -8,-23.56 -0.7,-0.6 -0.7,-0.69 -0.7,-0.85 0,-0.29 0.2,-0.49 0.5,-0.49 0.5,0 5,3.38 8,9.71 2.5,5.48 3.1,11.01 3.1,15.19 z"
           inkscape:connector-curvature="0"
           style="fill:#000000;stroke-width:0.5466885;stroke-miterlimit:4;stroke-dasharray:none" /></g>    </g>
  </g>
  <g
     inkscape:groupmode="layer"
     id="layer2"
     inkscape:label="Graph of function"
     style="display:inline"
     transform="translate(15.971722,74.894446)">
    <path
       style="display:inline;fill:none;fill-rule:evenodd;stroke:#000000;stroke-width:2;stroke-linecap:butt;stroke-linejoin:miter;stroke-miterlimit:4;stroke-dasharray:none;stroke-opacity:1"
       d="M 26.266566,171.32295 C 60.819292,123.68837 65.763764,107.48848 128.49996,41.012914 166.00214,1.2754386 264.58112,-84.01875 354.32334,9.7372369"
       id="path3336"
       inkscape:connector-curvature="0"
       sodipodi:nodetypes="csc" />
  </g>
  <g
     inkscape:groupmode="layer"
     id="layer3"
     inkscape:label="Max und Min"
     style="display:inline"
     transform="translate(15.971722,74.894446)">
    <path
       style="fill:url(#linearGradient4385);fill-opacity:1;fill-rule:evenodd;stroke:#000080;stroke-width:0.8552894px;stroke-linecap:butt;stroke-linejoin:miter;stroke-opacity:1;marker-end:url(#marker4309)"
       d="m 166.72454,-30.20235 29.17766,10.063596"
       id="path4301"
       inkscape:connector-curvature="0"
       sodipodi:nodetypes="cc" />
    <path
       inkscape:connector-curvature="0"
       id="path4783"
       d="M 26.943233,170.63377 355.02118,9.2490169"
       style="display:inline;fill:none;fill-rule:evenodd;stroke:#000000;stroke-width:2;stroke-linecap:butt;stroke-linejoin:miter;stroke-miterlimit:4;stroke-dasharray:2, 2;stroke-dashoffset:0;stroke-opacity:1" />
    <path
       style="display:inline;fill:#c87137;fill-rule:evenodd;stroke:#000000;stroke-width:2;stroke-linecap:butt;stroke-linejoin:miter;stroke-miterlimit:4;stroke-dasharray:2, 2;stroke-dashoffset:0;stroke-opacity:1"
       d="M 2.1826289,81.193221 284.47257,-56.278853"
       id="path4826"
       inkscape:connector-curvature="0" />
    <circle
       style="display:inline;fill:#000080;fill-opacity:1;stroke:none;stroke-width:1;stroke-linecap:round;stroke-miterlimit:4;stroke-dasharray:none;stroke-opacity:1"
       id="path3346-6"
       r="3.75"
       cy="-17.008638"
       cx="203.71436" />
    <g
       id="g5279"
       transform="translate(-307.00566,-190.96674)"
       style="stroke-width:0.2;stroke-miterlimit:10.43299961;stroke-dasharray:none">
      <g
         word-spacing="normal"
         letter-spacing="normal"
         font-size-adjust="none"
         font-stretch="normal"
         font-weight="normal"
         font-variant="normal"
         font-style="normal"
         stroke-miterlimit="10.433"
         xml:space="preserve"
         transform="matrix(0.36583905,0,0,-0.36583905,-64.021834,283.62461)"
         id="g5281"
         style="font-style:normal;font-variant:normal;font-weight:normal;font-stretch:normal;letter-spacing:normal;word-spacing:normal;text-anchor:start;fill:#000080;fill-opacity:1;fill-rule:evenodd;stroke:#000080;stroke-width:0.5466885;stroke-linecap:butt;stroke-linejoin:miter;stroke-miterlimit:10.43299961;stroke-dasharray:none;stroke-dashoffset:0;stroke-opacity:1"><path
           id="path5283"
           d="m 1043.3,349.93 4.3,0 c 1,0 1.5,0 1.5,0.99 0,0.55 -0.5,0.55 -1.4,0.55 l -4.1,0 1,5.68 c 0.2,1.05 0.9,4.58 1.2,5.18 0.5,0.94 1.3,1.69 2.4,1.69 0.2,0 1.5,0 2.4,-0.9 -2.2,-0.19 -2.7,-1.94 -2.7,-2.68 0,-1.15 0.9,-1.75 1.9,-1.75 1.3,0 2.7,1.1 2.7,2.99 0,2.29 -2.3,3.44 -4.3,3.44 -1.7,0 -4.9,-0.9 -6.4,-5.83 -0.3,-1.05 -0.4,-1.54 -1.6,-7.82 l -3.4,0 c -1,0 -1.5,0 -1.5,-0.95 0,-0.59 0.4,-0.59 1.4,-0.59 l 3.2,0 -3.7,-19.68 c -0.9,-4.83 -1.7,-9.37 -4.3,-9.37 -0.2,0 -1.5,0 -2.4,0.9 2.3,0.15 2.7,1.94 2.7,2.69 0,1.15 -0.9,1.74 -1.8,1.74 -1.3,0 -2.8,-1.09 -2.8,-2.98 0,-2.25 2.2,-3.44 4.3,-3.44 2.7,0 4.7,2.94 5.6,4.83 1.6,3.14 2.7,9.17 2.8,9.51 z"
           inkscape:connector-curvature="0"
           style="fill:#000080;fill-opacity:1;stroke:#000080;stroke-width:0.5466885;stroke-miterlimit:10.43299961;stroke-dasharray:none;stroke-opacity:1" /><path
           id="path5285"
           d="m 1065.1,367.46 0,0.05 0.1,0.05 0,0.06 0,0.05 0,0.04 0,0.05 0.1,0.04 0,0.05 0,0.04 0,0.04 0,0.04 0,0.04 0,0.03 0.1,0.04 0,0.03 0,0.04 0,0.03 0,0.03 0,0.03 0,0.03 0,0.03 0,0.03 0,0.02 0,0.03 0,0.05 0,0.05 0,0.05 0,0.04 c 0,1.09 -1,1.92 -2,1.92 -1.4,0 -1.8,-1.08 -2,-1.64 l -4.6,-15.1 c 0,-0.07 -0.1,-0.52 -0.1,-0.55 0,-0.42 1.1,-0.77 1.3,-0.77 0.3,0 0.3,0.07 0.6,0.59 z"
           inkscape:connector-curvature="0"
           style="fill:#000080;fill-opacity:1;stroke:#000080;stroke-width:0.5466885;stroke-miterlimit:10.43299961;stroke-dasharray:none;stroke-opacity:1" /><path
           id="path5287"
           d="m 1085.5,318.04 0,0.03 0,0.03 0,0.01 0,0.02 0,0.01 0,0.02 0,0.02 0,0.01 0,0.02 -0.1,0.02 0,0.03 0,0.02 0,0.02 0,0.03 0,0.03 -0.1,0.03 0,0.03 0,0.04 0,0.02 -0.1,0.02 0,0.02 0,0.02 0,0.02 0,0.03 0,0.02 -0.1,0.02 0,0.03 0,0.02 0,0.03 -0.1,0.03 0,0.03 0,0.03 0,0.03 -0.1,0.03 0,0.03 0,0.03 -0.1,0.04 0,0.03 0,0.04 -0.1,0.03 0,0.04 -0.1,0.04 c -6.2,6.28 -7.8,15.69 -7.8,23.31 0,8.67 1.9,17.34 8,23.57 0.7,0.59 0.7,0.69 0.7,0.84 0,0.35 -0.2,0.5 -0.5,0.5 -0.5,0 -5,-3.39 -7.9,-9.72 -2.6,-5.47 -3.2,-11 -3.2,-15.19 0,-3.88 0.6,-9.91 3.3,-15.54 3,-6.12 7.3,-9.36 7.8,-9.36 0.3,0 0.5,0.15 0.5,0.49 z"
           inkscape:connector-curvature="0"
           style="fill:#000080;fill-opacity:1;stroke:#000080;stroke-width:0.5466885;stroke-miterlimit:10.43299961;stroke-dasharray:none;stroke-opacity:1" /><path
           id="path5289"
           d="m 1095.7,345.24 -0.5,-0.34 -0.5,-0.34 -0.4,-0.35 -0.5,-0.36 -0.4,-0.35 -0.3,-0.36 -0.4,-0.37 -0.3,-0.36 -0.4,-0.37 -0.3,-0.36 -0.2,-0.36 -0.3,-0.36 -0.2,-0.36 -0.2,-0.36 -0.2,-0.35 -0.2,-0.35 -0.2,-0.34 -0.2,-0.34 -0.1,-0.33 -0.1,-0.32 -0.1,-0.32 -0.1,-0.3 -0.1,-0.3 -0.1,-0.29 -0.1,-0.27 0,-0.26 -0.1,-0.25 0,-0.24 0,-0.22 0,-0.21 -0.1,-0.19 0,-0.18 c 0,-2.39 1.4,-3.79 1.5,-3.93 1.6,-1.65 2,-1.85 5.8,-3.24 l 6,-2.34 c 0.7,-0.35 1.7,-0.7 1.7,-2.15 0,-1.14 -0.9,-2.64 -2.4,-2.64 -2.2,0 -3.8,1.2 -4.4,1.6 -0.3,0.2 -0.3,0.25 -0.5,0.25 -0.4,0 -0.5,-0.35 -0.5,-0.55 0,-0.6 2.6,-2.39 5.4,-2.39 3.1,0 5.2,2.89 5.2,5.33 0,2.39 -1.9,3.29 -2.4,3.54 -0.7,0.24 -2.4,0.89 -3.1,1.14 -1,0.4 -1.9,0.8 -3,1.15 l -3,1.19 c -2.2,0.9 -3.7,2.34 -3.7,4.43 0,2.05 1.9,6.38 6.1,8.47 1.9,-0.65 3.4,-0.65 4.4,-0.65 l 0.1,1.1 c -1.1,0 -1.5,0 -2.4,0.4 l 0,0 5.6,0 c -0.4,-0.2 -0.9,-0.4 -3.2,-0.4 l -0.1,-1.1 c 1.5,0 4.6,0 4.6,1.55 0,1.24 -2.1,1.35 -4,1.35 -1,0 -2.4,0 -4.2,-0.6 -1.3,1.29 -1.5,2.93 -1.5,3.88 0,2.79 1.8,6.63 5.5,8.47 0.9,-1.09 2,-1.09 3.2,-1.09 l 0,1.09 c -0.9,0 -1.5,0 -2.1,0.45 l 0,0 c 0.8,0.25 1.9,0.25 2.4,0.25 1.7,0 1.9,-0.05 2.8,-0.3 -0.4,-0.15 -0.9,-0.4 -3.1,-0.4 l 0,-1.09 c 1.2,0 4.4,0 4.4,1.54 0,1.3 -2.2,1.35 -4.1,1.35 -0.7,0 -1.9,0 -3.2,-0.25 l 0,3.48 c 0,0.4 -0.2,0.65 -0.6,0.65 -0.9,0 -0.9,-2.29 -0.9,-2.44 0,-1 0.4,-1.74 0.4,-1.94 -5.3,-1.5 -8.7,-5.48 -8.7,-9.32 0,-1.84 0.9,-3.93 3.2,-5.28 z"
           inkscape:connector-curvature="0"
           style="fill:#000080;fill-opacity:1;stroke:#000080;stroke-width:0.5466885;stroke-miterlimit:10.43299961;stroke-dasharray:none;stroke-opacity:1" /><path
           id="path5291"
           d="m 1126.4,342.45 0,0.37 0,0.39 0,0.39 0,0.41 -0.1,0.84 0,0.88 -0.1,0.92 -0.1,0.94 -0.2,0.98 -0.1,1 -0.2,1.02 -0.2,1.04 -0.3,1.05 -0.3,1.06 -0.4,1.06 -0.4,1.07 -0.2,0.53 -0.2,0.54 -0.2,0.53 -0.3,0.53 c -3,6.12 -7.3,9.36 -7.8,9.36 -0.3,0 -0.5,-0.2 -0.5,-0.5 0,-0.15 0,-0.25 1,-1.15 4.9,-4.92 7.7,-12.85 7.7,-23.26 0,-8.52 -1.8,-17.28 -8,-23.56 -0.7,-0.6 -0.7,-0.69 -0.7,-0.85 0,-0.29 0.2,-0.49 0.5,-0.49 0.5,0 5,3.38 8,9.71 2.5,5.48 3.1,11.01 3.1,15.19 z"
           inkscape:connector-curvature="0"
           style="fill:#000080;fill-opacity:1;stroke:#000080;stroke-width:0.5466885;stroke-miterlimit:10.43299961;stroke-dasharray:none;stroke-opacity:1" /><path
           id="path5293"
           d="m 1179.2,346.29 0.2,0 0.1,0 0.2,0.01 0,0 0.1,0 0.1,0.01 0,0.01 0.1,0.01 0.1,0.01 0.1,0.02 0,0.01 0.1,0.02 0,0.02 0.1,0.03 0.1,0.03 0,0.03 0.1,0.03 0,0.04 0.1,0.04 0,0.05 0.1,0.05 0,0.03 0,0.02 0,0.03 0,0.03 0,0.03 0,0.04 0.1,0.03 0,0.04 0,0.03 0,0.04 0,0.04 0,0.04 0,0.04 0,0.04 0,0.05 0,0.05 c 0,0.99 -0.9,0.99 -1.6,0.99 l -29.9,0 c -0.7,0 -1.6,0 -1.6,-0.99 0,-1 0.9,-1 1.7,-1 z"
           inkscape:connector-curvature="0"
           style="fill:#000080;fill-opacity:1;stroke:#000080;stroke-width:0.5466885;stroke-miterlimit:10.43299961;stroke-dasharray:none;stroke-opacity:1" /><path
           id="path5295"
           d="m 1179.3,336.62 0.1,0.01 0.1,0 0.2,0 0.1,0.01 0,0 0.1,0.01 0.1,0.01 0,0.01 0.1,0.01 0.1,0.01 0,0.02 0.1,0.02 0.1,0.02 0,0.02 0.1,0.03 0,0.03 0.1,0.04 0,0.04 0.1,0.04 0,0.04 0,0.03 0.1,0.03 0,0.02 0,0.03 0,0.03 0,0.03 0,0.03 0,0.03 0.1,0.04 0,0.03 0,0.04 0,0.04 0,0.04 0,0.04 0,0.04 0,0.04 0,0.05 0,0.04 c 0,1 -0.9,1 -1.7,1 l -29.7,0 c -0.8,0 -1.7,0 -1.7,-1 0,-1 0.9,-1 1.6,-1 z"
           inkscape:connector-curvature="0"
           style="fill:#000080;fill-opacity:1;stroke:#000080;stroke-width:0.5466885;stroke-miterlimit:10.43299961;stroke-dasharray:none;stroke-opacity:1" /><path
           id="path5297"
           d="m 1222.3,383.93 4.3,0 c 1,0 1.5,0 1.5,0.99 0,0.55 -0.5,0.55 -1.4,0.55 l -4.1,0 1,5.68 c 0.2,1.05 0.9,4.58 1.2,5.18 0.5,0.94 1.3,1.69 2.4,1.69 0.2,0 1.5,0 2.4,-0.9 -2.2,-0.19 -2.7,-1.94 -2.7,-2.68 0,-1.15 0.9,-1.75 1.9,-1.75 1.3,0 2.7,1.1 2.7,2.99 0,2.29 -2.3,3.44 -4.3,3.44 -1.7,0 -4.9,-0.9 -6.4,-5.83 -0.3,-1.05 -0.4,-1.54 -1.6,-7.82 l -3.4,0 c -1,0 -1.5,0 -1.5,-0.95 0,-0.59 0.4,-0.59 1.4,-0.59 l 3.2,0 -3.7,-19.68 c -0.9,-4.83 -1.7,-9.37 -4.3,-9.37 -0.2,0 -1.5,0 -2.4,0.9 2.3,0.15 2.7,1.94 2.7,2.69 0,1.15 -0.9,1.74 -1.8,1.74 -1.3,0 -2.8,-1.09 -2.8,-2.98 0,-2.25 2.2,-3.44 4.3,-3.44 2.7,0 4.7,2.94 5.6,4.83 1.6,3.14 2.7,9.17 2.8,9.51 z"
           inkscape:connector-curvature="0"
           style="fill:#000080;fill-opacity:1;stroke:#000080;stroke-width:0.5466885;stroke-miterlimit:10.43299961;stroke-dasharray:none;stroke-opacity:1" /><path
           id="path5299"
           d="m 1250.5,352.04 0,0.03 0,0.03 0,0.01 0,0.02 0,0.01 0,0.02 0,0.02 0,0.01 0,0.02 -0.1,0.02 0,0.03 0,0.02 0,0.02 0,0.03 0,0.03 -0.1,0.03 0,0.03 0,0.04 0,0.02 -0.1,0.02 0,0.02 0,0.02 0,0.02 0,0.03 0,0.02 -0.1,0.02 0,0.03 0,0.02 0,0.03 -0.1,0.03 0,0.03 0,0.03 0,0.03 -0.1,0.03 0,0.03 0,0.03 -0.1,0.04 0,0.03 0,0.04 -0.1,0.03 0,0.04 -0.1,0.04 c -6.2,6.28 -7.8,15.69 -7.8,23.31 0,8.67 1.9,17.34 8,23.57 0.7,0.59 0.7,0.69 0.7,0.84 0,0.35 -0.2,0.5 -0.5,0.5 -0.5,0 -5,-3.39 -7.9,-9.72 -2.6,-5.47 -3.2,-11 -3.2,-15.19 0,-3.88 0.6,-9.91 3.3,-15.54 3,-6.12 7.3,-9.36 7.8,-9.36 0.3,0 0.5,0.15 0.5,0.49 z"
           inkscape:connector-curvature="0"
           style="fill:#000080;fill-opacity:1;stroke:#000080;stroke-width:0.5466885;stroke-miterlimit:10.43299961;stroke-dasharray:none;stroke-opacity:1" /><path
           id="path5301"
           d="m 1264.9,398.02 0,0.01 0,0 0,0.01 0,0.01 0,0.01 0,0.01 0,0.02 0,0.02 0,0.02 0,0.02 0,0.02 0,0.02 0,0.03 0,0.02 0,0.03 -0.1,0.02 0,0.02 0,0.03 0,0.02 0,0.03 0,0.02 -0.1,0.01 0,0.01 0,0.01 0,0.01 0,0.01 0,0.01 0,0.01 -0.1,0.01 0,0.01 0,0.01 0,0.01 0,0 -0.1,0.01 0,0.01 0,0 0,0.01 0,0 -0.1,0.01 0,0 0,0 -0.1,0.01 0,0 0,0 0,0 c -1.2,0 -4.8,-0.4 -6.1,-0.5 -0.4,-0.05 -1,-0.1 -1,-1 0,-0.59 0.5,-0.59 1.2,-0.59 2.4,0 2.5,-0.35 2.5,-0.85 0,-0.35 -0.4,-2.04 -0.7,-3.09 l -4.1,-16.24 c -0.6,-2.49 -0.8,-3.28 -0.8,-5.03 0,-4.73 2.7,-7.82 6.4,-7.82 l 0,1.1 c -1.7,0 -3.4,1.34 -3.4,5.03 0,0.95 0,1.89 0.8,5.03 l 1.1,4.58 c 0.3,1.1 0.3,1.2 0.8,1.75 2.4,3.24 4.7,3.98 5.9,3.98 1.8,0 3.2,-1.49 3.2,-4.68 0,-2.94 -1.7,-8.67 -2.5,-10.56 -1.7,-3.34 -4,-5.13 -5.9,-5.13 l 0,-1.1 c 5.9,0 12,7.43 12,14.6 0,4.53 -2.7,7.97 -6.6,7.97 -2.3,0 -4.4,-1.45 -5.9,-2.99 z"
           inkscape:connector-curvature="0"
           style="fill:#000080;fill-opacity:1;stroke:#000080;stroke-width:0.5466885;stroke-miterlimit:10.43299961;stroke-dasharray:none;stroke-opacity:1" /><path
           id="path5303"
           d="m 1288.4,376.45 0,0.37 0,0.39 0,0.39 0,0.41 -0.1,0.84 0,0.88 -0.1,0.92 -0.1,0.94 -0.2,0.98 -0.1,1 -0.2,1.02 -0.2,1.04 -0.3,1.05 -0.3,1.06 -0.4,1.06 -0.4,1.07 -0.2,0.53 -0.2,0.54 -0.2,0.53 -0.3,0.53 c -3,6.12 -7.3,9.36 -7.8,9.36 -0.3,0 -0.5,-0.2 -0.5,-0.5 0,-0.15 0,-0.25 1,-1.15 4.9,-4.92 7.7,-12.85 7.7,-23.26 0,-8.52 -1.8,-17.28 -8,-23.56 -0.7,-0.6 -0.7,-0.69 -0.7,-0.85 0,-0.29 0.2,-0.49 0.5,-0.49 0.5,0 5,3.38 8,9.71 2.5,5.48 3.1,11.01 3.1,15.19 z"
           inkscape:connector-curvature="0"
           style="fill:#000080;fill-opacity:1;stroke:#000080;stroke-width:0.5466885;stroke-miterlimit:10.43299961;stroke-dasharray:none;stroke-opacity:1" /><path
           id="path5305"
           d="m 1337.8,375.46 0.2,0 0.1,0 0.2,0 0.1,0.01 0.1,0 0,0.01 0.1,0.01 0.1,0.01 0,0.01 0.1,0.01 0.1,0.02 0.1,0.02 0,0.02 0.1,0.03 0,0.02 0.1,0.04 0,0.03 0.1,0.04 0,0.04 0.1,0.05 0,0.05 0,0.02 0.1,0.03 0,0.03 0,0.03 0,0.03 0,0.04 0,0.03 0,0.03 0,0.04 0,0.04 0.1,0.04 0,0.04 0,0.04 0,0.04 0,0.05 0,0.04 c 0,1 -0.9,1 -1.8,1 l -26.9,0 c -0.9,0 -1.8,0 -1.8,-1 0,-0.99 0.9,-0.99 1.8,-0.99 z"
           inkscape:connector-curvature="0"
           style="fill:#000080;fill-opacity:1;stroke:#000080;stroke-width:0.5466885;stroke-miterlimit:10.43299961;stroke-dasharray:none;stroke-opacity:1" /><path
           id="path5307"
           d="m 1373.3,383.93 4.3,0 c 1,0 1.5,0 1.5,0.99 0,0.55 -0.5,0.55 -1.4,0.55 l -4.1,0 1,5.68 c 0.2,1.05 0.9,4.58 1.2,5.18 0.5,0.94 1.3,1.69 2.4,1.69 0.2,0 1.5,0 2.4,-0.9 -2.2,-0.19 -2.7,-1.94 -2.7,-2.68 0,-1.15 0.9,-1.75 1.9,-1.75 1.3,0 2.7,1.1 2.7,2.99 0,2.29 -2.3,3.44 -4.3,3.44 -1.7,0 -4.9,-0.9 -6.4,-5.83 -0.3,-1.05 -0.4,-1.54 -1.6,-7.82 l -3.4,0 c -1,0 -1.5,0 -1.5,-0.95 0,-0.59 0.4,-0.59 1.4,-0.59 l 3.2,0 -3.7,-19.68 c -0.9,-4.83 -1.7,-9.37 -4.3,-9.37 -0.2,0 -1.5,0 -2.4,0.9 2.3,0.15 2.7,1.94 2.7,2.69 0,1.15 -0.9,1.74 -1.8,1.74 -1.3,0 -2.8,-1.09 -2.8,-2.98 0,-2.25 2.2,-3.44 4.3,-3.44 2.7,0 4.7,2.94 5.6,4.83 1.6,3.14 2.7,9.17 2.8,9.51 z"
           inkscape:connector-curvature="0"
           style="fill:#000080;fill-opacity:1;stroke:#000080;stroke-width:0.5466885;stroke-miterlimit:10.43299961;stroke-dasharray:none;stroke-opacity:1" /><path
           id="path5309"
           d="m 1400.5,352.04 0,0.03 0,0.03 0,0.01 0,0.02 0,0.01 0,0.02 0,0.02 0,0.01 0,0.02 -0.1,0.02 0,0.03 0,0.02 0,0.02 0,0.03 0,0.03 -0.1,0.03 0,0.03 0,0.04 0,0.02 -0.1,0.02 0,0.02 0,0.02 0,0.02 0,0.03 0,0.02 -0.1,0.02 0,0.03 0,0.02 0,0.03 -0.1,0.03 0,0.03 0,0.03 0,0.03 -0.1,0.03 0,0.03 0,0.03 -0.1,0.04 0,0.03 0,0.04 -0.1,0.03 0,0.04 -0.1,0.04 c -6.2,6.28 -7.8,15.69 -7.8,23.31 0,8.67 1.9,17.34 8,23.57 0.7,0.59 0.7,0.69 0.7,0.84 0,0.35 -0.2,0.5 -0.5,0.5 -0.5,0 -5,-3.39 -7.9,-9.72 -2.6,-5.47 -3.2,-11 -3.2,-15.19 0,-3.88 0.6,-9.91 3.3,-15.54 3,-6.12 7.3,-9.36 7.8,-9.36 0.3,0 0.5,0.15 0.5,0.49 z"
           inkscape:connector-curvature="0"
           style="fill:#000080;fill-opacity:1;stroke:#000080;stroke-width:0.5466885;stroke-miterlimit:10.43299961;stroke-dasharray:none;stroke-opacity:1" /><path
           id="path5311"
           d="m 1422.6,382.83 -0.1,0.17 -0.1,0.17 -0.1,0.16 -0.1,0.16 -0.1,0.16 -0.1,0.16 -0.1,0.15 -0.1,0.14 -0.1,0.15 -0.1,0.13 -0.2,0.14 -0.1,0.13 -0.1,0.12 -0.1,0.12 -0.2,0.11 -0.1,0.11 -0.2,0.11 -0.1,0.09 -0.1,0.1 -0.2,0.08 -0.2,0.08 -0.1,0.08 -0.2,0.07 -0.2,0.06 -0.1,0.05 -0.2,0.05 -0.2,0.04 -0.2,0.03 -0.2,0.03 -0.2,0.02 -0.2,0.01 -0.2,0.01 0.1,-1.1 c 3.2,0 3.9,-4.08 3.9,-4.38 0,-0.3 -0.1,-0.6 -0.2,-0.85 l -2.5,-9.76 c -0.2,-0.9 -0.2,-1 -1,-1.84 -2.1,-2.75 -4.2,-3.54 -5.6,-3.54 -2.5,0 -3.2,2.74 -3.2,4.68 0,2.49 1.6,8.62 2.8,10.91 1.5,2.94 3.8,4.78 5.8,4.78 l -0.1,1.1 c -5.8,0 -12,-7.32 -12,-14.6 0,-4.68 2.7,-7.97 6.6,-7.97 1,0 3.5,0.2 6.5,3.74 0.4,-2.09 2.1,-3.74 4.5,-3.74 1.8,0 2.9,1.15 3.7,2.74 0.9,1.79 1.5,4.83 1.5,4.93 0,0.5 -0.4,0.5 -0.6,0.5 -0.5,0 -0.5,-0.2 -0.7,-0.89 -0.8,-3.24 -1.7,-6.18 -3.8,-6.18 -1.3,0 -1.5,1.29 -1.5,2.29 0,1.09 0.1,1.49 0.7,3.69 0.5,2.09 0.6,2.59 1.1,4.48 l 1.8,6.97 c 0.3,1.4 0.3,1.5 0.3,1.7 0,0.84 -0.6,1.34 -1.4,1.34 -1.2,0 -2,-1.09 -2.1,-2.19 z"
           inkscape:connector-curvature="0"
           style="fill:#000080;fill-opacity:1;stroke:#000080;stroke-width:0.5466885;stroke-miterlimit:10.43299961;stroke-dasharray:none;stroke-opacity:1" /><path
           id="path5313"
           d="m 1444.4,376.45 0,0.37 0,0.39 0,0.39 0,0.41 -0.1,0.84 0,0.88 -0.1,0.92 -0.1,0.94 -0.2,0.98 -0.1,1 -0.2,1.02 -0.2,1.04 -0.3,1.05 -0.3,1.06 -0.4,1.06 -0.4,1.07 -0.2,0.53 -0.2,0.54 -0.2,0.53 -0.3,0.53 c -3,6.12 -7.3,9.36 -7.8,9.36 -0.3,0 -0.5,-0.2 -0.5,-0.5 0,-0.15 0,-0.25 1,-1.15 4.9,-4.92 7.7,-12.85 7.7,-23.26 0,-8.52 -1.8,-17.28 -8,-23.56 -0.7,-0.6 -0.7,-0.69 -0.7,-0.85 0,-0.29 0.2,-0.49 0.5,-0.49 0.5,0 5,3.38 8,9.71 2.5,5.48 3.1,11.01 3.1,15.19 z"
           inkscape:connector-curvature="0"
           style="fill:#000080;fill-opacity:1;stroke:#000080;stroke-width:0.5466885;stroke-miterlimit:10.43299961;stroke-dasharray:none;stroke-opacity:1" /><polyline
           id="polyline5315"
           points="1204,342 1449.6,342 1449.6,344.04 1204,344.04 "
           style="fill:#000080;fill-opacity:1;fill-rule:nonzero;stroke:#000080;stroke-width:0.5466885;stroke-miterlimit:10.43299961;stroke-dasharray:none;stroke-opacity:1" /><path
           id="path5317"
           d="m 1283.9,330.02 0,0.01 0,0 0,0.01 0,0.01 0,0.01 0,0.01 0,0.02 0,0.02 0,0.02 0,0.02 0,0.02 0,0.02 0,0.03 0,0.02 0,0.03 -0.1,0.02 0,0.02 0,0.03 0,0.02 0,0.03 0,0.02 -0.1,0.01 0,0.01 0,0.01 0,0.01 0,0.01 0,0.01 0,0.01 -0.1,0.01 0,0.01 0,0.01 0,0.01 0,0 -0.1,0.01 0,0.01 0,0 0,0.01 0,0 -0.1,0.01 0,0 0,0 -0.1,0.01 0,0 0,0 0,0 c -1.2,0 -4.8,-0.4 -6.1,-0.5 -0.4,-0.05 -1,-0.1 -1,-1 0,-0.59 0.5,-0.59 1.2,-0.59 2.4,0 2.5,-0.35 2.5,-0.85 0,-0.35 -0.4,-2.04 -0.7,-3.09 l -4.1,-16.24 c -0.6,-2.49 -0.8,-3.28 -0.8,-5.03 0,-4.73 2.7,-7.82 6.4,-7.82 l 0,1.1 c -1.7,0 -3.4,1.34 -3.4,5.03 0,0.95 0,1.89 0.8,5.03 l 1.1,4.58 c 0.3,1.1 0.3,1.2 0.8,1.75 2.4,3.24 4.7,3.98 5.9,3.98 1.8,0 3.2,-1.49 3.2,-4.68 0,-2.94 -1.7,-8.67 -2.5,-10.56 -1.7,-3.34 -4,-5.13 -5.9,-5.13 l 0,-1.1 c 5.9,0 12,7.43 12,14.6 0,4.53 -2.7,7.97 -6.6,7.97 -2.3,0 -4.4,-1.45 -5.9,-2.99 z"
           inkscape:connector-curvature="0"
           style="fill:#000080;fill-opacity:1;stroke:#000080;stroke-width:0.5466885;stroke-miterlimit:10.43299961;stroke-dasharray:none;stroke-opacity:1" /><path
           id="path5319"
           d="m 1337.8,307.46 0.2,0 0.1,0 0.2,0 0.1,0.01 0.1,0 0,0.01 0.1,0.01 0.1,0.01 0,0.01 0.1,0.01 0.1,0.02 0.1,0.02 0,0.02 0.1,0.03 0,0.02 0.1,0.04 0,0.03 0.1,0.04 0,0.04 0.1,0.05 0,0.05 0,0.02 0.1,0.03 0,0.03 0,0.03 0,0.03 0,0.04 0,0.03 0,0.03 0,0.04 0,0.04 0.1,0.04 0,0.04 0,0.04 0,0.04 0,0.05 0,0.04 c 0,1 -0.9,1 -1.8,1 l -26.9,0 c -0.9,0 -1.8,0 -1.8,-1 0,-0.99 0.9,-0.99 1.8,-0.99 z"
           inkscape:connector-curvature="0"
           style="fill:#000080;fill-opacity:1;stroke:#000080;stroke-width:0.5466885;stroke-miterlimit:10.43299961;stroke-dasharray:none;stroke-opacity:1" /><path
           id="path5321"
           d="m 1373.6,314.83 -0.1,0.17 -0.1,0.17 -0.1,0.16 -0.1,0.16 -0.1,0.16 -0.1,0.16 -0.1,0.15 -0.1,0.14 -0.1,0.15 -0.1,0.13 -0.2,0.14 -0.1,0.13 -0.1,0.12 -0.1,0.12 -0.2,0.11 -0.1,0.11 -0.2,0.11 -0.1,0.09 -0.1,0.1 -0.2,0.08 -0.2,0.08 -0.1,0.08 -0.2,0.07 -0.2,0.06 -0.1,0.05 -0.2,0.05 -0.2,0.04 -0.2,0.03 -0.2,0.03 -0.2,0.02 -0.2,0.01 -0.2,0.01 0.1,-1.1 c 3.2,0 3.9,-4.08 3.9,-4.38 0,-0.3 -0.1,-0.6 -0.2,-0.85 l -2.5,-9.76 c -0.2,-0.9 -0.2,-1 -1,-1.84 -2.1,-2.75 -4.2,-3.54 -5.6,-3.54 -2.5,0 -3.2,2.74 -3.2,4.68 0,2.49 1.6,8.62 2.8,10.91 1.5,2.94 3.8,4.78 5.8,4.78 l -0.1,1.1 c -5.8,0 -12,-7.32 -12,-14.6 0,-4.68 2.7,-7.97 6.6,-7.97 1,0 3.5,0.2 6.5,3.74 0.4,-2.09 2.1,-3.74 4.5,-3.74 1.8,0 2.9,1.15 3.7,2.74 0.9,1.79 1.5,4.83 1.5,4.93 0,0.5 -0.4,0.5 -0.6,0.5 -0.5,0 -0.5,-0.2 -0.7,-0.89 -0.8,-3.24 -1.7,-6.18 -3.8,-6.18 -1.3,0 -1.5,1.29 -1.5,2.29 0,1.09 0.1,1.49 0.7,3.69 0.5,2.09 0.6,2.59 1.1,4.48 l 1.8,6.97 c 0.3,1.4 0.3,1.5 0.3,1.7 0,0.84 -0.6,1.34 -1.4,1.34 -1.2,0 -2,-1.09 -2.1,-2.19 z"
           inkscape:connector-curvature="0"
           style="fill:#000080;fill-opacity:1;stroke:#000080;stroke-width:0.5466885;stroke-miterlimit:10.43299961;stroke-dasharray:none;stroke-opacity:1" /></g>    </g>
  </g>
</svg>
