<?xml version="1.0" encoding="UTF-8" standalone="no"?>
<svg id="catenary-pm"
   version="1.1"
   baseProfile="full"
   xmlns="http://www.w3.org/2000/svg"
   xmlns:xlink="http://www.w3.org/1999/xlink"
   xmlns:ev="http://www.w3.org/2001/xml-events"
   width="472"
   height="306">

  <title>Catenary.svg - three catenary lines</title>
  <desc>
     Catenary curves
     The catenary is the theoretical shape a hanging chain or cable will assume
     when supported at its ends and acted on only by its own weight.

     y = a * cosh(x / a)
       = a * (exp(x / a) + exp(-x / a)) / 2

     a = {0.5, 1, 2}

     y = {0.5 * cosh(x / 0.5), 1 * cosh(x / 1), 2 * cosh(x / 2)}

     from Wikimedia Commons
     plotted with cubic bezier-curves
     the bezier-controll-points are calculated to give a very accurate result.
     acuracy is 0.000001

     symbols in "Computer Modern" (TeX) font embedded
     created with a plain text editor using GNU/Linux

     about: http://commons.wikimedia.org/wiki/Image:Catenary-pm.svg
     source: http://commons.wikimedia.org/
     rights: GNU Free Documentation license,
             Creative Commons Attribution ShareAlike license
  </desc>

  <defs>
    <clipPath id="graph_region">
      <rect x="-4.5" y="0" width="9" height="6" />
    </clipPath>

    <line id="xgridline" x1="0" x2="0" y1="0" y2="-6"
       stroke="black" stroke-width="0.03" stroke-linecap="round"
       opacity="0.65" stroke-dasharray="0, 0.088889" stroke-dashoffset="0" />
    <line id="ygridline" x1="-4.75" x2="4.75" y1="0" y2="-0"
       stroke="black" stroke-width="0.03" stroke-linecap="round"
       opacity="0.65" stroke-dasharray="0, 0.088889" stroke-dashoffset="0.077778" />
    <line id="xtick" x1="0" x2="0" y1="0.125" y2="-0.125" stroke="black"
       stroke-width="0.022222" stroke-linecap="square" opacity="1" />
    <line id="ytick" x1="-0.125" x2="0.125" y1="0" y2="-0" stroke="black"
       stroke-width="0.022222" stroke-linecap="square" opacity="1" />

    <!-- now the used chars in "Computer Modern" font. They are implemented
         as plain paths, because that always works -->

    <!-- a: horiz-adv-x="500"-->
    <path id="a"
       d="M 57 0 m 435 145 c -4 -26 -11 -68 -14 -77 c -8 -30 -27 -43 -42 -43
          c -22 0 -29 22 -29 41 c 0 10 9 59 11 72 c 6 32 29 162 29 184
          c 0 76 -68 126 -152 126 c -101 0 -169 -65 -169 -121
          c 0 -17 10 -39 41 -39 c 29 0 52 24 52 52 c 0 26 -18 39 -42 40
          c 31 35 85 46 115 46 c 57 0 87 -47 87 -97 c 0 -10 -7 -64 -11 -67
          c -2 -1 -4 -1 -27 -2 c -165 -6 -284 -85 -284 -178
          c 0 -77 97 -93 145 -93 c 89 0 136 70 144 84 c 0 -69 43 -79 64 -79
          c 29 0 85 20 97 93 c 3 13 4 21 10 58 z M 517 145 m -166 5
          c -5 -30 -10 -61 -48 -98 c -24 -24 -59 -41 -94 -41
          c -43 0 -75 28 -75 69 c 0 1 0 150 232 160 z"/>
    <!-- .: horiz-adv-x="277.8"-->
    <path id="dot"
       d="M 192 378 m 0 -325 c 0 29 -24 53 -53 53 c -29 0 -53 -24 -53 -53
          c 0 -29 24 -53 53 -53 c 29 0 53 24 53 53 z"/>
    <!-- -: horiz-adv-x="700"-->
    <path id="minus"
       d="M 83 0 m 578 230 c 14 0 33 0 33 20 c 0 20 -19 20 -33 20 h -467.2
          c -14 0 -33 0 -33 -20 c 0 -20 19 -20 33 -20 z"/>
    <!-- =: horiz-adv-x="777.8"-->
    <path id="equal"
       d="M 56 0 m 631 327 c 15 0 34 0 34 20 c 0 20 -19 20 -33 20 h -599
          c -14 0 -33 0 -33 -20 c 0 -20 19 -20 34 -20 z M 90 327 m 598 -194
          c 14 0 33 0 33 20 c 0 20 -19 20 -34 20 h -597 c -15 0 -34 0 -34 -20
          c 0 -20 19 -20 33 -20 z"/>
    <!-- 0: horiz-adv-x="500"-->
    <path id="zero"
       d="M 39 0 m 421 320 c 0 80 -5 160 -40 234 c -46 96 -128 112 -170 112
          c -60 0 -133 -26 -174 -119 c -32 -69 -37 -147 -37 -227
          c 0 -75 4 -165 45 -241 c 43 -81 116 -101 165 -101
          c 54 0 130 21 174 116 c 32 69 37 147 37 226 z M 460 320 m -211 -320
          c -39 0 -98 25 -116 121 c -11 60 -11 152 -11 211 c 0 64 0 130 8 184
          c 19 119 94 128 119 128 c 33 0 99 -18 118 -117
          c 10 -56 10 -132 10 -195 c 0 -75 0 -143 -11 -207
          c -15 -95 -72 -125 -117 -125 z"/>
    <!-- 1: horiz-adv-x="500"-->
    <path id="one"
       d="M 89 0 m 205 640 c 0 24 0 26 -23 26 c -62 -64 -150 -64 -182 -64 v -31
          c 20 0 79 0 131 26 v -518 c 0 -36 -3 -48 -93 -48 h -32 v -31
          c 35 3 122 3 162 3 c 40 0 127 0 162 -3 v 31 h -32
          c -90 0 -93 11 -93 48 z"/>
    <!-- 2: horiz-adv-x="500"-->
    <path id="two"
       d="M 50 0 m 399 174 h -25 c -5 -30 -12 -74 -22 -89 c -7 -8 -73 -8 -95 -8
          h -180 l 106 103 c 156 138 216 192 216 292 c 0 114 -90 194 -212 194
          c -113 0 -187 -92 -187 -181 c 0 -56 50 -56 53 -56 c 17 0 52 12 52 53
          c 0 26 -18 52 -53 52 c -8 0 -10 0 -13 -1 c 23 65 77 102 135 102
          c 91 0 134 -81 134 -163 c 0 -80 -50 -159 -105 -221 l -192 -214
          c -11 -11 -11 -13 -11 -37 h 371 z"/>
    <!-- 3: horiz-adv-x="500"-->
    <path id="three"
       d="M 42 0 m 248 352 c 82 27 140 97 140 176 c 0 82 -88 138 -184 138
          c -101 0 -177 -60 -177 -136 c 0 -33 22 -52 51 -52 c 31 0 51 22 51 51
          c 0 50 -47 50 -62 50 c 31 49 97 62 133 62 c 41 0 96 -22 96 -112
          c 0 -12 -2 -70 -28 -114 c -30 -48 -64 -51 -89 -52
          c -8 -1 -32 -3 -39 -3 c -8 -1 -15 -2 -15 -12 c 0 -11 7 -11 24 -11
          h 44 c 82 0 119 -68 119 -166 c 0 -136 -69 -165 -113 -165
          c -43 0 -118 17 -153 76 c 35 -5 66 17 66 55 c 0 36 -27 56 -56 56
          c -24 0 -56 -14 -56 -58 c 0 -91 93 -157 202 -157
          c 122 0 213 91 213 193 c 0 82 -63 160 -167 181 z"/>
    <!-- 4: horiz-adv-x="500"-->
    <path id="four"
       d="M 28 0 m 0 165 h 266 v -87 c 0 -36 -2 -47 -76 -47 h -21 v -31
          c 41 3 93 3 135 3 c 42 0 95 0 136 -3 v 31 h -21 c -74 0 -76 11 -76 47
          v 87 h 100 v 31 h -100 v 455 c 0 20 0 26 -16 26 c -9 0 -12 0 -20 -12
          l -307 -469 z M 28 196 m 272 0 h -244 l 244 373 z"/>
    <!-- 5: horiz-adv-x="500"-->
    <path id="five"
       d="M 50 0 m 399 201 c 0 119 -82 219 -190 219 c -48 0 -91 -16 -127 -51
          v 195 c 20 -6 53 -13 85 -13 c 123 0 193 91 193 104 c 0 6 -3 11 -10 11
          c -1 0 -3 0 -8 -3 c -20 -9 -69 -29 -136 -29 c -40 0 -86 7 -133 28
          c -8 3 -10 3 -12 3 c -10 0 -10 -8 -10 -24 v -296 c 0 -18 0 -26 14 -26
          c 7 0 9 3 13 9 c 11 16 48 70 129 70 c 52 0 77 -46 85 -64 
          c 16 -37 18 -76 18 -126 c 0 -35 0 -95 -24 -137
          c -24 -39 -61 -65 -107 -65 c -73 0 -130 53 -147 112 c 3 -1 6 -2 17 -2
          c 33 0 50 25 50 49 c 0 24 -17 49 -50 49 c -14 0 -49 -7 -49 -53
          c 0 -86 69 -183 181 -183 c 116 0 218 96 218 223 z"/>
    <!-- 6: horiz-adv-x="500"-->
    <path id="six"
       d="M 42 0 m 90 328 v 24 c 0 253 124 289 175 289 c 24 0 66 -6 88 -40
          c -15 0 -55 0 -55 -45 c 0 -31 24 -46 46 -46 c 16 0 46 9 46 48
          c 0 60 -44 108 -127 108 c -128 0 -263 -129 -263 -350
          c 0 -267 116 -338 209 -338 c 111 0 206 94 206 226
          c 0 127 -89 223 -200 223 c -68 0 -105 -51 -125 -99 z M 132 328
          m 119 -322 c -63 0 -93 60 -99 75 c -18 47 -18 127 -18 145
          c 0 78 32 178 122 178 c 16 0 62 0 93 -62 c 18 -37 18 -88 18 -137
          c 0 -48 0 -98 -17 -134 c -30 -60 -76 -65 -99 -65 z"/>
  </defs>



  <rect id="background"
     x0="0" y0="0" width="472" height="306" style="fill:#ffffff;stroke:none"/>

  <g transform="scale(45,45) translate(5.233333,6.211111)">
    <!-- grid -->
    <use xlink:href="#xgridline" x="-4" y="0" />
    <use xlink:href="#xgridline" x="-3" y="0" />
    <use xlink:href="#xgridline" x="-2" y="0" />
    <use xlink:href="#xgridline" x="-1" y="0" />
    <use xlink:href="#xgridline" x="1" y="0" />
    <use xlink:href="#xgridline" x="2" y="0" />
    <use xlink:href="#xgridline" x="3" y="0" />
    <use xlink:href="#xgridline" x="4" y="0" />
    <use xlink:href="#ygridline" x="0" y="-1" />
    <use xlink:href="#ygridline" x="0" y="-2" />
    <use xlink:href="#ygridline" x="0" y="-3" />
    <use xlink:href="#ygridline" x="0" y="-4" />
    <use xlink:href="#ygridline" x="0" y="-5" />
    <use xlink:href="#ygridline" x="0" y="-6" />

    <!-- ticks -->
    <use xlink:href="#xtick" x="-4" y="0" />
    <use xlink:href="#xtick" x="-3" y="0" />
    <use xlink:href="#xtick" x="-2" y="0" />
    <use xlink:href="#xtick" x="-1" y="0" />
    <use xlink:href="#xtick" x="0" y="0" />
    <use xlink:href="#xtick" x="1" y="0" />
    <use xlink:href="#xtick" x="2" y="0" />
    <use xlink:href="#xtick" x="3" y="0" />
    <use xlink:href="#xtick" x="4" y="0" />
    <use xlink:href="#ytick" x="0" y="-1" />
    <use xlink:href="#ytick" x="0" y="-2" />
    <use xlink:href="#ytick" x="0" y="-3" />
    <use xlink:href="#ytick" x="0" y="-4" />
    <use xlink:href="#ytick" x="0" y="-5" />
    <use xlink:href="#ytick" x="0" y="-6" />

    <!-- axes -->
    <line id="x-axis" x1="-4.75" x2="4.75" y1="0" y2="0" stroke="black"
       stroke-width="0.022222" stroke-linecap="butt" marker-end="url(#Arrow)" />
    <line id="y-axis" x1="0" x2="0" y1="0" y2="-6" stroke="black"
       stroke-width="0.022222" stroke-linecap="butt" marker-end="url(#Arrow)" />

    <!-- labels -->
    <g id="a_is_05" transform="translate(1.3,-0.675) scale(0.0005,-0.0005)"
       fill="black" >
      <use xlink:href="#a" x="0" y="0" />
      <use xlink:href="#equal" x="611.1" y="0" />
      <use xlink:href="#zero" x="1600" y="0" />
      <use xlink:href="#dot" x="2100" y="0" />
      <use xlink:href="#five" x="2377.8" y="0" />
    </g>
    <g id="a_is_1" transform="translate(2.2,-2.025) scale(0.0005,-0.0005)"
       fill="blue" >
      <use xlink:href="#a" x="0" y="0" />
      <use xlink:href="#equal" x="661.1" y="0" />
      <use xlink:href="#one" x="1600" y="0" />
    </g>
    <g id="a_is_1" transform="translate(3.1,-3.375) scale(0.0005,-0.0005)"
       fill="red" >
      <use xlink:href="#a" x="0" y="0" />
      <use xlink:href="#equal" x="661.1" y="0" />
      <use xlink:href="#two" x="1600" y="0" />
    </g>

    <g id="xlabels" transform="translate(0,0.52)">
      <g id="xm4" transform="translate(-4,0) scale(0.0004,-0.0004)">
        <use xlink:href="#minus" x="-950" y="0" />
        <use xlink:href="#four" x="-250" y="0" />
      </g>
      <g id="xm3" transform="translate(-3,0) scale(0.0004,-0.0004)">
        <use xlink:href="#minus" x="-950" y="0" />
        <use xlink:href="#three" x="-250" y="0" />
      </g>
      <g id="xm2" transform="translate(-2,0) scale(0.0004,-0.0004)">
        <use xlink:href="#minus" x="-950" y="0" />
        <use xlink:href="#two" x="-250" y="0" />
      </g>
      <g id="xm1" transform="translate(-1,0) scale(0.0004,-0.0004)">
        <use xlink:href="#minus" x="-950" y="0" />
        <use xlink:href="#one" x="-250" y="0" />
      </g>
      <g id="x0" transform="translate(0,0) scale(0.0004,-0.0004)">
        <use xlink:href="#zero" x="-250" y="0" />
      </g>
      <g id="x1" transform="translate(1,0) scale(0.0004,-0.0004)">
        <use xlink:href="#one" x="-250" y="0" />
      </g>
      <g id="x2" transform="translate(2,0) scale(0.0004,-0.0004)">
        <use xlink:href="#two" x="-250" y="0" />
      </g>
      <g id="x3" transform="translate(3,0) scale(0.0004,-0.0004)">
        <use xlink:href="#three" x="-250" y="0" />
      </g>
      <g id="x4" transform="translate(4,0) scale(0.0004,-0.0004)">
        <use xlink:href="#four" x="-250" y="0" />
      </g>
    </g>

    <g id="ylabels" transform="translate(-4.9,0.14)">
      <g id="y1" transform="translate(0,-1) scale(0.0004,-0.0004)">
        <use xlink:href="#one" x="-500" y="0" />
      </g>
      <g id="y2" transform="translate(0,-2) scale(0.0004,-0.0004)">
        <use xlink:href="#two" x="-500" y="0" />
      </g>
      <g id="y3" transform="translate(0,-3) scale(0.0004,-0.0004)">
        <use xlink:href="#three" x="-500" y="0" />
      </g>
      <g id="y4" transform="translate(0,-4) scale(0.0004,-0.0004)">
        <use xlink:href="#four" x="-500" y="0" />
      </g>
      <g id="y5" transform="translate(0,-5) scale(0.0004,-0.0004)">
        <use xlink:href="#five" x="-500" y="0" />
      </g>
      <g id="y6" transform="translate(0,-6) scale(0.0004,-0.0004)">
        <use xlink:href="#six" x="-500" y="0" />
      </g>
    </g>

    <g id="plots" clip-path="url(#graph_region)" transform="scale(1,-1)">
      <path id="catenary_a05"
         fill="none" stroke="black" stroke-width="0.044444px" stroke-linecap="square"
         d="M -1.588157,6.000000
            C -1.460911,4.478364 -1.320353,3.380368 -1.162386,2.580540
            C -1.051509,2.019140 -0.928870,1.588507 -0.790671,1.266794
            C -0.709397,1.077597 -0.614532,0.906953 -0.502324,0.774280
            C -0.432179,0.691342 -0.362196,0.631465 -0.294372,0.589187
            C -0.195079,0.527293 -0.095368,0.500000 0.000000,0.500000
            C 0.095368,0.500000 0.195079,0.527293 0.294372,0.589187
            C 0.362196,0.631465 0.432179,0.691342 0.502324,0.774280
            C 0.614532,0.906953 0.709397,1.077597 0.790671,1.266794
            C 0.928870,1.588507 1.051509,2.019140 1.162386,2.580540
            C 1.320353,3.380368 1.460911,4.478364 1.588157,6.000000" />

      <path id="catenary_a1"
         fill="none" stroke="blue" stroke-width="0.044444px" stroke-linecap="square"
         d="M -2.477889,6.000000
            C -2.279127,4.824111 -2.062882,3.900322 -1.824636,3.180907
            C -1.660189,2.684338 -1.478225,2.263892 -1.273927,1.927297
            C -1.156313,1.733520 -1.018593,1.546600 -0.858217,1.391434
            C -0.733713,1.270975 -0.611440,1.185035 -0.494849,1.124957
            C -0.300904,1.025018 -0.129207,1.000000 0.000000,1.000000
            C 0.129207,1.000000 0.300904,1.025018 0.494849,1.124957
            C 0.611440,1.185035 0.733713,1.270975 0.858217,1.391434
            C 1.018593,1.546600 1.156313,1.733520 1.273927,1.927297
            C 1.478225,2.263892 1.660189,2.684338 1.824636,3.180907
            C 2.062882,3.900322 2.279127,4.824111 2.477889,6.000000" />

      <path id="catenary_a2"
         fill="none" stroke="red" stroke-width="0.044444px" stroke-linecap="square"
         d="M -3.525494,6.000000
            C -3.200856,5.081784 -2.839100,4.295685 -2.429943,3.666917
            C -2.194072,3.304444 -1.912949,2.948913 -1.581888,2.658894
            C -1.330129,2.438345 -1.084766,2.286610 -0.853485,2.184890
            C -0.567326,2.059033 -0.280544,2.000000 0.000000,2.000000
            C 0.280544,2.000000 0.567326,2.059033 0.853485,2.184890
            C 1.084766,2.286610 1.330129,2.438345 1.581888,2.658894
            C 1.912949,2.948913 2.194072,3.304444 2.429943,3.666917
            C 2.839100,4.295685 3.200856,5.081784 3.525494,6.000000" />
    </g>
  </g>
</svg>

