<svg width="199mm" height="95mm" version="1.1" viewBox="0 0 199 95" xmlns="http://www.w3.org/2000/svg" xmlns:xlink="http://www.w3.org/1999/xlink"><rect width="199" height="95" fill="#fff"/><rect x="12" y="57" width="7" height="32"/><rect x="184" y="2" width="7" height="87"/><path d="m6 89h191m-13-87c-47 74-98 101-165 55m165-55c-60 55-113 62-165 55 79-12 123-33.74 165-55" fill="none" stroke="#000"/><path d="m178 83 6 2-6 2 2-2m-155-2-6 2 6 2-2-2m-16-34 2 6 2-6-2 2m-2-45 2-6 2 6-2-2"/>
 <g stroke="#000" stroke-width=".5"><path d="m20 85h163m-174-29v-52m182-2h-189m17 55h-16"/><path id="a" d="m26 93 3-4m-6 4 3-4m-6 4 3-4m-6 4 3-4m-6 4 3-4m-6 4 3-4m-6 4 3-4m-6 4 3-4"/><use transform="translate(24)" xlink:href="#a"/><use transform="translate(48)" xlink:href="#a"/><use transform="translate(72)" xlink:href="#a"/><use transform="translate(96)" xlink:href="#a"/><use transform="translate(120)" xlink:href="#a"/><use transform="translate(144)" xlink:href="#a"/><use transform="translate(168)" xlink:href="#a"/></g>
 <g font-family="Arial" font-style="italic" font-size="10px"><text x="117" y="83" >H</text><text x="12" y="32" >H/3</text><text x="70" y="39">a = 3</text><text x="70" y="53" >a = 1</text><text x="70" y="74">a = 1/2</text></g></svg>