<?xml version="1.0" encoding="utf-8"?>
<!-- Generator: Adobe Illustrator 14.0.0, SVG Export Plug-In  -->
<svg xmlns="http://www.w3.org/2000/svg"
     xmlns:xlink="http://www.w3.org/1999/xlink"
     version="1.1" viewBox="-17.579 -7.045 836 766"
     enable-background="new -17.579 -7.045 836 766" xml:space="preserve"
     font-family="Helvetica, sans-serif">
  <title>Calvin Cycle 4</title>
  <metadata xmlns:rdf="http://www.w3.org/1999/02/22-rdf-syntax-ns#"
            xmlns:dc="http://purl.org/dc/elements/1.1/"
            xmlns:cc="http://creativecommons.org/ns#">
    <rdf:RDF>
      <cc:Work rdf:about="">
        <dc:creator>Mike Jones</dc:creator>
        <dc:publisher>Wikimedia Commons</dc:publisher>
        <dc:date>2010-02-17</dc:date>
        <cc:license rdf:resource="https://creativecommons.org/licenses/by-sa/3.0/deed.en" />
        <cc:attributionURL rdf:resource="https://commons.wikimedia.org/wiki/File:Calvin-cycle4.svg"/>
        <cc:attributionName>Mike Jones</cc:attributionName>
      </cc:Work>
    </rdf:RDF>
  </metadata>
<defs>
	<symbol id="ADP" viewBox="-35.163 -21.956 70.327 43.911">
		<polygon fill="#F7941E" stroke="#ED1C24" points="0.001,21.237 8.337,12.658 23.88,15.017 20.129,5.243 33.771,-0.001     20.129,-5.243 23.88,-15.018 8.337,-12.659 0.001,-21.237 -8.337,-12.659 -23.879,-15.018 -20.129,-5.243 -33.77,-0.001     -20.129,5.243 -23.879,15.017 -8.337,12.658   "/>
			<switch transform="matrix(1 0 0 -1 0 -6.6094)" text-anchor="middle" font-size="18.5729">
        <text id="trsvg26-pt" systemLanguage="pt"><tspan id="trsvg1-pt">ADP</tspan></text>
        <text id="trsvg26-en" systemLanguage="en"><tspan id="trsvg1-en">ADP</tspan></text>
        <text id="trsvg26"><tspan id="trsvg1">ADP</tspan></text>
      </switch>
	</symbol>
	<symbol id="ATP" viewBox="-39.814 -24.99 79.63 49.979">
		<polygon fill="#FFF200" stroke="#ED1C24" points="0,24.195 8.396,13.824 23.682,19.573 21.979,8.544 38.316,7.478 27.168,-0.001     38.316,-7.478 21.979,-8.544 23.682,-19.574 8.396,-13.824 0,-24.195 -8.395,-13.824 -23.68,-19.574 -21.979,-8.544     -38.315,-7.478 -27.166,-0.001 -38.315,7.478 -21.979,8.544 -23.68,19.573 -8.395,13.824   "/>
		<switch transform="matrix(1 0 0 -1 0 -9.4189)" text-anchor="middle" font-size="23.5741">
      <text id="trsvg27-pt" systemLanguage="pt"><tspan id="trsvg3-pt">ATP</tspan></text>
      <text id="trsvg27-en" systemLanguage="en"><tspan id="trsvg3-en">ATP</tspan></text>
      <text id="trsvg27"><tspan id="trsvg3">ATP</tspan></text>
    </switch>
	</symbol>
	<symbol id="NADP_x2B_" viewBox="-35.163 -21.956 70.327 43.911">
		<polygon fill="#009F75" stroke="#3D52A4" points="0.001,21.237 8.337,12.658 23.88,15.018 20.129,5.242 33.771,0 20.129,-5.244     23.88,-15.018 8.337,-12.658 0.001,-21.238 -8.337,-12.658 -23.879,-15.018 -20.129,-5.244 -33.77,0 -20.129,5.242     -23.879,15.018 -8.337,12.658   "/>
	  <switch transform="matrix(1 0 0 -1 0 -3.4395)" text-anchor="middle" font-size="12.3797">
      <text id="trsvg28-pt" systemLanguage="pt"><tspan id="trsvg6-pt">NADP+</tspan></text>
      <text id="trsvg28-en" systemLanguage="en"><tspan id="trsvg6-en">NADP+</tspan></text>
      <text id="trsvg28"><tspan id="trsvg6">NADP+</tspan></text>
    </switch>
	</symbol>
	<symbol id="NADPH" viewBox="-39.815 -24.99 79.63 49.98">
		<polygon fill="#00A651" stroke="#00AEEF" points="-0.001,24.195 8.395,13.824 23.681,19.573 21.979,8.544 38.315,7.478     27.167,-0.001 38.315,-7.478 21.979,-8.544 23.681,-19.574 8.395,-13.824 -0.001,-24.195 -8.396,-13.824 -23.681,-19.574     -21.979,-8.544 -38.316,-7.478 -27.167,-0.001 -38.316,7.478 -21.979,8.544 -23.681,19.573 -8.396,13.824   "/>
		<switch transform="matrix(1 0 0 -1 0 -5.377)" text-anchor="middle" font-size="14.5767">
      <text id="trsvg29-pt" systemLanguage="pt"><tspan id="trsvg7-pt">NADPH</tspan></text>
      <text id="trsvg29-en" systemLanguage="en"><tspan id="trsvg7-en">NADPH</tspan></text>
      <text id="trsvg29"><tspan id="trsvg7">NADPH</tspan></text>
    </switch>
	</symbol>
</defs>
<radialGradient id="SVGID_1_" cx="312.8501" cy="319.542" r="175.508" gradientTransform="matrix(0.0268 -0.9996 0.6332 0.017 105.5961 625.0558)" gradientUnits="userSpaceOnUse">
	<stop offset="0.0061" style="stop-color:#FFF100"/>
	<stop offset="1" style="stop-color:#FFF200;stop-opacity:0"/>
</radialGradient>
<path opacity="0.57" fill="url(#SVGID_1_)" d="M66.984,202.014L312.756,348.65l248.319-142.283l-38.754-0.341l-72.863-75.328  c0,0-68.42-45.32-71.961-45.906c-3.543-0.586-52.815-1.582-52.815-1.582s-69.401,0.066-71.457-0.4  c-2.056-0.465-63.775,22.955-63.775,22.955l-65.937,20.088l-37.693,48.1l15.679,28.366L66.984,202.014z"/>
<radialGradient id="SVGID_2_" cx="283.2949" cy="366.2627" r="175.508" gradientTransform="matrix(-0.872 0.4895 -0.31 -0.5523 643.7396 427.1078)" gradientUnits="userSpaceOnUse">
	<stop offset="0" style="stop-color:#F58C1F"/>
	<stop offset="1" style="stop-color:#F78D1E;stop-opacity:0"/>
</radialGradient>
<path opacity="0.57" fill="url(#SVGID_2_)" d="M311.615,636.883l-0.112-286.191L62.03,210.442l19.577,33.447L54.29,345.069  c0,0-3.831,81.979-2.518,85.319c1.313,3.342,25.72,46.156,25.72,46.156s35.639,59.551,36.292,61.555  c0.655,2.004,52.407,42.986,52.407,42.986l51.053,46.312l60.622,7.701l16.315-28.006L311.615,636.883z"/>
<radialGradient id="SVGID_3_" cx="257.6021" cy="317.9448" r="175.5077" gradientTransform="matrix(0.8537 0.5208 -0.3299 0.5407 224.2605 63.2402)" gradientUnits="userSpaceOnUse">
	<stop offset="0.0061" style="stop-color:#EB1D24"/>
	<stop offset="1" style="stop-color:#ED1C24;stop-opacity:0"/>
</radialGradient>
<path opacity="0.57" fill="url(#SVGID_3_)" d="M563.771,210.65L314.27,350.848l-0.171,286.193l19.582-33.443l101.6-25.711  c0,0,73.359-36.791,75.631-39.57c2.271-2.781,27.656-45.023,27.656-45.023s34.482-60.229,35.91-61.779  c1.426-1.553,11.828-66.74,11.828-66.74l15.393-67.189l-22.961-56.631l-32.408-0.517L563.771,210.65z"/>
<line stroke="#000" stroke-width="3" x1="24.146" y1="306.813" x2="10.187" y2="315.189"/>
<circle fill="#FFF" stroke="#000" cx="7.396" cy="316.238" r="4.886"/>
<path fill="none" stroke="#000" stroke-width="5" d="M114.196,202.802c18.183-25.774,41.207-47.889,67.75-65.02"/>
<path fill="none" stroke="#000" stroke-width="5" d="M70.251,363.804c-0.518-6.509-0.782-13.09-0.782-19.733  c0-6.104,0.224-12.156,0.662-18.148"/>
<path fill="none" stroke="#000" stroke-width="5" d="M82.289,422.552c-4.702-13.937-8.187-28.434-10.327-43.365"/>
<path fill="none" stroke="#000" stroke-width="5" d="M104.817,471.009c-6.971-11.508-13.022-23.634-18.053-36.277"/>
<path fill="none" stroke="#000" stroke-width="5" d="M143.233,519.441c-12.284-12.021-23.31-25.32-32.862-39.685"/>
<path fill="none" stroke="#000" stroke-width="5" d="M201.122,561.542c-17.916-9.385-34.527-20.919-49.494-34.259"/>
<path fill="none" stroke="#000" stroke-width="5" d="M462.306,540.158c-19.872,14.971-42.094,26.991-66.013,35.41"/>
<path fill="none" stroke="#000" stroke-width="5" d="M559.765,329.939c0.266,4.677,0.4,9.389,0.4,14.132  c0,14.001-1.173,27.729-3.426,41.09"/>
<path fill="none" stroke="#3C57A7" stroke-width="9" d="M431.021,127.932c35.211,18.97,65.256,46.293,87.482,79.316"/>
<line stroke="#000" stroke-width="3" x1="307.41" y1="140.712" x2="321.369" y2="149.088"/>
<line stroke="#000" stroke-width="3" x1="222.357" y1="155.72" x2="211.08" y2="163.341"/>
<line stroke="#000" stroke-width="3" x1="217.418" y1="132.273" x2="223.794" y2="142.479"/>
<line stroke="#000" stroke-width="3" x1="274.604" y1="75.799" x2="274.604" y2="89.759"/>
<line stroke="#000" stroke-width="3" x1="301.127" y1="117.329" x2="301.127" y2="131.289"/>
<line stroke="#000" stroke-width="3" x1="323.812" y1="76.497" x2="323.812" y2="90.457"/>
<line stroke="#000" stroke-width="3" x1="348.242" y1="92.202" x2="348.242" y2="106.162"/>
<line stroke="#000" stroke-width="3" x1="348.626" y1="117.007" x2="348.626" y2="133.057"/>
<line stroke="#000" stroke-width="3" x1="324.626" y1="102.007" x2="324.626" y2="118.057"/>
<line stroke="#000" stroke-width="3" x1="300.876" y1="88.757" x2="300.876" y2="104.807"/>
<line stroke="#000" stroke-width="3" x1="252.269" y1="117.329" x2="252.269" y2="131.289"/>
<line stroke="#000" stroke-width="3" x1="278.443" y1="75.799" x2="278.443" y2="89.759"/>
<circle cx="252.564" cy="109.427" r="8.25"/>
<circle fill="#ED1F24" cx="276.645" cy="68.945" r="8.251"/>
<circle fill="#ED1F24" cx="301.423" cy="137.347" r="8.25"/>
<circle fill="#ED1F24" cx="324.108" cy="68.596" r="8.251"/>
<line stroke="#000" stroke-width="3" x1="248.429" y1="139.665" x2="229.583" y2="150.833"/>
<circle cx="276.296" cy="96.166" r="8.25"/>
<circle cx="300.725" cy="109.078" r="8.251"/>
<circle cx="324.107" cy="95.816" r="8.25"/>
<circle cx="348.537" cy="109.078" r="8.25"/>
<line stroke="#000" stroke-width="3" x1="257.853" y1="105.812" x2="271.812" y2="99.182"/>
<line stroke="#000" stroke-width="3" x1="330.853" y1="64.312" x2="344.812" y2="57.682"/>
<line stroke="#000" stroke-width="3" x1="282.282" y1="99.182" x2="296.242" y2="107.558"/>
<line stroke="#000" stroke-width="3" x1="306.013" y1="105.464" x2="321.02" y2="97.437"/>
<line stroke="#000" stroke-width="3" x1="352.779" y1="106.511" x2="367.785" y2="98.484"/>
<line stroke="#000" stroke-width="3" x1="329.396" y1="98.135" x2="344.053" y2="107.208"/>
<circle fill="#ED1F24" cx="252.564" cy="137.696" r="8.25"/>
<circle fill="#ED1F24" cx="213.709" cy="127.282" r="8.25"/>
<line stroke="#000" stroke-width="3" x1="241.867" y1="168.773" x2="234.895" y2="158.965"/>
<circle fill="#ED1F24" cx="245.049" cy="174.115" r="8.251"/>
<circle fill="#ED1F24" cx="206.897" cy="166.101" r="8.25"/>
<circle fill="#D0158D" cx="229.584" cy="150.833" r="11.167"/>
<line stroke="#000" stroke-width="3" x1="389.743" y1="88.522" x2="377.279" y2="93.991"/>
<line stroke="#000" stroke-width="3" x1="389.101" y1="64.569" x2="393.538" y2="75.754"/>
<line stroke="#000" stroke-width="3" x1="418.277" y1="77.417" x2="397.73" y2="85.013"/>
<circle fill="#ED1F24" cx="422.699" cy="76.222" r="8.251"/>
<circle fill="#ED1F24" cx="386.35" cy="58.992" r="8.25"/>
<line stroke="#000" stroke-width="3" x1="406.587" y1="104.87" x2="401.493" y2="93.967"/>
<circle fill="#ED1F24" cx="408.758" cy="110.697" r="8.25"/>
<circle fill="#ED1F24" cx="372.668" cy="95.953" r="8.25"/>
<circle fill="#D0158D" cx="397.731" cy="85.013" r="11.167"/>
<circle fill="#FFF" stroke="#000" cx="324.159" cy="150.137" r="4.886"/>
<circle fill="#FFF" stroke="#000" cx="348.937" cy="55.561" r="4.886"/>
<line stroke="#000" stroke-width="3" x1="232.31" y1="97.317" x2="246.27" y2="105.693"/>
<circle fill="#FFF" stroke="#000" cx="228.695" cy="94.847" r="4.886"/>
<circle fill="#FFF" stroke="#000" cx="300.776" cy="85.574" r="4.886"/>
<circle fill="#FFF" stroke="#000" cx="324.507" cy="118.379" r="4.886"/>
<circle fill="#FFF" stroke="#000" cx="348.662" cy="136.582" r="4.886"/>
<circle fill="#FFF" stroke="#000" cx="348.239" cy="88.367" r="4.886"/>
<line stroke="#000" stroke-width="3" x1="252.241" y1="92.202" x2="252.241" y2="106.162"/>
<circle fill="#FFF" stroke="#000" cx="252.238" cy="88.367" r="4.886"/>
<line stroke="#000" stroke-width="3" x1="499.973" y1="84.057" x2="514.896" y2="92.689"/>
<line stroke="#000" stroke-width="3" x1="497.343" y1="88.138" x2="512.265" y2="96.77"/>
<circle fill="#ED1F24" cx="493.877" cy="83.837" r="8.251"/>
<circle cx="518.245" cy="97.07" r="8.251"/>
<line stroke="#000" stroke-width="3" x1="539.408" y1="106.476" x2="524.421" y2="97.955"/>
<line stroke="#000" stroke-width="3" x1="537.214" y1="110.807" x2="522.228" y2="102.285"/>
<circle fill="#ED1F24" cx="542.676" cy="111.626" r="8.251"/>
<path fill="none" stroke="#3C57A7" stroke-width="9" d="M507.23,108.702c-14.92,31.162-11.809,69.442,11.191,98.253"/>
<line stroke="#000" stroke-width="3" x1="420.233" y1="289.979" x2="435.156" y2="298.612"/>
<line stroke="#000" stroke-width="3" x1="417.603" y1="294.061" x2="432.525" y2="302.692"/>
<line stroke="#000" stroke-width="3" x1="438.907" y1="311.244" x2="438.907" y2="325.204"/>
<line stroke="#000" stroke-width="3" x1="461.591" y1="270.412" x2="461.591" y2="284.372"/>
<line stroke="#000" stroke-width="3" x1="486.021" y1="286.116" x2="486.021" y2="300.076"/>
<line stroke="#000" stroke-width="3" x1="486.406" y1="310.922" x2="486.406" y2="326.971"/>
<line stroke="#000" stroke-width="3" x1="462.406" y1="295.922" x2="462.406" y2="311.971"/>
<circle fill="#ED1F24" cx="439.203" cy="331.262" r="8.25"/>
<circle fill="#ED1F24" cx="461.887" cy="262.51" r="8.251"/>
<circle fill="#ED1F24" cx="414.137" cy="289.76" r="8.251"/>
<circle cx="438.504" cy="302.993" r="8.251"/>
<circle cx="461.887" cy="289.731" r="8.25"/>
<circle cx="486.316" cy="302.993" r="8.25"/>
<line stroke="#000" stroke-width="3" x1="468.632" y1="258.227" x2="482.591" y2="251.596"/>
<line stroke="#000" stroke-width="3" x1="443.792" y1="299.378" x2="458.799" y2="291.352"/>
<line stroke="#000" stroke-width="3" x1="490.558" y1="300.425" x2="505.564" y2="292.398"/>
<line stroke="#000" stroke-width="3" x1="467.175" y1="292.049" x2="481.833" y2="301.123"/>
<line stroke="#000" stroke-width="3" x1="527.522" y1="282.437" x2="515.058" y2="287.905"/>
<line stroke="#000" stroke-width="3" x1="526.88" y1="258.483" x2="531.317" y2="269.669"/>
<line stroke="#000" stroke-width="3" x1="556.056" y1="271.331" x2="535.509" y2="278.928"/>
<circle fill="#ED1F24" cx="560.478" cy="270.137" r="8.251"/>
<circle fill="#ED1F24" cx="524.129" cy="252.906" r="8.25"/>
<line stroke="#000" stroke-width="3" x1="544.367" y1="298.784" x2="539.272" y2="287.882"/>
<circle fill="#ED1F24" cx="546.537" cy="304.612" r="8.25"/>
<circle fill="#ED1F24" cx="510.447" cy="289.867" r="8.25"/>
<circle fill="#D0158D" cx="535.51" cy="278.928" r="11.167"/>
<circle fill="#FFF" stroke="#000" cx="486.716" cy="249.475" r="4.886"/>
<circle fill="#FFF" stroke="#000" cx="462.287" cy="312.293" r="4.886"/>
<circle fill="#FFF" stroke="#000" cx="486.441" cy="330.496" r="4.886"/>
<circle fill="#FFF" stroke="#000" cx="486.018" cy="282.281" r="4.886"/>
<circle fill="none" stroke="#000" cx="564.982" cy="256.993" r="3.333"/>
<line stroke="#000" x1="563.078" y1="256.993" x2="566.887" y2="256.993"/>
<circle fill="none" stroke="#000" cx="428.316" cy="341.326" r="3.333"/>
<line stroke="#000" x1="426.412" y1="341.326" x2="430.221" y2="341.326"/>
<line stroke="#000" stroke-width="3" x1="627.778" y1="219.167" x2="642.701" y2="227.8"/>
<line stroke="#000" stroke-width="3" x1="625.148" y1="223.248" x2="640.07" y2="231.88"/>
<line stroke="#000" stroke-width="3" x1="646.452" y1="240.431" x2="646.452" y2="254.391"/>
<line stroke="#000" stroke-width="3" x1="669.136" y1="199.599" x2="669.136" y2="213.559"/>
<line stroke="#000" stroke-width="3" x1="693.566" y1="215.304" x2="693.566" y2="229.264"/>
<line stroke="#000" stroke-width="3" x1="693.951" y1="240.109" x2="693.951" y2="256.159"/>
<line stroke="#000" stroke-width="3" x1="669.951" y1="225.109" x2="669.951" y2="241.159"/>
<circle fill="#ED1F24" cx="646.748" cy="260.449" r="8.25"/>
<circle fill="#ED1F24" cx="669.432" cy="191.698" r="8.251"/>
<circle fill="#ED1F24" cx="621.682" cy="218.948" r="8.251"/>
<circle cx="646.049" cy="232.18" r="8.251"/>
<circle cx="669.432" cy="218.918" r="8.25"/>
<circle cx="693.861" cy="232.18" r="8.25"/>
<line stroke="#000" stroke-width="3" x1="676.177" y1="187.415" x2="690.136" y2="180.784"/>
<line stroke="#000" stroke-width="3" x1="651.337" y1="228.566" x2="666.344" y2="220.539"/>
<line stroke="#000" stroke-width="3" x1="698.103" y1="229.613" x2="713.109" y2="221.586"/>
<line stroke="#000" stroke-width="3" x1="674.72" y1="221.237" x2="689.377" y2="230.311"/>
<line stroke="#000" stroke-width="3" x1="735.067" y1="211.624" x2="722.603" y2="217.093"/>
<line stroke="#000" stroke-width="3" x1="734.425" y1="187.671" x2="738.862" y2="198.856"/>
<line stroke="#000" stroke-width="3" x1="763.601" y1="200.519" x2="743.054" y2="208.115"/>
<circle fill="#ED1F24" cx="768.023" cy="199.324" r="8.251"/>
<circle fill="#ED1F24" cx="731.674" cy="182.094" r="8.25"/>
<line stroke="#000" stroke-width="3" x1="751.912" y1="227.972" x2="746.817" y2="217.069"/>
<circle fill="#ED1F24" cx="754.082" cy="233.799" r="8.25"/>
<circle fill="#ED1F24" cx="717.992" cy="219.055" r="8.25"/>
<circle fill="#D0158D" cx="743.055" cy="208.115" r="11.167"/>
<circle fill="#FFF" stroke="#000" cx="694.261" cy="178.663" r="4.886"/>
<circle fill="#FFF" stroke="#000" cx="669.832" cy="241.481" r="4.886"/>
<circle fill="#FFF" stroke="#000" cx="693.986" cy="259.684" r="4.886"/>
<circle fill="#FFF" stroke="#000" cx="693.563" cy="211.469" r="4.886"/>
<circle fill="none" stroke="#000" cx="772.527" cy="186.18" r="3.333"/>
<line stroke="#000" x1="770.623" y1="186.18" x2="774.432" y2="186.18"/>
<circle fill="none" stroke="#000" cx="635.861" cy="270.513" r="3.333"/>
<line stroke="#000" x1="633.957" y1="270.513" x2="637.766" y2="270.513"/>
<circle fill="none" stroke="#000" cx="435.421" cy="82.622" r="3.333"/>
<line stroke="#000" x1="433.516" y1="82.622" x2="437.326" y2="82.622"/>
<circle fill="none" stroke="#000" cx="193.422" cy="163.621" r="3.333"/>
<line stroke="#000" x1="191.517" y1="163.621" x2="195.327" y2="163.621"/>
<circle fill="none" stroke="#000" cx="408.184" cy="511.622" r="3.333"/>
<line stroke="#000" x1="406.279" y1="511.622" x2="410.088" y2="511.622"/>
<circle fill="none" stroke="#000" cx="385.851" cy="544.955" r="3.333"/>
<line stroke="#000" x1="383.946" y1="544.955" x2="387.755" y2="544.955"/>
<line stroke="#000" stroke-width="3" x1="437.333" y1="506.393" x2="425.881" y2="513.75"/>
<line stroke="#000" stroke-width="3" x1="432.939" y1="482.838" x2="439.076" y2="493.188"/>
<line stroke="#000" stroke-width="3" x1="463.769" y1="490.945" x2="444.669" y2="501.674"/>
<circle fill="#ED1F24" cx="429.346" cy="477.762" r="8.25"/>
<line stroke="#000" stroke-width="3" x1="456.535" y1="519.895" x2="449.792" y2="509.926"/>
<circle fill="#ED1F24" cx="459.593" cy="525.309" r="8.25"/>
<path fill="#ED1F24" d="M426.095,523.352c-3.833,2.465-8.938,1.354-11.401-2.479c-2.462-3.836-1.351-8.939,2.482-11.402  s8.938-1.354,11.401,2.48S429.929,520.891,426.095,523.352z"/>
<circle fill="#D0158D" cx="444.671" cy="501.674" r="11.168"/>
<line stroke="#000" stroke-width="3" x1="450.338" y1="446.941" x2="465.261" y2="455.574"/>
<line stroke="#000" stroke-width="3" x1="447.708" y1="451.023" x2="462.63" y2="459.654"/>
<line stroke="#000" stroke-width="3" x1="469.012" y1="468.206" x2="469.012" y2="482.166"/>
<line stroke="#000" stroke-width="3" x1="491.697" y1="427.374" x2="491.697" y2="441.334"/>
<line stroke="#000" stroke-width="3" x1="516.126" y1="443.078" x2="516.126" y2="457.039"/>
<line stroke="#000" stroke-width="3" x1="516.511" y1="467.885" x2="516.511" y2="483.934"/>
<line stroke="#000" stroke-width="3" x1="492.511" y1="452.885" x2="492.511" y2="468.934"/>
<circle fill="#ED1F24" cx="469.308" cy="488.224" r="8.25"/>
<circle fill="#ED1F24" cx="491.993" cy="419.473" r="8.251"/>
<circle fill="#ED1F24" cx="444.243" cy="446.723" r="8.251"/>
<circle cx="468.61" cy="459.955" r="8.251"/>
<circle cx="491.992" cy="446.693" r="8.25"/>
<circle cx="516.422" cy="459.955" r="8.25"/>
<line stroke="#000" stroke-width="3" x1="498.738" y1="415.189" x2="512.697" y2="408.559"/>
<line stroke="#000" stroke-width="3" x1="473.898" y1="456.341" x2="488.905" y2="448.314"/>
<line stroke="#000" stroke-width="3" x1="520.664" y1="457.388" x2="535.669" y2="449.361"/>
<line stroke="#000" stroke-width="3" x1="497.281" y1="449.012" x2="511.938" y2="458.086"/>
<line stroke="#000" stroke-width="3" x1="557.627" y1="439.398" x2="545.164" y2="444.867"/>
<line stroke="#000" stroke-width="3" x1="556.986" y1="415.446" x2="561.422" y2="426.631"/>
<line stroke="#000" stroke-width="3" x1="586.162" y1="428.293" x2="565.615" y2="435.891"/>
<circle fill="#ED1F24" cx="590.583" cy="427.099" r="8.251"/>
<circle fill="#ED1F24" cx="554.234" cy="409.869" r="8.25"/>
<line stroke="#000" stroke-width="3" x1="574.472" y1="455.746" x2="569.377" y2="444.844"/>
<circle fill="#ED1F24" cx="576.643" cy="461.574" r="8.25"/>
<circle fill="#ED1F24" cx="540.553" cy="446.83" r="8.25"/>
<circle fill="#D0158D" cx="565.616" cy="435.891" r="11.167"/>
<circle fill="#FFF" stroke="#000" cx="516.822" cy="406.438" r="4.886"/>
<circle fill="#FFF" stroke="#000" cx="492.392" cy="469.256" r="4.886"/>
<circle fill="#FFF" stroke="#000" cx="516.546" cy="487.459" r="4.886"/>
<circle fill="#FFF" stroke="#000" cx="516.124" cy="439.244" r="4.886"/>
<line stroke="#000" stroke-width="3" x1="236.208" y1="575.067" x2="251.13" y2="583.7"/>
<line stroke="#000" stroke-width="3" x1="233.578" y1="579.148" x2="248.5" y2="587.78"/>
<line stroke="#000" stroke-width="3" x1="254.881" y1="594.835" x2="254.881" y2="612.335"/>
<line stroke="#000" stroke-width="3" x1="277.566" y1="555.499" x2="277.566" y2="569.46"/>
<line stroke="#000" stroke-width="3" x1="301.996" y1="571.204" x2="301.996" y2="585.164"/>
<line stroke="#000" stroke-width="3" x1="302.38" y1="596.01" x2="302.38" y2="612.06"/>
<line stroke="#000" stroke-width="3" x1="278.38" y1="581.01" x2="278.38" y2="597.06"/>
<circle fill="#ED1F24" cx="277.862" cy="547.599" r="8.251"/>
<circle fill="#ED1F24" cx="230.112" cy="574.849" r="8.251"/>
<circle cx="254.479" cy="588.081" r="8.251"/>
<circle cx="277.861" cy="574.819" r="8.25"/>
<circle cx="302.291" cy="588.081" r="8.25"/>
<line stroke="#000" stroke-width="3" x1="284.607" y1="543.315" x2="298.566" y2="536.685"/>
<line stroke="#000" stroke-width="3" x1="259.767" y1="584.466" x2="274.774" y2="576.439"/>
<line stroke="#000" stroke-width="3" x1="306.533" y1="585.513" x2="321.539" y2="577.486"/>
<line stroke="#000" stroke-width="3" x1="283.15" y1="577.138" x2="297.807" y2="586.211"/>
<line stroke="#000" stroke-width="3" x1="343.497" y1="567.524" x2="331.033" y2="572.993"/>
<line stroke="#000" stroke-width="3" x1="342.855" y1="543.571" x2="347.292" y2="554.757"/>
<line stroke="#000" stroke-width="3" x1="372.031" y1="556.419" x2="351.484" y2="564.016"/>
<circle fill="#ED1F24" cx="376.453" cy="555.225" r="8.251"/>
<circle fill="#ED1F24" cx="340.104" cy="537.994" r="8.25"/>
<line stroke="#000" stroke-width="3" x1="360.341" y1="583.872" x2="355.247" y2="572.97"/>
<circle fill="#ED1F24" cx="362.512" cy="589.7" r="8.25"/>
<circle fill="#ED1F24" cx="326.422" cy="574.955" r="8.25"/>
<circle fill="#D0158D" cx="351.485" cy="564.016" r="11.167"/>
<circle fill="#FFF" stroke="#000" cx="302.691" cy="534.563" r="4.886"/>
<circle fill="#FFF" stroke="#000" cx="278.261" cy="597.382" r="4.886"/>
<circle fill="#FFF" stroke="#000" cx="254.761" cy="615.882" r="4.886"/>
<circle fill="#FFF" stroke="#000" cx="302.416" cy="615.584" r="4.886"/>
<circle fill="#FFF" stroke="#000" cx="301.993" cy="567.369" r="4.886"/>
<line stroke="#000" stroke-width="3" x1="84.1" y1="305.654" x2="98.059" y2="314.03"/>
<line stroke="#000" stroke-width="3" x1="51.294" y1="240.741" x2="51.294" y2="254.701"/>
<line stroke="#000" stroke-width="3" x1="77.818" y1="282.271" x2="77.818" y2="296.231"/>
<line stroke="#000" stroke-width="3" x1="100.502" y1="241.439" x2="100.502" y2="255.399"/>
<line stroke="#000" stroke-width="3" x1="124.932" y1="257.144" x2="124.932" y2="271.104"/>
<line stroke="#000" stroke-width="3" x1="125.317" y1="281.949" x2="125.317" y2="297.999"/>
<line stroke="#000" stroke-width="3" x1="101.317" y1="266.949" x2="101.317" y2="282.999"/>
<line stroke="#000" stroke-width="3" x1="77.567" y1="253.699" x2="77.567" y2="269.749"/>
<line stroke="#000" stroke-width="3" x1="28.959" y1="282.271" x2="28.959" y2="296.231"/>
<line stroke="#000" stroke-width="3" x1="55.133" y1="240.741" x2="55.133" y2="254.701"/>
<circle cx="29.255" cy="274.369" r="8.25"/>
<circle fill="#ED1F24" cx="53.335" cy="233.887" r="8.251"/>
<circle fill="#ED1F24" cx="78.114" cy="302.289" r="8.25"/>
<circle fill="#ED1F24" cx="100.798" cy="233.538" r="8.251"/>
<circle cx="52.986" cy="261.107" r="8.25"/>
<circle cx="77.416" cy="274.02" r="8.251"/>
<circle cx="100.798" cy="260.758" r="8.25"/>
<circle cx="125.228" cy="274.02" r="8.25"/>
<line stroke="#000" stroke-width="3" x1="34.543" y1="270.754" x2="48.502" y2="264.124"/>
<line stroke="#000" stroke-width="3" x1="107.543" y1="229.254" x2="121.502" y2="222.624"/>
<line stroke="#000" stroke-width="3" x1="58.972" y1="264.124" x2="72.932" y2="272.5"/>
<line stroke="#000" stroke-width="3" x1="82.704" y1="270.406" x2="97.71" y2="262.379"/>
<line stroke="#000" stroke-width="3" x1="129.469" y1="271.453" x2="144.475" y2="263.426"/>
<line stroke="#000" stroke-width="3" x1="106.086" y1="263.077" x2="120.744" y2="272.15"/>
<circle fill="#ED1F24" cx="29.255" cy="302.638" r="8.25"/>
<line stroke="#000" stroke-width="3" x1="166.433" y1="253.464" x2="153.969" y2="258.933"/>
<line stroke="#000" stroke-width="3" x1="165.792" y1="229.511" x2="170.228" y2="240.696"/>
<line stroke="#000" stroke-width="3" x1="194.967" y1="242.358" x2="174.42" y2="249.955"/>
<circle fill="#ED1F24" cx="199.389" cy="241.164" r="8.251"/>
<circle fill="#ED1F24" cx="163.04" cy="223.934" r="8.25"/>
<line stroke="#000" stroke-width="3" x1="183.278" y1="269.812" x2="178.183" y2="258.909"/>
<circle fill="#ED1F24" cx="185.448" cy="275.639" r="8.25"/>
<circle fill="#ED1F24" cx="149.358" cy="260.895" r="8.25"/>
<circle fill="#D0158D" cx="174.421" cy="249.955" r="11.167"/>
<circle fill="#FFF" stroke="#000" cx="100.849" cy="315.079" r="4.886"/>
<circle fill="#FFF" stroke="#000" cx="125.627" cy="220.502" r="4.886"/>
<line stroke="#000" stroke-width="3" x1="9" y1="262.259" x2="22.96" y2="270.635"/>
<circle fill="#FFF" stroke="#000" cx="5.386" cy="259.789" r="4.886"/>
<circle fill="#FFF" stroke="#000" cx="77.466" cy="250.516" r="4.886"/>
<circle fill="#FFF" stroke="#000" cx="101.198" cy="283.321" r="4.886"/>
<circle fill="#FFF" stroke="#000" cx="125.352" cy="301.523" r="4.886"/>
<circle fill="#FFF" stroke="#000" cx="124.929" cy="253.309" r="4.886"/>
<line stroke="#000" stroke-width="3" x1="28.932" y1="257.144" x2="28.932" y2="271.104"/>
<circle fill="#FFF" stroke="#000" cx="28.929" cy="253.309" r="4.886"/>
<path fill="none" stroke="#000" d="M215.445,247.564c0,1.841-1.492,3.333-3.334,3.333c-1.841,0-3.333-1.492-3.333-3.333  s1.492-3.333,3.333-3.333C213.953,244.23,215.445,245.723,215.445,247.564"/>
<line stroke="#000" x1="210.207" y1="247.564" x2="214.016" y2="247.564"/>
<polygon fill="none" stroke="#3C57A7" stroke-width="9" points="518.343,206.835 524.213,195.652 525.742,217.826 505.775,208.062   "/>
<polygon points="556.832,385.036 569.074,381.933 553.595,397.883 547.521,376.504 "/>
<polygon points="396.578,575.706 405.095,585.03 383.726,578.923 399.699,563.47 "/>
<polygon points="70.424,326.547 58.357,330.276 72.995,313.551 80.16,334.59 "/>
<polygon points="72.454,381.548 62.574,389.416 70.114,368.508 84.45,385.491 "/>
<polygon points="699.437,77.019 688.485,83.307 699.091,63.775 710.703,82.725 "/>
<polygon points="87.908,436.865 79.744,446.501 83.08,424.527 100.442,438.402 "/>
<polygon points="112.824,483.691 106.815,494.8 105.564,472.608 125.407,482.62 "/>
<polygon points="154.321,529.419 151.301,541.682 144.504,520.521 166.229,525.216 "/>
<polygon points="181.93,138.199 171.079,131.736 193.302,131.404 182.479,150.815 "/>
<use xlink:href="#ATP" width="79.63" height="49.979" x="-39.814" y="-24.99" transform="matrix(1 0 0 -1 621.4146 333.5298)" overflow="visible"/>
<use xlink:href="#ATP" width="79.63" height="49.979" x="-39.814" y="-24.99" transform="matrix(1 0 0 -1 77.8452 150.5718)" overflow="visible"/>
<use xlink:href="#ADP" width="70.327" height="43.911" x="-35.163" y="-21.956" transform="matrix(1 0 0 -1 675.4204 455.9561)" overflow="visible"/>
<use xlink:href="#ADP" width="70.327" height="43.911" x="-35.163" y="-21.956" transform="matrix(1 0 0 -1 189.0879 21.9551)" overflow="visible"/>
<switch transform="matrix(1 0 0 1 342.3364 194.3413)" fill="#3C57A7" font-size="34.3558" font-weight="bold">
  <text id="trsvg30-pt" systemLanguage="pt"><tspan id="trsvg8-pt">RuBisCo</tspan></text>
  <text id="trsvg30-en" systemLanguage="en"><tspan id="trsvg8-en">RuBisCo</tspan></text>
  <text id="trsvg30"><tspan id="trsvg8">RuBisCo</tspan></text>
</switch>
<use xlink:href="#NADPH" width="79.63" height="49.98" id="XMLID_2_" x="-39.815" y="-24.99" transform="matrix(1 0 0 -1 517.5894 573.9551)" overflow="visible"/>
<use xlink:href="#NADP_x2B_" width="70.327" height="43.911" x="-35.163" y="-21.956" transform="matrix(1 0 0 -1 399.4507 678.0469)" overflow="visible"/>
<path fill="none" stroke="#000" stroke-width="5" d="M587.078,346.916c-16.202,5-28.315,19.319-30.08,36.698"/>
<path fill="none" stroke="#000" stroke-width="5" d="M490.251,560.939c-12.389-11.577-30.833-14.977-46.792-7.874"/>
<path fill="none" stroke="#000" stroke-width="5" d="M105.862,164.136c14.993,7.922,33.683,6.362,47.22-4.68"/>
<polygon points="203.445,53.555 195.29,63.198 198.609,41.222 215.98,55.082 "/>
<path fill="none" stroke="#000" stroke-width="5" d="M203.378,52.904c6.211,21.762,2.207,44.02-9.168,61.651"/>
<polygon points="637.238,443.035 634.842,430.634 649.876,447.006 628.185,451.84 "/>
<path fill="none" stroke="#000" stroke-width="5" d="M637.787,443.391c-20.844-8.813-35.666-25.895-42.262-45.813"/>
<polygon points="614.278,247.752 606.194,238.047 627.264,245.129 610.6,259.833 "/>
<path fill="none" stroke="#000" stroke-width="5" d="M614.93,247.798c-22.509,2.342-43.734-5.463-59.125-19.725"/>
<polygon points="351.342,646.369 362.741,640.929 350.681,659.601 340.542,639.824 "/>
<path fill="none" stroke="#000" stroke-width="5" d="M351.136,646.99c3.282-22.392,16.081-41.036,33.698-52.435"/>
<circle fill="none" stroke="#000" cx="360.483" cy="667.303" r="3.333"/>
<line stroke="#000" x1="358.578" y1="667.303" x2="362.388" y2="667.303"/>
<circle fill="none" stroke="#000" cx="294.109" cy="709.068" r="3.333"/>
<line stroke="#000" x1="292.205" y1="709.068" x2="296.014" y2="709.068"/>
<line stroke="#000" stroke-width="3" x1="318.129" y1="689.872" x2="305.665" y2="695.341"/>
<line stroke="#000" stroke-width="3" x1="317.487" y1="665.919" x2="321.924" y2="677.104"/>
<line stroke="#000" stroke-width="3" x1="346.664" y1="678.767" x2="326.117" y2="686.363"/>
<circle fill="#ED1F24" cx="351.084" cy="677.572" r="8.251"/>
<circle fill="#ED1F24" cx="314.736" cy="660.342" r="8.25"/>
<line stroke="#000" stroke-width="3" x1="334.974" y1="706.22" x2="329.878" y2="695.317"/>
<circle fill="#ED1F24" cx="337.144" cy="712.047" r="8.25"/>
<circle fill="#ED1F24" cx="301.054" cy="697.303" r="8.25"/>
<circle fill="#D0158D" cx="326.117" cy="686.363" r="11.168"/>
<switch transform="matrix(1 0 0 1 243.2456 37.9688)" font-size="12.33" font-weight="bold">
  <text id="trsvg31-pt" systemLanguage="pt"><tspan id="trsvg9-pt">Ribulose 1,5-bifosfato</tspan></text>
  <text id="trsvg31-en" systemLanguage="en"><tspan id="trsvg9-en">Ribulose 1,5-bisphosphate</tspan></text>
  <text id="trsvg31"><tspan id="trsvg9">Ribulose 1,5-bisphosphate</tspan></text>
</switch>
<switch transform="matrix(1 0 0 1 486.8306 68.6694)" font-size="12.33" font-weight="bold">
  <text id="trsvg32-pt" systemLanguage="pt"><tspan id="trsvg10-pt">Dióxido de carbono</tspan></text>
  <text id="trsvg32-en" systemLanguage="en"><tspan id="trsvg10-en">Carbon Dioxide</tspan></text>
  <text id="trsvg32"><tspan id="trsvg10">Carbon Dioxide</tspan></text>
</switch>
<switch transform="matrix(1 0 0 1 404.8354 238.9048)" font-size="12.33" font-weight="bold">
  <text id="trsvg33-pt" systemLanguage="pt"><tspan id="trsvg11-pt">3-fosfoglicerato</tspan></text>
  <text id="trsvg33-en" systemLanguage="en"><tspan id="trsvg11-en">3-phosphoglycerate</tspan></text>
  <text id="trsvg33"><tspan id="trsvg11">3-phosphoglycerate</tspan></text>
</switch>
<switch transform="matrix(1 0 0 1 642.9907 160.0815)" font-size="12.33" font-weight="bold">
  <text id="trsvg34-pt" systemLanguage="pt"><tspan id="trsvg12-pt">3-fosfoglicerato</tspan></text>
  <text id="trsvg34-en" systemLanguage="en"><tspan id="trsvg12-en">3-phosphoglycerate</tspan></text>
  <text id="trsvg34"><tspan id="trsvg12">3-phosphoglycerate</tspan></text>
</switch>
<switch transform="matrix(1 0 0 1 493.0044 519.8184)" font-size="12.33" font-weight="bold">
  <text id="trsvg35-pt" systemLanguage="pt"><tspan id="trsvg13-pt">1,3-bifosfoglicerato</tspan></text>
  <text id="trsvg35-en" systemLanguage="en"><tspan id="trsvg13-en">1,3-bisphosphoglycerate</tspan></text>
  <text id="trsvg35"><tspan id="trsvg13">1,3-bisphosphoglycerate</tspan></text>
</switch>
<switch transform="matrix(1 0 0 1 230.7759 508.6084)" font-size="12.33" font-weight="bold">
  <text id="trsvg36-pt" systemLanguage="pt"><tspan id="trsvg14-pt">Gliceraldeído 3-fosfato</tspan><tspan x="67.839" y="14.796" id="trsvg15-pt">(G3P)</tspan></text>
  <text id="trsvg36-en" systemLanguage="en"><tspan id="trsvg14-en">Glyceraldehyde 3-phosphate</tspan><tspan x="67.839" y="14.796" id="trsvg15-en">(G3P)</tspan></text>
  <text id="trsvg36"><tspan id="trsvg14">Glyceraldehyde 3-phosphate</tspan><tspan x="67.839" y="14.796" id="trsvg15">(G3P)</tspan></text>
</switch>
<switch transform="matrix(1 0 0 1 30.9165 207.4033)" font-size="12.33" font-weight="bold">
  <text id="trsvg37-pt" systemLanguage="pt"><tspan id="trsvg16-pt">Ribulose 5-fosfato</tspan></text>
  <text id="trsvg37-en" systemLanguage="en"><tspan id="trsvg16-en">Ribulose 5-phosphate</tspan></text>
  <text id="trsvg37"><tspan id="trsvg16">Ribulose 5-phosphate</tspan></text>
</switch>

  <g transform="translate(313.637 256.065)">
    <rect x="-51" y="0" opacity="0.5" fill="#FFF" stroke="#000" width="102.019" height="60.476"/>
    <switch transform="translate(0 21.9805)" text-anchor="middle" font-size="12.33" font-weight="bold">
      <text id="trsvg38-pt" systemLanguage="pt"><tspan id="trsvg17-pt">Fase 1:</tspan></text>
      <text id="trsvg38-en" systemLanguage="en"><tspan id="trsvg17-en">Phase 1:</tspan></text>
      <text id="trsvg38"><tspan id="trsvg17">Phase 1:</tspan></text>
    </switch>
    <switch transform="translate(0 41.0381)" text-anchor="middle" font-size="12.33">
      <text id="trsvg39-pt" systemLanguage="pt"><tspan id="trsvg18-pt">Fixação do C</tspan></text>
      <text id="trsvg39-en" systemLanguage="en"><tspan id="trsvg18-en">Carbon Fixation</tspan></text>
      <text id="trsvg39"><tspan id="trsvg18">Carbon Fixation</tspan></text>
    </switch>
  </g>
  
  <g transform="translate(313.637 350) rotate(-60)">
    <rect x="-51" y="34" opacity="0.5" fill="#FFF" stroke="#000" width="102.018" height="60.476"/>
    <switch transform="translate(0 55)" text-anchor="middle" font-size="12.33" font-weight="bold">
      <text id="trsvg40-pt" systemLanguage="pt"><tspan id="trsvg19-pt">Fase 2:</tspan></text>
      <text id="trsvg40-en" systemLanguage="en"><tspan id="trsvg19-en">Phase 2:</tspan></text>
      <text id="trsvg40"><tspan id="trsvg19">Phase 2:</tspan></text>
    </switch>
    <switch transform="translate(0 75)" text-anchor="middle" font-size="12.33">
      <text id="trsvg42-pt" systemLanguage="pt"><tspan id="trsvg21-pt">Redução</tspan></text>
      <text id="trsvg42-en" systemLanguage="en"><tspan id="trsvg21-en">Reduction</tspan></text>
      <text id="trsvg42"><tspan id="trsvg21">Reduction</tspan></text>
    </switch>
  </g>
  
  <g transform="translate(313.637 350) rotate(60)">
    <rect x="-51" y="34" opacity="0.5" fill="#FFF" stroke="#000" width="102.02" height="60.476"/>
    <switch transform="translate(0 50)" text-anchor="middle" font-size="12.33" font-weight="bold">
      <text id="trsvg41-pt" systemLanguage="pt"><tspan id="trsvg20-pt">Fase 3:</tspan></text>
      <text id="trsvg41-en" systemLanguage="en"><tspan id="trsvg20-en">Phase 3:</tspan></text>
      <text id="trsvg41"><tspan id="trsvg20">Phase 3:</tspan></text>
    </switch>
    <switch transform="translate(0 70)" text-anchor="middle" font-size="12.33">
      <text id="trsvg43-pt" systemLanguage="pt"><tspan id="trsvg22-pt">Regeneração da</tspan><tspan x="0" y="14.796" id="trsvg23-pt">ribulose</tspan></text>
      <text id="trsvg43-en" systemLanguage="en"><tspan id="trsvg22-en">Regeneration of </tspan><tspan x="0" y="14.796" id="trsvg23-en">Ribulose</tspan></text>
      <text id="trsvg43"><tspan id="trsvg22">Regeneration of </tspan><tspan x="0" y="14.796" id="trsvg23">Ribulose</tspan></text>
    </switch>
  </g>
  
<switch transform="matrix(1 0 0 1 262.3848 739.5303)" font-size="12.33" font-weight="bold">
  <text id="trsvg44-pt" systemLanguage="pt"><tspan id="trsvg24-pt">Fosfato inorgânico</tspan></text>
  <text id="trsvg44-en" systemLanguage="en"><tspan id="trsvg24-en">Inorganic phosphate</tspan></text>
  <text id="trsvg44"><tspan id="trsvg24">Inorganic phosphate</tspan></text>
</switch>
<line stroke="#000" stroke-width="5" x1="699.494" y1="139.56" x2="699.494" y2="76.563"/>
<switch transform="matrix(1 0 0 1 621.8823 56.9551)" font-size="12.33" font-weight="bold">
  <text id="trsvg45-pt" systemLanguage="pt"><tspan id="trsvg25-pt">Vias metabólicas centrais</tspan></text>
  <text id="trsvg45-en" systemLanguage="en"><tspan id="trsvg25-en">Central Metabolic Pathways</tspan></text>
  <text id="trsvg45"><tspan id="trsvg25">Central Metabolic Pathways</tspan></text>
</switch>
</svg>
