<?xml version="1.0" encoding="UTF-8" standalone="no"?>
<!-- Created with Inkscape (http://www.inkscape.org/) -->

<svg
   xmlns:dc="http://purl.org/dc/elements/1.1/"
   xmlns:cc="http://creativecommons.org/ns#"
   xmlns:rdf="http://www.w3.org/1999/02/22-rdf-syntax-ns#"
   xmlns:svg="http://www.w3.org/2000/svg"
   xmlns="http://www.w3.org/2000/svg"
   xmlns:sodipodi="http://sodipodi.sourceforge.net/DTD/sodipodi-0.dtd"
   xmlns:inkscape="http://www.inkscape.org/namespaces/inkscape"
   width="131.59692"
   height="232.70079"
   id="svg11287"
   version="1.1"
   inkscape:version="0.47 r22583"
   sodipodi:docname="sec_theta.svg">
  <defs
     id="defs11289">
    <inkscape:perspective
       sodipodi:type="inkscape:persp3d"
       inkscape:vp_x="0 : 526.18109 : 1"
       inkscape:vp_y="0 : 1000 : 0"
       inkscape:vp_z="744.09448 : 526.18109 : 1"
       inkscape:persp3d-origin="372.04724 : 350.78739 : 1"
       id="perspective11295" />
    <inkscape:perspective
       id="perspective11305"
       inkscape:persp3d-origin="0.5 : 0.33333333 : 1"
       inkscape:vp_z="1 : 0.5 : 1"
       inkscape:vp_y="0 : 1000 : 0"
       inkscape:vp_x="0 : 0.5 : 1"
       sodipodi:type="inkscape:persp3d" />
    <inkscape:perspective
       id="perspective11702"
       inkscape:persp3d-origin="0.5 : 0.33333333 : 1"
       inkscape:vp_z="1 : 0.5 : 1"
       inkscape:vp_y="0 : 1000 : 0"
       inkscape:vp_x="0 : 0.5 : 1"
       sodipodi:type="inkscape:persp3d" />
  </defs>
  <sodipodi:namedview
     id="base"
     pagecolor="#ffffff"
     bordercolor="#666666"
     borderopacity="1.0"
     inkscape:pageopacity="0.0"
     inkscape:pageshadow="2"
     inkscape:zoom="1"
     inkscape:cx="86.251343"
     inkscape:cy="48.481065"
     inkscape:document-units="px"
     inkscape:current-layer="layer1"
     showgrid="false"
     inkscape:window-width="550"
     inkscape:window-height="486"
     inkscape:window-x="492"
     inkscape:window-y="320"
     inkscape:window-maximized="0" />
  <metadata
     id="metadata11292">
    <rdf:RDF>
      <cc:Work
         rdf:about="">
        <dc:format>image/svg+xml</dc:format>
        <dc:type
           rdf:resource="http://purl.org/dc/dcmitype/StillImage" />
        <dc:title></dc:title>
      </cc:Work>
    </rdf:RDF>
  </metadata>
  <g
     inkscape:label="Layer 1"
     inkscape:groupmode="layer"
     id="layer1"
     transform="translate(-29.023294,-409.36214)">
    <rect
       style="color:#000000;fill:#d7f7f4;fill-opacity:1;fill-rule:nonzero;stroke:none;stroke-width:2;marker:none;visibility:visible;display:inline;overflow:visible;enable-background:accumulate"
       id="rect7900"
       width="101"
       height="191.5"
       x="51.671474"
       y="425.88208" />
    <g
       transform="matrix(1.0067641,0,0,0.99328135,-144.55521,-407.67394)"
       style="font-size:11.48582458px;text-anchor:end;fill:#000000;stroke:none;font-family:Arial"
       id="text12058-7-9">
      <path
         d="m 177.01057,1031.6318 c 0,-0.9721 0.10001,-1.7544 0.30004,-2.347 0.20003,-0.5926 0.49727,-1.0497 0.89172,-1.3713 0.39445,-0.3215 0.89079,-0.4823 1.48901,-0.4823 0.44118,0 0.82816,0.089 1.16092,0.2664 0.33276,0.1776 0.60756,0.4337 0.82442,0.7683 0.21685,0.3347 0.38697,0.7422 0.51036,1.2227 0.12338,0.4804 0.18507,1.1282 0.18507,1.9432 0,0.9647 -0.0991,1.7433 -0.29724,2.3359 -0.19816,0.5926 -0.49447,1.0506 -0.88891,1.374 -0.39446,0.3234 -0.89266,0.4852 -1.49462,0.4852 -0.79264,0 -1.41516,-0.2842 -1.86757,-0.8525 -0.54213,-0.6842 -0.8132,-1.7984 -0.8132,-3.3426 z m 1.03754,0 c -1e-5,1.3498 0.15796,2.248 0.4739,2.6948 0.31593,0.4468 0.70571,0.6702 1.16933,0.6702 0.46362,0 0.8534,-0.2243 1.16933,-0.673 0.31593,-0.4486 0.4739,-1.346 0.47391,-2.692 -10e-6,-1.3534 -0.15798,-2.2526 -0.47391,-2.6976 -0.31593,-0.4449 -0.70945,-0.6673 -1.18055,-0.6674 -0.46362,10e-5 -0.83377,0.1963 -1.11044,0.5889 -0.34772,0.501 -0.52158,1.4264 -0.52157,2.7761 z"
         id="path7826" />
    </g>
    <g
       transform="matrix(1.0067641,0,0,0.99328135,-144.55521,-407.67394)"
       style="font-size:11.48582458px;text-anchor:end;fill:#000000;stroke:none;font-family:Arial"
       id="text12062-0-1">
      <path
         d="m 180.813,1016.2932 -1.00949,0 0,-6.4327 c -0.24303,0.2318 -0.56177,0.4636 -0.95622,0.6954 -0.39445,0.2318 -0.74871,0.4057 -1.06278,0.5216 l 0,-0.9759 c 0.56457,-0.2654 1.0581,-0.587 1.4806,-0.9646 0.42249,-0.3776 0.7216,-0.744 0.89733,-1.0992 l 0.65056,0 z"
         id="path7823" />
    </g>
    <g
       transform="matrix(1.0067641,0,0,0.99328135,-144.55521,-407.67394)"
       style="font-size:11.48582458px;text-anchor:end;fill:#000000;stroke:none;font-family:Arial"
       id="text12066-4-8">
      <path
         d="m 182.31603,995.9296 0,0.97024 -5.43445,0 c -0.007,-0.24303 0.0318,-0.4767 0.11777,-0.70104 0.13834,-0.37015 0.35987,-0.73469 0.66459,-1.09362 0.30471,-0.35893 0.74497,-0.77394 1.32075,-1.24504 0.89359,-0.73282 1.49742,-1.31328 1.81149,-1.74139 0.31406,-0.42809 0.47109,-0.83282 0.4711,-1.2142 -1e-5,-0.40005 -0.14302,-0.73748 -0.42904,-1.0123 -0.28603,-0.2748 -0.65898,-0.4122 -1.11886,-0.41221 -0.48605,10e-6 -0.8749,0.14583 -1.16653,0.43745 -0.29163,0.29164 -0.43932,0.69544 -0.44305,1.2114 l -1.03754,-0.10656 c 0.071,-0.77394 0.33837,-1.36375 0.80199,-1.76942 0.46362,-0.40566 1.08614,-0.6085 1.86757,-0.60851 0.78889,10e-6 1.41329,0.21874 1.87317,0.65618 0.45988,0.43745 0.68982,0.97959 0.68982,1.62641 0,0.32902 -0.0673,0.65244 -0.20189,0.97024 -0.13461,0.31781 -0.35801,0.65243 -0.6702,1.00388 -0.3122,0.35146 -0.83097,0.83378 -1.5563,1.44695 -0.60571,0.50849 -0.99455,0.8534 -1.16653,1.03473 -0.17199,0.18134 -0.31407,0.36361 -0.42624,0.54681 z"
         id="path7820" />
    </g>
    <g
       transform="matrix(1.0067641,0,0,0.99328135,-144.55521,-407.67394)"
       style="font-size:11.48582458px;text-anchor:end;fill:#000000;stroke:none;font-family:Arial"
       id="text12070-8-0">
      <path
         d="m 177.01618,975.33599 1.00949,-0.1346 c 0.11591,0.57205 0.31313,0.98426 0.59168,1.23664 0.27854,0.25237 0.61785,0.37856 1.01791,0.37856 0.47483,0 0.87583,-0.16451 1.20298,-0.49354 0.32715,-0.32901 0.49072,-0.73655 0.49073,-1.22261 -1e-5,-0.46362 -0.15143,-0.84591 -0.45427,-1.1469 -0.30286,-0.30097 -0.68796,-0.45146 -1.15532,-0.45147 -0.19068,10e-6 -0.4281,0.0374 -0.71225,0.11217 l 0.11216,-0.88611 c 0.0673,0.007 0.12151,0.0112 0.16264,0.0112 0.42997,10e-6 0.81694,-0.11216 1.16093,-0.3365 0.34397,-0.22432 0.51596,-0.57017 0.51596,-1.03753 0,-0.37015 -0.12526,-0.67673 -0.37576,-0.91977 -0.25051,-0.24302 -0.57392,-0.36453 -0.97024,-0.36454 -0.39258,10e-6 -0.71973,0.12339 -0.98145,0.37015 -0.26172,0.24677 -0.42997,0.61692 -0.50475,1.11045 l -1.00949,-0.17947 c 0.12338,-0.67673 0.40379,-1.20111 0.84124,-1.57313 0.43745,-0.37201 0.98145,-0.55802 1.63202,-0.55803 0.44866,1e-5 0.86181,0.0963 1.23944,0.28883 0.37762,0.19256 0.66645,0.45522 0.86648,0.78797 0.20003,0.33277 0.30004,0.68609 0.30005,1.05997 -1e-5,0.3552 -0.0953,0.67861 -0.28603,0.97024 -0.19068,0.29163 -0.47297,0.52344 -0.84685,0.69543 0.48605,0.11217 0.86367,0.34491 1.13288,0.69823 0.26919,0.35333 0.40379,0.79545 0.4038,1.32637 -1e-5,0.71787 -0.26173,1.32637 -0.78517,1.82551 -0.52344,0.49914 -1.18522,0.7487 -1.98534,0.7487 -0.72161,0 -1.32076,-0.21498 -1.79746,-0.64495 -0.47671,-0.42997 -0.74871,-0.98706 -0.81601,-1.67128 z"
         id="path7817" />
    </g>
    <g
       transform="matrix(1.0067641,0,0,0.99328135,-144.55521,-407.67394)"
       style="font-size:11.48582458px;text-anchor:end;fill:#000000;stroke:none;font-family:Arial"
       id="text12074-4-5">
      <path
         d="m 180.24656,958.11304 0,-1.96852 -3.56688,0 0,-0.92537 3.75196,-5.3279 0.82442,0 0,5.3279 1.11045,0 0,0.92537 -1.11045,0 0,1.96852 z m 0,-2.89389 0,-3.7071 -2.57421,3.7071 z"
         id="path7814" />
    </g>
    <g
       transform="matrix(1.0067641,0,0,0.99328135,-144.55521,-407.67394)"
       style="font-size:11.48582458px;text-anchor:end;fill:#000000;stroke:none;font-family:Arial"
       id="text12078-5-3">
      <path
         d="m 177.01057,937.53568 1.05997,-0.0897 c 0.0785,0.51597 0.26078,0.90388 0.54681,1.16373 0.28602,0.25985 0.63093,0.38978 1.03473,0.38978 0.48605,0 0.89733,-0.18321 1.23383,-0.54962 0.3365,-0.36641 0.50475,-0.85246 0.50475,-1.45816 0,-0.57578 -0.16171,-1.03005 -0.48512,-1.36282 -0.32342,-0.33275 -0.74684,-0.49913 -1.27028,-0.49914 -0.32529,1e-5 -0.61879,0.0738 -0.88051,0.22153 -0.26172,0.14769 -0.46736,0.33931 -0.61691,0.57485 l -0.94781,-0.12338 0.79638,-4.22306 4.08846,0 0,0.96463 -3.28086,0 -0.44306,2.20967 c 0.49353,-0.34397 1.01137,-0.51595 1.55351,-0.51596 0.71786,10e-6 1.32355,0.24864 1.81709,0.74591 0.49353,0.49727 0.74029,1.13662 0.7403,1.91804 -1e-5,0.74404 -0.21686,1.38712 -0.65057,1.92926 -0.52718,0.66552 -1.24692,0.99828 -2.1592,0.99828 -0.74777,0 -1.35815,-0.20938 -1.83111,-0.62813 -0.47297,-0.41876 -0.7431,-0.97398 -0.8104,-1.66567 z"
         id="path7811" />
    </g>
    <g
       transform="matrix(1.0067641,0,0,0.99328135,-144.55521,-407.67394)"
       style="font-size:11.48582458px;text-anchor:end;fill:#000000;stroke:none;font-family:Arial"
       id="text12082-7-8">
      <path
         d="m 182.24873,914.0875 -1.00389,0.0785 c -0.0897,-0.39631 -0.21686,-0.6842 -0.38136,-0.86368 -0.27294,-0.28788 -0.60944,-0.43183 -1.0095,-0.43184 -0.32154,10e-6 -0.60383,0.0897 -0.84685,0.2692 -0.31781,0.23182 -0.56831,0.57019 -0.75152,1.01511 -0.1832,0.44493 -0.27854,1.07867 -0.28602,1.90121 0.24302,-0.37014 0.54026,-0.64495 0.89172,-0.82442 0.35145,-0.17946 0.71973,-0.26919 1.10484,-0.2692 0.67299,10e-6 1.24597,0.24771 1.71895,0.7431 0.47296,0.49541 0.70944,1.13569 0.70945,1.92085 -1e-5,0.51597 -0.11124,0.99548 -0.3337,1.43853 -0.22247,0.44306 -0.52812,0.78236 -0.91696,1.01791 -0.38884,0.23555 -0.83003,0.35333 -1.32356,0.35333 -0.84125,0 -1.52733,-0.3094 -2.05825,-0.92818 -0.53092,-0.61878 -0.79638,-1.63856 -0.79638,-3.05933 0,-1.58902 0.2935,-2.74433 0.88051,-3.46594 0.51222,-0.62812 1.20204,-0.94219 2.06946,-0.9422 0.64683,1e-5 1.17681,0.18135 1.58996,0.54401 0.41314,0.36268 0.66084,0.86369 0.7431,1.50303 z m -4.12211,3.54445 c 0,0.34772 0.0738,0.68048 0.22153,0.99828 0.14768,0.31781 0.35426,0.5599 0.61972,0.72628 0.26546,0.16638 0.544,0.24957 0.83564,0.24957 0.42623,0 0.79263,-0.17199 1.09923,-0.51597 0.30658,-0.34397 0.45987,-0.81133 0.45988,-1.40208 -1e-5,-0.5683 -0.15143,-1.01603 -0.45427,-1.34319 -0.30286,-0.32715 -0.68422,-0.49072 -1.1441,-0.49073 -0.45615,10e-6 -0.84312,0.16358 -1.16092,0.49073 -0.31781,0.32716 -0.47671,0.75619 -0.47671,1.28711 z"
         id="path7808" />
    </g>
    <g
       transform="matrix(1.0067641,0,0,0.99328135,-144.55521,-407.67394)"
       style="font-size:11.48582458px;text-anchor:end;fill:#000000;stroke:none;font-family:Arial"
       id="text12086-1-4">
      <path
         d="m 177.07787,893.75748 0,-0.97024 5.32229,0 0,0.78516 c -0.52345,0.5571 -1.04222,1.2974 -1.55631,2.22089 -0.5141,0.92351 -0.91135,1.87318 -1.19177,2.84903 -0.2019,0.68795 -0.33089,1.44133 -0.38697,2.26015 l -1.03754,0 c 0.0112,-0.64683 0.13834,-1.42825 0.38137,-2.34428 0.24302,-0.91602 0.59167,-1.79933 1.04595,-2.64993 0.45427,-0.85058 0.93752,-1.56751 1.44975,-2.15078 z"
         id="path7805" />
    </g>
    <g
       transform="matrix(1.0067641,0,0,0.99328135,-144.55521,-407.67394)"
       style="font-size:11.48582458px;text-anchor:end;fill:#000000;stroke:none;font-family:Arial"
       id="text12090-2-1">
      <path
         d="m 178.56407,877.05049 c -0.41876,-0.15329 -0.72908,-0.37202 -0.93098,-0.65618 -0.2019,-0.28415 -0.30285,-0.62438 -0.30285,-1.02071 0,-0.59821 0.21499,-1.10109 0.64496,-1.50864 0.42997,-0.40753 1.00201,-0.61129 1.71614,-0.6113 0.71786,1e-5 1.29552,0.20845 1.73297,0.62532 0.43744,0.4169 0.65617,0.92445 0.65617,1.52266 0,0.38137 -0.10002,0.7132 -0.30004,0.99548 -0.20004,0.28229 -0.50382,0.50008 -0.91135,0.65337 0.50474,0.16451 0.88891,0.42997 1.15251,0.79638 0.26358,0.36641 0.39538,0.80386 0.39538,1.31234 0,0.70291 -0.24864,1.29365 -0.7459,1.77223 -0.49728,0.47857 -1.15158,0.71786 -1.96291,0.71786 -0.81134,0 -1.46564,-0.24022 -1.96291,-0.72067 -0.49727,-0.48044 -0.74591,-1.07959 -0.74591,-1.79746 0,-0.53466 0.13553,-0.98239 0.4066,-1.34319 0.27107,-0.3608 0.65711,-0.60663 1.15812,-0.73749 z m -0.2019,-1.71054 c 0,0.38885 0.12525,0.70665 0.37576,0.95341 0.2505,0.24677 0.57578,0.37016 0.97584,0.37015 0.38884,10e-6 0.70758,-0.12244 0.95622,-0.36734 0.24863,-0.24489 0.37295,-0.54494 0.37295,-0.90014 0,-0.37014 -0.12806,-0.6814 -0.38416,-0.93378 -0.25612,-0.25237 -0.57486,-0.37855 -0.95622,-0.37856 -0.38511,10e-6 -0.70478,0.12339 -0.95902,0.37015 -0.25425,0.24677 -0.38137,0.54214 -0.38137,0.88611 z m -0.32528,3.79683 c 0,0.28789 0.0682,0.56644 0.2047,0.83564 0.13647,0.2692 0.3393,0.47764 0.6085,0.62532 0.2692,0.14769 0.55896,0.22153 0.86929,0.22153 0.48231,0 0.8805,-0.15516 1.19457,-0.46549 0.31406,-0.31032 0.4711,-0.70477 0.4711,-1.18335 0,-0.48605 -0.16171,-0.88798 -0.48512,-1.20579 -0.32341,-0.3178 -0.72815,-0.4767 -1.2142,-0.47671 -0.47484,10e-6 -0.86835,0.15704 -1.18055,0.4711 -0.31219,0.31407 -0.46829,0.70665 -0.46829,1.17775 z"
         id="path7802" />
    </g>
    <g
       transform="matrix(1.0067641,0,0,0.99328135,-144.55521,-407.67394)"
       style="font-size:11.48582458px;text-anchor:end;fill:#000000;stroke:none;font-family:Arial"
       id="text12094-6-3">
      <path
         d="m 177.16199,860.21444 0.97024,-0.0897 c 0.0823,0.45614 0.23929,0.78704 0.4711,0.99267 0.23181,0.20564 0.52905,0.30846 0.89172,0.30846 0.31032,0 0.58233,-0.071 0.81601,-0.21312 0.23368,-0.14207 0.42529,-0.33182 0.57485,-0.56924 0.14955,-0.23742 0.2748,-0.55803 0.37576,-0.96183 0.10094,-0.40379 0.15142,-0.81507 0.15142,-1.23382 0,-0.0449 -0.002,-0.11217 -0.006,-0.2019 -0.2019,0.32154 -0.47764,0.58233 -0.82722,0.78236 -0.34959,0.20003 -0.72815,0.30004 -1.13568,0.30004 -0.68048,0 -1.25627,-0.24676 -1.72736,-0.7403 -0.4711,-0.49352 -0.70665,-1.14409 -0.70665,-1.95169 0,-0.83376 0.24583,-1.50489 0.73749,-2.01338 0.49166,-0.50848 1.10764,-0.76273 1.84794,-0.76273 0.53466,0 1.02351,0.14395 1.46657,0.43184 0.44306,0.2879 0.77955,0.69824 1.0095,1.23102 0.22994,0.5328 0.34491,1.30394 0.34491,2.31343 0,1.05063 -0.11404,1.8872 -0.34211,2.50972 -0.22807,0.62252 -0.56738,1.09642 -1.0179,1.42171 -0.45054,0.32528 -0.97866,0.48792 -1.58435,0.48792 -0.64309,0 -1.1684,-0.17853 -1.57594,-0.53559 -0.40754,-0.35707 -0.65243,-0.85901 -0.73469,-1.50584 z m 4.13333,-3.62857 c -1e-5,-0.57952 -0.15423,-1.03941 -0.46269,-1.37965 -0.30846,-0.34023 -0.67954,-0.51035 -1.11325,-0.51036 -0.44867,10e-6 -0.83938,0.18322 -1.17213,0.54962 -0.33277,0.36641 -0.49915,0.84125 -0.49914,1.42451 -1e-5,0.52345 0.15796,0.94874 0.4739,1.27589 0.31593,0.32716 0.70571,0.49073 1.16933,0.49073 0.46736,0 0.85153,-0.16357 1.15251,-0.49073 0.30097,-0.32715 0.45146,-0.78048 0.45147,-1.36001 z"
         id="path7799" />
    </g>
    <g
       transform="matrix(1.0067641,0,0,0.99328134,-144.55521,-407.67394)"
       style="font-size:11.04808903px;font-style:normal;font-variant:normal;font-weight:normal;font-stretch:normal;text-align:center;line-height:125%;writing-mode:lr-tb;text-anchor:middle;fill:#000000;stroke:none;font-family:Arial;-inkscape-font-specification:Arial"
       id="text12112-8-5">
      <path
         d="m 191.65119,1041.1157 c 0,-0.935 0.0962,-1.6876 0.28861,-2.2576 0.19241,-0.57 0.47832,-1.0097 0.85774,-1.319 0.37942,-0.3093 0.85684,-0.4639 1.43226,-0.4639 0.42437,0 0.7966,0.085 1.11668,0.2562 0.32007,0.1709 0.58441,0.4172 0.793,0.7391 0.20859,0.3219 0.37222,0.7139 0.49091,1.176 0.11867,0.4621 0.17801,1.0852 0.17802,1.8692 -1e-5,0.9279 -0.0953,1.6768 -0.28591,2.2469 -0.19062,0.57 -0.47563,1.0105 -0.85504,1.3216 -0.37943,0.3111 -0.85865,0.4667 -1.43766,0.4667 -0.76243,0 -1.36123,-0.2734 -1.79639,-0.82 -0.52148,-0.6582 -0.78222,-1.7299 -0.78222,-3.2152 z m 0.998,0 c 0,1.2983 0.15195,2.1623 0.45584,2.5921 0.30389,0.4298 0.67882,0.6447 1.12477,0.6447 0.44595,0 0.82087,-0.2158 1.12477,-0.6474 0.30389,-0.4316 0.45584,-1.2947 0.45584,-2.5894 0,-1.3019 -0.15195,-2.1668 -0.45584,-2.5948 -0.3039,-0.4279 -0.68242,-0.6419 -1.13556,-0.6419 -0.44595,0 -0.80199,0.1888 -1.06812,0.5664 -0.33447,0.4819 -0.5017,1.372 -0.5017,2.6703 z"
         style="line-height:125%;font-family:Arial;-inkscape-font-specification:Arial"
         id="path7796" />
    </g>
    <g
       transform="matrix(1.0067641,0,0,0.99328134,-144.55521,-407.67394)"
       style="font-size:11.04808807px;font-style:normal;font-variant:normal;font-weight:normal;font-stretch:normal;text-align:center;line-height:125%;writing-mode:lr-tb;text-anchor:middle;fill:#000000;stroke:none;font-family:Arial;-inkscape-font-specification:Arial"
       id="text12124-9-6">
      <path
         d="m 222.71291,1042.9283 0.97102,-0.1295 c 0.11149,0.5503 0.3012,0.9468 0.56913,1.1895 0.26793,0.2428 0.5943,0.3642 0.97911,0.3642 0.45674,0 0.84245,-0.1583 1.15714,-0.4748 0.31468,-0.3164 0.47202,-0.7084 0.47202,-1.176 0,-0.4459 -0.14565,-0.8137 -0.43696,-1.1032 -0.29131,-0.2895 -0.66173,-0.4342 -1.11128,-0.4342 -0.18342,0 -0.41179,0.036 -0.68511,0.1079 l 0.10789,-0.8524 c 0.0647,0.01 0.11688,0.011 0.15645,0.011 0.41358,0 0.7858,-0.1079 1.11667,-0.3237 0.33087,-0.2157 0.4963,-0.5484 0.4963,-0.998 0,-0.356 -0.12048,-0.6509 -0.36143,-0.8847 -0.24096,-0.2337 -0.55205,-0.3506 -0.93326,-0.3506 -0.37763,0 -0.69231,0.1187 -0.94406,0.356 -0.25174,0.2374 -0.41358,0.5934 -0.48551,1.0681 l -0.97102,-0.1726 c 0.11868,-0.6509 0.38841,-1.1553 0.80919,-1.5132 0.42077,-0.3578 0.94404,-0.5367 1.56982,-0.5367 0.43156,0 0.82896,0.093 1.1922,0.2778 0.36323,0.1852 0.64105,0.4379 0.83346,0.7579 0.1924,0.3201 0.2886,0.66 0.28861,1.0196 -1e-5,0.3417 -0.0917,0.6528 -0.27512,0.9333 -0.18342,0.2805 -0.45495,0.5035 -0.81458,0.6689 0.46752,0.1079 0.83075,0.3318 1.0897,0.6716 0.25893,0.3399 0.3884,0.7652 0.38841,1.2758 -10e-6,0.6905 -0.25175,1.2759 -0.75524,1.756 -0.5035,0.4801 -1.14006,0.7202 -1.90968,0.7202 -0.69411,0 -1.27043,-0.2068 -1.72896,-0.6204 -0.45854,-0.4136 -0.72018,-0.9495 -0.78491,-1.6076 z"
         style="line-height:125%;font-family:Arial;-inkscape-font-specification:Arial"
         id="path7791" />
      <path
         d="m 228.85733,1041.1157 c 0,-0.935 0.0962,-1.6876 0.28861,-2.2576 0.1924,-0.57 0.47831,-1.0097 0.85773,-1.319 0.37942,-0.3093 0.85684,-0.4639 1.43226,-0.4639 0.42437,0 0.7966,0.085 1.11668,0.2562 0.32007,0.1709 0.58441,0.4172 0.793,0.7391 0.20859,0.3219 0.37222,0.7139 0.49091,1.176 0.11867,0.4621 0.17801,1.0852 0.17802,1.8692 -1e-5,0.9279 -0.0953,1.6768 -0.28591,2.2469 -0.19062,0.57 -0.47563,1.0105 -0.85504,1.3216 -0.37942,0.3111 -0.85864,0.4667 -1.43766,0.4667 -0.76243,0 -1.36123,-0.2734 -1.79639,-0.82 -0.52148,-0.6582 -0.78221,-1.7299 -0.78221,-3.2152 z m 0.99799,0 c 0,1.2983 0.15195,2.1623 0.45584,2.5921 0.3039,0.4298 0.67882,0.6447 1.12477,0.6447 0.44595,0 0.82087,-0.2158 1.12477,-0.6474 0.30389,-0.4316 0.45584,-1.2947 0.45584,-2.5894 0,-1.3019 -0.15195,-2.1668 -0.45584,-2.5948 -0.3039,-0.4279 -0.68241,-0.6419 -1.13556,-0.6419 -0.44595,0 -0.80199,0.1888 -1.06812,0.5664 -0.33447,0.4819 -0.5017,1.372 -0.5017,2.6703 z"
         style="line-height:125%;font-family:Arial;-inkscape-font-specification:Arial"
         id="path7793" />
    </g>
    <g
       transform="matrix(1.0067641,0,0,0.99328134,-144.55521,-407.67394)"
       style="font-size:11.04808807px;font-style:normal;font-variant:normal;font-weight:normal;font-stretch:normal;text-align:center;line-height:125%;writing-mode:lr-tb;text-anchor:middle;fill:#000000;stroke:none;font-family:Arial;-inkscape-font-specification:Arial"
       id="text12136-3-9">
      <path
         d="m 261.55145,1039.0442 -0.96563,0.075 c -0.0863,-0.3812 -0.20859,-0.6581 -0.36683,-0.8307 -0.26254,-0.277 -0.58621,-0.4154 -0.97102,-0.4154 -0.3093,0 -0.58082,0.086 -0.81458,0.2589 -0.3057,0.223 -0.54666,0.5485 -0.72288,0.9764 -0.17622,0.428 -0.26793,1.0376 -0.27512,1.8288 0.23376,-0.356 0.51967,-0.6204 0.85774,-0.793 0.33805,-0.1726 0.6923,-0.2589 1.06273,-0.2589 0.64734,0 1.19849,0.2382 1.65343,0.7147 0.45494,0.4766 0.68241,1.0924 0.68242,1.8477 -10e-6,0.4963 -0.107,0.9575 -0.32098,1.3837 -0.21399,0.4262 -0.50799,0.7525 -0.88201,0.9791 -0.37403,0.2266 -0.7984,0.3399 -1.27312,0.3399 -0.80919,0 -1.46913,-0.2976 -1.97981,-0.8928 -0.51069,-0.5952 -0.76603,-1.5762 -0.76603,-2.9428 0,-1.5284 0.28232,-2.6397 0.84695,-3.3338 0.4927,-0.6042 1.15623,-0.9063 1.9906,-0.9063 0.62217,0 1.13195,0.1744 1.52936,0.5233 0.39739,0.3488 0.63565,0.8307 0.71478,1.4457 z m -3.96501,3.4094 c 0,0.3344 0.071,0.6545 0.21308,0.9602 0.14206,0.3057 0.34076,0.5386 0.5961,0.6986 0.25534,0.16 0.52327,0.2401 0.8038,0.2401 0.40998,0 0.76242,-0.1655 1.05733,-0.4963 0.2949,-0.3309 0.44235,-0.7805 0.44236,-1.3487 -1e-5,-0.5466 -0.14566,-0.9773 -0.43696,-1.292 -0.29131,-0.3147 -0.65815,-0.472 -1.1005,-0.472 -0.43876,0 -0.81098,0.1573 -1.11667,0.472 -0.3057,0.3147 -0.45854,0.7274 -0.45854,1.2381 z"
         style="line-height:125%;font-family:Arial;-inkscape-font-specification:Arial"
         id="path7786" />
      <path
         d="m 262.66273,1041.1157 c 0,-0.935 0.0962,-1.6876 0.28861,-2.2576 0.19241,-0.57 0.47832,-1.0097 0.85774,-1.319 0.37942,-0.3093 0.85683,-0.4639 1.43226,-0.4639 0.42437,0 0.79659,0.085 1.11668,0.2562 0.32007,0.1709 0.5844,0.4172 0.793,0.7391 0.20858,0.3219 0.37222,0.7139 0.4909,1.176 0.11868,0.4621 0.17802,1.0852 0.17802,1.8692 0,0.9279 -0.0953,1.6768 -0.28591,2.2469 -0.19061,0.57 -0.47562,1.0105 -0.85504,1.3216 -0.37942,0.3111 -0.85864,0.4667 -1.43765,0.4667 -0.76244,0 -1.36123,-0.2734 -1.79639,-0.82 -0.52148,-0.6582 -0.78222,-1.7299 -0.78222,-3.2152 z m 0.998,0 c 0,1.2983 0.15194,2.1623 0.45584,2.5921 0.30389,0.4298 0.67881,0.6447 1.12477,0.6447 0.44595,0 0.82087,-0.2158 1.12477,-0.6474 0.30389,-0.4316 0.45583,-1.2947 0.45584,-2.5894 -1e-5,-1.3019 -0.15195,-2.1668 -0.45584,-2.5948 -0.3039,-0.4279 -0.68242,-0.6419 -1.13556,-0.6419 -0.44595,0 -0.802,0.1888 -1.06813,0.5664 -0.33446,0.4819 -0.50169,1.372 -0.50169,2.6703 z"
         style="line-height:125%;font-family:Arial;-inkscape-font-specification:Arial"
         id="path7788" />
    </g>
    <g
       transform="matrix(1.0067641,0,0,0.99328134,-144.55521,-407.67394)"
       style="font-size:11.04808807px;font-style:normal;font-variant:normal;font-weight:normal;font-stretch:normal;text-align:center;line-height:125%;writing-mode:lr-tb;text-anchor:middle;fill:#000000;stroke:none;font-family:Arial;-inkscape-font-specification:Arial"
       id="text12148-1-9">
      <path
         d="m 291.96369,1043.1872 0.93326,-0.086 c 0.0791,0.4388 0.23016,0.7571 0.45314,0.9549 0.22297,0.1978 0.50889,0.2967 0.85774,0.2967 0.2985,0 0.56013,-0.068 0.78491,-0.205 0.22477,-0.1367 0.40908,-0.3192 0.55294,-0.5476 0.14385,-0.2284 0.26433,-0.5367 0.36144,-0.9252 0.0971,-0.3884 0.14565,-0.784 0.14565,-1.1868 0,-0.043 -0.002,-0.1078 -0.005,-0.1942 -0.19421,0.3093 -0.45944,0.5602 -0.7957,0.7526 -0.33627,0.1924 -0.7004,0.2886 -1.0924,0.2886 -0.65455,0 -1.20839,-0.2374 -1.66153,-0.7121 -0.45315,-0.4747 -0.67972,-1.1005 -0.67972,-1.8773 0,-0.802 0.23646,-1.4475 0.70939,-1.9367 0.47292,-0.4891 1.06542,-0.7336 1.77751,-0.7336 0.51428,0 0.98451,0.1384 1.41068,0.4154 0.42617,0.2769 0.74984,0.6716 0.97103,1.1841 0.22117,0.5125 0.33176,1.2542 0.33176,2.2252 0,1.0106 -0.10969,1.8153 -0.32907,2.4141 -0.21938,0.5988 -0.54575,1.0546 -0.97911,1.3675 -0.43337,0.3129 -0.94136,0.4694 -1.52397,0.4694 -0.61858,0 -1.12387,-0.1718 -1.51588,-0.5152 -0.392,-0.3435 -0.62756,-0.8263 -0.70668,-1.4485 z m 3.9758,-3.4903 c -10e-6,-0.5574 -0.14836,-0.9997 -0.44506,-1.327 -0.2967,-0.3273 -0.65364,-0.4909 -1.07082,-0.4909 -0.43157,0 -0.80739,0.1762 -1.12746,0.5286 -0.32008,0.3525 -0.48012,0.8092 -0.48012,1.3703 0,0.5035 0.15194,0.9125 0.45584,1.2272 0.30389,0.3147 0.67881,0.4721 1.12477,0.4721 0.44954,0 0.81907,-0.1574 1.10858,-0.4721 0.28951,-0.3147 0.43426,-0.7507 0.43427,-1.3082 z"
         style="line-height:125%;font-family:Arial;-inkscape-font-specification:Arial"
         id="path7781" />
      <path
         d="m 297.96785,1041.1157 c 0,-0.935 0.0962,-1.6876 0.28861,-2.2576 0.1924,-0.57 0.47831,-1.0097 0.85773,-1.319 0.37942,-0.3093 0.85684,-0.4639 1.43226,-0.4639 0.42437,0 0.7966,0.085 1.11668,0.2562 0.32007,0.1709 0.58441,0.4172 0.793,0.7391 0.20859,0.3219 0.37222,0.7139 0.49091,1.176 0.11867,0.4621 0.17801,1.0852 0.17802,1.8692 -1e-5,0.9279 -0.0953,1.6768 -0.28591,2.2469 -0.19062,0.57 -0.47563,1.0105 -0.85504,1.3216 -0.37943,0.3111 -0.85864,0.4667 -1.43766,0.4667 -0.76243,0 -1.36123,-0.2734 -1.79639,-0.82 -0.52148,-0.6582 -0.78221,-1.7299 -0.78221,-3.2152 z m 0.99799,0 c 0,1.2983 0.15195,2.1623 0.45584,2.5921 0.3039,0.4298 0.67882,0.6447 1.12477,0.6447 0.44595,0 0.82087,-0.2158 1.12477,-0.6474 0.30389,-0.4316 0.45584,-1.2947 0.45584,-2.5894 0,-1.3019 -0.15195,-2.1668 -0.45584,-2.5948 -0.3039,-0.4279 -0.68242,-0.6419 -1.13556,-0.6419 -0.44595,0 -0.80199,0.1888 -1.06812,0.5664 -0.33447,0.4819 -0.5017,1.372 -0.5017,2.6703 z"
         style="line-height:125%;font-family:Arial;-inkscape-font-specification:Arial"
         id="path7783" />
    </g>
    <g
       transform="matrix(1.006764,0,0,0.99328144,-144.55521,-407.67394)"
       style="font-size:11.04808807px;font-style:normal;font-variant:normal;font-weight:normal;font-stretch:normal;text-align:start;line-height:125%;writing-mode:lr-tb;text-anchor:start;fill:#000000;fill-opacity:1;stroke:none;display:inline;font-family:DejaVu Sans;-inkscape-font-specification:DejaVu Sans"
       id="text12386-3-5">
      <path
         d="m 200.83877,823.16672 0,1.06273 c -0.41359,-0.1978 -0.8038,-0.34525 -1.17062,-0.44236 -0.36684,-0.0971 -0.72108,-0.14564 -1.06274,-0.14565 -0.5934,10e-6 -1.05104,0.11509 -1.37291,0.34525 -0.32188,0.23018 -0.48282,0.55745 -0.48282,0.98181 0,0.35605 0.10699,0.62488 0.32098,0.80649 0.21398,0.18163 0.61947,0.32818 1.21648,0.43966 l 0.65813,0.13487 c 0.81278,0.15464 1.41248,0.42707 1.79909,0.81727 0.38661,0.39021 0.57991,0.91259 0.57992,1.56713 -10e-6,0.78041 -0.26164,1.37202 -0.78491,1.77481 -0.52328,0.4028 -1.29021,0.60419 -2.30079,0.60419 -0.38122,0 -0.78671,-0.0432 -1.21647,-0.12947 -0.42977,-0.0863 -0.87482,-0.21398 -1.33516,-0.38301 l 0,-1.12207 c 0.44235,0.24815 0.87572,0.43516 1.30009,0.56103 0.42437,0.12588 0.84155,0.18882 1.25154,0.18881 0.62217,10e-6 1.10229,-0.12227 1.44036,-0.36683 0.33805,-0.24455 0.50708,-0.5934 0.50709,-1.04654 -10e-6,-0.3956 -0.12139,-0.70489 -0.36414,-0.92787 -0.24276,-0.22297 -0.64106,-0.3902 -1.1949,-0.5017 l -0.66353,-0.12947 c -0.81278,-0.16183 -1.40079,-0.41537 -1.76403,-0.76063 -0.36323,-0.34525 -0.54485,-0.82537 -0.54485,-1.44035 0,-0.71208 0.25085,-1.27311 0.75255,-1.68311 0.50169,-0.40998 1.19309,-0.61497 2.07421,-0.61498 0.37762,1e-5 0.76243,0.0342 1.15444,0.1025 0.392,0.0683 0.793,0.17083 1.20299,0.30749 z"
         style="line-height:125%;font-family:DejaVu Sans;-inkscape-font-specification:DejaVu Sans"
         id="path7829" />
      <path
         d="m 209.05471,823.52276 0,1.14904 c -0.36684,-0.34165 -0.75795,-0.59699 -1.17332,-0.76603 -0.41539,-0.16902 -0.85685,-0.25353 -1.32437,-0.25354 -0.92068,10e-6 -1.62557,0.28142 -2.11468,0.84425 -0.48911,0.56284 -0.73366,1.37652 -0.73366,2.44104 0,1.06094 0.24455,1.87282 0.73366,2.43565 0.48911,0.56284 1.194,0.84426 2.11468,0.84426 0.46752,0 0.90898,-0.0845 1.32437,-0.25355 0.41537,-0.16903 0.80648,-0.42437 1.17332,-0.76603 l 0,1.13826 c -0.38123,0.25894 -0.78492,0.45314 -1.21109,0.58261 -0.42617,0.12947 -0.87662,0.1942 -1.35134,0.1942 -1.21917,0 -2.17941,-0.37312 -2.8807,-1.11937 -0.7013,-0.74625 -1.05194,-1.76492 -1.05194,-3.05603 0,-1.29469 0.35064,-2.31516 1.05194,-3.06142 0.70129,-0.74624 1.66153,-1.11936 2.8807,-1.11937 0.48191,1e-5 0.93596,0.0638 1.36213,0.19151 0.42617,0.12768 0.82626,0.31918 1.2003,0.57452 z"
         style="line-height:125%;font-family:DejaVu Sans;-inkscape-font-specification:DejaVu Sans"
         id="path7831" />
      <path
         d="m 213.44049,823.9759 -1.47811,4.00817 2.96162,0 z m -0.61498,-1.07352 1.23536,0 3.06951,8.0541 -1.13286,0 -0.73366,-2.06612 -3.63055,0 -0.73366,2.06612 -1.14904,0 z"
         style="line-height:125%;font-family:DejaVu Sans;-inkscape-font-specification:DejaVu Sans"
         id="path7833" />
      <path
         d="m 218.30101,822.90238 1.0897,0 0,7.13702 3.92185,0 0,0.91708 -5.01155,0 z"
         style="line-height:125%;font-family:DejaVu Sans;-inkscape-font-specification:DejaVu Sans"
         id="path7835" />
      <path
         d="m 224.45082,822.90238 5.09248,0 0,0.91708 -4.00278,0 0,2.3844 3.83555,0 0,0.91708 -3.83555,0 0,2.91846 4.09988,0 0,0.91708 -5.18958,0 z"
         style="line-height:125%;font-family:DejaVu Sans;-inkscape-font-specification:DejaVu Sans"
         id="path7837" />
      <path
         d="m 238.51211,822.57331 c -0.48192,0.82718 -0.83976,1.64536 -1.07352,2.45453 -0.23377,0.8092 -0.35065,1.62917 -0.35065,2.45993 0,0.83077 0.11778,1.65344 0.35335,2.46802 0.23556,0.81458 0.5925,1.63365 1.07082,2.45723 l -0.86313,0 c -0.53946,-0.84515 -0.94315,-1.67592 -1.21108,-2.4923 -0.26794,-0.81637 -0.4019,-1.62736 -0.4019,-2.43295 0,-0.80199 0.13307,-1.60938 0.3992,-2.42216 0.26613,-0.81278 0.67072,-1.64354 1.21378,-2.4923 z"
         style="line-height:125%;font-family:DejaVu Sans;-inkscape-font-specification:DejaVu Sans"
         id="path7839" />
      <path
         d="m 240.4056,822.56252 0.998,0 0,4.95762 2.96162,-2.60558 1.26773,0 -3.20438,2.82676 3.33924,3.21516 -1.2947,0 -3.06951,-2.95083 0,2.95083 -0.998,0 z"
         style="line-height:125%;font-family:DejaVu Sans;-inkscape-font-specification:DejaVu Sans"
         id="path7841" />
      <path
         d="m 246.69568,822.57331 0.86313,0 c 0.53946,0.84876 0.94315,1.67952 1.21108,2.4923 0.26793,0.81278 0.4019,1.62017 0.4019,2.42216 0,0.80559 -0.13397,1.61658 -0.4019,2.43295 -0.26793,0.81638 -0.67162,1.64715 -1.21108,2.4923 l -0.86313,0 c 0.47832,-0.82358 0.83526,-1.64265 1.07082,-2.45723 0.23556,-0.81458 0.35335,-1.63725 0.35335,-2.46802 0,-0.83076 -0.11779,-1.65073 -0.35335,-2.45993 -0.23556,-0.80917 -0.5925,-1.62735 -1.07082,-2.45453 z"
         style="line-height:125%;font-family:DejaVu Sans;-inkscape-font-specification:DejaVu Sans"
         id="path7843" />
    </g>
    <g
       transform="matrix(1.006764,0,0,0.99328144,-144.55521,-407.67394)"
       style="font-size:10.05009842px;font-style:normal;font-variant:normal;font-weight:normal;font-stretch:normal;text-align:start;line-height:125%;writing-mode:lr-tb;text-anchor:start;fill:#000000;fill-opacity:1;stroke:none;display:inline;font-family:DejaVu Sans;-inkscape-font-specification:DejaVu Sans"
       id="text12390-1-6">
      <path
         d="m 213.90287,1049.3684 0.99127,0 0,6.4923 3.56758,0 0,0.8342 -4.55885,0 z"
         id="path7764" />
      <path
         d="m 221.94589,1050.3449 -1.34459,3.6461 2.69409,0 z m -0.55943,-0.9765 1.12377,0 2.79224,7.3265 -1.03053,0 -0.66739,-1.8794 -3.3026,0 -0.66739,1.8794 -1.04525,0 z"
         id="path7766" />
      <path
         d="m 225.35154,1049.3684 6.19789,0 0,0.8342 -2.60086,0 0,6.4923 -0.99618,0 0,-6.4923 -2.60085,0 z"
         id="path7768" />
      <path
         d="m 232.51125,1049.3684 0.99127,0 0,7.3265 -0.99127,0 z"
         id="path7770" />
      <path
         d="m 234.45944,1049.3684 6.19789,0 0,0.8342 -2.60086,0 0,6.4923 -0.99617,0 0,-6.4923 -2.60086,0 z"
         id="path7772" />
      <path
         d="m 241.50629,1049.3684 0.99617,0 0,4.4509 c 0,0.7851 0.14231,1.3503 0.42694,1.6954 0.28462,0.3452 0.7459,0.5178 1.38385,0.5178 0.63467,0 1.09431,-0.1726 1.37894,-0.5178 0.28462,-0.3451 0.42693,-0.9103 0.42693,-1.6954 l 0,-4.4509 0.99618,0 0,4.5736 c -1e-5,0.9552 -0.23637,1.6766 -0.7091,2.1641 -0.47274,0.4874 -1.17039,0.7312 -2.09295,0.7312 -0.92584,0 -1.62513,-0.2438 -2.09786,-0.7312 -0.47274,-0.4875 -0.7091,-1.2089 -0.7091,-2.1641 z"
         id="path7774" />
      <path
         d="m 249.97133,1050.183 0,5.6973 1.19738,0 c 1.01089,0 1.75107,-0.229 2.22054,-0.687 0.46946,-0.458 0.70419,-1.181 0.70419,-2.169 0,-0.9814 -0.23473,-1.7004 -0.70419,-2.1567 -0.46947,-0.4564 -1.20965,-0.6846 -2.22054,-0.6846 z m -0.99127,-0.8146 2.03652,0 c 1.41984,0 2.46181,0.2952 3.12594,0.8857 0.66411,0.5906 0.99617,1.5139 0.99617,2.7702 0,1.2628 -0.3337,2.1903 -1.00108,2.7824 -0.6674,0.5922 -1.70774,0.8882 -3.12103,0.8882 l -2.03652,0 z"
         id="path7776" />
      <path
         d="m 256.71393,1049.3684 4.63247,0 0,0.8342 -3.6412,0 0,2.169 3.48907,0 0,0.8343 -3.48907,0 0,2.6548 3.72953,0 0,0.8342 -4.7208,0 z"
         id="path7778" />
    </g>
    <g
       transform="matrix(1.0067641,0,0,0.99328135,-144.55521,-407.67394)"
       style="font-size:11.48582458px;text-anchor:end;fill:#000000;stroke:none;font-family:Arial"
       id="text12094-6-8-6">
      <path
         d="m 175.44078,843.17419 -1.00949,0 0,-6.43273 c -0.24303,0.23182 -0.56177,0.46363 -0.95622,0.69543 -0.39445,0.23182 -0.74871,0.40567 -1.06278,0.52157 l 0,-0.97584 c 0.56457,-0.26546 1.0581,-0.587 1.4806,-0.96463 0.42249,-0.37762 0.7216,-0.74403 0.89733,-1.09923 l 0.65056,0 z"
         id="path7759" />
      <path
         d="m 178.03182,839.11938 c 0,-0.9721 0.10002,-1.75446 0.30005,-2.34707 0.20003,-0.59261 0.49727,-1.04969 0.89172,-1.37124 0.39445,-0.32153 0.89078,-0.4823 1.48901,-0.48231 0.44118,10e-6 0.82815,0.0888 1.16092,0.26639 0.33275,0.17761 0.60756,0.43372 0.82442,0.76834 0.21685,0.33464 0.38697,0.74217 0.51036,1.22261 0.12337,0.48045 0.18506,1.12821 0.18507,1.94328 -1e-5,0.96464 -0.0991,1.74326 -0.29724,2.33587 -0.19817,0.59261 -0.49447,1.05062 -0.88892,1.37403 -0.39445,0.32342 -0.89266,0.48512 -1.49461,0.48512 -0.79265,0 -1.41517,-0.28415 -1.86757,-0.85246 -0.54214,-0.68421 -0.81321,-1.7984 -0.81321,-3.34256 z m 1.03754,0 c 0,1.34974 0.15797,2.248 0.4739,2.6948 0.31594,0.44679 0.70571,0.67019 1.16934,0.67019 0.46361,0 0.85339,-0.22433 1.16933,-0.673 0.31593,-0.44866 0.4739,-1.34599 0.4739,-2.69199 0,-1.35346 -0.15797,-2.25266 -0.4739,-2.69759 -0.31594,-0.44492 -0.70946,-0.66739 -1.18055,-0.66739 -0.46362,0 -0.83377,0.19629 -1.11045,0.58887 -0.34771,0.50101 -0.52157,1.42639 -0.52157,2.77611 z"
         id="path7761" />
    </g>
    <g
       id="g8930"
       transform="translate(-434.82852,-668.48006)">
      <g
         transform="matrix(0.28088062,0,0,0.96789302,458.78256,1068.7268)"
         id="g12158-4-5"
         style="font-size:10.3644495px;fill:none;stroke:#786a66;stroke-width:1;stroke-opacity:1">
        <path
           d="m 95,225 364,0"
           id="path12160-2-0"
           style="font-size:10.3644495px;stroke:#786a66;stroke-opacity:1" />
      </g>
      <g
         transform="matrix(0.28088062,0,0,0.96789302,458.78256,1068.7268)"
         id="g12168-3-8"
         style="font-size:10.3644495px;fill:none;stroke:#786a66;stroke-width:1;stroke-opacity:1">
        <path
           d="m 95,205 364,0"
           id="path12170-1-0"
           style="font-size:10.3644495px;stroke:#786a66;stroke-opacity:1" />
      </g>
      <g
         transform="matrix(0.28088062,0,0,0.96789302,458.78256,1068.7268)"
         id="g12178-5-2"
         style="font-size:10.3644495px;fill:none;stroke:#786a66;stroke-width:1;stroke-opacity:1">
        <path
           d="m 95,185 364,0"
           id="path12180-0-2"
           style="font-size:10.3644495px;stroke:#786a66;stroke-opacity:1" />
      </g>
      <g
         transform="matrix(0.28088062,0,0,0.96789302,458.78256,1068.7268)"
         id="g12188-0-0"
         style="font-size:10.3644495px;fill:none;stroke:#786a66;stroke-width:1;stroke-opacity:1">
        <path
           d="m 95,165 364,0"
           id="path12190-2-3"
           style="font-size:10.3644495px;stroke:#786a66;stroke-opacity:1" />
      </g>
      <g
         transform="matrix(0.28088062,0,0,0.96789302,458.78256,1068.7268)"
         id="g12198-5-3"
         style="font-size:10.3644495px;fill:none;stroke:#786a66;stroke-width:1;stroke-opacity:1">
        <path
           d="m 95,145 364,0"
           id="path12200-0-7"
           style="font-size:10.3644495px;stroke:#786a66;stroke-opacity:1" />
      </g>
      <g
         transform="matrix(0.28088062,0,0,0.96789302,458.78256,1068.7268)"
         id="g12208-6-5"
         style="font-size:10.3644495px;fill:none;stroke:#786a66;stroke-width:1;stroke-opacity:1">
        <path
           d="m 95,126 364,0"
           id="path12210-1-5"
           style="font-size:10.3644495px;stroke:#786a66;stroke-opacity:1" />
      </g>
      <g
         transform="matrix(0.28088062,0,0,0.96789302,458.78256,1068.7268)"
         id="g12212-3-8"
         style="font-size:10.3644495px;fill:none;stroke:#786a66;stroke-width:2;stroke-opacity:1">
        <path
           d="m 95,126 -1.705888,0"
           id="path12214-8-3"
           style="font-size:10.3644495px;stroke:#786a66;stroke-opacity:1"
           sodipodi:nodetypes="cc" />
        <g
           transform="translate(67,133)"
           id="g12216-9-7"
           style="font-size:10.3644495px;text-anchor:end;fill:#000000;stroke:#786a66;stroke-opacity:1;font-family:Arial" />
      </g>
      <g
         transform="matrix(0.28088062,0,0,0.96789302,458.78256,1068.7268)"
         id="g12218-3-8"
         style="font-size:10.3644495px;fill:none;stroke:#786a66;stroke-width:1;stroke-opacity:1">
        <path
           d="m 95,106 364,0"
           id="path12220-4-3"
           style="font-size:10.3644495px;stroke:#786a66;stroke-opacity:1" />
      </g>
      <g
         transform="matrix(0.28088062,0,0,0.96789302,458.78256,1068.7268)"
         id="g12222-4-7"
         style="font-size:10.3644495px;fill:none;stroke:#786a66;stroke-width:2;stroke-opacity:1">
        <path
           d="m 95,106 0.193271,0.51765"
           id="path12224-6-9"
           style="font-size:10.3644495px;stroke:#786a66;stroke-opacity:1"
           sodipodi:nodetypes="cc" />
        <g
           transform="translate(67,113)"
           id="g12226-0-3"
           style="font-size:10.3644495px;text-anchor:end;fill:#000000;stroke:#786a66;stroke-opacity:1;font-family:Arial" />
      </g>
      <g
         transform="matrix(0.28088062,0,0,0.96789302,458.78256,1068.7268)"
         id="g12228-6-9"
         style="font-size:10.3644495px;fill:none;stroke:#786a66;stroke-width:1;stroke-opacity:1">
        <path
           d="m 95,86 364,0"
           id="path12230-6-1"
           style="font-size:10.3644495px;stroke:#786a66;stroke-opacity:1" />
      </g>
      <g
         transform="matrix(0.28088062,0,0,0.96789302,458.78256,1068.7268)"
         id="g12232-1-8"
         style="font-size:10.3644495px;fill:none;stroke:#786a66;stroke-width:2;stroke-opacity:1">
        <path
           d="m 95,86 0.193271,1.552948"
           id="path12234-8-2"
           style="font-size:10.3644495px;stroke:#786a66;stroke-opacity:1"
           sodipodi:nodetypes="cc" />
        <g
           transform="translate(67,93)"
           id="g12236-4-8"
           style="font-size:10.3644495px;text-anchor:end;fill:#000000;stroke:#786a66;stroke-opacity:1;font-family:Arial" />
      </g>
      <g
         transform="matrix(0.28088062,0,0,0.96789302,458.78256,1068.7268)"
         id="g12238-9-0"
         style="font-size:10.3644495px;fill:none;stroke:#786a66;stroke-width:1;stroke-opacity:1">
        <path
           d="m 95,66 364,0"
           id="path12240-6-1"
           style="font-size:10.3644495px;stroke:#786a66;stroke-opacity:1" />
      </g>
      <g
         transform="matrix(0.28088062,0,0,0.96789302,458.78256,1068.7268)"
         id="g12242-3-8"
         style="font-size:10.3644495px;fill:none;stroke:#786a66;stroke-width:2;stroke-opacity:1">
        <path
           d="m 95,66 0.193271,0"
           id="path12244-7-4"
           style="font-size:10.3644495px;stroke:#786a66;stroke-opacity:1"
           sodipodi:nodetypes="cc" />
        <g
           transform="translate(67,73)"
           id="g12246-8-8"
           style="font-size:10.3644495px;text-anchor:end;fill:#000000;stroke:#786a66;stroke-opacity:1;font-family:Arial" />
      </g>
      <g
         transform="matrix(0.28088062,0,0,0.96789302,458.78256,1068.7268)"
         id="g12248-8-6"
         style="font-size:10.3644495px;fill:none;stroke:#786a66;stroke-width:1;stroke-opacity:1">
        <path
           d="m 95,46 364,0"
           id="path12250-2-0"
           style="font-size:10.3644495px;stroke:#786a66;stroke-opacity:1" />
      </g>
      <g
         transform="matrix(0.28088062,0,0,0.96789302,458.78256,1068.7268)"
         id="g12252-9-9"
         style="font-size:10.3644495px;fill:none;stroke:#786a66;stroke-width:2;stroke-opacity:1">
        <path
           d="m 95,46 -0.756308,0.517649"
           id="path12254-1-3"
           style="font-size:10.3644495px;stroke:#786a66;stroke-opacity:1"
           sodipodi:nodetypes="cc" />
        <g
           transform="translate(67,53)"
           id="g12256-3-0"
           style="font-size:10.3644495px;text-anchor:end;fill:#000000;stroke:#786a66;stroke-opacity:1;font-family:Arial" />
      </g>
      <g
         transform="matrix(0.28088062,0,0,0.96789302,458.78256,1068.7268)"
         id="g12258-5-0"
         style="font-size:10.3644495px;fill:none;stroke:#786a66;stroke-width:1;stroke-opacity:1">
        <path
           d="m 95,26 364,0"
           id="path12260-9-8"
           style="font-size:10.3644495px;stroke:#786a66;stroke-opacity:1" />
      </g>
      <g
         transform="matrix(0.28088062,0,0,0.96789302,458.78256,1068.7268)"
         id="g12262-8-7"
         style="font-size:10.3644495px;fill:none;stroke:#786a66;stroke-width:0.99922466;stroke-miterlimit:4;stroke-opacity:1;stroke-dasharray:none">
        <path
           d="M 95,225 95,26"
           id="path12264-4-6"
           style="font-size:10.3644495px;stroke:#786a66;stroke-width:0.99922466;stroke-miterlimit:4;stroke-opacity:1;stroke-dasharray:none" />
      </g>
      <g
         transform="matrix(0.28088062,0,0,0.96789302,458.78256,1068.7268)"
         id="g12272-3-6"
         style="font-size:10.3644495px;fill:none;stroke:#786a66;stroke-width:1;stroke-opacity:1">
        <path
           d="M 135,225 135,26"
           id="path12274-6-5"
           style="font-size:10.3644495px;stroke:#786a66;stroke-opacity:1" />
      </g>
      <g
         transform="matrix(0.28088062,0,0,0.96789302,458.78256,1068.7268)"
         id="g12282-2-9"
         style="font-size:10.3644495px;fill:none;stroke:#786a66;stroke-width:1;stroke-opacity:1">
        <path
           d="M 176,225 176,26"
           id="path12284-0-4"
           style="font-size:10.3644495px;stroke:#786a66;stroke-opacity:1" />
      </g>
      <g
         transform="matrix(0.28088062,0,0,0.96789302,458.78256,1068.7268)"
         id="g12292-7-9"
         style="font-size:10.3644495px;fill:none;stroke:#786a66;stroke-width:1;stroke-opacity:1">
        <path
           d="M 216,225 216,26"
           id="path12294-2-7"
           style="font-size:10.3644495px;stroke:#786a66;stroke-opacity:1" />
      </g>
      <g
         transform="matrix(0.28088062,0,0,0.96789302,458.78256,1068.7268)"
         id="g12302-6-5"
         style="font-size:10.3644495px;fill:none;stroke:#786a66;stroke-width:1;stroke-opacity:1">
        <path
           d="M 257,225 257,26"
           id="path12304-5-8"
           style="font-size:10.3644495px;stroke:#786a66;stroke-opacity:1" />
      </g>
      <g
         transform="matrix(0.28088062,0,0,0.96789302,458.78256,1068.7268)"
         id="g12312-1-5"
         style="font-size:10.3644495px;fill:none;stroke:#786a66;stroke-width:1;stroke-opacity:1">
        <path
           d="M 297,225 297,26"
           id="path12314-2-5"
           style="font-size:10.3644495px;stroke:#786a66;stroke-opacity:1" />
      </g>
      <g
         transform="matrix(0.28088062,0,0,0.96789302,458.78256,1068.7268)"
         id="g12322-4-6"
         style="font-size:10.3644495px;fill:none;stroke:#786a66;stroke-width:1;stroke-opacity:1">
        <path
           d="M 338,225 338,26"
           id="path12324-6-4"
           style="font-size:10.3644495px;stroke:#786a66;stroke-opacity:1" />
      </g>
      <g
         transform="matrix(0.28088062,0,0,0.96789302,458.78256,1068.7268)"
         id="g12332-7-2"
         style="font-size:10.3644495px;fill:none;stroke:#786a66;stroke-width:1;stroke-opacity:1">
        <path
           d="M 378,225 378,26"
           id="path12334-7-5"
           style="font-size:10.3644495px;stroke:#786a66;stroke-opacity:1" />
      </g>
      <g
         transform="matrix(0.28088062,0,0,0.96789302,458.78256,1068.7268)"
         id="g12342-3-6"
         style="font-size:10.3644495px;fill:none;stroke:#786a66;stroke-width:1;stroke-opacity:1">
        <path
           d="M 419,225 419,26"
           id="path12344-5-8"
           style="font-size:10.3644495px;stroke:#786a66;stroke-opacity:1" />
      </g>
      <g
         transform="matrix(0.28088062,0,0,0.96789302,458.78256,1068.7268)"
         id="g12352-1-6"
         style="font-size:10.3644495px;fill:none;stroke:#786a66;stroke-width:1;stroke-opacity:1">
        <path
           d="M 459,225 459,26"
           id="path12354-8-3"
           style="font-size:10.3644495px;stroke:#786a66;stroke-opacity:1" />
      </g>
      <g
         transform="matrix(0.28088062,0,0,0.96789302,458.78256,1068.7268)"
         id="g12356-2-9"
         style="font-size:10.3644495px;fill:none;stroke:#786a66;stroke-width:1;stroke-opacity:1">
        <path
           d="m 95,205 1,0 1,0 1,0 1,0 1,0 1,0 1,0 1,0 1,0 1,0 1,0 1,0 1,0 1,0 1,0 1,0 1,0 1,0 1,0 1,0 1,0 1,0 1,0 1,0 1,0 1,0 1,0 1,0 1,0 1,0 1,0 1,0 1,0 1,0 1,0 1,0 1,0 1,0 1,0 1,0 1,0 1,0 1,0 1,0 1,0 1,0 1,0 1,0 1,0 1,0 1,0 1,0 1,0 1,0 1,0 1,0 1,0 1,0 1,0 1,0 1,0 1,0 1,0 1,0 1,0 1,0 1,0 1,0 1,0 1,0 1,0 1,0 1,0 1,0 1,0 1,0 1,0 1,0 1,0 1,0 1,0 1,0 1,0 1,0 1,0 1,0 1,0 1,0 1,0 1,0 1,0 1,0 1,0 1,0 1,0 1,0 1,0 1,0 1,0 1,0 1,0 1,0 1,0 1,0 1,0 1,0 1,0 1,0 1,0 1,0 1,0 1,0 1,0 1,0 1,0 1,0 1,0 1,0 1,0 1,0 1,0 1,0 1,0 1,0 1,0 1,0 1,0 1,0 1,0 1,0 1,0 1,0 1,0 1,0 1,0 1,0 1,0 1,0 1,0 1,0 1,0 1,0 1,0 1,0 1,0 1,0 1,0 1,0 1,0 1,0 1,0 1,0 1,0 1,0 1,0 1,0 1,0 1,0 1,0 1,0 1,0 1,0 1,0 1,0 1,0 1,0 1,0 1,0 1,0 1,0 1,0 1,0 1,0 1,0 1,0 1,0 1,0 1,0 1,0 1,0 1,0 1,0 1,0 1,0 1,0 1,0 1,0 1,0 1,0 1,0 1,0 1,0 1,0 1,0 1,0 1,0 1,0 1,0 1,0 1,0 1,0 1,0 1,0 1,0 1,0 1,0 1,0 1,0 1,0 1,0 1,0 1,0 1,0 1,0 1,0 1,0 1,0 1,0 1,0 1,0 1,0 1,0 1,0 1,0 1,0 1,0 1,0 1,0 1,0 1,0 1,0 1,0 1,0 1,0 1,0 1,0 1,0 1,0 1,0 1,0 1,0 1,0 1,0 1,0 1,0 1,0 1,0 1,0 1,0 1,0 1,0 1,0 1,0 1,0 1,0 1,0 1,0 1,0 1,0 1,0 1,0 1,0 1,0 1,0 1,0 1,0 1,0 1,0 1,0 1,0 1,0 1,0 1,0 1,0 1,0 1,0 1,0 1,0 1,0 1,0 1,0 1,0 1,0 1,0 1,0 1,0 1,0 1,0 1,0 1,0 1,0 1,0 1,0 1,0 1,0 1,0 1,0 1,0 1,0 1,0 1,0 1,0 1,0 1,0 1,0 1,0 1,0 1,0 1,0 1,0 1,0 1,0 1,0 1,0 1,0 1,0 1,0 1,0 1,0 1,0 1,0 1,0 1,0 1,0 1,0 1,0 1,0 1,0 1,0 1,0 1,0 1,0 1,0 1,0 1,0 1,0 1,0 1,0 1,0 1,0 1,0 1,0 1,0 1,0 1,0 1,0 1,0 1,0 1,0 1,0 1,0 1,0 1,0 1,0 1,0 1,0 1,0 1,0 1,0 1,0 1,0 1,0 1,0 1,0"
           id="path12358-6-4"
           style="font-size:10.3644495px;stroke:#786a66;stroke-opacity:1" />
      </g>
    </g>
    <g
       transform="matrix(0.28088062,0,0,0.96789302,24.219884,400.01741)"
       id="g12152-3-2"
       style="font-size:10.3644495px;fill:none;stroke:#f23200;stroke-width:2;stroke-opacity:1;display:inline">
      <path
         d="m 95,225 364,0 0,-199 -364,0 0,199"
         id="path12154-8-5"
         style="font-size:10.3644495px;stroke:#f23200;stroke-opacity:1" />
    </g>
    <path
       d="m 50.792984,597.58381 c 22.2654,-2.2251 45.99992,2.8751 63.351606,-12.5523 18.20157,-16.1831 28.84808,-58.8986 31.38499,-159.7696"
       id="path12370-1-3"
       style="font-size:14px;fill:none;stroke:#ee0000;stroke-width:1.53550005;stroke-linecap:butt;stroke-linejoin:miter;stroke-miterlimit:4;stroke-opacity:1;stroke-dasharray:none;display:inline"
       sodipodi:nodetypes="csc" />
    <rect
       style="color:#000000;fill:none;stroke:#0c0202;stroke-width:1.39999998;stroke-miterlimit:4;stroke-opacity:1;stroke-dasharray:none;marker:none;visibility:visible;display:inline;overflow:visible;enable-background:accumulate"
       id="rect8676"
       width="102.5"
       height="193"
       x="50.671474"
       y="425.38208" />
  </g>
</svg>
