<?xml version="1.0" encoding="UTF-8" standalone="no"?>
<svg
   xmlns:dc="http://purl.org/dc/elements/1.1/"
   xmlns:cc="http://creativecommons.org/ns#"
   xmlns:rdf="http://www.w3.org/1999/02/22-rdf-syntax-ns#"
   xmlns:svg="http://www.w3.org/2000/svg"
   xmlns="http://www.w3.org/2000/svg"
   xmlns:xlink="http://www.w3.org/1999/xlink"
   viewBox="0 0 400 450"
   version="1.1"
   height="450"
   width="400"
   id="s1">
  <metadata
     id="metadata495">
    <rdf:RDF>
      <cc:Work
         rdf:about="">
        <dc:format>image/svg+xml</dc:format>
        <dc:type
           rdf:resource="http://purl.org/dc/dcmitype/StillImage" />
        <dc:title>
  Undershot waterwheel  </dc:title>
      </cc:Work>
    </rdf:RDF>
  </metadata>
  <title
     id="s3">
  Undershot waterwheel  </title>
  <defs
     id="s2">
    <symbol
       id="spoke">
      <path
         stroke="black"
         fill="none"
         d="M5,0L5,63A5,5,0,0,1,0,68M9,0L9,63A5,5,0,0,0,14,68"
         id="s12" />
    </symbol>
    <symbol
       id="Blade">
      <path
         stroke-width="2"
         stroke="black"
         fill="none"
         d="M10,0C10,5 10,10 0,20"
         id="s33" />
    </symbol>
    <marker
       markerUnits="strokeWidth"
       orient="auto"
       refY="3"
       refX="4"
       markerHeight="10"
       markerWidth="10"
       id="arrow_tri">
      <path
         d="M0,0 L0,6 9,3 z"
         id="s67" />
    </marker>
    <marker
       markerUnits="strokeWidth"
       orient="auto"
       refY="3"
       refX="5"
       markerHeight="10"
       markerWidth="10"
       id="arrow_tri_180">
      <path
         d="M9,0 L9,6 0,3 z"
         id="s72" />
    </marker>
  </defs>
  <g
     id="s4">
    <g
       transform="translate(200,200)"
       id="s5">
      <title
         id="s6">
      Frame      </title>
      <circle
         stroke="black"
         fill="#c87137"
         r="110"
         cy="0"
         cx="0"
         id="s7" />
      <circle
         stroke-width="2"
         stroke="black"
         fill="white"
         r="90"
         cy="0"
         cx="0"
         id="s8" />
      <g
         id="s9">
        <title
           id="s10">
        Spokes        </title>
        <use
           transform="rotate( 0,0,0)translate(-7,20)"
           xlink:href="#spoke"
           id="s13" />
        <use
           transform="rotate( 30,0,0)translate(-7,20)"
           xlink:href="#spoke"
           id="s14" />
        <use
           transform="rotate( 60,0,0)translate(-7,20)"
           xlink:href="#spoke"
           id="s15" />
        <use
           transform="rotate( 90,0,0)translate(-7,20)"
           xlink:href="#spoke"
           id="s16" />
        <use
           transform="rotate( 120,0,0)translate(-7,20)"
           xlink:href="#spoke"
           id="s17" />
        <use
           transform="rotate( 150,0,0)translate(-7,20)"
           xlink:href="#spoke"
           id="s18" />
        <use
           transform="rotate( 180,0,0)translate(-7,20)"
           xlink:href="#spoke"
           id="s19" />
        <use
           transform="rotate( 210,0,0)translate(-7,20)"
           xlink:href="#spoke"
           id="s20" />
        <use
           transform="rotate( 240,0,0)translate(-7,20)"
           xlink:href="#spoke"
           id="s21" />
        <use
           transform="rotate( 270,0,0)translate(-7,20)"
           xlink:href="#spoke"
           id="s22" />
        <use
           transform="rotate( 300,0,0)translate(-7,20)"
           xlink:href="#spoke"
           id="s23" />
        <use
           transform="rotate( 330,0,0)translate(-7,20)"
           xlink:href="#spoke"
           id="s24" />
        <circle
           stroke="black"
           fill="none"
           r="20"
           cy="0"
           cx="0"
           id="s25" />
        <circle
           stroke="black"
           fill="none"
           r="10"
           cy="0"
           cx="0"
           id="s26" />
      </g>
    </g>
    <path
       stroke-width="2"
       fill="#80e0e0"
       d="M0,211.6L82,211.6L82,251.6L126.3,251.6A90,90,0,0,0,200,290L500,310l0,24L200,314A114,114,0,0,1,111.3,271.6L0,271.6"
       id="s27" />
    <path
       stroke-width="2"
       stroke="black"
       fill="none"
       d="M82,201.6L82,251.6M0,271.6L111.3,271.6A114,114,0,0,0,200,314L500,334"
       id="s28" />
    <circle
       stroke-width="2"
       stroke="black"
       fill="none"
       r="90"
       cy="200"
       cx="200"
       id="s29" />
    <g
       transform="translate(200,200)"
       id="s30">
      <title
         id="s31">
      Buckets      </title>
      <use
         transform="rotate( 0,0,0)translate(-5,90)"
         xlink:href="#Blade"
         id="s34" />
      <use
         transform="rotate( 12,0,0)translate(-5,90)"
         xlink:href="#Blade"
         id="s35" />
      <use
         transform="rotate( 24,0,0)translate(-5,90)"
         xlink:href="#Blade"
         id="s36" />
      <use
         transform="rotate( 36,0,0)translate(-5,90)"
         xlink:href="#Blade"
         id="s37" />
      <use
         transform="rotate( 48,0,0)translate(-5,90)"
         xlink:href="#Blade"
         id="s38" />
      <use
         transform="rotate( 60,0,0)translate(-5,90)"
         xlink:href="#Blade"
         id="s39" />
      <use
         transform="rotate( 72,0,0)translate(-5,90)"
         xlink:href="#Blade"
         id="s40" />
      <use
         transform="rotate( 84,0,0)translate(-5,90)"
         xlink:href="#Blade"
         id="s41" />
      <use
         transform="rotate( 96,0,0)translate(-5,90)"
         xlink:href="#Blade"
         id="s42" />
      <use
         transform="rotate( 108,0,0)translate(-5,90)"
         xlink:href="#Blade"
         id="s43" />
      <use
         transform="rotate( 120,0,0)translate(-5,90)"
         xlink:href="#Blade"
         id="s44" />
      <use
         transform="rotate( 132,0,0)translate(-5,90)"
         xlink:href="#Blade"
         id="s45" />
      <use
         transform="rotate( 144,0,0)translate(-5,90)"
         xlink:href="#Blade"
         id="s46" />
      <use
         transform="rotate( 156,0,0)translate(-5,90)"
         xlink:href="#Blade"
         id="s47" />
      <use
         transform="rotate( 168,0,0)translate(-5,90)"
         xlink:href="#Blade"
         id="s48" />
      <use
         transform="rotate( 180,0,0)translate(-5,90)"
         xlink:href="#Blade"
         id="s49" />
      <use
         transform="rotate( 192,0,0)translate(-5,90)"
         xlink:href="#Blade"
         id="s50" />
      <use
         transform="rotate( 204,0,0)translate(-5,90)"
         xlink:href="#Blade"
         id="s51" />
      <use
         transform="rotate( 216,0,0)translate(-5,90)"
         xlink:href="#Blade"
         id="s52" />
      <use
         transform="rotate( 228,0,0)translate(-5,90)"
         xlink:href="#Blade"
         id="s53" />
      <use
         transform="rotate( 240,0,0)translate(-5,90)"
         xlink:href="#Blade"
         id="s54" />
      <use
         transform="rotate( 252,0,0)translate(-5,90)"
         xlink:href="#Blade"
         id="s55" />
      <use
         transform="rotate( 264,0,0)translate(-5,90)"
         xlink:href="#Blade"
         id="s56" />
      <use
         transform="rotate( 276,0,0)translate(-5,90)"
         xlink:href="#Blade"
         id="s57" />
      <use
         transform="rotate( 288,0,0)translate(-5,90)"
         xlink:href="#Blade"
         id="s58" />
      <use
         transform="rotate( 300,0,0)translate(-5,90)"
         xlink:href="#Blade"
         id="s59" />
      <use
         transform="rotate( 312,0,0)translate(-5,90)"
         xlink:href="#Blade"
         id="s60" />
      <use
         transform="rotate( 324,0,0)translate(-5,90)"
         xlink:href="#Blade"
         id="s61" />
      <use
         transform="rotate( 336,0,0)translate(-5,90)"
         xlink:href="#Blade"
         id="s62" />
      <use
         transform="rotate( 348,0,0)translate(-5,90)"
         xlink:href="#Blade"
         id="s63" />
    </g>
    <g
       id="s64">
      <line
         marker-end="url(#arrow_tri)"
         stroke-width="2"
         stroke="black"
         y2="261.62187927159414"
         x2="75"
         y1="261.62187927159414"
         x1="5"
         id="s65" />
      <text
         y="256.62187927159414"
         x="5"
         id="s68">
      Headrace      </text>
    </g>
    <g
       id="s69">
      <path
         marker-start="url(#arrow_tri_180)"
         transform="translate(200,200)"
         stroke-width="2"
         stroke="black"
         fill="none"
         d="M-42.4,-42.4A60,60,0,0,1,42.4,-42.4"
         id="s70" />
      <g
         id="s73"
         style="font-size:15px;font-family:'Liberation Sans'">
        <path
           id="path3824"
           style="baseline-shift:5px;text-anchor:middle"
           d="m 179.05136,138.42814 -4.06371,-3.0051 -2.9919,1.17767 1.56932,3.98692 -1.30171,0.51238 -3.77979,-9.6027 4.51852,-1.77857 q 0.81783,-0.32191 1.51994,-0.37789 0.70625,-0.0655 1.27511,0.11992 0.56886,0.18539 0.99496,0.60801 0.4261,0.42262 0.67826,1.06326 0.17974,0.45662 0.2178,0.95326 0.0449,0.49396 -0.0965,0.97466 -0.14138,0.48069 -0.47975,0.92086 -0.33837,0.44016 -0.91564,0.79332 l 4.35445,3.06382 -1.49936,0.59018 z m -2.88416,-6.76741 q -0.17169,-0.43618 -0.44771,-0.69748 -0.27602,-0.2613 -0.64542,-0.3599 -0.37208,-0.10542 -0.82124,-0.0467 -0.45184,0.0519 -0.9698,0.25579 l -3.08731,1.21522 1.39496,3.54394 3.14183,-1.23668 q 0.55885,-0.21997 0.91412,-0.51724 0.35258,-0.30407 0.51498,-0.65136 0.16923,-0.34997 0.16045,-0.73221 -0.002,-0.38491 -0.15486,-0.77338 z" />
        <path
           id="path3826"
           style="baseline-shift:5px;text-anchor:middle"
           d="m 188.70998,131.91689 q 0.4431,2.03233 -0.23455,3.22206 -0.67765,1.18972 -2.3808,1.56105 -0.80864,0.1763 -1.49859,0.0719 -0.68994,-0.10445 -1.24283,-0.50865 -0.54574,-0.40575 -0.94571,-1.10566 -0.39437,-0.70862 -0.61748,-1.73195 -0.87371,-4.00742 2.59701,-4.76411 0.90167,-0.19659 1.60748,-0.0881 0.71297,0.10692 1.23724,0.51736 0.53142,0.40888 0.89561,1.11658 0.36419,0.70771 0.58262,1.70957 z m -1.3525,0.29487 q -0.19659,-0.90167 -0.46765,-1.45726 -0.2639,-0.55716 -0.61228,-0.84852 -0.34123,-0.29293 -0.7573,-0.34464 -0.41763,-0.0589 -0.90425,0.0472 -0.49377,0.10765 -0.86175,0.3453 -0.36238,0.22893 -0.56346,0.64759 -0.20264,0.41149 -0.22498,1.03106 -0.0152,0.61801 0.17671,1.49821 0.19659,0.90167 0.48352,1.4613 0.28537,0.55248 0.63375,0.84384 0.35554,0.2898 0.75886,0.35179 0.41048,0.0604 0.85416,-0.0363 0.49377,-0.10765 0.86487,-0.33099 0.36954,-0.23049 0.57218,-0.64199 0.20264,-0.41149 0.22342,-1.03821 0.0208,-0.62673 -0.1758,-1.5284 z" />
        <path
           id="path3828"
           style="baseline-shift:5px;text-anchor:middle"
           d="m 194.74053,135.17593 q -0.28956,0.11325 -0.59772,0.19172 -0.30007,0.0849 -0.70771,0.13025 -1.57235,0.17477 -1.77059,-1.60868 l -0.58418,-5.25572 -0.90993,0.10114 -0.10599,-0.9536 0.96088,-0.10681 0.19,-1.80449 0.87353,-0.0971 0.1958,1.76162 1.45588,-0.16183 0.106,0.9536 -1.45588,0.16183 0.55263,4.97182 q 0.0631,0.56779 0.27099,0.7805 0.21434,0.20463 0.67294,0.15365 0.18927,-0.021 0.36074,-0.0696 0.17875,-0.0494 0.38499,-0.11649 l 0.10762,0.96816 z" />
        <path
           id="path3830"
           style="baseline-shift:5px;text-anchor:middle"
           d="m 198.39849,135.20894 q -1.19382,0.008 -1.79882,-0.61724 -0.605,-0.62564 -0.61273,-1.72424 -0.006,-0.78367 0.28394,-1.28377 0.29673,-0.50747 0.77078,-0.79646 0.48137,-0.28904 1.09582,-0.40323 0.61445,-0.11419 1.25153,-0.13332 l 1.77954,-0.0418 -0.003,-0.43212 q -0.003,-0.49071 -0.10841,-0.83422 -0.10496,-0.34351 -0.31885,-0.55441 -0.2139,-0.2109 -0.53682,-0.30385 -0.31566,-0.10032 -0.74778,-0.0973 -0.38085,0.003 -0.68804,0.0634 -0.30725,0.0534 -0.53327,0.20151 -0.22606,0.14076 -0.36347,0.39075 -0.13745,0.24268 -0.17877,0.61651 l -1.37779,-0.11482 q 0.0699,-0.46925 0.27228,-0.85887 0.20229,-0.39694 0.5738,-0.68521 0.37884,-0.28831 0.94171,-0.44609 0.57014,-0.16515 1.37579,-0.17082 1.4941,-0.0105 2.25332,0.67264 0.75917,0.67583 0.76829,1.97218 l 0.024,3.413 q 0.004,0.58592 0.16005,0.88513 0.15586,0.29188 0.58798,0.28884 0.10986,-7.8e-4 0.21962,-0.0162 0.10976,-0.0154 0.21214,-0.0381 l 0.006,0.82029 q -0.2486,0.0603 -0.49742,0.0914 -0.24148,0.031 -0.5198,0.033 -0.37352,0.003 -0.64518,-0.0907 -0.26439,-0.10068 -0.43423,-0.29724 -0.1699,-0.20389 -0.25985,-0.49623 -0.09,-0.29967 -0.11476,-0.69501 l -0.0439,3.1e-4 q -0.20972,0.38234 -0.46389,0.69175 -0.24686,0.30937 -0.58222,0.53146 -0.33541,0.21477 -0.7667,0.33499 -0.42397,0.12018 -0.9806,0.12409 z m 0.29333,-0.99086 q 0.62987,-0.004 1.09701,-0.23477 0.47441,-0.23772 0.7795,-0.59876 0.3124,-0.3611 0.46322,-0.78698 0.15081,-0.42587 0.14808,-0.81405 l -0.005,-0.65183 -1.44262,0.0395 q -0.48334,0.0107 -0.92232,0.0797 -0.4317,0.0616 -0.76,0.24705 -0.32829,0.18542 -0.52372,0.5164 -0.18811,0.33092 -0.18434,0.86557 0.005,0.64452 0.35124,0.99365 0.35402,0.34908 0.99854,0.34454 z" />
        <path
           id="path3832"
           style="baseline-shift:5px;text-anchor:middle"
           d="m 208.27729,135.48986 q -0.30666,0.0512 -0.62438,0.0646 -0.31112,0.0214 -0.71937,-0.0182 -1.57465,-0.1526 -1.40157,-1.93867 l 0.51007,-5.26343 -0.91126,-0.0883 0.0926,-0.955 0.96229,0.0932 0.55734,-1.72675 0.87481,0.0848 -0.17097,1.7642 1.45801,0.14129 -0.0925,0.955 -1.45802,-0.14129 -0.48251,4.97911 q -0.0551,0.56863 0.10454,0.81957 0.16764,0.24436 0.62691,0.28887 0.18954,0.0184 0.36733,0.006 0.18508,-0.0115 0.40073,-0.0347 l -0.094,0.96958 z" />
        <path
           id="path3834"
           style="baseline-shift:5px;text-anchor:middle"
           d="m 211.19267,126.28078 0.19927,-1.24391 1.30176,0.20854 -0.19927,1.2439 -1.30176,-0.20853 z m -1.51998,9.4884 1.25352,-7.82504 1.30176,0.20853 -1.25352,7.82504 -1.30176,-0.20853 z" />
        <path
           id="path3836"
           style="baseline-shift:5px;text-anchor:middle"
           d="m 220.95192,134.2343 q -0.52703,2.01221 -1.67063,2.76508 -1.14361,0.75288 -2.82989,0.31121 -0.80063,-0.20971 -1.36812,-0.61577 -0.56749,-0.40606 -0.87687,-1.01708 -0.30229,-0.60916 -0.34125,-1.41435 -0.03,-0.81042 0.23536,-1.82361 1.03922,-3.96772 4.47556,-3.06768 0.89273,0.23383 1.47254,0.65069 0.58688,0.41871 0.86792,1.02231 0.28813,0.60545 0.29166,1.40136 0.004,0.79591 -0.25628,1.78784 z m -1.3391,-0.35074 q 0.23382,-0.89273 0.24429,-1.51084 0.0176,-0.61624 -0.16075,-1.03394 -0.17122,-0.41584 -0.51856,-0.65067 -0.34549,-0.24191 -0.82729,-0.3681 -0.48888,-0.12805 -0.92462,-0.0832 -0.4268,0.0396 -0.79591,0.32152 -0.36726,0.2748 -0.66822,0.81682 -0.29388,0.54387 -0.52214,1.41535 -0.23382,0.89274 -0.23197,1.52164 0.004,0.62181 0.182,1.03951 0.1854,0.41955 0.51671,0.65775 0.3384,0.24006 0.77769,0.35512 0.48888,0.12805 0.92091,0.0974 0.43389,-0.0378 0.80114,-0.31258 0.36726,-0.2748 0.67007,-0.82391 0.30282,-0.5491 0.53665,-1.44184 z" />
        <path
           id="path3838"
           style="baseline-shift:5px;text-anchor:middle"
           d="m 226.812,140.79298 1.93737,-4.63587 q 0.22311,-0.53387 0.2917,-0.92592 0.0753,-0.38923 -0.01,-0.67891 -0.0825,-0.29644 -0.33637,-0.50573 -0.24429,-0.21323 -0.67004,-0.39115 -0.4325,-0.18074 -0.84886,-0.17217 -0.40678,0.005 -0.77826,0.19073 -0.3619,0.18216 -0.67498,0.55142 -0.31025,0.3625 -0.53901,0.90989 l -1.77075,4.23716 -1.21641,-0.50836 2.40336,-5.75091 q 0.096,-0.22976 0.19376,-0.48263 0.10732,-0.2568 0.19376,-0.48263 0.0893,-0.23259 0.15029,-0.3976 0.061,-0.16501 0.074,-0.21514 l 1.14883,0.48011 q -0.007,0.0366 -0.0627,0.18811 -0.0554,0.15149 -0.13051,0.35029 -0.0656,0.19487 -0.14353,0.40043 -0.0751,0.1988 -0.13163,0.33396 l 0.0203,0.008 q 0.30844,-0.24419 0.62525,-0.41344 0.31681,-0.16925 0.66731,-0.22916 0.35332,-0.0667 0.75102,-0.0116 0.40053,0.0483 0.87358,0.24601 0.6082,0.25417 0.98533,0.58642 0.37713,0.33224 0.53105,0.76171 0.15391,0.42948 0.0761,0.97646 -0.0682,0.54305 -0.3506,1.21883 l -2.03623,4.8724 -1.22316,-0.51118 z" />
      </g>
    </g>
    <g
       id="s75">
      <line
         marker-end="url(#arrow_tri)"
         stroke-width="2"
         stroke="black"
         y2="290"
         x2="380"
         y1="290"
         x1="310"
         id="s76" />
      <text
         y="285"
         x="310"
         id="s77">
      Tailrace      </text>
    </g>
    <text
       style="font-size:20px"
       font-size="20px"
       y="27.34375"
       x="167.8125"
       id="s78">Undershot waterwheel</text>
  </g>
</svg>
