<?xml version="1.0" encoding="utf-8"?>
<svg id="s1" width="400" height="450" xmlns="http://www.w3.org/2000/svg" xmlns:xlink="http://www.w3.org/1999/xlink" version="1.1">
  <defs id="s2">
    <marker id="arrow_tri_e" markerWidth="10" markerHeight="10" refX="4" refY="3" orient="auto" markerUnits="strokeWidth">
      <path id="s43" d="M0,0 L0,6 9,3 z"/>
    </marker>
    <marker id="arrow_tri_s" markerWidth="10" markerHeight="10" refX="5" refY="3" orient="auto" markerUnits="strokeWidth">
      <path id="s48" d="M9,0 L9,6 0,3 z"/>
    </marker>
  </defs>
  <g id="s3" transform="translate(140,0)scale(0.8)" fill="#c87137" stroke="black" stroke-width="2">
    <line id="s4" x1="0" y1="0" x2="0" y2="500" stroke-dasharray="7, 4, 1, 4"/>
    <path id="s5" d="M-200,402L-24,402 0,417 24,402 200,402"/>
    <path id="s6" d="M-22,385L0,415 22,385"/>
    <g id="s7">
      <ellipse id="s8" cx="0" cy="385" rx="22" ry="7.699999999999999"/>
      <path id="s9" d="M-22,305L-22,385"/>
      <path id="s10" d="M22,305L22,385"/>
      <rect id="s11" x="-22" y="305" width="44" height="80" stroke="none"/>
      <ellipse id="s12" cx="0" cy="305" rx="22" ry="7.699999999999999"/>
    </g>
    <path id="s13" d="M-18,187l-20,-20 -12,30 70,0"/>
    <path id="s14" d="M-38,187l-40,-20 -12,30 70,0"/>
    <path id="s15" d="M-72,195l-70,-12 -16,60 70,0"/>
    <path id="s16" d="M-85,208l-87,2 0,100 50,0"/>
    <path id="s17" d="M25,180l20,-18 -4,30 -78,50"/>
    <path id="s18" d="M50,190l30,-26 -4,30 -78,50"/>
    <path id="s19" d="M73,198l50,-20 -4,30 -78,50"/>
    <path id="s20" d="M82,214l82,-14 -4,30 -78,0"/>
    <g id="s21">
      <ellipse id="s22" cx="0" cy="305" rx="88" ry="30.799999999999997"/>
      <path id="s23" d="M-88,216L-88,305"/>
      <path id="s24" d="M88,216L88,305"/>
      <rect id="s25" x="-88" y="216" width="176" height="89" stroke="none"/>
      <ellipse id="s26" cx="0" cy="216" rx="88" ry="30.799999999999997"/>
    </g>
    <g id="s27">
      <ellipse id="s28" cx="0" cy="216" rx="22" ry="7.699999999999999"/>
      <path id="s29" d="M-22,80L-22,216"/>
      <path id="s30" d="M22,80L22,216"/>
      <rect id="s31" x="-22" y="80" width="44" height="136" stroke="none"/>
      <path id="s32" d="M-22,80c8.8,-4.4 13.2,-4.4 22,0"/>
      <path id="s33" d="M0,80c8.8,4.4 22,4.4 22,0c0,-4.4 -13.2,-4.4 -22,0"/>
    </g>
    <path id="s34" d="M-85,220l-80,14 23,103 50,-10"/>
    <path id="s35" d="M-76,231l-50,25 39,101 70,-30"/>
    <path id="s36" d="M-47,241l-20,35 52,82 20,-20z"/>
    <path id="s37" d="M82,225l8,61 80,10 0,-70z"/>
    <path id="s38" d="M63,237l24,71 75,17 -25,-73z"/>
    <path id="s39" d="M28,246l47,80 50,20 -40,-78z"/>
    <path id="s40" d="M-11,245l47,83 26,33 -50,-90z"/>
    <path id="s41" d="M60,100A100,30,0,1,1,-70,100" fill="none" stroke-width="3" marker-end="url(#arrow_tri_e)"/>
    <g id="s44" stroke="black" transform="rotate( -30,0,0)translate(-30,310)">
      <rect id="s45" x="0" y="-20" width="400" height="40" fill="#80e0e0" stroke="none"/>
      <line id="s46" x1="28" y1="0" x2="100" y2="0" stroke-width="5" marker-start="url(#arrow_tri_s)"/>
      <text id="s49" x="110" y="7" fill="black" stroke-width="1" font-size="20">
      Water      </text>
    </g>
  </g>
</svg>
