<?xml version="1.0" encoding="UTF-8" standalone="no"?>
<svg
   xmlns:dc="http://purl.org/dc/elements/1.1/"
   xmlns:cc="http://web.resource.org/cc/"
   xmlns:rdf="http://www.w3.org/1999/02/22-rdf-syntax-ns#"
   xmlns:svg="http://www.w3.org/2000/svg"
   xmlns="http://www.w3.org/2000/svg"
   xmlns:sodipodi="http://sodipodi.sourceforge.net/DTD/sodipodi-0.dtd"
   xmlns:inkscape="http://www.inkscape.org/namespaces/inkscape"
   preserveAspectRatio="xMinYMin meet"
   width="100%"
   height="100%"
   viewBox="0 0 315 382"
   version="1.0"
   id="svg2"
   sodipodi:version="0.32"
   inkscape:version="0.45.1"
   sodipodi:docname="Linear_least_squares.svg"
   inkscape:output_extension="org.inkscape.output.svg.inkscape"
   sodipodi:docbase="Y:\diverse\wiki">
  <metadata
     id="metadata352">
    <rdf:RDF>
      <cc:Work
         rdf:about="">
        <dc:format>image/svg+xml</dc:format>
        <dc:type
           rdf:resource="http://purl.org/dc/dcmitype/StillImage" />
      </cc:Work>
    </rdf:RDF>
  </metadata>
  <defs
     id="defs350" />
  <sodipodi:namedview
     inkscape:window-height="1181"
     inkscape:window-width="1920"
     inkscape:pageshadow="2"
     inkscape:pageopacity="0.0"
     guidetolerance="10.0"
     gridtolerance="10.0"
     objecttolerance="10.0"
     borderopacity="1.0"
     bordercolor="#666666"
     pagecolor="#ffffff"
     id="base"
     width="315px"
     height="382px"
     inkscape:zoom="1.8"
     inkscape:cx="280"
     inkscape:cy="173.49503"
     inkscape:window-x="-4"
     inkscape:window-y="-4"
     inkscape:current-layer="g8" />
  <desc
     id="desc4">Matlab Figure Converted by PLOT2SVG written by Juerg Schwizer</desc>
  <g
     id="g8"
     transform="translate(-126.8309,-17.394792)">
    <clipPath
       id="ID000000">
      <rect
         x="152.88"
         y="31.5"
         width="273.84"
         height="342.29999"
         id="rect11" />
    </clipPath>
    <polyline
       points="152.880,373.800 426.720,373.800 426.720,31.500 152.880,31.500 "
       id="polyline13"
       style="fill:#ffffff;fill-opacity:1;stroke:none;stroke-width:1.6pt;stroke-dasharray:none;stroke-opacity:1" />
    <polyline
       points="152.880,31.500 426.720,31.500 426.720,31.500 152.880,31.500 "
       id="polyline15"
       style="fill:#ffffff;fill-opacity:1;stroke:none;stroke-width:1.6pt;stroke-dasharray:none;stroke-opacity:1" />
    <polyline
       points="152.880,373.800 152.880,373.800 152.880,31.500 152.880,31.500 "
       id="polyline17"
       style="fill:#ffffff;fill-opacity:1;stroke:none;stroke-width:1.6pt;stroke-dasharray:none;stroke-opacity:1" />
    <polyline
       points="221.340,373.800 221.340,31.500 "
       id="polyline19"
       style="fill:none;stroke:#323232;stroke-width:1.6pt;stroke-dasharray:none" />
    <polyline
       points="289.800,373.800 289.800,31.500 "
       id="polyline21"
       style="fill:none;stroke:#323232;stroke-width:1.6pt;stroke-dasharray:none" />
    <polyline
       points="358.260,373.800 358.260,31.500 "
       id="polyline23"
       style="fill:none;stroke:#323232;stroke-width:1.6pt;stroke-dasharray:none" />
    <polyline
       points="152.880,305.340 426.720,305.340 "
       id="polyline25"
       style="fill:none;stroke:#323232;stroke-width:1.6pt;stroke-dasharray:none" />
    <polyline
       points="152.880,236.880 426.720,236.880 "
       id="polyline27"
       style="fill:none;stroke:#323232;stroke-width:1.6pt;stroke-dasharray:none" />
    <polyline
       points="152.880,168.420 426.720,168.420 "
       id="polyline29"
       style="fill:none;stroke:#323232;stroke-width:1.6pt;stroke-dasharray:none" />
    <polyline
       points="152.880,99.960 426.720,99.960 "
       id="polyline31"
       style="fill:none;stroke:#323232;stroke-width:1.6pt;stroke-dasharray:none" />
    <polyline
       points="426.720,305.340 426.720,305.340 "
       id="polyline33"
       style="fill:none;stroke:#323232;stroke-width:1.6pt;stroke-dasharray:none" />
    <polyline
       points="426.720,236.880 426.720,236.880 "
       id="polyline35"
       style="fill:none;stroke:#323232;stroke-width:1.6pt;stroke-dasharray:none" />
    <polyline
       points="426.720,168.420 426.720,168.420 "
       id="polyline37"
       style="fill:none;stroke:#323232;stroke-width:1.6pt;stroke-dasharray:none" />
    <polyline
       points="426.720,99.960 426.720,99.960 "
       id="polyline39"
       style="fill:none;stroke:#323232;stroke-width:1.6pt;stroke-dasharray:none" />
    <polyline
       points="221.340,31.500 221.340,31.500 "
       id="polyline43"
       style="fill:none;stroke:#323232;stroke-width:1.6pt;stroke-dasharray:none" />
    <polyline
       points="289.800,31.500 289.800,31.500 "
       id="polyline45"
       style="fill:none;stroke:#323232;stroke-width:1.6pt;stroke-dasharray:none" />
    <polyline
       points="358.260,31.500 358.260,31.500 "
       id="polyline47"
       style="fill:none;stroke:#323232;stroke-width:1.6pt;stroke-dasharray:none" />
    <polyline
       points="152.880,31.500 426.720,31.500 "
       id="polyline49"
       style="fill:none;stroke:#000000;stroke-width:1.6pt;stroke-dasharray:none" />
    <g
       id="g51">
      <g
         clip-path="url(#ID000000)"
         id="g53">
        <polyline
           points="167.832,337.455 167.815,337.113 167.764,336.775 167.679,336.443 167.562,336.122 167.413,335.814 167.234,335.522 167.027,335.250 166.794,334.999 166.537,334.773 166.259,334.574 165.962,334.404 165.650,334.264 165.325,334.156 164.991,334.082 164.651,334.040 164.309,334.033 163.968,334.060 163.632,334.121 163.303,334.216 162.985,334.342 162.681,334.500 162.395,334.687 162.129,334.902 161.885,335.143 161.667,335.406 161.476,335.690 161.315,335.992 161.184,336.308 161.086,336.636 161.021,336.972 160.989,337.312 160.992,337.655 161.029,337.995 161.100,338.329 161.204,338.655 161.340,338.969 161.506,339.268 161.702,339.549 161.925,339.809 162.172,340.045 162.442,340.256 162.731,340.438 163.037,340.591 163.357,340.712 163.688,340.801 164.025,340.856 164.367,340.877 164.709,340.865 165.048,340.818 165.380,340.737 165.703,340.624 166.013,340.479 166.307,340.304 166.582,340.100 166.835,339.870 167.064,339.616 167.267,339.340 167.440,339.045 167.584,338.735 167.696,338.411 167.775,338.078 167.821,337.739 "
           id="polyline55"
           style="fill:#dd0f23;fill-opacity:1;stroke:none;stroke-width:0.5pt;stroke-dasharray:none;stroke-opacity:1" />
      </g>
      <g
         clip-path="url(#ID000000)"
         id="g57">
        <polyline
           points="168.358,352.568 168.341,352.227 168.290,351.888 168.205,351.557 168.088,351.235 167.939,350.927 167.760,350.636 167.553,350.363 167.320,350.113 167.063,349.887 166.785,349.688 166.488,349.518 166.176,349.378 165.851,349.270 165.517,349.195 165.177,349.154 164.835,349.147 164.494,349.174 164.158,349.235 163.829,349.329 163.511,349.456 163.207,349.614 162.921,349.801 162.655,350.016 162.411,350.256 162.193,350.520 162.002,350.804 161.841,351.105 161.710,351.422 161.612,351.749 161.546,352.085 161.515,352.426 161.518,352.768 161.555,353.108 161.626,353.443 161.730,353.769 161.866,354.083 162.032,354.382 162.228,354.663 162.450,354.923 162.698,355.159 162.968,355.369 163.257,355.552 163.563,355.704 163.883,355.826 164.214,355.915 164.551,355.970 164.893,355.991 165.235,355.978 165.574,355.931 165.906,355.851 166.229,355.737 166.539,355.592 166.833,355.417 167.108,355.214 167.361,354.983 167.590,354.729 167.792,354.453 167.966,354.159 168.110,353.848 168.222,353.525 168.301,353.192 168.346,352.853 "
           id="polyline59"
           style="fill:#dd0f23;fill-opacity:1;stroke:none;stroke-width:0.5pt;stroke-dasharray:none;stroke-opacity:1" />
      </g>
      <g
         clip-path="url(#ID000000)"
         id="g61">
        <polyline
           points="173.961,326.872 173.944,326.530 173.893,326.192 173.808,325.860 173.691,325.539 173.542,325.231 173.363,324.939 173.156,324.667 172.923,324.416 172.666,324.191 172.388,323.992 172.091,323.821 171.779,323.682 171.454,323.574 171.120,323.499 170.780,323.457 170.438,323.450 170.097,323.477 169.760,323.538 169.432,323.633 169.114,323.759 168.810,323.917 168.524,324.104 168.258,324.319 168.014,324.560 167.796,324.823 167.605,325.107 167.444,325.409 167.313,325.725 167.215,326.053 167.149,326.389 167.118,326.730 167.121,327.072 167.158,327.412 167.229,327.747 167.333,328.073 167.469,328.387 167.635,328.685 167.831,328.966 168.053,329.226 168.301,329.462 168.571,329.673 168.860,329.855 169.166,330.008 169.486,330.129 169.817,330.218 170.154,330.273 170.496,330.295 170.838,330.282 171.177,330.235 171.509,330.154 171.832,330.041 172.142,329.896 172.436,329.721 172.711,329.517 172.964,329.287 173.193,329.033 173.395,328.757 173.569,328.462 173.713,328.152 173.825,327.828 173.904,327.495 173.949,327.156 "
           id="polyline63"
           style="fill:#dd0f23;fill-opacity:1;stroke:none;stroke-width:0.5pt;stroke-dasharray:none;stroke-opacity:1" />
      </g>
      <g
         clip-path="url(#ID000000)"
         id="g65">
        <polyline
           points="178.973,305.588 178.956,305.246 178.905,304.908 178.820,304.577 178.703,304.255 178.554,303.947 178.375,303.655 178.168,303.383 177.935,303.133 177.678,302.907 177.400,302.708 177.103,302.538 176.791,302.398 176.466,302.290 176.132,302.215 175.792,302.174 175.450,302.167 175.109,302.194 174.773,302.255 174.444,302.349 174.126,302.476 173.822,302.633 173.536,302.821 173.270,303.036 173.026,303.276 172.808,303.540 172.617,303.824 172.456,304.125 172.325,304.441 172.227,304.769 172.162,305.105 172.130,305.446 172.133,305.788 172.170,306.128 172.241,306.463 172.345,306.789 172.481,307.103 172.647,307.402 172.843,307.683 173.065,307.942 173.313,308.179 173.583,308.389 173.872,308.572 174.178,308.724 174.498,308.845 174.829,308.934 175.166,308.990 175.508,309.011 175.850,308.998 176.189,308.951 176.521,308.871 176.844,308.757 177.154,308.612 177.448,308.437 177.723,308.233 177.976,308.003 178.205,307.749 178.408,307.473 178.581,307.178 178.725,306.868 178.837,306.545 178.916,306.212 178.962,305.873 "
           id="polyline67"
           style="fill:#dd0f23;fill-opacity:1;stroke:none;stroke-width:0.5pt;stroke-dasharray:none;stroke-opacity:1" />
      </g>
      <g
         clip-path="url(#ID000000)"
         id="g69">
        <polyline
           points="187.550,334.433 187.533,334.091 187.482,333.753 187.397,333.422 187.280,333.100 187.131,332.792 186.952,332.500 186.745,332.228 186.512,331.978 186.255,331.752 185.977,331.553 185.680,331.383 185.368,331.243 185.043,331.135 184.709,331.060 184.369,331.019 184.027,331.012 183.686,331.039 183.350,331.100 183.021,331.194 182.703,331.321 182.399,331.478 182.113,331.666 181.847,331.881 181.603,332.121 181.385,332.385 181.194,332.669 181.033,332.970 180.902,333.287 180.804,333.614 180.739,333.950 180.707,334.291 180.710,334.633 180.747,334.973 180.818,335.308 180.922,335.634 181.058,335.948 181.224,336.247 181.420,336.528 181.642,336.787 181.890,337.024 182.160,337.234 182.449,337.417 182.755,337.569 183.075,337.691 183.406,337.779 183.743,337.835 184.085,337.856 184.427,337.843 184.766,337.796 185.098,337.716 185.421,337.602 185.731,337.457 186.025,337.282 186.300,337.078 186.553,336.848 186.782,336.594 186.985,336.318 187.158,336.024 187.302,335.713 187.414,335.390 187.493,335.057 187.538,334.718 "
           id="polyline71"
           style="fill:#dd0f23;fill-opacity:1;stroke:none;stroke-width:0.5pt;stroke-dasharray:none;stroke-opacity:1" />
      </g>
      <g
         clip-path="url(#ID000000)"
         id="g73">
        <polyline
           points="189.503,317.445 189.486,317.104 189.435,316.765 189.350,316.434 189.233,316.112 189.084,315.804 188.905,315.513 188.698,315.240 188.465,314.990 188.208,314.764 187.929,314.565 187.632,314.395 187.320,314.255 186.995,314.147 186.662,314.072 186.322,314.031 185.980,314.024 185.639,314.051 185.302,314.112 184.973,314.206 184.655,314.333 184.352,314.491 184.065,314.678 183.799,314.893 183.556,315.133 183.337,315.397 183.147,315.681 182.985,315.982 182.855,316.299 182.756,316.626 182.691,316.962 182.660,317.303 182.663,317.645 182.700,317.985 182.770,318.320 182.874,318.646 183.010,318.960 183.177,319.259 183.372,319.540 183.595,319.800 183.842,320.036 184.112,320.246 184.402,320.429 184.708,320.581 185.028,320.703 185.358,320.791 185.696,320.847 186.037,320.868 186.379,320.855 186.718,320.808 187.051,320.728 187.374,320.614 187.683,320.469 187.977,320.294 188.252,320.090 188.506,319.860 188.735,319.606 188.937,319.330 189.111,319.036 189.255,318.725 189.366,318.402 189.445,318.069 189.491,317.730 "
           id="polyline75"
           style="fill:#dd0f23;fill-opacity:1;stroke:none;stroke-width:0.5pt;stroke-dasharray:none;stroke-opacity:1" />
      </g>
      <g
         clip-path="url(#ID000000)"
         id="g77">
        <polyline
           points="192.858,294.896 192.840,294.554 192.789,294.216 192.705,293.884 192.587,293.563 192.438,293.255 192.260,292.963 192.053,292.691 191.819,292.441 191.562,292.215 191.284,292.016 190.987,291.845 190.675,291.706 190.350,291.598 190.016,291.523 189.677,291.482 189.335,291.474 188.993,291.502 188.657,291.563 188.328,291.657 188.010,291.784 187.706,291.941 187.420,292.129 187.154,292.343 186.910,292.584 186.692,292.847 186.501,293.131 186.340,293.433 186.209,293.749 186.111,294.077 186.046,294.413 186.014,294.754 186.017,295.096 186.054,295.436 186.125,295.771 186.229,296.097 186.365,296.411 186.531,296.710 186.727,296.990 186.950,297.250 187.197,297.487 187.467,297.697 187.756,297.879 188.063,298.032 188.383,298.153 188.713,298.242 189.051,298.297 189.392,298.319 189.734,298.306 190.073,298.259 190.406,298.178 190.728,298.065 191.038,297.920 191.332,297.745 191.607,297.541 191.860,297.311 192.089,297.057 192.292,296.781 192.466,296.486 192.609,296.176 192.721,295.852 192.800,295.520 192.846,295.180 "
           id="polyline79"
           style="fill:#dd0f23;fill-opacity:1;stroke:none;stroke-width:0.5pt;stroke-dasharray:none;stroke-opacity:1" />
      </g>
      <g
         clip-path="url(#ID000000)"
         id="g81">
        <polyline
           points="199.783,319.731 199.766,319.389 199.715,319.051 199.630,318.719 199.513,318.398 199.364,318.090 199.185,317.798 198.978,317.526 198.745,317.275 198.488,317.049 198.209,316.850 197.913,316.680 197.600,316.540 197.276,316.432 196.942,316.357 196.602,316.316 196.260,316.309 195.919,316.336 195.582,316.397 195.253,316.491 194.936,316.618 194.632,316.776 194.346,316.963 194.079,317.178 193.836,317.419 193.618,317.682 193.427,317.966 193.265,318.268 193.135,318.584 193.036,318.912 192.971,319.248 192.940,319.588 192.943,319.930 192.980,320.271 193.051,320.605 193.155,320.931 193.290,321.245 193.457,321.544 193.653,321.825 193.875,322.085 194.123,322.321 194.392,322.532 194.682,322.714 194.988,322.867 195.308,322.988 195.638,323.077 195.976,323.132 196.318,323.153 196.660,323.141 196.998,323.094 197.331,323.013 197.654,322.900 197.964,322.755 198.258,322.580 198.533,322.376 198.786,322.146 199.015,321.892 199.217,321.616 199.391,321.321 199.535,321.010 199.647,320.687 199.726,320.354 199.771,320.015 "
           id="polyline83"
           style="fill:#dd0f23;fill-opacity:1;stroke:none;stroke-width:0.5pt;stroke-dasharray:none;stroke-opacity:1" />
      </g>
      <g
         clip-path="url(#ID000000)"
         id="g85">
        <polyline
           points="206.249,265.562 206.232,265.220 206.180,264.882 206.096,264.550 205.978,264.229 205.830,263.921 205.651,263.629 205.444,263.357 205.211,263.107 204.953,262.881 204.675,262.682 204.378,262.511 204.066,262.372 203.741,262.264 203.407,262.189 203.068,262.148 202.726,262.140 202.385,262.168 202.048,262.229 201.719,262.323 201.401,262.449 201.098,262.607 200.811,262.795 200.545,263.009 200.302,263.250 200.083,263.513 199.893,263.797 199.731,264.099 199.600,264.415 199.502,264.743 199.437,265.079 199.406,265.420 199.409,265.762 199.446,266.102 199.516,266.437 199.620,266.763 199.756,267.077 199.923,267.376 200.118,267.656 200.341,267.916 200.588,268.153 200.858,268.363 201.148,268.545 201.454,268.698 201.774,268.819 202.104,268.908 202.442,268.963 202.783,268.985 203.125,268.972 203.464,268.925 203.797,268.844 204.120,268.731 204.429,268.586 204.723,268.411 204.998,268.207 205.251,267.977 205.480,267.723 205.683,267.447 205.857,267.152 206.000,266.842 206.112,266.518 206.191,266.186 206.237,265.846 "
           id="polyline87"
           style="fill:#dd0f23;fill-opacity:1;stroke:none;stroke-width:0.5pt;stroke-dasharray:none;stroke-opacity:1" />
      </g>
      <g
         clip-path="url(#ID000000)"
         id="g89">
        <polyline
           points="210.238,269.531 210.221,269.189 210.170,268.851 210.085,268.519 209.968,268.198 209.819,267.890 209.640,267.598 209.433,267.326 209.200,267.075 208.943,266.850 208.664,266.651 208.368,266.480 208.055,266.341 207.731,266.233 207.397,266.158 207.057,266.116 206.715,266.109 206.374,266.136 206.037,266.197 205.708,266.292 205.390,266.418 205.087,266.576 204.800,266.763 204.534,266.978 204.291,267.219 204.073,267.482 203.882,267.766 203.720,268.068 203.590,268.384 203.491,268.712 203.426,269.048 203.395,269.389 203.398,269.731 203.435,270.071 203.506,270.406 203.609,270.732 203.745,271.046 203.912,271.345 204.107,271.625 204.330,271.885 204.577,272.121 204.847,272.332 205.137,272.514 205.443,272.667 205.763,272.788 206.093,272.877 206.431,272.932 206.772,272.954 207.114,272.941 207.453,272.894 207.786,272.813 208.109,272.700 208.419,272.555 208.712,272.380 208.987,272.176 209.241,271.946 209.470,271.692 209.672,271.416 209.846,271.121 209.990,270.811 210.102,270.487 210.181,270.154 210.226,269.815 "
           id="polyline91"
           style="fill:#dd0f23;fill-opacity:1;stroke:none;stroke-width:0.5pt;stroke-dasharray:none;stroke-opacity:1" />
      </g>
      <g
         clip-path="url(#ID000000)"
         id="g93">
        <polyline
           points="216.885,257.386 216.868,257.044 216.816,256.706 216.732,256.374 216.614,256.053 216.466,255.744 216.287,255.453 216.080,255.180 215.846,254.930 215.589,254.704 215.311,254.505 215.014,254.335 214.702,254.195 214.377,254.087 214.043,254.012 213.704,253.971 213.362,253.964 213.021,253.991 212.684,254.052 212.355,254.146 212.037,254.273 211.734,254.431 211.447,254.618 211.181,254.833 210.938,255.073 210.719,255.337 210.528,255.621 210.367,255.923 210.236,256.239 210.138,256.567 210.073,256.903 210.042,257.243 210.044,257.585 210.081,257.926 210.152,258.260 210.256,258.586 210.392,258.900 210.559,259.199 210.754,259.480 210.977,259.740 211.224,259.976 211.494,260.187 211.783,260.369 212.090,260.522 212.410,260.643 212.740,260.732 213.078,260.787 213.419,260.808 213.761,260.795 214.100,260.749 214.433,260.668 214.755,260.555 215.065,260.410 215.359,260.234 215.634,260.031 215.887,259.801 216.116,259.546 216.319,259.271 216.493,258.976 216.636,258.665 216.748,258.342 216.827,258.009 216.873,257.670 "
           id="polyline95"
           style="fill:#dd0f23;fill-opacity:1;stroke:none;stroke-width:0.5pt;stroke-dasharray:none;stroke-opacity:1" />
      </g>
      <g
         clip-path="url(#ID000000)"
         id="g97">
        <polyline
           points="222.162,246.205 222.145,245.864 222.094,245.525 222.009,245.194 221.892,244.872 221.743,244.564 221.564,244.273 221.357,244.000 221.124,243.750 220.867,243.524 220.589,243.325 220.292,243.155 219.980,243.015 219.655,242.907 219.321,242.832 218.981,242.791 218.639,242.784 218.298,242.811 217.962,242.872 217.633,242.966 217.315,243.093 217.011,243.251 216.725,243.438 216.459,243.653 216.215,243.893 215.997,244.157 215.806,244.441 215.645,244.743 215.514,245.059 215.416,245.386 215.351,245.722 215.319,246.063 215.322,246.405 215.359,246.745 215.430,247.080 215.534,247.406 215.670,247.720 215.836,248.019 216.032,248.300 216.254,248.560 216.502,248.796 216.772,249.006 217.061,249.189 217.367,249.341 217.687,249.463 218.018,249.552 218.355,249.607 218.697,249.628 219.039,249.615 219.378,249.568 219.710,249.488 220.033,249.374 220.343,249.229 220.637,249.054 220.912,248.851 221.165,248.620 221.394,248.366 221.596,248.090 221.770,247.796 221.914,247.485 222.026,247.162 222.105,246.829 222.150,246.490 "
           id="polyline99"
           style="fill:#dd0f23;fill-opacity:1;stroke:none;stroke-width:0.5pt;stroke-dasharray:none;stroke-opacity:1" />
      </g>
      <g
         clip-path="url(#ID000000)"
         id="g101">
        <polyline
           points="222.792,278.485 222.775,278.144 222.723,277.805 222.639,277.474 222.521,277.152 222.373,276.844 222.194,276.553 221.987,276.280 221.753,276.030 221.496,275.804 221.218,275.605 220.921,275.435 220.609,275.295 220.284,275.187 219.950,275.112 219.611,275.071 219.269,275.064 218.928,275.091 218.591,275.152 218.262,275.246 217.944,275.373 217.641,275.531 217.354,275.718 217.088,275.933 216.845,276.173 216.626,276.437 216.436,276.721 216.274,277.023 216.143,277.339 216.045,277.666 215.980,278.002 215.949,278.343 215.952,278.685 215.989,279.025 216.059,279.360 216.163,279.686 216.299,280.000 216.466,280.299 216.661,280.580 216.884,280.840 217.131,281.076 217.401,281.286 217.691,281.469 217.997,281.621 218.317,281.743 218.647,281.832 218.985,281.887 219.326,281.908 219.668,281.895 220.007,281.848 220.340,281.768 220.662,281.654 220.972,281.509 221.266,281.334 221.541,281.131 221.794,280.900 222.023,280.646 222.226,280.370 222.400,280.076 222.543,279.765 222.655,279.442 222.734,279.109 222.780,278.770 "
           id="polyline103"
           style="fill:#dd0f23;fill-opacity:1;stroke:none;stroke-width:0.5pt;stroke-dasharray:none;stroke-opacity:1" />
      </g>
      <g
         clip-path="url(#ID000000)"
         id="g105">
        <polyline
           points="231.564,295.518 231.547,295.176 231.496,294.838 231.411,294.506 231.294,294.185 231.145,293.877 230.966,293.585 230.759,293.313 230.526,293.062 230.269,292.837 229.991,292.638 229.694,292.467 229.382,292.328 229.057,292.220 228.723,292.145 228.383,292.103 228.041,292.096 227.700,292.123 227.363,292.184 227.035,292.279 226.717,292.405 226.413,292.563 226.127,292.750 225.861,292.965 225.617,293.206 225.399,293.469 225.208,293.753 225.047,294.055 224.916,294.371 224.818,294.699 224.752,295.035 224.721,295.376 224.724,295.718 224.761,296.058 224.832,296.393 224.936,296.719 225.072,297.033 225.238,297.332 225.434,297.612 225.656,297.872 225.904,298.108 226.174,298.319 226.463,298.501 226.769,298.654 227.089,298.775 227.420,298.864 227.757,298.919 228.099,298.941 228.441,298.928 228.780,298.881 229.112,298.800 229.435,298.687 229.745,298.542 230.039,298.367 230.314,298.163 230.567,297.933 230.796,297.679 230.998,297.403 231.172,297.108 231.316,296.798 231.428,296.474 231.507,296.141 231.552,295.802 "
           id="polyline107"
           style="fill:#dd0f23;fill-opacity:1;stroke:none;stroke-width:0.5pt;stroke-dasharray:none;stroke-opacity:1" />
      </g>
      <g
         clip-path="url(#ID000000)"
         id="g109">
        <polyline
           points="233.605,242.217 233.588,241.875 233.537,241.537 233.452,241.206 233.335,240.884 233.186,240.576 233.007,240.284 232.800,240.012 232.567,239.762 232.310,239.536 232.032,239.337 231.735,239.167 231.423,239.027 231.098,238.919 230.764,238.844 230.424,238.803 230.082,238.796 229.741,238.823 229.405,238.884 229.076,238.978 228.758,239.105 228.454,239.262 228.168,239.450 227.902,239.665 227.658,239.905 227.440,240.169 227.249,240.453 227.088,240.754 226.957,241.070 226.859,241.398 226.794,241.734 226.762,242.075 226.765,242.417 226.802,242.757 226.873,243.092 226.977,243.418 227.113,243.732 227.279,244.031 227.475,244.312 227.697,244.571 227.945,244.808 228.215,245.018 228.504,245.201 228.810,245.353 229.130,245.474 229.461,245.563 229.798,245.619 230.140,245.640 230.482,245.627 230.821,245.580 231.153,245.500 231.476,245.386 231.786,245.241 232.080,245.066 232.355,244.862 232.608,244.632 232.837,244.378 233.040,244.102 233.213,243.807 233.357,243.497 233.469,243.174 233.548,242.841 233.593,242.502 "
           id="polyline111"
           style="fill:#dd0f23;fill-opacity:1;stroke:none;stroke-width:0.5pt;stroke-dasharray:none;stroke-opacity:1" />
      </g>
      <g
         clip-path="url(#ID000000)"
         id="g113">
        <polyline
           points="241.843,240.209 241.826,239.867 241.775,239.529 241.690,239.197 241.573,238.876 241.424,238.568 241.245,238.276 241.038,238.004 240.805,237.753 240.548,237.527 240.270,237.328 239.973,237.158 239.661,237.018 239.336,236.911 239.002,236.836 238.662,236.794 238.320,236.787 237.979,236.814 237.643,236.875 237.314,236.970 236.996,237.096 236.692,237.254 236.406,237.441 236.140,237.656 235.896,237.897 235.678,238.160 235.487,238.444 235.326,238.746 235.195,239.062 235.097,239.390 235.031,239.726 235.000,240.066 235.003,240.409 235.040,240.749 235.111,241.083 235.215,241.409 235.351,241.724 235.517,242.022 235.713,242.303 235.935,242.563 236.183,242.799 236.453,243.010 236.742,243.192 237.048,243.345 237.368,243.466 237.699,243.555 238.036,243.610 238.378,243.632 238.720,243.619 239.059,243.572 239.391,243.491 239.714,243.378 240.024,243.233 240.318,243.058 240.593,242.854 240.846,242.624 241.075,242.370 241.277,242.094 241.451,241.799 241.595,241.489 241.707,241.165 241.786,240.832 241.831,240.493 "
           id="polyline115"
           style="fill:#dd0f23;fill-opacity:1;stroke:none;stroke-width:0.5pt;stroke-dasharray:none;stroke-opacity:1" />
      </g>
      <g
         clip-path="url(#ID000000)"
         id="g117">
        <polyline
           points="242.226,269.716 242.209,269.374 242.158,269.036 242.073,268.704 241.956,268.383 241.807,268.075 241.628,267.783 241.421,267.511 241.188,267.260 240.931,267.034 240.653,266.835 240.356,266.665 240.044,266.525 239.719,266.417 239.385,266.342 239.045,266.301 238.703,266.294 238.362,266.321 238.026,266.382 237.697,266.477 237.379,266.603 237.075,266.761 236.789,266.948 236.523,267.163 236.279,267.404 236.061,267.667 235.870,267.951 235.709,268.253 235.578,268.569 235.480,268.897 235.415,269.233 235.383,269.573 235.386,269.916 235.423,270.256 235.494,270.590 235.598,270.916 235.734,271.230 235.900,271.529 236.096,271.810 236.318,272.070 236.566,272.306 236.836,272.517 237.125,272.699 237.431,272.852 237.751,272.973 238.082,273.062 238.419,273.117 238.761,273.138 239.103,273.126 239.442,273.079 239.774,272.998 240.097,272.885 240.407,272.740 240.701,272.565 240.976,272.361 241.229,272.131 241.458,271.877 241.661,271.601 241.834,271.306 241.978,270.995 242.090,270.672 242.169,270.339 242.214,270.000 "
           id="polyline119"
           style="fill:#dd0f23;fill-opacity:1;stroke:none;stroke-width:0.5pt;stroke-dasharray:none;stroke-opacity:1" />
      </g>
      <g
         clip-path="url(#ID000000)"
         id="g121">
        <polyline
           points="248.727,262.555 248.710,262.213 248.659,261.875 248.574,261.543 248.457,261.222 248.308,260.914 248.129,260.622 247.922,260.350 247.689,260.099 247.432,259.873 247.154,259.674 246.857,259.504 246.545,259.364 246.220,259.257 245.886,259.182 245.546,259.140 245.204,259.133 244.863,259.160 244.526,259.221 244.198,259.316 243.880,259.442 243.576,259.600 243.290,259.787 243.024,260.002 242.780,260.243 242.562,260.506 242.371,260.790 242.210,261.092 242.079,261.408 241.981,261.736 241.915,262.072 241.884,262.412 241.887,262.755 241.924,263.095 241.995,263.429 242.099,263.755 242.235,264.070 242.401,264.368 242.597,264.649 242.819,264.909 243.067,265.145 243.337,265.356 243.626,265.538 243.932,265.691 244.252,265.812 244.583,265.901 244.920,265.956 245.262,265.977 245.604,265.965 245.943,265.918 246.275,265.837 246.598,265.724 246.908,265.579 247.202,265.404 247.477,265.200 247.730,264.970 247.959,264.716 248.161,264.440 248.335,264.145 248.479,263.835 248.591,263.511 248.670,263.178 248.715,262.839 "
           id="polyline123"
           style="fill:#dd0f23;fill-opacity:1;stroke:none;stroke-width:0.5pt;stroke-dasharray:none;stroke-opacity:1" />
      </g>
      <g
         clip-path="url(#ID000000)"
         id="g125">
        <polyline
           points="255.735,222.381 255.718,222.039 255.667,221.701 255.582,221.369 255.465,221.048 255.316,220.740 255.137,220.448 254.930,220.176 254.697,219.925 254.440,219.700 254.162,219.501 253.865,219.330 253.553,219.191 253.228,219.083 252.894,219.008 252.554,218.966 252.212,218.959 251.871,218.986 251.535,219.047 251.206,219.142 250.888,219.268 250.584,219.426 250.298,219.613 250.032,219.828 249.788,220.069 249.570,220.332 249.379,220.616 249.218,220.918 249.087,221.234 248.989,221.562 248.924,221.898 248.892,222.239 248.895,222.581 248.932,222.921 249.003,223.256 249.107,223.582 249.243,223.896 249.409,224.195 249.605,224.475 249.827,224.735 250.075,224.971 250.345,225.182 250.634,225.364 250.940,225.517 251.260,225.638 251.591,225.727 251.928,225.782 252.270,225.804 252.612,225.791 252.951,225.744 253.283,225.663 253.606,225.550 253.916,225.405 254.210,225.230 254.485,225.026 254.738,224.796 254.967,224.542 255.169,224.266 255.343,223.971 255.487,223.661 255.599,223.337 255.678,223.004 255.723,222.665 "
           id="polyline127"
           style="fill:#dd0f23;fill-opacity:1;stroke:none;stroke-width:0.5pt;stroke-dasharray:none;stroke-opacity:1" />
      </g>
      <g
         clip-path="url(#ID000000)"
         id="g129">
        <polyline
           points="258.167,257.105 258.150,256.763 258.099,256.425 258.014,256.094 257.897,255.772 257.748,255.464 257.569,255.172 257.362,254.900 257.129,254.650 256.872,254.424 256.594,254.225 256.297,254.054 255.985,253.915 255.660,253.807 255.326,253.732 254.986,253.691 254.644,253.684 254.303,253.711 253.966,253.772 253.638,253.866 253.320,253.993 253.016,254.150 252.730,254.338 252.464,254.553 252.220,254.793 252.002,255.057 251.811,255.341 251.650,255.642 251.519,255.958 251.421,256.286 251.355,256.622 251.324,256.963 251.327,257.305 251.364,257.645 251.435,257.980 251.539,258.306 251.675,258.620 251.841,258.919 252.037,259.199 252.259,259.459 252.507,259.696 252.777,259.906 253.066,260.089 253.372,260.241 253.692,260.362 254.023,260.451 254.360,260.507 254.702,260.528 255.044,260.515 255.383,260.468 255.715,260.387 256.038,260.274 256.348,260.129 256.642,259.954 256.917,259.750 257.170,259.520 257.399,259.266 257.601,258.990 257.775,258.695 257.919,258.385 258.031,258.062 258.110,257.729 258.155,257.390 "
           id="polyline131"
           style="fill:#dd0f23;fill-opacity:1;stroke:none;stroke-width:0.5pt;stroke-dasharray:none;stroke-opacity:1" />
      </g>
      <g
         clip-path="url(#ID000000)"
         id="g133">
        <polyline
           points="263.790,240.430 263.773,240.088 263.721,239.750 263.637,239.418 263.519,239.097 263.371,238.789 263.192,238.497 262.985,238.225 262.751,237.975 262.494,237.749 262.216,237.550 261.919,237.379 261.607,237.240 261.282,237.132 260.948,237.057 260.609,237.016 260.267,237.009 259.926,237.036 259.589,237.097 259.260,237.191 258.942,237.318 258.639,237.475 258.352,237.663 258.086,237.877 257.843,238.118 257.624,238.381 257.434,238.665 257.272,238.967 257.141,239.283 257.043,239.611 256.978,239.947 256.947,240.288 256.949,240.630 256.987,240.970 257.057,241.305 257.161,241.631 257.297,241.945 257.464,242.244 257.659,242.524 257.882,242.784 258.129,243.021 258.399,243.231 258.688,243.413 258.995,243.566 259.315,243.687 259.645,243.776 259.983,243.831 260.324,243.853 260.666,243.840 261.005,243.793 261.338,243.712 261.660,243.599 261.970,243.454 262.264,243.279 262.539,243.075 262.792,242.845 263.021,242.591 263.224,242.315 263.398,242.020 263.541,241.710 263.653,241.386 263.732,241.054 263.778,240.714 "
           id="polyline135"
           style="fill:#dd0f23;fill-opacity:1;stroke:none;stroke-width:0.5pt;stroke-dasharray:none;stroke-opacity:1" />
      </g>
      <g
         clip-path="url(#ID000000)"
         id="g137">
        <polyline
           points="271.136,280.537 271.119,280.195 271.068,279.857 270.983,279.525 270.866,279.204 270.717,278.896 270.538,278.604 270.331,278.332 270.098,278.081 269.841,277.855 269.562,277.656 269.265,277.486 268.953,277.346 268.628,277.239 268.295,277.164 267.955,277.122 267.613,277.115 267.272,277.142 266.935,277.203 266.606,277.298 266.288,277.424 265.985,277.582 265.698,277.769 265.432,277.984 265.189,278.225 264.971,278.488 264.780,278.772 264.618,279.074 264.488,279.390 264.389,279.718 264.324,280.054 264.293,280.394 264.296,280.737 264.333,281.077 264.403,281.412 264.507,281.738 264.643,282.052 264.810,282.350 265.005,282.631 265.228,282.891 265.475,283.127 265.745,283.338 266.035,283.520 266.341,283.673 266.661,283.794 266.991,283.883 267.329,283.938 267.670,283.960 268.012,283.947 268.351,283.900 268.684,283.819 269.007,283.706 269.317,283.561 269.610,283.386 269.885,283.182 270.139,282.952 270.368,282.698 270.570,282.422 270.744,282.127 270.888,281.817 270.999,281.493 271.079,281.160 271.124,280.821 "
           id="polyline139"
           style="fill:#dd0f23;fill-opacity:1;stroke:none;stroke-width:0.5pt;stroke-dasharray:none;stroke-opacity:1" />
      </g>
      <g
         clip-path="url(#ID000000)"
         id="g141">
        <polyline
           points="274.098,239.628 274.081,239.286 274.030,238.948 273.945,238.616 273.828,238.295 273.679,237.986 273.500,237.695 273.293,237.422 273.060,237.172 272.803,236.946 272.524,236.747 272.228,236.577 271.915,236.437 271.590,236.329 271.257,236.254 270.917,236.213 270.575,236.206 270.234,236.233 269.897,236.294 269.568,236.388 269.250,236.515 268.947,236.673 268.660,236.860 268.394,237.075 268.151,237.315 267.933,237.579 267.742,237.863 267.580,238.165 267.450,238.481 267.351,238.809 267.286,239.145 267.255,239.485 267.258,239.827 267.295,240.168 267.365,240.502 267.469,240.828 267.605,241.142 267.772,241.441 267.967,241.722 268.190,241.982 268.437,242.218 268.707,242.429 268.997,242.611 269.303,242.764 269.623,242.885 269.953,242.974 270.291,243.029 270.632,243.050 270.974,243.037 271.313,242.990 271.646,242.910 271.969,242.797 272.279,242.652 272.572,242.476 272.847,242.273 273.101,242.043 273.330,241.788 273.532,241.513 273.706,241.218 273.850,240.907 273.962,240.584 274.041,240.251 274.086,239.912 "
           id="polyline143"
           style="fill:#dd0f23;fill-opacity:1;stroke:none;stroke-width:0.5pt;stroke-dasharray:none;stroke-opacity:1" />
      </g>
      <g
         clip-path="url(#ID000000)"
         id="g145">
        <polyline
           points="279.773,232.657 279.756,232.315 279.705,231.977 279.620,231.645 279.503,231.324 279.354,231.016 279.175,230.724 278.968,230.452 278.735,230.201 278.478,229.975 278.200,229.776 277.903,229.606 277.591,229.466 277.266,229.358 276.932,229.284 276.592,229.242 276.250,229.235 275.909,229.262 275.572,229.323 275.244,229.418 274.926,229.544 274.622,229.702 274.336,229.889 274.070,230.104 273.826,230.345 273.608,230.608 273.417,230.892 273.256,231.194 273.125,231.510 273.027,231.838 272.961,232.174 272.930,232.514 272.933,232.857 272.970,233.197 273.041,233.531 273.145,233.857 273.281,234.171 273.447,234.470 273.643,234.751 273.865,235.011 274.113,235.247 274.383,235.458 274.672,235.640 274.978,235.793 275.298,235.914 275.629,236.003 275.966,236.058 276.308,236.079 276.650,236.067 276.989,236.020 277.321,235.939 277.644,235.826 277.954,235.681 278.248,235.506 278.523,235.302 278.776,235.072 279.005,234.818 279.207,234.542 279.381,234.247 279.525,233.937 279.637,233.613 279.716,233.280 279.761,232.941 "
           id="polyline147"
           style="fill:#dd0f23;fill-opacity:1;stroke:none;stroke-width:0.5pt;stroke-dasharray:none;stroke-opacity:1" />
      </g>
      <g
         clip-path="url(#ID000000)"
         id="g149">
        <polyline
           points="285.535,218.027 285.517,217.685 285.466,217.347 285.382,217.015 285.264,216.694 285.116,216.386 284.937,216.094 284.730,215.822 284.496,215.571 284.239,215.346 283.961,215.147 283.664,214.976 283.352,214.837 283.027,214.729 282.693,214.654 282.354,214.612 282.012,214.605 281.671,214.632 281.334,214.693 281.005,214.788 280.687,214.914 280.384,215.072 280.097,215.259 279.831,215.474 279.587,215.715 279.369,215.978 279.178,216.262 279.017,216.564 278.886,216.880 278.788,217.208 278.723,217.544 278.692,217.885 278.694,218.227 278.731,218.567 278.802,218.902 278.906,219.228 279.042,219.542 279.209,219.841 279.404,220.121 279.627,220.381 279.874,220.617 280.144,220.828 280.433,221.010 280.740,221.163 281.060,221.284 281.390,221.373 281.728,221.428 282.069,221.450 282.411,221.437 282.750,221.390 283.083,221.309 283.405,221.196 283.715,221.051 284.009,220.876 284.284,220.672 284.537,220.442 284.766,220.188 284.969,219.912 285.143,219.617 285.286,219.307 285.398,218.983 285.477,218.650 285.523,218.311 "
           id="polyline151"
           style="fill:#dd0f23;fill-opacity:1;stroke:none;stroke-width:0.5pt;stroke-dasharray:none;stroke-opacity:1" />
      </g>
      <g
         clip-path="url(#ID000000)"
         id="g153">
        <polyline
           points="287.867,231.003 287.850,230.661 287.799,230.322 287.714,229.991 287.597,229.670 287.448,229.361 287.269,229.070 287.062,228.797 286.829,228.547 286.572,228.321 286.294,228.122 285.997,227.952 285.685,227.812 285.360,227.704 285.026,227.629 284.686,227.588 284.344,227.581 284.003,227.608 283.667,227.669 283.338,227.763 283.020,227.890 282.716,228.048 282.430,228.235 282.164,228.450 281.920,228.690 281.702,228.954 281.511,229.238 281.350,229.540 281.219,229.856 281.121,230.184 281.056,230.519 281.024,230.860 281.027,231.202 281.064,231.542 281.135,231.877 281.239,232.203 281.375,232.517 281.541,232.816 281.737,233.097 281.959,233.357 282.207,233.593 282.477,233.803 282.766,233.986 283.072,234.139 283.392,234.260 283.723,234.349 284.060,234.404 284.402,234.425 284.744,234.412 285.083,234.365 285.415,234.285 285.738,234.172 286.048,234.027 286.342,233.851 286.617,233.648 286.870,233.418 287.099,233.163 287.302,232.888 287.475,232.593 287.619,232.282 287.731,231.959 287.810,231.626 287.855,231.287 "
           id="polyline155"
           style="fill:#dd0f23;fill-opacity:1;stroke:none;stroke-width:0.5pt;stroke-dasharray:none;stroke-opacity:1" />
      </g>
      <g
         clip-path="url(#ID000000)"
         id="g157">
        <polyline
           points="292.951,206.831 292.934,206.490 292.883,206.151 292.798,205.820 292.681,205.498 292.532,205.190 292.353,204.899 292.146,204.626 291.913,204.376 291.656,204.150 291.377,203.951 291.080,203.781 290.768,203.641 290.443,203.533 290.110,203.458 289.770,203.417 289.428,203.410 289.087,203.437 288.750,203.498 288.421,203.592 288.103,203.719 287.800,203.877 287.513,204.064 287.247,204.279 287.004,204.519 286.786,204.783 286.595,205.067 286.433,205.368 286.303,205.685 286.204,206.012 286.139,206.348 286.108,206.689 286.111,207.031 286.148,207.371 286.218,207.706 286.322,208.032 286.458,208.346 286.625,208.645 286.820,208.926 287.043,209.186 287.290,209.422 287.560,209.632 287.850,209.815 288.156,209.967 288.476,210.089 288.806,210.177 289.144,210.233 289.485,210.254 289.827,210.241 290.166,210.194 290.499,210.114 290.822,210.000 291.132,209.855 291.425,209.680 291.700,209.477 291.954,209.246 292.183,208.992 292.385,208.716 292.559,208.422 292.703,208.111 292.814,207.788 292.894,207.455 292.939,207.116 "
           id="polyline159"
           style="fill:#dd0f23;fill-opacity:1;stroke:none;stroke-width:0.5pt;stroke-dasharray:none;stroke-opacity:1" />
      </g>
      <g
         clip-path="url(#ID000000)"
         id="g161">
        <polyline
           points="299.029,221.574 299.011,221.233 298.960,220.894 298.876,220.563 298.758,220.241 298.610,219.933 298.431,219.641 298.224,219.369 297.990,219.119 297.733,218.893 297.455,218.694 297.158,218.524 296.846,218.384 296.521,218.276 296.187,218.201 295.848,218.160 295.506,218.153 295.165,218.180 294.828,218.241 294.499,218.335 294.181,218.462 293.878,218.619 293.591,218.807 293.325,219.022 293.081,219.262 292.863,219.526 292.672,219.810 292.511,220.111 292.380,220.428 292.282,220.755 292.217,221.091 292.186,221.432 292.188,221.774 292.225,222.114 292.296,222.449 292.400,222.775 292.536,223.089 292.703,223.388 292.898,223.669 293.121,223.928 293.368,224.165 293.638,224.375 293.927,224.558 294.234,224.710 294.554,224.832 294.884,224.920 295.222,224.976 295.563,224.997 295.905,224.984 296.244,224.937 296.577,224.857 296.899,224.743 297.209,224.598 297.503,224.423 297.778,224.219 298.031,223.989 298.260,223.735 298.463,223.459 298.637,223.165 298.780,222.854 298.892,222.531 298.971,222.198 299.017,221.859 "
           id="polyline163"
           style="fill:#dd0f23;fill-opacity:1;stroke:none;stroke-width:0.5pt;stroke-dasharray:none;stroke-opacity:1" />
      </g>
      <g
         clip-path="url(#ID000000)"
         id="g165">
        <polyline
           points="305.141,181.513 305.124,181.172 305.073,180.833 304.988,180.502 304.871,180.180 304.722,179.872 304.543,179.580 304.336,179.308 304.103,179.058 303.846,178.832 303.568,178.633 303.271,178.463 302.959,178.323 302.634,178.215 302.300,178.140 301.960,178.099 301.618,178.092 301.277,178.119 300.940,178.180 300.612,178.274 300.294,178.401 299.990,178.558 299.704,178.746 299.437,178.961 299.194,179.201 298.976,179.465 298.785,179.749 298.624,180.050 298.493,180.367 298.395,180.694 298.329,181.030 298.298,181.371 298.301,181.713 298.338,182.053 298.409,182.388 298.513,182.714 298.649,183.028 298.815,183.327 299.011,183.608 299.233,183.867 299.481,184.104 299.751,184.314 300.040,184.497 300.346,184.649 300.666,184.771 300.997,184.859 301.334,184.915 301.676,184.936 302.018,184.923 302.357,184.876 302.689,184.796 303.012,184.682 303.322,184.537 303.616,184.362 303.891,184.158 304.144,183.928 304.373,183.674 304.575,183.398 304.749,183.104 304.893,182.793 305.005,182.470 305.084,182.137 305.129,181.798 "
           id="polyline167"
           style="fill:#dd0f23;fill-opacity:1;stroke:none;stroke-width:0.5pt;stroke-dasharray:none;stroke-opacity:1" />
      </g>
      <g
         clip-path="url(#ID000000)"
         id="g169">
        <polyline
           points="309.697,180.459 309.680,180.117 309.628,179.779 309.544,179.447 309.426,179.126 309.278,178.817 309.099,178.526 308.892,178.253 308.658,178.003 308.401,177.777 308.123,177.578 307.826,177.408 307.514,177.268 307.189,177.160 306.855,177.085 306.516,177.044 306.174,177.037 305.833,177.064 305.496,177.125 305.167,177.219 304.849,177.346 304.546,177.504 304.259,177.691 303.993,177.906 303.750,178.146 303.531,178.410 303.340,178.694 303.179,178.996 303.048,179.312 302.950,179.640 302.885,179.976 302.854,180.316 302.856,180.658 302.893,180.999 302.964,181.333 303.068,181.659 303.204,181.973 303.371,182.272 303.566,182.553 303.789,182.813 304.036,183.049 304.306,183.260 304.595,183.442 304.902,183.595 305.222,183.716 305.552,183.805 305.890,183.860 306.231,183.881 306.573,183.868 306.912,183.822 307.245,183.741 307.567,183.628 307.877,183.483 308.171,183.307 308.446,183.104 308.699,182.874 308.928,182.619 309.131,182.344 309.305,182.049 309.448,181.738 309.560,181.415 309.639,181.082 309.685,180.743 "
           id="polyline171"
           style="fill:#dd0f23;fill-opacity:1;stroke:none;stroke-width:0.5pt;stroke-dasharray:none;stroke-opacity:1" />
      </g>
      <g
         clip-path="url(#ID000000)"
         id="g173">
        <polyline
           points="311.295,167.414 311.278,167.072 311.227,166.734 311.142,166.402 311.025,166.081 310.876,165.773 310.697,165.481 310.490,165.209 310.257,164.959 310.000,164.733 309.721,164.534 309.424,164.363 309.112,164.224 308.787,164.116 308.454,164.041 308.114,164.000 307.772,163.993 307.431,164.020 307.094,164.081 306.765,164.175 306.447,164.302 306.144,164.459 305.857,164.647 305.591,164.861 305.348,165.102 305.129,165.365 304.939,165.649 304.777,165.951 304.647,166.267 304.548,166.595 304.483,166.931 304.452,167.272 304.455,167.614 304.492,167.954 304.562,168.289 304.666,168.615 304.802,168.929 304.969,169.228 305.164,169.508 305.387,169.768 305.634,170.005 305.904,170.215 306.194,170.397 306.500,170.550 306.820,170.671 307.150,170.760 307.488,170.815 307.829,170.837 308.171,170.824 308.510,170.777 308.843,170.696 309.166,170.583 309.475,170.438 309.769,170.263 310.044,170.059 310.298,169.829 310.527,169.575 310.729,169.299 310.903,169.004 311.047,168.694 311.158,168.370 311.237,168.038 311.283,167.698 "
           id="polyline175"
           style="fill:#dd0f23;fill-opacity:1;stroke:none;stroke-width:0.5pt;stroke-dasharray:none;stroke-opacity:1" />
      </g>
      <g
         clip-path="url(#ID000000)"
         id="g177">
        <polyline
           points="317.533,128.644 317.516,128.302 317.465,127.964 317.380,127.632 317.263,127.311 317.114,127.003 316.935,126.711 316.728,126.439 316.495,126.188 316.238,125.962 315.959,125.763 315.663,125.593 315.350,125.453 315.026,125.346 314.692,125.271 314.352,125.229 314.010,125.222 313.669,125.249 313.332,125.310 313.003,125.405 312.685,125.531 312.382,125.689 312.095,125.876 311.829,126.091 311.586,126.332 311.368,126.595 311.177,126.879 311.015,127.181 310.885,127.497 310.786,127.825 310.721,128.161 310.690,128.501 310.693,128.844 310.730,129.184 310.801,129.519 310.904,129.845 311.040,130.159 311.207,130.457 311.402,130.738 311.625,130.998 311.872,131.234 312.142,131.445 312.432,131.627 312.738,131.780 313.058,131.901 313.388,131.990 313.726,132.045 314.067,132.067 314.409,132.054 314.748,132.007 315.081,131.926 315.404,131.813 315.714,131.668 316.008,131.493 316.282,131.289 316.536,131.059 316.765,130.805 316.967,130.529 317.141,130.234 317.285,129.924 317.397,129.600 317.476,129.267 317.521,128.928 "
           id="polyline179"
           style="fill:#dd0f23;fill-opacity:1;stroke:none;stroke-width:0.5pt;stroke-dasharray:none;stroke-opacity:1" />
      </g>
      <g
         clip-path="url(#ID000000)"
         id="g181">
        <polyline
           points="321.988,163.597 321.971,163.255 321.920,162.917 321.835,162.585 321.718,162.264 321.569,161.956 321.390,161.664 321.183,161.392 320.950,161.141 320.693,160.915 320.415,160.716 320.118,160.546 319.806,160.406 319.481,160.298 319.147,160.224 318.807,160.182 318.465,160.175 318.124,160.202 317.788,160.263 317.459,160.358 317.141,160.484 316.837,160.642 316.551,160.829 316.285,161.044 316.041,161.285 315.823,161.548 315.632,161.832 315.471,162.134 315.340,162.450 315.242,162.778 315.176,163.114 315.145,163.454 315.148,163.797 315.185,164.137 315.256,164.471 315.360,164.797 315.496,165.111 315.662,165.410 315.858,165.691 316.080,165.951 316.328,166.187 316.598,166.398 316.887,166.580 317.193,166.733 317.513,166.854 317.844,166.943 318.181,166.998 318.523,167.019 318.865,167.007 319.204,166.960 319.536,166.879 319.859,166.766 320.169,166.621 320.463,166.446 320.738,166.242 320.991,166.012 321.220,165.758 321.422,165.482 321.596,165.187 321.740,164.876 321.852,164.553 321.931,164.220 321.976,163.881 "
           id="polyline183"
           style="fill:#dd0f23;fill-opacity:1;stroke:none;stroke-width:0.5pt;stroke-dasharray:none;stroke-opacity:1" />
      </g>
      <g
         clip-path="url(#ID000000)"
         id="g185">
        <polyline
           points="326.066,208.752 326.049,208.410 325.998,208.072 325.913,207.741 325.796,207.419 325.647,207.111 325.468,206.819 325.261,206.547 325.028,206.297 324.771,206.071 324.493,205.872 324.196,205.702 323.884,205.562 323.559,205.454 323.225,205.379 322.885,205.338 322.543,205.331 322.202,205.358 321.866,205.419 321.537,205.513 321.219,205.640 320.915,205.797 320.629,205.985 320.363,206.200 320.119,206.440 319.901,206.704 319.710,206.988 319.549,207.289 319.418,207.606 319.320,207.933 319.255,208.269 319.223,208.610 319.226,208.952 319.263,209.292 319.334,209.627 319.438,209.953 319.574,210.267 319.740,210.566 319.936,210.847 320.158,211.106 320.406,211.343 320.676,211.553 320.965,211.736 321.271,211.888 321.591,212.010 321.922,212.098 322.259,212.154 322.601,212.175 322.943,212.162 323.282,212.115 323.614,212.035 323.937,211.921 324.247,211.776 324.541,211.601 324.816,211.397 325.069,211.167 325.298,210.913 325.500,210.637 325.674,210.343 325.818,210.032 325.930,209.709 326.009,209.376 326.054,209.037 "
           id="polyline187"
           style="fill:#dd0f23;fill-opacity:1;stroke:none;stroke-width:0.5pt;stroke-dasharray:none;stroke-opacity:1" />
      </g>
      <g
         clip-path="url(#ID000000)"
         id="g189">
        <polyline
           points="334.344,97.324 334.327,96.982 334.275,96.644 334.191,96.312 334.073,95.991 333.925,95.683 333.746,95.391 333.539,95.119 333.306,94.868 333.048,94.642 332.770,94.443 332.473,94.273 332.161,94.133 331.836,94.025 331.502,93.951 331.163,93.909 330.821,93.902 330.480,93.929 330.143,93.990 329.814,94.085 329.496,94.211 329.193,94.369 328.906,94.556 328.640,94.771 328.397,95.012 328.178,95.275 327.988,95.559 327.826,95.861 327.695,96.177 327.597,96.505 327.532,96.841 327.501,97.181 327.504,97.524 327.541,97.864 327.611,98.198 327.715,98.524 327.851,98.839 328.018,99.137 328.213,99.418 328.436,99.678 328.683,99.914 328.953,100.125 329.243,100.307 329.549,100.460 329.869,100.581 330.199,100.670 330.537,100.725 330.878,100.746 331.220,100.734 331.559,100.687 331.892,100.606 332.215,100.493 332.524,100.348 332.818,100.173 333.093,99.969 333.346,99.739 333.575,99.485 333.778,99.209 333.952,98.914 334.095,98.604 334.207,98.280 334.286,97.947 334.332,97.608 "
           id="polyline191"
           style="fill:#dd0f23;fill-opacity:1;stroke:none;stroke-width:0.5pt;stroke-dasharray:none;stroke-opacity:1" />
      </g>
      <g
         clip-path="url(#ID000000)"
         id="g193">
        <polyline
           points="336.791,156.401 336.774,156.059 336.723,155.721 336.638,155.389 336.521,155.068 336.372,154.760 336.193,154.468 335.986,154.196 335.753,153.945 335.496,153.720 335.217,153.521 334.921,153.350 334.608,153.211 334.284,153.103 333.950,153.028 333.610,152.987 333.268,152.979 332.927,153.006 332.590,153.067 332.261,153.162 331.944,153.288 331.640,153.446 331.354,153.633 331.087,153.848 330.844,154.089 330.626,154.352 330.435,154.636 330.273,154.938 330.143,155.254 330.044,155.582 329.979,155.918 329.948,156.259 329.951,156.601 329.988,156.941 330.059,157.276 330.163,157.602 330.298,157.916 330.465,158.215 330.661,158.495 330.883,158.755 331.131,158.991 331.400,159.202 331.690,159.384 331.996,159.537 332.316,159.658 332.646,159.747 332.984,159.802 333.326,159.824 333.668,159.811 334.006,159.764 334.339,159.683 334.662,159.570 334.972,159.425 335.266,159.250 335.541,159.046 335.794,158.816 336.023,158.562 336.225,158.286 336.399,157.991 336.543,157.681 336.655,157.357 336.734,157.025 336.779,156.685 "
           id="polyline195"
           style="fill:#dd0f23;fill-opacity:1;stroke:none;stroke-width:0.5pt;stroke-dasharray:none;stroke-opacity:1" />
      </g>
      <g
         clip-path="url(#ID000000)"
         id="g197">
        <polyline
           points="342.170,154.494 342.153,154.152 342.102,153.814 342.017,153.482 341.900,153.161 341.751,152.853 341.572,152.561 341.365,152.289 341.132,152.038 340.875,151.813 340.597,151.614 340.300,151.443 339.988,151.304 339.663,151.196 339.329,151.121 338.989,151.079 338.647,151.072 338.306,151.099 337.969,151.160 337.641,151.255 337.323,151.381 337.019,151.539 336.733,151.726 336.467,151.941 336.223,152.182 336.005,152.445 335.814,152.729 335.653,153.031 335.522,153.347 335.424,153.675 335.358,154.011 335.327,154.352 335.330,154.694 335.367,155.034 335.438,155.369 335.542,155.695 335.678,156.009 335.844,156.308 336.040,156.588 336.262,156.848 336.510,157.084 336.780,157.295 337.069,157.477 337.375,157.630 337.695,157.751 338.026,157.840 338.363,157.895 338.705,157.917 339.047,157.904 339.386,157.857 339.718,157.776 340.041,157.663 340.351,157.518 340.645,157.343 340.920,157.139 341.173,156.909 341.402,156.655 341.604,156.379 341.778,156.084 341.922,155.774 342.034,155.450 342.113,155.117 342.158,154.778 "
           id="polyline199"
           style="fill:#dd0f23;fill-opacity:1;stroke:none;stroke-width:0.5pt;stroke-dasharray:none;stroke-opacity:1" />
      </g>
      <g
         clip-path="url(#ID000000)"
         id="g201">
        <polyline
           points="348.582,163.310 348.565,162.969 348.514,162.630 348.429,162.299 348.312,161.977 348.163,161.669 347.984,161.377 347.777,161.105 347.544,160.855 347.287,160.629 347.008,160.430 346.711,160.260 346.399,160.120 346.074,160.012 345.741,159.937 345.401,159.896 345.059,159.889 344.718,159.916 344.381,159.977 344.052,160.071 343.734,160.198 343.431,160.355 343.144,160.543 342.878,160.758 342.635,160.998 342.416,161.262 342.226,161.546 342.064,161.847 341.934,162.164 341.835,162.491 341.770,162.827 341.739,163.168 341.742,163.510 341.779,163.850 341.849,164.185 341.953,164.511 342.089,164.825 342.256,165.124 342.451,165.405 342.674,165.664 342.921,165.901 343.191,166.111 343.481,166.294 343.787,166.446 344.107,166.568 344.437,166.656 344.775,166.712 345.116,166.733 345.458,166.720 345.797,166.673 346.130,166.593 346.453,166.479 346.762,166.334 347.056,166.159 347.331,165.955 347.585,165.725 347.814,165.471 348.016,165.195 348.190,164.901 348.334,164.590 348.445,164.267 348.524,163.934 348.570,163.595 "
           id="polyline203"
           style="fill:#dd0f23;fill-opacity:1;stroke:none;stroke-width:0.5pt;stroke-dasharray:none;stroke-opacity:1" />
      </g>
      <g
         clip-path="url(#ID000000)"
         id="g205">
        <polyline
           points="353.497,187.467 353.480,187.126 353.429,186.787 353.344,186.456 353.227,186.134 353.078,185.826 352.899,185.535 352.692,185.262 352.459,185.012 352.202,184.786 351.924,184.587 351.627,184.417 351.314,184.277 350.990,184.169 350.656,184.094 350.316,184.053 349.974,184.046 349.633,184.073 349.296,184.134 348.968,184.228 348.650,184.355 348.346,184.513 348.060,184.700 347.793,184.915 347.550,185.155 347.332,185.419 347.141,185.703 346.979,186.005 346.849,186.321 346.751,186.649 346.685,186.984 346.654,187.325 346.657,187.667 346.694,188.007 346.765,188.342 346.869,188.668 347.005,188.982 347.171,189.281 347.367,189.562 347.589,189.822 347.837,190.058 348.107,190.268 348.396,190.451 348.702,190.603 349.022,190.725 349.353,190.814 349.690,190.869 350.032,190.890 350.374,190.877 350.713,190.830 351.045,190.750 351.368,190.637 351.678,190.492 351.972,190.316 352.247,190.113 352.500,189.883 352.729,189.628 352.931,189.352 353.105,189.058 353.249,188.747 353.361,188.424 353.440,188.091 353.485,187.752 "
           id="polyline207"
           style="fill:#dd0f23;fill-opacity:1;stroke:none;stroke-width:0.5pt;stroke-dasharray:none;stroke-opacity:1" />
      </g>
      <g
         clip-path="url(#ID000000)"
         id="g209">
        <polyline
           points="357.986,143.085 357.969,142.743 357.917,142.405 357.833,142.073 357.715,141.752 357.567,141.444 357.388,141.152 357.181,140.879 356.947,140.629 356.690,140.403 356.412,140.204 356.115,140.034 355.803,139.894 355.478,139.786 355.144,139.711 354.805,139.670 354.463,139.663 354.122,139.690 353.785,139.751 353.456,139.845 353.138,139.972 352.835,140.130 352.548,140.317 352.282,140.532 352.039,140.773 351.820,141.036 351.630,141.320 351.468,141.622 351.337,141.938 351.239,142.266 351.174,142.602 351.143,142.942 351.146,143.284 351.183,143.625 351.253,143.959 351.357,144.285 351.493,144.599 351.660,144.898 351.855,145.179 352.078,145.439 352.325,145.675 352.595,145.886 352.885,146.068 353.191,146.221 353.511,146.342 353.841,146.431 354.179,146.486 354.520,146.507 354.862,146.494 355.201,146.448 355.534,146.367 355.856,146.254 356.166,146.109 356.460,145.933 356.735,145.730 356.988,145.500 357.217,145.245 357.420,144.970 357.594,144.675 357.737,144.364 357.849,144.041 357.928,143.708 357.974,143.369 "
           id="polyline211"
           style="fill:#dd0f23;fill-opacity:1;stroke:none;stroke-width:0.5pt;stroke-dasharray:none;stroke-opacity:1" />
      </g>
      <g
         clip-path="url(#ID000000)"
         id="g213">
        <polyline
           points="360.433,124.939 360.416,124.598 360.365,124.259 360.280,123.928 360.163,123.606 360.014,123.298 359.835,123.007 359.628,122.734 359.395,122.484 359.138,122.258 358.859,122.059 358.563,121.889 358.250,121.749 357.926,121.641 357.592,121.566 357.252,121.525 356.910,121.518 356.569,121.545 356.232,121.606 355.903,121.700 355.585,121.827 355.282,121.985 354.995,122.172 354.729,122.387 354.486,122.627 354.268,122.891 354.077,123.175 353.915,123.477 353.785,123.793 353.686,124.121 353.621,124.456 353.590,124.797 353.593,125.139 353.630,125.479 353.701,125.814 353.804,126.140 353.940,126.454 354.107,126.753 354.302,127.034 354.525,127.294 354.772,127.530 355.042,127.740 355.332,127.923 355.638,128.075 355.958,128.197 356.288,128.286 356.626,128.341 356.967,128.362 357.309,128.349 357.648,128.302 357.981,128.222 358.304,128.109 358.614,127.964 358.907,127.788 359.182,127.585 359.436,127.355 359.665,127.100 359.867,126.824 360.041,126.530 360.185,126.219 360.297,125.896 360.376,125.563 360.421,125.224 "
           id="polyline215"
           style="fill:#dd0f23;fill-opacity:1;stroke:none;stroke-width:0.5pt;stroke-dasharray:none;stroke-opacity:1" />
      </g>
      <g
         clip-path="url(#ID000000)"
         id="g217">
        <polyline
           points="366.001,128.898 365.983,128.557 365.932,128.218 365.848,127.887 365.730,127.565 365.581,127.257 365.403,126.966 365.196,126.693 364.962,126.443 364.705,126.217 364.427,126.018 364.130,125.848 363.818,125.708 363.493,125.600 363.159,125.525 362.820,125.484 362.478,125.477 362.136,125.504 361.800,125.565 361.471,125.659 361.153,125.786 360.849,125.944 360.563,126.131 360.297,126.346 360.053,126.586 359.835,126.850 359.644,127.134 359.483,127.435 359.352,127.752 359.254,128.079 359.189,128.415 359.157,128.756 359.160,129.098 359.197,129.438 359.268,129.773 359.372,130.099 359.508,130.413 359.674,130.712 359.870,130.993 360.093,131.253 360.340,131.489 360.610,131.699 360.899,131.882 361.206,132.034 361.526,132.156 361.856,132.244 362.194,132.300 362.535,132.321 362.877,132.308 363.216,132.261 363.548,132.181 363.871,132.067 364.181,131.922 364.475,131.747 364.750,131.543 365.003,131.313 365.232,131.059 365.435,130.783 365.609,130.489 365.752,130.178 365.864,129.855 365.943,129.522 365.989,129.183 "
           id="polyline219"
           style="fill:#dd0f23;fill-opacity:1;stroke:none;stroke-width:0.5pt;stroke-dasharray:none;stroke-opacity:1" />
      </g>
      <g
         clip-path="url(#ID000000)"
         id="g221">
        <polyline
           points="372.824,89.616 372.807,89.274 372.756,88.936 372.671,88.604 372.554,88.283 372.405,87.975 372.226,87.683 372.019,87.411 371.786,87.160 371.529,86.934 371.250,86.735 370.953,86.565 370.641,86.425 370.316,86.318 369.983,86.243 369.643,86.201 369.301,86.194 368.960,86.221 368.623,86.282 368.294,86.377 367.976,86.503 367.673,86.661 367.386,86.848 367.120,87.063 366.877,87.304 366.659,87.567 366.468,87.851 366.306,88.153 366.176,88.469 366.077,88.797 366.012,89.133 365.981,89.473 365.984,89.816 366.021,90.156 366.091,90.490 366.195,90.817 366.331,91.131 366.498,91.429 366.693,91.710 366.916,91.970 367.163,92.206 367.433,92.417 367.723,92.599 368.029,92.752 368.349,92.873 368.679,92.962 369.017,93.017 369.358,93.039 369.700,93.026 370.039,92.979 370.372,92.898 370.695,92.785 371.005,92.640 371.298,92.465 371.573,92.261 371.827,92.031 372.056,91.777 372.258,91.501 372.432,91.206 372.576,90.896 372.687,90.572 372.767,90.239 372.812,89.900 "
           id="polyline223"
           style="fill:#dd0f23;fill-opacity:1;stroke:none;stroke-width:0.5pt;stroke-dasharray:none;stroke-opacity:1" />
      </g>
      <g
         clip-path="url(#ID000000)"
         id="g225">
        <polyline
           points="375.145,110.908 375.127,110.566 375.076,110.228 374.992,109.897 374.874,109.575 374.725,109.267 374.547,108.975 374.340,108.703 374.106,108.453 373.849,108.227 373.571,108.028 373.274,107.857 372.962,107.718 372.637,107.610 372.303,107.535 371.964,107.494 371.622,107.487 371.280,107.514 370.944,107.575 370.615,107.669 370.297,107.796 369.993,107.953 369.707,108.141 369.441,108.356 369.197,108.596 368.979,108.859 368.788,109.144 368.627,109.445 368.496,109.761 368.398,110.089 368.333,110.425 368.301,110.766 368.304,111.108 368.341,111.448 368.412,111.783 368.516,112.109 368.652,112.423 368.818,112.722 369.014,113.002 369.237,113.262 369.484,113.499 369.754,113.709 370.043,113.891 370.350,114.044 370.670,114.165 371.000,114.254 371.338,114.309 371.679,114.331 372.021,114.318 372.360,114.271 372.692,114.190 373.015,114.077 373.325,113.932 373.619,113.757 373.894,113.553 374.147,113.323 374.376,113.069 374.579,112.793 374.753,112.498 374.896,112.188 375.008,111.865 375.087,111.532 375.133,111.192 "
           id="polyline227"
           style="fill:#dd0f23;fill-opacity:1;stroke:none;stroke-width:0.5pt;stroke-dasharray:none;stroke-opacity:1" />
      </g>
      <g
         clip-path="url(#ID000000)"
         id="g229">
        <polyline
           points="380.398,89.399 380.381,89.057 380.330,88.719 380.245,88.388 380.128,88.066 379.979,87.758 379.800,87.466 379.593,87.194 379.360,86.944 379.103,86.718 378.824,86.519 378.527,86.348 378.215,86.209 377.890,86.101 377.557,86.026 377.217,85.985 376.875,85.978 376.534,86.005 376.197,86.066 375.868,86.160 375.550,86.287 375.247,86.444 374.960,86.632 374.694,86.847 374.451,87.087 374.232,87.350 374.042,87.635 373.880,87.936 373.750,88.252 373.651,88.580 373.586,88.916 373.555,89.257 373.558,89.599 373.595,89.939 373.665,90.274 373.769,90.600 373.905,90.914 374.072,91.213 374.267,91.493 374.490,91.753 374.737,91.990 375.007,92.200 375.297,92.382 375.603,92.535 375.923,92.656 376.253,92.745 376.591,92.800 376.932,92.822 377.274,92.809 377.613,92.762 377.946,92.681 378.269,92.568 378.579,92.423 378.872,92.248 379.147,92.044 379.401,91.814 379.630,91.560 379.832,91.284 380.006,90.989 380.150,90.679 380.261,90.356 380.341,90.023 380.386,89.683 "
           id="polyline231"
           style="fill:#dd0f23;fill-opacity:1;stroke:none;stroke-width:0.5pt;stroke-dasharray:none;stroke-opacity:1" />
      </g>
      <g
         clip-path="url(#ID000000)"
         id="g233">
        <polyline
           points="387.092,48.888 387.074,48.546 387.023,48.207 386.939,47.876 386.821,47.555 386.673,47.246 386.494,46.955 386.287,46.682 386.053,46.432 385.796,46.206 385.518,46.007 385.221,45.837 384.909,45.697 384.584,45.589 384.250,45.514 383.911,45.473 383.569,45.466 383.228,45.493 382.891,45.554 382.562,45.648 382.244,45.775 381.941,45.933 381.654,46.120 381.388,46.335 381.144,46.575 380.926,46.839 380.735,47.123 380.574,47.425 380.443,47.741 380.345,48.069 380.280,48.404 380.249,48.745 380.251,49.087 380.288,49.427 380.359,49.762 380.463,50.088 380.599,50.402 380.766,50.701 380.961,50.982 381.184,51.242 381.431,51.478 381.701,51.688 381.990,51.871 382.297,52.024 382.617,52.145 382.947,52.234 383.285,52.289 383.626,52.310 383.968,52.297 384.307,52.250 384.640,52.170 384.962,52.057 385.272,51.912 385.566,51.736 385.841,51.533 386.094,51.303 386.323,51.048 386.526,50.773 386.700,50.478 386.843,50.167 386.955,49.844 387.034,49.511 387.080,49.172 "
           id="polyline235"
           style="fill:#dd0f23;fill-opacity:1;stroke:none;stroke-width:0.5pt;stroke-dasharray:none;stroke-opacity:1" />
      </g>
      <g
         clip-path="url(#ID000000)"
         id="g237">
        <polyline
           points="390.754,48.030 390.736,47.688 390.685,47.350 390.601,47.018 390.483,46.697 390.335,46.389 390.156,46.097 389.949,45.825 389.715,45.574 389.458,45.349 389.180,45.149 388.883,44.979 388.571,44.839 388.246,44.732 387.912,44.657 387.573,44.615 387.231,44.608 386.890,44.635 386.553,44.696 386.224,44.791 385.906,44.917 385.602,45.075 385.316,45.262 385.050,45.477 384.806,45.718 384.588,45.981 384.397,46.265 384.236,46.567 384.105,46.883 384.007,47.211 383.942,47.547 383.911,47.887 383.913,48.230 383.950,48.570 384.021,48.905 384.125,49.231 384.261,49.545 384.428,49.843 384.623,50.124 384.846,50.384 385.093,50.620 385.363,50.831 385.652,51.013 385.959,51.166 386.279,51.287 386.609,51.376 386.947,51.431 387.288,51.453 387.630,51.440 387.969,51.393 388.302,51.312 388.624,51.199 388.934,51.054 389.228,50.879 389.503,50.675 389.756,50.445 389.985,50.191 390.188,49.915 390.362,49.620 390.505,49.310 390.617,48.986 390.696,48.653 390.742,48.314 "
           id="polyline239"
           style="fill:#dd0f23;fill-opacity:1;stroke:none;stroke-width:0.5pt;stroke-dasharray:none;stroke-opacity:1" />
      </g>
      <g
         clip-path="url(#ID000000)"
         id="g241">
        <polyline
           points="396.561,97.290 396.544,96.948 396.493,96.610 396.408,96.278 396.291,95.957 396.142,95.649 395.963,95.357 395.756,95.085 395.523,94.834 395.266,94.609 394.987,94.410 394.691,94.239 394.378,94.100 394.053,93.992 393.720,93.917 393.380,93.876 393.038,93.868 392.697,93.895 392.360,93.956 392.031,94.051 391.713,94.177 391.410,94.335 391.123,94.522 390.857,94.737 390.614,94.978 390.396,95.241 390.205,95.525 390.043,95.827 389.913,96.143 389.814,96.471 389.749,96.807 389.718,97.148 389.721,97.490 389.758,97.830 389.828,98.165 389.932,98.491 390.068,98.805 390.235,99.104 390.430,99.384 390.653,99.644 390.900,99.880 391.170,100.091 391.460,100.273 391.766,100.426 392.086,100.547 392.416,100.636 392.754,100.691 393.095,100.713 393.437,100.700 393.776,100.653 394.109,100.572 394.432,100.459 394.742,100.314 395.035,100.139 395.310,99.935 395.564,99.705 395.793,99.451 395.995,99.175 396.169,98.880 396.313,98.570 396.425,98.246 396.504,97.913 396.549,97.574 "
           id="polyline243"
           style="fill:#dd0f23;fill-opacity:1;stroke:none;stroke-width:0.5pt;stroke-dasharray:none;stroke-opacity:1" />
      </g>
      <g
         clip-path="url(#ID000000)"
         id="g245">
        <polyline
           points="402.327,45.972 402.310,45.630 402.259,45.292 402.174,44.960 402.057,44.639 401.908,44.331 401.729,44.039 401.522,43.766 401.289,43.516 401.032,43.290 400.753,43.091 400.456,42.921 400.144,42.781 399.819,42.673 399.486,42.598 399.146,42.557 398.804,42.550 398.463,42.577 398.126,42.638 397.797,42.732 397.479,42.859 397.176,43.017 396.889,43.204 396.623,43.419 396.380,43.660 396.161,43.923 395.971,44.207 395.809,44.509 395.679,44.825 395.580,45.153 395.515,45.489 395.484,45.829 395.487,46.171 395.524,46.512 395.594,46.846 395.698,47.172 395.834,47.486 396.001,47.785 396.196,48.066 396.419,48.326 396.666,48.562 396.936,48.773 397.226,48.955 397.532,49.108 397.852,49.229 398.182,49.318 398.520,49.373 398.861,49.394 399.203,49.382 399.542,49.335 399.875,49.254 400.198,49.141 400.508,48.996 400.801,48.820 401.076,48.617 401.330,48.387 401.559,48.132 401.761,47.857 401.935,47.562 402.079,47.251 402.190,46.928 402.270,46.595 402.315,46.256 "
           id="polyline247"
           style="fill:#dd0f23;fill-opacity:1;stroke:none;stroke-width:0.5pt;stroke-dasharray:none;stroke-opacity:1" />
      </g>
      <g
         clip-path="url(#ID000000)"
         id="g249">
        <polyline
           points="409.532,102.040 409.515,101.698 409.464,101.360 409.379,101.028 409.262,100.707 409.113,100.399 408.934,100.107 408.727,99.835 408.494,99.584 408.237,99.358 407.958,99.159 407.661,98.989 407.349,98.849 407.024,98.741 406.691,98.667 406.351,98.625 406.009,98.618 405.668,98.645 405.331,98.706 405.002,98.801 404.684,98.927 404.381,99.085 404.094,99.272 403.828,99.487 403.585,99.728 403.366,99.991 403.176,100.275 403.014,100.577 402.884,100.893 402.785,101.221 402.720,101.557 402.689,101.897 402.692,102.240 402.729,102.580 402.799,102.914 402.903,103.240 403.039,103.555 403.206,103.853 403.401,104.134 403.624,104.394 403.871,104.630 404.141,104.841 404.431,105.023 404.737,105.176 405.057,105.297 405.387,105.386 405.725,105.441 406.066,105.462 406.408,105.450 406.747,105.403 407.080,105.322 407.403,105.209 407.713,105.064 408.006,104.889 408.281,104.685 408.535,104.455 408.764,104.201 408.966,103.925 409.140,103.630 409.284,103.320 409.395,102.996 409.475,102.663 409.520,102.324 "
           id="polyline251"
           style="fill:#dd0f23;fill-opacity:1;stroke:none;stroke-width:0.5pt;stroke-dasharray:none;stroke-opacity:1" />
      </g>
      <g
         clip-path="url(#ID000000)"
         id="g253">
        <path
           style="fill:#0000ff;fill-opacity:1;stroke:none;stroke-width:4pt;stroke-dasharray:none;stroke-opacity:1"
           d="M 426.33333,45.086806 L 421.96875,49.625 L 419.0625,52.84375 L 416.15625,56.0625 L 413.25,59.28125 L 410.34375,62.5 L 407.4375,65.71875 L 404.53125,68.9375 L 401.625,72.15625 L 398.71875,75.375 L 395.8125,78.59375 L 392.90625,81.8125 L 390,85.03125 L 387.09375,88.25 L 384.1875,91.46875 L 381.3125,94.6875 L 378.40625,97.9375 L 375.5,101.15625 L 372.59375,104.375 L 369.6875,107.59375 L 366.78125,110.8125 L 363.875,114.03125 L 360.96875,117.25 L 358.0625,120.46875 L 355.15625,123.6875 L 352.25,126.90625 L 349.34375,130.125 L 346.4375,133.34375 L 343.53125,136.5625 L 340.625,139.78125 L 337.71875,143 L 334.84375,146.21875 L 331.9375,149.46875 L 329.03125,152.6875 L 326.125,155.90625 L 323.21875,159.125 L 320.3125,162.34375 L 317.40625,165.5625 L 314.5,168.78125 L 311.59375,172 L 308.6875,175.21875 L 305.78125,178.4375 L 302.875,181.65625 L 299.96875,184.875 L 297.0625,188.09375 L 294.15625,191.3125 L 291.25,194.53125 L 288.34375,197.75 L 285.46875,200.96875 L 282.5625,204.21875 L 279.65625,207.4375 L 276.75,210.65625 L 273.84375,213.875 L 270.9375,217.09375 L 268.03125,220.3125 L 265.125,223.53125 L 262.21875,226.75 L 259.3125,229.96875 L 256.40625,233.1875 L 253.5,236.40625 L 250.59375,239.625 L 247.6875,242.84375 L 244.78125,246.0625 L 241.875,249.28125 L 238.96875,252.5 L 236.09375,255.75 L 233.1875,258.96875 L 230.28125,262.1875 L 227.375,265.40625 L 224.46875,268.625 L 221.5625,271.84375 L 218.65625,275.0625 L 215.75,278.28125 L 212.84375,281.5 L 209.9375,284.71875 L 207.03125,287.9375 L 204.125,291.15625 L 201.21875,294.375 L 198.3125,297.59375 L 195.40625,300.8125 L 192.5,304.03125 L 189.625,307.25 L 186.71875,310.46875 L 183.8125,313.71875 L 180.90625,316.9375 L 178,320.15625 L 175.09375,323.375 L 172.1875,326.59375 L 169.28125,329.8125 L 166.375,333.03125 L 163.46875,336.25 L 160.5625,339.46875 L 157.65625,342.6875 L 154.75,345.90625 L 151.84375,349.125 L 148.9375,352.34375 L 146.03125,355.5625 L 143.125,358.78125 L 140.25,362 L 137.34375,365.25 L 141.03125,368.59375 L 143.9375,365.375 L 146.84375,362.15625 L 149.75,358.9375 L 152.65625,355.6875 L 155.5625,352.46875 L 158.46875,349.25 L 161.375,346.03125 L 164.28125,342.8125 L 167.1875,339.59375 L 170.09375,336.375 L 173,333.15625 L 175.90625,329.9375 L 178.8125,326.71875 L 181.71875,323.5 L 184.625,320.28125 L 187.5,317.0625 L 190.40625,313.84375 L 193.3125,310.625 L 196.21875,307.40625 L 199.125,304.15625 L 202.03125,300.9375 L 204.9375,297.71875 L 207.84375,294.5 L 210.75,291.28125 L 213.65625,288.0625 L 216.5625,284.84375 L 219.46875,281.625 L 222.375,278.40625 L 225.28125,275.1875 L 228.1875,271.96875 L 231.09375,268.75 L 233.96875,265.53125 L 236.875,262.3125 L 239.78125,259.09375 L 242.6875,255.875 L 245.59375,252.65625 L 248.5,249.40625 L 251.40625,246.1875 L 254.3125,242.96875 L 257.21875,239.75 L 260.125,236.53125 L 263.03125,233.3125 L 265.9375,230.09375 L 268.84375,226.875 L 271.75,223.65625 L 274.65625,220.4375 L 277.5625,217.21875 L 280.46875,214 L 283.34375,210.78125 L 286.25,207.5625 L 289.15625,204.34375 L 292.0625,201.125 L 294.96875,197.90625 L 297.875,194.65625 L 300.78125,191.4375 L 303.6875,188.21875 L 306.59375,185 L 309.5,181.78125 L 312.40625,178.5625 L 315.3125,175.34375 L 318.21875,172.125 L 321.125,168.90625 L 324.03125,165.6875 L 326.9375,162.46875 L 329.84375,159.25 L 332.71875,156.03125 L 335.625,152.8125 L 338.53125,149.59375 L 341.4375,146.375 L 344.34375,143.125 L 347.25,139.90625 L 350.15625,136.6875 L 353.0625,133.46875 L 355.96875,130.25 L 358.875,127.03125 L 361.78125,123.8125 L 364.6875,120.59375 L 367.59375,117.375 L 370.5,114.15625 L 373.40625,110.9375 L 376.3125,107.71875 L 379.1875,104.5 L 382.09375,101.28125 L 385,98.0625 L 387.90625,94.84375 L 390.8125,91.625 L 393.71875,88.375 L 396.625,85.15625 L 399.53125,81.9375 L 402.4375,78.71875 L 405.34375,75.5 L 408.25,72.28125 L 411.15625,69.0625 L 414.0625,65.84375 L 416.96875,62.625 L 419.875,59.40625 L 422.78125,56.1875 L 428.67361,49.84375 L 429.04861,49.402778 L 426.33333,45.086806 z "
           id="polyline255"
           sodipodi:nodetypes="ccccccccccccccccccccccccccccccccccccccccccccccccccccccccccccccccccccccccccccccccccccccccccccccccccccccccccccccccccccccccccccccccccccccccccccccccccccccccccccccccccccccccccccccccccccccccccccccccccccccccc" />
        <g
           id="g257" />
      </g>
    </g>
    <g
       id="g259">
      <polyline
         points="221.340,373.800 221.340,369.460 "
         id="polyline261"
         style="fill:none;stroke:#323232;stroke-width:1.6pt;stroke-dasharray:none" />
      <polyline
         points="289.800,373.800 289.800,369.460 "
         id="polyline263"
         style="fill:none;stroke:#323232;stroke-width:1.6pt;stroke-dasharray:none" />
      <polyline
         points="358.260,373.800 358.260,369.460 "
         id="polyline265"
         style="fill:none;stroke:#323232;stroke-width:1.6pt;stroke-dasharray:none" />
      <polyline
         points="152.880,373.800 426.720,373.800 "
         id="polyline267"
         style="fill:none;stroke:#323232;stroke-width:1.6pt;stroke-dasharray:none" />
      <g
         transform="translate(152.88,395.046)"
         id="g269">
        <g
           id="g271">
          <text
             x="0"
             y="0"
             font-size="18.0pt"
             id="text273"
             style="font-size:22.5px;text-anchor:middle;fill:#323232;font-family:Helvetica">-2</text>
        </g>
      </g>
      <g
         transform="translate(221.34,395.046)"
         id="g275">
        <g
           id="g277">
          <text
             x="0"
             y="0"
             font-size="18.0pt"
             id="text279"
             style="font-size:22.5px;text-anchor:middle;fill:#323232;font-family:Helvetica">-1</text>
        </g>
      </g>
      <g
         transform="translate(289.8,395.046)"
         id="g281">
        <g
           id="g283">
          <text
             x="0"
             y="0"
             font-size="18.0pt"
             id="text285"
             style="font-size:22.5px;text-anchor:middle;fill:#323232;font-family:Helvetica">0</text>
        </g>
      </g>
      <g
         transform="translate(358.26,395.046)"
         id="g287">
        <g
           id="g289">
          <text
             x="0"
             y="0"
             font-size="18.0pt"
             id="text291"
             style="font-size:22.5px;text-anchor:middle;fill:#323232;font-family:Helvetica">1</text>
        </g>
      </g>
      <g
         transform="translate(426.72,395.046)"
         id="g293">
        <g
           id="g295">
          <text
             x="0"
             y="0"
             font-size="18.0pt"
             id="text297"
             style="font-size:22.5px;text-anchor:middle;fill:#323232;font-family:Helvetica">2</text>
        </g>
      </g>
      <polyline
         points="152.880,305.340 155.618,305.340 "
         id="polyline299"
         style="fill:none;stroke:#323232;stroke-width:1.6pt;stroke-dasharray:none" />
      <polyline
         points="152.880,236.880 155.618,236.880 "
         id="polyline301"
         style="fill:none;stroke:#323232;stroke-width:1.6pt;stroke-dasharray:none" />
      <polyline
         points="152.880,168.420 155.618,168.420 "
         id="polyline303"
         style="fill:none;stroke:#323232;stroke-width:1.6pt;stroke-dasharray:none" />
      <polyline
         points="152.880,99.960 155.618,99.960 "
         id="polyline305"
         style="fill:none;stroke:#323232;stroke-width:1.6pt;stroke-dasharray:none" />
      <polyline
         points="152.880,373.800 152.880,31.500 "
         id="polyline307"
         style="fill:none;stroke:#323232;stroke-width:1.6pt;stroke-dasharray:none" />
      <g
         transform="translate(147.403,379.2)"
         id="g309">
        <g
           id="g311">
          <text
             x="0"
             y="0"
             font-size="18.0pt"
             id="text313"
             style="font-size:22.5px;text-anchor:end;fill:#323232;font-family:Helvetica">1</text>
        </g>
      </g>
      <g
         transform="translate(147.403,310.74)"
         id="g315">
        <g
           id="g317">
          <text
             x="0"
             y="0"
             font-size="18.0pt"
             id="text319"
             style="font-size:22.5px;text-anchor:end;fill:#323232;font-family:Helvetica">2</text>
        </g>
      </g>
      <g
         transform="translate(147.403,242.28)"
         id="g321">
        <g
           id="g323">
          <text
             x="0"
             y="0"
             font-size="18.0pt"
             id="text325"
             style="font-size:22.5px;text-anchor:end;fill:#323232;font-family:Helvetica">3</text>
        </g>
      </g>
      <g
         transform="translate(147.403,173.82)"
         id="g327">
        <g
           id="g329">
          <text
             x="0"
             y="0"
             font-size="18.0pt"
             id="text331"
             style="font-size:22.5px;text-anchor:end;fill:#323232;font-family:Helvetica">4</text>
        </g>
      </g>
      <g
         transform="translate(147.403,105.36)"
         id="g333">
        <g
           id="g335">
          <text
             x="0"
             y="0"
             font-size="18.0pt"
             id="text337"
             style="font-size:22.5px;text-anchor:end;fill:#323232;font-family:Helvetica">5</text>
        </g>
      </g>
      <g
         transform="translate(147.403,36.9)"
         id="g339">
        <g
           id="g341">
          <text
             x="0"
             y="0"
             font-size="18.0pt"
             id="text343"
             style="font-size:22.5px;text-anchor:end;fill:#323232;font-family:Helvetica">6</text>
        </g>
      </g>
      <polyline
         points="152.880,373.800 152.880,370.377 "
         id="polyline345"
         style="fill:none;stroke:#000000;stroke-width:1.6pt;stroke-dasharray:none" />
      <polyline
         points="152.880,373.800 152.880,373.800 "
         id="polyline347"
         style="fill:none;stroke:#000000;stroke-width:1.6pt;stroke-dasharray:none" />
    </g>
    <polyline
       points="426.720,373.800 426.720,31.500 "
       id="polyline41"
       style="fill:none;stroke:#000000;stroke-width:1.6pt;stroke-dasharray:none" />
  </g>
</svg>
