<?xml version="1.0" encoding="utf-8"?>
<!DOCTYPE svg PUBLIC "-//W3C//DTD SVG 1.1//EN" "http://www.w3.org/Graphics/SVG/1.1/DTD/svg11.dtd">
<svg version="1.1"
    xmlns="http://www.w3.org/2000/svg" xmlns:xlink="http://www.w3.org/1999/xlink"
    width="679px" height="430px" viewBox="39.977 -50 679 430" enable-background="new">
<g style="fill: none; stroke: #000000">
    <circle stroke-width="3.5" cx="418.878" cy="478.176" r="323" />
    <line stroke-width="2" x1="418.878" y1="32.052" x2="0.688" y2="427.847" />
    <line stroke-width="2" x1="184.085" y1="229.959" x2="208.361" y2="255.608" />
    <line stroke-width="2" x1="418.878" y1="32.052" x2="783.813" y2="165.071" />
    <line stroke-width="2" x1="418.878" y1="32.052" x2="0.979" y2="32.052" />
    <line stroke-width="2" x1="462.871" y1="32.052" x2="462.871" y2="157.997" />
    <line stroke-width="2" x1="448.946" y1="32.052" x2="476.795" y2="32.052" />
</g>

<g style="fill: #000000; stroke: none">
    <path d="M441.884,95.776c0,4.621-3.745,8.367-8.365,8.367h-29.282c-4.62,0-8.366-3.746-8.366-8.367V58.128 c0-4.621,3.746-8.367,8.366-8.367h29.282c4.62,0,8.365,3.746,8.365,8.367V95.776z" />
    <path d="M433.519,146.81c0,4.621-3.746,8.366-8.366,8.366h-12.55c-4.62,0-8.366-3.746-8.366-8.366v-46.014 c0-4.621,3.746-8.366,8.366-8.366h12.55c4.62,0,8.366,3.745,8.366,8.366V146.81z" />
    <circle cx="418.878" cy="32.053" r="14.641" />
    <rect x="530.399" y="146.858" transform="matrix(-0.9337 -0.3581 0.3581 -0.9337 984.0815 505.6236)" width="16.918" height="29.669" />
    <polygon points="584.758,140.307 567.399,86.092 518.229,114.779" />
    <polygon points="575.096,166.704 557.74,112.487 508.568,141.176" />
    <polygon points="266.748,129.124 265.19,130.655 274.689,148.35 265.139,144.865 263.636,149.401 264.203,149.486 265.278,147.302 277.905,151.784 266.73,130.911 267.633,130.024 295.371,102.751 301.887,96.343 301.004,95.444 294.486,101.852" />

    <text text-anchor="end" x="330.371" y="20.748" font-family="DejaVu Sans Condensed" font-size="24">Astronomical horizon</text>
    <text text-anchor="start" font-family="DejaVu Serif" font-size="24" transform="matrix(0.7273 -0.6863 0.6863 0.7273 282.252 146.0835)">
        <tspan x="0" y="0" letter-spacing="-2">1</tspan>
        <tspan x="12.87" y="0">3</tspan>
        <tspan x="28.139" y="0" font-style="italic">h</tspan>
        <tspan font-size="22" dx="10">(km)</tspan>
    </text>
    <text text-anchor="start" transform="matrix(0.7273 -0.6863 0.6863 0.7273 70.9243 344.2876)" font-family="DejaVu Sans Condensed" font-size="24">True horizon</text>
    <text text-anchor="start" x="470.371" y="102.824" font-family="DejaVu Serif" font-size="24">
        <tspan font-style="italic">h</tspan>
        <tspan dx="6" font-size="20">(m)</tspan>
    </text>
    <!--<text text-anchor="start" x="470.371" y="102.824" font-family="DejaVu Serif" font-size="24">asd</text>-->
    <text text-anchor="start" transform="matrix(0.9393 0.343 -0.343 0.9393 535.0776 62.2749)" font-family="DejaVu Sans Condensed" font-size="24">Visible horizon</text>
    <text text-anchor="middle" x="418.878" y="294.547" font-family="DejaVu Sans Condensed" font-size="36">Earth</text>
</g>
</svg>
