<?xml version="1.0" encoding="UTF-8" standalone="no"?>
<!-- Created with Serif DrawPlus 11, 0, 3, 23 (Feb 25, 14:12:55) (http://www.serif.com) -->
<svg version="1.1" xmlns="http://www.w3.org/2000/svg" xmlns:xlink="http://www.w3.org/1999/xlink" width="184" height="178">
	<g id="Layer_1">
		<path id="dp_path002" fill="none" fill-rule="evenodd" stroke="#00d920" stroke-width="1.33333" d="M 101.651,78.324 C 116.625,117.343 129.403,142.08 145.912,155.721"/>
		<path id="dp_path003" fill="none" fill-rule="evenodd" stroke="#00d920" stroke-width="1.33333" d="M 99.7387,178.029 C 88.7747,143.208 77.28,121.553 62.5733,103.796"/>
		<path id="dp_path004" fill="none" fill-rule="evenodd" stroke="#00d920" stroke-width="1.33333" d="M 126.147,171.825 C 117.463,148.559 105.86,122.157 94.6027,103.797"/>
		<path id="dp_path005" fill="none" fill-rule="evenodd" stroke="#00d920" stroke-width="1.33333" d="M 178.396,132.927 C 153.276,121.355 137.553,102.351 132.065,90.884"/>
		<g id="dp_group006">
			<path id="dp_path007" fill="#2217ff" fill-rule="evenodd" fill-opacity="0.666667" d="M 167.013,81.28 C 144.267,98.8547 135.144,138.525 97.6813,145.087 C 55.952,152.396 1.732,136.992 22.0733,116.655 C 48.1827,90.5507 37.3733,67.4453 75.38,47.2147 C 112.813,27.2893 189.608,63.212 167.851,80.0213"/>
			<g id="dp_group008">
				<path id="dp_path010" fill="#2217ff" fill-rule="evenodd" d="M 159.019,87.3693 L 160.383,88.832 L 163.112,91.7573 L 167.013,81.28 L 156.291,84.4453 Z "/>
				<path id="dp_path011" fill="#2217ff" fill-rule="evenodd" d="M 159.017,87.372 L 158.799,87.5787 L 158.297,88.1307 L 157.825,88.6613 L 157.355,89.196 L 156.888,89.736 L 156.424,90.2813 L 155.964,90.832 L 155.505,91.3867 L 155.052,91.9453 L 154.599,92.508 L 154.148,93.076 L 153.699,93.6467 L 153.253,94.224 L 152.809,94.8013 L 152.367,95.3827 L 151.924,95.9693 L 151.048,97.148 L 150.176,98.34 L 149.308,99.5413 L 148.444,100.752 L 147.583,101.969 L 146.721,103.193 L 145.863,104.423 L 144.14,106.891 L 143.275,108.127 L 142.405,109.363 L 141.533,110.599 L 140.656,111.831 L 139.771,113.059 L 138.879,114.283 L 137.979,115.501 L 137.525,116.107 L 137.069,116.709 L 136.612,117.312 L 136.151,117.911 L 135.687,118.508 L 135.22,119.101 L 134.751,119.692 L 134.277,120.281 L 133.801,120.865 L 133.323,121.448 L 132.84,122.027 L 132.355,122.601 L 131.864,123.172 L 131.371,123.74 L 130.873,124.301 L 130.369,124.861 L 129.865,125.416 L 129.355,125.965 L 128.84,126.512 L 128.321,127.051 L 127.797,127.587 L 127.269,128.117 L 126.736,128.643 L 126.197,129.161 L 125.653,129.676 L 125.105,130.184 L 124.552,130.685 L 123.992,131.183 L 123.428,131.672 L 122.857,132.156 L 122.28,132.633 L 121.7,133.103 L 121.111,133.568 L 120.516,134.024 L 119.916,134.473 L 119.308,134.917 L 118.696,135.352 L 118.076,135.779 L 117.448,136.2 L 116.815,136.612 L 116.175,137.015 L 115.527,137.412 L 114.872,137.799 L 114.209,138.179 L 113.54,138.551 L 112.863,138.911 L 112.177,139.265 L 111.483,139.611 L 111.135,139.779 L 110.783,139.944 L 110.428,140.109 L 110.075,140.269 L 109.715,140.431 L 109.355,140.588 L 108.995,140.741 L 108.631,140.895 L 108.264,141.045 L 107.896,141.192 L 107.527,141.336 L 107.153,141.479 L 106.777,141.619 L 106.399,141.756 L 106.02,141.892 L 105.64,142.024 L 105.257,142.153 L 104.869,142.28 L 104.481,142.404 L 104.089,142.527 L 103.696,142.647 L 103.301,142.763 L 102.904,142.877 L 102.504,142.988 L 102.103,143.095 L 101.695,143.201 L 101.289,143.305 L 100.88,143.404 L 100.467,143.501 L 100.051,143.597 L 99.6347,143.688 L 99.216,143.776 L 98.792,143.863 L 98.368,143.945 L 97.9387,144.025 L 97.5093,144.103 L 96.5387,144.268 L 95.5613,144.427 L 94.5827,144.576 L 93.5973,144.716 L 92.6093,144.849 L 91.6187,144.975 L 90.624,145.092 L 89.628,145.203 L 88.628,145.303 L 87.6253,145.396 L 86.62,145.483 L 85.6147,145.563 L 84.6067,145.632 L 83.596,145.696 L 82.5853,145.751 L 81.5747,145.799 L 80.5613,145.84 L 79.548,145.873 L 78.536,145.9 L 77.524,145.919 L 76.512,145.929 L 75.5,145.933 L 74.4867,145.931 L 73.4773,145.921 L 72.4693,145.904 L 71.4627,145.88 L 70.4573,145.848 L 69.4547,145.811 L 68.456,145.765 L 67.4573,145.715 L 66.4627,145.656 L 65.4707,145.591 L 64.4827,145.52 L 63.4973,145.441 L 62.5173,145.357 L 61.5413,145.265 L 60.568,145.168 L 59.6,145.063 L 58.6373,144.953 L 57.6813,144.836 L 56.7307,144.713 L 55.784,144.584 L 54.8427,144.449 L 53.908,144.307 L 52.9813,144.16 L 52.06,144.007 L 51.1453,143.848 L 50.24,143.683 L 49.34,143.512 L 48.448,143.335 L 47.564,143.153 L 46.6893,142.965 L 45.8227,142.771 L 44.964,142.573 L 44.1147,142.368 L 43.276,142.159 L 42.4453,141.943 L 41.624,141.723 L 40.8133,141.497 L 40.0133,141.265 L 39.224,141.029 L 38.444,140.788 L 37.676,140.541 L 36.92,140.292 L 36.1747,140.036 L 35.4427,139.775 L 34.7213,139.509 L 34.0133,139.239 L 33.316,138.965 L 32.6347,138.685 L 31.964,138.401 L 31.3067,138.113 L 30.6653,137.821 L 30.0373,137.525 L 29.4213,137.223 L 28.8213,136.919 L 28.236,136.609 L 27.6667,136.297 L 27.112,135.98 L 26.572,135.66 L 26.0453,135.335 L 25.7907,135.173 L 25.5413,135.011 L 25.2947,134.844 L 25.0507,134.68 L 24.812,134.512 L 24.5733,134.344 L 24.3427,134.177 L 24.1173,134.009 L 23.896,133.84 L 23.676,133.668 L 23.4627,133.499 L 23.2547,133.327 L 23.048,133.153 L 22.848,132.981 L 22.6533,132.808 L 22.4613,132.633 L 22.2747,132.457 L 22.0893,132.281 L 21.912,132.105 L 21.7387,131.931 L 21.572,131.755 L 21.4067,131.575 L 21.2453,131.397 L 21.092,131.22 L 20.9413,131.04 L 20.7947,130.86 L 20.6547,130.681 L 20.52,130.501 L 20.388,130.321 L 20.2613,130.141 L 20.14,129.959 L 20.0213,129.776 L 19.9107,129.597 L 19.804,129.415 L 19.7013,129.232 L 19.6027,129.048 L 19.5107,128.867 L 19.4227,128.683 L 19.3387,128.5 L 19.2613,128.317 L 19.1853,128.131 L 19.1173,127.948 L 19.0533,127.764 L 18.9933,127.581 L 18.94,127.396 L 18.8893,127.211 L 18.8453,127.024 L 18.8053,126.84 L 18.7693,126.652 L 18.7387,126.465 L 18.7133,126.277 L 18.692,126.092 L 18.6773,125.903 L 18.6653,125.713 L 18.6587,125.525 L 18.6587,125.332 L 18.6613,125.143 L 18.6707,124.952 L 18.6853,124.759 L 18.704,124.563 L 18.728,124.371 L 18.7573,124.175 L 18.792,123.977 L 18.8307,123.78 L 18.8747,123.587 L 18.9267,123.384 L 18.9827,123.183 L 19.044,122.984 L 19.112,122.779 L 19.184,122.576 L 19.2627,122.371 L 19.3467,122.164 L 19.436,121.959 L 19.532,121.752 L 19.6347,121.543 L 19.744,121.328 L 19.8573,121.117 L 19.9773,120.905 L 20.104,120.691 L 20.236,120.477 L 20.3747,120.261 L 20.5213,120.044 L 20.6733,119.825 L 20.832,119.605 L 20.9947,119.387 L 21.1653,119.167 L 21.3453,118.943 L 21.5307,118.719 L 21.7213,118.495 L 21.9187,118.271 L 22.124,118.045 L 22.336,117.817 L 22.5547,117.589 L 22.784,117.356 L 23.392,116.744 L 23.992,116.125 L 24.5773,115.508 L 25.1507,114.893 L 25.7107,114.279 L 26.2587,113.665 L 26.796,113.052 L 27.3187,112.441 L 27.8307,111.832 L 28.332,111.223 L 28.8227,110.613 L 29.3013,110.007 L 29.7693,109.4 L 30.228,108.796 L 30.676,108.192 L 31.1133,107.588 L 31.5413,106.987 L 31.9587,106.387 L 32.368,105.787 L 32.768,105.189 L 33.1587,104.592 L 33.5427,103.996 L 33.9173,103.401 L 34.284,102.807 L 34.6427,102.215 L 34.9933,101.624 L 35.3373,101.035 L 35.6747,100.447 L 36.0053,99.8573 L 36.3267,99.2733 L 36.6453,98.688 L 36.9573,98.104 L 37.2613,97.5213 L 37.5613,96.94 L 37.8547,96.36 L 38.144,95.784 L 38.4293,95.2067 L 38.7093,94.6293 L 38.984,94.0547 L 39.2547,93.4813 L 39.7867,92.34 L 40.304,91.204 L 40.8107,90.0733 L 41.3067,88.948 L 41.796,87.828 L 42.28,86.7147 L 43.2373,84.504 L 43.716,83.4067 L 44.1973,82.3133 L 44.6813,81.2293 L 45.1733,80.1493 L 45.6733,79.0733 L 45.9253,78.54 L 46.1813,78.0067 L 46.44,77.4733 L 46.7013,76.9427 L 46.968,76.4133 L 47.2373,75.884 L 47.5093,75.3587 L 47.7867,74.832 L 48.068,74.3093 L 48.356,73.7853 L 48.6467,73.264 L 48.9427,72.744 L 49.2453,72.2253 L 49.5533,71.7067 L 49.8653,71.192 L 50.1853,70.676 L 50.5107,70.1613 L 50.8427,69.6493 L 51.1827,69.1387 L 51.5293,68.628 L 51.8827,68.1187 L 52.244,67.6107 L 52.6133,67.104 L 52.992,66.5987 L 53.3773,66.0947 L 53.772,65.5907 L 54.176,65.0867 L 54.588,64.5853 L 55.0093,64.0853 L 55.44,63.5853 L 55.8813,63.088 L 56.3333,62.5907 L 56.7947,62.0947 L 57.2667,61.5987 L 57.7493,61.104 L 58.2453,60.612 L 58.7507,60.1187 L 59.2693,59.6267 L 59.7973,59.136 L 60.3387,58.6467 L 60.8933,58.1573 L 61.46,57.6707 L 62.04,57.1827 L 62.6333,56.696 L 63.2387,56.212 L 63.8587,55.7267 L 64.4933,55.244 L 65.1413,54.7613 L 65.8027,54.2787 L 66.48,53.7987 L 67.172,53.3187 L 67.88,52.84 L 68.604,52.3613 L 69.3427,51.8827 L 70.0973,51.408 L 70.868,50.932 L 71.6547,50.4573 L 72.46,49.9827 L 73.2813,49.5093 L 74.1187,49.0387 L 74.976,48.5667 L 75.848,48.0973 L 76.2787,47.872 L 76.7107,47.6507 L 77.148,47.436 L 77.588,47.2253 L 78.032,47.02 L 78.4787,46.8187 L 78.9293,46.6227 L 79.3827,46.4307 L 79.84,46.244 L 80.3013,46.0613 L 80.7627,45.8853 L 81.2307,45.712 L 81.7,45.544 L 82.1733,45.3813 L 82.648,45.2213 L 83.1267,45.068 L 83.6093,44.9187 L 84.0933,44.772 L 84.58,44.632 L 85.0707,44.496 L 85.564,44.364 L 86.0587,44.2373 L 86.5573,44.1133 L 87.0573,43.9947 L 87.56,43.8813 L 88.0667,43.7707 L 88.5747,43.664 L 89.084,43.564 L 89.5973,43.4667 L 90.112,43.3733 L 90.628,43.2853 L 91.1493,43.2013 L 91.6693,43.12 L 92.1933,43.0453 L 92.72,42.9733 L 93.2467,42.9053 L 93.776,42.8413 L 94.308,42.7813 L 94.8413,42.7267 L 95.376,42.6733 L 95.912,42.6267 L 96.4507,42.5827 L 96.9907,42.5427 L 97.5307,42.5067 L 98.0747,42.4747 L 98.62,42.4467 L 99.164,42.4227 L 99.7133,42.4013 L 100.26,42.384 L 100.811,42.3707 L 101.36,42.3613 L 101.913,42.356 L 102.467,42.3547 L 103.021,42.356 L 103.579,42.3613 L 104.133,42.3693 L 104.691,42.3827 L 105.249,42.3987 L 105.808,42.4187 L 106.368,42.4413 L 106.928,42.468 L 107.489,42.4973 L 108.051,42.5307 L 108.612,42.568 L 109.176,42.608 L 109.739,42.6507 L 110.301,42.6987 L 110.865,42.748 L 111.431,42.8013 L 111.995,42.8587 L 112.559,42.9173 L 113.124,42.9813 L 113.689,43.0467 L 114.253,43.116 L 114.819,43.188 L 115.383,43.264 L 115.948,43.3427 L 116.513,43.424 L 117.076,43.508 L 117.639,43.596 L 118.769,43.78 L 119.895,43.9747 L 121.019,44.1813 L 122.14,44.4 L 123.259,44.6293 L 124.375,44.868 L 125.484,45.1173 L 126.593,45.3787 L 127.696,45.648 L 128.793,45.928 L 129.887,46.2187 L 130.975,46.5187 L 132.055,46.8267 L 133.131,47.1453 L 134.199,47.4707 L 135.259,47.8067 L 136.313,48.1493 L 137.357,48.5 L 138.393,48.86 L 139.423,49.228 L 140.44,49.6013 L 141.449,49.984 L 142.448,50.372 L 143.436,50.768 L 144.415,51.1707 L 145.38,51.58 L 146.333,51.9947 L 147.276,52.416 L 148.205,52.8427 L 149.123,53.2733 L 150.027,53.712 L 150.916,54.1533 L 151.792,54.6013 L 152.653,55.0533 L 153.5,55.5093 L 154.329,55.968 L 155.147,56.4333 L 155.945,56.9013 L 156.727,57.372 L 157.492,57.8467 L 157.867,58.084 L 158.24,58.324 L 158.608,58.564 L 158.971,58.8027 L 159.328,59.044 L 159.681,59.2853 L 160.032,59.528 L 160.375,59.7707 L 160.715,60.0133 L 161.049,60.2587 L 161.381,60.5013 L 161.704,60.7453 L 162.024,60.9893 L 162.339,61.2347 L 162.651,61.4813 L 162.955,61.7267 L 163.255,61.972 L 163.548,62.2173 L 163.836,62.4627 L 164.121,62.7107 L 164.4,62.956 L 164.672,63.2013 L 164.939,63.448 L 165.201,63.6947 L 165.457,63.9413 L 165.708,64.1867 L 165.955,64.4333 L 166.193,64.6787 L 166.427,64.924 L 166.653,65.168 L 166.876,65.4147 L 167.093,65.6587 L 167.301,65.9013 L 167.505,66.144 L 167.704,66.3893 L 167.897,66.632 L 168.08,66.872 L 168.26,67.1147 L 168.435,67.356 L 168.6,67.5933 L 168.76,67.8333 L 168.916,68.0733 L 169.063,68.3093 L 169.204,68.544 L 169.339,68.78 L 169.467,69.0147 L 169.589,69.2493 L 169.705,69.48 L 169.815,69.7107 L 169.916,69.94 L 170.012,70.1693 L 170.103,70.3973 L 170.184,70.62 L 170.26,70.8453 L 170.331,71.068 L 170.392,71.2867 L 170.449,71.508 L 170.499,71.728 L 170.543,71.944 L 170.579,72.156 L 170.608,72.372 L 170.633,72.584 L 170.649,72.7933 L 170.661,73.004 L 170.664,73.2093 L 170.663,73.4173 L 170.653,73.6227 L 170.637,73.828 L 170.616,74.0293 L 170.588,74.2293 L 170.552,74.432 L 170.511,74.6307 L 170.461,74.828 L 170.407,75.028 L 170.344,75.2213 L 170.275,75.4187 L 170.197,75.616 L 170.115,75.8093 L 170.023,76.004 L 169.924,76.2 L 169.82,76.3907 L 169.705,76.584 L 169.584,76.776 L 169.455,76.9667 L 169.316,77.1613 L 169.171,77.352 L 169.016,77.5427 L 168.853,77.7333 L 168.683,77.924 L 168.505,78.1107 L 168.316,78.2987 L 168.119,78.488 L 167.912,78.6747 L 167.696,78.8613 L 167.473,79.0467 L 167.232,79.236 L 168.469,80.8067 L 168.729,80.6013 L 168.989,80.3867 L 169.237,80.1707 L 169.479,79.952 L 169.711,79.7307 L 169.935,79.508 L 170.152,79.2787 L 170.357,79.0507 L 170.555,78.82 L 170.744,78.584 L 170.924,78.348 L 171.095,78.1107 L 171.259,77.8693 L 171.412,77.624 L 171.556,77.38 L 171.695,77.128 L 171.82,76.8787 L 171.939,76.628 L 172.048,76.3707 L 172.147,76.1173 L 172.24,75.8587 L 172.321,75.596 L 172.395,75.3373 L 172.46,75.0733 L 172.515,74.808 L 172.561,74.544 L 172.6,74.2773 L 172.629,74.0067 L 172.648,73.74 L 172.66,73.4733 L 172.664,73.204 L 172.659,72.932 L 172.644,72.6627 L 172.623,72.392 L 172.592,72.1213 L 172.555,71.852 L 172.508,71.5787 L 172.453,71.3067 L 172.391,71.0387 L 172.323,70.7693 L 172.245,70.4973 L 172.161,70.2267 L 172.069,69.956 L 171.969,69.6853 L 171.863,69.4147 L 171.751,69.148 L 171.631,68.8787 L 171.503,68.608 L 171.371,68.34 L 171.229,68.0707 L 171.083,67.804 L 170.929,67.536 L 170.769,67.2667 L 170.601,66.9987 L 170.429,66.7347 L 170.251,66.468 L 170.064,66.1987 L 169.873,65.936 L 169.677,65.6693 L 169.471,65.4027 L 169.261,65.1387 L 169.047,64.8747 L 168.827,64.6107 L 168.597,64.344 L 168.364,64.0813 L 168.128,63.8187 L 167.883,63.556 L 167.633,63.292 L 167.376,63.0307 L 167.116,62.768 L 166.849,62.5067 L 166.577,62.2467 L 166.301,61.9867 L 166.019,61.7267 L 165.731,61.4653 L 165.436,61.2067 L 165.14,60.948 L 164.836,60.6893 L 164.527,60.4307 L 164.213,60.1747 L 163.896,59.9187 L 163.573,59.664 L 163.245,59.408 L 162.912,59.1533 L 162.573,58.8987 L 162.231,58.6453 L 161.885,58.3947 L 161.532,58.1413 L 161.176,57.8907 L 160.815,57.64 L 160.451,57.3907 L 160.08,57.1413 L 159.704,56.892 L 159.325,56.6467 L 158.944,56.4013 L 158.556,56.1533 L 157.769,55.6653 L 156.964,55.1813 L 156.144,54.7027 L 155.308,54.2267 L 154.457,53.7547 L 153.592,53.288 L 152.709,52.8253 L 151.815,52.3693 L 150.907,51.9173 L 149.984,51.4707 L 149.048,51.0293 L 148.1,50.5947 L 147.139,50.1653 L 146.167,49.7427 L 145.183,49.3253 L 144.188,48.9173 L 143.181,48.5133 L 142.164,48.1173 L 141.139,47.7293 L 140.103,47.348 L 139.057,46.9747 L 138.003,46.6093 L 136.94,46.2507 L 135.869,45.9027 L 134.791,45.5613 L 133.704,45.2307 L 132.612,44.9067 L 131.513,44.5933 L 130.407,44.2907 L 129.297,43.9947 L 128.179,43.7093 L 127.057,43.4347 L 125.932,43.1707 L 124.801,42.916 L 123.667,42.672 L 122.529,42.44 L 121.389,42.2187 L 120.244,42.0067 L 119.1,41.8093 L 117.953,41.6227 L 117.377,41.532 L 116.801,41.4453 L 116.228,41.364 L 115.652,41.2827 L 115.077,41.2067 L 114.501,41.132 L 113.924,41.0627 L 113.351,40.9947 L 112.775,40.9307 L 112.197,40.8693 L 111.623,40.812 L 111.047,40.7587 L 110.472,40.7067 L 109.896,40.6587 L 109.323,40.616 L 108.748,40.5733 L 108.173,40.536 L 107.601,40.5027 L 107.027,40.4707 L 106.453,40.444 L 105.883,40.4213 L 105.311,40.4013 L 104.741,40.3853 L 104.171,40.372 L 103.6,40.364 L 103.035,40.3587 L 102.467,40.3547 L 101.9,40.3587 L 101.336,40.364 L 100.771,40.3733 L 100.207,40.3867 L 99.644,40.404 L 99.084,40.4253 L 98.524,40.4493 L 97.9653,40.48 L 97.408,40.512 L 96.852,40.548 L 96.296,40.5907 L 95.744,40.6347 L 95.192,40.684 L 94.6413,40.7373 L 94.092,40.7947 L 93.5467,40.8573 L 93.0013,40.9213 L 92.456,40.992 L 91.916,41.0667 L 91.376,41.144 L 90.8373,41.228 L 90.3027,41.3147 L 89.768,41.4053 L 89.2347,41.5013 L 88.7053,41.6013 L 88.1773,41.7067 L 87.6507,41.816 L 87.128,41.9293 L 86.6067,42.048 L 86.088,42.172 L 85.5707,42.2987 L 85.0573,42.4307 L 84.5453,42.568 L 84.0387,42.7093 L 83.5307,42.8547 L 83.0253,43.0067 L 82.5267,43.1613 L 82.0267,43.3227 L 81.5307,43.488 L 81.0387,43.6587 L 80.548,43.8347 L 80.0613,44.0133 L 79.576,44.2 L 79.096,44.3907 L 78.6173,44.5853 L 78.1427,44.7853 L 77.6707,44.992 L 77.2027,45.2013 L 76.7373,45.4173 L 76.276,45.6387 L 75.8173,45.864 L 75.3613,46.096 L 74.912,46.332 L 74.0213,46.812 L 73.148,47.292 L 72.292,47.7733 L 71.4547,48.2573 L 70.6333,48.74 L 69.828,49.2253 L 69.0387,49.712 L 68.268,50.2 L 67.5107,50.6893 L 66.7707,51.1787 L 66.044,51.6707 L 65.3333,52.1613 L 64.6373,52.6573 L 63.9573,53.1507 L 63.2907,53.6467 L 62.6373,54.1453 L 61.9987,54.644 L 61.3747,55.144 L 60.7627,55.6467 L 60.1667,56.148 L 59.5813,56.6507 L 59.008,57.156 L 58.448,57.664 L 57.9013,58.1707 L 57.3667,58.6787 L 56.8427,59.188 L 56.3307,59.6987 L 55.8293,60.212 L 55.3413,60.724 L 54.8613,61.2387 L 54.3933,61.7547 L 53.936,62.2707 L 53.4893,62.7893 L 53.052,63.308 L 52.624,63.828 L 52.2067,64.348 L 51.796,64.8707 L 51.3973,65.3933 L 51.0053,65.9173 L 50.6227,66.4427 L 50.248,66.9693 L 49.8813,67.4973 L 49.524,68.024 L 49.1733,68.5533 L 48.828,69.084 L 48.492,69.6147 L 48.1613,70.1467 L 47.8387,70.68 L 47.5227,71.212 L 47.212,71.7467 L 46.9053,72.2827 L 46.6067,72.82 L 46.3133,73.3547 L 46.024,73.8933 L 45.7387,74.4333 L 45.4587,74.972 L 45.184,75.512 L 44.912,76.052 L 44.6453,76.596 L 44.3813,77.1373 L 44.12,77.6813 L 43.8627,78.2253 L 43.3573,79.3147 L 42.86,80.408 L 42.3707,81.5053 L 41.8867,82.604 L 41.4053,83.7067 L 40.4453,85.92 L 39.964,87.0307 L 39.4773,88.1453 L 38.984,89.2627 L 38.4827,90.3827 L 37.9707,91.5053 L 37.4467,92.6333 L 37.1787,93.196 L 36.9093,93.7627 L 36.6347,94.3267 L 36.3547,94.8933 L 36.0707,95.4613 L 35.7827,96.0307 L 35.488,96.6013 L 35.1893,97.1707 L 34.8853,97.7413 L 34.5747,98.3133 L 34.2587,98.8867 L 33.936,99.46 L 33.6067,100.035 L 33.2707,100.611 L 32.928,101.188 L 32.5773,101.767 L 32.2213,102.345 L 31.8573,102.924 L 31.484,103.504 L 31.1013,104.085 L 30.712,104.669 L 30.3133,105.253 L 29.9067,105.837 L 29.4893,106.423 L 29.0627,107.011 L 28.628,107.599 L 28.1827,108.187 L 27.7253,108.777 L 27.26,109.368 L 26.7827,109.961 L 26.2947,110.555 L 25.796,111.148 L 25.284,111.745 L 24.7627,112.343 L 24.228,112.94 L 23.6813,113.539 L 23.1213,114.14 L 22.5493,114.741 L 21.9653,115.344 L 21.3627,115.953 L 21.1227,116.197 L 20.8853,116.444 L 20.6547,116.691 L 20.4307,116.937 L 20.212,117.185 L 20,117.433 L 19.796,117.681 L 19.6,117.927 L 19.4053,118.173 L 19.2187,118.424 L 19.0413,118.671 L 18.8707,118.916 L 18.7053,119.163 L 18.5453,119.411 L 18.392,119.659 L 18.2467,119.905 L 18.1053,120.155 L 17.9733,120.403 L 17.848,120.647 L 17.7267,120.893 L 17.612,121.143 L 17.504,121.391 L 17.404,121.637 L 17.3093,121.883 L 17.2213,122.131 L 17.14,122.376 L 17.0627,122.625 L 16.996,122.872 L 16.9333,123.115 L 16.876,123.364 L 16.8267,123.612 L 16.784,123.855 L 16.7467,124.101 L 16.7173,124.347 L 16.6933,124.591 L 16.676,124.832 L 16.664,125.076 L 16.6587,125.321 L 16.6613,125.56 L 16.668,125.804 L 16.6827,126.044 L 16.7027,126.284 L 16.7293,126.525 L 16.7627,126.761 L 16.8013,126.999 L 16.8453,127.235 L 16.896,127.469 L 16.9533,127.704 L 17.0147,127.935 L 17.084,128.168 L 17.1573,128.399 L 17.2373,128.628 L 17.324,128.856 L 17.4133,129.08 L 17.5093,129.305 L 17.612,129.531 L 17.7187,129.752 L 17.832,129.973 L 17.9493,130.192 L 18.0707,130.409 L 18.1987,130.627 L 18.3333,130.845 L 18.4707,131.057 L 18.6133,131.269 L 18.7613,131.481 L 18.912,131.691 L 19.0707,131.9 L 19.2347,132.108 L 19.4,132.312 L 19.572,132.516 L 19.7493,132.72 L 19.9293,132.921 L 20.1133,133.12 L 20.304,133.32 L 20.4987,133.519 L 20.6973,133.713 L 20.8987,133.908 L 21.1067,134.103 L 21.3173,134.293 L 21.5333,134.485 L 21.7547,134.676 L 21.9773,134.863 L 22.2067,135.051 L 22.4387,135.236 L 22.6747,135.421 L 22.9147,135.604 L 23.1613,135.788 L 23.4107,135.968 L 23.66,136.147 L 23.9173,136.325 L 24.1773,136.503 L 24.44,136.677 L 24.7107,136.853 L 24.984,137.028 L 25.5373,137.369 L 26.1067,137.708 L 26.6907,138.041 L 27.2893,138.369 L 27.904,138.695 L 28.5307,139.012 L 29.1707,139.325 L 29.8253,139.635 L 30.4933,139.937 L 31.172,140.236 L 31.8667,140.531 L 32.572,140.819 L 33.2907,141.103 L 34.02,141.381 L 34.7627,141.655 L 35.516,141.921 L 36.2827,142.185 L 37.0573,142.443 L 37.844,142.695 L 38.6427,142.941 L 39.4507,143.183 L 40.2693,143.42 L 41.0987,143.651 L 41.936,143.876 L 42.7827,144.095 L 43.64,144.309 L 44.5053,144.517 L 45.38,144.72 L 46.2627,144.917 L 47.1533,145.108 L 48.0533,145.295 L 48.9613,145.475 L 49.8747,145.648 L 50.796,145.816 L 51.7267,145.977 L 52.6613,146.133 L 53.604,146.283 L 54.552,146.425 L 55.5067,146.563 L 56.4667,146.695 L 57.4333,146.82 L 58.4053,146.937 L 59.3813,147.049 L 60.3627,147.155 L 61.3493,147.255 L 62.3387,147.347 L 63.3347,147.433 L 64.3333,147.512 L 65.3347,147.585 L 66.34,147.651 L 67.348,147.709 L 68.36,147.763 L 69.3747,147.808 L 70.3907,147.845 L 71.4093,147.877 L 72.4293,147.901 L 73.4533,147.919 L 74.476,147.928 L 75.5,147.933 L 76.5253,147.927 L 77.5507,147.916 L 78.5787,147.897 L 79.6067,147.871 L 80.6333,147.837 L 81.66,147.796 L 82.6867,147.748 L 83.7133,147.691 L 84.7373,147.627 L 85.7613,147.555 L 86.7827,147.475 L 87.8013,147.388 L 88.82,147.292 L 89.836,147.189 L 90.8507,147.079 L 91.8613,146.959 L 92.868,146.831 L 93.872,146.695 L 94.8733,146.552 L 95.8707,146.4 L 96.864,146.239 L 97.8533,146.071 L 98.2987,145.991 L 98.7413,145.908 L 99.1813,145.823 L 99.6187,145.733 L 100.053,145.643 L 100.488,145.547 L 100.917,145.448 L 101.344,145.348 L 101.769,145.244 L 102.193,145.137 L 102.612,145.028 L 103.029,144.916 L 103.445,144.8 L 103.859,144.683 L 104.269,144.561 L 104.679,144.436 L 105.081,144.311 L 105.485,144.181 L 105.887,144.049 L 106.285,143.915 L 106.684,143.777 L 107.079,143.636 L 107.468,143.493 L 107.857,143.348 L 108.244,143.2 L 108.629,143.051 L 109.013,142.896 L 109.393,142.74 L 109.771,142.584 L 110.149,142.423 L 110.523,142.257 L 110.893,142.093 L 111.263,141.925 L 111.631,141.755 L 111.996,141.581 L 112.36,141.405 L 113.079,141.049 L 113.791,140.681 L 114.495,140.305 L 115.191,139.92 L 115.877,139.527 L 116.556,139.124 L 117.228,138.713 L 117.892,138.295 L 118.549,137.867 L 119.199,137.432 L 119.84,136.989 L 120.476,136.539 L 121.103,136.081 L 121.724,135.616 L 122.337,135.144 L 122.945,134.665 L 123.547,134.18 L 124.14,133.687 L 124.729,133.189 L 125.309,132.684 L 125.885,132.173 L 126.455,131.656 L 127.019,131.135 L 127.579,130.607 L 128.131,130.072 L 128.677,129.533 L 129.219,128.992 L 129.756,128.443 L 130.288,127.888 L 130.813,127.331 L 131.335,126.768 L 131.852,126.203 L 132.364,125.632 L 132.872,125.057 L 133.376,124.479 L 133.875,123.897 L 134.371,123.312 L 134.861,122.723 L 135.348,122.132 L 135.832,121.537 L 136.311,120.94 L 136.788,120.341 L 137.263,119.737 L 137.732,119.132 L 138.199,118.525 L 138.661,117.917 L 139.123,117.307 L 139.581,116.693 L 140.489,115.464 L 141.389,114.232 L 142.28,112.993 L 143.163,111.753 L 144.04,110.512 L 144.909,109.273 L 145.777,108.035 L 147.5,105.567 L 148.359,104.34 L 149.215,103.121 L 150.073,101.909 L 150.932,100.707 L 151.792,99.5133 L 152.656,98.3347 L 153.524,97.1667 L 153.959,96.588 L 154.396,96.0147 L 154.835,95.4427 L 155.275,94.876 L 155.716,94.3133 L 156.159,93.756 L 156.604,93.2013 L 157.052,92.6533 L 157.5,92.1093 L 157.952,91.5693 L 158.405,91.0373 L 158.861,90.508 L 159.321,89.984 L 159.783,89.4667 L 160.223,88.9813 L 160.385,88.8307 Z "/>
			</g>
		</g>
		<g id="dp_group012">
			<path id="dp_path014" fill="#a60559" fill-rule="evenodd" d="M 57.1227,145.029 L 56.8253,146.72 L 56.2307,150.1 L 65.424,147.361 L 57.7173,141.651 Z "/>
			<path id="dp_path015" fill="#a60559" fill-rule="evenodd" d="M 49.3107,145.4 L 56.8253,146.721 L 57.1227,145.031 L 49.6067,143.709 Z "/>
		</g>
		<path id="dp_path040" fill="#a60559" fill-rule="evenodd" d="M 53.2613,164.252 L 53.2613,163.181 C 52.7253,164.021 51.9373,164.441 50.8987,164.441 C 50.2253,164.441 49.6053,164.256 49.04,163.884 C 48.476,163.513 48.0387,162.995 47.728,162.328 C 47.4173,161.663 47.2627,160.896 47.2627,160.032 C 47.2627,159.188 47.404,158.423 47.684,157.736 C 47.9653,157.049 48.388,156.521 48.9493,156.156 C 49.5107,155.789 50.14,155.607 50.8347,155.607 C 51.3453,155.607 51.7987,155.713 52.196,155.927 C 52.5933,156.141 52.916,156.419 53.1667,156.763 L 53.1667,152.593 L 54.5907,152.593 L 54.5907,164.252 Z M 48.728,160.028 C 48.728,161.111 48.9573,161.92 49.416,162.456 C 49.8733,162.992 50.4147,163.261 51.04,163.261 C 51.668,163.261 52.2027,163.004 52.6427,162.493 C 53.0827,161.98 53.3013,161.197 53.3013,160.148 C 53.3013,158.989 53.0773,158.14 52.6307,157.599 C 52.1827,157.057 51.6307,156.787 50.9747,156.787 C 50.3347,156.787 49.8,157.048 49.372,157.567 C 48.9427,158.087 48.728,158.908 48.728,160.028 Z "/>
		<path id="dp_path045" fill="#a60559" fill-rule="evenodd" d="M 61.0613,153.231 L 58.332,162.225 C 58.1733,162.759 58.0933,163.091 58.0933,163.224 C 58.0933,163.289 58.116,163.345 58.1613,163.391 C 58.2053,163.437 58.256,163.459 58.3093,163.459 C 58.4053,163.459 58.4947,163.424 58.58,163.353 C 58.8373,163.156 59.1213,162.823 59.4373,162.352 L 59.7493,162.488 C 59.2427,163.257 58.744,163.807 58.256,164.135 C 57.9213,164.357 57.564,164.469 57.1867,164.469 C 56.8347,164.469 56.556,164.375 56.348,164.188 C 56.14,164 56.0373,163.775 56.0373,163.512 C 56.0373,163.316 56.1027,163 56.2347,162.567 L 58.4627,155.244 C 58.584,154.84 58.644,154.573 58.644,154.441 C 58.644,154.315 58.584,154.213 58.4653,154.14 C 58.3053,154.033 58.0613,153.988 57.7373,154.004 L 57.8053,153.707 L 60.5693,153.231 Z "/>
		<g id="dp_group050">
			<text id="dp_text001" transform="matrix(1,0,0,1,13.565,95.8463)" xml:space="preserve" fill="#a60559" font-family="Times New Roman" font-size="15" font-weight="700" x="0" y="0">× </text>
			<text id="dp_text002" transform="matrix(1,0,0,1,22.349,95.8463)" xml:space="preserve" fill="#a60559" font-family="Arial" font-size="15" font-weight="700" x="0" y="0">F </text>
			<text id="dp_text003" transform="matrix(1,0,0,1,31.749,95.8463)" xml:space="preserve" fill="#a60559" font-family="Times New Roman" font-size="15" font-weight="400" x="0" y="0">  </text>
			<path id="dp_path054" fill="#a60559" fill-rule="evenodd" d="M 3.88133,85.6853 L 13.564,85.6853 L 8.492,96.8533 Z M 5.784,86.3453 L 9.00533,94.144 L 12.5573,86.3453 Z "/>
		</g>
		<text id="dp_text004" transform="matrix(1,0,0,1,46.757,32.8613)" xml:space="preserve" fill="#00d920" font-family="Arial" font-size="21" font-weight="700" x="0" y="0">F </text>
		<text id="dp_text005" transform="matrix(1,0,0,1,59.2877,32.8613)" xml:space="preserve" fill="#00d920" font-family="Times New Roman" font-size="21" font-weight="400" x="0" y="0">  </text>
		<path id="dp_path006" fill="none" fill-rule="evenodd" stroke="#2217ff" stroke-width="0.666667" d="M 27.8867,136.443 C 52.3853,121.303 60.212,89.68 76.7173,70.628 C 93.632,51.104 100.296,52.7627 113.161,41.9813"/>
		<path id="dp_path007" fill="none" fill-rule="evenodd" stroke="#2217ff" stroke-width="0.666667" d="M 44.6987,142.773 C 53.3867,134.029 66.3373,122.637 72.6227,113.304 C 82.568,98.536 84.848,85.9147 95.716,74.2347 C 113.895,54.7 122.516,59.0507 136.343,48.264"/>
		<path id="dp_path008" fill="none" fill-rule="evenodd" stroke="#2217ff" stroke-width="0.666667" d="M 76.7187,146.747 C 98.5573,123.66 104.347,109.907 114.577,89.984 C 122.432,74.688 144.969,68.792 162.08,59.78"/>
		<path id="dp_path009" fill="none" fill-rule="evenodd" stroke="#2217ff" stroke-width="0.666667" d="M 102.251,143.757 C 122.073,132.36 128.405,108.556 141.761,94.2133 C 155.447,79.5173 160.839,80.7653 171.248,72.6493"/>
		<path id="dp_path010" fill="none" fill-rule="evenodd" stroke="#2217ff" stroke-width="0.666667" d="M 46.968,74.7573 C 71.4667,82.6947 79.2933,99.2733 95.7987,109.263 C 112.713,119.499 119.377,118.629 132.243,124.281"/>
		<path id="dp_path011" fill="none" fill-rule="evenodd" stroke="#2217ff" stroke-width="0.666667" d="M 55.828,62.2733 C 79.0867,71.576 86.5453,73.4733 103.255,83.7173 C 120.38,94.216 129.139,107.265 142.164,113.063"/>
		<path id="dp_path012" fill="none" fill-rule="evenodd" stroke="#2217ff" stroke-width="0.666667" d="M 35.592,98.5347 C 55.308,126.072 66.1333,122.537 76.7173,122.641 C 93.9107,122.811 99.1107,129.689 116.221,138.321"/>
		<path id="dp_path013" fill="none" fill-rule="evenodd" stroke="#2217ff" stroke-width="0.666667" d="M 77.424,46.9187 C 98.308,51.9467 104.789,51.6067 119.885,61.78 C 135.619,72.3827 142.664,86.1293 152.367,96.0147"/>
		<path id="dp_path014" fill="none" fill-rule="evenodd" stroke="#2217ff" stroke-width="0.666667" d="M 25.4253,113.1 C 41.956,134.417 52.8133,130.56 63.2707,132.193 C 77.9867,134.492 84.3013,138.592 93.2733,145.128"/>
		<g id="dp_group057">
			<path id="dp_path058" fill="#2217ff" fill-rule="evenodd" d="M 173.911,92.0533 C 173.973,91.464 174.004,90.98 174.004,90.6 C 174.004,89.6613 173.759,88.936 173.268,88.4227 C 172.777,87.9093 172.124,87.6533 171.309,87.6533 C 170.759,87.6533 170.301,87.7573 169.937,87.9653 C 169.575,88.1733 169.249,88.4827 168.964,88.8933 L 168.604,88.8933 C 169.004,88.072 169.436,87.476 169.899,87.104 C 170.361,86.732 170.92,86.5467 171.576,86.5467 C 172.044,86.5467 172.5,86.6747 172.945,86.9293 C 173.389,87.184 173.748,87.596 174.021,88.1627 C 174.295,88.7307 174.431,89.4987 174.431,90.4667 C 174.431,92.3093 174.029,93.9653 173.228,95.4333 C 172.328,97.0733 171.189,97.8933 169.811,97.8933 C 168.999,97.8933 168.355,97.6587 167.879,97.1907 C 167.403,96.7213 167.164,96.084 167.164,95.2773 C 167.164,94.668 167.285,94.0707 167.527,93.4853 C 167.768,92.8987 168.075,92.4027 168.443,91.9973 C 168.812,91.5907 169.223,91.268 169.676,91.028 C 170.263,90.716 170.861,90.56 171.469,90.56 C 171.896,90.56 172.281,90.6427 172.628,90.8067 C 172.973,90.9707 173.259,91.1693 173.481,91.404 C 173.623,91.5507 173.765,91.7667 173.911,92.0533 Z M 173.777,92.7467 C 173.575,92.168 173.272,91.7293 172.869,91.432 C 172.467,91.1347 172.024,90.9867 171.54,90.9867 C 171.072,90.9867 170.612,91.148 170.16,91.472 C 169.708,91.7947 169.316,92.3613 168.983,93.172 C 168.651,93.9827 168.484,94.792 168.484,95.6 C 168.484,96.1947 168.627,96.652 168.913,96.972 C 169.199,97.2933 169.563,97.4533 170.004,97.4533 C 170.644,97.4533 171.296,97.1147 171.961,96.4373 C 172.808,95.572 173.413,94.3413 173.777,92.7467 Z "/>
			<path id="dp_path059" fill="#2217ff" fill-rule="evenodd" d="M 174.825,86.184 L 183.437,86.184 L 183.665,89.0733 L 183.347,89.0733 C 183.308,88.5027 183.212,88.068 183.059,87.7667 C 182.905,87.464 182.695,87.2453 182.428,87.1107 C 182.161,86.9747 181.739,86.9067 181.159,86.9067 L 177.219,86.9067 L 180.727,91.3987 L 176.764,96.0787 L 181.127,96.0787 C 181.919,96.0787 182.523,95.952 182.941,95.696 C 183.359,95.4413 183.672,94.9107 183.881,94.1 L 184.2,94.172 L 183.708,97.6533 L 174.825,97.6533 L 174.825,97.348 L 179.237,92.1387 L 174.825,86.4893 Z "/>
		</g>
		<path id="dp_path068" fill="#2217ff" fill-rule="evenodd" d="M 133.737,55.3307 L 142.349,55.3307 L 142.577,58.22 L 142.259,58.22 C 142.22,57.6493 142.124,57.2147 141.971,56.9133 C 141.817,56.6107 141.607,56.392 141.34,56.2573 C 141.073,56.1213 140.651,56.0533 140.071,56.0533 L 136.131,56.0533 L 139.639,60.5453 L 135.676,65.2253 L 140.039,65.2253 C 140.831,65.2253 141.435,65.0987 141.853,64.8427 C 142.271,64.588 142.584,64.0573 142.793,63.2467 L 143.112,63.3187 L 142.62,66.8 L 133.737,66.8 L 133.737,66.4947 L 138.149,61.2853 L 133.737,55.636 Z "/>
		<g id="dp_group020">
			<path id="dp_path022" fill="#00d920" fill-rule="evenodd" d="M 128.863,20.376 L 130.013,21.0493 L 132.316,22.396 L 132.805,14.9587 L 126.561,19.0293 Z "/>
			<path id="dp_path023" fill="#00d920" fill-rule="evenodd" d="M 132.663,90.588 L 132.391,90.0413 L 132.124,89.4907 L 131.861,88.9373 L 131.6,88.3813 L 131.345,87.8213 L 131.093,87.2613 L 130.845,86.696 L 130.603,86.1293 L 130.361,85.5573 L 130.124,84.9853 L 129.893,84.4093 L 129.664,83.8307 L 129.439,83.2507 L 129.219,82.6667 L 129.001,82.0813 L 128.788,81.4947 L 128.579,80.904 L 128.375,80.312 L 128.173,79.7173 L 127.976,79.1213 L 127.784,78.5227 L 127.595,77.9213 L 127.409,77.32 L 127.229,76.7147 L 127.052,76.108 L 126.88,75.5 L 126.711,74.8907 L 126.547,74.28 L 126.387,73.668 L 126.229,73.0533 L 126.077,72.4387 L 125.931,71.8213 L 125.787,71.2013 L 125.648,70.5827 L 125.512,69.9627 L 125.381,69.34 L 125.255,68.7173 L 125.133,68.0933 L 125.015,67.468 L 124.901,66.8427 L 124.791,66.216 L 124.687,65.588 L 124.584,64.96 L 124.489,64.332 L 124.396,63.7027 L 124.309,63.072 L 124.225,62.4413 L 124.147,61.8107 L 124.072,61.1813 L 124.003,60.5493 L 123.937,59.9173 L 123.876,59.2853 L 123.82,58.6547 L 123.768,58.0213 L 123.72,57.3893 L 123.676,56.7573 L 123.639,56.1267 L 123.604,55.4947 L 123.575,54.8653 L 123.551,54.2333 L 123.529,53.6013 L 123.515,52.972 L 123.503,52.3427 L 123.497,51.7133 L 123.496,51.084 L 123.499,50.456 L 123.505,49.828 L 123.519,49.204 L 123.536,48.5773 L 123.557,47.9533 L 123.584,47.3293 L 123.616,46.7067 L 123.652,46.084 L 123.692,45.4653 L 123.739,44.8453 L 123.789,44.228 L 123.844,43.612 L 123.904,42.996 L 123.969,42.3827 L 124.039,41.772 L 124.115,41.16 L 124.193,40.5507 L 124.277,39.944 L 124.367,39.34 L 124.461,38.736 L 124.56,38.1333 L 124.665,37.5333 L 124.773,36.936 L 124.888,36.34 L 125.007,35.7467 L 125.131,35.1547 L 125.26,34.5653 L 125.393,33.9787 L 125.533,33.3947 L 125.677,32.812 L 125.827,32.232 L 125.981,31.6547 L 126.141,31.0813 L 126.305,30.508 L 126.475,29.94 L 126.651,29.372 L 126.829,28.8093 L 127.013,28.2493 L 127.205,27.6907 L 127.4,27.136 L 127.601,26.584 L 127.807,26.036 L 128.019,25.4907 L 128.235,24.9467 L 128.456,24.408 L 128.683,23.8733 L 128.915,23.3413 L 129.151,22.812 L 129.395,22.2867 L 129.643,21.764 L 129.885,21.2667 L 130.013,21.0507 L 128.864,20.376 L 128.712,20.6373 L 128.443,21.188 L 128.189,21.7213 L 127.94,22.26 L 127.696,22.8027 L 127.459,23.348 L 127.227,23.896 L 127,24.448 L 126.779,25.0027 L 126.561,25.5613 L 126.351,26.1227 L 126.147,26.688 L 125.947,27.256 L 125.752,27.8253 L 125.563,28.3987 L 125.379,28.9747 L 125.2,29.5533 L 125.028,30.1347 L 124.859,30.7187 L 124.696,31.3053 L 124.539,31.896 L 124.387,32.4867 L 124.24,33.08 L 124.097,33.6773 L 123.961,34.2773 L 123.829,34.8773 L 123.703,35.48 L 123.581,36.084 L 123.464,36.6933 L 123.353,37.3013 L 123.248,37.912 L 123.147,38.5253 L 123.049,39.14 L 122.96,39.7573 L 122.873,40.3747 L 122.792,40.9947 L 122.716,41.6147 L 122.644,42.2387 L 122.579,42.8627 L 122.519,43.4893 L 122.461,44.116 L 122.411,44.744 L 122.364,45.372 L 122.321,46.004 L 122.285,46.6347 L 122.253,47.268 L 122.227,47.9027 L 122.205,48.5373 L 122.188,49.172 L 122.175,49.8093 L 122.168,50.4453 L 122.163,51.084 L 122.167,51.7213 L 122.172,52.3587 L 122.184,52.9987 L 122.199,53.6387 L 122.22,54.2787 L 122.244,54.9187 L 122.273,55.5613 L 122.308,56.2013 L 122.348,56.8427 L 122.392,57.4853 L 122.44,58.1253 L 122.492,58.7667 L 122.551,59.408 L 122.612,60.048 L 122.677,60.6907 L 122.749,61.3307 L 122.824,61.9707 L 122.905,62.612 L 122.989,63.2507 L 123.079,63.8893 L 123.172,64.5267 L 123.269,65.1653 L 123.372,65.804 L 123.479,66.44 L 123.589,67.0747 L 123.705,67.7107 L 123.824,68.344 L 123.948,68.976 L 124.077,69.6093 L 124.211,70.24 L 124.347,70.868 L 124.488,71.4973 L 124.635,72.1253 L 124.784,72.7507 L 124.939,73.376 L 125.096,73.9987 L 125.259,74.6213 L 125.425,75.24 L 125.597,75.86 L 125.772,76.476 L 125.952,77.0907 L 126.135,77.704 L 126.323,78.316 L 126.515,78.9253 L 126.709,79.532 L 126.909,80.1387 L 127.113,80.7413 L 127.323,81.344 L 127.535,81.9427 L 127.751,82.54 L 127.971,83.1333 L 128.196,83.7253 L 128.424,84.316 L 128.656,84.9027 L 128.892,85.4867 L 129.132,86.0693 L 129.376,86.6493 L 129.624,87.2267 L 129.877,87.8 L 130.132,88.3707 L 130.392,88.9387 L 130.656,89.5053 L 130.924,90.0667 L 131.193,90.6253 L 131.468,91.18 Z "/>
		</g>
		<g id="dp_group015">
			<g id="dp_group016">
				<path id="dp_path017" fill="#a60559" fill-rule="evenodd" d="M 58.676,104.509 L 57.7267,104.997 L 55.8293,105.971 L 60.6373,109.497 L 60.5733,103.535 Z "/>
				<path id="dp_path018" fill="#a60559" d="M 58.6733,104.505 L 58.6453,104.452 L 58.1733,104.7 L 58.7053,104.737 L 58.724,104.461 L 58.7533,104.195 L 58.7947,103.923 L 58.8453,103.649 L 58.9093,103.376 L 58.9827,103.101 L 59.068,102.827 L 59.1653,102.551 L 59.2747,102.275 L 59.392,102.005 L 59.5213,101.743 L 59.656,101.487 L 59.8,101.243 L 59.952,101.004 L 60.1067,100.776 L 60.272,100.559 L 60.4413,100.347 L 60.6173,100.148 L 60.7973,99.9587 L 60.9813,99.7787 L 61.172,99.6093 L 61.364,99.4507 L 61.56,99.3027 L 61.76,99.1653 L 61.9613,99.04 L 62.1667,98.9253 L 62.2667,98.8733 L 62.3693,98.8227 L 62.472,98.776 L 62.576,98.732 L 62.6787,98.6907 L 62.78,98.6533 L 62.8853,98.6187 L 62.9867,98.5853 L 63.0907,98.5573 L 63.1933,98.5307 L 63.296,98.508 L 63.3987,98.4867 L 63.4987,98.4707 L 63.6013,98.4573 L 63.7027,98.4467 L 63.804,98.4387 L 63.9067,98.4333 L 64.0053,98.432 L 64.104,98.4333 L 64.204,98.4387 L 64.3053,98.4467 L 64.4013,98.456 L 64.4973,98.4707 L 64.5973,98.488 L 64.692,98.508 L 64.7853,98.532 L 64.88,98.5587 L 64.9773,98.5907 L 65.0707,98.6227 L 65.168,98.6627 L 65.5653,97.6733 L 65.444,97.6253 L 65.316,97.58 L 65.1893,97.54 L 65.06,97.5027 L 64.9293,97.4707 L 64.7973,97.4427 L 64.668,97.42 L 64.5347,97.4 L 64.4013,97.3853 L 64.2707,97.3747 L 64.1387,97.3693 L 64.0053,97.3653 L 63.872,97.3693 L 63.74,97.3747 L 63.6067,97.3853 L 63.476,97.3987 L 63.344,97.4173 L 63.2093,97.4387 L 63.0773,97.4653 L 62.9453,97.4933 L 62.816,97.528 L 62.6853,97.564 L 62.5547,97.6053 L 62.428,97.648 L 62.2973,97.696 L 62.168,97.748 L 62.0427,97.8027 L 61.916,97.86 L 61.7893,97.9213 L 61.6627,97.9867 L 61.42,98.1227 L 61.176,98.2747 L 60.9387,98.4387 L 60.7053,98.6133 L 60.4787,98.8013 L 60.256,99 L 60.04,99.2093 L 59.8307,99.4307 L 59.628,99.6613 L 59.432,99.9027 L 59.2427,100.155 L 59.0613,100.417 L 58.8907,100.688 L 58.7253,100.969 L 58.572,101.26 L 58.4267,101.557 L 58.2907,101.867 L 58.168,102.177 L 58.0573,102.491 L 57.9587,102.805 L 57.8747,103.12 L 57.8027,103.433 L 57.744,103.747 L 57.6973,104.056 L 57.6627,104.365 L 57.632,104.813 L 57.7293,105.001 Z "/>
			</g>
		</g>
		<path id="dp_path019" fill="none" fill-rule="evenodd" stroke="#a60559" stroke-width="1.06667" d="M 65.3667,98.168 C 67.6973,99.1413 68.528,102.467 67.2213,105.595 C 65.916,108.723 62.968,110.471 60.6373,109.497"/>
		<g id="dp_group069">
			<path id="dp_path071" fill="#00d920" fill-rule="evenodd" d="M 5.12,53.56 L 5.87467,52.46 L 7.38267,50.2613 L 0,49.2387 L 3.612,55.7587 Z "/>
			<path id="dp_path072" fill="#00d920" fill-rule="evenodd" d="M 63.084,103.367 L 61.9907,102.061 L 60.9,100.777 L 59.816,99.5133 L 58.7373,98.2707 L 57.6627,97.048 L 56.5947,95.8453 L 55.5307,94.664 L 54.472,93.5013 L 53.4187,92.3587 L 52.3707,91.2333 L 51.3253,90.1267 L 50.2867,89.04 L 49.2507,87.9693 L 48.22,86.9173 L 47.1947,85.8813 L 46.1707,84.8613 L 45.1533,83.8587 L 44.1387,82.872 L 43.1293,81.9013 L 42.124,80.9453 L 41.12,80.0053 L 40.1213,79.0787 L 39.1267,78.1667 L 38.136,77.268 L 37.148,76.384 L 36.1627,75.512 L 35.1813,74.6533 L 34.204,73.808 L 33.228,72.9747 L 32.2547,72.152 L 31.2867,71.3413 L 30.32,70.5413 L 29.356,69.7533 L 28.3947,68.9747 L 27.4387,68.2067 L 26.4813,67.4467 L 25.5267,66.6987 L 24.5773,65.9573 L 23.628,65.2253 L 22.68,64.5027 L 21.7373,63.7853 L 20.7933,63.0773 L 19.852,62.376 L 18.9133,61.6827 L 17.9773,60.9947 L 17.04,60.3133 L 16.1067,59.6373 L 15.1747,58.9667 L 14.2427,58.3013 L 13.312,57.64 L 11.456,56.332 L 9.60267,55.0387 L 7.75467,53.756 L 5.90667,52.4827 L 5.872,52.4587 L 5.12267,53.56 L 5.15467,53.5813 L 6.99733,54.852 L 8.84267,56.132 L 10.6907,57.4227 L 12.544,58.728 L 13.4693,59.3867 L 14.3987,60.0493 L 15.328,60.7173 L 16.2587,61.3907 L 17.1907,62.0693 L 18.124,62.7547 L 19.06,63.4453 L 19.996,64.144 L 20.9347,64.8493 L 21.8747,65.5613 L 22.8173,66.2813 L 23.7613,67.0107 L 24.708,67.7467 L 25.6573,68.492 L 26.6067,69.2467 L 27.56,70.012 L 28.516,70.7853 L 29.4747,71.5707 L 30.436,72.3653 L 31.3987,73.1707 L 32.3667,73.988 L 33.3347,74.8187 L 34.3067,75.6587 L 35.2827,76.512 L 36.2627,77.3787 L 37.2453,78.2573 L 38.2307,79.1507 L 39.22,80.0573 L 40.2133,80.9787 L 41.2093,81.9133 L 42.2093,82.864 L 43.2133,83.8293 L 44.2227,84.8107 L 45.2347,85.808 L 46.2507,86.82 L 47.2707,87.8507 L 48.296,88.8973 L 49.3267,89.9627 L 50.36,91.044 L 51.4,92.1453 L 52.4427,93.2627 L 53.4907,94.4 L 54.544,95.5573 L 55.6027,96.7333 L 56.6653,97.9307 L 57.7347,99.1453 L 58.808,100.383 L 59.8867,101.641 L 60.972,102.92 L 62.0627,104.223 Z "/>
		</g>
		<g id="dp_group073">
			<path id="dp_path075" fill="#fdaa0f" fill-rule="evenodd" d="M 54.3507,101.411 L 54.7827,100.149 L 55.6453,97.6253 L 48.26,98.6213 L 53.488,103.933 Z "/>
			<path id="dp_path076" fill="#fdaa0f" fill-rule="evenodd" d="M 63.328,103.069 L 54.784,100.148 L 54.3507,101.411 L 62.896,104.332 Z "/>
		</g>
		<g id="dp_group020">
			<g id="dp_group021">
				<path id="dp_path022" fill="#a60559" fill-rule="evenodd" d="M 94.74,98.4893 L 94.4093,97.4747 L 93.7493,95.4453 L 89.504,99.632 L 95.4,100.517 Z "/>
				<path id="dp_path023" fill="#a60559" d="M 94.7427,98.4867 L 94.8387,98.4547 L 94.6707,97.9493 L 94.5827,98.476 L 94.72,98.4973 L 94.8507,98.5227 L 94.9827,98.552 L 95.1173,98.584 L 95.248,98.6187 L 95.3787,98.6573 L 95.5093,98.6973 L 95.6373,98.7413 L 95.7693,98.7893 L 95.8973,98.8387 L 96.0253,98.892 L 96.1533,98.948 L 96.28,99.008 L 96.408,99.0707 L 96.5307,99.1347 L 96.6547,99.2027 L 96.7773,99.2747 L 96.8987,99.3493 L 97.0187,99.4267 L 97.14,99.508 L 97.2547,99.5893 L 97.3707,99.6773 L 97.488,99.7693 L 97.6013,99.8613 L 97.712,99.9547 L 97.82,100.052 L 97.9253,100.151 L 98.028,100.252 L 98.1267,100.353 L 98.2227,100.459 L 98.316,100.564 L 98.4067,100.671 L 98.4947,100.78 L 98.5773,100.888 L 98.6573,100.997 L 98.7373,101.111 L 98.8107,101.223 L 98.884,101.34 L 98.9533,101.453 L 99.0187,101.568 L 99.0813,101.688 L 99.1427,101.805 L 99.1973,101.923 L 99.252,102.045 L 99.3027,102.164 L 99.3507,102.287 L 99.396,102.408 L 99.436,102.529 L 99.4747,102.653 L 99.5093,102.773 L 99.5413,102.897 L 99.5707,103.023 L 99.5973,103.147 L 99.62,103.269 L 99.64,103.392 L 99.656,103.517 L 99.6693,103.641 L 99.6813,103.767 L 99.688,103.889 L 99.6933,104.013 L 99.6933,104.137 L 99.692,104.26 L 99.6867,104.383 L 99.6787,104.505 L 99.668,104.628 L 99.6533,104.749 L 99.636,104.869 L 99.616,104.987 L 99.5907,105.109 L 99.564,105.228 L 99.5347,105.343 L 99.5013,105.461 L 99.4653,105.579 L 99.4267,105.691 L 99.384,105.804 L 99.3373,105.919 L 99.288,106.033 L 99.2373,106.143 L 99.1827,106.249 L 99.124,106.357 L 99.0613,106.464 L 98.9947,106.572 L 98.928,106.676 L 98.856,106.779 L 98.7827,106.88 L 98.704,106.979 L 98.6227,107.077 L 98.532,107.179 L 99.3347,107.883 L 99.4333,107.768 L 99.5333,107.648 L 99.6307,107.523 L 99.7227,107.397 L 99.8107,107.271 L 99.896,107.14 L 99.976,107.011 L 100.052,106.877 L 100.124,106.745 L 100.195,106.607 L 100.259,106.468 L 100.319,106.332 L 100.376,106.193 L 100.429,106.051 L 100.479,105.907 L 100.523,105.763 L 100.564,105.62 L 100.601,105.473 L 100.633,105.328 L 100.661,105.184 L 100.689,105.035 L 100.709,104.885 L 100.727,104.737 L 100.74,104.588 L 100.751,104.439 L 100.756,104.289 L 100.76,104.14 L 100.757,103.989 L 100.752,103.839 L 100.743,103.689 L 100.731,103.54 L 100.715,103.389 L 100.693,103.24 L 100.671,103.091 L 100.643,102.939 L 100.611,102.791 L 100.576,102.644 L 100.539,102.496 L 100.496,102.347 L 100.449,102.199 L 100.399,102.053 L 100.345,101.908 L 100.289,101.764 L 100.228,101.619 L 100.165,101.48 L 100.097,101.336 L 100.025,101.195 L 99.952,101.059 L 99.8733,100.917 L 99.7907,100.78 L 99.7067,100.647 L 99.6173,100.513 L 99.5267,100.381 L 99.4307,100.248 L 99.3293,100.119 L 99.228,99.9933 L 99.1213,99.8653 L 99.012,99.744 L 98.9,99.6227 L 98.7827,99.5027 L 98.664,99.3853 L 98.54,99.268 L 98.4133,99.1547 L 98.284,99.0427 L 98.152,98.9347 L 98.0187,98.832 L 97.884,98.7307 L 97.7427,98.6307 L 97.6053,98.5387 L 97.4667,98.448 L 97.324,98.36 L 97.18,98.2773 L 97.0347,98.196 L 96.888,98.1187 L 96.7413,98.048 L 96.5933,97.9773 L 96.444,97.9133 L 96.2947,97.8493 L 96.1427,97.792 L 95.992,97.736 L 95.8373,97.684 L 95.6853,97.636 L 95.5307,97.592 L 95.376,97.552 L 95.2227,97.5147 L 95.0667,97.48 L 94.9093,97.4493 L 94.628,97.4027 L 94.4067,97.476 Z "/>
			</g>
		</g>
		<path id="dp_path024" fill="none" fill-rule="evenodd" stroke="#a60559" stroke-width="1.06667" d="M 98.9333,107.531 C 96.876,109.812 93.0973,109.892 90.4933,107.711 C 87.8893,105.529 87.4453,101.912 89.5027,99.632"/>
		<g id="dp_group016">
			<path id="dp_path018" fill="#00d920" fill-rule="evenodd" d="M 30.2267,27.0653 L 31.14,26.0947 L 32.968,24.1533 L 25.8293,22.012 L 28.3987,29.008 Z "/>
			<path id="dp_path019" fill="#00d920" fill-rule="evenodd" d="M 95.2853,103.452 L 94.7173,102.511 L 94.1507,101.576 L 93.584,100.647 L 93.0173,99.7253 L 92.452,98.812 L 91.888,97.904 L 91.324,97.0027 L 90.76,96.1107 L 90.196,95.224 L 89.6347,94.344 L 89.0733,93.4707 L 88.5133,92.604 L 87.952,91.744 L 87.392,90.8907 L 86.8333,90.044 L 86.2747,89.2027 L 85.7173,88.3693 L 85.16,87.54 L 84.0467,85.9027 L 82.936,84.2907 L 81.8293,82.7013 L 80.7227,81.136 L 79.6187,79.5933 L 78.5173,78.0747 L 77.4187,76.576 L 76.3213,75.1 L 75.2253,73.6453 L 74.132,72.2107 L 73.04,70.7973 L 71.952,69.4013 L 70.864,68.028 L 69.7773,66.672 L 68.6933,65.3347 L 67.6107,64.0133 L 66.5293,62.7107 L 65.4507,61.4267 L 64.3733,60.1573 L 63.2973,58.904 L 62.2227,57.6667 L 61.1493,56.4453 L 60.0787,55.2373 L 59.008,54.044 L 57.9387,52.864 L 56.872,51.6973 L 55.8053,50.5427 L 54.7387,49.4013 L 53.676,48.2733 L 52.612,47.1533 L 51.5507,46.048 L 50.4893,44.9493 L 49.4307,43.864 L 48.3707,42.7853 L 47.3133,41.7173 L 46.2573,40.6573 L 45.2013,39.6053 L 44.1453,38.5613 L 43.0907,37.524 L 42.036,36.4947 L 40.984,35.472 L 39.932,34.4533 L 38.8787,33.44 L 36.7773,31.428 L 34.676,29.432 L 32.5773,27.448 L 31.1413,26.0947 L 30.2267,27.0653 L 31.6627,28.416 L 33.7613,30.3973 L 35.8573,32.3907 L 37.956,34.4 L 39.0067,35.4107 L 40.056,36.4267 L 41.108,37.4493 L 42.1573,38.476 L 43.2093,39.5107 L 44.2627,40.552 L 45.316,41.5987 L 46.3693,42.656 L 47.424,43.7213 L 48.4787,44.7947 L 49.5347,45.8773 L 50.5907,46.9707 L 51.6493,48.0733 L 52.708,49.188 L 53.768,50.3133 L 54.8293,51.4493 L 55.8907,52.5987 L 56.9547,53.76 L 58.0187,54.9347 L 59.084,56.1227 L 60.152,57.3253 L 61.22,58.5413 L 62.2893,59.7733 L 63.36,61.0213 L 64.4347,62.2853 L 65.508,63.564 L 66.584,64.8613 L 67.6613,66.1747 L 68.74,67.5067 L 69.8213,68.8573 L 70.904,70.2253 L 71.9893,71.6133 L 73.076,73.0213 L 74.164,74.448 L 75.2547,75.8973 L 76.3467,77.368 L 77.4427,78.8587 L 78.5387,80.372 L 79.6373,81.9067 L 80.7387,83.4667 L 81.8427,85.048 L 82.948,86.6547 L 84.056,88.2867 L 84.6107,89.1107 L 85.168,89.9413 L 85.724,90.7773 L 86.28,91.6213 L 86.8373,92.472 L 87.396,93.3293 L 87.9533,94.1933 L 88.5147,95.0613 L 89.0733,95.9387 L 89.6347,96.8227 L 90.196,97.712 L 90.7573,98.608 L 91.3213,99.5133 L 91.884,100.424 L 92.448,101.343 L 93.012,102.267 L 93.5787,103.199 L 94.144,104.14 Z "/>
		</g>
		<g id="dp_group041">
			<path id="dp_path043" fill="#fdaa0f" fill-rule="evenodd" d="M 100.427,95.6253 L 99.324,94.876 L 97.1187,93.376 L 103.624,89.7373 L 102.632,97.124 Z "/>
			<path id="dp_path044" fill="#fdaa0f" fill-rule="evenodd" d="M 93.56,103.348 L 99.324,94.876 L 100.425,95.624 L 94.6613,104.096 Z "/>
		</g>
		<g id="dp_group025">
			<g id="dp_group026">
				<path id="dp_path027" fill="#a60559" fill-rule="evenodd" d="M 98.2227,75.5453 L 97.2653,75.076 L 95.3493,74.1373 L 95.3973,80.1 L 100.139,76.484 Z "/>
				<path id="dp_path028" fill="#a60559" d="M 98.2227,75.5453 L 98.2427,75.504 L 98.3547,75.4307 L 98.588,75.2907 L 98.8307,75.1573 L 99.0813,75.0333 L 99.3413,74.916 L 99.6053,74.808 L 99.88,74.7093 L 100.016,74.664 L 100.157,74.6213 L 100.301,74.58 L 100.445,74.5413 L 100.589,74.5053 L 100.732,74.472 L 100.876,74.4427 L 101.017,74.4173 L 101.304,74.372 L 101.587,74.3387 L 101.867,74.3173 L 102.144,74.3067 L 102.416,74.3053 L 102.685,74.3173 L 102.949,74.3387 L 103.208,74.3707 L 103.461,74.4107 L 103.709,74.4613 L 103.948,74.5227 L 104.183,74.5933 L 104.413,74.6733 L 104.52,74.7147 L 104.631,74.7613 L 104.737,74.808 L 104.84,74.856 L 104.941,74.9067 L 105.043,74.9613 L 105.143,75.0173 L 105.239,75.0747 L 105.331,75.132 L 105.421,75.1947 L 105.511,75.2573 L 105.595,75.32 L 105.68,75.388 L 105.761,75.4573 L 105.839,75.5253 L 105.916,75.5987 L 105.988,75.6707 L 106.061,75.748 L 106.129,75.8227 L 106.193,75.9 L 106.259,75.9827 L 106.319,76.0627 L 106.373,76.1427 L 106.428,76.228 L 106.481,76.316 L 106.529,76.4 L 106.575,76.4893 L 106.619,76.5813 L 106.657,76.672 L 106.695,76.7653 L 106.729,76.8587 L 106.76,76.956 L 106.788,77.0547 L 106.815,77.1627 L 107.849,76.904 L 107.817,76.7773 L 107.779,76.6467 L 107.737,76.5173 L 107.692,76.3893 L 107.641,76.2613 L 107.587,76.1387 L 107.529,76.0173 L 107.468,75.8987 L 107.401,75.7773 L 107.332,75.6653 L 107.261,75.5533 L 107.183,75.4413 L 107.101,75.332 L 107.02,75.2307 L 106.935,75.1267 L 106.843,75.0253 L 106.753,74.9293 L 106.657,74.8333 L 106.559,74.7413 L 106.457,74.6493 L 106.352,74.564 L 106.248,74.48 L 106.137,74.396 L 106.027,74.3173 L 105.912,74.2413 L 105.793,74.1653 L 105.673,74.0947 L 105.555,74.028 L 105.432,73.9627 L 105.307,73.8987 L 105.177,73.8373 L 105.047,73.78 L 104.917,73.728 L 104.781,73.6733 L 104.511,73.58 L 104.233,73.496 L 103.947,73.424 L 103.653,73.3627 L 103.357,73.3147 L 103.056,73.2773 L 102.749,73.2533 L 102.437,73.2413 L 102.123,73.24 L 101.805,73.2533 L 101.485,73.2773 L 101.16,73.316 L 100.839,73.3667 L 100.673,73.3973 L 100.508,73.432 L 100.344,73.468 L 100.179,73.5093 L 100.016,73.5533 L 99.856,73.6 L 99.696,73.648 L 99.5333,73.7013 L 99.224,73.8133 L 98.92,73.9373 L 98.6253,74.0707 L 98.3373,74.2133 L 98.06,74.3653 L 97.7893,74.5267 L 97.4133,74.7733 L 97.2653,75.076 Z "/>
			</g>
		</g>
		<path id="dp_path029" fill="none" fill-rule="evenodd" stroke="#a60559" stroke-width="1.06667" d="M 107.332,77.0333 C 107.913,79.5427 105.712,82.2627 102.416,83.1093 C 99.1213,83.9573 95.9787,82.6107 95.3973,80.1013"/>
		<g id="dp_group064">
			<path id="dp_path066" fill="#00d920" fill-rule="evenodd" d="M 63.0307,5.74 L 64.0987,4.94133 L 66.2347,3.34533 L 59.5747,0 L 60.8947,7.336 Z "/>
			<path id="dp_path067" fill="#00d920" fill-rule="evenodd" d="M 102.272,78.0813 L 101.667,76.5373 L 101.06,75 L 100.452,73.4733 L 99.84,71.9573 L 99.2253,70.4493 L 98.608,68.952 L 97.9893,67.4653 L 97.368,65.9867 L 96.744,64.5187 L 96.12,63.0613 L 95.492,61.6133 L 94.8613,60.1747 L 94.2293,58.7467 L 93.596,57.3293 L 92.96,55.92 L 92.3213,54.5227 L 91.68,53.1333 L 91.0387,51.7573 L 90.3947,50.388 L 89.7493,49.0307 L 89.1013,47.6827 L 88.452,46.344 L 87.8013,45.0173 L 87.148,43.7013 L 86.4933,42.3933 L 85.8373,41.096 L 85.18,39.8093 L 84.5213,38.5333 L 83.86,37.2667 L 83.1987,36.012 L 82.5347,34.7667 L 81.8707,33.532 L 81.204,32.3053 L 80.536,31.0933 L 79.868,29.8893 L 79.1987,28.696 L 78.5267,27.512 L 77.8547,26.34 L 77.1827,25.1773 L 76.5067,24.0267 L 75.832,22.8853 L 75.1547,21.7547 L 74.4787,20.6347 L 73.7987,19.5253 L 73.12,18.4267 L 72.44,17.3373 L 71.76,16.26 L 71.0773,15.1933 L 70.396,14.1373 L 69.712,13.092 L 69.0293,12.0573 L 68.344,11.0347 L 67.66,10.0213 L 66.976,9.01733 L 66.2893,8.02667 L 65.6027,7.04667 L 64.916,6.076 L 64.2267,5.11467 L 64.1,4.94267 L 63.0307,5.73733 L 63.152,5.89867 L 63.8307,6.84933 L 64.5147,7.812 L 65.196,8.78667 L 65.8773,9.772 L 66.5587,10.768 L 67.24,11.776 L 67.92,12.7933 L 68.6,13.8227 L 69.2787,14.8627 L 69.9573,15.9133 L 70.6347,16.9747 L 71.312,18.0467 L 71.9893,19.128 L 72.6653,20.2213 L 73.34,21.3253 L 74.0133,22.44 L 74.688,23.5653 L 75.36,24.7013 L 76.0307,25.8467 L 76.7,27.004 L 77.3693,28.1707 L 78.0387,29.3493 L 78.7053,30.5373 L 79.3707,31.736 L 80.036,32.9453 L 80.7,34.164 L 81.3613,35.3933 L 82.0227,36.636 L 82.6813,37.8853 L 83.34,39.1467 L 83.996,40.4173 L 84.6507,41.6987 L 85.304,42.9907 L 85.956,44.2933 L 86.6067,45.6067 L 87.2547,46.928 L 87.9013,48.2613 L 88.5467,49.604 L 89.192,50.956 L 89.8333,52.32 L 90.472,53.6933 L 91.1107,55.0773 L 91.7467,56.4693 L 92.38,57.8733 L 93.0133,59.288 L 93.6427,60.7107 L 94.2707,62.144 L 94.896,63.5867 L 95.52,65.0413 L 96.1413,66.504 L 96.76,67.9773 L 97.3787,69.4613 L 97.9933,70.9533 L 98.6053,72.456 L 99.2147,73.9693 L 99.8227,75.4907 L 100.427,77.0227 L 101.029,78.5667 Z "/>
		</g>
		<g id="dp_group077">
			<path id="dp_path079" fill="#fdaa0f" fill-rule="evenodd" d="M 94.8293,65.984 L 96.0347,65.416 L 98.448,64.2787 L 92.588,59.6707 L 92.4173,67.1227 Z "/>
			<path id="dp_path080" fill="#fdaa0f" fill-rule="evenodd" d="M 102.335,78.7773 L 96.036,65.416 L 94.8293,65.984 L 101.128,79.3453 Z "/>
		</g>
		<g id="dp_group030">
			<g id="dp_group031">
				<path id="dp_path032" fill="#a60559" fill-rule="evenodd" d="M 133.621,86.5373 L 133.501,85.4773 L 133.263,83.3573 L 128.261,86.604 L 133.86,88.6573 Z "/>
				<path id="dp_path033" fill="#a60559" d="M 133.621,86.536 L 133.68,86.5293 L 133.62,86 L 133.396,86.484 L 133.648,86.6 L 133.888,86.7227 L 134.127,86.8573 L 134.363,87 L 134.596,87.1573 L 134.828,87.3253 L 135.055,87.5013 L 135.277,87.6893 L 135.496,87.8893 L 135.708,88.0973 L 135.908,88.308 L 136.097,88.5267 L 136.277,88.748 L 136.445,88.972 L 136.603,89.2 L 136.751,89.4307 L 136.885,89.664 L 137.011,89.9 L 137.124,90.136 L 137.227,90.3733 L 137.317,90.6093 L 137.397,90.8467 L 137.467,91.0827 L 137.524,91.3173 L 137.569,91.5493 L 137.605,91.784 L 137.617,91.8933 L 137.628,92.0053 L 137.635,92.1213 L 137.64,92.2347 L 137.641,92.3453 L 137.641,92.4547 L 137.637,92.5627 L 137.631,92.6733 L 137.621,92.7787 L 137.609,92.884 L 137.595,92.9867 L 137.576,93.0893 L 137.556,93.1933 L 137.533,93.2933 L 137.508,93.392 L 137.48,93.484 L 137.447,93.5827 L 137.413,93.6787 L 137.377,93.7693 L 137.337,93.86 L 137.296,93.9493 L 137.251,94.0373 L 137.201,94.124 L 137.153,94.2053 L 137.099,94.2893 L 137.041,94.3733 L 136.984,94.4507 L 136.923,94.528 L 136.859,94.6027 L 136.785,94.6813 L 137.569,95.404 L 137.656,95.3093 L 137.744,95.2053 L 137.829,95.0987 L 137.911,94.9893 L 137.984,94.8813 L 138.057,94.7707 L 138.127,94.6547 L 138.189,94.5387 L 138.251,94.4213 L 138.308,94.3 L 138.361,94.1773 L 138.411,94.052 L 138.455,93.9293 L 138.496,93.8067 L 138.535,93.6747 L 138.568,93.544 L 138.599,93.4147 L 138.624,93.284 L 138.648,93.152 L 138.665,93.0173 L 138.683,92.8827 L 138.692,92.748 L 138.701,92.6133 L 138.705,92.476 L 138.708,92.34 L 138.704,92.2027 L 138.699,92.0653 L 138.689,91.928 L 138.679,91.7893 L 138.661,91.6453 L 138.62,91.368 L 138.564,91.088 L 138.496,90.808 L 138.413,90.5267 L 138.32,90.2493 L 138.213,89.9707 L 138.092,89.6933 L 137.96,89.42 L 137.816,89.1493 L 137.66,88.8787 L 137.491,88.6133 L 137.312,88.3507 L 137.117,88.092 L 136.913,87.8413 L 136.697,87.5933 L 136.468,87.3507 L 136.229,87.116 L 135.981,86.8893 L 135.727,86.6747 L 135.468,86.472 L 135.204,86.2827 L 134.936,86.104 L 134.665,85.9373 L 134.392,85.784 L 134.115,85.6427 L 133.708,85.4533 L 133.501,85.4773 Z "/>
			</g>
		</g>
		<path id="dp_path034" fill="none" fill-rule="evenodd" stroke="#a60559" stroke-width="1.06667" d="M 137.177,95.0427 C 135.441,96.8773 132.037,96.4747 129.576,94.144 C 127.113,91.8147 126.525,88.4373 128.261,86.604"/>
		<g id="dp_group046">
			<path id="dp_path048" fill="#fdaa0f" fill-rule="evenodd" d="M 141.725,81.1653 L 142.644,82.132 L 144.481,84.0653 L 147.016,77.056 L 139.887,79.2347 Z "/>
			<path id="dp_path049" fill="#fdaa0f" fill-rule="evenodd" d="M 132.653,91.632 L 142.644,82.132 L 141.725,81.1667 L 131.735,90.6667 Z "/>
		</g>
		<g id="dp_group060">
			<text id="dp_text006" transform="matrix(1,0,0,1,79.2873,63.8533)" xml:space="preserve" fill="#fdaa0f" font-family="Arial" font-size="13" font-weight="700" x="0" y="0">n </text>
			<text id="dp_text007" transform="matrix(1,0,0,1,87.2287,63.8533)" xml:space="preserve" fill="#fdaa0f" font-family="Times New Roman" font-size="13" font-weight="400" x="0" y="0">  </text>
			<path id="dp_path063" fill="#fdaa0f" fill-rule="evenodd" d="M 80.3533,55.2293 L 82.7453,52.648 L 84.1653,52.648 L 86.4947,55.2293 L 84.6907,55.2293 L 83.428,53.6507 L 82.1733,55.2293 Z "/>
		</g>
	</g>
</svg>