<?xml version="1.0" encoding="UTF-8" standalone="no"?>
<!-- Created with Inkscape (http://www.inkscape.org/) -->

<svg
   xmlns:dc="http://purl.org/dc/elements/1.1/"
   xmlns:cc="http://creativecommons.org/ns#"
   xmlns:rdf="http://www.w3.org/1999/02/22-rdf-syntax-ns#"
   xmlns:svg="http://www.w3.org/2000/svg"
   xmlns="http://www.w3.org/2000/svg"
   xmlns:sodipodi="http://sodipodi.sourceforge.net/DTD/sodipodi-0.dtd"
   xmlns:inkscape="http://www.inkscape.org/namespaces/inkscape"
   sodipodi:docname="Frames of reference in relative motion.svg"
   inkscape:version="0.48.2 r9819"
   version="1.1"
   id="svg9074"
   height="283.46457"
   width="478.34644">
  <sodipodi:namedview
     inkscape:document-units="mm"
     pagecolor="#ffffff"
     bordercolor="#666666"
     borderopacity="1.0"
     inkscape:pageopacity="0.0"
     inkscape:pageshadow="2"
     inkscape:zoom="0.86831672"
     inkscape:cx="145.19429"
     inkscape:cy="148.66002"
     inkscape:current-layer="layer1"
     id="namedview9078"
     showgrid="false"
     inkscape:window-width="1024"
     inkscape:window-height="705"
     inkscape:window-x="-4"
     inkscape:window-y="-4"
     inkscape:window-maximized="1"
     units="mm"
     fit-margin-top="0"
     fit-margin-left="0"
     fit-margin-right="0"
     fit-margin-bottom="0" />
  <defs
     id="defs9076">
    <marker
       style="overflow:visible"
       id="Arrow2Mstart"
       refX="0"
       refY="0"
       orient="auto"
       inkscape:stockid="Arrow2Mstart">
      <path
         transform="scale(0.6,0.6)"
         d="M 8.7185878,4.0337352 -2.2072895,0.01601326 8.7185884,-4.0017078 c -1.7454984,2.3720609 -1.7354408,5.6174519 -6e-7,8.035443 z"
         style="font-size:12px;fill-rule:evenodd;stroke-width:0.625;stroke-linejoin:round"
         id="path3874"
         inkscape:connector-curvature="0" />
    </marker>
    <marker
       style="overflow:visible"
       id="Arrow2Mend"
       refX="0"
       refY="0"
       orient="auto"
       inkscape:stockid="Arrow2Mend">
      <path
         transform="scale(-0.6,-0.6)"
         d="M 8.7185878,4.0337352 -2.2072895,0.01601326 8.7185884,-4.0017078 c -1.7454984,2.3720609 -1.7354408,5.6174519 -6e-7,8.035443 z"
         style="font-size:12px;fill-rule:evenodd;stroke-width:0.625;stroke-linejoin:round"
         id="path3877"
         inkscape:connector-curvature="0" />
    </marker>
    <marker
       style="overflow:visible"
       id="Arrow2Mend-7"
       refX="0"
       refY="0"
       orient="auto"
       inkscape:stockid="Arrow2Mend">
      <path
         transform="scale(-0.6,-0.6)"
         d="M 8.7185878,4.0337352 -2.2072895,0.01601326 8.7185884,-4.0017078 c -1.7454984,2.3720609 -1.7354408,5.6174519 -6e-7,8.035443 z"
         style="font-size:12px;fill-rule:evenodd;stroke-width:0.625;stroke-linejoin:round"
         id="path3877-6"
         inkscape:connector-curvature="0" />
    </marker>
    <marker
       style="overflow:visible"
       id="Arrow2Mstart-1"
       refX="0"
       refY="0"
       orient="auto"
       inkscape:stockid="Arrow2Mstart">
      <path
         transform="scale(0.6,0.6)"
         d="M 8.7185878,4.0337352 -2.2072895,0.01601326 8.7185884,-4.0017078 c -1.7454984,2.3720609 -1.7354408,5.6174519 -6e-7,8.035443 z"
         style="font-size:12px;fill-rule:evenodd;stroke-width:0.625;stroke-linejoin:round"
         id="path3874-8"
         inkscape:connector-curvature="0" />
    </marker>
    <marker
       style="overflow:visible"
       id="marker10347"
       refX="0"
       refY="0"
       orient="auto"
       inkscape:stockid="Arrow2Mend">
      <path
         transform="scale(-0.6,-0.6)"
         d="M 8.7185878,4.0337352 -2.2072895,0.01601326 8.7185884,-4.0017078 c -1.7454984,2.3720609 -1.7354408,5.6174519 -6e-7,8.035443 z"
         style="font-size:12px;fill-rule:evenodd;stroke-width:0.625;stroke-linejoin:round"
         id="path10349"
         inkscape:connector-curvature="0" />
    </marker>
    <marker
       style="overflow:visible"
       id="Arrow2Mstart9"
       refX="0"
       refY="0"
       orient="auto"
       inkscape:stockid="Arrow2Mstart9">
      <path
         transform="scale(0.6,0.6)"
         d="M 8.7185878,4.0337352 -2.2072895,0.01601326 8.7185884,-4.0017078 c -1.7454984,2.3720609 -1.7354408,5.6174519 -6e-7,8.035443 z"
         style="font-size:12px;fill:#0000ff;fill-rule:evenodd;stroke:#0000ff;stroke-width:0.625;stroke-linejoin:round"
         id="path10387"
         inkscape:connector-curvature="0" />
    </marker>
    <marker
       style="overflow:visible"
       id="Arrow2Mendb"
       refX="0"
       refY="0"
       orient="auto"
       inkscape:stockid="Arrow2Mendb">
      <path
         transform="scale(-0.6,-0.6)"
         d="M 8.7185878,4.0337352 -2.2072895,0.01601326 8.7185884,-4.0017078 c -1.7454984,2.3720609 -1.7354408,5.6174519 -6e-7,8.035443 z"
         style="font-size:12px;fill:#0000ff;fill-rule:evenodd;stroke:#0000ff;stroke-width:0.625;stroke-linejoin:round"
         id="path10390"
         inkscape:connector-curvature="0" />
    </marker>
    <marker
       style="overflow:visible"
       id="Arrow2Mendd"
       refX="0"
       refY="0"
       orient="auto"
       inkscape:stockid="Arrow2Mendd">
      <path
         transform="scale(-0.6,-0.6)"
         d="M 8.7185878,4.0337352 -2.2072895,0.01601326 8.7185884,-4.0017078 c -1.7454984,2.3720609 -1.7354408,5.6174519 -6e-7,8.035443 z"
         style="font-size:12px;fill:#0000ff;fill-rule:evenodd;stroke:#0000ff;stroke-width:0.625;stroke-linejoin:round"
         id="path10393"
         inkscape:connector-curvature="0" />
    </marker>
    <marker
       inkscape:stockid="EmptyTriangleOutL"
       orient="auto"
       refY="0"
       refX="0"
       id="EmptyTriangleOutL"
       style="overflow:visible">
      <path
         inkscape:connector-curvature="0"
         id="path4011"
         d="m 5.77,0 -8.65,5 0,-10 8.65,5 z"
         style="fill:#ffffff;fill-rule:evenodd;stroke:#000000;stroke-width:1pt;marker-start:none"
         transform="matrix(0.8,0,0,0.8,-4.8,0)" />
    </marker>
  </defs>
  <metadata
     id="metadata9080">
    <rdf:RDF>
      <cc:Work
         rdf:about="">
        <dc:format>image/svg+xml</dc:format>
        <dc:type
           rdf:resource="http://purl.org/dc/dcmitype/StillImage" />
        <dc:title />
      </cc:Work>
    </rdf:RDF>
  </metadata>
  <g
     id="layer1"
     inkscape:groupmode="layer"
     inkscape:label="Layer 1"
     transform="translate(-154.91701,-62.67591)">
    <path
       inkscape:connector-curvature="0"
       id="path9083"
       d="m 272.99968,84.103056 0,160.573744 229.72835,0"
       style="fill:none;stroke:#000000;stroke-width:1.41066384;stroke-linecap:butt;stroke-linejoin:miter;stroke-miterlimit:4;stroke-opacity:1;stroke-dasharray:none;marker-start:url(#Arrow2Mstart);marker-end:url(#Arrow2Mend)" />
    <path
       inkscape:connector-curvature="0"
       id="path10147"
       d="m 273.06131,244.6768 -85.34874,85.34875"
       style="fill:none;stroke:#000000;stroke-width:1.71559083;stroke-linecap:butt;stroke-linejoin:miter;stroke-miterlimit:4;stroke-opacity:1;stroke-dasharray:none;marker-end:url(#Arrow2Mend)" />
    <path
       inkscape:connector-curvature="0"
       id="path9083-9"
       d="m 379.56023,83.942801 0,160.698749 226.6571,0"
       style="fill:none;stroke:#0000ff;stroke-width:1.40174782;stroke-linecap:butt;stroke-linejoin:miter;stroke-miterlimit:4;stroke-opacity:1;stroke-dasharray:none;marker-start:url(#Arrow2Mstart9);marker-end:url(#Arrow2Mendb)" />
    <path
       inkscape:connector-curvature="0"
       id="path10147-2"
       d="M 379.62186,244.64155 294.27312,329.9903"
       style="fill:none;stroke:#0000ff;stroke-width:1.71559083;stroke-linecap:butt;stroke-linejoin:miter;stroke-miterlimit:4;stroke-opacity:1;stroke-dasharray:none;marker-end:url(#Arrow2Mendd)" />
    <g
       transform="matrix(0.62385122,0,0,0.62385122,231.56628,13.736558)"
       style="font-size:40px;font-style:italic;font-variant:normal;font-weight:normal;font-stretch:normal;text-align:start;line-height:125%;letter-spacing:0px;word-spacing:0px;writing-mode:lr-tb;text-anchor:start;fill:#000000;fill-opacity:1;stroke:none;font-family:PMingLiU;-inkscape-font-specification:PMingLiU Italic"
       id="flowRoot3780">
      <path
         d="m 88.394043,401.16887 c -1.531604,4.50522 -3.955511,8.15105 -7.271729,10.9375 -3.195006,2.65625 -6.550309,3.98437 -10.065918,3.98438 -3.489592,-1e-5 -5.928554,-1.32813 -7.316894,-3.98438 -1.449385,-2.78645 -1.408288,-6.43228 0.123291,-10.9375 1.601556,-4.71352 4.152009,-8.46352 7.651367,-11.25 3.14126,-2.49997 6.378562,-3.74997 9.711914,-3.75 3.359349,3e-5 5.760063,1.25003 7.202149,3.75 1.587696,2.76044 1.576303,6.51044 -0.03418,11.25 z m -2.722168,-0.0391 c 1.575492,-4.6354 1.720756,-8.24217 0.435791,-10.82031 -1.088894,-2.08331 -2.831242,-3.12498 -5.227051,-3.125 -2.369811,2e-5 -4.794125,1.04169 -7.272949,3.125 -3.037935,2.57814 -5.344655,6.18491 -6.920166,10.82031 -1.548672,4.5573 -1.710618,8.09896 -0.48584,10.625 1.019686,2.13542 2.76651,3.20312 5.240479,3.20312 2.473943,0 4.971906,-1.0677 7.493896,-3.20312 2.941871,-2.52604 5.187149,-6.0677 6.73584,-10.625 z"
         id="path10498"
         inkscape:connector-curvature="0" />
    </g>
    <g
       transform="matrix(0.62385122,0,0,0.62385122,145.21343,-98.302068)"
       style="font-size:40px;font-style:italic;font-variant:normal;font-weight:normal;font-stretch:normal;text-align:start;line-height:125%;letter-spacing:0px;word-spacing:0px;writing-mode:lr-tb;text-anchor:start;fill:#0000ff;fill-opacity:1;stroke:none;font-family:PMingLiU;-inkscape-font-specification:PMingLiU Italic"
       id="flowRoot6511">
      <path
         d="m 395.55029,584.01262 c -1.5316,4.50522 -3.95551,8.15105 -7.27173,10.9375 -3.195,2.65625 -6.5503,3.98437 -10.06591,3.98438 -3.4896,-10e-6 -5.92856,-1.32813 -7.3169,-3.98438 -1.44938,-2.78645 -1.40829,-6.43228 0.12329,-10.9375 1.60156,-4.71352 4.15201,-8.46352 7.65137,-11.25 3.14126,-2.49997 6.37856,-3.74997 9.71191,-3.75 3.35935,3e-5 5.76007,1.25003 7.20215,3.75 1.5877,2.76044 1.57631,6.51044 -0.0342,11.25 z m -2.72217,-0.0391 c 1.5755,-4.6354 1.72076,-8.24217 0.4358,-10.82031 -1.0889,-2.08331 -2.83125,-3.12498 -5.22705,-3.125 -2.36982,2e-5 -4.79413,1.04169 -7.27295,3.125 -3.03794,2.57814 -5.34466,6.18491 -6.92017,10.82031 -1.54867,4.5573 -1.71062,8.09896 -0.48584,10.625 1.01969,2.13542 2.76651,3.20312 5.24048,3.20312 2.47394,0 4.9719,-1.0677 7.4939,-3.20312 2.94187,-2.52604 5.18714,-6.0677 6.73583,-10.625 z"
         id="path10495"
         inkscape:connector-curvature="0" />
    </g>
    <g
       transform="matrix(0.62385122,0,0,0.62385122,34.70264,-111.67031)"
       style="font-size:40px;font-style:normal;font-variant:normal;font-weight:normal;font-stretch:normal;text-align:start;line-height:125%;letter-spacing:0px;word-spacing:0px;writing-mode:lr-tb;text-anchor:start;fill:#0000ff;fill-opacity:1;stroke:none;font-family:MS Mincho;-inkscape-font-specification:MS Mincho"
       id="flowRoot6543">
      <path
         d="m 592.21875,587.0625 c -2.50001,4.16669 -4.89584,8.02086 -7.1875,11.5625 -0.41667,0.31252 -0.625,0.20835 -0.625,-0.3125 1.66666,-4.16664 3.28125,-8.48956 4.84375,-12.96875 0.41666,-0.93747 1.04166,-1.40622 1.875,-1.40625 1.04166,3e-5 1.56249,0.57295 1.5625,1.71875 -10e-6,0.4167 -0.15626,0.88545 -0.46875,1.40625 z"
         id="path10492"
         inkscape:connector-curvature="0" />
    </g>
    <g
       transform="matrix(0.62385122,0,0,0.62385122,438.40006,157.01698)"
       style="font-size:40px;font-style:normal;font-variant:normal;font-weight:normal;font-stretch:normal;text-align:start;line-height:125%;letter-spacing:0px;word-spacing:0px;writing-mode:lr-tb;text-anchor:start;fill:#000000;fill-opacity:1;stroke:none;font-family:cmbxti10;-inkscape-font-specification:cmbxti10"
       id="flowRoot3839">
      <path
         d="m 97.074219,166.77951 c -3e-6,-0.88541 0.2832,-1.65364 0.849609,-2.30468 0.566402,-0.65104 1.285802,-0.97656 2.158202,-0.97657 0.54687,1e-5 1.01562,0.17579 1.40625,0.52735 0.39062,0.35157 0.58593,0.80078 0.58594,1.34765 -1e-5,0.65105 -0.19858,1.24024 -0.5957,1.76758 -0.39715,0.52735 -0.88868,0.88868 -1.47461,1.08399 0.37759,0.41666 0.89843,0.625 1.5625,0.625 0.71613,0 1.32486,-0.35482 1.82617,-1.06446 0.50129,-0.70963 0.8496,-1.48762 1.04492,-2.33398 l 1.83594,-7.38281 c 0.29946,-1.19791 0.4492,-2.08332 0.44922,-2.65625 -2e-5,-0.58593 -0.17254,-1.02538 -0.51758,-1.31836 -0.34507,-0.29296 -0.82358,-0.43944 -1.43555,-0.43946 -1.19792,2e-5 -2.27214,0.49481 -3.22265,1.48438 -0.95053,0.9896 -1.588552,2.10939 -1.914068,3.35937 -0.104171,0.19533 -0.2474,0.31252 -0.429687,0.35157 l -1.40625,0 c -0.338545,-0.0781 -0.507816,-0.26041 -0.507813,-0.54688 -3e-6,-0.026 0.01302,-0.10415 0.03906,-0.23437 0.260413,-1.0677 0.771481,-2.06379 1.533203,-2.98828 0.761714,-0.92447 1.673175,-1.66014 2.734375,-2.20704 1.06119,-0.54685 2.1582,-0.82029 3.29102,-0.82031 2.42186,2e-5 4.11457,0.68361 5.07812,2.05078 0.53384,-0.61196 1.14582,-1.10675 1.83594,-1.48437 0.69009,-0.37759 1.41274,-0.56639 2.16797,-0.56641 1.15883,2e-5 2.18097,0.33205 3.06641,0.9961 0.88539,0.66407 1.3281,1.56251 1.32812,2.69531 -2e-5,0.89845 -0.27997,1.66993 -0.83984,2.31445 -0.55992,0.64454 -1.26956,0.96681 -2.12891,0.9668 -0.55992,1e-5 -1.03843,-0.17903 -1.43555,-0.53711 -0.39715,-0.35806 -0.59572,-0.81054 -0.5957,-1.35742 -2e-5,-0.63801 0.19529,-1.22395 0.58594,-1.75782 0.3906,-0.53383 0.88539,-0.89191 1.48437,-1.07421 -0.37762,-0.42968 -0.91147,-0.64452 -1.60156,-0.64454 -0.46877,2e-5 -0.89845,0.1758 -1.28906,0.52735 -0.39064,0.35158 -0.72593,0.80079 -1.00586,1.34765 -0.27997,0.54689 -0.47202,1.04168 -0.57617,1.48438 l -1.79688,7.24609 c -0.32553,1.27605 -0.48829,2.20704 -0.48828,2.79297 -1e-5,1.19792 0.67056,1.79688 2.01172,1.79688 1.1979,0 2.27537,-0.49805 3.23242,-1.49414 0.95701,-0.99609 1.58527,-2.11914 1.88477,-3.36914 0.10414,-0.18229 0.26039,-0.29297 0.46875,-0.33204 l 1.40625,0 c 0.32549,0.0912 0.48825,0.27996 0.48828,0.56641 -3e-5,0.026 -0.013,0.0911 -0.0391,0.19531 -0.26044,1.05469 -0.77477,2.05079 -1.54297,2.98828 -0.76825,0.93751 -1.68297,1.67969 -2.74414,2.22657 -1.06122,0.54687 -2.15171,0.82031 -3.27149,0.82031 -0.72918,0 -1.39975,-0.0618 -2.01172,-0.18555 -0.61199,-0.1237 -1.19467,-0.33203 -1.74804,-0.625 -0.5534,-0.29297 -1.01238,-0.69987 -1.37696,-1.2207 -0.50782,0.58594 -1.11003,1.07096 -1.80664,1.45508 -0.69662,0.38411 -1.40951,0.57617 -2.13867,0.57617 -1.19792,0 -2.23308,-0.32878 -3.105471,-0.98633 -0.872399,-0.65755 -1.308596,-1.55273 -1.308593,-2.68555 z"
         id="path10576"
         inkscape:connector-curvature="0" />
    </g>
    <g
       transform="matrix(0.62385122,0,0,0.62385122,254.97453,-118.5221)"
       style="font-size:40px;font-style:normal;font-variant:normal;font-weight:normal;font-stretch:normal;text-align:start;line-height:125%;letter-spacing:0px;word-spacing:0px;writing-mode:lr-tb;text-anchor:start;fill:#0000ff;fill-opacity:1;stroke:none;font-family:MS Mincho;-inkscape-font-specification:MS Mincho"
       id="flowRoot6543-5">
      <path
         d="m 592.21875,587.0625 c -2.50001,4.16669 -4.89584,8.02086 -7.1875,11.5625 -0.41667,0.31252 -0.625,0.20835 -0.625,-0.3125 1.66666,-4.16664 3.28125,-8.48956 4.84375,-12.96875 0.41666,-0.93747 1.04166,-1.40622 1.875,-1.40625 1.04166,3e-5 1.56249,0.57295 1.5625,1.71875 -10e-6,0.4167 -0.15626,0.88545 -0.46875,1.40625 z"
         id="path10582"
         inkscape:connector-curvature="0" />
    </g>
    <g
       transform="matrix(0.62385122,0,0,0.62385122,543.35393,157.02801)"
       style="font-size:40px;font-style:normal;font-variant:normal;font-weight:normal;font-stretch:normal;text-align:start;line-height:125%;letter-spacing:0px;word-spacing:0px;writing-mode:lr-tb;text-anchor:start;fill:#0000ff;fill-opacity:1;stroke:none;font-family:cmbxti10;-inkscape-font-specification:cmbxti10"
       id="flowRoot3839-7">
      <path
         d="m 97.074219,166.77951 c -3e-6,-0.88541 0.2832,-1.65364 0.849609,-2.30468 0.566402,-0.65104 1.285802,-0.97656 2.158202,-0.97657 0.54687,1e-5 1.01562,0.17579 1.40625,0.52735 0.39062,0.35157 0.58593,0.80078 0.58594,1.34765 -1e-5,0.65105 -0.19858,1.24024 -0.5957,1.76758 -0.39715,0.52735 -0.88868,0.88868 -1.47461,1.08399 0.37759,0.41666 0.89843,0.625 1.5625,0.625 0.71613,0 1.32486,-0.35482 1.82617,-1.06446 0.50129,-0.70963 0.8496,-1.48762 1.04492,-2.33398 l 1.83594,-7.38281 c 0.29946,-1.19791 0.4492,-2.08332 0.44922,-2.65625 -2e-5,-0.58593 -0.17254,-1.02538 -0.51758,-1.31836 -0.34507,-0.29296 -0.82358,-0.43944 -1.43555,-0.43946 -1.19792,2e-5 -2.27214,0.49481 -3.22265,1.48438 -0.95053,0.9896 -1.588552,2.10939 -1.914068,3.35937 -0.104171,0.19533 -0.2474,0.31252 -0.429687,0.35157 l -1.40625,0 c -0.338545,-0.0781 -0.507816,-0.26041 -0.507813,-0.54688 -3e-6,-0.026 0.01302,-0.10415 0.03906,-0.23437 0.260413,-1.0677 0.771481,-2.06379 1.533203,-2.98828 0.761714,-0.92447 1.673175,-1.66014 2.734375,-2.20704 1.06119,-0.54685 2.1582,-0.82029 3.29102,-0.82031 2.42186,2e-5 4.11457,0.68361 5.07812,2.05078 0.53384,-0.61196 1.14582,-1.10675 1.83594,-1.48437 0.69009,-0.37759 1.41274,-0.56639 2.16797,-0.56641 1.15883,2e-5 2.18097,0.33205 3.06641,0.9961 0.88539,0.66407 1.3281,1.56251 1.32812,2.69531 -2e-5,0.89845 -0.27997,1.66993 -0.83984,2.31445 -0.55992,0.64454 -1.26956,0.96681 -2.12891,0.9668 -0.55992,1e-5 -1.03843,-0.17903 -1.43555,-0.53711 -0.39715,-0.35806 -0.59572,-0.81054 -0.5957,-1.35742 -2e-5,-0.63801 0.19529,-1.22395 0.58594,-1.75782 0.3906,-0.53383 0.88539,-0.89191 1.48437,-1.07421 -0.37762,-0.42968 -0.91147,-0.64452 -1.60156,-0.64454 -0.46877,2e-5 -0.89845,0.1758 -1.28906,0.52735 -0.39064,0.35158 -0.72593,0.80079 -1.00586,1.34765 -0.27997,0.54689 -0.47202,1.04168 -0.57617,1.48438 l -1.79688,7.24609 c -0.32553,1.27605 -0.48829,2.20704 -0.48828,2.79297 -1e-5,1.19792 0.67056,1.79688 2.01172,1.79688 1.1979,0 2.27537,-0.49805 3.23242,-1.49414 0.95701,-0.99609 1.58527,-2.11914 1.88477,-3.36914 0.10414,-0.18229 0.26039,-0.29297 0.46875,-0.33204 l 1.40625,0 c 0.32549,0.0912 0.48825,0.27996 0.48828,0.56641 -3e-5,0.026 -0.013,0.0911 -0.0391,0.19531 -0.26044,1.05469 -0.77477,2.05079 -1.54297,2.98828 -0.76825,0.93751 -1.68297,1.67969 -2.74414,2.22657 -1.06122,0.54687 -2.15171,0.82031 -3.27149,0.82031 -0.72918,0 -1.39975,-0.0618 -2.01172,-0.18555 -0.61199,-0.1237 -1.19467,-0.33203 -1.74804,-0.625 -0.5534,-0.29297 -1.01238,-0.69987 -1.37696,-1.2207 -0.50782,0.58594 -1.11003,1.07096 -1.80664,1.45508 -0.69662,0.38411 -1.40951,0.57617 -2.13867,0.57617 -1.19792,0 -2.23308,-0.32878 -3.105471,-0.98633 -0.872399,-0.65755 -1.308596,-1.55273 -1.308593,-2.68555 z"
         id="path10579"
         inkscape:connector-curvature="0" />
    </g>
    <g
       transform="matrix(0.62385122,0,0,0.62385122,176.68189,-50.979199)"
       style="font-size:40px;font-style:normal;font-variant:normal;font-weight:normal;font-stretch:normal;text-align:start;line-height:125%;letter-spacing:0px;word-spacing:0px;writing-mode:lr-tb;text-anchor:start;fill:#000000;fill-opacity:1;stroke:none;font-family:cmbxti10;-inkscape-font-specification:cmbxti10"
       id="flowRoot5023">
      <path
         d="m 114.19922,229.02951 c -1e-5,-0.82031 0.29296,-1.54622 0.87891,-2.17773 0.58593,-0.63151 1.29556,-0.94727 2.1289,-0.94727 0.36458,0 0.69661,0.0781 0.9961,0.23438 0.29947,0.15625 0.54035,0.37435 0.72265,0.6543 0.18228,0.27994 0.27343,0.60872 0.27344,0.98632 -1e-5,0.54687 -0.15952,1.06771 -0.47852,1.5625 -0.31902,0.49479 -0.71941,0.85286 -1.20117,1.07422 0.59895,0.32552 1.24999,0.48828 1.95313,0.48828 1.58853,0 2.91014,-0.73893 3.96484,-2.21679 1.05467,-1.47787 1.79035,-3.10222 2.20703,-4.87305 -0.96356,0.61198 -2.01824,0.91797 -3.16406,0.91797 -1.83595,0 -3.3073,-0.39714 -4.41406,-1.19141 -1.10678,-0.79427 -1.66017,-2.07682 -1.66016,-3.84765 -1e-5,-1.21094 0.19205,-2.41536 0.57617,-3.61328 0.38411,-1.19791 1.01887,-2.93619 1.9043,-5.21485 0.36457,-0.96353 0.54686,-1.72524 0.54687,-2.28515 -10e-6,-0.42968 -0.14323,-0.64452 -0.42968,-0.64454 -1.57553,2e-5 -2.79298,1.6146 -3.65235,4.84375 -0.026,0.16929 -0.16927,0.28647 -0.42968,0.35157 l -1.40625,0 c -0.33855,-0.0781 -0.50782,-0.26041 -0.50782,-0.54688 0,-0.026 0.013,-0.10415 0.0391,-0.23437 0.22135,-0.93749 0.62499,-1.8815 1.21093,-2.83203 0.58594,-0.95051 1.30534,-1.71874 2.15821,-2.30469 0.85285,-0.58592 1.76757,-0.87889 2.74414,-0.87891 1.14582,2e-5 2.15168,0.31903 3.01757,0.95703 0.86588,0.63804 1.29882,1.51043 1.29883,2.61719 -1e-5,0.41668 -0.0912,0.87892 -0.27343,1.38672 -0.37762,0.95053 -0.77476,1.98894 -1.19141,3.11523 -0.41668,1.12631 -0.75522,2.20053 -1.01563,3.22266 -0.26042,1.02214 -0.39063,1.97592 -0.39062,2.86133 -1e-5,1.75781 0.66405,2.63672 1.99219,2.63672 1.41925,0 2.7018,-0.79427 3.84765,-2.38282 l 2.98828,-12.1289 c 0.15623,-0.5729 0.48175,-1.04165 0.97657,-1.40625 0.49477,-0.36457 1.03513,-0.54686 1.62109,-0.54688 0.52081,2e-5 0.96026,0.15953 1.31836,0.47852 0.35805,0.31903 0.53708,0.73244 0.53711,1.24023 -3e-5,0.13023 -0.0261,0.2995 -0.0781,0.50782 l -3.92578,15.76171 c -0.35158,1.44531 -1.06772,2.77344 -2.14843,3.98438 -1.08075,1.21093 -2.36981,2.1582 -3.86719,2.8418 -1.49741,0.68358 -3.00132,1.02538 -4.51172,1.02539 -1.28907,-1e-5 -2.47071,-0.28321 -3.54492,-0.84961 -1.07423,-0.56642 -1.61134,-1.44207 -1.61133,-2.62696 z"
         id="path10657"
         inkscape:connector-curvature="0" />
    </g>
    <g
       transform="matrix(0.62385122,0,0,0.62385122,3.0046418,-292.3337)"
       style="font-size:40px;font-style:normal;font-variant:normal;font-weight:normal;font-stretch:normal;text-align:start;line-height:125%;letter-spacing:0px;word-spacing:0px;writing-mode:lr-tb;text-anchor:start;fill:#0000ff;fill-opacity:1;stroke:none;font-family:MS Mincho;-inkscape-font-specification:MS Mincho"
       id="flowRoot6543-8">
      <path
         d="m 592.21875,587.0625 c -2.50001,4.16669 -4.89584,8.02086 -7.1875,11.5625 -0.41667,0.31252 -0.625,0.20835 -0.625,-0.3125 1.66666,-4.16664 3.28125,-8.48956 4.84375,-12.96875 0.41666,-0.93747 1.04166,-1.40622 1.875,-1.40625 1.04166,3e-5 1.56249,0.57295 1.5625,1.71875 -10e-6,0.4167 -0.15626,0.88545 -0.46875,1.40625 z"
         id="path10654"
         inkscape:connector-curvature="0" />
    </g>
    <g
       transform="matrix(0.62385122,0,0,0.62385122,281.57179,-51.289319)"
       style="font-size:40px;font-style:normal;font-variant:normal;font-weight:normal;font-stretch:normal;text-align:start;line-height:125%;letter-spacing:0px;word-spacing:0px;writing-mode:lr-tb;text-anchor:start;fill:#0000ff;fill-opacity:1;stroke:none;font-family:cmbxti10;-inkscape-font-specification:cmbxti10"
       id="flowRoot5023-2">
      <path
         d="m 114.19922,229.02951 c -1e-5,-0.82031 0.29296,-1.54622 0.87891,-2.17773 0.58593,-0.63151 1.29556,-0.94727 2.1289,-0.94727 0.36458,0 0.69661,0.0781 0.9961,0.23438 0.29947,0.15625 0.54035,0.37435 0.72265,0.6543 0.18228,0.27994 0.27343,0.60872 0.27344,0.98632 -1e-5,0.54687 -0.15952,1.06771 -0.47852,1.5625 -0.31902,0.49479 -0.71941,0.85286 -1.20117,1.07422 0.59895,0.32552 1.24999,0.48828 1.95313,0.48828 1.58853,0 2.91014,-0.73893 3.96484,-2.21679 1.05467,-1.47787 1.79035,-3.10222 2.20703,-4.87305 -0.96356,0.61198 -2.01824,0.91797 -3.16406,0.91797 -1.83595,0 -3.3073,-0.39714 -4.41406,-1.19141 -1.10678,-0.79427 -1.66017,-2.07682 -1.66016,-3.84765 -1e-5,-1.21094 0.19205,-2.41536 0.57617,-3.61328 0.38411,-1.19791 1.01887,-2.93619 1.9043,-5.21485 0.36457,-0.96353 0.54686,-1.72524 0.54687,-2.28515 -10e-6,-0.42968 -0.14323,-0.64452 -0.42968,-0.64454 -1.57553,2e-5 -2.79298,1.6146 -3.65235,4.84375 -0.026,0.16929 -0.16927,0.28647 -0.42968,0.35157 l -1.40625,0 c -0.33855,-0.0781 -0.50782,-0.26041 -0.50782,-0.54688 0,-0.026 0.013,-0.10415 0.0391,-0.23437 0.22135,-0.93749 0.62499,-1.8815 1.21093,-2.83203 0.58594,-0.95051 1.30534,-1.71874 2.15821,-2.30469 0.85285,-0.58592 1.76757,-0.87889 2.74414,-0.87891 1.14582,2e-5 2.15168,0.31903 3.01757,0.95703 0.86588,0.63804 1.29882,1.51043 1.29883,2.61719 -1e-5,0.41668 -0.0912,0.87892 -0.27343,1.38672 -0.37762,0.95053 -0.77476,1.98894 -1.19141,3.11523 -0.41668,1.12631 -0.75522,2.20053 -1.01563,3.22266 -0.26042,1.02214 -0.39063,1.97592 -0.39062,2.86133 -1e-5,1.75781 0.66405,2.63672 1.99219,2.63672 1.41925,0 2.7018,-0.79427 3.84765,-2.38282 l 2.98828,-12.1289 c 0.15623,-0.5729 0.48175,-1.04165 0.97657,-1.40625 0.49477,-0.36457 1.03513,-0.54686 1.62109,-0.54688 0.52081,2e-5 0.96026,0.15953 1.31836,0.47852 0.35805,0.31903 0.53708,0.73244 0.53711,1.24023 -3e-5,0.13023 -0.0261,0.2995 -0.0781,0.50782 l -3.92578,15.76171 c -0.35158,1.44531 -1.06772,2.77344 -2.14843,3.98438 -1.08075,1.21093 -2.36981,2.1582 -3.86719,2.8418 -1.49741,0.68358 -3.00132,1.02538 -4.51172,1.02539 -1.28907,-1e-5 -2.47071,-0.28321 -3.54492,-0.84961 -1.07423,-0.56642 -1.61134,-1.44207 -1.61133,-2.62696 z"
         id="path10651"
         inkscape:connector-curvature="0" />
    </g>
    <g
       transform="matrix(0.62385122,0,0,0.62385122,98.036543,97.542138)"
       style="font-size:40px;font-style:normal;font-variant:normal;font-weight:normal;font-stretch:normal;text-align:start;line-height:125%;letter-spacing:0px;word-spacing:0px;writing-mode:lr-tb;text-anchor:start;fill:#000000;fill-opacity:1;stroke:none;font-family:cmbxti10;-inkscape-font-specification:cmbxti10"
       id="flowRoot5031">
      <path
         d="m 110.125,381.85764 c -0.32552,-0.0912 -0.48828,-0.27344 -0.48828,-0.54688 0,-0.14322 0.026,-0.2539 0.0781,-0.33203 0.97656,-1.58854 2.10286,-3.00455 3.37891,-4.24804 1.27603,-1.24349 3.01757,-2.77994 5.22461,-4.60938 2.20702,-1.82942 3.85741,-3.30402 4.95117,-4.42383 -0.59897,0.013 -1.4909,0.0456 -2.67578,0.0977 -1.18491,0.0521 -2.07683,0.0781 -2.67578,0.0781 -1.17189,2e-5 -1.98569,0.0912 -2.44141,0.27344 -0.0912,0.0521 -0.17579,0.16603 -0.2539,0.3418 -0.0781,0.17579 -0.22137,0.28972 -0.42969,0.3418 l -1.40625,0 c -0.33855,-0.0911 -0.50782,-0.27994 -0.50781,-0.56641 -1e-5,-0.026 0.013,-0.10415 0.0391,-0.23438 0.22135,-0.82029 0.62174,-1.58201 1.20117,-2.28515 0.57942,-0.70311 1.27603,-1.25975 2.08984,-1.66992 0.8138,-0.41014 1.63736,-0.61522 2.47071,-0.61524 0.58592,2e-5 1.11001,0.11395 1.57226,0.3418 0.46223,0.22788 1.01887,0.57944 1.66993,1.05469 0.65102,0.47527 1.1393,0.80079 1.46484,0.97656 0.3255,0.1758 0.71613,0.26369 1.17187,0.26367 0.15624,2e-5 0.33527,-0.11392 0.53711,-0.3418 0.20181,-0.22785 0.41991,-0.52732 0.6543,-0.89843 0.23436,-0.37108 0.4492,-0.68684 0.64453,-0.94727 0.19529,-0.2604 0.35805,-0.41014 0.48828,-0.44922 l 1.38672,0 c 0.35154,0.0912 0.52732,0.27997 0.52734,0.56641 -2e-5,0.0912 -0.0391,0.19533 -0.11718,0.3125 -0.75523,1.22397 -1.66018,2.3991 -2.71485,3.52539 -1.0547,1.12631 -2.23634,2.24936 -3.54492,3.36914 -1.30861,1.1198 -2.62696,2.22982 -3.95508,3.33008 -1.32813,1.10026 -2.45443,2.11914 -3.3789,3.05664 0.72916,0 1.82941,-0.026 3.30078,-0.0781 1.47134,-0.0521 2.56509,-0.0781 3.28125,-0.0781 0.96352,0 1.86522,-0.16927 2.70508,-0.50781 0.83982,-0.33854 1.3574,-0.90495 1.55273,-1.69922 0.039,-0.16927 0.18227,-0.28646 0.42969,-0.35157 l 1.40625,0 c 0.33852,0.0912 0.50779,0.27996 0.50781,0.56641 -2e-5,0.026 -0.013,0.10417 -0.0391,0.23438 -0.27346,1.08073 -0.77151,2.08984 -1.49414,3.02734 -0.72268,0.9375 -1.60158,1.69271 -2.63672,2.26562 -1.03517,0.57292 -2.09311,0.85938 -3.17383,0.85938 -0.53387,0 -1.01889,-0.10091 -1.45508,-0.30274 -0.43621,-0.20182 -0.96355,-0.53059 -1.58203,-0.98632 -0.6185,-0.45573 -1.12631,-0.79427 -1.52344,-1.01563 -0.39714,-0.22135 -0.85612,-0.33203 -1.37695,-0.33203 -0.54688,0 -1.01563,0.16276 -1.40625,0.48828 -0.39063,0.32552 -0.79428,0.75196 -1.21094,1.2793 -0.41667,0.52734 -0.70313,0.81706 -0.85937,0.86914 z"
         id="path10732"
         inkscape:connector-curvature="0" />
    </g>
    <g
       transform="matrix(0.62385122,0,0,0.62385122,-81.02566,-46.110887)"
       style="font-size:40px;font-style:normal;font-variant:normal;font-weight:normal;font-stretch:normal;text-align:start;line-height:125%;letter-spacing:0px;word-spacing:0px;writing-mode:lr-tb;text-anchor:start;fill:#0000ff;fill-opacity:1;stroke:none;font-family:MS Mincho;-inkscape-font-specification:MS Mincho"
       id="flowRoot6543-1">
      <path
         d="m 592.21875,587.0625 c -2.50001,4.16669 -4.89584,8.02086 -7.1875,11.5625 -0.41667,0.31252 -0.625,0.20835 -0.625,-0.3125 1.66666,-4.16664 3.28125,-8.48956 4.84375,-12.96875 0.41666,-0.93747 1.04166,-1.40622 1.875,-1.40625 1.04166,3e-5 1.56249,0.57295 1.5625,1.71875 -10e-6,0.4167 -0.15626,0.88545 -0.46875,1.40625 z"
         id="path10729"
         inkscape:connector-curvature="0" />
    </g>
    <g
       transform="matrix(0.62385122,0,0,0.62385122,201.07189,97.553178)"
       style="font-size:40px;font-style:normal;font-variant:normal;font-weight:normal;font-stretch:normal;text-align:start;line-height:125%;letter-spacing:0px;word-spacing:0px;writing-mode:lr-tb;text-anchor:start;fill:#0000ff;fill-opacity:1;stroke:none;font-family:cmbxti10;-inkscape-font-specification:cmbxti10"
       id="flowRoot5031-1">
      <path
         d="m 110.125,381.85764 c -0.32552,-0.0912 -0.48828,-0.27344 -0.48828,-0.54688 0,-0.14322 0.026,-0.2539 0.0781,-0.33203 0.97656,-1.58854 2.10286,-3.00455 3.37891,-4.24804 1.27603,-1.24349 3.01757,-2.77994 5.22461,-4.60938 2.20702,-1.82942 3.85741,-3.30402 4.95117,-4.42383 -0.59897,0.013 -1.4909,0.0456 -2.67578,0.0977 -1.18491,0.0521 -2.07683,0.0781 -2.67578,0.0781 -1.17189,2e-5 -1.98569,0.0912 -2.44141,0.27344 -0.0912,0.0521 -0.17579,0.16603 -0.2539,0.3418 -0.0781,0.17579 -0.22137,0.28972 -0.42969,0.3418 l -1.40625,0 c -0.33855,-0.0911 -0.50782,-0.27994 -0.50781,-0.56641 -1e-5,-0.026 0.013,-0.10415 0.0391,-0.23438 0.22135,-0.82029 0.62174,-1.58201 1.20117,-2.28515 0.57942,-0.70311 1.27603,-1.25975 2.08984,-1.66992 0.8138,-0.41014 1.63736,-0.61522 2.47071,-0.61524 0.58592,2e-5 1.11001,0.11395 1.57226,0.3418 0.46223,0.22788 1.01887,0.57944 1.66993,1.05469 0.65102,0.47527 1.1393,0.80079 1.46484,0.97656 0.3255,0.1758 0.71613,0.26369 1.17187,0.26367 0.15624,2e-5 0.33527,-0.11392 0.53711,-0.3418 0.20181,-0.22785 0.41991,-0.52732 0.6543,-0.89843 0.23436,-0.37108 0.4492,-0.68684 0.64453,-0.94727 0.19529,-0.2604 0.35805,-0.41014 0.48828,-0.44922 l 1.38672,0 c 0.35154,0.0912 0.52732,0.27997 0.52734,0.56641 -2e-5,0.0912 -0.0391,0.19533 -0.11718,0.3125 -0.75523,1.22397 -1.66018,2.3991 -2.71485,3.52539 -1.0547,1.12631 -2.23634,2.24936 -3.54492,3.36914 -1.30861,1.1198 -2.62696,2.22982 -3.95508,3.33008 -1.32813,1.10026 -2.45443,2.11914 -3.3789,3.05664 0.72916,0 1.82941,-0.026 3.30078,-0.0781 1.47134,-0.0521 2.56509,-0.0781 3.28125,-0.0781 0.96352,0 1.86522,-0.16927 2.70508,-0.50781 0.83982,-0.33854 1.3574,-0.90495 1.55273,-1.69922 0.039,-0.16927 0.18227,-0.28646 0.42969,-0.35157 l 1.40625,0 c 0.33852,0.0912 0.50779,0.27996 0.50781,0.56641 -2e-5,0.026 -0.013,0.10417 -0.0391,0.23438 -0.27346,1.08073 -0.77151,2.08984 -1.49414,3.02734 -0.72268,0.9375 -1.60158,1.69271 -2.63672,2.26562 -1.03517,0.57292 -2.09311,0.85938 -3.17383,0.85938 -0.53387,0 -1.01889,-0.10091 -1.45508,-0.30274 -0.43621,-0.20182 -0.96355,-0.53059 -1.58203,-0.98632 -0.6185,-0.45573 -1.12631,-0.79427 -1.52344,-1.01563 -0.39714,-0.22135 -0.85612,-0.33203 -1.37695,-0.33203 -0.54688,0 -1.01563,0.16276 -1.40625,0.48828 -0.39063,0.32552 -0.79428,0.75196 -1.21094,1.2793 -0.41667,0.52734 -0.70313,0.81706 -0.85937,0.86914 z"
         id="path10726"
         inkscape:connector-curvature="0" />
    </g>
    <path
       style="fill:#666666;stroke:#4f4f4f;stroke-width:0.87207437;stroke-linecap:butt;stroke-linejoin:miter;stroke-miterlimit:4;stroke-opacity:1;stroke-dasharray:0.87207439, 0.87207439;stroke-dashoffset:0;marker-end:url(#EmptyTriangleOutL)"
       d="m 380.4754,141.75507 93.19544,0"
       id="path11170"
       inkscape:connector-curvature="0" />
  </g>
  <g
     transform="matrix(0.62385122,0,0,0.62385122,11.921801,-100.80165)"
     style="font-size:40px;font-style:normal;font-variant:normal;font-weight:normal;font-stretch:normal;text-align:start;line-height:125%;letter-spacing:0px;word-spacing:0px;writing-mode:lr-tb;text-anchor:start;fill:#666666;fill-opacity:1;stroke:none;font-family:cmbxti10;-inkscape-font-specification:cmbxti10"
     id="flowRoot8745">
    <path
       d="m 509.25,286.66233 c -10e-6,-0.625 0.0716,-1.27278 0.21484,-1.94336 0.14323,-0.67057 0.31575,-1.32812 0.51758,-1.97266 0.20182,-0.64452 0.47525,-1.416 0.82031,-2.31445 0.34505,-0.89843 0.65429,-1.71223 0.92774,-2.44141 0.36457,-0.96353 0.54686,-1.72524 0.54687,-2.28515 -10e-6,-0.42968 -0.14323,-0.64452 -0.42968,-0.64454 -1.57553,2e-5 -2.79298,1.6146 -3.65235,4.84375 -0.026,0.16929 -0.16927,0.28647 -0.42969,0.35157 l -1.40625,0 c -0.33854,-0.0781 -0.50781,-0.26041 -0.50781,-0.54688 0,-0.026 0.013,-0.10415 0.0391,-0.23437 0.22136,-0.93749 0.625,-1.8815 1.21094,-2.83203 0.58594,-0.95051 1.30534,-1.71874 2.15821,-2.30469 0.85285,-0.58592 1.76757,-0.87889 2.74414,-0.87891 1.14582,2e-5 2.15168,0.31903 3.01757,0.95703 0.86588,0.63804 1.29882,1.51043 1.29883,2.61719 -10e-6,0.41668 -0.0912,0.87892 -0.27344,1.38672 -0.0911,0.26043 -0.35157,0.95053 -0.78125,2.07031 -0.42969,1.1198 -0.75522,2.03777 -0.97656,2.75391 -0.22136,0.71615 -0.40365,1.41928 -0.54687,2.10937 -0.14324,0.69011 -0.21486,1.36719 -0.21485,2.03125 -10e-6,1.91407 0.82682,2.8711 2.48047,2.8711 1.28905,0 2.46092,-0.85287 3.51563,-2.5586 0.44269,-0.72916 0.96027,-1.91405 1.55273,-3.55468 0.59243,-1.64062 0.88865,-2.81249 0.88867,-3.51563 -2e-5,-0.54686 -0.11395,-0.98632 -0.34179,-1.31836 -0.22789,-0.33202 -0.56968,-0.68684 -1.02539,-1.06445 -0.45575,-0.37759 -0.76825,-0.67056 -0.9375,-0.87891 -0.16929,-0.20832 -0.25393,-0.52082 -0.25391,-0.9375 -2e-5,-0.5078 0.14647,-0.99282 0.43945,-1.45508 0.29295,-0.46222 0.6673,-0.83657 1.12305,-1.12304 0.45571,-0.28644 0.93097,-0.42967 1.42578,-0.42969 0.89842,2e-5 1.56574,0.35809 2.00195,1.07422 0.43618,0.71616 0.65428,1.54949 0.6543,2.5 -2e-5,1.17189 -0.21486,2.60092 -0.64453,4.28711 -0.42971,1.6862 -1.04494,3.33985 -1.8457,4.96093 -0.8008,1.6211 -1.7676,2.96225 -2.90039,4.02344 -1.13283,1.0612 -2.37632,1.5918 -3.73047,1.5918 -4.45314,0 -6.6797,-1.73177 -6.67969,-5.19531 z"
       id="path8754"
       inkscape:connector-curvature="0" />
  </g>
</svg>
